<svg id="Слой_1" data-name="Слой 1" xmlns="http://www.w3.org/2000/svg" viewBox="0 0 178.22 110.58"><defs><style>.cls-1{fill:#ee2f48}.cls-2{fill:none;stroke:#ee2f48;stroke-miterlimit:10;stroke-width:11.63px}.cls-3{fill:#557a8f}</style></defs><path class="cls-1" d="M161.07 75.93a2.68 2.68 0 1 1-2.69-2.68 2.68 2.68 0 0 1 2.69 2.68m9.78-37L90 6a2.39 2.39 0 0 0-1.89 0L7.37 38.89a2.5 2.5 0 0 0 0 4.6l25.75 9.78 7 2.64 50 19 48.07-18.71.3-.12 17.38-6.76v19.43a7.51 7.51 0 0 0-1.3 13.71L151.08 88a2.51 2.51 0 0 0 2.13 3.83h10.49a2.5 2.5 0 0 0 1.64-4.39l-3.14-5a7.5 7.5 0 0 0-1.32-13.71V47.37L171 43.43a2.48 2.48 0 0 0-.16-4.54"/><path class="cls-2" d="M161.07 75.93a2.68 2.68 0 1 1-2.69-2.68 2.68 2.68 0 0 1 2.69 2.68zm9.78-37L90 6a2.39 2.39 0 0 0-1.89 0L7.37 38.89a2.5 2.5 0 0 0 0 4.6l25.75 9.78 7 2.64 50 19 48.07-18.71.3-.12 17.38-6.76v19.43a7.51 7.51 0 0 0-1.3 13.71L151.08 88a2.51 2.51 0 0 0 2.13 3.83h10.49a2.5 2.5 0 0 0 1.64-4.39l-3.14-5a7.5 7.5 0 0 0-1.32-13.71V47.37L171 43.43a2.48 2.48 0 0 0-.16-4.54z"/><path class="cls-1" d="M91 80a2.62 2.62 0 0 1-.91.17 2.47 2.47 0 0 1-.89-.17L45.05 63.21l-5-1.89v19.62c0 12.24 23.85 23.82 49.08 23.82s49.09-11.58 49.09-23.82V61.62l-5 1.94z"/><path class="cls-2" d="M91 80a2.62 2.62 0 0 1-.91.17 2.47 2.47 0 0 1-.89-.17L45.05 63.21l-5-1.89v19.62c0 12.24 23.85 23.82 49.08 23.82s49.09-11.58 49.09-23.82V61.62l-5 1.94z"/><path class="cls-3" d="M161.07 75.93a2.68 2.68 0 1 1-2.69-2.68 2.68 2.68 0 0 1 2.69 2.68m9.78-37L90 6a2.39 2.39 0 0 0-1.89 0L7.37 38.89a2.5 2.5 0 0 0 0 4.6l25.75 9.78 7 2.64 50 19 48.07-18.71.3-.12 17.38-6.76v19.43a7.51 7.51 0 0 0-1.3 13.71L151.08 88a2.51 2.51 0 0 0 2.13 3.83h10.49a2.5 2.5 0 0 0 1.64-4.39l-3.14-5a7.5 7.5 0 0 0-1.32-13.71V47.37L171 43.43a2.48 2.48 0 0 0-.16-4.54"/><path class="cls-3" d="M91 80a2.62 2.62 0 0 1-.91.17 2.47 2.47 0 0 1-.89-.17L45.05 63.21l-5-1.89v19.62c0 12.24 23.85 23.82 49.08 23.82s49.09-11.58 49.09-23.82V61.62l-5 1.94z"/></svg>