<svg id="Слой_1" data-name="Слой 1" xmlns="http://www.w3.org/2000/svg" viewBox="0 0 107.52 150.73"><defs><style>.cls-3{fill:#fff}</style><clipPath id="clip-path" transform="translate(-.69 -.69)"><path fill="none" d="M0 0h108.89v152.1H0z"/></clipPath></defs><g clip-path="url(#clip-path)"><path class="cls-3" d="M99.6 80.32A52 52 0 1 0 2.4 54.45a51.72 51.72 0 0 0 6.25 24.73v.06l35.64 63.05c1.82 4.33 5.12 7.36 10.11 7.36s8.37-3.1 10.15-7.49z" transform="translate(-.69 -.69)"/><path d="M98.91 79.63a52 52 0 1 0-97.2-25.87 51.72 51.72 0 0 0 6.25 24.73h0v.06L43.6 141.6h0c1.82 4.33 5.12 7.36 10.11 7.36s8.37-3.1 10.15-7.49z" stroke-width="3.43" stroke-linecap="round" stroke-linejoin="round" stroke="#0d7c80" fill="none"/><path class="cls-3" d="M98.21 54.45a43.77 43.77 0 1 1-43.76-43.77 43.76 43.76 0 0 1 43.76 43.77" transform="translate(-.69 -.69)"/><path d="M97.52 53.76A43.77 43.77 0 1 1 53.76 9.99a43.76 43.76 0 0 1 43.76 43.77z" stroke-width="1.72" stroke-linecap="round" stroke-linejoin="round" stroke="#0d7c80" fill="none"/><path class="cls-3" d="M54.45 82C68.62 71 75.8 64.9 80.39 56.78c6.45-11.42 2.54-21.1-5.63-24.89a15.29 15.29 0 0 0-20.31 7.45 15.31 15.31 0 0 0-20.32-7.45C26 35.68 22.05 45.36 28.5 56.78 33.09 64.9 40.28 71 54.45 82" transform="translate(-.69 -.69)"/><path d="M53.76 81.31c14.17-11 21.35-17.1 25.94-25.22 6.45-11.42 2.54-21.1-5.63-24.89a15.29 15.29 0 0 0-20.31 7.45 15.31 15.31 0 0 0-20.32-7.45c-8.13 3.79-12.08 13.47-5.63 24.89 4.59 8.12 11.78 14.22 25.95 25.22z" stroke-miterlimit="10" stroke-width=".69" stroke="#0d7c80" fill="none"/></g></svg>