<svg id="Слой_1" data-name="Слой 1" xmlns="http://www.w3.org/2000/svg" viewBox="0 0 124.33 122.29"><defs><style>.cls-4{fill:none}.cls-3{fill:#fff}.cls-4{stroke:#ee2f48;stroke-miterlimit:10;stroke-width:3.21px}</style><clipPath id="clip-path" transform="translate(-5.99 -2.47)"><path fill="none" d="M0 0h132.02v126.05H0z"/></clipPath></defs><g clip-path="url(#clip-path)"><path class="cls-3" d="M128.71 63.62A59.54 59.54 0 1 1 69.17 4.08a59.54 59.54 0 0 1 59.54 59.54" transform="translate(-5.99 -2.47)"/><path class="cls-4" d="M128.71 63.62A59.54 59.54 0 1 1 69.17 4.08a59.54 59.54 0 0 1 59.54 59.54z" transform="translate(-5.99 -2.47)"/><path class="cls-3" d="M118.77 63.62A49.6 49.6 0 1 1 69.17 14a49.6 49.6 0 0 1 49.6 49.6" transform="translate(-5.99 -2.47)"/><path d="M112.78 61.15a49.6 49.6 0 1 1-49.6-49.62 49.6 49.6 0 0 1 49.6 49.62z" stroke-width="1.61" stroke="#ee2f48" stroke-miterlimit="10" fill="none"/><path class="cls-3" d="M128 25.24c-1.1-1.09-3.15-.83-4.57.58l-15.81 15.85c-1.42 1.42-3.47 1.68-4.57.59s-.83-3.15.58-4.57l15.86-15.85c1.41-1.42 1.67-3.47.58-4.57s-3.15-.83-4.57.58L99.65 33.71c-1.41 1.41-3.47 1.67-4.56.58s-.84-3.15.58-4.57l15.85-15.85c1.41-1.41 1.68-3.47.58-4.56s-3.15-.84-4.57.58l-19 19c-16.71 16.7-18.29 18.34-16.7 23.93 1 3.43-8.48 12-8.48 12L20.32 108a5.48 5.48 0 0 0 0 7.72l1.33 1.28a5.46 5.46 0 0 0 7.72 0l43.05-43s8.61-9.47 12-8.49c5.29 1.5 7 .18 21.36-14.12l21.59-21.59c1.42-1.42 1.68-3.47.59-4.57" transform="translate(-5.99 -2.47)"/><path class="cls-4" d="M128 25.24c-1.1-1.09-3.15-.83-4.57.58l-15.81 15.85c-1.42 1.42-3.47 1.68-4.57.59s-.83-3.15.58-4.57l15.86-15.85c1.41-1.42 1.67-3.47.58-4.57s-3.15-.83-4.57.58L99.65 33.71c-1.41 1.41-3.47 1.67-4.56.58s-.84-3.15.58-4.57l15.85-15.85c1.41-1.41 1.68-3.47.58-4.56s-3.15-.84-4.57.58l-19 19c-16.71 16.7-18.29 18.34-16.7 23.93 1 3.43-8.48 12-8.48 12L20.32 108a5.48 5.48 0 0 0 0 7.72l1.33 1.28a5.46 5.46 0 0 0 7.72 0l43.05-43s8.61-9.47 12-8.49c5.29 1.5 7 .18 21.36-14.12l21.59-21.59c1.5-1.41 1.76-3.46.63-4.56z" transform="translate(-5.99 -2.47)"/><path class="cls-3" d="M120 109.5L45.82 35.34a10 10 0 0 0-1.48-1.4L32.15 21.78C26.75 16.39 15.09 2.89 9.51 8.47c-6.62 6.62 4.94 20.62 19.62 40.22S54 74.49 60.29 72.21C64.12 70.83 73 80.62 73 80.62l36.65 36.65c3.73 3.73 7.2 3.73 9.33 1.61l1.33-1.34a5.58 5.58 0 0 0-.32-8" transform="translate(-5.99 -2.47)"/><path class="cls-4" d="M120 109.5L45.82 35.34a10 10 0 0 0-1.48-1.4L32.15 21.78C26.75 16.39 15.09 2.89 9.51 8.47c-6.62 6.62 4.94 20.62 19.62 40.22S54 74.49 60.29 72.21C64.12 70.83 73 80.62 73 80.62l36.65 36.65c3.73 3.73 7.2 3.73 9.33 1.61l1.33-1.34a5.58 5.58 0 0 0-.31-8.04z" transform="translate(-5.99 -2.47)"/></g></svg>