<svg id="Слой_1" data-name="Слой 1" xmlns="http://www.w3.org/2000/svg" viewBox="0 0 158.25 118.66"><defs><style>.cls-1{fill:#ee2f48}.cls-2,.cls-4{fill:none;stroke-linecap:round;stroke-linejoin:round}.cls-2{stroke:#ee2f48;stroke-width:11px}.cls-3{fill:#557a8f}.cls-4{stroke:#557a8f;stroke-width:3px}</style></defs><path class="cls-1" d="M125.27 104.28l-.58-1.62L112 66.73l-14.42-1.11-10.66 44.43c7 .61 24.53 1.26 38.35-5.77"/><path class="cls-2" d="M125.27 104.28l-.58-1.62L112 66.73l-14.42-1.11-10.66 44.43c6.97.61 24.53 1.26 38.35-5.77z"/><path class="cls-1" d="M152.75 73.19A6 6 0 0 0 149 66.9c-7.41-3.46-23.46 0-31.33 2.35l9.86 27.82c6.2-2.13 24.66-9.66 25.21-23.88"/><path class="cls-2" d="M152.75 73.19A6 6 0 0 0 149 66.9c-7.41-3.46-23.46 0-31.33 2.35l9.86 27.82c6.21-2.13 24.67-9.66 25.22-23.88z"/><path class="cls-1" d="M50.67 107.5l.38.18c.16.08 15.38 7 29.69 5.16l12.72-52.22v-.13l-34.6-16.12.22.21-31.75 43.49c7.79 12.06 22.91 19.23 23.07 19.31z"/><path class="cls-2" d="M50.67 107.5l.38.18c.16.08 15.38 7 29.69 5.16l12.72-52.22v-.13l-34.6-16.12.22.21-31.75 43.49c7.79 12.06 22.91 19.23 23.07 19.31z"/><path class="cls-1" d="M25.57 81.36l27.18-36.73-9.92-10.13L7.29 47.76l-1.79.67c3.46 15 15 27.86 20.07 32.93"/><path class="cls-2" d="M25.57 81.36l27.18-36.73-9.92-10.13L7.29 47.76l-1.79.67C9 63.39 20.52 76.29 25.57 81.36z"/><path class="cls-1" d="M9.56 42.06l27.65-10.33c-3.3-7.5-10.93-22.07-18.34-25.52a6 6 0 0 0-7.22 1.19C1.09 17 7.2 35.93 9.56 42.06"/><path class="cls-2" d="M9.56 42.06l27.65-10.33c-3.3-7.5-10.93-22.07-18.34-25.52a6 6 0 0 0-7.22 1.19C1.09 17 7.2 35.93 9.56 42.06z"/><path class="cls-3" d="M125.27 104.28l-.58-1.62L112 66.73l-14.42-1.11-10.66 44.43c7 .61 24.53 1.26 38.35-5.77"/><path class="cls-4" d="M125.27 104.28l-.58-1.62L112 66.73l-14.42-1.11-10.66 44.43c6.97.61 24.53 1.26 38.35-5.77z"/><path class="cls-3" d="M152.75 73.19A6 6 0 0 0 149 66.9c-7.41-3.46-23.46 0-31.33 2.35l9.86 27.82c6.2-2.13 24.66-9.66 25.21-23.88"/><path class="cls-4" d="M152.75 73.19A6 6 0 0 0 149 66.9c-7.41-3.46-23.46 0-31.33 2.35l9.86 27.82c6.21-2.13 24.67-9.66 25.22-23.88z"/><path class="cls-3" d="M50.67 107.5l.38.18c.16.08 15.38 7 29.69 5.16l12.72-52.22v-.13l-34.6-16.12.22.21-31.75 43.49c7.79 12.06 22.91 19.23 23.07 19.31z"/><path class="cls-4" d="M50.67 107.5l.38.18c.16.08 15.38 7 29.69 5.16l12.72-52.22v-.13l-34.6-16.12.22.21-31.75 43.49c7.79 12.06 22.91 19.23 23.07 19.31z"/><path class="cls-3" d="M25.57 81.36l27.18-36.73-9.92-10.13L7.29 47.76l-1.79.67c3.46 15 15 27.86 20.07 32.93"/><path class="cls-4" d="M25.57 81.36l27.18-36.73-9.92-10.13L7.29 47.76l-1.79.67C9 63.39 20.52 76.29 25.57 81.36z"/><path class="cls-3" d="M9.56 42.06l27.65-10.33c-3.3-7.5-10.93-22.07-18.34-25.52a6 6 0 0 0-7.22 1.19C1.09 17 7.2 35.93 9.56 42.06"/><path class="cls-4" d="M9.56 42.06l27.65-10.33c-3.3-7.5-10.93-22.07-18.34-25.52a6 6 0 0 0-7.22 1.19C1.09 17 7.2 35.93 9.56 42.06z"/></svg>