<svg id="Слой_1" data-name="Слой 1" xmlns="http://www.w3.org/2000/svg" viewBox="0 0 199.25 147.55"><defs><style>.cls-4{fill:none}.cls-3{fill:#fff}.cls-4{stroke:#0d7c80;stroke-linecap:round;stroke-miterlimit:10;stroke-width:4.83px}</style><clipPath id="clip-path"><path fill="none" d="M0 0h199.25v147.55H0z"/></clipPath></defs><g clip-path="url(#clip-path)"><path class="cls-3" d="M167 71l-8.12 8.12c-3.67 3.67-2.75 10.5-6.42 14.17L135 110.66s-45.93 24.25-44.39 21.18l-4 4A8.21 8.21 0 0 1 75 124.21l-5.8 5.8a8.21 8.21 0 0 1-11.57-11.61l5.8-5.8A8.21 8.21 0 0 1 51.82 101l36.77-36.78L106 46.83c3.67-3.67 10.49-2.75 14.17-6.43l8.12-8.12"/><path class="cls-4" d="M167 71l-8.12 8.12c-3.67 3.67-2.75 10.5-6.42 14.17L135 110.66s-45.93 24.25-44.39 21.18l-4 4A8.21 8.21 0 0 1 75 124.21l-5.8 5.8a8.21 8.21 0 0 1-11.57-11.61l5.8-5.8A8.21 8.21 0 0 1 51.82 101l36.77-36.78L106 46.83c3.67-3.67 10.49-2.75 14.17-6.43l8.12-8.12"/><path class="cls-3" d="M167.93 72a4.12 4.12 0 0 0 5.81 0l19.57-19.57a4.13 4.13 0 0 0 0-5.81L152.67 5.94a4.1 4.1 0 0 0-5.8 0L127.3 25.51a4.12 4.12 0 0 0 0 5.81z"/><path class="cls-4" d="M167.93 72a4.12 4.12 0 0 0 5.81 0l19.57-19.57a4.13 4.13 0 0 0 0-5.81L152.67 5.94a4.1 4.1 0 0 0-5.8 0L127.3 25.51a4.12 4.12 0 0 0 0 5.81z"/><path class="cls-3" d="M94.39 58.42L51.82 101a8.21 8.21 0 0 0 11.61 11.6l23.22-23.22"/><path class="cls-4" d="M94.39 58.42L51.82 101a8.21 8.21 0 0 0 11.61 11.6l23.22-23.22"/><path class="cls-3" d="M86.65 89.38l-29 29A8.21 8.21 0 0 0 69.24 130l32.89-32.89"/><path class="cls-4" d="M86.65 89.38l-29 29A8.21 8.21 0 0 0 69.24 130l32.89-32.89"/><path class="cls-3" d="M102.13 97.12L75 124.21a8.21 8.21 0 0 0 11.61 11.61l29-29"/><path class="cls-4" d="M102.13 97.12L75 124.21a8.21 8.21 0 0 0 11.61 11.61l29-29"/><path class="cls-3" d="M167.4 55.07a5.47 5.47 0 1 0 0-7.74 5.47 5.47 0 0 0 0 7.74"/><path class="cls-4" d="M167.4 55.07a5.47 5.47 0 1 0 0-7.74 5.47 5.47 0 0 0 0 7.74z"/><path class="cls-3" d="M126.83 68.87A22.31 22.31 0 0 1 96.35 53"/><path class="cls-4" d="M126.83 68.87A22.31 22.31 0 0 1 96.35 53"/><path class="cls-3" d="M32.28 71l8.12 8.1c3.68 3.67 2.76 10.5 6.43 14.17l17.39 17.39 31 31a8.24 8.24 0 0 0 11.61 0 8.79 8.79 0 0 0 1.83-9.78l4 4a8.21 8.21 0 0 0 11.61-11.61L130 130a8.21 8.21 0 1 0 11.61-11.61l-5.8-5.8A8.21 8.21 0 0 0 147.43 101l-36.77-36.78-17.39-17.39c-3.67-3.67-10.5-2.75-14.17-6.43L71 32.28"/><path class="cls-4" d="M32.28 71l8.12 8.1c3.68 3.67 2.76 10.5 6.43 14.17l17.39 17.39 31 31a8.24 8.24 0 0 0 11.61 0 8.79 8.79 0 0 0 1.83-9.78l4 4a8.21 8.21 0 0 0 11.61-11.61L130 130a8.21 8.21 0 1 0 11.61-11.61l-5.8-5.8A8.21 8.21 0 0 0 147.43 101l-36.77-36.78-17.39-17.39c-3.67-3.67-10.5-2.75-14.17-6.43L71 32.28"/><path class="cls-3" d="M83.57 106.79L106.79 130a8.21 8.21 0 1 1-11.61 11.61l-36.76-36.75"/><path class="cls-4" d="M83.57 106.79L106.79 130a8.21 8.21 0 1 1-11.61 11.61l-36.76-36.75"/><path class="cls-3" d="M31.32 72a4.12 4.12 0 0 1-5.81 0L5.94 52.38a4.12 4.12 0 0 1 0-5.81L46.57 5.94a4.12 4.12 0 0 1 5.81 0L72 25.51a4.13 4.13 0 0 1 0 5.81z"/><path class="cls-4" d="M31.32 72a4.12 4.12 0 0 1-5.81 0L5.94 52.38a4.12 4.12 0 0 1 0-5.81L46.57 5.94a4.12 4.12 0 0 1 5.81 0L72 25.51a4.13 4.13 0 0 1 0 5.81z"/><path class="cls-3" d="M104.86 58.42L147.43 101a8.21 8.21 0 0 1-11.61 11.61L112.6 89.38"/><path class="cls-4" d="M104.86 58.42L147.43 101a8.21 8.21 0 0 1-11.61 11.61L112.6 89.38"/><path class="cls-3" d="M112.6 89.38l29 29A8.21 8.21 0 1 1 130 130L97.12 97.12"/><path class="cls-4" d="M112.6 89.38l29 29A8.21 8.21 0 1 1 130 130L97.12 97.12"/><path class="cls-3" d="M97.12 97.12l27.09 27.09a8.21 8.21 0 0 1-11.61 11.61l-29-29"/><path class="cls-4" d="M97.12 97.12l27.09 27.09a8.21 8.21 0 0 1-11.61 11.61l-29-29"/><path class="cls-3" d="M31.85 55.07a5.47 5.47 0 1 1 0-7.74 5.47 5.47 0 0 1 0 7.74"/><path class="cls-4" d="M31.85 55.07a5.47 5.47 0 1 1 0-7.74 5.47 5.47 0 0 1 0 7.74z"/><path class="cls-3" d="M117.72 42.38H79.41c-4.51 0-7.19 3.55-6 7.89l1 3.37a11.55 11.55 0 0 0 10.46 7.89h25.58"/><path class="cls-4" d="M117.72 42.38H79.41c-4.51 0-7.19 3.55-6 7.89l1 3.37a11.55 11.55 0 0 0 10.46 7.89h25.58"/></g></svg>