<svg id="Слой_1" data-name="Слой 1" xmlns="http://www.w3.org/2000/svg" viewBox="0 0 159.12 143.03"><defs><style>.cls-3{fill:#f26950}</style><clipPath id="clip-path"><path fill="none" d="M0 0h159.12v143.03H0z"/></clipPath></defs><g clip-path="url(#clip-path)"><path class="cls-3" d="M156.38 89.31V66.67h-11a52.3 52.3 0 0 0-7-17l7.77-7.77-16-16-7.77 7.77a52.52 52.52 0 0 0-17-7v-11H82.76v11a52.52 52.52 0 0 0-17 7L58 25.93l-16 16 7.78 7.77a52.32 52.32 0 0 0-7 17h-11v22.61h11a52.52 52.52 0 0 0 7 17L42 114l16 16 7.77-7.77a52.3 52.3 0 0 0 17 7v11h22.63v-11a52.3 52.3 0 0 0 17-7l7.77 7.77 16-16-7.77-7.77a52.3 52.3 0 0 0 7-17zm-62.3 23A34.35 34.35 0 1 1 128.43 78a34.39 34.39 0 0 1-34.35 34.35"/><path d="M156.38 89.31V66.67h-11a52.3 52.3 0 0 0-7-17l7.77-7.77-16-16-7.77 7.77a52.52 52.52 0 0 0-17-7v-11H82.76v11a52.52 52.52 0 0 0-17 7L58 25.93l-16 16 7.78 7.77a52.32 52.32 0 0 0-7 17h-11v22.61h11a52.52 52.52 0 0 0 7 17L42 114l16 16 7.77-7.77a52.3 52.3 0 0 0 17 7v11h22.63v-11a52.3 52.3 0 0 0 17-7l7.77 7.77 16-16-7.77-7.77a52.3 52.3 0 0 0 7-17zm-62.3 23A34.35 34.35 0 1 1 128.43 78a34.39 34.39 0 0 1-34.35 34.34z" stroke-width="3.91" stroke-linejoin="round" stroke-linecap="round" stroke="#9a1648" fill="none"/><path class="cls-3" d="M97 50.25A46.73 46.73 0 1 1 50.25 3.52 46.73 46.73 0 0 1 97 50.25"/><path d="M97 50.25A46.73 46.73 0 1 1 50.25 3.52 46.73 46.73 0 0 1 97 50.25z" stroke-miterlimit="10" stroke-width="3.91" stroke="#9a1648" fill="none"/><path class="cls-3" d="M89.89 50.25a39.64 39.64 0 1 1-39.64-39.64 39.63 39.63 0 0 1 39.64 39.64"/><path d="M89.89 50.25a39.64 39.64 0 1 1-39.64-39.64 39.63 39.63 0 0 1 39.64 39.64z" stroke-width="1.96" stroke-dasharray=".19 4.69" stroke-miterlimit="10" stroke-linecap="round" stroke="#9a1648" fill="none"/><path class="cls-3" d="M56.94 43.48c-.22-4.82-1.62-7.67-4.64-8.51v11.87l2.35.89c2.52.9 5.43 2.07 7.22 4.15a11.15 11.15 0 0 1 2.41 7.27c0 7.56-4.82 11.76-12 11.87v4.81H48.1v-5.15c-2.35-.56-4.59-1.73-5.66-4.14v3.86h-6.21V56.47h6.55c-.06 4.08 1.34 8.28 5.32 9.23V53l-2.58-1c-5.26-2-9.29-4.42-9.29-10.75 0-7.11 4.59-11.7 11.87-11.7v-4.88h4.2v5.43c1.62.39 3.13 1.29 4.87 3.53v-3.31h6.21v13.16zM48.1 34.8a5.85 5.85 0 0 0-2.58 1.2 5.27 5.27 0 0 0-1.73 3.87c0 2.91 2 4.36 4.31 5.31zm4.2 30.85a5.29 5.29 0 0 0 4.14-5.43c0-3.31-1.68-4.6-4.14-5.6z"/><path d="M56.94 43.48c-.22-4.82-1.62-7.67-4.64-8.51v11.87l2.35.89c2.52.9 5.43 2.07 7.22 4.15a11.15 11.15 0 0 1 2.41 7.27c0 7.56-4.82 11.76-12 11.87v4.81H48.1v-5.15c-2.35-.56-4.59-1.73-5.66-4.14v3.86h-6.21V56.47h6.55c-.06 4.08 1.34 8.28 5.32 9.23V53l-2.58-1c-5.26-2-9.29-4.42-9.29-10.75 0-7.11 4.59-11.7 11.87-11.7v-4.88h4.2v5.43c1.62.39 3.13 1.29 4.87 3.53v-3.31h6.21v13.16zM48.1 34.8a5.85 5.85 0 0 0-2.58 1.2 5.27 5.27 0 0 0-1.73 3.87c0 2.91 2 4.36 4.31 5.31zm4.2 30.85a5.29 5.29 0 0 0 4.14-5.43c0-3.31-1.68-4.6-4.14-5.6z" stroke-width=".78" stroke-miterlimit="10" stroke="#9a1648" fill="none"/></g></svg>