<svg data-name="Слой 1" xmlns="http://www.w3.org/2000/svg" viewBox="0 0 154.63 153.23"><path d="M118.48 63.77l.31-.12c6-2.21 14-5.57 14.06-5.6 9.45-3.94 15.3-12.79 15.54-13.17l.14-.22.08-.25a4.13 4.13 0 0 0-2.11-5.1l-.11-.06h-.12c-.43-.12-10.57-2.89-20.28.75-.38.14-8.35 3-14.15 5.38l-.25.11-.52.12a13 13 0 0 1-6.85-1.83h-.08c-1.42-.75-3.6-2-6.35-3.68l-2.66-1.57a15.93 15.93 0 0 0 3.49-2.5l.75-.79-2.51-6.63-1.08-.08c-.34 0-3.54-.19-8.94 2.17-1.18.54-2.08 1-2.74 1.31-1.94-1.16-4-2.39-5.91-3.57l-5.39-3.26a14.13 14.13 0 0 0 4-2.74l.72-.79-2.5-6.6-1.08-.08c-.34 0-3.54-.19-8.92 2.16a35.87 35.87 0 0 0-3.22 1.62C51.96 12.87 44.19 8.09 43.54 7.69a8.84 8.84 0 0 0-1.37-.75 13.88 13.88 0 0 0-11.45.34 2.3 2.3 0 0 0-1.37 1.56 2.38 2.38 0 0 0 .44 2.11l15.82 17-3.29 1.45.81 2.12 4.57-1.32 13 14-4 1.73.82 2.12 5.3-1.61L74.53 59l-3.51 3-2.73 1.1c-6.8 2.72-22.38 8.94-27.79 12.77l-2.87-1.57c-4-2.18-9.43-5.17-11.73-6.32-.49-.25-1-.54-1.58-.85-1-.53-2-1.13-3.28-1.68a21.21 21.21 0 0 0-13.2-1.41A2.23 2.23 0 0 0 6 65.42a2.31 2.31 0 0 0 .54 2.45l17.32 18.12a7.89 7.89 0 0 0-.7.44l-.44.27h-.08a3 3 0 0 0-1.22 3.67l.5 1.31a3.1 3.1 0 0 0 1.65 1.67 2.88 2.88 0 0 0 1.67.22h.09l.42-.1c.27-.06.57-.12.9-.21l-.9 25.27a2.21 2.21 0 0 0 1.29 2.23 2.4 2.4 0 0 0 1.86 0l.15-.06.13-.08c7.09-4.38 8.93-9.66 10.27-13.51.21-.61.41-1.19.62-1.71.95-2.41 3-8.33 4.54-12.65.45-1.27.83-2.36 1.1-3.11 6.68-.87 22.48-6.82 31.52-10.38l.44-.17 4.57-.17-.33 13.61-6.55 2.8.82 2.13 5.65-1.72-.49 19.78-5.61 2.46.81 2.12 4.72-1.35-.64 26.24v.12a2.35 2.35 0 0 0 1.38 2 2.3 2.3 0 0 0 1.73 0c7.37-2.48 9-8.32 9.18-9.23s3.06-10.12 6.52-21.62a28.28 28.28 0 0 0 2.78-.91c5.53-1.9 7.78-4.18 8-4.43l.75-.8-2.52-6.65h-1.11a15.3 15.3 0 0 0-4 .55c.76-2.41 1.51-4.84 2.24-7.21.68-2.21 1.33-4.32 2-6.39h.08c.45-.14 1-.32 1.67-.57 5.53-1.9 7.79-4.18 8-4.43l.66-.7h.08l-2.48-6.54-1-.15a11 11 0 0 0-3.09.16c.33-1 .64-1.94.92-2.82.74-2.26 1.32-4 1.77-5.27v-.07a13.37 13.37 0 0 1 3.88-6z" fill="#0d7c80"/><path d="M118.48 63.77l.31-.12c6-2.21 14-5.57 14.06-5.6 9.45-3.94 15.3-12.79 15.54-13.17l.14-.22.08-.25a4.13 4.13 0 0 0-2.11-5.1l-.11-.06h-.12c-.43-.12-10.57-2.89-20.28.75-.38.14-8.35 3-14.15 5.38l-.25.11h0l-.52.12a13 13 0 0 1-6.85-1.83h-.08c-1.42-.75-3.6-2-6.35-3.68l-2.66-1.57a15.93 15.93 0 0 0 3.49-2.5l.75-.79-2.51-6.63-1.08-.08c-.34 0-3.54-.19-8.94 2.17-1.18.54-2.08 1-2.74 1.31-1.94-1.16-4-2.39-5.91-3.57l-5.39-3.26a14.13 14.13 0 0 0 4-2.74l.72-.79-2.5-6.6-1.08-.08c-.34 0-3.54-.19-8.92 2.16h0a35.87 35.87 0 0 0-3.22 1.62C51.96 12.87 44.19 8.09 43.54 7.69a8.84 8.84 0 0 0-1.37-.75 13.88 13.88 0 0 0-11.45.34 2.3 2.3 0 0 0-1.37 1.56 2.38 2.38 0 0 0 .44 2.11h0l15.82 17-3.29 1.45.81 2.12 4.57-1.32 13 14-4 1.73.82 2.12 5.3-1.61L74.53 59l-3.51 3h0l-2.73 1.1c-6.8 2.72-22.38 8.94-27.79 12.77l-2.87-1.57c-4-2.18-9.43-5.17-11.73-6.32-.49-.25-1-.54-1.58-.85-1-.53-2-1.13-3.28-1.68a21.21 21.21 0 0 0-13.2-1.41A2.23 2.23 0 0 0 6 65.42a2.31 2.31 0 0 0 .54 2.45l17.32 18.12a7.89 7.89 0 0 0-.7.44l-.44.27h-.08a3 3 0 0 0-1.22 3.67l.5 1.31a3.1 3.1 0 0 0 1.65 1.67 2.88 2.88 0 0 0 1.67.22h.09l.42-.1c.27-.06.57-.12.9-.21l-.9 25.27a2.21 2.21 0 0 0 1.29 2.23 2.4 2.4 0 0 0 1.86 0l.15-.06.13-.08c7.09-4.38 8.93-9.66 10.27-13.51.21-.61.41-1.19.62-1.71.95-2.41 3-8.33 4.54-12.65.45-1.27.83-2.36 1.1-3.11 6.68-.87 22.48-6.82 31.52-10.38l.44-.17 4.57-.17-.33 13.61-6.55 2.8.82 2.13 5.65-1.72-.49 19.78-5.61 2.46.81 2.12 4.72-1.35-.64 26.24v.12a2.35 2.35 0 0 0 1.38 2 2.3 2.3 0 0 0 1.73 0c7.37-2.48 9-8.32 9.18-9.23s3.06-10.12 6.52-21.62a28.28 28.28 0 0 0 2.78-.91c5.53-1.9 7.78-4.18 8-4.43l.75-.8-2.52-6.65h-1.11a15.3 15.3 0 0 0-4 .55c.76-2.41 1.51-4.84 2.24-7.21.68-2.21 1.33-4.32 2-6.39h.08c.45-.14 1-.32 1.67-.57 5.53-1.9 7.79-4.18 8-4.43l.66-.7h.08l-2.48-6.54-1-.15a11 11 0 0 0-3.09.16c.33-1 .64-1.94.92-2.82.74-2.26 1.32-4 1.77-5.27v-.07a13.37 13.37 0 0 1 3.88-6z" fill="none" stroke="#0d7c80" stroke-linecap="round" stroke-linejoin="round" stroke-width="11.63"/><path d="M118.48 63.77l.31-.12c6-2.21 14-5.57 14.06-5.6 9.45-3.94 15.3-12.79 15.54-13.17l.14-.22.08-.25a4.13 4.13 0 0 0-2.11-5.1l-.11-.06h-.12c-.43-.12-10.57-2.89-20.28.75-.38.14-8.35 3-14.15 5.38l-.25.11-.52.12a13 13 0 0 1-6.85-1.83h-.08c-1.42-.75-3.6-2-6.35-3.68l-2.66-1.57a15.93 15.93 0 0 0 3.49-2.5l.75-.79-2.51-6.63-1.08-.08c-.34 0-3.54-.19-8.94 2.17-1.18.54-2.08 1-2.74 1.31-1.94-1.16-4-2.39-5.91-3.57l-5.39-3.26a14.13 14.13 0 0 0 4-2.74l.72-.79-2.5-6.6-1.08-.08c-.34 0-3.54-.19-8.92 2.16a35.87 35.87 0 0 0-3.22 1.62C51.96 12.87 44.19 8.09 43.54 7.69a8.84 8.84 0 0 0-1.37-.75 13.88 13.88 0 0 0-11.45.34 2.3 2.3 0 0 0-1.37 1.56 2.38 2.38 0 0 0 .44 2.11l15.82 17-3.29 1.45.81 2.12 4.57-1.32 13 14-4 1.73.82 2.12 5.3-1.61L74.53 59l-3.51 3-2.73 1.1c-6.8 2.72-22.38 8.94-27.79 12.77l-2.87-1.57c-4-2.18-9.43-5.17-11.73-6.32-.49-.25-1-.54-1.58-.85-1-.53-2-1.13-3.28-1.68a21.21 21.21 0 0 0-13.2-1.41A2.23 2.23 0 0 0 6 65.42a2.31 2.31 0 0 0 .54 2.45l17.32 18.12a7.89 7.89 0 0 0-.7.44l-.44.27h-.08a3 3 0 0 0-1.22 3.67l.5 1.31a3.1 3.1 0 0 0 1.65 1.67 2.88 2.88 0 0 0 1.67.22h.09l.42-.1c.27-.06.57-.12.9-.21l-.9 25.27a2.21 2.21 0 0 0 1.29 2.23 2.4 2.4 0 0 0 1.86 0l.15-.06.13-.08c7.09-4.38 8.93-9.66 10.27-13.51.21-.61.41-1.19.62-1.71.95-2.41 3-8.33 4.54-12.65.45-1.27.83-2.36 1.1-3.11 6.68-.87 22.48-6.82 31.52-10.38l.44-.17 4.57-.17-.33 13.61-6.55 2.8.82 2.13 5.65-1.72-.49 19.78-5.61 2.46.81 2.12 4.72-1.35-.64 26.24v.12a2.35 2.35 0 0 0 1.38 2 2.3 2.3 0 0 0 1.73 0c7.37-2.48 9-8.32 9.18-9.23s3.06-10.12 6.52-21.62a28.28 28.28 0 0 0 2.78-.91c5.53-1.9 7.78-4.18 8-4.43l.75-.8-2.52-6.65h-1.11a15.3 15.3 0 0 0-4 .55c.76-2.41 1.51-4.84 2.24-7.21.68-2.21 1.33-4.32 2-6.39h.08c.45-.14 1-.32 1.67-.57 5.53-1.9 7.79-4.18 8-4.43l.66-.7h.08l-2.48-6.54-1-.15a11 11 0 0 0-3.09.16c.33-1 .64-1.94.92-2.82.74-2.26 1.32-4 1.77-5.27v-.07a13.37 13.37 0 0 1 3.88-6z" fill="#fff"/></svg>