<svg id="Слой_1" data-name="Слой 1" xmlns="http://www.w3.org/2000/svg" viewBox="0 0 144.86 136.21"><defs><style>.cls-1{fill:#fff}.cls-2,.cls-4{fill:none;stroke:#ee2f48;stroke-linecap:round;stroke-linejoin:round}.cls-2{stroke-width:5px}.cls-4{stroke-width:2px}</style></defs><path class="cls-1" d="M72.43 2.5L5.68 47h133.5L72.43 2.5z"/><path class="cls-2" d="M72.43 2.5L5.68 47h133.5L72.43 2.5z"/><path d="M72.43 35.29a7.36 7.36 0 1 1 7.36-7.36 7.37 7.37 0 0 1-7.36 7.36zm0-12.72a5.36 5.36 0 1 0 5.36 5.36 5.36 5.36 0 0 0-5.36-5.36z" fill="#ee2f48"/><path class="cls-1" d="M18.39 47.3H31.1v60.39H18.39z"/><path class="cls-4" d="M18.39 47.3H31.1v60.39H18.39z"/><path class="cls-1" d="M50.18 47.3h12.71v60.39H50.18z"/><path class="cls-4" d="M50.18 47.3h12.71v60.39H50.18z"/><path class="cls-1" d="M81.96 47.3h12.71v60.39H81.96z"/><path class="cls-4" d="M81.96 47.3h12.71v60.39H81.96z"/><path class="cls-1" d="M113.75 47.3h12.71v60.39h-12.71z"/><path class="cls-4" d="M113.75 47.3h12.71v60.39h-12.71z"/><path class="cls-1" d="M8.86 107.99H136v12.71H8.86z"/><path class="cls-2" d="M8.86 107.99H136v12.71H8.86z"/><path class="cls-1" d="M2.5 121h139.86v12.71H2.5z"/><path class="cls-2" d="M2.5 121h139.86v12.71H2.5z"/></svg>