<svg data-name="Слой 1" xmlns="http://www.w3.org/2000/svg" viewBox="0 0 78.28 240.51"><path d="M39.33 90.55l-.26-.73c-5.21-15.44-10.72-43-14.54-64.19l-.12-.63c12.14 6.46 23.67 23.43 23.79 23.6s.06 0 .1.06c-.42 2.55-4.62 28.32-9 41.94m20.41 146.13v-.09l-.89-81.86v-.05L57.57 37a1.18 1.18 0 0 0-.65-1.14C42 27.11 22.82 4.26 20.31 1.23h-4.09a.65.65 0 0 0-.45.66V6l-2.89.5v.1l-2.03.4a1.1 1.1 0 0 0-1-.85 1.22 1.22 0 0 0-1.07 1.32l-4.56 1v228.26h-3v2.55h75.83v-2.55z" fill="#79c7c8"/><path d="M39.33 90.55l-.26-.73c-5.21-15.44-10.72-43-14.54-64.19l-.12-.63c12.14 6.46 23.67 23.43 23.79 23.6s.06 0 .1.06c-.42 2.5-4.62 28.27-8.97 41.89zm20.38 146.18v-.09l-.89-81.86v-.05h0v0L57.57 37a1.18 1.18 0 0 0-.65-1.14C42 27.11 22.82 4.26 20.31 1.23h-4.09a.65.65 0 0 0-.45.66V6l-2.89.5v.1l-2.03.4a1.1 1.1 0 0 0-1-.85 1.22 1.22 0 0 0-1.07 1.32l-4.56 1v228.26h-3v2.55h75.83v-2.55z" fill="none" stroke="#fff" stroke-miterlimit="10" stroke-width="2.46"/><path d="M22.79 17.15l3.84-5.75-.21-.23-3.71 5.55c0 .14.05.29.08.43m.42 2.38l4.58-6.87-.21-.22-4.45 6.67c0 .14.05.28.08.42m.42 2.38l5.32-8-.2-.23-5.2 7.78c0 .14.05.28.08.43m.69 2l5.8-8.7-.2-.22-5.87 8.78.27.14m1.46.81l5.52-8.27-.21-.22-5.56 8.34.25.15m1.42.88l5.29-7.92-.21-.22-5.32 8 .24.16m1.38.94l5.1-7.64-.21-.21-5.13 7.68.24.17m1.47 1.08L35 20.2l-.23-.2-5 7.43.24.18m1.32 1l4.82-7.22-.15-.2-4.84 7.25.24.18m1.28 1.08l4.75-7.11-.21-.21-4.76 7.13.22.19m1.26 1.12l4.71-7-.21-.21-4.72 7.06.22.2m1.35 1.26L40 25l-.22-.21-4.7 7 .22.21m1.22 1.18l4.72-7.07L41 26l-4.72 7.07.22.21m1.2 1.22l4.77-7.16a2.09 2.09 0 0 1-.22-.2l-4.77 7.14.22.22m1.17 1.24l4.86-7.27-.23-.2-4.85 7.23a2.09 2.09 0 0 1 .2.22M40 37l5-7.43-.23-.19-4.94 7.4.17.22m1.14 1.3l5.1-7.64a2.11 2.11 0 0 0-.23-.19L41 38.05c.07.07.13.15.2.23m1.13 1.31l5.27-7.89-.23-.18-5.24 7.84a2.2 2.2 0 0 1 .2.23m1.12 1.34l5.46-8.18-.24-.18-5.42 8.12.2.24m1.1 1.36l5.68-8.52-.23-.18-5.64 8.46.2.24m1.08 1.38l5.95-8.9-.24-.18-5.9 8.83.19.25m1.07 1.4l6.24-9.34-.24-.17-6.19 9.26.19.25m1.06 1.44l6.57-9.86-.24-.16-6.52 9.76.19.26M55.8 226.8q-1.56-1.05-3.15-2v.72c1.06.63 2.12 1.3 3.16 2zm-.06-5.25c-1-.69-2.05-1.33-3.09-1.94v.72c1 .62 2.08 1.27 3.1 2zm-.06-5.25c-1-.67-2-1.3-3-1.9v.72c1 .61 2 1.25 3 1.93zm-.06-5.25c-1-.66-2-1.27-3-1.86v.72c1 .6 2 1.22 3 1.89zm0-5.25c-1-.64-1.94-1.25-2.92-1.82v.72c1 .59 2 1.2 2.92 1.85zm0-3c-1-.63-1.91-1.22-2.88-1.79v1.45c1 .58 1.94 1.19 2.9 1.84zm0-2.25c-.94-.63-1.9-1.22-2.86-1.78v.72c1 .57 1.92 1.18 2.87 1.81zm-.06-5.24c-.92-.61-1.86-1.2-2.8-1.75v.72c1 .56 1.88 1.16 2.81 1.78zm-.06-5.25c-.9-.6-1.82-1.17-2.74-1.71v.72c.93.55 1.84 1.13 2.75 1.74zm0-2.44c-.89-.59-1.8-1.16-2.71-1.7v.37c.92.53 1.82 1.11 2.72 1.71zm0-2.81c-.88-.58-1.78-1.15-2.68-1.68v.73c.91.54 1.8 1.11 2.69 1.7zm0-3c-.88-.57-1.76-1.13-2.65-1.65v1.45c.9.53 1.79 1.1 2.67 1.69zm0-2.26c-.86-.57-1.74-1.12-2.62-1.64v.73c.89.52 1.76 1.08 2.63 1.66zm0-2.43c-.86-.57-1.73-1.12-2.6-1.63v.36c.88.52 1.74 1.07 2.6 1.64zm-.09-8.06c-.83-.54-1.67-1.07-2.51-1.56v.72c.85.5 1.68 1 2.52 1.58zm-.06-5.24c-.81-.53-1.63-1-2.45-1.53v.71c.83.49 1.64 1 2.46 1.55zm-.35-5.24c-.79-.51-1.59-1-2.39-1.48v.71c.81.48 1.61 1 2.4 1.51zm0-2.44c-.78-.51-1.57-1-2.36-1.47v.33c.8.47 1.58 1 2.37 1.48zm0-2.8c-.77-.5-1.55-1-2.33-1.45v.72c.79.46 1.57.95 2.34 1.46zm0-3c-.76-.49-1.53-1-2.3-1.42v1.43c.78.47 1.55.95 2.32 1.46zm-.14-12.75q-1.08-.69-2.16-1.32v.73c.73.43 1.45.88 2.17 1.35zm0-2.44c-.71-.45-1.42-.89-2.13-1.31v.36q1.08.63 2.13 1.32zm-.06-5.8c-.69-.43-1.38-.85-2.07-1.25v1.43c.7.41 1.39.85 2.08 1.3zm-.09-7.5c-.65-.41-1.32-.81-2-1.2v.71c.67.4 1.33.81 2 1.23zm0-2.43c-.64-.42-1.3-.81-2-1.2v.36c.66.39 1.31.79 2 1.2zm-.06-5.8q-.95-.59-1.89-1.14v1.43c.64.38 1.28.77 1.91 1.18zm-4 117.5a66.46 66.46 0 0 0-6.34-2.92v1.35c1.89.76 3.78 1.62 5.65 2.59h.69zm0-2.26a64.19 64.19 0 0 0-6.34-2.93v.7a64.51 64.51 0 0 1 6.34 3zm0-5.21a66.57 66.57 0 0 0-6.34-2.93v.68a64.51 64.51 0 0 1 6.34 3zm0-5.21a66.57 66.57 0 0 0-6.34-2.93v.68a66.91 66.91 0 0 1 6.34 3zm0-2.43a66.57 66.57 0 0 0-6.34-2.93v.34a66.79 66.79 0 0 1 6.34 2.95zm0-5.74a66.35 66.35 0 0 0-6.34-2.91v1.36a67 67 0 0 1 6.34 3zm0-2.24a64.19 64.19 0 0 0-6.34-2.93v.68a64.51 64.51 0 0 1 6.34 3zm0-5.21a64.19 64.19 0 0 0-6.34-2.93v.68a64.51 64.51 0 0 1 6.34 3zm0-3a66.46 66.46 0 0 0-6.42-2.82v1.37a64.62 64.62 0 0 1 6.34 3zm0-2.25a64.19 64.19 0 0 0-6.34-2.93v.68a64.51 64.51 0 0 1 6.34 3zm0-8.17a66.46 66.46 0 0 0-6.34-2.92v1.37a69.6 69.6 0 0 1 6.34 3zm0-4.68a66.57 66.57 0 0 0-6.34-2.93v.34a66.79 66.79 0 0 1 6.34 2.95zm0-5.73a66.46 66.46 0 0 0-6.34-2.92v1.37a64.62 64.62 0 0 1 6.34 3zm0-2.26a69.13 69.13 0 0 0-6.34-2.93v.69a64.51 64.51 0 0 1 6.34 3zm0-2.42a64.3 64.3 0 0 0-6.34-2.94v.34a66.79 66.79 0 0 1 6.34 3zm0-10.42a66.57 66.57 0 0 0-6.42-2.89v.33a64.51 64.51 0 0 1 6.34 3zm0-2.77a66.68 66.68 0 0 0-6.34-2.94v.68a66.91 66.91 0 0 1 6.34 3zm0-3a66.46 66.46 0 0 0-6.34-2.92v1.36a67 67 0 0 1 6.34 3zm0-4.68a66.68 66.68 0 0 0-6.34-2.94v.34a66.79 66.79 0 0 1 6.34 2.95zm0-5.73a66.46 66.46 0 0 0-6.34-2.92v1.35a67 67 0 0 1 6.34 3zm0-2.26a66.57 66.57 0 0 0-6.34-2.93v.68a64.51 64.51 0 0 1 6.34 3zm0-2.42a64.3 64.3 0 0 0-6.34-2.94v.34a66.79 66.79 0 0 1 6.34 2.95zm0-2.78a66.68 66.68 0 0 0-6.34-2.94v.68a66.91 66.91 0 0 1 6.34 3zm0-7.64a66.68 66.68 0 0 0-6.34-2.94v.34a66.79 66.79 0 0 1 6.34 3zm0-5.73a64.08 64.08 0 0 0-6.34-2.92v1.35a67 67 0 0 1 6.34 3zm0-2.26a66.57 66.57 0 0 0-6.34-2.93v.68a64.51 64.51 0 0 1 6.34 3zm0-5.2a66.68 66.68 0 0 0-6.34-2.94v.68a66.91 66.91 0 0 1 6.34 3zm0-2.43a64.3 64.3 0 0 0-6.34-2.94v.34a66.79 66.79 0 0 1 6.34 3zm0-5.74a66.46 66.46 0 0 0-6.34-2.92v1.36a64.62 64.62 0 0 1 6.34 3zm-8.49 116.16a82.47 82.47 0 0 0-9.69-2.88v1.32a80.85 80.85 0 0 1 9.69 2.9zm0-2.27a82.6 82.6 0 0 0-9.69-2.89v.67a81 81 0 0 1 9.69 2.91zm0-5.21a82.47 82.47 0 0 0-9.69-2.88v.66a80.85 80.85 0 0 1 9.69 2.9zm0-5.21a82.47 82.47 0 0 0-9.69-2.88v.65a82.86 82.86 0 0 1 9.69 2.91zm0-2.43a80.73 80.73 0 0 0-9.69-2.89v.33a80.85 80.85 0 0 1 9.69 2.9zm0-5.72a82.47 82.47 0 0 0-9.69-2.88V205a79.18 79.18 0 0 1 9.69 2.91zm0-2.26a80.73 80.73 0 0 0-9.69-2.89v.66a80.85 80.85 0 0 1 9.69 2.9zm0-5.21a80.73 80.73 0 0 0-9.69-2.89v.66a80.85 80.85 0 0 1 9.69 2.9zm0-2.95a80.48 80.48 0 0 0-9.69-2.87v1.32a81 81 0 0 1 9.69 2.91zm0-2.26a82.6 82.6 0 0 0-9.69-2.89v.66a81 81 0 0 1 9.69 2.91zm0-8.15a82.47 82.47 0 0 0-9.69-2.88v1.33a79.18 79.18 0 0 1 9.69 2.91zm0-4.7a80.73 80.73 0 0 0-9.69-2.89v.33a80.85 80.85 0 0 1 9.69 2.9zm0-5.72a82.47 82.47 0 0 0-9.69-2.88v1.33a79.18 79.18 0 0 1 9.69 2.91zm0-2.27a82.6 82.6 0 0 0-9.69-2.89v.67a80.85 80.85 0 0 1 9.69 2.9zm0-2.43a82.6 82.6 0 0 0-9.69-2.89v.33a80.85 80.85 0 0 1 9.69 2.9zm0-10.41a78.94 78.94 0 0 0-9.69-2.89v.32a80.85 80.85 0 0 1 9.69 2.9zm0-2.78a82.6 82.6 0 0 0-9.69-2.89v.66a81 81 0 0 1 9.69 2.91zm0-2.94a82.47 82.47 0 0 0-9.69-2.88v1.32a80.44 80.44 0 0 1 9.69 2.91zm0-4.7a82.6 82.6 0 0 0-9.69-2.89v.33a82.6 82.6 0 0 1 9.69 2.89zm0-5.71a80.6 80.6 0 0 0-9.69-2.88v1.31a80.44 80.44 0 0 1 9.69 2.91zm0-2.27a82.6 82.6 0 0 0-9.69-2.89v.65a82.86 82.86 0 0 1 9.69 2.91zm0-2.43a78.94 78.94 0 0 0-9.69-2.89v.32a80.85 80.85 0 0 1 9.69 2.9zm0-2.78a82.6 82.6 0 0 0-9.69-2.89v.66a80.85 80.85 0 0 1 9.69 2.9zm0-7.64a78.94 78.94 0 0 0-9.69-2.89v.33a80.85 80.85 0 0 1 9.69 2.9zm0-5.71a80.6 80.6 0 0 0-9.69-2.88v1.31a80.44 80.44 0 0 1 9.69 2.91zm0-2.27a80.73 80.73 0 0 0-9.69-2.89v.66a80.85 80.85 0 0 1 9.69 2.9zm0-5.21a82.6 82.6 0 0 0-9.69-2.89v.66a79.18 79.18 0 0 1 9.69 2.91zm0-2.43a80.85 80.85 0 0 0-9.69-2.9v.33a80.85 80.85 0 0 1 9.69 2.9zm0-5.72a80.6 80.6 0 0 0-9.69-2.88v1.32a80.44 80.44 0 0 1 9.69 2.94zM30.39 227c-2.84-.59-5.42-1-7.61-1.24v.66c2.19.26 4.77.66 7.61 1.24zm0-2.92c-2.84-.59-5.43-1-7.61-1.24v1.3c2.19.26 4.77.66 7.61 1.25zm0-12.7c-2.84-.58-5.43-1-7.61-1.24v.65c2.18.26 4.78.66 7.61 1.25zm0-2.44c-2.83-.58-5.43-1-7.61-1.24v.3c2.18.26 4.78.66 7.61 1.24zm0-2.77c-2.84-.58-5.43-1-7.61-1.24v.65c2.18.26 4.78.66 7.61 1.25zm0-5.2c-2.84-.59-5.43-1-7.61-1.25v.65c2.18.26 4.78.66 7.61 1.25zm0-5.21c-2.84-.59-5.43-1-7.61-1.25v.65c2.18.27 4.78.67 7.61 1.25zm0-5.21c-2.84-.59-5.43-1-7.61-1.25v.7c2.18.26 4.78.66 7.61 1.24zm0-8.14c-2.84-.58-5.43-1-7.61-1.24v1.31c2.18.26 4.78.66 7.61 1.25zm0-2.28c-2.83-.59-5.43-1-7.61-1.25v.66l7.61 1.25zm0-2.43c-2.83-.59-5.43-1-7.61-1.25v.33c2.18.26 4.78.66 7.61 1.24zm0-2.78l-7.61-1.25v.66c2.18.26 4.78.66 7.61 1.25zm0-2.93c-2.84-.58-5.43-1-7.61-1.24v1.31c2.18.26 4.78.66 7.61 1.25zm0-2.28c-2.83-.59-5.43-1-7.61-1.24v.65c2.18.27 4.78.66 7.61 1.25zm0-2.43c-2.83-.59-5.43-1-7.61-1.24v.32c2.18.26 4.78.66 7.61 1.25zm0-8c-2.83-.59-5.43-1-7.61-1.24v.65c2.18.26 4.78.66 7.61 1.25zm0-8.14c-2.84-.58-5.43-1-7.61-1.24v1.3c2.18.27 4.78.67 7.61 1.25zm0-2.28c-2.83-.58-5.43-1-7.61-1.24v.65c2.18.26 4.78.66 7.61 1.25zm0-5.21c-2.83-.58-5.43-1-7.61-1.24v.65c2.18.26 4.78.66 7.61 1.24zm0-2.93c-2.84-.58-5.43-1-7.61-1.24v1.31c2.18.26 4.78.66 7.61 1.24zm0-2.28c-2.83-.58-5.43-1-7.61-1.24v.65c2.18.26 4.78.66 7.61 1.25zm0-2.43c-2.83-.58-5.43-1-7.61-1.24v.32c2.18.26 4.78.66 7.61 1.24zm0-5.7c-2.84-.59-5.43-1-7.61-1.24v1.3c2.18.26 4.78.66 7.61 1.25zm0-4.72c-2.83-.58-5.43-1-7.61-1.24v.32c2.18.27 4.78.66 7.61 1.25zm0-5.7c-2.84-.58-5.43-1-7.61-1.24V120c2.18.27 4.78.66 7.61 1.25zm0-9.92c-2.83-.59-5.43-1-7.61-1.25v.33c2.18.26 4.78.66 7.61 1.24zM57.54 237H17.09v-11.07c.87 0 2.1.12 3.6.27v-.66c-1.51-.15-2.73-.22-3.6-.26v-1.63c.87 0 2.09.12 3.6.27v-1.31c-1.51-.14-2.73-.22-3.6-.26v-1.63c.87.05 2.09.12 3.6.27v-.66c-1.51-.15-2.73-.22-3.6-.26v-4.55c.87 0 2.09.11 3.6.26v-.65c-1.51-.15-2.73-.22-3.6-.27v-4.56c.87 0 2.09.12 3.6.26v-.64c-1.51-.15-2.73-.22-3.6-.26v-2.12c.87 0 2.09.12 3.6.26v-.32c-1.51-.15-2.73-.22-3.6-.26v-2.12c.87 0 2.09.11 3.6.26v-.65c-1.51-.15-2.73-.22-3.6-.26v-4.56c.87 0 2.09.11 3.6.26v-.65c-1.51-.14-2.73-.22-3.6-.26v-4.56c.87 0 2.09.12 3.6.26v-.65c-1.51-.14-2.73-.22-3.6-.26v-1.63c.87 0 2.09.12 3.6.26v-1.3c-1.51-.14-2.73-.22-3.6-.26v-1.63c.87 0 2.09.12 3.6.26v-.65c-1.51-.14-2.73-.22-3.6-.26V182c.87 0 2.09.12 3.6.26V181c-1.51-.15-2.73-.22-3.6-.26v-1.63c.87 0 2.09.11 3.6.26v-.66c-1.51-.14-2.73-.22-3.6-.26v-4.55c.87 0 2.09.11 3.6.26v-.66c-1.51-.14-2.73-.22-3.6-.26v-1.62c.87.05 2.09.12 3.6.27v-1.31c-1.51-.15-2.73-.22-3.6-.26v-1.63c.87 0 2.09.12 3.6.26v-.66c-1.51-.14-2.73-.22-3.6-.25v-2.11c.87 0 2.09.11 3.6.26v-.33c-1.51-.14-2.73-.22-3.6-.26v-7.33c.87.05 2.09.12 3.6.27v-.66c-1.51-.14-2.73-.22-3.6-.26V153c.87 0 2.09.11 3.6.26v-.66c-1.51-.14-2.73-.22-3.6-.26v-1.62c.87 0 2.09.12 3.6.26v-1.3c-1.51-.15-2.73-.22-3.6-.26v-1.63c.87 0 2.09.12 3.6.26v-.66c-1.51-.14-2.73-.22-3.6-.26v-4.53c.87 0 2.09.11 3.6.25v-.64c-1.51-.15-2.73-.22-3.6-.26v-1.63c.87 0 2.09.12 3.6.26v-1.3c-1.51-.15-2.73-.22-3.6-.26v-4.4c.87 0 2.09.12 3.6.26v-.32c-1.51-.14-2.73-.22-3.6-.26v-2.12c.87 0 2.09.11 3.6.26v-.65c-1.51-.15-2.73-.22-3.6-.26v-1.63c.87 0 2.09.12 3.6.26v-1.3c-1.51-.14-2.73-.22-3.6-.26V127c.87 0 2.09.12 3.6.26v-.65c-1.51-.15-2.73-.22-3.6-.26v-2.11c.87 0 2.09.12 3.6.26v-.33c-1.51-.14-2.73-.22-3.6-.26v-4.39c.87 0 2.09.11 3.6.26v-1.3c-1.51-.15-2.73-.22-3.6-.26v-4.4c.87 0 2.09.12 3.6.26v-.32c-1.51-.14-2.73-.22-3.6-.26v-4.89c.87 0 2.09.12 3.6.26v-.32c-1.51-.14-2.73-.22-3.6-.26v-4.39c.87 0 2.09.11 3.6.26v-1.31c-1.51-.15-2.73-.22-3.6-.26V3.36h1.32c1.65 10.28 13.33 81.8 22.63 97.08 2.09 3.43 4.1 5.17 6 5.17a3.09 3.09 0 0 0 1.25-.27c3.51-1.52 6-10.23 7.55-25.92l1.7 157.48M47.63 103a1.46 1.46 0 0 1-.61.13c-1.2 0-2.72-1.45-4.39-4.19a40.63 40.63 0 0 1-3.1-7l-.26-.74c4.44-13.71 8.73-40.32 9.09-42.38a.31.31 0 0 0 .09-.22l6.83-10.24.1.75c.18 24.62-1.73 61.25-7.76 63.87m.38-54.2h.1c-.42 2.56-4.62 28.32-9 42l-.23-.78c-5.21-15.39-10.73-43-14.55-64.14l-.12-.68C36.34 31.64 47.87 48.6 48 48.78m7.24-10.85l-6.9 10.32C47.42 46.92 36 30.53 24.05 24.37l-.12-.69c-1.52-8.51-2.66-15.36-3.27-19l.05.06c0 .14.05.28.07.43l.16-.24.9 1.07-.76 1.14c0 .14.05.28.07.43L22 6.23c.29.34.6.7.94 1.08l-1.5 2.23c0 .15.05.29.07.43l1.63-2.43c.3.34.61.7.94 1.06l-2.23 3.34c0 .15.05.28.07.43l2.36-3.54-.05-.06c.32.36.65.74 1 1.12l-3 4.45c0 .14.05.28.07.42l3.1-4.64-.18-.2C32.53 18 44.78 30.75 55.13 37.18zM76.84 237H59.51v-.08L58.64 155l-.09-7.86v-.09.1L57.37 37.26a1.2 1.2 0 0 0-.66-1.14C41.81 27.34 22.61 4.48 20.1 1.46H16a.64.64 0 0 0-.45.65v4.14l-2.89.5.15.64a1.57 1.57 0 0 1 0 .23l.05.59 2.65-.46V9l-2.69.46v1.5l2.69-.47v1.21l-2.69.47v1.5l2.22-.39a.09.09 0 0 1 0 .05v-.05l.46-.08v1.23l-2.69.46v1.5l2.69-.46v1.22l-2.69.47v1.5l2.69-.47v1.23l-2.69.47v1.49l2.69-.46v1.22l-2.69.47v1.5l2.69-.47v1.23l-2.69.47v1.5l2.69-.47v1.22l-2.69.47V30l2.69-.47v1.23l-2.69.47v1.5l2.69-.47v1.24l-2.63.5v1.5l2.69-.5v1.23l-2.69.47v1.5l2.69-.47V39l-2.69.46v1.5l2.69-.46v1.22l-2.69.47v1.5l2.69-.47v1.23l-2.69.47v1.49l2.69-.46v1.22l-2.69.47v1.5l2.69-.47v1.23l-2.69.47v1.5l2.69-.47v1.22l-2.69.47v1.5l2.69-.47v1.23l-2.69.47v1.5l2.69-.47V58l-2.69.47V60l2.69-.47v1.23l-2.69.47v1.5l2.69-.47v1.23l-2.69.51v1.5l2.69-.5v1.22l-2.69.47v1.5l2.69-.47v1.23l-2.69.46v1.5l2.69-.46v1.22l-2.69.47v1.5l2.69-.47v1.23l-2.69.47v1.5l2.69-.47v1.22l-2.69.47v1.5l2.69-.47v1.23l-2.69.47v1.5l2.69-.47v1.23l-2.69.42v1.5l2.69-.47v1.23l-2.69.47v1.5l2.69-.47V88l-2.69.46V90l2.69-.46v1.22l-2.69.47v1.5l2.69-.47v1.23l-2.69.47v1.49l2.69-.45v1.22l-2.69.47v1.5l2.69-.47v1.23l-2.69.47v1.5l2.69-.47v1.22l-2.69.47v1.5l2.69-.47v1.23l-2.69.47v1.5l2.69-.47v1.23l-2.69.46v1.5l2.69-.47v1.23l-2.69.47v1.5l2.69-.47v1.23l-2.69.46v1.5l2.69-.46v1.22l-2.69.47v1.5l2.69-.47v1.2l-2.69.47V120l2.69-.46v1.22l-2.69.47v1.5l2.69-.47v1.23l-2.69.47v1.5l2.69-.47v1.22l-2.69.47v1.5l2.69-.47v1.23l-2.69.47v1.5l2.69-.47v1.23l-2.69.46v1.5l2.69-.46v1.22l-2.69.47v1.5l2.69-.47v1.23l-2.69.47V139l2.69-.46v1.22l-2.69.47v1.5l2.69-.47v1.23l-2.69.47v1.5l2.69-.47v1.22l-2.69.47v1.5l2.69-.47V148l-2.69.47V150l2.69-.47v1.23l-2.69.46v1.5l2.69-.47v1.23l-2.69.47v1.5l2.69-.47v1.23l-2.69.46v1.5l2.69-.46v1.22l-2.69.47v1.5l2.69-.47v1.23l-2.69.47v1.49l2.69-.46v1.22l-2.69.47v1.5l2.69-.47v1.23l-2.69.47V169l2.69-.47v1.23l-2.69.46v1.5l2.69-.47v1.23l-2.69.47v1.5l2.69-.47v1.23l-2.69.46v1.5l2.69-.47v1.3l-2.69.47v1.5l2.69-.47v1.23l-2.69.46v1.5l2.69-.46v1.22l-2.69.47v1.5l2.69-.47v1.23l-2.69.47v1.49l2.69-.46v1.22l-2.69.47v1.5l2.69-.47v1.23l-2.69.47v1.5l2.69-.47v1.23l-2.69.46v1.5l2.69-.47V197l-2.69.47V199l2.69-.47v1.23l-2.69.46v1.5l2.69-.46v1.22l-2.69.47v1.5l2.69-.47v1.23l-2.69.47v1.49l2.69-.46v1.22l-2.69.47v1.5l2.69-.47v1.23l-2.69.47v1.5l2.69-.47v1.22l-2.69.47v1.5l2.69-.47v1.23l-2.69.47v1.5l2.69-.47v1.23l-2.69.46v1.5l2.69-.47v1.23l-2.69.47v1.5l2.69-.47v1.23l-2.69.46v1.5l2.69-.47V227l-2.69.47V229l2.69-.47v1.23l-2.69.47v1.49l2.69-.46v1.22l-2.69.47v1.5l2.69-.47v2.98h-4.85a.15.15 0 0 0 0-.07V7.76a1.24 1.24 0 0 0-1.07-1.35 1.24 1.24 0 0 0-1.07 1.35v.1L4 8.65V9l4.57-.8v2.38L4 11.37v.34l4.56-.79v2.39L4 14.1v.34l4.56-.79V16L4 16.83v.34l4.56-.8v2.39L4 19.55v.34l4.56-.79v2.38l-4.56.8v.34l4.56-.79v2.38L4 25v.34l4.56-.79v2.39L4 27.73v.34l4.56-.79v2.38L4 30.45v.34L8.57 30v2.39L4 33.18v.34l4.56-.79v2.38L4 35.9v.34l4.56-.79v2.39L4 38.63V39l4.56-.79v2.38L4 41.36v.34l4.56-.8v2.39L4 44.08v.34l4.56-.79V46L4 46.81v.34l4.56-.79v2.38L4 49.53v.34l4.56-.79v2.39L4 52.26v.34l4.56-.79v2.38L4 55v.34l4.56-.79v2.39L4 57.71v.34l4.56-.79v2.38L4 60.43v.34L8.57 60v2.39L4 63.16v.34l4.56-.79v2.38l-4.56.8v.34l4.56-.8v2.39L4 68.61V69l4.56-.79v2.39L4 71.34v.34l4.56-.79v2.38L4 74.06v.34l4.56-.79V76L4 76.79v.34l4.56-.79v2.38L4 79.51v.34l4.56-.79v2.39L4 82.24v.34l4.56-.79v2.38L4 85v.35l4.56-.8v2.35L4 87.69V88l4.56-.79v2.38L4 90.42v.34L8.57 90v2.39L4 93.14v.34l4.56-.79v2.39L4 95.87v.34l4.56-.79v2.38L4 98.59v.34l4.56-.79v2.39l-4.56.79v.34l4.56-.79v2.38L4 104v.34l4.56-.79V106l-4.56.77v.34l4.56-.79v2.38l-4.56.79v.35l4.56-.8v2.39l-4.56.79v.34l4.56-.79v2.38L4 115v.34l4.56-.79v2.38l-4.56.74v.33l4.56-.79v2.39l-4.56.8v.34l4.57-.74v2.38l-4.57.74v.34l4.56-.79v2.39l-4.56.79v.34l4.56-.79v2.38l-4.56.79v.35l4.56-.8v2.39L4 131.3v.34l4.56-.79v2.38L4 134v.34l4.56-.8V136l-4.56.75v.34l4.56-.79v2.39l-4.56.79v.34l4.57-.82v2.38L4 142.2v.34l4.56-.79v2.39l-4.56.79v.34l4.56-.79v2.38l-4.56.79v.35l4.56-.79v2.39l-4.56.78v.34l4.56-.79v2.38L4 153.1v.35l4.56-.8V155l-4.56.83v.34l4.56-.79v2.38l-4.56.8v.34l4.56-.8v2.39l-4.56.79v.34l4.56-.79v2.39L4 164v.34l4.56-.79v2.38l-4.56.8v.34l4.56-.79v2.39l-4.56.79v.34l4.57-.8v2.38l-4.57.8v.34l4.56-.79v2.39l-4.56.79v.34l4.56-.79v2.38l-4.56.79v.37l4.56-.8v2.39l-4.56.77v.34l4.56-.79v2.38l-4.56.8v.34l4.56-.79V185l-4.56.81v.34l4.56-.79v2.39l-4.56.79v.34l4.56-.79v2.38l-4.56.79v.34l4.56-.79v2.39L4 194v.34l4.56-.79v2.38l-4.56.78v.34l4.56-.79v2.39l-4.56.79v.34l4.57-.78v2.38l-4.56.8v.34l4.56-.8v2.39l-4.57.78v.34l4.56-.79v2.38l-4.56.8v.38l4.56-.79v2.38l-4.56.75v.34l4.56-.79v2.39l-4.56.79v.34l4.56-.79V215l-4.56.79v.34l4.56-.79v2.39l-4.56.79v.34l4.56-.79v2.38l-4.56.79v.34l4.56-.79v2.39L4 224v.34l4.56-.79v2.38L4 226.7v.3l4.56-.8v2.39l-4.56.83v.34l4.57-.76v2.38l-4.56.8v.34l4.56-.79v2.38l-4.57.76v.34l4.56-.79V237H1v2.56h75.84z" fill="#fff"/></svg>