<svg id="Слой_1" data-name="Слой 1" xmlns="http://www.w3.org/2000/svg" viewBox="0 0 125.18 392.14"><defs><style>.cls-4,.cls-5,.cls-6{fill:none}.cls-3{fill:#ee2f48}.cls-4,.cls-5,.cls-6{stroke:#d4d8d8}.cls-4{stroke-linejoin:round}.cls-4,.cls-6{stroke-width:4.88px}.cls-5,.cls-6{stroke-miterlimit:10}.cls-5{stroke-width:2.44px}</style><clipPath id="clip-path"><path fill="none" d="M0 0h125.18v392.14H0z"/></clipPath></defs><g clip-path="url(#clip-path)"><path class="cls-3" d="M120.79 383.27c0 3-26.06 5.46-58.2 5.46s-58.2-2.44-58.2-5.46v-17.52c0 3 26.06 5.46 58.2 5.46s58.2-2.45 58.2-5.46z"/><path class="cls-4" d="M120.79 383.27c0 3-26.06 5.46-58.2 5.46s-58.2-2.44-58.2-5.46v-17.52c0 3 26.06 5.46 58.2 5.46s58.2-2.45 58.2-5.46z"/><path class="cls-5" d="M4.39 365.75v18.12M11.66 368.39v17.53M18.94 369.36v17.52M26.21 370.01v17.52M33.49 370.48V388M40.76 371.03v17.3M48.04 371.03v17.7M55.31 371.21v17.52M62.59 371.21v17.52M69.86 371.21v17.52M77.14 371.21v17.52M84.41 370.81v17.52M91.69 370.48V388M98.96 370.01v17.52M106.24 369.36v17.52M113.51 368.39v17.53M120.79 365.75v17.52"/><path class="cls-3" d="M120.79 365.75c0 3-26.06 5.46-58.2 5.46s-58.2-2.45-58.2-5.46 26.06-5.46 58.2-5.46 58.2 2.45 58.2 5.46"/><path class="cls-6" d="M120.79 365.75c0 3-26.06 5.46-58.2 5.46s-58.2-2.45-58.2-5.46 26.06-5.46 58.2-5.46 58.2 2.45 58.2 5.46z"/><path class="cls-3" d="M120.79 357.58c0 3-26.06 5.46-58.2 5.46s-58.2-2.44-58.2-5.46v-17.52c0 3 26.06 5.45 58.2 5.45s58.2-2.44 58.2-5.45z"/><path class="cls-4" d="M120.79 357.58c0 3-26.06 5.46-58.2 5.46s-58.2-2.44-58.2-5.46v-17.52c0 3 26.06 5.45 58.2 5.45s58.2-2.44 58.2-5.45z"/><path class="cls-5" d="M4.39 340.06v18.12M11.66 342.7v17.53M18.94 343.67v17.52M26.21 344.32v17.52M33.49 344.79v17.52M40.76 345.34v17.3M48.04 345.34v17.7M55.31 345.52v17.52M62.59 345.52v17.52M69.86 345.52v17.52M77.14 345.52v17.52M84.41 345.12v17.52M91.69 344.79v17.52M98.96 344.32v17.52M106.24 343.67v17.52M113.51 342.7v17.53M120.79 340.06v17.52"/><path class="cls-3" d="M120.79 340.06c0 3-26.06 5.46-58.2 5.46s-58.2-2.45-58.2-5.46 26.06-5.46 58.2-5.46 58.2 2.45 58.2 5.46"/><path class="cls-6" d="M120.79 340.06c0 3-26.06 5.46-58.2 5.46s-58.2-2.45-58.2-5.46 26.06-5.46 58.2-5.46 58.2 2.45 58.2 5.46z"/><path class="cls-3" d="M120.79 331.89c0 3-26.06 5.46-58.2 5.46s-58.2-2.44-58.2-5.46v-17.52c0 3 26.06 5.45 58.2 5.45s58.2-2.44 58.2-5.45z"/><path class="cls-4" d="M120.79 331.89c0 3-26.06 5.46-58.2 5.46s-58.2-2.44-58.2-5.46v-17.52c0 3 26.06 5.45 58.2 5.45s58.2-2.44 58.2-5.45z"/><path class="cls-5" d="M4.39 314.37v18.12M11.66 317.01v17.53M18.94 317.98v17.52M26.21 318.63v17.52M33.49 319.09v17.53M40.76 319.65v17.3M48.04 319.65v17.7M55.31 319.82v17.53M62.59 319.82v17.53M69.86 319.82v17.53M77.14 319.82v17.53M84.41 319.43v17.52M91.69 319.09v17.53M98.96 318.63v17.52M106.24 317.98v17.52M113.51 317.01v17.53M120.79 314.37v17.52"/><path class="cls-3" d="M120.79 314.37c0 3-26.06 5.45-58.2 5.45s-58.2-2.44-58.2-5.45 26.06-5.46 58.2-5.46 58.2 2.45 58.2 5.46"/><path class="cls-6" d="M120.79 314.37c0 3-26.06 5.45-58.2 5.45s-58.2-2.44-58.2-5.45 26.06-5.46 58.2-5.46 58.2 2.45 58.2 5.46z"/><path class="cls-3" d="M120.79 306.2c0 3-26.06 5.46-58.2 5.46s-58.2-2.44-58.2-5.46v-17.52c0 3 26.06 5.45 58.2 5.45s58.2-2.44 58.2-5.45z"/><path class="cls-4" d="M120.79 306.2c0 3-26.06 5.46-58.2 5.46s-58.2-2.44-58.2-5.46v-17.52c0 3 26.06 5.45 58.2 5.45s58.2-2.44 58.2-5.45z"/><path class="cls-5" d="M4.39 288.68v18.12M11.66 291.32v17.53M18.94 292.29v17.52M26.21 292.94v17.52M33.49 293.4v17.53M40.76 293.96v17.3M48.04 293.96v17.7M55.31 294.13v17.53M62.59 294.13v17.53M69.86 294.13v17.53M77.14 294.13v17.53M84.41 293.74v17.52M91.69 293.4v17.53M98.96 292.94v17.52M106.24 292.29v17.52M113.51 291.32v17.53M120.79 288.68v17.52"/><path class="cls-3" d="M120.79 288.68c0 3-26.06 5.45-58.2 5.45s-58.2-2.44-58.2-5.45 26.06-5.46 58.2-5.46 58.2 2.45 58.2 5.46"/><path class="cls-6" d="M120.79 288.68c0 3-26.06 5.45-58.2 5.45s-58.2-2.44-58.2-5.45 26.06-5.46 58.2-5.46 58.2 2.45 58.2 5.46z"/><path class="cls-3" d="M120.79 280.51c0 3-26.06 5.46-58.2 5.46s-58.2-2.44-58.2-5.46V263c0 3 26.06 5.45 58.2 5.45s58.2-2.44 58.2-5.45z"/><path class="cls-4" d="M120.79 280.51c0 3-26.06 5.46-58.2 5.46s-58.2-2.44-58.2-5.46V263c0 3 26.06 5.45 58.2 5.45s58.2-2.44 58.2-5.45z"/><path class="cls-5" d="M4.39 262.99v18.12M11.66 265.63v17.53M18.94 266.6v17.52M26.21 267.25v17.52M33.49 267.71v17.53M40.76 268.27v17.3M48.04 268.27v17.7M55.31 268.44v17.53M62.59 268.44v17.53M69.86 268.44v17.53M77.14 268.44v17.53M84.41 268.05v17.52M91.69 267.71v17.53M98.96 267.25v17.52M106.24 266.6v17.52M113.51 265.63v17.52M120.79 262.99v17.52"/><path class="cls-3" d="M120.79 263c0 3-26.06 5.45-58.2 5.45S4.39 266 4.39 263s26.06-5.46 58.2-5.46 58.2 2.45 58.2 5.46"/><path class="cls-6" d="M120.79 263c0 3-26.06 5.45-58.2 5.45S4.39 266 4.39 263s26.06-5.46 58.2-5.46 58.2 2.46 58.2 5.46z"/><path class="cls-3" d="M120.79 254.82c0 3-26.06 5.46-58.2 5.46s-58.2-2.44-58.2-5.46V237.3c0 3 26.06 5.45 58.2 5.45s58.2-2.44 58.2-5.45z"/><path class="cls-4" d="M120.79 254.82c0 3-26.06 5.46-58.2 5.46s-58.2-2.44-58.2-5.46V237.3c0 3 26.06 5.45 58.2 5.45s58.2-2.44 58.2-5.45z"/><path class="cls-5" d="M4.39 237.3v18.12M11.66 239.94v17.53M18.94 240.91v17.52M26.21 241.56v17.52M33.49 242.02v17.53M40.76 242.58v17.3M48.04 242.58v17.7M55.31 242.75v17.53M62.59 242.75v17.53M69.86 242.75v17.53M77.14 242.75v17.53M84.41 242.36v17.52M91.69 242.02v17.53M98.96 241.56v17.52M106.24 240.91v17.52M113.51 239.94v17.52M120.79 237.3v17.52"/><path class="cls-3" d="M120.79 237.3c0 3-26.06 5.45-58.2 5.45s-58.2-2.44-58.2-5.45 26.06-5.46 58.2-5.46 58.2 2.44 58.2 5.46"/><path class="cls-6" d="M120.79 237.3c0 3-26.06 5.45-58.2 5.45s-58.2-2.44-58.2-5.45 26.06-5.46 58.2-5.46 58.2 2.44 58.2 5.46z"/><path class="cls-3" d="M120.79 203.44c0 3-26.06 5.46-58.2 5.46s-58.2-2.45-58.2-5.46v-17.52c0 3 26.06 5.45 58.2 5.45s58.2-2.44 58.2-5.45z"/><path class="cls-4" d="M120.79 203.44c0 3-26.06 5.46-58.2 5.46s-58.2-2.45-58.2-5.46v-17.52c0 3 26.06 5.45 58.2 5.45s58.2-2.44 58.2-5.45z"/><path class="cls-5" d="M4.39 185.92v18.11M11.66 188.56v17.52M18.94 189.53v17.52M26.21 190.18v17.52M33.49 190.64v17.53M40.76 191.2v17.3M48.04 191.2v17.7M55.31 191.37v17.53M62.59 191.37v17.53M69.86 191.37v17.53M77.14 191.37v17.53M84.41 190.98v17.52M91.69 190.64v17.53M98.96 190.18v17.52M106.24 189.53v17.52M113.51 188.56v17.52M120.79 185.92v17.52"/><path class="cls-3" d="M120.79 185.92c0 3-26.06 5.45-58.2 5.45s-58.2-2.44-58.2-5.45 26.06-5.46 58.2-5.46 58.2 2.44 58.2 5.46"/><path class="cls-6" d="M120.79 185.92c0 3-26.06 5.45-58.2 5.45s-58.2-2.44-58.2-5.45 26.06-5.46 58.2-5.46 58.2 2.44 58.2 5.46z"/><path class="cls-3" d="M120.79 229.13c0 3-26.06 5.46-58.2 5.46s-58.2-2.44-58.2-5.46v-17.52c0 3 26.06 5.45 58.2 5.45s58.2-2.44 58.2-5.45z"/><path class="cls-4" d="M120.79 229.13c0 3-26.06 5.46-58.2 5.46s-58.2-2.44-58.2-5.46v-17.52c0 3 26.06 5.45 58.2 5.45s58.2-2.44 58.2-5.45z"/><path class="cls-5" d="M4.39 211.61v18.12M11.66 214.25v17.52M18.94 215.22v17.52M26.21 215.87v17.52M33.49 216.33v17.53M40.76 216.89v17.3M48.04 216.89v17.7M55.31 217.06v17.53M62.59 217.06v17.53M69.86 217.06v17.53M77.14 217.06v17.53M84.41 216.67v17.52M91.69 216.33v17.53M98.96 215.87v17.52M106.24 215.22v17.52M113.51 214.25v17.52M120.79 211.61v17.52"/><path class="cls-3" d="M120.79 211.61c0 3-26.06 5.45-58.2 5.45s-58.2-2.44-58.2-5.45 26.06-5.46 58.2-5.46 58.2 2.44 58.2 5.46"/><path class="cls-6" d="M120.79 211.61c0 3-26.06 5.45-58.2 5.45s-58.2-2.44-58.2-5.45 26.06-5.46 58.2-5.46 58.2 2.44 58.2 5.46z"/><path class="cls-3" d="M120.79 177.75c0 3-26.06 5.46-58.2 5.46s-58.2-2.45-58.2-5.46v-17.52c0 3 26.06 5.45 58.2 5.45s58.2-2.44 58.2-5.45z"/><path class="cls-4" d="M120.79 177.75c0 3-26.06 5.46-58.2 5.46s-58.2-2.45-58.2-5.46v-17.52c0 3 26.06 5.45 58.2 5.45s58.2-2.44 58.2-5.45z"/><path class="cls-5" d="M4.39 160.23v18.11M11.66 162.87v17.52M18.94 163.83v17.53M26.21 164.49v17.52M33.49 164.95v17.53M40.76 165.51v17.3M48.04 165.51v17.7M55.31 165.68v17.53M62.59 165.68v17.53M69.86 165.68v17.53M77.14 165.68v17.53M84.41 165.29v17.52M91.69 164.95v17.53M98.96 164.49v17.52M106.24 163.83v17.53M113.51 162.87v17.52M120.79 160.23v17.52"/><path class="cls-3" d="M120.79 160.23c0 3-26.06 5.45-58.2 5.45s-58.2-2.44-58.2-5.45 26.06-5.46 58.2-5.46 58.2 2.44 58.2 5.46"/><path class="cls-6" d="M120.79 160.23c0 3-26.06 5.45-58.2 5.45s-58.2-2.44-58.2-5.45 26.06-5.46 58.2-5.46 58.2 2.44 58.2 5.46z"/><path class="cls-3" d="M120.79 152.06c0 3-26.06 5.46-58.2 5.46s-58.2-2.45-58.2-5.46v-17.52c0 3 26.06 5.45 58.2 5.45s58.2-2.44 58.2-5.45z"/><path class="cls-4" d="M120.79 152.06c0 3-26.06 5.46-58.2 5.46s-58.2-2.45-58.2-5.46v-17.52c0 3 26.06 5.45 58.2 5.45s58.2-2.44 58.2-5.45z"/><path class="cls-5" d="M4.39 134.54v18.11M11.66 137.18v17.52M18.94 138.14v17.53M26.21 138.8v17.52M33.49 139.26v17.53M40.76 139.82v17.3M48.04 139.82v17.7M55.31 139.99v17.53M62.59 139.99v17.53M69.86 139.99v17.53M77.14 139.99v17.53M84.41 139.6v17.52M91.69 139.26v17.53M98.96 138.8v17.52M106.24 138.14v17.53M113.51 137.18v17.52M120.79 134.54v17.52"/><path class="cls-3" d="M120.79 134.54c0 3-26.06 5.45-58.2 5.45s-58.2-2.44-58.2-5.45 26.06-5.46 58.2-5.46 58.2 2.44 58.2 5.46"/><path class="cls-6" d="M120.79 134.54c0 3-26.06 5.45-58.2 5.45s-58.2-2.44-58.2-5.45 26.06-5.46 58.2-5.46 58.2 2.44 58.2 5.46z"/><path class="cls-3" d="M120.79 62.59a58.2 58.2 0 1 1-58.2-58.2 58.2 58.2 0 0 1 58.2 58.2"/><path class="cls-6" d="M120.79 62.59a58.2 58.2 0 1 1-58.2-58.2 58.2 58.2 0 0 1 58.2 58.2z"/><path class="cls-3" d="M112 62.59a49.37 49.37 0 1 1-49.41-49.37A49.37 49.37 0 0 1 112 62.59"/><path d="M112 62.59a49.37 49.37 0 1 1-49.41-49.37A49.37 49.37 0 0 1 112 62.59z" stroke-linecap="round" stroke-dasharray=".24 5.84" stroke-width="2.44" stroke-miterlimit="10" stroke="#d4d8d8" fill="none"/></g></svg>