<svg id="Слой_1" data-name="Слой 1" xmlns="http://www.w3.org/2000/svg" viewBox="0 0 152.81 149.97"><defs><style>.cls-4{fill:#ee2f48}</style><clipPath id="clip-path" transform="translate(-937.01 -6217.95)"><path fill="none" d="M937.01 6217.95h152.81v149.97H937.01z"/></clipPath></defs><g clip-path="url(#clip-path)"><path d="M1083 6297.84v-31.9h5l1.59-18.27H1083v-7.88l-12-21.79-12 21.84v7.88h-6.62l1.58 18.27h5v31.9h-16.33v-7a17.68 17.68 0 0 0 5.06-14.51c-1.23-11.46-12.55-23.22-33.64-35h-.1l-.14-.05h-.07a1.08 1.08 0 0 0-.19 0h-.06a.6.6 0 0 0-.19 0h-.1a.8.8 0 0 0-.15 0l-.12.05h-.11c-21.11 11.75-32.43 23.51-33.64 34.95a17.55 17.55 0 0 0 4.71 14.07v7.41h-15.46v-31.9h5l1.59-18.27h-6.62v-7.88l-12-21.84-12 21.84v7.88h-6.63l1.59 18.27h5v31.9H937v70.08h61.71v-35.49a14.69 14.69 0 0 1 29.38 0v35.52h61.72v-70.08z" transform="translate(-937.01 -6217.95)" fill="#fff"/><path class="cls-4" d="M1083 6297.84v-31.9h5l1.59-18.27H1083v-7.89l-12-21.78-12 21.83v7.89h-6.62l1.58 18.27h5v31.9h-16.33v-7a17.68 17.68 0 0 0 5.06-14.51c-1.23-11.46-12.55-23.22-33.64-35h-.1l-.14-.05h-.07a1.08 1.08 0 0 0-.19 0h-.06a.61.61 0 0 0-.19 0h-.1a.8.8 0 0 0-.15 0l-.12.05h-.11c-21.11 11.75-32.43 23.51-33.64 34.95a17.6 17.6 0 0 0 4.71 14.08v7.4h-15.46v-31.9h5l1.59-18.27h-6.62v-7.89l-12-21.83-12 21.83v7.89h-6.63l1.59 18.27h5v31.9H937v70.08h61.71v-35.49a14.69 14.69 0 0 1 29.38 0v35.52h61.72v-70.08zm-21.38-56.37l9.36-16.89 9.37 16.89v6.2h-18.73zm-6.39 8.86h31.5l-1.13 13h-29.24zm6.39 15.61h18.73v31.9h-18.73zm-79.86 10.69c.76-7.17 6.89-18.62 31.64-32.54 24.68 13.88 30.84 25.33 31.64 32.51a15.11 15.11 0 0 1-3.83 11.95H985.7a15.11 15.11 0 0 1-3.93-11.92m4.72 14.57H1040v6.64h-53.51zM947 6241.47l9.37-16.89 9.36 16.89v6.2H947zm-6.38 8.86h31.5l-1.13 13h-29.2zm6.38 15.61h18.73v31.9H947zm140.12 99.33h-56.4v-32.87a17.35 17.35 0 0 0-34.69 0v32.87h-56.37v-64.78h147.5z" transform="translate(-937.01 -6217.95)"/><path class="cls-4" d="M1060.21 6305.82h-.59a15 15 0 0 0-14.94 14.93v37.7h30.47v-37.7a15 15 0 0 0-14.94-14.93m11.66 49.36H1048v-34.43a11.67 11.67 0 0 1 11.66-11.66h.59a11.67 11.67 0 0 1 11.66 11.66zM966.77 6305.82h-.59a15 15 0 0 0-14.94 14.93v37.7h30.47v-37.7a15 15 0 0 0-14.94-14.93m11.66 49.36h-23.91v-34.43a11.67 11.67 0 0 1 11.66-11.66h.59a11.67 11.67 0 0 1 11.66 11.66z" transform="translate(-937.01 -6217.95)"/></g></svg>