<svg id="Layer_1" data-name="Layer 1" xmlns="http://www.w3.org/2000/svg" viewBox="0 0 176.15 76.25"><defs><style>.cls-1,.cls-2{fill:#ee2f48}.cls-3{fill:#fff}</style></defs><path class="cls-1" d="M168.21 26.2c0-2.38-.24-4.56-2.18-4.56s-2.18 2.18-2.18 4.56c0 2.63.24 4.57 2.18 4.57s2.18-1.94 2.18-4.57m-8.81.12c0-4.48 1.9-7.59 6.63-7.59s6.62 3.11 6.62 7.59-1.89 7.6-6.62 7.6-6.63-3.11-6.63-7.6m-8.16-14.82c0-2.39-.24-4.57-2.18-4.57s-2.18 2.18-2.18 4.57c0 2.62.24 4.56 2.18 4.56s2.18-1.94 2.18-4.56m13.66-8h3.88l-19.19 30.94h-3.88zm-22.46 8.12c0-4.49 1.9-7.6 6.62-7.6s6.63 3.11 6.63 7.6-1.9 7.59-6.63 7.59-6.62-3.11-6.62-7.59M18.31 21.52C13.8 26.13 8.56 30 3.5 33.76v-16A191.1 191.1 0 0 0 20 5.8h16V61h6.89v10.65H10.12V61h8.19zM73.31 37.44c0-16.65-2.21-22.08-6.81-22.08s-6.81 5.43-6.81 22.08c0 9.75 0 24.64 6.81 24.64s6.81-14.89 6.81-24.64m16.55 0c0 15.91-3.49 35.32-23.36 35.32S43.14 53.35 43.14 37.44c0-16.37 5-32.74 23.36-32.74s23.36 16.37 23.36 32.74M123.54 37.44c0-16.65-2.21-22.08-6.81-22.08s-6.81 5.43-6.81 22.08c0 9.75 0 24.64 6.81 24.64s6.81-14.89 6.81-24.64m16.55 0c0 15.91-3.49 35.32-23.36 35.32S93.37 53.35 93.37 37.44c0-16.37 5-32.74 23.36-32.74s23.36 16.37 23.36 32.74"/><path class="cls-2" d="M36 2.3H20a3.5 3.5 0 0 0-2.19.7C13.05 6.75 6.53 11.84 1.69 14.76a3.49 3.49 0 0 0-1.69 3v16a3.49 3.49 0 0 0 1.93 3.12 3.45 3.45 0 0 0 1.57.37 3.49 3.49 0 0 0 2.09-.69l.53-.39C9 34 12 31.82 14.81 29.45v28h-4.69A3.5 3.5 0 0 0 6.62 61v10.65a3.5 3.5 0 0 0 3.5 3.5h32.74a3.5 3.5 0 0 0 3.5-3.5V61a3.49 3.49 0 0 0-3.5-3.49h-3.4V5.8A3.49 3.49 0 0 0 36 2.3m0 3.5V61h6.89v10.65H10.12V61h8.19V21.52C13.8 26.13 8.56 30 3.5 33.76v-16A191.1 191.1 0 0 0 20 5.8z"/><path class="cls-2" d="M66.5 58.59c-.73 0-1.83-1.81-2.51-5.77-.8-4.64-.8-10.6-.8-15.38 0-7.81.49-13.1 1.51-16.19.78-2.39 1.44-2.39 1.8-2.39s1 0 1.8 2.39c1 3.09 1.51 8.38 1.51 16.19 0 4.78 0 10.73-.8 15.38-.68 4-1.78 5.77-2.51 5.77m0-57.39c-9.62 0-17.09 4.14-21.61 12-3.48 6-5.25 14.2-5.25 24.26 0 10.64 1.5 18.87 4.59 25.16 4.38 8.93 12.08 13.65 22.27 13.65s17.89-4.72 22.27-13.64c3.09-6.3 4.59-14.53 4.59-25.17 0-10.06-1.77-18.22-5.25-24.26-4.52-7.84-12-12-21.61-12m0 60.89c6.81 0 6.81-14.9 6.81-24.65 0-16.65-2.21-22.08-6.81-22.08s-6.81 5.43-6.81 22.08c0 9.75 0 24.65 6.81 24.65m0-57.39c18.39 0 23.36 16.37 23.36 32.74 0 15.91-3.49 35.32-23.36 35.32S43.14 53.35 43.14 37.44c0-16.37 5-32.74 23.36-32.74"/><path class="cls-2" d="M116.73 58.59c-.73 0-1.83-1.81-2.51-5.77-.8-4.64-.8-10.6-.8-15.38 0-7.81.49-13.1 1.51-16.19.78-2.39 1.44-2.39 1.8-2.39s1 0 1.8 2.39c1 3.09 1.51 8.38 1.51 16.19 0 4.78 0 10.73-.8 15.38-.68 4-1.78 5.77-2.51 5.77m0-57.39c-9.62 0-17.09 4.14-21.61 12-3.48 6-5.25 14.2-5.25 24.26 0 10.64 1.5 18.87 4.59 25.16 4.38 8.93 12.08 13.65 22.27 13.65s17.89-4.74 22.27-13.66c3.09-6.3 4.59-14.53 4.59-25.17 0-10.06-1.77-18.22-5.25-24.26-4.52-7.84-12-12-21.61-12m0 60.89c6.81 0 6.81-14.9 6.81-24.65 0-16.65-2.21-22.08-6.81-22.08s-6.81 5.43-6.81 22.08c0 9.75 0 24.65 6.81 24.65m0-57.39c18.4 0 23.36 16.37 23.36 32.74 0 15.91-3.49 35.32-23.36 35.32s-23.36-19.39-23.36-35.3c0-16.37 5-32.74 23.36-32.74"/><path class="cls-2" d="M168.78 7zm0-7h-3.88a3.5 3.5 0 0 0-3 1.65l-3.4 5.49C157.17 3 153.8.53 149.06.53c-6.24 0-10.12 4.25-10.12 11.09s3.8 11 9.93 11.09l-6.13 9.89a3.49 3.49 0 0 0 3 5.34h3.88a3.51 3.51 0 0 0 3-1.65l3.81-6.15c1.2 4.57 4.68 7.28 9.66 7.28 6.24 0 10.12-4.25 10.12-11.1S172.27 15.23 166 15.23h-.42l6.14-9.9a3.5 3.5 0 0 0-3-5.34M166 30.77c1.94 0 2.18-1.94 2.18-4.57 0-2.38-.24-4.56-2.18-4.56s-2.18 2.18-2.18 4.56c0 2.63.24 4.57 2.18 4.57m0-12c4.73 0 6.62 3.11 6.62 7.59s-1.89 7.6-6.62 7.6-6.63-3.11-6.63-7.6 1.9-7.59 6.63-7.59m-17-2.67c1.94 0 2.18-1.94 2.18-4.56 0-2.39-.24-4.57-2.18-4.57s-2.18 2.18-2.18 4.57c0 2.62.24 4.56 2.18 4.56m0-12c4.73 0 6.63 3.11 6.63 7.6s-1.9 7.59-6.63 7.59-6.62-3.11-6.62-7.59 1.9-7.6 6.62-7.6m19.72-.52l-19.13 30.86h-3.88L164.9 3.5z"/><path class="cls-3" d="M18.31 21.52C13.8 26.13 8.56 30 3.5 33.76v-16A191.1 191.1 0 0 0 20 5.8h16V61h6.89v10.65H10.12V61h8.19zM73.31 37.44c0-16.65-2.21-22.08-6.81-22.08s-6.81 5.43-6.81 22.08c0 9.75 0 24.64 6.81 24.64s6.81-14.89 6.81-24.64m16.55 0c0 15.91-3.49 35.32-23.36 35.32S43.14 53.35 43.14 37.44c0-16.37 5-32.74 23.36-32.74s23.36 16.37 23.36 32.74M123.54 37.44c0-16.65-2.21-22.08-6.81-22.08s-6.81 5.43-6.81 22.08c0 9.75 0 24.64 6.81 24.64s6.81-14.89 6.81-24.64m16.55 0c0 15.91-3.49 35.32-23.36 35.32S93.37 53.35 93.37 37.44c0-16.37 5-32.74 23.36-32.74s23.36 16.37 23.36 32.74M168.21 26.2c0-2.38-.24-4.56-2.18-4.56s-2.18 2.18-2.18 4.56c0 2.63.24 4.57 2.18 4.57s2.18-1.94 2.18-4.57m-8.81.12c0-4.48 1.9-7.59 6.63-7.59s6.62 3.11 6.62 7.59-1.89 7.6-6.62 7.6-6.63-3.11-6.63-7.6m-8.16-14.82c0-2.39-.24-4.57-2.18-4.57s-2.18 2.18-2.18 4.57c0 2.62.24 4.56 2.18 4.56s2.18-1.94 2.18-4.56m13.66-8h3.88l-19.19 30.94h-3.88zm-22.46 8.12c0-4.49 1.9-7.6 6.62-7.6s6.63 3.11 6.63 7.6-1.9 7.59-6.63 7.59-6.62-3.11-6.62-7.59"/></svg>