<svg id="Слой_1" data-name="Слой 1" xmlns="http://www.w3.org/2000/svg" viewBox="0 0 129.31 168.84"><defs><style>.cls-3,.cls-6{fill:none;stroke:#ee2f48;stroke-miterlimit:10}.cls-3{stroke-width:3.39px}.cls-4{fill:#fff}.cls-6{stroke-width:1.36px}</style><clipPath id="clip-path" transform="translate(-1.36 -1.56)"><path fill="none" d="M0 0h132.02v172H0z"/></clipPath></defs><g clip-path="url(#clip-path)"><path class="cls-3" d="M69.62 32.48l8.22-27a1.69 1.69 0 0 0-3.23-1l-9 27.94h-1.45l2.37-17.26a1.69 1.69 0 0 0-3.35-.5l-2.94 18A63 63 0 0 0 29 146.26l-3.59 11.14a3 3 0 0 0 5.71 1.74l2.88-9.57a63.13 63.13 0 0 0 6.6 3.39l-1.89 11.58v.09a3.58 3.58 0 0 0 7.1 1l1.4-10.17a63 63 0 1 0 22.39-123z" transform="translate(-1.36 -1.56)"/><path class="cls-4" d="M129 95.33a63 63 0 1 1-63-62.95 63 63 0 0 1 63 63" transform="translate(-1.36 -1.56)"/><path class="cls-3" d="M129 95.33a63 63 0 1 1-63-62.95 63 63 0 0 1 63 62.95z" transform="translate(-1.36 -1.56)"/><path class="cls-4" d="M118.45 95.33A52.44 52.44 0 1 1 66 42.89a52.44 52.44 0 0 1 52.44 52.44" transform="translate(-1.36 -1.56)"/><circle cx="66.01" cy="95.33" r="52.44" transform="rotate(-22.5 61.413 97.979)" stroke-width="1.7" stroke="#ee2f48" stroke-miterlimit="10" fill="none"/><path class="cls-4" d="M25.41 157.4l49.2-153a1.69 1.69 0 0 1 3.23 1L31.11 159.18a3 3 0 1 1-5.71-1.74" transform="translate(-1.36 -1.56)"/><path class="cls-6" d="M25.41 157.4l49.2-153a1.69 1.69 0 0 1 3.23 1L31.11 159.18a3 3 0 1 1-5.71-1.74z" transform="translate(-1.36 -1.56)"/><path class="cls-4" d="M38.74 164.54L63.19 14.65a1.69 1.69 0 0 1 3.35.5L45.83 165.61a3.58 3.58 0 1 1-7.1-1v-.09" transform="translate(-1.36 -1.56)"/><path class="cls-6" d="M38.74 164.54L63.19 14.65a1.69 1.69 0 0 1 3.35.5L45.83 165.61a3.58 3.58 0 1 1-7.1-1s.01-.04.01-.07z" transform="translate(-1.36 -1.56)"/></g></svg>