<svg id="Слой_1" data-name="Слой 1" xmlns="http://www.w3.org/2000/svg" viewBox="0 0 129.16 128.62"><defs><style>.cls-2{fill:#9a1648}</style></defs><path d="M280.32 144.75c-.24-.05-.45-.11-.67-.14A64.23 64.23 0 1 0 254 270.5l.68.13a64.23 64.23 0 1 0 25.6-125.88" transform="translate(-202.61 -143.31)" fill="#f26950"/><path class="cls-2" d="M326.6 219.38a60.58 60.58 0 0 1-109.75 22c-1.06-1.58-2-3.21-3-4.89l.44.3a6.79 6.79 0 0 0 5.2.85 56.45 56.45 0 0 0 74.11 20.31A24.87 24.87 0 0 0 309 247.1a26.17 26.17 0 0 0 1.55-2.78 56.39 56.39 0 0 0-1.11-74 2.13 2.13 0 0 1 0-.25v-.2c0-.16 0-.29-.07-.45a6.54 6.54 0 0 0-5.11-5.09l-1.45-.31a55.93 55.93 0 0 0-35.29-12.41 57.14 57.14 0 0 0-14 1.74l-3.91-.85a6.64 6.64 0 0 0-7.91 5.1c0 .09 0 .18-.05.26a56.35 56.35 0 0 0-12.76 9.06l-1.78-.49a6.85 6.85 0 0 0-4.65.39 60.58 60.58 0 0 1 104.14 52.56m-115.52 11.15a60.82 60.82 0 0 1 7.53-59.16 6.51 6.51 0 0 0-.13.77l-1.32 10.35A56.64 56.64 0 0 0 212.4 220l-1.28 10a2.85 2.85 0 0 0 0 .51m1.79-14.51a55.15 55.15 0 0 1 3.75-29.49zm27.51-42.21l-1.56 21c-.67-.91-1.33-1.81-2-2.74a114.75 114.75 0 0 1-12-22.19h.27a.68.68 0 0 0 .19 0h.49a1.25 1.25 0 0 1 .32.08zm.28-3.71l-10.44-2.82a55.17 55.17 0 0 1 11.23-8zm15.61-16.15a56.06 56.06 0 0 1 11.17-1.13A54.76 54.76 0 0 1 300 163.35zm55.12 70.94a47.4 47.4 0 0 0-6.29-45.75c.69-1.08 1.36-2.17 2-3.28l.2-.19.13-.11a1 1 0 0 1 .21-.21l.13-.11.19-.22.1-.12c.06-.08.1-.16.16-.23l.1-.12a1.73 1.73 0 0 0 .13-.24c0-.08.06-.1.08-.14a1.7 1.7 0 0 0 .14-.24l.08-.14a2 2 0 0 1 .12-.26l.07-.16.1-.25.07-.16a1.53 1.53 0 0 0 .06-.25 1.25 1.25 0 0 1 .06-.18 1.29 1.29 0 0 1 .06-.25c0-.08 0-.14.06-.18a55.21 55.21 0 0 1 2.61 68.43 24.9 24.9 0 0 0-.58-15.67m-37 29.72a24.9 24.9 0 0 0 15.17 3.94 55.25 55.25 0 0 1-68.86-21.31c.24-.11.48-.23.71-.36 2.37-.45 4.74-1 7.1-1.62a47.52 47.52 0 0 0 45.88 19.35m25.46-3.25a21.36 21.36 0 1 1 5.86-29.63 21.37 21.37 0 0 1-5.86 29.63m-21.78-44.45c1.31-.88 2.62-1.82 3.9-2.76a95 95 0 0 0 21-21.75 43.64 43.64 0 0 1 7.21 33.76 57.49 57.49 0 0 1-1 4.12c-.13-.2-.27-.4-.4-.61a25 25 0 0 0-41.58 27.87 26.1 26.1 0 0 0 3.18 3.86 43.84 43.84 0 0 1-38.12-17.22A99.31 99.31 0 0 0 258 221.88a98.13 98.13 0 0 0 13.68-11.07c2.18-1.22 4.3-2.52 6.39-3.92m-33.92-34.35l1-13.44a113.31 113.31 0 0 0 28 36.26 1.79 1.79 0 0 0 2 .24c2.34-1.16 4.65-2.3 6.9-3.36 5.38-2.61 10.44-5.05 14.65-7.52a90.61 90.61 0 0 1-50.22 32.08 1.57 1.57 0 0 0-.6.25h-.08a3 3 0 0 1-4.78-2.63l3.12-41.91zm4.7-16.53l54.6 11.81a3 3 0 0 1 2.31 2.31 3.06 3.06 0 0 1-1 2.9l-.17.14a1.73 1.73 0 0 0-.48.56c-3 5.19-12.58 9.83-23.67 15.2l-5.84 2.86a109.82 109.82 0 0 1-26.6-35.47l.92-.34m-26.79 16.71a117.41 117.41 0 0 0 11.81 21.4c1.45 2.08 3 4.14 4.57 6.13l-1.06 14a6.67 6.67 0 0 0 10.29 6.08 101.13 101.13 0 0 0 11.27-3.5c-1 .7-1.95 1.39-2.94 2a96 96 0 0 1-35.59 14.5 2.07 2.07 0 0 0-.69.29 3.21 3.21 0 0 1-4.46-.88 3.37 3.37 0 0 1-.53-2.2zm58.24-27.94c-.24-.05-.45-.11-.67-.14A64.23 64.23 0 1 0 254 270.5l.68.13a64.23 64.23 0 1 0 25.6-125.88" transform="translate(-202.61 -143.31)"/><path class="cls-2" d="M295.75 245.15a13.46 13.46 0 0 1-16.75-1.38 14.14 14.14 0 0 0 21-16.41 13.47 13.47 0 0 1-4.25 17.79m-18.18-7.3a10.82 10.82 0 0 1 .39-12.6 13.08 13.08 0 0 1 2.79-2.49 12.66 12.66 0 0 1 1.5-.87 10.84 10.84 0 1 1-4.68 16m.89-18.51a17.58 17.58 0 1 0 24.4 4.83 17.57 17.57 0 0 0-24.4-4.83" transform="translate(-202.61 -143.31)"/></svg>