<svg id="Слой_1" data-name="Слой 1" xmlns="http://www.w3.org/2000/svg" viewBox="0 0 141.25 137.08"><defs><style>.cls-4{fill:#ee2f48}</style><clipPath id="clip-path"><path fill="none" d="M0 0h141.25v137.08H0z"/></clipPath></defs><g clip-path="url(#clip-path)"><path d="M139.73 126.39h-2.28V120a1.52 1.52 0 0 0-1.52-1.52h-4.55v-6.17a1.51 1.51 0 0 0-1.52-1.51h-3.36v-6.4a1.52 1.52 0 0 0-1.5-1.5h-1.67V19.76h2.24a1.52 1.52 0 0 0 1.52-1.52l-3-7.61a1.52 1.52 0 0 0-1.52-1.52H115V1.52A1.52 1.52 0 0 0 113.5 0h-10.38a1.51 1.51 0 0 0-1.51 1.52v7.59H18.74a1.52 1.52 0 0 0-1.52 1.52l-3 7.61a1.52 1.52 0 0 0 1.52 1.52h2.24v83.14h-1.72a1.52 1.52 0 0 0-1.51 1.52v6.4h-3.36a1.51 1.51 0 0 0-1.52 1.51v6.17H5.32A1.52 1.52 0 0 0 3.8 120v6.37H1.52A1.52 1.52 0 0 0 0 127.91v7.65a1.52 1.52 0 0 0 1.52 1.52h138.21a1.52 1.52 0 0 0 1.52-1.52v-7.65a1.52 1.52 0 0 0-1.52-1.52" fill="#557a8f"/><path class="cls-4" d="M139.73 126.39h-2.28V120a1.52 1.52 0 0 0-1.52-1.52h-4.55v-6.16a1.51 1.51 0 0 0-1.52-1.52h-3.36v-6.4a1.52 1.52 0 0 0-1.5-1.5h-1.67V19.76h2.24a1.52 1.52 0 0 0 1.52-1.52l-3-7.61a1.52 1.52 0 0 0-1.52-1.52H115V1.52A1.52 1.52 0 0 0 113.5 0h-10.38a1.51 1.51 0 0 0-1.51 1.52v7.59H18.74a1.52 1.52 0 0 0-1.52 1.52l-3 7.61a1.52 1.52 0 0 0 1.52 1.52h2.24v83.14h-1.71a1.51 1.51 0 0 0-1.52 1.52v6.4h-3.36a1.51 1.51 0 0 0-1.52 1.52v6.16H5.32A1.52 1.52 0 0 0 3.8 120v6.37H1.52A1.52 1.52 0 0 0 0 127.91v7.65a1.52 1.52 0 0 0 1.52 1.52h138.21a1.52 1.52 0 0 0 1.52-1.52v-7.65a1.52 1.52 0 0 0-1.52-1.52M104.64 3H112v6.11h-7.34zm-84.38 9.15H121l1.52 4.57H18.74zM105.08 89a9.82 9.82 0 1 0-3 0v13.9H88.25V73.72a1.51 1.51 0 0 0-1.52-1.52H54.89a1.52 1.52 0 0 0-1.52 1.52v29.18H39V89a9.83 9.83 0 1 0-3 0v13.9H21V19.76h99.29v83.14h-15.21zm-1.52-2.91a6.79 6.79 0 1 1 6.79-6.78 6.79 6.79 0 0 1-6.79 6.78M85.22 102.9H72.33V75.24h12.89zm-15.93 0H56.41V75.24h12.88zM37.5 86.09a6.79 6.79 0 1 1 6.78-6.78 6.79 6.79 0 0 1-6.78 6.78m-19.72 19.84h105.68v4.89H17.78zm-4.87 7.92h115.43v4.61H12.91zm-6.07 7.69h127.57v4.61H6.84zM138.21 134H3v-4.61h135.21z"/><path class="cls-4" d="M104.43 48.23a6.36 6.36 0 0 0-6.35 6.35v8.56a1.53 1.53 0 0 0 1.52 1.52h9.65a1.52 1.52 0 0 0 1.52-1.52v-8.56a6.36 6.36 0 0 0-6.34-6.35m3.3 13.39h-6.61v-7a3.31 3.31 0 1 1 6.61 0zM104.43 22.79a6.36 6.36 0 0 0-6.35 6.35v8.56a1.51 1.51 0 0 0 1.52 1.51h9.65a1.51 1.51 0 0 0 1.52-1.51v-8.56a6.36 6.36 0 0 0-6.34-6.35m3.3 13.39h-6.61v-7a3.31 3.31 0 1 1 6.61 0zM36.82 48.23a6.35 6.35 0 0 0-6.34 6.35v8.56A1.53 1.53 0 0 0 32 64.66h9.65a1.51 1.51 0 0 0 1.51-1.52v-8.56a6.35 6.35 0 0 0-6.34-6.35m3.31 13.39h-6.62v-7a3.31 3.31 0 0 1 6.62 0zM36.82 22.79a6.35 6.35 0 0 0-6.34 6.35v8.56A1.51 1.51 0 0 0 32 39.21h9.65a1.5 1.5 0 0 0 1.51-1.51v-8.56a6.35 6.35 0 0 0-6.34-6.35m3.31 13.39h-6.62v-7a3.31 3.31 0 0 1 6.62 0zM85.11 48.23a6.35 6.35 0 0 0-6.34 6.35v8.56a1.53 1.53 0 0 0 1.52 1.52h9.65a1.51 1.51 0 0 0 1.51-1.52v-8.56a6.35 6.35 0 0 0-6.34-6.35m3.31 13.39H81.8v-7a3.31 3.31 0 0 1 6.62 0zM85.11 22.79a6.35 6.35 0 0 0-6.34 6.35v8.56a1.51 1.51 0 0 0 1.52 1.51h9.65a1.5 1.5 0 0 0 1.51-1.51v-8.56a6.35 6.35 0 0 0-6.34-6.35m3.31 13.39H81.8v-7a3.31 3.31 0 0 1 6.62 0zM56.14 48.23a6.36 6.36 0 0 0-6.35 6.35v8.56a1.53 1.53 0 0 0 1.52 1.52H61a1.52 1.52 0 0 0 1.52-1.52v-8.56a6.36 6.36 0 0 0-6.34-6.35m3.3 13.39h-6.65v-7a3.31 3.31 0 1 1 6.61 0zM56.14 22.79a6.36 6.36 0 0 0-6.35 6.35v8.56a1.51 1.51 0 0 0 1.52 1.51H61a1.51 1.51 0 0 0 1.52-1.51v-8.56a6.36 6.36 0 0 0-6.34-6.35m3.3 13.39h-6.65v-7a3.31 3.31 0 1 1 6.61 0z"/></g></svg>