<svg id="Слой_1" data-name="Слой 1" xmlns="http://www.w3.org/2000/svg" viewBox="0 0 128.03 130.08"><defs><style>.cls-1{fill:none;stroke:#9a1648;stroke-linecap:round;stroke-linejoin:round;stroke-width:8.4px}.cls-2{fill:#f26950}</style></defs><path class="cls-1" d="M15.79 39.33l7.76 15.46s15.81-11.85 25.23-9.22c0 0 5.55 1.13 7 5 0 0 4.15 8-7.31 11.47a27.74 27.74 0 0 1-17.54-.53l6.61 20.36s8.87-4.81 16.85.27c0 0 10.92 6.87 2 20.1 0 0-5.35 7-17.62 7 0 0-28.11 3-33.56-41.22 0 0-4.77 18 6.14 37.64 0 0 10.31 20.21 32.3 20.26 0 0 23.32 1.09 26.51-22.62 0 0 2.28-11.37-5.2-23.84 0 0 11.57 3.74 19-3.26 0 0 3.93-3 9.15-13 0 0 4-7.11 9.47-8.27a9.61 9.61 0 0 1 10.49 4.21s4.23 8.24 3 16.63c0 0-.28 16.57-16.57 21.35 0 0-19.52 5.73-20.79-14.14 0 0-2.29 2.31-1.41 13.08 0 0 1.48 17 16.68 19.87 0 0 11.14 2.49 21-8.09 0 0 8.73-8.37 8.73-24.82a51.17 51.17 0 0 0-5.68-25.83S112.17 46 101.12 44a20.73 20.73 0 0 0-17.47 4.9s-4.89 3-12 17.6c0 0-3.47 7.91-10.31 7.77 0 0-2.77-.09-4-1.34 0 0-4-2.17-6.33-2.22a25.64 25.64 0 0 0 12.5-14.06s4-10-1.48-18.81c0 0-4.3-10.21-22.74-8.5a42.11 42.11 0 0 0-23.5 9.99z"/><path class="cls-1" d="M56.2 10.72S58.89 27 78.94 29.2c0 0 12.57 1 24.12-12.2l10.21 12.52a42.76 42.76 0 0 1-28.19 12.39S72 44.17 60.82 29.75c.01 0-6.82-8.54-4.62-19.03z"/><path class="cls-1" d="M67.29 16.08L78.48 4.2l11.74 11.09-11.23 11.37-11.7-10.58z"/><path class="cls-2" d="M15.79 39.33l7.76 15.46s15.81-11.85 25.23-9.22c0 0 5.55 1.13 7 5 0 0 4.15 8-7.31 11.47a27.74 27.74 0 0 1-17.54-.53l6.61 20.36s8.87-4.81 16.85.27c0 0 10.92 6.87 2 20.1 0 0-5.35 7-17.62 7 0 0-28.11 3-33.56-41.22 0 0-4.77 18 6.14 37.64 0 0 10.31 20.21 32.3 20.26 0 0 23.32 1.09 26.51-22.62 0 0 2.28-11.37-5.2-23.84 0 0 11.57 3.74 19-3.26 0 0 3.93-3 9.15-13 0 0 4-7.11 9.47-8.27a9.61 9.61 0 0 1 10.49 4.21s4.23 8.24 3 16.63c0 0-.28 16.57-16.57 21.35 0 0-19.52 5.73-20.79-14.14 0 0-2.29 2.31-1.41 13.08 0 0 1.48 17 16.68 19.87 0 0 11.14 2.49 21-8.09 0 0 8.73-8.37 8.73-24.82a51.17 51.17 0 0 0-5.68-25.83S112.17 46 101.12 44a20.73 20.73 0 0 0-17.47 4.9s-4.89 3-12 17.6c0 0-3.47 7.91-10.31 7.77 0 0-2.77-.09-4-1.34 0 0-4-2.17-6.33-2.22a25.64 25.64 0 0 0 12.5-14.06s4-10-1.48-18.81c0 0-4.3-10.21-22.74-8.5a42.11 42.11 0 0 0-23.5 10"/><path class="cls-2" d="M56.2 10.72S58.89 27 78.94 29.2c0 0 12.57 1 24.12-12.2l10.21 12.52a42.76 42.76 0 0 1-28.19 12.39S72 44.17 60.82 29.75c0 0-6.83-8.54-4.62-19"/><path class="cls-2" d="M67.29 16.08L78.48 4.2l11.74 11.09-11.23 11.37-11.7-10.58z"/></svg>