<svg id="Слой_1" data-name="Слой 1" xmlns="http://www.w3.org/2000/svg" viewBox="0 0 205.47 145.85"><defs><style>.cls-3{fill:#fff}.cls-4{fill:#0c7c80}</style><clipPath id="clip-path" transform="translate(-895.84 -6393.33)"><path fill="none" d="M895.78 6393.33h205.94v145.85H895.78z"/></clipPath></defs><g clip-path="url(#clip-path)"><path class="cls-3" d="M1099.7 6513.66c-9.47-16.72-18.62-35.11-27.48-52.9l-.11-.23c-5.91-11.88-12-24.16-18.13-35.72-2.93-5.54-7.06-9.87-10.71-13.69-.85-.89-1.68-1.75-2.47-2.61a11.74 11.74 0 0 0-8.86-3.88 10.31 10.31 0 0 0-1.11.05c-5.19.42-9.13 2.82-11.4 6.95a203 203 0 0 0-12.92 28.67 20.19 20.19 0 0 0-1.16 8.84 19 19 0 0 0 3.67 10c3 3.95 7 5.9 9.93 7.33l.29.14c.44.22.87.42 1.27.64a63.67 63.67 0 0 0 11.92 4.47c3.61 1.06 6.72 2 8.86 3.52 4.18 3 7.41 6.81 8.85 10.41a11.41 11.41 0 0 1 .26 5.7l-.19 1.08a2.6 2.6 0 0 1-2 1.51h-1.11c-8.59.15-20.58.24-34.69.24h-7.47a1.72 1.72 0 0 1-.52-.06 1.25 1.25 0 0 1 .43-.29s.17-.1 1-.63a10.16 10.16 0 0 0 4.49-8 10.69 10.69 0 0 0-2.77-7c-2.33-2.84-5.38-5-9.14-7.49-1.48-1-3-2-4.64-3.05-5.64-3.67-13.24-9.61-13.32-9.67a12.92 12.92 0 0 1-1.47-1.28 2.63 2.63 0 0 1-.22-1c0-.28.71-2.19.83-2.5s.47-1.22.83-2.13l.87-3.51c.2-.83.42-1.8.44-2s.14-1.06.26-2a15 15 0 0 0-.56-5.68 18.32 18.32 0 0 0-5-8 20.1 20.1 0 0 0-6.06-3.9l-.17-.07c-.36-.17-.68-.31-.93-.46-1.35-.81-2.46-1.36-3.47-1.86a11.08 11.08 0 0 1-3.18-2c-2-2-4.19-4.51-6.5-7.2-6.4-7.4-21.74-19.23-21.89-19.35a17 17 0 0 0-1.76-1.24l-.63-.27a5.28 5.28 0 0 0-1-.17l-1.1-.1H929c-.38 0-1.37.16-2.25.3l-.81.27a8.42 8.42 0 0 0-5.72 6.52l-2.65 16.34-.23 1.42c-4 24.46-7.73 47.55-10.56 70.24-.63 5.09 1.8 11.36 1.83 11.42l.74 1.9c.07.16.39 1 .73 1.89l1.35 4.68a3 3 0 0 1-.82 2.61s-2.06 1.84-4.17 3.47a80.72 80.72 0 0 0-6.85 5.72 10.62 10.62 0 0 0 1.42 17.23 11.82 11.82 0 0 0 6.62 1.85h.37l2.42-.09h.18c.81 0 2.5-.12 3.37-.12l116.27-.26 50.32-.11h2c.15 0 .62-.12.79-.16l.88-.24c.37-.1 2.32-.76 2.34-.76l1.77-.62a15.23 15.23 0 0 0 3.66-2.09c3.1-2.36 7.41-6.18 9-12.08a11.74 11.74 0 0 0-1.21-9" transform="translate(-895.84 -6393.33)"/><path class="cls-4" d="M142.54 133.97h1.09v1.08h-1.09zM137.07 141.54h1.09v1.08h-1.09zM138.17 133.97h1.1v1.08h-1.1zM140.36 133.97h1.09v1.08h-1.09zM142.54 140.46h1.09v1.08h-1.09z"/><path class="cls-4" d="M1051.55 6426.1c-3.42-6.47-8.66-11.26-12.77-15.73a9.15 9.15 0 0 0-7.73-3c-3.58.3-7.13 1.76-9.21 5.54a199.32 199.32 0 0 0-12.74 28.27 17.63 17.63 0 0 0-1 7.65 16.46 16.46 0 0 0 3.11 8.63c3.19 4.14 7.57 5.77 10.59 7.35 8 4.23 16.24 4.68 21.12 8.2 4.27 3.09 8 7.22 9.79 11.62a13.86 13.86 0 0 1 .41 7.2 10.44 10.44 0 0 1-1.58 4.46 33 33 0 0 1-4.38.42c-15.31.28-38.21.29-57.23.18-9.52-.05-18.07-.13-24.22-.21-2.88 0-5.12-.08-6.79-.12l-3-.13a107.75 107.75 0 0 1-12.67-1.54c.36-.55.75-1.1.75-1.1s.73-1 1.74-2.09a21.52 21.52 0 0 1 2.77-2.62 7.49 7.49 0 0 1 3.84-1.05c12.76.44 20.59 3.55 43.6 5.18a12.37 12.37 0 0 0 8.31-2.21 7.33 7.33 0 0 0 3.26-5.7 8 8 0 0 0-2.14-5.26c-2.15-2.62-5.11-4.65-8.54-7-6.85-4.58-15.57-9.81-19.82-14.22a11.51 11.51 0 0 1-1.13-1.93 9.73 9.73 0 0 1 .89-4.14 28.44 28.44 0 0 0 2.15-7.19 14.09 14.09 0 0 0-4.45-13.65c-2.62-2.54-5.33-3.26-6.65-4.06-3.32-2-5.27-2.37-7.18-4.26-7.55-7.51-16.66-21.3-29-27.1l-.68-.32-.75-.08h-.81a5.49 5.49 0 0 0-.81 0 7.4 7.4 0 0 0-1.76.39 5.64 5.64 0 0 0-3.89 4.35c-5.08 31.59-9.94 59.93-13.42 87.9-.59 4.71 1.12 8.71 2.51 12.27s2.56 6.74 2.55 9.12a5.35 5.35 0 0 0 0 .66c-2.58 3.36-8.36 6.7-13 11.16a7.94 7.94 0 0 0-3 6.28 7.72 7.72 0 0 0 3.89 6.76c2.69 1.68 4.79 1.42 6.61 1.4a25.05 25.05 0 0 0 2.95-.19l119.88-.26v-1.09h1v-1.08h1.08v-1.08h-1.09v1.08h-1v-1.08h1v-1.08h1.09v-1.08h-1.09v1.08h-1v-1.08h1v-1.08h1.09v-1.08h-1.09v1.08h-1v-1.08h1v-1.08l-121.41.26h-.29a20.91 20.91 0 0 1-2.23.16 5.29 5.29 0 0 1-.8-.07c3.42-3.05 9.31-6.36 13.37-11.74a9.81 9.81 0 0 0 1.67-5.8c0-4.77-1.79-8.81-3.15-12.29s-2.2-6.32-2-8c3.3-26.55 7.91-53.76 12.76-83.83 7.88 5.21 16.06 16.14 23.72 23.75 3.43 3.41 6.77 4.32 8.81 5.54 2.58 1.55 4.46 2.24 5.1 2.87a7.46 7.46 0 0 1 2 3 12.41 12.41 0 0 1-.11 3.41 27.46 27.46 0 0 1-1.66 5.17 17 17 0 0 0-1.38 8.22 11.46 11.46 0 0 0 3.49 6.87c5.8 6 14.78 11.09 21.24 15.42a54.56 54.56 0 0 1 5.46 4.08l-.93.22c-22.36-1.59-29.93-4.71-43.91-5.2a15.57 15.57 0 0 0-8.6 2.29 20.69 20.69 0 0 0-4.78 4.28c-1.23 1.39-2.12 2.57-2.14 2.59a24 24 0 0 0-1.49 2.18 8.73 8.73 0 0 0-1.84 5.44 7.47 7.47 0 0 0 .52 2.9 6.26 6.26 0 0 0 3.61 3.44c7 2.31 16.68 2.6 17.35 2.62h.89l2 .06c1.74 0 4.24.09 7.33.13 6.19.09 14.75.17 24.29.22 19.06.1 42 .1 57.43-.18 1.87 0 5.88.66 9.61-2.32s4.23-7 4.71-9.71a21.62 21.62 0 0 0-.9-11.93c-2.6-6.49-7.51-11.62-12.76-15.4-7.68-5.55-16.47-5.87-22.15-8.85-3.5-1.83-6.45-3.27-7.76-5a9 9 0 0 1-1.36-4.21 9.4 9.4 0 0 1 .56-3.89 192.93 192.93 0 0 1 12.17-27 8.24 8.24 0 0 1 2.33-1.08c.09 0 .76.29.67.19 4.42 4.81 9 9.22 11.49 13.91 15 28.52 29.7 60.58 45.88 89.14 0 .09.08.56.11.43-.48 1.82-2.44 4.09-4.86 5.93a25 25 0 0 1-2.45 1.08c-.86.3-1.27.41-1.57.49l-40.48.09v1.09h-1v1.09h1v1.08h-1v1.08h1v1.08h-1v1.08h1v1.08h-1v1.26l42.76-.1.55-.15s1.2-.32 2.65-.83a16 16 0 0 0 4.81-2.35c3.14-2.39 6.68-5.67 8-10.59a9 9 0 0 0-.94-6.92c-15.91-28.09-30.54-60.08-45.76-88.91" transform="translate(-895.84 -6393.33)"/><path class="cls-4" d="M139.26 141.54h1.09v1.08h-1.09zM142.54 138.3h1.09v1.08h-1.09zM142.54 136.14h1.09v1.08h-1.09zM141.45 141.54h1.09v1.08h-1.09zM138.17 136.14h1.1v1.08h-1.1z"/><path class="cls-4" d="M138.17 140.46h1.1v1.08h-1.1zM140.36 140.46h1.09v1.08h-1.09zM139.26 135.05h1.09v1.08h-1.09zM139.26 137.22h1.09v1.08h-1.09zM141.45 139.38h1.09v1.08h-1.09zM141.45 135.05h1.09v1.08h-1.09zM139.26 139.38h1.09v1.08h-1.09z"/><path class="cls-4" d="M140.36 138.3h1.09v1.08h-1.09zM138.17 138.3h1.1v1.08h-1.1zM141.45 137.22h1.09v1.08h-1.09zM140.36 136.14h1.09v1.08h-1.09z"/><path class="cls-4" d="M916.93 6523.78c-.57.45-.59.81-.52 1s.32.47 1 .47l161.47-.35a12.48 12.48 0 0 0 2.41-.2l1-.35a12.75 12.75 0 0 0 2.78-1.91 9.22 9.22 0 0 0 1.39-1.4 3.07 3.07 0 0 0 0-3c-.18-.33-18-34-26.75-51.58-5.86-11.78-11.92-23.95-17.93-35.33-1.87-3.55-5.17-7.05-8.65-10.76l-.55-.57c-1.21-1.31-1.31-1.25-1.45-1.17s-.1.06-.89 1.67c-.08.16-7.91 16-10.93 24.51a7 7 0 0 0-.43 2.89 7 7 0 0 0 .88 3c.87 1.13 4.39 3 4.53 3.05l2 1.05c.27.14 1.22.53 2.11.88 0 0 3 1.16 5.73 1.93 4.71 1.32 10 2.83 15.07 6.45 6.4 4.63 11.09 10.3 13.54 16.4 1.53 3.81 1.13 11.41 1.12 11.49 0 1-.1 1.78-.12 1.86l-.32 1.87c0 .06-1 5.78-5.18 9.07a13.47 13.47 0 0 1-8.78 2.87h-2.13c-8.86.16-21 .24-35.1.24-7.3 0-14.86 0-22.48-.06-9.22-.05-17.85-.13-24.31-.22-3.19 0-5.66-.09-7.35-.13l-2.1-.06c-.35 0-.56 0-.83-.06l-1.87-.08c-.09 0-9.3-.4-16.16-2.66a8.51 8.51 0 0 1-5-4.78 11.29 11.29 0 0 1 .28-8.47l1.06-1.68c.09-.13 1.09-1.71 1.33-2l1.39-1.83 1.31-1.47a22.47 22.47 0 0 1 5.3-4.72c2.81-1.7 7.53-2.38 7.58-2.39 1-.14 1.85-.25 2-.23s1.06.07 2 .16c.1 0 10.62 1 16.75 2 5 .81 16.16 2.23 16.27 2.24s.89.11 1-.27-.42-.75-.61-.87l-1.77-1.13c-5.76-3.68-12.29-7.86-17-12.72a13.79 13.79 0 0 1-4.11-8.19 18.48 18.48 0 0 1 .91-7.67l.72-1.93.72-1.93a14.53 14.53 0 0 0 .69-2.4l.23-2a5.11 5.11 0 0 0-.8-1.72 6.2 6.2 0 0 0-1.49-1.26l-.55-.27c-.84-.43-2-1-3.27-1.78a17.29 17.29 0 0 0-1.62-.84l-.15-.07a24.83 24.83 0 0 1-7.47-5c-2.64-2.62-5.36-5.65-8-8.58-4-4.43-10.83-11.15-10.9-11.21a1 1 0 0 0-1.9.62l-1.54 9.48c-.07.46-7.51 46.24-10.27 68.43-.09.76 1.18 4.81 1.32 5.26.29.92.61 1.87.71 2.13l.82 2.08c0 .06 2.3 5.85 2.3 10.58a11.6 11.6 0 0 1-2.13 7.18 47.68 47.68 0 0 1-6.46 6.44m9.05-13.62c0-4.82-2.31-10.69-2.33-10.75l-.82-2.07c-.1-.26-.41-1.2-.7-2.1a31.73 31.73 0 0 1-1.31-5.07c2.76-22.18 10.2-68 10.27-68.42l1.54-9.48c.06-.36.21-.6.41-.67h.12a1 1 0 0 1 .6.32c.07.07 6.91 6.78 10.88 11.2 2.63 2.93 5.35 6 8 8.6a25.39 25.39 0 0 0 7.6 5.07l.14.07a15.55 15.55 0 0 1 1.59.81c1.3.78 2.45 1.37 3.3 1.8l.54.27a5.55 5.55 0 0 1 1.34 1.13 4.88 4.88 0 0 1 .7 1.44l-.23 2a13.31 13.31 0 0 1-.66 2.3l-.72 1.93-.72 1.93a18.62 18.62 0 0 0-.93 7.89 14.18 14.18 0 0 0 4.23 8.44c4.72 4.91 11.27 9.1 17.07 12.8l1.75 1.12a1.75 1.75 0 0 1 .39.32 2.12 2.12 0 0 1-.5 0c-.11 0-11.29-1.43-16.26-2.24-6.15-1-16.67-1.95-16.78-2-.86-.07-1.85-.16-2-.16s-1.21.12-2.06.24c-.2 0-4.85.7-7.74 2.44a22.89 22.89 0 0 0-5.42 4.82l-1.31 1.48-1.4 1.84c-.28.35-1.34 2-1.35 2.06l-1.06 1.67a9.6 9.6 0 0 0-1 5 10.08 10.08 0 0 0 .72 3.91 9 9 0 0 0 5.3 5c6.91 2.29 16.19 2.68 16.28 2.68 1 0 1.78.08 1.88.09s.46 0 .82.05c.52 0 1.22.05 2.1.07 1.7 0 4.17.08 7.37.13 6.46.09 15.09.16 24.3.21 7.63.05 15.19.07 22.49.07 14.11 0 26.24-.09 35.1-.25h2.13a13.88 13.88 0 0 0 9.06-3c4.27-3.4 5.34-9.29 5.35-9.35l.32-1.87c0-.13.09-1.24.13-1.91 0-.32.41-7.79-1.16-11.69-2.48-6.18-7.22-11.92-13.69-16.6-5.09-3.67-10.47-5.19-15.22-6.53-2.7-.76-5.65-1.9-5.68-1.91-.87-.33-1.81-.73-2.07-.86l-2-1.05s-3.58-1.87-4.39-2.92a6.84 6.84 0 0 1-.79-2.81 6.74 6.74 0 0 1 .41-2.69c3-8.45 10.83-24.31 10.91-24.47.3-.61.53-1.07.67-1.32.2.18.55.52.93.93l.54.58c3.47 3.68 6.74 7.16 8.59 10.65 6 11.37 12.06 23.55 17.92 35.32 8.73 17.55 26.58 51.26 26.76 51.6a2.63 2.63 0 0 1 0 2.46 8.45 8.45 0 0 1-1.31 1.32 12 12 0 0 1-2.64 1.82l-1 .34a11.09 11.09 0 0 1-2.27.18l-161.47.35c-.43 0-.58-.1-.61-.16s0-.24.37-.52a46.51 46.51 0 0 0 6.55-6.51 12.13 12.13 0 0 0 2.22-7.46" transform="translate(-895.84 -6393.33)"/><path class="cls-4" d="M1099.7 6513.66c-9.47-16.72-18.62-35.11-27.48-52.9l-.11-.23c-5.91-11.88-12-24.16-18.13-35.72-2.93-5.55-7.06-9.87-10.71-13.69-.85-.89-1.68-1.75-2.47-2.61a11.74 11.74 0 0 0-8.86-3.88 10.31 10.31 0 0 0-1.11.05c-5.19.42-9.13 2.82-11.4 6.95a203 203 0 0 0-12.92 28.67 20.19 20.19 0 0 0-1.16 8.84 19 19 0 0 0 3.67 10c3 3.95 7 5.9 9.93 7.33l.29.14c.44.22.87.42 1.27.64a63.67 63.67 0 0 0 11.92 4.47c3.61 1.06 6.72 2 8.86 3.52 4.18 3 7.41 6.81 8.85 10.41a11.41 11.41 0 0 1 .26 5.7l-.19 1.08a2.6 2.6 0 0 1-2 1.51h-1.11c-8.59.15-20.59.24-34.69.24h-7.47a1.33 1.33 0 0 1-.52-.07 1.65 1.65 0 0 1 .43-.29s.17-.09 1-.62a10.16 10.16 0 0 0 4.49-8 10.69 10.69 0 0 0-2.77-7c-2.33-2.83-5.38-5-9.14-7.49-1.48-1-3-2-4.64-3.05-5.64-3.67-13.24-9.61-13.32-9.67a12.92 12.92 0 0 1-1.47-1.28 2.63 2.63 0 0 1-.22-1c0-.28.71-2.19.83-2.5s.47-1.22.83-2.13l.87-3.51c.2-.83.42-1.8.44-2s.14-1.05.26-2a15 15 0 0 0-.56-5.68 18.32 18.32 0 0 0-5-8 20.1 20.1 0 0 0-6.06-3.9l-.17-.07c-.36-.17-.68-.31-.93-.46-1.35-.81-2.46-1.36-3.47-1.86a10.94 10.94 0 0 1-3.18-2c-2-2-4.19-4.51-6.5-7.2-6.4-7.4-21.74-19.23-21.89-19.35a17 17 0 0 0-1.76-1.24l-.63-.27a5.28 5.28 0 0 0-1-.17l-1.1-.1H929c-.38 0-1.37.16-2.25.3l-.81.27a8.45 8.45 0 0 0-5.73 6.52q-1.34 8.31-2.64 16.34l-.23 1.42c-4 24.46-7.73 47.55-10.56 70.24-.63 5.09 1.8 11.36 1.83 11.42l.74 1.9c.07.16.39 1 .73 1.88l1.35 4.69a3 3 0 0 1-.82 2.61s-2.06 1.84-4.17 3.47a80.72 80.72 0 0 0-6.85 5.72 10.62 10.62 0 0 0 1.42 17.23 11.81 11.81 0 0 0 6.61 1.85h.38l2.42-.09h.18c.81 0 2.5-.12 3.37-.12l116.27-.26 50.32-.11h2c.15 0 .62-.12.79-.16l.88-.24c.37-.1 2.32-.76 2.34-.77l1.77-.61a15.23 15.23 0 0 0 3.66-2.09c3.1-2.36 7.41-6.18 9-12.08a11.74 11.74 0 0 0-1.21-9m.77 8.85c-1.53 5.77-5.77 9.52-8.82 11.83a14.46 14.46 0 0 1-3.53 2l-1.77.62c-.12 0-2 .67-2.31.76l-.92.25-.66.14h-1.94l-39.3.09h-7.56l-119.73.26c-.89 0-2.58.08-3.4.12h-.17l-2.4.09h-.33a11.36 11.36 0 0 1-6.37-1.78 10.17 10.17 0 0 1-1.35-16.51 80.87 80.87 0 0 1 6.84-5.7c2.11-1.63 4.16-3.46 4.18-3.48a3.47 3.47 0 0 0 1-3.07l-1.36-4.71-.73-1.91-.75-1.9c0-.06-2.41-6.22-1.79-11.19 2.82-22.68 6.57-45.78 10.55-70.23l.23-1.42q1.31-8 2.65-16.34a7.94 7.94 0 0 1 5.42-6.15l.77-.27c.81-.13 1.8-.26 2.15-.28h.71l1.08.09a7.39 7.39 0 0 1 .87.15c.14.05.41.16.59.25a20.29 20.29 0 0 1 1.67 1.19c.15.12 15.45 11.92 21.83 19.3 2.31 2.68 4.5 5.21 6.52 7.22a11.28 11.28 0 0 0 3.33 2.1c1 .48 2.07 1 3.41 1.83a10 10 0 0 0 1 .48l.16.08a19.54 19.54 0 0 1 5.93 3.81 18 18 0 0 1 4.87 7.8 15.15 15.15 0 0 1 .55 5.49c-.13.95-.24 1.84-.26 2s-.2.94-.44 1.93L980 6451c-.34.89-.71 1.83-.82 2.1s-.79 2.24-.85 2.59a2.91 2.91 0 0 0 .28 1.35 12 12 0 0 0 1.58 1.4c.08.06 7.69 6 13.35 9.7 1.59 1 3.16 2.05 4.64 3 3.72 2.49 6.75 4.61 9 7.4a10.28 10.28 0 0 1 2.67 6.71 9.67 9.67 0 0 1-4.29 7.6c-.77.52-.91.6-.92.6-.53.27-.76.53-.7.81s.39.41 1 .41h7.47c14.11 0 26.11-.08 34.7-.24h1.14a3.09 3.09 0 0 0 2.41-1.85l.2-1.12a11.81 11.81 0 0 0-.28-5.95c-1.48-3.67-4.76-7.54-9-10.61-2.2-1.59-5.35-2.52-9-3.59a62.56 62.56 0 0 1-11.84-4.44c-.4-.21-.83-.42-1.28-.64l-.29-.15c-2.86-1.4-6.79-3.32-9.77-7.19a18.48 18.48 0 0 1-3.57-9.81 19.74 19.74 0 0 1 1.13-8.64 202.52 202.52 0 0 1 12.89-28.6c2.19-4 6-6.31 11-6.72h1.08a11.33 11.33 0 0 1 8.53 3.73c.78.86 1.61 1.73 2.47 2.62 3.62 3.79 7.73 8.09 10.63 13.58 6.1 11.56 12.22 23.84 18.13 35.72l.11.22c8.86 17.8 18 36.19 27.5 52.92a11.34 11.34 0 0 1 1.16 8.63" transform="translate(-895.84 -6393.33)"/><path class="cls-4" d="M968.76 6492.22c-5.88-.95-14.65-1.76-14.74-1.77l-1.75-.16a3.94 3.94 0 0 0-.93 0 11.47 11.47 0 0 0-2.76 1.76.75.75 0 0 0-.26.8c.13.35.57.59 1.21.65l4.78.54 3.21.17c.81 0 2.26.08 3.21.09 0 0 2.12.05 5 .09 4.28.06 14.24.14 14.34.14h.14c.57 0 .79 0 .8-.27s-.23-.31-.89-.41c-.08 0-7.71-1.08-11.36-1.67m-3 1.75l-5-.08-3.2-.1-3.19-.17-4.77-.53c-.5-.05-.78-.22-.83-.36s.08-.25.15-.32a11 11 0 0 1 2.58-1.64 7.7 7.7 0 0 1 .78 0l1.72.16c.09 0 8.84.81 14.7 1.76 2.58.42 7.15 1.08 9.64 1.43l-12.59-.13" transform="translate(-895.84 -6393.33)"/><path class="cls-3" d="M928.73 6397.54h-.12a9.07 9.07 0 0 0-.94.18l.16.59a6 6 0 0 1 .83-.16h.14a5.44 5.44 0 0 1 .6 0h.16v-.61H928.71M920.22 6515.3l-.48.61.48.38.48-.62a5.66 5.66 0 0 0 .58-.94l-.54-.28a5.51 5.51 0 0 1-.52.85M935.68 6498.05l-.59.16a5.94 5.94 0 0 0 .26.78 4.57 4.57 0 0 0 .54 1l.5-.36a3.82 3.82 0 0 1-.48-.84 6 6 0 0 1-.23-.72M935.51 6496.5v-.08a7.19 7.19 0 0 1 .1-1.27l-.6-.1a7.39 7.39 0 0 0-.11 1.37h.3l-.3.07v.45h.61v-.41M933.63 6399.12l-.31.53c.52.3 1 .61 1.56.94l.33-.51c-.53-.33-1.06-.66-1.58-1M921.16 6513.37l.59.17a10.12 10.12 0 0 0 .35-1.85l-.61-.06a9 9 0 0 1-.33 1.74M924.93 6399.36l.47.4a4.36 4.36 0 0 1 1.35-1l-.28-.55a5.09 5.09 0 0 0-1.54 1.18M921.44 6508.64c.06.61.1 1.21.1 1.8h.61c0-.61 0-1.24-.1-1.86zM924 6401.38l-.15 1 .6.09.16-1a3.37 3.37 0 0 1 .21-.77l-.57-.22a4.34 4.34 0 0 0-.25.89M930.89 6397.71l-.25.56.28.13c.45.21.9.44 1.34.67l.29-.54c-.45-.24-.91-.47-1.37-.68zM953.09 6487.31l1.82.1v-.61l-1.83-.1zM950 6487l.16.59a7.87 7.87 0 0 1 1.74-.28v-.61a9.08 9.08 0 0 0-1.87.3M969.14 6454.5l-.6-.11a12.22 12.22 0 0 0-.22 1.86h.61a11.07 11.07 0 0 1 .21-1.77M947.66 6488a3.82 3.82 0 0 0-.51.37l.38.48a3.3 3.3 0 0 1 .45-.33 7.51 7.51 0 0 1 1.02-.52l-.23-.56a8.82 8.82 0 0 0-1.15.58M945.65 6503.48c.62.1 1.23.18 1.82.26l.08-.61-1.81-.25zM937.16 6500.46l-.4.46a4.53 4.53 0 0 0 1.53.89l.16.06.19-.58-.16-.06a3.83 3.83 0 0 1-1.32-.77M942.63 6502.94c.6.13 1.2.24 1.81.35l.1-.61c-.6-.1-1.2-.21-1.79-.33zM939.63 6502.22c.57.16 1.17.32 1.79.46l.14-.59-1.76-.45zM946.63 6489.61l-.41-.44c-.45.42-.92.88-1.32 1.3l.44.42c.39-.41.85-.87 1.29-1.28M900.62 6532.09a7.07 7.07 0 0 0 1.23 1.47l.41-.46a5.83 5.83 0 0 1-1.12-1.33zM921.28 6507.45l.6-.1c-.1-.59-.23-1.2-.38-1.81l-.59.15c.15.6.27 1.19.37 1.76M920.59 6504.52l.59-.17c-.17-.56-.36-1.14-.58-1.76l-.57.21c.21.61.4 1.17.56 1.72M1004.36 6481.77l.48-.37-.27-.34c-.29-.35-.61-.71-1-1.07l-.44.43c.34.34.64.69.92 1l.27.32M900.3 6529h-.61a7.06 7.06 0 0 0 .38 1.87l.57-.21a6.57 6.57 0 0 1-.34-1.71M900.73 6526.18l-.56-.24a5.92 5.92 0 0 0-.47 1.86l.61.05a5.13 5.13 0 0 1 .42-1.67M911.19 6489.33l.17-1.33-.61-.08-.16 1.33c0 .17 0 .33-.05.5l.6.05c0-.15 0-.31.05-.47M1006.29 6484.2a6.54 6.54 0 0 0-.74-1.77l-.52.31a5.75 5.75 0 0 1 .67 1.6zM1010.69 6442.14v-.14l-.58-.2v.13q-.3.82-.51 1.65l.59.15c.14-.53.3-1.06.49-1.59M1097.41 6518.9a7.49 7.49 0 0 0-.48-1.83l-.57.22a7.5 7.5 0 0 1 .45 1.7zM1010 6444.9l-.6-.11a17 17 0 0 0-.23 1.85h.61a13.52 13.52 0 0 1 .22-1.78" transform="translate(-895.84 -6393.33)"/><path class="cls-3" transform="rotate(-21.38 -16468.26 5678.304)" d="M912.95 6499.78h.61v1.83h-.61z"/><path class="cls-3" d="M919.52 6499.73l-.57.22q.33.84.66 1.71l.57-.22q-.33-.87-.66-1.71M915.48 6520.19l.4.47c.48-.41 1-.83 1.38-1.23l-.42-.44c-.42.39-.88.8-1.36 1.2M913.11 6522.1l.38.48q.72-.56 1.44-1.14l-.38-.47c-.48.39-1 .76-1.44 1.13M968.94 6457.46h-.61c0 .23 0 .46.06.69a11 11 0 0 0 .21 1.17l.6-.14a9.71 9.71 0 0 1-.2-1.1q0-.33-.06-.66M917.72 6518.15l.43.43c.45-.45.87-.9 1.27-1.35l-.46-.4c-.38.43-.8.88-1.24 1.32M903.19 6533.82l-.33.51.19.12a8.25 8.25 0 0 0 1.48.75l.22-.57a7.48 7.48 0 0 1-1.38-.7zM911.09 6491l-.61.05a14 14 0 0 0 .11 1.81l.6-.07a15 15 0 0 1-.1-1.79M912.15 6496.88l-.58.19c.19.59.4 1.17.62 1.74l.57-.22c-.21-.56-.42-1.13-.61-1.71M911.38 6494l-.6.12c.11.58.25 1.17.43 1.8l.58-.16c-.17-.62-.31-1.19-.41-1.76M1025.6 6410.67l.35.5a8 8 0 0 1 1.55-.85l-.24-.56a8.88 8.88 0 0 0-1.66.91M1052.2 6497.52l.38.47a4.24 4.24 0 0 0 1.08-1.63l-.55-.24a4 4 0 0 1-.91 1.4M1054.75 6486a10.34 10.34 0 0 0-.49-1.6l-.08-.2-.56.24.07.19a8.8 8.8 0 0 1 .46 1.5zM1053.52 6495l.58.19c.18-.55.35-1.17.49-1.8l-.6-.13a15.67 15.67 0 0 1-.47 1.74M1054.35 6487.3a17 17 0 0 1 .11 1.79h.61a14.22 14.22 0 0 0-.12-1.87zM1054.22 6492.08l.6.1c.1-.62.17-1.24.21-1.85h-.61c0 .59-.1 1.19-.2 1.79M1053.59 6472.77c-.42-.45-.85-.89-1.29-1.33l-.43.44c.44.43.86.86 1.27 1.3zM1044.72 6466.31c.53.31 1 .63 1.54 1l.34-.5c-.51-.35-1-.68-1.57-1zM1054 6474.08c.39.46.78.94 1.15 1.41l.48-.38c-.37-.48-.77-1-1.17-1.43zM1047.25 6468c.49.36 1 .73 1.44 1.1l.38-.47c-.47-.38-1-.76-1.46-1.12zM1049.63 6469.84c.47.4.92.8 1.36 1.2l.42-.44c-.45-.42-.91-.82-1.39-1.22zM970 6431.16a15.86 15.86 0 0 1 1.55.91l.34-.51a15.18 15.18 0 0 0-1.61-.94zM1093.88 6527.16l.48.38c.39-.49.75-1 1.08-1.51l-.52-.33a15.62 15.62 0 0 1-1 1.46" transform="translate(-895.84 -6393.33)"/><path class="cls-3" transform="rotate(-.09 -4069471.245 573766.215)" d="M1077.15 6528.64h1.83v.61h-1.83z"/><path class="cls-3" d="M1091.83 6529.37l.42.44c.47-.44.91-.88 1.3-1.32l-.45-.41c-.39.43-.81.86-1.27 1.29M1096.87 6520.15a7.53 7.53 0 0 1-.27 1.75l.61.1a8.26 8.26 0 0 0 .27-1.83zM1095.52 6524.66l.54.29a15.14 15.14 0 0 0 .76-1.71l-.58-.21a13 13 0 0 1-.72 1.63M1083.06 6528l.21.57c.48-.17 1.06-.42 1.71-.72l-.26-.56c-.63.3-1.19.54-1.66.71M1081.42 6528.56h-.11a1.54 1.54 0 0 1-.3 0h-.81v.61h.81a1.39 1.39 0 0 0 .46-.07h.12l.5-.14-.18-.59-.49.14M1042 6464.93c.55.26 1.1.52 1.63.8l.28-.54c-.54-.28-1.09-.55-1.66-.81zM1085.74 6526.8l.37.49c.5-.39 1-.79 1.43-1.19l-.41-.45c-.43.39-.9.78-1.39 1.15M1089.52 6531.31l.38.49c.52-.41 1-.79 1.43-1.17l-.4-.46c-.43.37-.89.74-1.41 1.14M976.81 6437.1l-.54.28a13.69 13.69 0 0 1 .7 1.64l.58-.2a12.92 12.92 0 0 0-.74-1.72M977.3 6440.16a9.33 9.33 0 0 1 .25 1.76h.61a11.41 11.41 0 0 0-.26-1.86zM974.62 6434.9a15.62 15.62 0 0 1 1 1.45l.52-.33a17 17 0 0 0-1.1-1.51zM1001.36 6491l.24.56a12.12 12.12 0 0 0 1.66-.88l-.33-.52a12.67 12.67 0 0 1-1.57.84M975.22 6452.54c-.14.38-.27.74-.38 1.08l.58.19c.11-.33.24-.68.37-1.05s.17-.43.26-.66l-.57-.22-.26.66M973.75 6433.07c-.27-.26-.56-.52-.86-.76l-.38.47c.28.23.56.48.82.73s.33.33.49.49l.44-.42q-.24-.26-.51-.51M975.09 6455l-.6-.15a8.91 8.91 0 0 0-.29 1.87h.61a8.31 8.31 0 0 1 .28-1.74M1037.35 6410.84l-.4.45c.2.18.39.38.58.58l.67.72.45-.42-.67-.71a7.36 7.36 0 0 0-.63-.62M1003.88 6489.51l.4.46a7.54 7.54 0 0 0 1.25-1.45l-.51-.34a6.36 6.36 0 0 1-1.14 1.33M974.39 6458a12.21 12.21 0 0 0 .9 1.66l.52-.33a12.22 12.22 0 0 1-.86-1.56zM1031.54 6409.43a9.26 9.26 0 0 1 1.76.1l.1-.6a9 9 0 0 0-1.88-.11zM1028.44 6409.33l.17.59a11.51 11.51 0 0 1 1.75-.37l-.09-.61a12.58 12.58 0 0 0-1.83.39M1023.37 6412.88l.5.35a9.87 9.87 0 0 1 1.16-1.33l-.41-.44a9 9 0 0 0-1.25 1.42M1034.44 6409.82a7 7 0 0 1 1.58.76l.33-.51a7.57 7.57 0 0 0-1.72-.83zM1010.24 6454a12.53 12.53 0 0 0 .79 1.7l.53-.3a12 12 0 0 1-.75-1.62zM1009.76 6449.05c0-.39-.06-.78-.06-1.17h-.61c0 .4 0 .82.07 1.22 0 .22 0 .43.07.63l.6-.07c0-.2 0-.41-.07-.62M1010 6450.86l-.61.11a18.46 18.46 0 0 0 .43 1.81l.59-.17a14.94 14.94 0 0 1-.41-1.75M1012.19 6456.37l-.5.35c.12.16.23.32.36.48.26.33.53.66.81 1l.46-.41c-.28-.3-.54-.61-.79-.93-.12-.15-.23-.31-.34-.46M1005.85 6485.49v.15a4.25 4.25 0 0 1-.31 1.52l.57.22a4.82 4.82 0 0 0 .35-1.74v-.17z" transform="translate(-895.84 -6393.33)"/></g></svg>