<svg data-name="Layer 1" xmlns="http://www.w3.org/2000/svg" viewBox="0 0 112.12 109.72"><path d="M112.12 91.66V50.48a6 6 0 0 0-6.06-6.07h-78l-15.94.14v-.42L102.81 22a6.35 6.35 0 0 0 4-2.82 6 6 0 0 0 .71-4.66l-.29-1A17.75 17.75 0 0 0 97.73 2 17.14 17.14 0 0 0 92.94.41a16 16 0 0 0-7.76.14L13.81 17.9a18.31 18.31 0 0 0-11.28 8.32 17.21 17.21 0 0 0-2 13.4l1.56 5.92v46.12a18.18 18.18 0 0 0 18.05 18.06h73.93a18.09 18.09 0 0 0 18.05-18.06" fill="#f26950"/><path d="M107 62.75L95.9 49.49h9.87a1.26 1.26 0 0 1 1.23 1.27zm0 28.91a12.94 12.94 0 0 1-13 13H19.88a12.64 12.64 0 0 1-12.7-12.7V68.11H107zM6.76 28.76a13.45 13.45 0 0 1 8.18-5.93L7.47 40l-1.56.28-.56-2a12.17 12.17 0 0 1 1.41-9.59M53 13.52l-7.45 17.21-13 3.1 7.62-17.06zm33.45-7.89a13.33 13.33 0 0 1 3.24-.43H91l-7.23 16.36-12.83 3.11 7.47-17.21zm-56.7 43.86L40.89 63H27.63L16.49 49.49zm39.63 0L80.53 63H67.27L56.13 49.49zm36.68-5.08h-78l-15.94.14v-.42L102.81 22a6.35 6.35 0 0 0 4-2.82 6 6 0 0 0 .71-4.66l-.29-1A17.73 17.73 0 0 0 97.73 2 17.14 17.14 0 0 0 92.94.41a16 16 0 0 0-7.76.14L13.81 17.9a18.31 18.31 0 0 0-11.28 8.32 17.21 17.21 0 0 0-2 13.4l1.56 5.92v46.12a18.18 18.18 0 0 0 18.05 18.06h73.93a18.09 18.09 0 0 0 18.05-18.06V50.48a6 6 0 0 0-6.06-6.07M16.92 81.23a2.32 2.32 0 0 0 1.69.7h29.9a2.61 2.61 0 0 0 1.69-.7 2.33 2.33 0 0 0 .71-1.7 2.57 2.57 0 0 0-.71-1.69 2.34 2.34 0 0 0-1.69-.7h-29.9a2.59 2.59 0 0 0-1.69.7 2.44 2.44 0 0 0-.57 2.4 2.27 2.27 0 0 0 .57 1m42.31 0a2.34 2.34 0 0 0 1.69.7h15.8a2.61 2.61 0 0 0 1.69-.7 2.37 2.37 0 0 0 .71-1.7 2.62 2.62 0 0 0-.71-1.69 2.34 2.34 0 0 0-1.69-.7h-15.8a2.61 2.61 0 0 0-1.69.7 2.43 2.43 0 0 0-.56 2.4 2.35 2.35 0 0 0 .56 1M16.92 91.1a2.32 2.32 0 0 0 1.69.7h7.33a2.59 2.59 0 0 0 1.69-.7 2.31 2.31 0 0 0 .71-1.69 2.59 2.59 0 0 0-.71-1.7 2.32 2.32 0 0 0-1.69-.7h-7.33a2.59 2.59 0 0 0-1.69.7 2.44 2.44 0 0 0-.57 2.4 2.21 2.21 0 0 0 .57 1m19.74 0a2.34 2.34 0 0 0 1.69.7h15.8a2.59 2.59 0 0 0 1.69-.7 2.31 2.31 0 0 0 .71-1.69 2.59 2.59 0 0 0-.71-1.7 2.32 2.32 0 0 0-1.69-.7h-15.8a2.61 2.61 0 0 0-1.69.7 2.46 2.46 0 0 0-.56 2.4 2.29 2.29 0 0 0 .56 1m35.26 0a2.37 2.37 0 0 0 1.7.7h15.79a2.59 2.59 0 0 0 1.69-.7 2.31 2.31 0 0 0 .71-1.69 2.59 2.59 0 0 0-.71-1.7 2.32 2.32 0 0 0-1.69-.7H73.62a2.63 2.63 0 0 0-1.7.7 2.46 2.46 0 0 0-.56 2.4 2.29 2.29 0 0 0 .56 1" fill="#9a1648"/></svg>