<svg id="Слой_1" data-name="Слой 1" xmlns="http://www.w3.org/2000/svg" viewBox="0 0 134.11 134.11"><defs><style>.cls-1,.cls-4,.cls-6,.cls-7{fill:none}.cls-2{clip-path:url(#clip-path)}.cls-3{fill:#557a8f}.cls-4,.cls-6,.cls-7{stroke:#ee2f48}.cls-4,.cls-6{stroke-linecap:round;stroke-linejoin:round}.cls-4{stroke-width:3.1px}.cls-6{stroke-width:1.55px}.cls-7{stroke-miterlimit:10;stroke-width:.62px}</style><clipPath id="clip-path" transform="translate(-1.37 12.94)"><path class="cls-1" d="M0 0h122.54v122.54H0z"/></clipPath><clipPath id="clip-path-2" transform="translate(-1.37 12.94)"><path class="cls-1" d="M15.78 32.66a9.52 9.52 0 1 0 6.72-2.78 9.52 9.52 0 0 0-6.72 2.78"/></clipPath><clipPath id="clip-path-4" transform="translate(-1.37 12.94)"><path class="cls-1" d="M89.58 8.19c-10 0-21.06 4.68-29.95 13.57C44.58 36.81 41.59 58.22 53 69.58s32.73 8.42 47.78-6.67 18-36.46 6.67-47.82c-4.65-4.65-11-6.9-17.87-6.9"/></clipPath></defs><g class="cls-2"><path class="cls-3" d="M100.78 62.91C85.73 78 64.32 81 53 69.58s-8.37-32.77 6.68-47.82 36.46-18 47.82-6.68 8.38 32.78-6.67 47.83" transform="translate(-1.37 12.94)"/><path class="cls-4" d="M100.78 62.91C85.73 78 64.32 81 53 69.58s-8.37-32.77 6.68-47.82 36.46-18 47.82-6.68 8.33 32.78-6.72 47.83zM48.29 39.38c-6 16.12-6 35.17-14.8 44M83.16 74.25c-16.12 6-35.17 6-44 14.8" transform="translate(-1.37 12.94)"/><path class="cls-3" transform="rotate(-45 38.691 106.904)" d="M4.56 94.77h38.39v8.03H4.56z"/><path class="cls-4" transform="rotate(-45 38.691 106.904)" d="M4.56 94.77h38.39v8.03H4.56z"/><path class="cls-3" d="M12.77 119c-1.39 1.39-4.58.46-7.12-2.09s-3.48-5.73-2.09-7.12 4.59-.46 7.13 2.08 3.47 5.73 2.08 7.13" transform="translate(-1.37 12.94)"/><path class="cls-4" d="M12.77 119c-1.39 1.39-4.58.46-7.12-2.09s-3.48-5.73-2.09-7.12 4.59-.46 7.13 2.08 3.47 5.71 2.08 7.13z" transform="translate(-1.37 12.94)"/><path class="cls-3" d="M29.23 46.11a9.51 9.51 0 1 1 0-13.45 9.52 9.52 0 0 1 0 13.45" transform="translate(-1.37 12.94)"/><path class="cls-4" d="M29.23 46.11a9.51 9.51 0 1 1 0-13.45 9.52 9.52 0 0 1 0 13.45z" transform="translate(-1.37 12.94)"/><path class="cls-3" d="M29.23 46.11a9.51 9.51 0 1 1 0-13.45 9.52 9.52 0 0 1 0 13.45" transform="translate(-1.37 12.94)"/></g><g clip-path="url(#clip-path-2)"><path class="cls-3" d="M34 50.9c-4.14 4.15-9.53 5.48-12 3s-1.17-7.89 3-12 9.53-5.48 12-3 1.18 7.89-3 12" transform="translate(-1.37 12.94)"/><path class="cls-6" d="M34 50.9c-4.14 4.15-9.53 5.48-12 3s-1.17-7.89 3-12 9.53-5.48 12-3 1.17 7.86-3 12z" transform="translate(-1.37 12.94)"/><path class="cls-3" d="M20.05 36.93c-4.14 4.15-9.53 5.48-12 3s-1.17-7.89 3-12 9.54-5.47 12-3 1.18 7.9-3 12" transform="translate(-1.37 12.94)"/><path class="cls-6" d="M20.05 36.93c-4.14 4.15-9.53 5.48-12 3s-1.17-7.89 3-12 9.54-5.47 12-3 1.15 7.86-3 12z" transform="translate(-1.37 12.94)"/></g><g class="cls-2"><path class="cls-7" d="M29.23 46.11a9.51 9.51 0 1 1 0-13.45 9.52 9.52 0 0 1 0 13.45z" transform="translate(-1.37 12.94)"/><path class="cls-3" d="M100.78 62.91C85.73 78 64.32 81 53 69.58s-8.37-32.77 6.68-47.82 36.46-18 47.82-6.68 8.38 32.78-6.67 47.83" transform="translate(-1.37 12.94)"/></g><g clip-path="url(#clip-path-4)"><path class="cls-3" d="M85.51 7.45l-54.5 54.5"/><path class="cls-6" d="M85.51 7.45l-54.5 54.5"/><path class="cls-3" d="M89.25 11.19l-54.5 54.5"/><path class="cls-6" d="M89.25 11.19l-54.5 54.5"/><path class="cls-3" d="M92.99 14.93l-54.5 54.5"/><path class="cls-6" d="M92.99 14.93l-54.5 54.5"/><path class="cls-3" d="M96.73 18.67l-54.49 54.5"/><path class="cls-6" d="M96.73 18.67l-54.49 54.5"/><path class="cls-3" d="M100.48 22.41l-54.5 54.5"/><path class="cls-6" d="M100.48 22.41l-54.5 54.5"/><path class="cls-3" d="M104.22 26.15l-54.5 54.5"/><path class="cls-6" d="M104.22 26.15l-54.5 54.5"/><path class="cls-3" d="M107.96 29.9l-54.5 54.49"/><path class="cls-6" d="M107.96 29.9l-54.5 54.49"/><path class="cls-3" d="M111.7 33.64l-54.5 54.5"/><path class="cls-6" d="M111.7 33.64l-54.5 54.5"/><path class="cls-3" d="M115.44 37.38l-54.5 54.5"/><path class="cls-6" d="M115.44 37.38l-54.5 54.5"/><path class="cls-3" d="M119.18 41.12l-54.5 54.5"/><path class="cls-6" d="M119.18 41.12l-54.5 54.5"/><path class="cls-3" d="M122.92 44.86l-54.5 54.5"/><path class="cls-6" d="M122.92 44.86l-54.5 54.5"/><path class="cls-3" d="M126.67 48.6l-54.5 54.5"/><path class="cls-6" d="M126.67 48.6l-54.5 54.5"/><path class="cls-3" d="M133.34 55.27L78.84.77"/><path class="cls-6" d="M133.34 55.27L78.84.77"/><path class="cls-3" d="M129.15 59.47l-54.5-54.5"/><path class="cls-6" d="M129.15 59.47l-54.5-54.5"/><path class="cls-3" d="M124.95 63.66l-54.5-54.5"/><path class="cls-6" d="M124.95 63.66l-54.5-54.5"/><path class="cls-3" d="M120.76 67.85l-54.5-54.5"/><path class="cls-6" d="M120.76 67.85l-54.5-54.5"/><path class="cls-3" d="M116.57 72.04l-54.5-54.5"/><path class="cls-6" d="M116.57 72.04l-54.5-54.5"/><path class="cls-3" d="M112.38 76.24l-54.5-54.5"/><path class="cls-6" d="M112.38 76.24l-54.5-54.5"/><path class="cls-3" d="M108.18 80.43l-54.49-54.5"/><path class="cls-6" d="M108.18 80.43l-54.49-54.5"/><path class="cls-3" d="M103.99 84.62l-54.5-54.5"/><path class="cls-6" d="M103.99 84.62l-54.5-54.5"/><path class="cls-3" d="M99.8 88.81l-54.5-54.5"/><path class="cls-6" d="M99.8 88.81l-54.5-54.5"/><path class="cls-3" d="M95.61 93l-54.5-54.49"/><path class="cls-6" d="M95.61 93l-54.5-54.49"/><path class="cls-3" d="M91.42 97.2l-54.5-54.5"/><path class="cls-6" d="M91.42 97.2l-54.5-54.5"/><path class="cls-3" d="M87.22 101.39l-54.5-54.5"/><path class="cls-6" d="M87.22 101.39l-54.5-54.5"/><path class="cls-3" d="M83.03 105.58l-54.5-54.5"/><path class="cls-6" d="M83.03 105.58l-54.5-54.5"/><path class="cls-3" d="M78.84 109.77l-54.5-54.5"/><path class="cls-6" d="M78.84 109.77l-54.5-54.5"/></g><g class="cls-2"><path class="cls-7" d="M100.78 62.91C85.73 78 64.32 81 53 69.58s-8.37-32.77 6.68-47.82 36.46-18 47.82-6.68 8.33 32.78-6.72 47.83z" transform="translate(-1.37 12.94)"/></g></svg>