<svg id="Слой_1" data-name="Слой 1" xmlns="http://www.w3.org/2000/svg" viewBox="0 0 150.86 198.39"><defs><style>.cls-4,.cls-5,.cls-7{fill:none}.cls-2{fill:#ee2f48}.cls-3{clip-path:url(#clip-path)}.cls-4,.cls-5,.cls-7{stroke:#9a1648}.cls-4,.cls-7{stroke-linejoin:round}.cls-4{stroke-width:4.92px}.cls-5{stroke-miterlimit:10;stroke-width:.99px}.cls-7{stroke-width:2.46px}</style><clipPath id="clip-path" transform="translate(-134.67 -55.12)"><path fill="none" d="M133.68 54.13h152.83v200.36H133.68z"/></clipPath></defs><path class="cls-2" d="M8.59 2.46h133.68v180.82H8.59z"/><g class="cls-3"><path class="cls-4" d="M8.59 2.46h133.68v180.82H8.59z"/></g><path class="cls-2" d="M32.15 2.46H8.59l13.74 9.11L2.46 22.08v18.01h27.21"/><g class="cls-3"><path class="cls-4" d="M32.15 2.46H8.59l13.74 9.11L2.46 22.08v18.01h27.21"/></g><path class="cls-2" d="M118.71 2.46h23.56l-13.75 9.11 19.88 10.51v18.01h-27.21"/><g class="cls-3"><path class="cls-4" d="M118.71 2.46h23.56l-13.75 9.11 19.88 10.51v18.01h-27.21"/></g><path class="cls-2" d="M2.46 22.08h145.93v173.85H2.46z"/><g class="cls-3"><path class="cls-4" d="M2.46 22.08h145.93v173.85H2.46z"/><path class="cls-2" d="M239.14 95.21a7.16 7.16 0 1 1 7.16 7.16 7.17 7.17 0 0 1-7.16-7.16" transform="translate(-134.67 -55.12)"/><path class="cls-5" d="M239.14 95.21a7.16 7.16 0 1 1 7.16 7.16 7.17 7.17 0 0 1-7.16-7.16z" transform="translate(-134.67 -55.12)"/><path class="cls-2" d="M166.73 95.21a7.17 7.17 0 1 1 7.17 7.16 7.17 7.17 0 0 1-7.17-7.16" transform="translate(-134.67 -55.12)"/><path class="cls-5" d="M166.73 95.21a7.17 7.17 0 1 1 7.17 7.16 7.17 7.17 0 0 1-7.17-7.16z" transform="translate(-134.67 -55.12)"/><path class="cls-2" d="M173.9 95.21v19.68c0 19.14 16.2 34.66 36.2 34.66s36.2-15.52 36.2-34.66V95.21" transform="translate(-134.67 -55.12)"/><path d="M39.23 40.09v19.68c0 19.14 16.2 34.66 36.2 34.66s36.2-15.52 36.2-34.66V40.09" stroke-width="2.46" stroke-miterlimit="10" stroke="#9a1648" fill="none"/><path class="cls-2" d="M23.61 11.57v10.51"/><path class="cls-7" d="M23.61 11.57v10.51"/><path class="cls-2" d="M127.16 11.57v10.51"/><path class="cls-7" d="M127.16 11.57v10.51"/></g></svg>