<svg id="Слой_1" data-name="Слой 1" xmlns="http://www.w3.org/2000/svg" viewBox="0 0 176.52 153.01"><defs><style>.cls-3{fill:#1d2b47}.cls-4{fill:#304f65}</style><clipPath id="clip-path" transform="translate(0 -.09)"><path fill="none" d="M0 0h176.52v153.1H0z"/></clipPath></defs><g clip-path="url(#clip-path)"><path class="cls-3" d="M71.27 101.2h65a1.83 1.83 0 0 0 1.82-1.64c.08-.68 1.66-17.25-14.26-49.72S73.5 1 72.05.27a1.83 1.83 0 0 0-1.77.11 1.86 1.86 0 0 0-.85 1.55v97.44a1.84 1.84 0 0 0 1.84 1.83M21.81 101.2h33.12a1.83 1.83 0 0 0 1.83-1.83V16.69a1.84 1.84 0 0 0-3.54-.69L20.11 98.68a1.83 1.83 0 0 0 1.7 2.52" transform="translate(0 -.09)"/><path class="cls-3" d="M174.68 149.43a23 23 0 0 1-13.09-3.68l12.28-24.93a1.84 1.84 0 0 0-.12-1.83 1.82 1.82 0 0 0-1.64-.81l-41.45 2.55-4.56-9.26a1.84 1.84 0 0 0-1.65-1H64.93V1.93a1.84 1.84 0 1 0-3.67 0v108.51H47a1.82 1.82 0 0 0-1.64 1l-7.37 15-33.81 2.06a1.83 1.83 0 0 0-1.53 2.64l8.22 16.68a22.88 22.88 0 0 1-9 1.61 1.84 1.84 0 1 0 0 3.67c7.69 0 11.57-2.24 15.32-4.4 3.48-2 6.77-3.92 13.48-3.92s10 1.9 13.48 3.92c3.76 2.16 7.63 4.4 15.33 4.4s11.57-2.24 15.32-4.4c3.48-2 6.78-3.92 13.48-3.92s10 1.9 13.49 3.92c3.75 2.16 7.63 4.4 15.32 4.4s11.58-2.24 15.33-4.4c3.48-2 6.77-3.92 13.48-3.92s10 1.9 13.49 3.92c3.75 2.16 7.63 4.4 15.32 4.4a1.84 1.84 0 1 0 0-3.67" transform="translate(0 -.09)"/><path class="cls-4" d="M24.52 97.44h28.57V26.11L24.52 97.44z"/><path class="cls-4" d="M73.1 97.53h61.34c-.05-4.85-1.34-20.37-13.94-46.08-12.91-26.33-39.06-42-47.4-46.52z" transform="translate(0 -.09)"/><path class="cls-4" d="M42.19 126.07l5.93-12.05h75.19l3.38 6.86-84.5 5.19z"/><path class="cls-4" d="M158.38 144a25.62 25.62 0 0 0-12.51-2.85c-7.69 0-11.57 2.24-15.32 4.41-3.48 2-6.78 3.91-13.49 3.91s-10-1.9-13.48-3.91c-3.75-2.17-7.63-4.41-15.33-4.41s-11.57 2.24-15.32 4.41c-3.48 2-6.77 3.91-13.48 3.91s-10-1.9-13.49-3.91c-3.75-2.17-7.63-4.41-15.32-4.41s-11.57 2.24-15.32 4.41l-1.17.67-7-14.2 162-10z" transform="translate(0 -.09)"/><path class="cls-3" d="M116.59 131.25a7 7 0 1 0 7 7 7 7 0 0 0-7-7m0 12.23a5.2 5.2 0 1 1 5.2-5.2 5.2 5.2 0 0 1-5.2 5.2" transform="translate(0 -.09)"/></g></svg>