<svg id="Слой_1" data-name="Слой 1" xmlns="http://www.w3.org/2000/svg" viewBox="0 0 137.61 101.93"><defs><style>.cls-2{fill:#ee2f48}.cls-3{fill:none;stroke:#fcda2b;stroke-linecap:round;stroke-linejoin:round}</style></defs><path fill="#fcda2b" d="M135.98 27.57H95.45V1.77H42.16v25.8H1.62v73.41h134.36V27.57z"/><path class="cls-2" d="M134.56 98.93h-38.3v-69.6h38.34v69.6zm-41.36 0H82.58v-26.8H54.83v26.81H44.24V3h49v95.94zm-13.68 0H57.84v-23.8h21.74v23.81zM3 29.33h38.24v69.6H3zm134.61-3H96.26V0h-55v26.33H0v75.6h137.61z"/><path class="cls-2" d="M66.76 21.13h3.91v-4.09h4.1v-3.92h-4.1V9.03h-3.91v4.09h-4.12v3.92h4.12v4.09zM109 41.77h-6.29V35.5H109v6.27zm3-9.27H99.69v12.27H112V32.5z"/><path class="cls-3" d="M109 41.77h-6.29V35.5H109v6.27zm3-9.27H99.69v12.27H112V32.5z"/><path class="cls-2" d="M109 58h-6.29v-6.26H109V58zm3-9.28H99.69V61H112V48.74z"/><path class="cls-3" d="M109 58h-6.29v-6.26H109V58zm3-9.28H99.69V61H112V48.74z"/><path class="cls-2" d="M109 74.26h-6.29V68H109v6.27zm3-9.26H99.69v12.26H112V65z"/><path class="cls-3" d="M109 74.26h-6.29V68H109v6.27zm3-9.26H99.69v12.26H112V65z"/><path class="cls-2" d="M127.31 41.77h-6.21V35.5h6.21zm3-9.27H118.1v12.27h12.21z"/><path class="cls-3" d="M127.31 41.77h-6.21V35.5h6.21zm3-9.27H118.1v12.27h12.21z"/><path class="cls-2" d="M127.31 58h-6.21v-6.25h6.21zm3-9.28H118.1V61h12.21z"/><path class="cls-3" d="M127.31 58h-6.21v-6.25h6.21zm3-9.28H118.1V61h12.21z"/><path class="cls-2" d="M102.71 83.46H109v6.27h-6.29v-6.28zm9.29 9.27V80.45H99.69v12.27H112z"/><path class="cls-3" d="M102.71 83.46H109v6.27h-6.29v-6.28zm9.29 9.27V80.45H99.69v12.27H112z"/><path class="cls-2" d="M127.31 74.26h-6.21V68h6.21zm3-9.27H118.1v12.27h12.21z"/><path class="cls-3" d="M127.31 74.26h-6.21V68h6.21zm3-9.27H118.1v12.27h12.21z"/><path class="cls-2" d="M127.31 89.72h-6.21v-6.27h6.21zm3-9.27H118.1v12.27h12.21z"/><path class="cls-3" d="M127.31 89.72h-6.21v-6.27h6.21zm3-9.27H118.1v12.27h12.21z"/><path class="cls-2" d="M50.8 52.51h6.27v6.27H50.8zM60 61.8V49.51H47.8v12.27h12.27z"/><path class="cls-3" d="M50.8 52.51h6.27v6.27H50.8zM60 61.8V49.51H47.8v12.27h12.27z"/><path class="cls-2" d="M65.64 52.51h6.27v6.27h-6.27zm9.27 9.29V49.51H62.64v12.27h12.27z"/><path class="cls-3" d="M65.64 52.51h6.27v6.27h-6.27zm9.27 9.29V49.51H62.64v12.27h12.27z"/><path class="cls-2" d="M80.51 52.51h6.3v6.27h-6.3zm9.3 9.29V49.51h-12.3v12.27h12.3z"/><path class="cls-3" d="M80.51 52.51h6.3v6.27h-6.3zm9.3 9.29V49.51h-12.3v12.27h12.3z"/><path class="cls-2" d="M50.8 35.49h6.27v6.27H50.8zm9.2 9.29V32.49H47.8v12.27h12.27z"/><path class="cls-3" d="M50.8 35.49h6.27v6.27H50.8zm9.2 9.29V32.49H47.8v12.27h12.27z"/><path class="cls-2" d="M65.64 35.49h6.27v6.27h-6.27zm9.27 9.29V32.49H62.64v12.27h12.27z"/><path class="cls-3" d="M65.64 35.49h6.27v6.27h-6.27zm9.27 9.29V32.49H62.64v12.27h12.27z"/><path class="cls-2" d="M80.51 35.49h6.3v6.27h-6.3zm9.3 9.29V32.49h-12.3v12.27h12.3z"/><path class="cls-3" d="M80.51 35.49h6.3v6.27h-6.3zm9.3 9.29V32.49h-12.3v12.27h12.3z"/><path class="cls-2" d="M34.9 41.77h-6.27V35.5h6.27zm-9.27 3H37.9V32.5H25.63z"/><path class="cls-3" d="M34.9 41.77h-6.27V35.5h6.27zm-9.27 3H37.9V32.5H25.63z"/><path class="cls-2" d="M28.63 51.75h6.27V58h-6.27zm-3 9.27H37.9V48.74H25.63z"/><path class="cls-3" d="M28.63 51.75h6.27V58h-6.27zm-3 9.27H37.9V48.74H25.63z"/><path class="cls-2" d="M28.63 68h6.27v6.27h-6.27zm-3 9.28H37.9V65H25.63z"/><path class="cls-3" d="M28.63 68h6.27v6.27h-6.27zm-3 9.28H37.9V65H25.63z"/><path class="cls-2" d="M28.63 83.46h6.27v6.27h-6.27v-6.28zm-3 9.27H37.9V80.45H25.62v12.27z"/><path class="cls-3" d="M28.63 83.46h6.27v6.27h-6.27v-6.28zm-3 9.27H37.9V80.45H25.62v12.27z"/><path class="cls-2" d="M10.29 35.51h6.27v6.27h-6.27V35.5zm-3 9.27h12.27V32.5H7.29v12.27z"/><path class="cls-3" d="M10.29 35.51h6.27v6.27h-6.27V35.5zm-3 9.27h12.27V32.5H7.29v12.27z"/><path class="cls-2" d="M10.29 51.75h6.27V58h-6.27zm-3 9.25h12.27V48.74H7.29z"/><path class="cls-3" d="M10.29 51.75h6.27V58h-6.27zm-3 9.25h12.27V48.74H7.29z"/><path class="cls-2" d="M10.29 68h6.27v6.27h-6.27zm-3 9.28h12.27V65H7.29z"/><path class="cls-3" d="M10.29 68h6.27v6.27h-6.27zm-3 9.28h12.27V65H7.29z"/><path class="cls-2" d="M10.29 83.46h6.27v6.27h-6.27v-6.28zm-3 9.27h12.27V80.45H7.29v12.27z"/><path class="cls-3" d="M10.29 83.46h6.27v6.27h-6.27v-6.28zm-3 9.27h12.27V80.45H7.29v12.27z"/></svg>