<svg id="Слой_1" data-name="Слой 1" xmlns="http://www.w3.org/2000/svg" viewBox="0 0 135.21 114.35"><defs><style>.cls-4{fill:none;stroke:#1d2b47;stroke-linecap:round;stroke-linejoin:round;stroke-width:2.22px}</style><clipPath id="clip-path" transform="translate(-.7 -.44)"><path fill="none" d="M0 0h136.6v115.24H0z"/></clipPath></defs><g clip-path="url(#clip-path)"><path d="M134.92 63.36a6.13 6.13 0 0 0-10.78.9l-5.13 12c-.14.32-.28.65-.44 1a9.21 9.21 0 0 0-5.6-2.4c0-26.49-3.68-42.07-10.91-46.31a7.56 7.56 0 0 0-2.69-1 16 16 0 1 0-22.56.59 7.81 7.81 0 0 0-4.24 2.1A37.87 37.87 0 0 0 59.91 28a16 16 0 1 0-22.34-.14 15.41 15.41 0 0 0-8.93 4c-7.78 7-10.58 21.72-8.32 43.83a9.3 9.3 0 0 0-2.32 1.5c-.16-.31-.3-.64-.44-1l-5.13-12a6.13 6.13 0 0 0-10.78-.9 6.07 6.07 0 0 0-.43 5.85l9 19.77A23.63 23.63 0 0 0 15 95.82l16.55 16.58a1.1 1.1 0 0 0 .79.32H36l32.37 2a1.54 1.54 0 0 0 .3 0 1.06 1.06 0 0 0 .31 0l31.54-2h3.7a1.08 1.08 0 0 0 .78-.32l16.58-16.58a23.12 23.12 0 0 0 4.78-6.82l9-19.77a6.07 6.07 0 0 0-.43-5.85" transform="translate(-.7 -.44)" fill="#fff"/><path class="cls-4" d="M32.34 95L21.86 84.49a25 25 0 0 1-5.29-7.83l-5.13-12a5 5 0 1 0-9.18 4l9 19.77a22.31 22.31 0 0 0 4.5 6.57l16.58 16.58h22.2v-6.56A21.63 21.63 0 0 0 50 91.47a14.33 14.33 0 0 0-6.58-4.83 49.23 49.23 0 0 1-13.88-8.85 8.22 8.22 0 0 0-11.09.51M104.26 95l10.48-10.47a25 25 0 0 0 5.26-7.87l5.13-12a5 5 0 1 1 9.18 4l-9 19.77a22.09 22.09 0 0 1-4.47 6.57l-16.58 16.58h-22.2v-6.56a21.63 21.63 0 0 1 4.52-13.58 14.28 14.28 0 0 1 6.58-4.83A49.23 49.23 0 0 0 107 77.79a8.22 8.22 0 0 1 11.09.51M48.81 1.55a14.91 14.91 0 1 1-14.9 14.91 14.91 14.91 0 0 1 14.9-14.91zM40.93 29.07s-25.08-5.54-19.42 47.3M72.61 31.38c-6-2.31-11.48-2.31-15.78-2.31M87.79 1.55a14.91 14.91 0 1 1-14.9 14.91 14.91 14.91 0 0 1 14.9-14.91zM79.9 29.07c-8.16-.55-8.07 5.45-11.19 9.19M95.82 29.07s16.05-9 16.05 45.86" transform="translate(-.7 -.44)"/><circle class="cls-4" cx="68.3" cy="52" r="13.76" transform="rotate(-80.78 67.694 52.182)"/><path class="cls-4" d="M58.49 61.63C56.08 63.42 47.66 71 47.66 88.69M88.94 88.69c0-17.68-8.42-25.27-10.83-27.06" transform="translate(-.7 -.44)"/><path class="cls-4" d="M35.5 111.17l32.52 2.08 31.68-2.08"/><path class="cls-4" d="M75.75 56.86c0 .88-2.34 1.59-5.24 1.59s-5.24-.71-5.24-1.59M93.19 21.56c0 .83-2.46 1.5-5.5 1.5s-5.5-.67-5.5-1.5M51.93 21.14c0 1.06-2.46 1.92-5.5 1.92s-5.5-.86-5.5-1.92" transform="translate(-.7 -.44)"/></g></svg>