<svg data-name="Слой 1" xmlns="http://www.w3.org/2000/svg" viewBox="0 0 85.78 181.57"><defs><clipPath id="a" transform="translate(-1.13 -1.57)"><path fill="none" d="M0 0h88.05v184.27H0z"/></clipPath></defs><g clip-path="url(#a)"><path d="M84.64 131.22v-.79c0-1.55-.06-3.13-.12-4.65v-.35c0-1.22-.12-2.48-.19-3.69l-.1-1.31c-.2-3.24-.47-6.68-.79-10.22-.14-1.67-.31-3.33-.48-5v-.14c-.17-1.71-.35-3.4-.54-5.08-.33-3.06-.72-6.28-1.19-9.85-.43-3.33-.87-6.43-1.31-9.22l-.13-.82c-.19-1.2-.37-2.33-.59-3.45l-.33-2.07-.51-2.4c0-.24-.1-.47-.16-.69l-.52-1.88v-.07l-.37-1a18.56 18.56 0 0 0-10.29-10l-.6-.22V52.5a3 3 0 0 0-3-3H51.16l1.19-13.35a1.63 1.63 0 0 0 .52-.31 2 2 0 0 0 .7-1.33l.68-7.92a2.12 2.12 0 0 1 .81-1.33l4.68-2.93a3.56 3.56 0 0 0 1.5-2.45l.24-2.7a3.48 3.48 0 0 0-1.06-2.67l-8.75-7.79a5.13 5.13 0 0 0-2.58-1.12l-1.63-.17a3.17 3.17 0 0 0-2.59 1.21l-2.88 3.87a3.48 3.48 0 0 0-.49 2.82l.37 1.23a3.74 3.74 0 0 0 1.93 2.13l8.88 3.74s.09.05.1 0a.36.36 0 0 1-.07.09l-2.35 2.31a4.64 4.64 0 0 0-1.21 2.6l-.77 8.68a2 2 0 0 0 .49 1.42 2.1 2.1 0 0 0 .42.36l-1.26 13.65H35.77l1.15-28.11a1.16 1.16 0 0 0 .36-.23 1.19 1.19 0 0 0 .39-.77l.41-10a1 1 0 0 0 0-.17 2.66 2.66 0 0 0-1.13-2.22c-.8-.62-7.22-5.35-8.3-6.08a6.49 6.49 0 0 0-5.78-.25A17.53 17.53 0 0 0 18.99 5c-.89 1.28-.53 2.59 1.08 3.9s8.4 5.83 9.93 6.67a3.47 3.47 0 0 0 3.9.09l-.19 4.58a1.14 1.14 0 0 0 .32.86.52.52 0 0 0 .11.1l-1.12 28.34h-8.5l-.34-4a1.17 1.17 0 0 0 .62-1.11l-.83-10v-.16a2.63 2.63 0 0 0-1.4-2.06c-.87-.52-7.82-4.42-9-5a6.49 6.49 0 0 0-5.77.49 17.52 17.52 0 0 0-3.46 3.73c-.73 1.39-.2 2.64 1.55 3.74s9.07 4.74 10.69 5.39a3.53 3.53 0 0 0 3.89-.4l.4 4.57a1.2 1.2 0 0 0 .55.92l.35 3.89h-2.9a3 3 0 0 0-3 3v13.89c-8.9 2-14.82 38.66-14.82 46.45v36a15.73 15.73 0 0 0 5.2 11.66l.18.16.53.45c.3.24.6.46.9.67l.31.21c.36.24.73.46 1.1.67h.11a15.74 15.74 0 0 0 5.05 1.73h.06c.37.05.75.1 1.13.13h.32v12.89a3 3 0 0 0 2.93 2.98h44.51a3 3 0 0 0 2.95-3v-12.81a4.84 4.84 0 0 0 4.41-4.7v-4.31a17.93 17.93 0 0 0 4.44-1.83 16.88 16.88 0 0 0 5.69-5.35l.56-.88a6.42 6.42 0 0 0 .37-.68l.16-.33.51-1 .4-1c0-.12.09-.23.13-.35s.19-.48.27-.75l.32-1.11.1-.37a6.54 6.54 0 0 0 .2-.79l.37-1.89-.72-.14h.75l.18-1.76c.07-.69.14-1.41.14-2.1l.08-2.39v-1.59" fill="#ee2f48"/><path d="M84.64 131.22v-.79c0-1.55-.06-3.13-.12-4.65v-.35c0-1.22-.12-2.48-.19-3.69l-.1-1.31c-.2-3.24-.47-6.68-.79-10.22-.14-1.67-.31-3.33-.48-5v-.14c-.17-1.71-.35-3.4-.54-5.08-.33-3.06-.72-6.28-1.19-9.85-.43-3.33-.87-6.43-1.31-9.22l-.13-.82c-.19-1.2-.37-2.33-.59-3.45l-.33-2.07-.51-2.4c0-.24-.1-.47-.16-.69l-.52-1.88v-.07l-.37-1a18.56 18.56 0 0 0-10.29-10l-.6-.22V52.5a3 3 0 0 0-3-3H51.16l1.19-13.35a1.63 1.63 0 0 0 .52-.31 2 2 0 0 0 .7-1.33l.68-7.92a2.12 2.12 0 0 1 .81-1.33l4.68-2.93a3.56 3.56 0 0 0 1.5-2.45l.24-2.7a3.48 3.48 0 0 0-1.06-2.67l-8.75-7.79a5.13 5.13 0 0 0-2.58-1.12l-1.63-.17a3.17 3.17 0 0 0-2.59 1.21l-2.88 3.87a3.48 3.48 0 0 0-.49 2.82l.37 1.23a3.74 3.74 0 0 0 1.93 2.13l8.88 3.74s.09.05.1 0a.36.36 0 0 1-.07.09l-2.35 2.31a4.64 4.64 0 0 0-1.21 2.6l-.77 8.68a2 2 0 0 0 .49 1.42 2.1 2.1 0 0 0 .42.36l-1.26 13.65H35.77l1.15-28.11a1.16 1.16 0 0 0 .36-.23 1.19 1.19 0 0 0 .39-.77l.41-10a1 1 0 0 0 0-.17 2.66 2.66 0 0 0-1.13-2.22c-.8-.62-7.22-5.35-8.3-6.08a6.49 6.49 0 0 0-5.78-.25A17.53 17.53 0 0 0 18.99 5c-.89 1.28-.53 2.59 1.08 3.9s8.4 5.83 9.93 6.67a3.47 3.47 0 0 0 3.9.09h0l-.19 4.58a1.14 1.14 0 0 0 .32.86.52.52 0 0 0 .11.1l-1.12 28.34h-8.5l-.34-4a1.17 1.17 0 0 0 .62-1.11l-.83-10v-.16a2.63 2.63 0 0 0-1.4-2.06c-.87-.52-7.82-4.42-9-5a6.49 6.49 0 0 0-5.77.49 17.52 17.52 0 0 0-3.46 3.73c-.73 1.39-.2 2.64 1.55 3.74s9.07 4.74 10.69 5.39a3.53 3.53 0 0 0 3.89-.4h0l.4 4.57a1.2 1.2 0 0 0 .55.92l.35 3.89h-2.9a3 3 0 0 0-3 3v13.89c-8.9 2-14.82 38.66-14.82 46.45v36a15.73 15.73 0 0 0 5.2 11.66h0l.18.16.53.45c.3.24.6.46.9.67l.31.21c.36.24.73.46 1.1.67h.11a15.74 15.74 0 0 0 5.05 1.73h.06c.37.05.75.1 1.13.13h.32v12.89a3 3 0 0 0 2.93 2.98h44.51a3 3 0 0 0 2.95-3v-12.81a4.84 4.84 0 0 0 4.41-4.7v-4.31a17.93 17.93 0 0 0 4.44-1.83 16.88 16.88 0 0 0 5.69-5.35l.56-.88a6.42 6.42 0 0 0 .37-.68l.16-.33.51-1 .4-1c0-.12.09-.23.13-.35s.19-.48.27-.75l.32-1.11.1-.37a6.54 6.54 0 0 0 .2-.79l.37-1.89-.72-.14h.75l.18-1.76c.07-.69.14-1.41.14-2.1l.08-2.39c-.03-.61-.04-1.14-.05-1.67z" stroke="#d4d8d8" stroke-miterlimit="10" stroke-width="2.26" fill="none"/><path d="M84.64 131.22v-.79c0-1.55-.06-3.13-.12-4.65v-.35c0-1.22-.12-2.48-.19-3.69l-.1-1.31c-.2-3.24-.47-6.68-.79-10.22-.14-1.67-.31-3.33-.48-5v-.14c-.17-1.71-.35-3.4-.54-5.08-.33-3.06-.72-6.28-1.19-9.85-.43-3.33-.87-6.43-1.31-9.22l-.13-.82c-.19-1.2-.37-2.33-.59-3.45l-.33-2.07-.51-2.4c0-.24-.1-.47-.16-.69l-.52-1.88v-.07l-.37-1a18.56 18.56 0 0 0-10.29-10l-.6-.22V52.5a3 3 0 0 0-3-3H51.16l1.19-13.35a1.63 1.63 0 0 0 .52-.31 2 2 0 0 0 .7-1.33l.68-7.92a2.12 2.12 0 0 1 .81-1.33l4.68-2.93a3.56 3.56 0 0 0 1.5-2.45l.24-2.7a3.48 3.48 0 0 0-1.06-2.67l-8.75-7.79a5.13 5.13 0 0 0-2.58-1.12l-1.63-.17a3.17 3.17 0 0 0-2.59 1.21l-2.88 3.87a3.49 3.49 0 0 0-.49 2.83l.37 1.22a3.71 3.71 0 0 0 1.93 2.13l8.88 3.74s.09.05.1 0a.36.36 0 0 1-.07.09l-2.35 2.31a4.64 4.64 0 0 0-1.21 2.6l-.77 8.68a2 2 0 0 0 .49 1.42 2.1 2.1 0 0 0 .42.36l-1.26 13.65H35.77l1.15-28.11a1.16 1.16 0 0 0 .36-.23 1.19 1.19 0 0 0 .39-.77l.41-10a.33.33 0 0 0 0-.17 2.62 2.62 0 0 0-1.12-2.22c-.8-.62-7.22-5.35-8.3-6.07a6.45 6.45 0 0 0-5.79-.26A17.53 17.53 0 0 0 18.99 5c-.89 1.28-.53 2.59 1.08 3.9s8.4 5.83 9.93 6.67a3.49 3.49 0 0 0 3.91.09l-.19 4.58a1.14 1.14 0 0 0 .32.86.52.52 0 0 0 .11.1l-1.13 28.34h-8.5l-.34-4a1.19 1.19 0 0 0 .62-1.11l-.83-10v-.16a2.63 2.63 0 0 0-1.4-2.06c-.87-.52-7.82-4.42-9-5a6.49 6.49 0 0 0-5.77.49 17.52 17.52 0 0 0-3.46 3.73c-.73 1.39-.2 2.64 1.55 3.74s9.07 4.74 10.69 5.39a3.51 3.51 0 0 0 3.88-.4l.41 4.57a1.2 1.2 0 0 0 .55.92l.35 3.89h-2.9a3 3 0 0 0-3 3v13.89c-8.9 2-14.82 38.66-14.82 46.45v36a15.73 15.73 0 0 0 5.2 11.66l.18.16.53.45c.3.24.6.46.9.67l.31.21c.36.24.73.46 1.1.67h.11a15.74 15.74 0 0 0 5.05 1.73h.06c.37.05.75.1 1.13.13h.32v12.89a3 3 0 0 0 2.93 2.98h44.51a3 3 0 0 0 2.95-3v-12.81a4.84 4.84 0 0 0 4.41-4.7v-4.31a17.93 17.93 0 0 0 4.44-1.83 16.88 16.88 0 0 0 5.69-5.35l.56-.88a6.42 6.42 0 0 0 .37-.68l.16-.33.51-1 .4-1c0-.12.09-.23.13-.35s.19-.48.27-.75l.32-1.11.1-.37a6.54 6.54 0 0 0 .2-.79l.37-1.89-.72-.14h.75l.18-1.76c.07-.69.14-1.41.14-2.1l.08-2.39v-1.59M48.51 8.02a1 1 0 0 1 1.36-.06l7.75 7a1 1 0 0 1 .07 1.4 1 1 0 0 1-.74.33 1 1 0 0 1-.67-.26l-7.74-7a1 1 0 0 1-.07-1.41m-4 6.38a1 1 0 0 1-.48-1.33 1 1 0 0 1 1.33-.47l9.46 4.47a1 1 0 0 1-.43 1.9.92.92 0 0 1-.42-.1zM18.18 38.14a1 1 0 0 1-1.33.45l-9.53-4.72a1 1 0 0 1 .88-1.79l9.53 4.72a1 1 0 0 1 .45 1.34m3.07-3.05a1 1 0 0 1-.87.51 1 1 0 0 1-.49-.12l-9.15-5.05a1 1 0 0 1-.38-1.36 1 1 0 0 1 1.35-.38l9.16 5.05a1 1 0 0 1 .39 1.35m10.46-21.58a1 1 0 0 1-.82.43 1 1 0 0 1-.56-.17L21.7 7.86a1.007 1.007 0 1 1 1.17-1.64l8.63 5.91a1 1 0 0 1 .26 1.38m2-2.53l-8.64-5.9a1 1 0 0 1-.26-1.39 1 1 0 0 1 1.32-.26l8.69 5.91a1 1 0 0 1 .26 1.38 1 1 0 0 1-.82.44 1 1 0 0 1-.56-.18M6.11 112.88v45.33a14.19 14.19 0 0 1-3.5-9.34v-36c0-9.8 7-45.06 14.07-45.06h.68c-2.29 3.71-4.49 9.62-6.58 17.62-2.79 10.76-4.67 22.89-4.67 27.45m7.71 0v49.94a14.53 14.53 0 0 1-3.28-1.17v-48.77c0-3.63 1.61-15.1 4.53-26.34 3.07-11.85 6.13-17.4 8-18.72h2c-2.28 3.7-4.5 9.61-6.58 17.61-2.79 10.76-4.62 22.89-4.62 27.45m39.27 4c-4.37 3.21-7.83 6.54-9.75 9.42-6.34 9.49-7.47 32.49-7.64 36.86h-17.5v-50.28c0-3.63 1.61-15.1 4.53-26.34 3.08-11.85 6.13-17.4 8-18.72h8a14.31 14.31 0 0 1 14.31 14.29zm11.73-6.86a20.12 20.12 0 0 0-4.89 2.16 52.9 52.9 0 0 0-5.41 3.59V82.11A15.79 15.79 0 0 0 38.8 66.34H17.42v-5.91h47.45zM17.42 52.5a1.48 1.48 0 0 1 1.45-1.48h44.52a1.47 1.47 0 0 1 1.48 1.48zm62.54 86.76l-.18 1.09a4.43 4.43 0 0 1-.13.55l-.09.36-.23.93a4.56 4.56 0 0 1-.18.52c0 .13-.08.25-.12.35l-.29.84-.39.83-.15.34c-.07.15-.14.3-.22.45l-.46.76a1.77 1.77 0 0 0-.12.17c-.25.39-.5.76-.77 1.11s-.52.61-.79.9c-.07.08-.14.18-.22.26a13 13 0 0 1-2.34 1.87 15.29 15.29 0 0 1-2.54 1.24v-30.4c0-2.44-2.27-6.2-4.4-8.24V65.52c.24.13.49.27.72.42a12.14 12.14 0 0 1 3.1 2.81A11.39 11.39 0 0 1 71.47 71l.28.65.49 1.61a4.94 4.94 0 0 1 .13.52l.5 2.05.42 2c.23 1.07.44 2.17.66 3.34l.15.79c.51 2.72 1 5.76 1.56 9 .56 3.49 1 6.67 1.46 9.71.24 1.65.47 3.32.68 5v.18c.21 1.62.43 3.24.61 4.87.43 3.48.79 6.87 1.08 10.06l.12 1.35c.11 1.18.22 2.4.29 3.58v.28c.11 1.56.21 3 .25 4.53a45.6 45.6 0 0 1-.23 8.76" fill="#d4d8d8"/></g></svg>