<svg id="Слой_1" data-name="Слой 1" xmlns="http://www.w3.org/2000/svg" viewBox="0 0 126.05 138.89"><defs><style>.cls-3{fill:#fff}.cls-4{fill:#0c7c80}</style><clipPath id="clip-path" transform="translate(-5.97)"><path fill="none" d="M0 0h132.02v144.86H0z"/></clipPath></defs><g clip-path="url(#clip-path)"><path class="cls-3" d="M68.09 76.07l10.64-45.62.72-3.07 1-4.16.72-3.09-1.17-.28a60.39 60.39 0 1 0 37 26.06z" transform="translate(-5.97)"/><path class="cls-3" d="M79.75 55.94l-.92 4 1.72.41 2.86-1.79h-.09L109.87 42 132 28.13A60.13 60.13 0 0 0 94 .26L92.74 0 92 3.09l-1 4.16-.72 3.07z" transform="translate(-5.97)"/><path class="cls-4" d="M68.08 76.07l10.64-45.62.72-3.07 1-4.16.72-3.09-1.16-.28a60.39 60.39 0 1 0 37 26.06zm41.08-22.76a49.44 49.44 0 0 1 5.9 35.43L69.33 78.07zM114.53 91a49.54 49.54 0 0 1-21 29.19L68.79 80.38zm-23 30.43a49.48 49.48 0 0 1-35.37 5.77l10.62-45.57zm-25.75-45.9l-24.7-39.67a49.56 49.56 0 0 1 35.33-5.94zm-47.5-9.36a49.56 49.56 0 0 1 20.79-29.05l24.7 39.66zm44.95 12.91l-39.68 24.67a49.51 49.51 0 0 1-5.8-35.28zm14.87-56.4l-1 4.17a52.68 52.68 0 0 0-37.72 6.34l-2.3-3.71a57 57 0 0 1 41-6.8m-43 8.05l2.31 3.71a52.68 52.68 0 0 0-22.2 31l-4.29-1a57 57 0 0 1 24.2-33.71m-24.71 36l4.28 1a52.68 52.68 0 0 0 6.21 37.65l-3.71 2.31a56.93 56.93 0 0 1-6.78-41m41.77 67.18a56.9 56.9 0 0 1-33.74-24.21l3.7-2.3a52.69 52.69 0 0 0 31 22.34zM24.8 105.76l39.68-24.67-10.64 45.61a49.59 49.59 0 0 1-29-20.94m29.66 28.71l1-4.16a52.63 52.63 0 0 0 37.75-6.16l2.21 3.56a56.89 56.89 0 0 1-40.93 6.76m42.94-8l-2.2-3.55a52.72 52.72 0 0 0 22.4-31.15l4 .94a56.92 56.92 0 0 1-24.27 33.75m24.78-36.06l-4.05-.94a52.68 52.68 0 0 0-6.29-37.82l3.55-2.2a56.92 56.92 0 0 1 6.79 41" transform="translate(-5.97)"/><path class="cls-4" d="M79.74 55.94l-.93 4 1.72.4 2.86-1.78h-.09L109.86 42 132 28.13A60.13 60.13 0 0 0 93.94.26L92.73 0 92 3.09l-1 4.16-.72 3.07zM94.37 3.63a56.91 56.91 0 0 1 33.73 24.21l-3.7 2.3a52.66 52.66 0 0 0-31-22.34zm-1.69 7.24a49.51 49.51 0 0 1 29 20.94L82 56.48z" transform="translate(-5.97)"/><path class="cls-3" d="M101 68.21a6 6 0 0 0 3.73 2.67 6.24 6.24 0 0 0 1.36.16 6 6 0 0 0 1.36-11.83 6.31 6.31 0 0 0-1.36-.16 6 6 0 0 0-5.09 9.16m1.56-4a3.61 3.61 0 0 1 3.53-2.8 3.81 3.81 0 0 1 .82.09 3.63 3.63 0 0 1-.82 7.16 3.75 3.75 0 0 1-.82-.09 3.63 3.63 0 0 1-2.71-4.36M89 86.06a6.29 6.29 0 1 0 3.92 2.81A6.27 6.27 0 0 0 89 86.06m2.4 7A4 4 0 0 1 86.68 96a3.94 3.94 0 0 1 .9-7.77 3.8 3.8 0 0 1 .89.11 3.94 3.94 0 0 1 2.94 4.72M103.66 97.92a4.54 4.54 0 0 0-5.46 3.39 4.45 4.45 0 0 0 .57 3.43 4.54 4.54 0 1 0 7.71-4.79 4.48 4.48 0 0 0-2.82-2m1.08 4.92a2.16 2.16 0 0 1-2.12 1.68 2.05 2.05 0 0 1-.49-.06 2.14 2.14 0 0 1-1.36-1 2.18 2.18 0 0 1 1.85-3.33 2.14 2.14 0 0 1 .5.06 2.18 2.18 0 0 1 1.35 1 2.13 2.13 0 0 1 .27 1.65M39.11 101.55a6 6 0 0 0-1.33-.15 5.8 5.8 0 0 0-5.68 4.51 5.84 5.84 0 0 0 4.35 7 5.5 5.5 0 0 0 1.33.16 5.81 5.81 0 0 0 5.68-4.51 5.84 5.84 0 0 0-4.35-7m2 6.47a3.46 3.46 0 0 1-3.38 2.68 3.55 3.55 0 0 1-.79-.09 3.47 3.47 0 0 1 .79-6.85 3.55 3.55 0 0 1 .79.09 3.47 3.47 0 0 1 2.64 4.14M35.06 56.42a6.33 6.33 0 0 0 1.37.16 6 6 0 0 0 1.38-11.93 5.91 5.91 0 0 0-1.38-.16 6 6 0 0 0-1.37 11.93m-2.21-6.72a3.66 3.66 0 0 1 3.58-2.84 4 4 0 0 1 .84.09 3.68 3.68 0 0 1-.84 7.26 3.31 3.31 0 0 1-.83-.1 3.68 3.68 0 0 1-2.75-4.41M45.51 78.6a5.13 5.13 0 0 0-3.24-2.32 5.28 5.28 0 0 0-1.18-.14 5.21 5.21 0 0 0-1.19 10.29 4.78 4.78 0 0 0 1.19.14 5.21 5.21 0 0 0 4.42-8M43.86 82a2.82 2.82 0 0 1-3.42 2.13 2.8 2.8 0 0 1-1.77-1.27 2.84 2.84 0 0 1 2.42-4.35 2.73 2.73 0 0 1 .64.07A2.84 2.84 0 0 1 43.86 82M75 104.76a5.73 5.73 0 0 0-4.28-6.88 5.69 5.69 0 0 0-6.89 4.28 5.75 5.75 0 0 0 4.26 6.84 5.79 5.79 0 0 0 1.31.15 5.71 5.71 0 0 0 5.6-4.39m-6.35 2a3.37 3.37 0 0 1-2.09-1.5 3.37 3.37 0 1 1 2.09 1.5M51.78 97a4.29 4.29 0 0 0-.94-.1 4.16 4.16 0 0 0-4 3.19 4.09 4.09 0 0 0 .51 3.11 4.13 4.13 0 0 0 2.55 1.8 4.23 4.23 0 0 0 .94.1 4.11 4.11 0 0 0 4-3.19 4.15 4.15 0 0 0-3.08-5m.78 4.42a1.77 1.77 0 1 1-1.72-2.16 1.83 1.83 0 0 1 .4 0 1.76 1.76 0 0 1 1.32 2.11M32.46 93.66a2 2 0 0 0 .62-.84 2 2 0 0 0-.08-1.57c0-.08-.95-2-.95-2l.12-.06h.2a2.33 2.33 0 0 0 1-3.07.56.56 0 0 0 0-.08.33.33 0 0 0-.06-.1.54.54 0 0 0-.09-.12 6.43 6.43 0 0 0-11.59 5.37 1.41 1.41 0 0 0 .11.47 2.32 2.32 0 0 0 1.58 1.26 1.86 1.86 0 0 0 .42 0 3.15 3.15 0 0 0 .59-.07 1.28 1.28 0 0 0 .56-.13l.2-.09.94 2a1.24 1.24 0 0 0 .38.45 1.94 1.94 0 0 0 .84.6l.22.07a1.61 1.61 0 0 0 .39 0 2.79 2.79 0 0 0 .47 0 1.24 1.24 0 0 0 .5-.1L32 94a1.08 1.08 0 0 0 .42-.36M31.18 87l-.44.23a1 1 0 0 0-.28.23 2 2 0 0 0-.77 1.93 1.14 1.14 0 0 0 .1.57l1 2.05-2.67 1.28-.94-2a1.24 1.24 0 0 0-.37-.43 2 2 0 0 0-1.53-.7 1.69 1.69 0 0 0-.33 0h-.09a1 1 0 0 0-.53.12l-.28.14.18.59-.25-.57A4.07 4.07 0 0 1 27.7 85a4.11 4.11 0 0 1 3.53 2h-.05M95.24 72a1.06 1.06 0 0 0-.45-.16l-1.42-.17a1.43 1.43 0 0 0 0-.38A2 2 0 0 0 92 69.73h-.26a1 1 0 0 0-.25 0h-.26a5.1 5.1 0 0 0-1.16 10.06h.5a1.27 1.27 0 0 0 .28 0 2 2 0 0 0 1.6-1.17 1.17 1.17 0 0 0 .2-.44l1.39.16h.13a1.24 1.24 0 0 0 .37-.06 1.93 1.93 0 0 0 .85-.34 1.78 1.78 0 0 0 .55-.82 1.26 1.26 0 0 0 .15-.45l.29-2.6V74a1.81 1.81 0 0 0-1.14-2m-1.45 3.81l-1.28-.15h-.29a1.85 1.85 0 0 0-1.15.4 1.75 1.75 0 0 0-.54.77 1.19 1.19 0 0 0-.15.46A2.74 2.74 0 0 1 91 72a1.29 1.29 0 0 0 .06.47 1.72 1.72 0 0 0 .34.86 1.82 1.82 0 0 0 1 .65h.16l1.4.17zM54 111.54L52 110a1.3 1.3 0 0 0-.56-.21 1.81 1.81 0 0 0-.58-.1h-.22a1.65 1.65 0 0 0-.78.33 1.18 1.18 0 0 0-.46.34l-.78 1a1 1 0 0 0-.33-.14 1.92 1.92 0 0 0-.75-.14 2 2 0 0 0-1.13.36 1.25 1.25 0 0 0-.49.4 5 5 0 0 0 3 7.58 5.2 5.2 0 0 0 1.12.13 5 5 0 0 0 3.72-1.69 1 1 0 0 0 .18-.27.72.72 0 0 0 .09-.2 1.9 1.9 0 0 0-.22-1.91 1 1 0 0 0-.24-.35l.77-1a1.06 1.06 0 0 0 .2-.43 1.76 1.76 0 0 0-.24-1.7 1.16 1.16 0 0 0-.35-.47m-3 3.95a1.72 1.72 0 0 0 .38.83 1 1 0 0 0 .27.31 2.56 2.56 0 0 1-1.66.6 2.58 2.58 0 0 1-2.36-3.62 1.1 1.1 0 0 0 .42.2h.35a1.53 1.53 0 0 0 .3 0 1.82 1.82 0 0 0 1.19-.45 1.6 1.6 0 0 0 .27-.25l.77-1 1.18.89-.78 1.05a1.39 1.39 0 0 0-.18.37 1.73 1.73 0 0 0-.16 1M76.16 112.35a6.81 6.81 0 0 0-3.38.9.62.62 0 0 0-.36.14 2.36 2.36 0 0 0-.79 2.87 1.23 1.23 0 0 0 .18.46l.24.33-2 1.43a1.16 1.16 0 0 0-.36.46 2.09 2.09 0 0 0-.48 1 2.06 2.06 0 0 0 .11 1 1.12 1.12 0 0 0 .2.59l2.24 3.12a1.07 1.07 0 0 0 .48.37 2.12 2.12 0 0 0 .78.39h.14a1.33 1.33 0 0 0 .28 0 2.5 2.5 0 0 0 .72-.13 1.1 1.1 0 0 0 .57-.19l2.06-1.44.21.35a1.16 1.16 0 0 0 .39.33 2.25 2.25 0 0 0 1 .56 2.59 2.59 0 0 0 .55.07 2.44 2.44 0 0 0 1.4-.46.57.57 0 0 0 .13-.08 6.8 6.8 0 0 0-4.33-12.05m4.41 7.26a4.44 4.44 0 0 1-1.55 2.91h-.06l-.08-.07-.28-.39a1.25 1.25 0 0 0-.4-.35 2 2 0 0 0-1-.49 1.23 1.23 0 0 0-.27 0 2.17 2.17 0 0 0-.85.18 1.28 1.28 0 0 0-.47.18l-2 1.37h-.07l-.09-.06-1.83-2.57v-.1l1.93-1.4a1.17 1.17 0 0 0 .34-.39 2 2 0 0 0 .49-1 2 2 0 0 0-.16-1.12 1 1 0 0 0-.19-.47l-.18-.26-.07-.16a.3.3 0 0 0 0-.08 4.45 4.45 0 0 1 5.79 1 4.42 4.42 0 0 1 1 3.26M71.2 37.89a6.28 6.28 0 1 0-6.14 4.88 6.25 6.25 0 0 0 6.14-4.88m-7 2.41a3.94 3.94 0 0 1 1.8-7.67 3.88 3.88 0 0 1 2.44 1.76 3.92 3.92 0 0 1-3.34 6 3.8 3.8 0 0 1-.89-.1M59 47.54a4.54 4.54 0 1 0-2 8.85 4.46 4.46 0 0 0 1 .12 4.55 4.55 0 0 0 1-9m1.09 4.92A2.17 2.17 0 0 1 58 54.14a2.14 2.14 0 0 1-.5-.06 2.18 2.18 0 0 1 .5-4.3 2.05 2.05 0 0 1 .49.06 2.19 2.19 0 0 1 1.63 2.62M28.22 66.72a4.31 4.31 0 0 0 .94.11 4.13 4.13 0 0 0 .94-8.15 4.24 4.24 0 0 0-.94-.11 4.13 4.13 0 0 0-.94 8.15m-.78-4.42a1.76 1.76 0 0 1 3.22-.53 1.74 1.74 0 0 1 .22 1.33 1.75 1.75 0 0 1-1.72 1.37 1.83 1.83 0 0 1-.4 0 1.77 1.77 0 0 1-1.1-.79 1.82 1.82 0 0 1-.22-1.33M110 74.07a4.86 4.86 0 0 0-1.14-.13 5 5 0 0 0-1.13 9.88 4.78 4.78 0 0 0 1.13.13 5 5 0 0 0 1.14-9.88m1.44 5.48a2.63 2.63 0 0 1-2.58 2 3.07 3.07 0 0 1-.6-.07 2.65 2.65 0 0 1 .6-5.22 3.07 3.07 0 0 1 .6.07 2.66 2.66 0 0 1 2 3.18M42.09 61.85a2.17 2.17 0 0 0 .42 3 .4.4 0 0 0 .12.1l-1 1.44a1.15 1.15 0 0 0-.2.45 1.93 1.93 0 0 0 .33 1.94 1.07 1.07 0 0 0 .32.35l2.41 1.74h.11a1.69 1.69 0 0 0 .67.3 1.92 1.92 0 0 0 1.78-.5 1.15 1.15 0 0 0 .27-.27l1-1.37a.39.39 0 0 0 .1.08 2 2 0 0 0 .71.31 2.42 2.42 0 0 0 .47.05 2.21 2.21 0 0 0 1.52-.63 1.28 1.28 0 0 0 .26-.26l.16-.27a1.23 1.23 0 0 0 .12-.41 5.64 5.64 0 0 0-5-8.15 5.76 5.76 0 0 0-4.08 1.72 1.36 1.36 0 0 0-.4.34m2.61 1.8a1.14 1.14 0 0 0-.32-.37l-.18-.14a3.33 3.33 0 0 1 2.36-1 3.3 3.3 0 0 1 2.83 4.9h-.06a.69.69 0 0 0-.13-.11 1.85 1.85 0 0 0-1-.32A2.06 2.06 0 0 0 47 67a1.42 1.42 0 0 0-.36.33l-1 1.41-1.84-1.33 1-1.44a1.15 1.15 0 0 0 .2-.45 1.91 1.91 0 0 0-.28-1.87M113.61 26.36a5.19 5.19 0 0 0-3.25-2.36 5.28 5.28 0 0 0-1.18-.14A5.22 5.22 0 0 0 108 34.19a5.3 5.3 0 0 0 1.19.14 5.22 5.22 0 0 0 4.43-8M112 29.76a2.87 2.87 0 0 1-3.42 2.13 2.85 2.85 0 1 1 1.3-5.55 2.84 2.84 0 0 1 2.12 3.42M100.55 41.42a2 2 0 0 0 .55-2.42l-.95-2 .12-.06h.2a2.32 2.32 0 0 0 1-3.07v-.08-.1l-.1-.12a6.51 6.51 0 0 0-5.51-3.08 6.35 6.35 0 0 0-3.07.79 6.44 6.44 0 0 0-3 7.66 1.21 1.21 0 0 0 .12.47 2.34 2.34 0 0 0 1.57 1.27 1.93 1.93 0 0 0 .42 0 2.49 2.49 0 0 0 .59-.07 1.26 1.26 0 0 0 .56-.12l.2-.09.94 2a1.14 1.14 0 0 0 .38.44 2 2 0 0 0 .84.61l.22.07a1.61 1.61 0 0 0 .39 0 2.9 2.9 0 0 0 .47-.05 1.09 1.09 0 0 0 .5-.1l3.23-1.53a1.1 1.1 0 0 0 .42-.36m-1.28-6.67l-.44.24a1.23 1.23 0 0 0-.28.23 2 2 0 0 0-.77 1.93 1.1 1.1 0 0 0 .1.56l1 2.06L96.18 41h-.06l-.94-2a1.26 1.26 0 0 0-.37-.44 2 2 0 0 0-1.53-.69 1.72 1.72 0 0 0-.33 0h-.09a1.09 1.09 0 0 0-.53.12l-.28.15.18.58-.23-.52a4.07 4.07 0 0 1 3.81-5.49 4.12 4.12 0 0 1 3.54 2h-.06M96.18 25.86a4.46 4.46 0 0 0 1 .12 4.54 4.54 0 0 0 1-9 5.07 5.07 0 0 0-1-.11 4.54 4.54 0 0 0-1 9m-1.09-4.92a2.16 2.16 0 0 1 2.12-1.68 2.18 2.18 0 0 1 2.12 2.67 2.17 2.17 0 0 1-2.12 1.69 2.05 2.05 0 0 1-.49-.06 2.17 2.17 0 0 1-1.63-2.62" transform="translate(-5.97)"/><path class="cls-4" d="M106.12 70.43a5.57 5.57 0 0 1-1.22-.14 5.39 5.39 0 0 1 1.22-10.63 5.57 5.57 0 0 1 1.22.14 5.39 5.39 0 0 1-1.22 10.63zm0-9.62a4.24 4.24 0 0 0-1 8.36 4.42 4.42 0 0 0 1 .11 4.24 4.24 0 0 0 1-8.36 4.49 4.49 0 0 0-1-.11M87.58 97.89a5.69 5.69 0 1 1 0-11.38 5.6 5.6 0 0 1 1.29.14 5.69 5.69 0 0 1-1.29 11.24zm0-10.23a4.54 4.54 0 0 0-1 9 4.46 4.46 0 0 0 1 .12 4.54 4.54 0 0 0 0-9.08M102.62 106.28a3.8 3.8 0 0 1-.89-.1 3.94 3.94 0 0 1 1.79-7.67 3.88 3.88 0 0 1 2.44 1.76 3.92 3.92 0 0 1-3.34 6m0-6.72a2.78 2.78 0 0 0-.63 5.49 2.72 2.72 0 0 0 .63.08 2.79 2.79 0 0 0 .63-5.5 2.65 2.65 0 0 0-.63-.07M37.78 112.46a4.78 4.78 0 0 1-1.19-.14A5.23 5.23 0 0 1 37.78 102a5.3 5.3 0 0 1 1.19.14 5.23 5.23 0 0 1-1.19 10.32m0-9.3a4 4 0 0 0-4 3.15 4 4 0 0 0 .51 3.07 4 4 0 0 0 2.53 1.82 4.22 4.22 0 0 0 .93.11 4.08 4.08 0 0 0 .93-8 4.2 4.2 0 0 0-.93-.1M36.43 56a5.73 5.73 0 0 1-1.23-.14 5.44 5.44 0 0 1 1.23-10.76 5.18 5.18 0 0 1 1.24.14A5.44 5.44 0 0 1 36.44 56zm0-9.72a4.27 4.27 0 0 0-4.17 3.31 4.29 4.29 0 0 0 3.2 5.14 4 4 0 0 0 1 .12 4.29 4.29 0 0 0 1-8.46 4.6 4.6 0 0 0-1-.11M41.09 86a4.7 4.7 0 0 1-1.09-.16 4.61 4.61 0 0 1 1.05-9.09 4.55 4.55 0 0 1 1 .12 4.61 4.61 0 0 1-1 9.09m0-8.06a3.45 3.45 0 1 0 .78.09 3.45 3.45 0 0 0-.78-.09M69.4 108.58a5.11 5.11 0 0 1-5-6.29 5.12 5.12 0 0 1 5-4 5 5 0 0 1 1.16.14 5.12 5.12 0 0 1-1.16 10.11m0-9.1a4 4 0 0 0-3.87 3.08 4 4 0 0 0 3 4.77 4 4 0 1 0 .91-7.85M50.84 104.54a3.08 3.08 0 0 1-.8-.1 3.52 3.52 0 0 1 .8-7 3.63 3.63 0 0 1 .8.09 3.53 3.53 0 0 1-.8 7m0-5.9a2.37 2.37 0 0 0-.54 4.68 2.5 2.5 0 0 0 .54.07 2.37 2.37 0 0 0 .54-4.68 2 2 0 0 0-.54-.07M27.84 95.1a1 1 0 0 1-.25 0h-.16a1.39 1.39 0 0 1-.58-.43l-.1-.09a.64.64 0 0 1-.19-.22l-.94-2a.42.42 0 0 0-.09-.14l-.09-.08a.62.62 0 0 0-.38-.14.73.73 0 0 0-.29.07l-.19.11a.63.63 0 0 1-.28.05h-.12a2 2 0 0 1-.46.06 1.36 1.36 0 0 1-.29 0 1.73 1.73 0 0 1-1.16-.93.59.59 0 0 1-.05-.23.47.47 0 0 0 0-.17 5.81 5.81 0 0 1 5.5-7.66 5.9 5.9 0 0 1 5 2.8l.08.1v.16a1.69 1.69 0 0 1-.78 2.23h-.2l-.12.07a.58.58 0 0 0-.31.39.66.66 0 0 0 0 .28.33.33 0 0 0 0 .13l.95 2a1.42 1.42 0 0 1 0 1.09 1.44 1.44 0 0 1-.44.59.38.38 0 0 0-.09.09.69.69 0 0 1-.2.19L28.55 95a.52.52 0 0 1-.24 0h-.12a2.5 2.5 0 0 1-.35 0m-.21-1.37a.59.59 0 0 0 .41.16h.1a.7.7 0 0 0 .19-.06L31 92.56a.6.6 0 0 0 .29-.81l-1-2a.48.48 0 0 1 0-.28.62.62 0 0 0 0-.13 1.43 1.43 0 0 1 .54-1.35h.06l.13-.12.44-.24a.57.57 0 0 0 .35-.36.58.58 0 0 0 0-.5 4.72 4.72 0 0 0-4.06-2.33 4.69 4.69 0 0 0-4.38 6.32.63.63 0 0 0 .32.34.54.54 0 0 0 .25.06L24 91H24.21l.27-.15a.55.55 0 0 1 .25 0h.17a1.06 1.06 0 0 1 .25 0 1.4 1.4 0 0 1 1.07.49l.09.08a.59.59 0 0 1 .19.21l.94 2a.44.44 0 0 0 .12.15M90.42 79.11h-.21a4.49 4.49 0 0 1 1-8.87H91.84a1.36 1.36 0 0 1 .87 1.09.29.29 0 0 0 0 .09.52.52 0 0 1 0 .19.63.63 0 0 0 .54.62l1.42.16a.65.65 0 0 1 .22.08h.07a1.2 1.2 0 0 1 .77 1.26v.07l-.29 2.6a.74.74 0 0 1-.07.21v.1a1 1 0 0 1-.93.77h-.27l-1.4-.16h-.07a.61.61 0 0 0-.59.48.58.58 0 0 1-.1.21.75.75 0 0 0-.07.12 1.34 1.34 0 0 1-1.1.8h-.37m.51-7.75a3.34 3.34 0 0 0-.74 6.5.63.63 0 0 0 .19 0 .66.66 0 0 0 .33-.09.61.61 0 0 0 .27-.45.65.65 0 0 1 .08-.22v-.08a1.23 1.23 0 0 1 .36-.52 1.26 1.26 0 0 1 .77-.26h.22l1.28.15h.07a.59.59 0 0 0 .6-.54l.19-1.68a.61.61 0 0 0-.53-.67l-1.36-.17h-.13a1.24 1.24 0 0 1-.7-.44 1.2 1.2 0 0 1-.22-.57v-.09a.47.47 0 0 1 0-.23.63.63 0 0 0-.17-.49.64.64 0 0 0-.43-.18H91M50 119a4.6 4.6 0 0 1-1-.11 4.44 4.44 0 0 1-1.43-.62 4.37 4.37 0 0 1-1.85-2.77 4.27 4.27 0 0 1 .65-3.26.54.54 0 0 1 .24-.19l.1-.05a1.28 1.28 0 0 1 .77-.26 1.55 1.55 0 0 1 .52.1h.11a.59.59 0 0 1 .16.07.61.61 0 0 0 .77-.17l.78-1a.62.62 0 0 1 .23-.16.27.27 0 0 0 .1-.06 1.16 1.16 0 0 1 .51-.22h.13a1.21 1.21 0 0 1 .4.07h.11a.57.57 0 0 1 .27.1l2 1.53a.62.62 0 0 1 .16.23l.06.1a1.16 1.16 0 0 1 .12 1.11v.09a.52.52 0 0 1-.09.2l-.77 1a.61.61 0 0 0 0 .79.88.88 0 0 1 .12.17.67.67 0 0 0 .06.12 1.29 1.29 0 0 1 .15 1.31.19.19 0 0 0 0 .08v.06l-.06.13A4.38 4.38 0 0 1 50 119zm-2.36-6a.44.44 0 0 0-.16 0 .63.63 0 0 0-.4.33 3.3 3.3 0 0 0-.21 1.91A3.2 3.2 0 0 0 52 117.1a.58.58 0 0 0 .22-.46.62.62 0 0 0-.22-.47.92.92 0 0 1-.14-.15.43.43 0 0 0 0-.07 1.06 1.06 0 0 1-.26-.55 1.11 1.11 0 0 1 .12-.63.64.64 0 0 0 0-.07.71.71 0 0 1 .08-.19l.79-1a.62.62 0 0 0-.12-.85l-1.19-.89a.55.55 0 0 0-.36-.13.6.6 0 0 0-.48.24l-.78 1a.68.68 0 0 1-.12.12h-.06a1.21 1.21 0 0 1-.79.3h-.52a.53.53 0 0 1-.2-.1.64.64 0 0 0-.36-.11M73.46 124.82h-.29a1.52 1.52 0 0 1-.54-.27l-.12-.07a.67.67 0 0 1-.24-.17L70 121.14a.49.49 0 0 1-.09-.28.35.35 0 0 0 0-.14 1.52 1.52 0 0 1-.08-.71 1.51 1.51 0 0 1 .35-.69l.08-.12a.48.48 0 0 1 .17-.23l2-1.43a.59.59 0 0 0 .24-.61.72.72 0 0 0-.1-.24l-.23-.32a.79.79 0 0 1-.09-.23.56.56 0 0 0 0-.12 1.78 1.78 0 0 1 .59-2.14.13.13 0 0 1 .08 0 .63.63 0 0 0 .23-.08 6.27 6.27 0 0 1 3.08-.81 6.19 6.19 0 0 1 3.94 11L80 124a1.75 1.75 0 0 1-1 .34 1.92 1.92 0 0 1-.41 0 1.66 1.66 0 0 1-.74-.42l-.11-.07a.77.77 0 0 1-.19-.16l-.21-.31a.62.62 0 0 0-.5-.25.39.39 0 0 0-.15 0 .47.47 0 0 0-.15.06l-2 1.43a.55.55 0 0 1-.28.08h-.14a1.58 1.58 0 0 1-.53.1m-.26-1.34a.63.63 0 0 0 .37.12h.3a.35.35 0 0 0 .15-.07l1.85-1.4a.69.69 0 0 1 .23-.09.27.27 0 0 0 .12 0 1.71 1.71 0 0 1 .62-.14h.17a1.38 1.38 0 0 1 .7.36l.1.06a.69.69 0 0 1 .2.17l.27.39.11.1a.6.6 0 0 0 .44.19.57.57 0 0 0 .25-.06h.08l.1-.06a5 5 0 0 0-3.24-8.92 5.17 5.17 0 0 0-2.65.74.63.63 0 0 0-.19.86.33.33 0 0 1 0 .06.53.53 0 0 0 .08.17l.2.28a.61.61 0 0 1 .09.23.53.53 0 0 0 0 .12 1.46 1.46 0 0 1 .12.79 1.48 1.48 0 0 1-.35.7.36.36 0 0 0-.07.1.62.62 0 0 1-.16.19l-1.94 1.39a1.14 1.14 0 0 0-.11.11.52.52 0 0 0-.07.11.56.56 0 0 0-.09.53.7.7 0 0 0 0 .14 1 1 0 0 0 .08.14l1.91 2.52a.43.43 0 0 0 .11.12l.1.07M65.06 42.16a5.61 5.61 0 0 1-1.29-.16 5.69 5.69 0 0 1 1.29-11.24 5.76 5.76 0 0 1 1.3.15 5.69 5.69 0 0 1-1.3 11.24zm0-10.24a4.56 4.56 0 1 0 1 .12 4.46 4.46 0 0 0-1-.12M58 55.9a4.59 4.59 0 0 1-.9-.1A3.94 3.94 0 0 1 58 48a3.8 3.8 0 0 1 .89.1 3.94 3.94 0 0 1-.89 7.8m0-6.72a2.78 2.78 0 0 0-.63 5.49 2.65 2.65 0 0 0 .63.08 2.79 2.79 0 0 0 .63-5.5 2.7 2.7 0 0 0-.63-.07M29.16 66.22a3.7 3.7 0 0 1-.8-.09 3.52 3.52 0 0 1 .8-6.95 3.57 3.57 0 0 1 .8.09 3.52 3.52 0 0 1-.8 6.95zm0-5.89a2.37 2.37 0 0 0-2.31 1.83A2.39 2.39 0 0 0 28.62 65a2.48 2.48 0 0 0 .54.06 2.37 2.37 0 0 0 .54-4.68 2.48 2.48 0 0 0-.54-.06M108.82 83.35a4.27 4.27 0 0 1-1-.12 4.4 4.4 0 0 1 1-8.69 4.21 4.21 0 0 1 1 .12 4.4 4.4 0 0 1-1 8.69m0-7.65a3.25 3.25 0 0 0-.74 6.41 3.11 3.11 0 0 0 .74.08 3.25 3.25 0 0 0 .74-6.41 3.05 3.05 0 0 0-.74-.08M45.65 70.65a1.33 1.33 0 0 1-.28 0 1.46 1.46 0 0 1-.46-.2l-.11-.08-2.4-1.73a.5.5 0 0 1-.15-.17l-.06-.08A1.3 1.3 0 0 1 42 67v-.09a.4.4 0 0 1 .09-.22l1-1.44a.6.6 0 0 0-.13-.84l-.07-.06a1.56 1.56 0 0 1-.3-2.14.52.52 0 0 1 .19-.16l.14-.11a5.14 5.14 0 0 1 3.65-1.54 5 5 0 0 1 2.71.79 5.07 5.07 0 0 1 1.79 6.49.41.41 0 0 0 0 .19.52.52 0 0 1-.06.2l-.12.2a.46.46 0 0 1-.12.12l-.06.06a1.59 1.59 0 0 1-1.1.45 1.87 1.87 0 0 1-.34 0 1.73 1.73 0 0 1-.5-.22l-.08-.07a.59.59 0 0 0-.37-.13h-.09a.58.58 0 0 0-.4.24l-1 1.39a.4.4 0 0 1-.13.13h-.06a1.34 1.34 0 0 1-.94.38zm.91-9.1a4 4 0 0 0-2.8 1.16.64.64 0 0 0-.17.47.58.58 0 0 0 .24.44l.19.15a.45.45 0 0 1 .15.18v.07a1.31 1.31 0 0 1 .19 1.29v.1a.4.4 0 0 1-.09.21l-1 1.44a.6.6 0 0 0-.1.45.6.6 0 0 0 .24.4l1.84 1.32a.6.6 0 0 0 .36.12h.1a.57.57 0 0 0 .39-.25l1-1.41a.5.5 0 0 1 .17-.15l.08-.06a1.4 1.4 0 0 1 .9-.34 1.29 1.29 0 0 1 .71.22l.07.08a.41.41 0 0 0 .11.07.62.62 0 0 0 .32.09.51.51 0 0 0 .17 0 .57.57 0 0 0 .37-.29 3.89 3.89 0 0 0-3.44-5.72M109.18 33.72a4.7 4.7 0 0 1-1.05-.12 4.61 4.61 0 0 1 1.05-9.1 4.7 4.7 0 0 1 1 .12 4.61 4.61 0 0 1-1 9.1m0-8.07a3.46 3.46 0 0 0-3.37 2.67 3.46 3.46 0 0 0 2.58 4.16 3.55 3.55 0 0 0 .79.09 3.46 3.46 0 0 0 .78-6.83 4.05 4.05 0 0 0-.78-.09M95.93 42.85h-.4a1.31 1.31 0 0 1-.59-.44.39.39 0 0 0-.1-.08.64.64 0 0 1-.19-.22l-.94-2a.42.42 0 0 0-.09-.14l-.09-.09a.58.58 0 0 0-.38-.13.55.55 0 0 0-.28.07l-.2.1a.61.61 0 0 1-.28.06h-.11a2.16 2.16 0 0 1-.47.06.82.82 0 0 1-.28 0A1.67 1.67 0 0 1 90.36 39a.54.54 0 0 1 0-.22.47.47 0 0 0 0-.17A5.85 5.85 0 0 1 93 31.67a5.79 5.79 0 0 1 2.78-.67 5.93 5.93 0 0 1 5 2.8l.08.11v.2a1.71 1.71 0 0 1-.79 2.24h-.2l-.12.06a.63.63 0 0 0-.31.39.71.71 0 0 0 0 .29.65.65 0 0 0 0 .13l1 2a1.49 1.49 0 0 1 0 1.1 1.42 1.42 0 0 1-.44.59.76.76 0 0 0-.09.09.54.54 0 0 1-.2.18l-3.22 1.53a.54.54 0 0 1-.24.05h-.48m-.2-1.36a.6.6 0 0 0 .41.16h.09a.6.6 0 0 0 .19-.06l2.69-1.27a.62.62 0 0 0 .29-.81l-1-2.06a.53.53 0 0 1 0-.27.57.57 0 0 0 0-.13 1.42 1.42 0 0 1 .54-1.35l.06-.06a.58.58 0 0 1 .13-.11l.45-.24a.63.63 0 0 0 .34-.36.61.61 0 0 0-.05-.51 4.72 4.72 0 0 0-4.06-2.32 4.69 4.69 0 0 0-4.38 6.31.61.61 0 0 0 .32.35.74.74 0 0 0 .25.05.39.39 0 0 0 .15 0h.1l.11-.05.28-.14a.51.51 0 0 1 .24 0h.53a1.42 1.42 0 0 1 1.07.49.38.38 0 0 0 .09.09.52.52 0 0 1 .19.21l.94 2v.05a.61.61 0 0 0 .13.15M97.21 25.38a3.8 3.8 0 0 1-.89-.11 3.94 3.94 0 0 1 .89-7.77 3.8 3.8 0 0 1 .89.11 3.94 3.94 0 0 1-.89 7.77m0-6.73a2.77 2.77 0 0 0-2.71 2.16 2.79 2.79 0 0 0 2.08 3.34 2.65 2.65 0 0 0 .63.07 2.76 2.76 0 0 0 2.71-2.15 2.81 2.81 0 0 0-2.71-3.42" transform="translate(-5.97)"/></g></svg>