<svg id="Слой_1" data-name="Слой 1" xmlns="http://www.w3.org/2000/svg" viewBox="0 0 200.72 84.65"><defs><style>.cls-6{fill:none}.cls-3{fill:#3d5064}.cls-4{clip-path:url(#clip-path)}.cls-6{stroke:#fff;stroke-miterlimit:10;stroke-width:.94px}</style><clipPath id="clip-path" transform="translate(-897.88 -6425.92)"><path fill="none" d="M896.94 6420.76h202.59v90.75H896.94z"/></clipPath></defs><path stroke-width="2.34" stroke-linecap="round" stroke-linejoin="round" stroke="#1d2b47" fill="none" d="M15.73 26.85L100.38 3.9l84.65 22.95"/><path class="cls-3" d="M2.34 26.17h196.03v56.14H2.34z"/><path stroke-width="4.69" stroke-linecap="round" stroke-linejoin="round" stroke="#1d2b47" fill="none" d="M2.34 26.17h196.03v56.14H2.34z"/><path class="cls-3" d="M26.07 42.38h9.48v3.15h-3.04l3.5 16.79h.03l4.48-19.94h5.67l4.05 19.94h.04l3.92-16.79h-3.12v-3.15h8.89v3.15h-1.54l-5.21 21.9h-5.81l-4.13-19.91h-.03l-4.69 19.91h-5.84l-4.97-21.9h-1.68v-3.15z"/><path class="cls-6" d="M26.07 42.38h9.48v3.15h-3.04l3.5 16.79h.03l4.48-19.94h5.67l4.05 19.94h.04l3.92-16.79h-3.12v-3.15h8.89v3.15h-1.54l-5.21 21.9h-5.81l-4.13-19.91h-.03l-4.69 19.91h-5.84l-4.97-21.9h-1.68v-3.15z"/><g class="cls-4"><path class="cls-3" d="M961.19 6485c0 2.66 1.08 5.74 4.27 5.74a3.45 3.45 0 0 0 3.46-3h4.44c-.31 4.1-4.37 6.09-8.15 6.09a10.59 10.59 0 0 1-3.88-.87 6.83 6.83 0 0 1-2.84-2.35 10.86 10.86 0 0 1-2-6.68c0-5.11 2.91-9.59 8.54-9.59a8.64 8.64 0 0 1 6.54 2.49c1.51 1.61 2 4.23 2.07 6.33a8.71 8.71 0 0 1 0 1.61v.28zm7.73-2.69c0-2.1-.88-5.11-3.53-5.11-2.94 0-3.89 2.66-4.1 5.11z" transform="translate(-897.88 -6425.92)"/><path class="cls-6" d="M961.19 6485c0 2.66 1.08 5.74 4.27 5.74a3.45 3.45 0 0 0 3.46-3h4.44c-.31 4.1-4.37 6.09-8.15 6.09a10.59 10.59 0 0 1-3.88-.87 6.83 6.83 0 0 1-2.84-2.35 10.86 10.86 0 0 1-2-6.68c0-5.11 2.91-9.59 8.54-9.59a8.64 8.64 0 0 1 6.54 2.49c1.51 1.61 2 4.23 2.07 6.33a8.71 8.71 0 0 1 0 1.61v.28zm7.73-2.69c0-2.1-.88-5.11-3.53-5.11-2.94 0-3.89 2.66-4.1 5.11z" transform="translate(-897.88 -6425.92)"/><path class="cls-3" d="M77.24 67.43v-2.98h2.38V44.93h-2.38v-2.97h7.03v22.49h2.24v2.98h-9.27z"/><path class="cls-6" d="M77.24 67.43v-2.98h2.38V44.93h-2.38v-2.97h7.03v22.49h2.24v2.98h-9.27z"/><path class="cls-3" d="M998.21 6481.74c-.07-2.17-1-4.31-3.5-4.31-3.7 0-4.16 4.2-4.16 7s1 6.27 4.23 6.27c2 0 3.15-1.79 3.33-3.61h4c-.21 4.55-3.43 6.65-7.76 6.65-6 0-8.75-4.44-8.75-10a11.5 11.5 0 0 1 2.13-6.89 6.57 6.57 0 0 1 5.57-2.63c2.2 0 4.12.46 5.14 2.63v-2.17h3.56v7z" transform="translate(-897.88 -6425.92)"/><path class="cls-6" d="M998.21 6481.74c-.07-2.17-1-4.31-3.5-4.31-3.7 0-4.16 4.2-4.16 7s1 6.27 4.23 6.27c2 0 3.15-1.79 3.33-3.61h4c-.21 4.55-3.43 6.65-7.76 6.65-6 0-8.75-4.44-8.75-10a11.5 11.5 0 0 1 2.13-6.89 6.57 6.57 0 0 1 5.57-2.63c2.2 0 4.12.46 5.14 2.63v-2.17h3.56v7z" transform="translate(-897.88 -6425.92)"/><path class="cls-3" d="M1005.79 6490.69a10.74 10.74 0 0 1-2.14-6.79 9.74 9.74 0 0 1 2.45-7 9 9 0 0 1 6.51-2.66c6 0 9.2 4.17 9.2 9.8 0 5.39-3.32 9.69-9.06 9.69a9.28 9.28 0 0 1-7-3.08m2.73-6.68a8.93 8.93 0 0 0 .87 4.34 3.64 3.64 0 0 0 6.89-.28 11.05 11.05 0 0 0 .67-4.13 9 9 0 0 0-.84-4.27 3.82 3.82 0 0 0-3.36-2.31c-3.36 0-4.23 4.06-4.23 6.65" transform="translate(-897.88 -6425.92)"/><path class="cls-6" d="M1005.79 6490.69a10.74 10.74 0 0 1-2.14-6.79 9.74 9.74 0 0 1 2.45-7 9 9 0 0 1 6.51-2.66c6 0 9.2 4.17 9.2 9.8 0 5.39-3.32 9.69-9.06 9.69a9.28 9.28 0 0 1-6.96-3.04zm2.73-6.68a8.93 8.93 0 0 0 .87 4.34 3.64 3.64 0 0 0 6.89-.28 11.05 11.05 0 0 0 .67-4.13 9 9 0 0 0-.84-4.27 3.82 3.82 0 0 0-3.36-2.31c-3.36 0-4.23 4.06-4.23 6.64z" transform="translate(-897.88 -6425.92)"/><path class="cls-3" d="M1029.77 6477.78a6 6 0 0 1 5.84-3.5c2.48 0 4.3.95 5.18 3.5a5.55 5.55 0 0 1 5.42-3.5 5.44 5.44 0 0 1 5.46 3.5 6.82 6.82 0 0 1 .31 2.91v9.69h2.28v3h-9.13v-3h2.2v-8.29c0-1.89-.25-4.38-2.77-4.38a3 3 0 0 0-2.93 1.89 7.45 7.45 0 0 0-.6 3.61v7.17h2.17v3h-9v-3h2.14v-8.61a6 6 0 0 0-.46-2.83 2.38 2.38 0 0 0-2.06-1.23c-2 0-3 1.19-3.53 2.94a10 10 0 0 0-.25 2.73v7h2.24v3H1023v-3h2.45v-12.67H1023v-3h6.79z" transform="translate(-897.88 -6425.92)"/><path class="cls-6" d="M1029.77 6477.78a6 6 0 0 1 5.84-3.5c2.48 0 4.3.95 5.18 3.5a5.55 5.55 0 0 1 5.42-3.5 5.44 5.44 0 0 1 5.46 3.5 6.82 6.82 0 0 1 .31 2.91v9.69h2.28v3h-9.13v-3h2.2v-8.29c0-1.89-.25-4.38-2.77-4.38a3 3 0 0 0-2.93 1.89 7.45 7.45 0 0 0-.6 3.61v7.17h2.17v3h-9v-3h2.14v-8.61a6 6 0 0 0-.46-2.83 2.38 2.38 0 0 0-2.06-1.23c-2 0-3 1.19-3.53 2.94a10 10 0 0 0-.25 2.73v7h2.24v3H1023v-3h2.45v-12.67H1023v-3h6.79z" transform="translate(-897.88 -6425.92)"/><path class="cls-3" d="M1060 6485c0 2.66 1.09 5.74 4.27 5.74a3.46 3.46 0 0 0 3.47-3h4.44c-.32 4.1-4.37 6.09-8.15 6.09a10.69 10.69 0 0 1-3.89-.87 6.8 6.8 0 0 1-2.83-2.35 10.86 10.86 0 0 1-2-6.68c0-5.11 2.9-9.59 8.54-9.59a8.64 8.64 0 0 1 6.54 2.49c1.5 1.61 2 4.23 2.06 6.33a7.93 7.93 0 0 1 0 1.61v.28zm7.74-2.69c0-2.1-.88-5.11-3.54-5.11-2.94 0-3.88 2.66-4.09 5.11z" transform="translate(-897.88 -6425.92)"/><path class="cls-6" d="M1060 6485c0 2.66 1.09 5.74 4.27 5.74a3.46 3.46 0 0 0 3.47-3h4.44c-.32 4.1-4.37 6.09-8.15 6.09a10.69 10.69 0 0 1-3.89-.87 6.8 6.8 0 0 1-2.83-2.35 10.86 10.86 0 0 1-2-6.68c0-5.11 2.9-9.59 8.54-9.59a8.64 8.64 0 0 1 6.54 2.49c1.5 1.61 2 4.23 2.06 6.33a7.93 7.93 0 0 1 0 1.61v.28zm7.74-2.69c0-2.1-.88-5.11-3.54-5.11-2.94 0-3.88 2.66-4.09 5.11z" transform="translate(-897.88 -6425.92)"/><path class="cls-3" d="M1005 6433.14a6.76 6.76 0 1 1-6.75-6.75 6.75 6.75 0 0 1 6.75 6.75" transform="translate(-897.88 -6425.92)"/><path d="M107.12 7.22a6.76 6.76 0 1 1-6.75-6.75 6.75 6.75 0 0 1 6.75 6.75z" stroke-miterlimit="10" stroke-width=".94" stroke="#1d2b47" fill="none"/></g></svg>