<svg data-name="Слой 1" xmlns="http://www.w3.org/2000/svg" viewBox="0 0 191.03 157.6"><path d="M188 102.52c-1.13-2.28-2.64-4.45-4-6.63-.68 1.76-9.47-.38-11.29-.62l-5.68-.75c-1.69-.23-4.3-.07-5.83-.78-1.1-.5-2-2.14-2.71-3.11l-2.93-3.78a25.31 25.31 0 0 1-3-3.88c-.55-1.16-.07-2.24-1.71-2.51-.82-.14-1.36.51-1-.59a4.19 4.19 0 0 1 1.82-1.87c-.81-.73-1 .08-1.72.64 0-.36-.11-.55 0-.9-.74-.36-1 .31-1.86.49-1.35.28-1.94-.83-2.52-1.79-.59.29-1.21-2.42-2-3l-.07.18c-.44-.79-.25-1.78-.46-2.62s-.8-1.2-1.22-1.92c0 .2-.12.17-.06.5-.59-.53-1.33-1.93-1.69-2a2.49 2.49 0 0 1-.33-.58 1.93 1.93 0 0 1 1 1c-.11-.74-.68-1.06-1-1.71-.22-.48-.09-1.09-.22-1.37a2.17 2.17 0 0 0-.86-.84c-.12.33-.17.17-.3.33.12-.39-.23-1.92.37-1.94.27 0 .89 1.43 1 1.61.18-.48.13-1 .29-1.41.08 0 .11.1.07.2 2.06-2-3.09-3.47-1.54-5.73.09.74.91.48 1.36 1.06-.41-1.86-6.26-3.19-5.18-5.44-.46 0-.9.06-.42.6-.29-.07-.55-.05-.81-.1 0-.09.12-.11.06-.19s0 0 0 0c-.49.35-.1 0-.6.06.4-.19.15-.19.35-.54-.21.14-.3 0-.54.32-.37-.44 0-2.25-1.07-1.46.15-.34.1-.5.35-.81a1.21 1.21 0 0 1-.2-.14c-.29.39-.67.18-1.06-.13.55-.13.95 0 1.51-.34a3.1 3.1 0 0 0 .18.26c-.28-1.21-1.22-.88-2.11-1.07 0 .27 0 .12-.24.13.1-.44-1.16-1.19-1.15-.27a1.84 1.84 0 0 1-.12-.6 4.69 4.69 0 0 1-.6.2h.36a3.2 3.2 0 0 0 .06-.74s-.16.21-.19.24c-.19-.13 0-.27-.17-.44.06.05-.16.21-.21.2-.08-.18 0-.37 0-.55-.12.15-.1.23-.28.29a2.47 2.47 0 0 1 .36-1.15 5.19 5.19 0 0 1-.14.73c.12-.19.3-.4.42-.61a7.12 7.12 0 0 1-.12.88c.76-.75 0-1.13-.33-1.81-.44-.84-.09-.56-.44-1.1a6.3 6.3 0 0 1-.88-.43c-.38-.45-.23-.68-.4-1.09a4.71 4.71 0 0 1-.72-2.36 3.38 3.38 0 0 1-.48.27.57.57 0 0 0 .3-.83c-.36-.83-1.17-.69-2-.68-1.49 0-4.37.49-5.43-.25s-.78-2.26-1.41-3.39c-.88-1.55-3.33-1.28-5-1.49-4-.51-8.08-.38-12.18-.75l-5.51-.5c-1.94-.17-2.62-.8-4.14-2C83.17 25.69 76.7 20.47 70.41 15c-3-2.59-6.72-4.39-10.12-6.42-1.79-1.06-3.56-2.27-5.42-3.22a17.39 17.39 0 0 0-5.11-1.25l-3.48-.59c-.78-.13-2.4-.72-3.12-.49s-1.3 1.1-2.11 1.43a31.56 31.56 0 0 1-3.05.9q-7 2-14 4.15c2.22 2.4 4.43 4.79 6.56 7.28.41.48 2.45 2.41 2.34 2.88-.15.63-2.64 1.46-3.16 2.31-.86 1.38-.51 2.5-2.21 2.95-1.54.4-3.27.43-4.75 1s-1.72 1.74-2.5 3a11.82 11.82 0 0 1-3.63 3.44c-1.36.83-3 .13-4.61-.14l-5.7-1c-.07 1.17-.79 3.12-1 4.6s.06 4.64-1.4 6.11c0 0 .09.1.12 0v.14a1.3 1.3 0 0 0-.27.92h-.21c.09 0 .11 0 .06-.06a1.93 1.93 0 0 0-.58.86c.16.15.35.19.34.63a1.87 1.87 0 0 0 .48-.4c-.1-.38 0-.53.36-.69.24.32.41.33.54.47h.12c-.13 0 .36-.23.31-.2a2.14 2.14 0 0 1-.24.34S5 43.92 5 44a1 1 0 0 0 .18-.42c0-.06.4 0 .36 0a.71.71 0 0 0-.24.34s.07 0 .07.08A3.72 3.72 0 0 1 7 43.68s-.11-.15-.1-.14a4.13 4.13 0 0 1 1.82.79 4.19 4.19 0 0 0-.55.24c1 .45 2.27 2.44 2.74 3.57a8.26 8.26 0 0 0 1 2.16 19.22 19.22 0 0 1 1.94 2.42A37.2 37.2 0 0 0 17.43 58a24.17 24.17 0 0 1 1.94 3.66c.25.48.37 1.27.76 1.64s.85.13 1.16.42c.83.8-.63 3.11 1.29 3.17 0-.08-.06-.23-.07-.32 1.76.79 2 3.16 2.92 4.5a4.38 4.38 0 0 1 1.11 2.06c.16.79.46 2.65-.93 2.22a7.33 7.33 0 0 0 .51.58c-.15-.41.3.52.19.38a34 34 0 0 1 2.19 3.32c-.7.2.71 1.42 1.35 1.43.19-1.13 1.63.82 2.29.8.11-.3.22-.3.34-.52 0 .16-.1.28-.12.45.06 0 .24-.15.3 0a2 2 0 0 1-.3.14 30.54 30.54 0 0 1 3.45 2.6 11 11 0 0 1 1.19 1c.51.75.41 2.32 1.32 2.59-.08-.12-.21-.24-.31-.39.5.09.83.78.85 1.38 0 0 .13-.12.12-.14.21.7 0 1.92.84 2.15 0 0-.08.24 0 .33.42 0 .16.38.34.88.09.27-.3.35 0 .77.15.23.33 0 .5.2.65.8 1.42 1.59-.08.49.38.53.73 1.13 1.08 1.69a3.54 3.54 0 0 0-.3-.75c1.06.31 1 3.18 1.39 4.31.55-.91.21-.12 0 .37-.25.72-.74 1.21-.64 2 0 0 .15-.29.18-.33-.15 1.1-.55 1.81-.14 3a1.34 1.34 0 0 0-.77-.81c.21.63 1 2 1.39 1.48a3.16 3.16 0 0 0 .16 2.29c.12-.07.1-.16.2-.23a3.91 3.91 0 0 1 0 1.67c0 .45-.4.23-.38.67 0 .21.49.61.59.81s-.11.34 0 .6a8.43 8.43 0 0 0 1.7 2.29c-.08 0-.11-.13-.16-.13a1.14 1.14 0 0 0 .61.77.91.91 0 0 1 0-.17.77.77 0 0 1 .41.49s-.35-.18-.3-.19c.06.42 0 .44.47.7 0-.06-.19-.06-.17-.19a2.44 2.44 0 0 0 .42.12 1.46 1.46 0 0 0 .78 1.48c-.06 0-.19.08-.24.12.85 1.17 1.85 2.55 3.34 2.92a3.7 3.7 0 0 1-.39-.43c.5.45 1.36.34 1.95.61a7.73 7.73 0 0 1 1.75 1.47c.5.43 1.36.61 1.85 1.14 0 0 .35.82.44 1 .18.32.42.61.63.91 0-.9 1.5.41 1.21 1.47a1.94 1.94 0 0 0-.3-.13c.46.53 1.4.77 1.71 1.3.09.15 0 .94.07 1.27s.57.73.75 1.06-.09.4.09.65.65.39.71.51c.29.54-.1.64 0 1.2s.65.71.79 1.07-.26.91-.15 1.47.87.83 1 1a4.31 4.31 0 0 1 1.25 2.82c.25.25.3 0 .18.51.37.13.2 0 .25.25.69.21.93 1.5 1.31 2a11.27 11.27 0 0 0 2.79 2.43 10.41 10.41 0 0 1 2.46 2.27 8.63 8.63 0 0 1 .83 4 1.89 1.89 0 0 0-.06-1.44c.69.23.27.56.66.94.15.15.71.36.75.43.24.37.14.74.31 1.11.27.55.37.41.74.87a3.46 3.46 0 0 1 .84 1.68 6.73 6.73 0 0 1 .51 2.36c.84-.14.88-.68 1.29-1 .2-.19.64-.2.87-.45s.17-.72.36-.88c.39-.33 1.39-.66 1.12-1.59-.06-.2-.51-.22-.62-.58a2.74 2.74 0 0 1-.13-.82 9.7 9.7 0 0 1 0-1.33c.17-.83 1.88-1.79.36-2a4.28 4.28 0 0 1 2.28-1.79c1.12-.16 1.52.81 2.33 1.25a5.64 5.64 0 0 0 2.32.59s.31-.4.44-.44.51.25.8.19.23-.48.48-.53.57.14.89.08a35.76 35.76 0 0 1 6.56-.3 7 7 0 0 1 3.25.85 14.15 14.15 0 0 0 3.74.55c1.27.13 2.54.32 3.81.39s2.56-.46 3.74-.31c2.24.27 2 3.83 4.9 2.72 2.59-1 2.43-3.23 3.88-5.2 1.3-1.77 2.8-4.19 4.48-5.6s4.24-2.21 6.15-3.18c4-2 9-2 13.33-2.63 4.58-.65 9.39-.95 13.9-2 4.94-1.12 9.88-3.43 14.65-5.11l8.05-2.83c.95-.34 3.09-.63 3.8-1.34s.84-2.67 1.09-3.46c.85-2.71 1.7-5.43 2.54-8.14.78-2.24 2.03-4.82 2.21-7.16z" fill="none" stroke="#fff" stroke-linecap="round" stroke-linejoin="round" stroke-width="6"/><path d="M188 102.52c-1.13-2.28-2.64-4.45-4-6.63-.68 1.76-9.47-.38-11.29-.62l-5.68-.75c-1.69-.23-4.3-.07-5.83-.78-1.1-.5-2-2.14-2.71-3.11l-2.93-3.78a25.31 25.31 0 0 1-3-3.88c-.55-1.16-.07-2.24-1.71-2.51-.82-.14-1.36.51-1-.59a4.19 4.19 0 0 1 1.82-1.87c-.81-.73-1 .08-1.72.64 0-.36-.11-.55 0-.9-.74-.36-1 .31-1.86.49-1.35.28-1.94-.83-2.52-1.79-.59.29-1.21-2.42-2-3l-.07.18c-.44-.79-.25-1.78-.46-2.62s-.8-1.2-1.22-1.92c0 .2-.12.17-.06.5-.59-.53-1.33-1.93-1.69-2a2.49 2.49 0 0 1-.33-.58 1.93 1.93 0 0 1 1 1c-.11-.74-.68-1.06-1-1.71-.22-.48-.09-1.09-.22-1.37a2.17 2.17 0 0 0-.86-.84c-.12.33-.17.17-.3.33.12-.39-.23-1.92.37-1.94.27 0 .89 1.43 1 1.61.18-.48.13-1 .29-1.41.08 0 .11.1.07.2 2.06-2-3.09-3.47-1.54-5.73.09.74.91.48 1.36 1.06-.41-1.86-6.26-3.19-5.18-5.44-.46 0-.9.06-.42.6-.29-.07-.55-.05-.81-.1 0-.09.12-.11.06-.19-.49.35-.1 0-.6.06.4-.19.15-.19.35-.54-.21.14-.3 0-.54.32-.37-.44 0-2.25-1.07-1.46.15-.34.1-.5.35-.81a1.21 1.21 0 0 1-.2-.14c-.29.39-.67.18-1.06-.13.55-.13.95 0 1.51-.34a3.1 3.1 0 0 0 .18.26c-.28-1.21-1.22-.88-2.11-1.07 0 .27 0 .12-.24.13.1-.44-1.16-1.19-1.15-.27a1.84 1.84 0 0 1-.12-.6 4.69 4.69 0 0 1-.6.2h.36a3.2 3.2 0 0 0 .06-.74s-.16.21-.19.24c-.19-.13 0-.27-.17-.44.06.05-.16.21-.21.2-.08-.18 0-.37 0-.55-.12.15-.1.23-.28.29a2.47 2.47 0 0 1 .36-1.15 5.19 5.19 0 0 1-.14.73c.12-.19.3-.4.42-.61a7.12 7.12 0 0 1-.12.88c.76-.75 0-1.13-.33-1.81-.44-.84-.09-.56-.44-1.1a6.3 6.3 0 0 1-.88-.43c-.38-.45-.23-.68-.4-1.09a4.71 4.71 0 0 1-.72-2.36 3.38 3.38 0 0 1-.48.27.57.57 0 0 0 .3-.83c-.36-.83-1.17-.69-2-.68-1.49 0-4.37.49-5.43-.25s-.78-2.26-1.41-3.39c-.88-1.55-3.33-1.28-5-1.49-4-.51-8.08-.38-12.18-.75l-5.51-.5c-1.94-.17-2.62-.8-4.14-2C83.17 25.69 76.7 20.47 70.41 15c-3-2.59-6.72-4.39-10.12-6.42-1.79-1.06-3.56-2.27-5.42-3.22a17.39 17.39 0 0 0-5.11-1.25l-3.48-.59c-.78-.13-2.4-.72-3.12-.49s-1.3 1.1-2.11 1.43a31.56 31.56 0 0 1-3.05.9q-7 2-14 4.15c2.22 2.4 4.43 4.79 6.56 7.28.41.48 2.45 2.41 2.34 2.88-.15.63-2.64 1.46-3.16 2.31-.86 1.38-.51 2.5-2.21 2.95-1.54.4-3.27.43-4.75 1s-1.72 1.74-2.5 3a11.82 11.82 0 0 1-3.63 3.44c-1.36.83-3 .13-4.61-.14l-5.7-1c-.07 1.17-.79 3.12-1 4.6s.06 4.64-1.4 6.11c0 0 .09.1.12 0v.14a1.3 1.3 0 0 0-.27.92h-.21c.09 0 .11 0 .06-.06a1.93 1.93 0 0 0-.58.86c.16.15.35.19.34.63a1.87 1.87 0 0 0 .48-.4c-.1-.38 0-.53.36-.69.24.32.41.33.54.47h.12c-.13 0 .36-.23.31-.2a2.14 2.14 0 0 1-.24.34S5 43.92 5 44a1 1 0 0 0 .18-.42c0-.06.4 0 .36 0a.71.71 0 0 0-.24.34s.07 0 .07.08A3.72 3.72 0 0 1 7 43.68s-.11-.15-.1-.14a4.13 4.13 0 0 1 1.82.79 4.19 4.19 0 0 0-.55.24c1 .45 2.27 2.44 2.74 3.57a8.26 8.26 0 0 0 1 2.16 19.22 19.22 0 0 1 1.94 2.42A37.2 37.2 0 0 0 17.43 58a24.17 24.17 0 0 1 1.94 3.66c.25.48.37 1.27.76 1.64s.85.13 1.16.42c.83.8-.63 3.11 1.29 3.17 0-.08-.06-.23-.07-.32 1.76.79 2 3.16 2.92 4.5a4.38 4.38 0 0 1 1.11 2.06c.16.79.46 2.65-.93 2.22a7.33 7.33 0 0 0 .51.58c-.15-.41.3.52.19.38a34 34 0 0 1 2.19 3.32c-.7.2.71 1.42 1.35 1.43.19-1.13 1.63.82 2.29.8.11-.3.22-.3.34-.52 0 .16-.1.28-.12.45.06 0 .24-.15.3 0a2 2 0 0 1-.3.14 30.54 30.54 0 0 1 3.45 2.6 11 11 0 0 1 1.19 1c.51.75.41 2.32 1.32 2.59-.08-.12-.21-.24-.31-.39.5.09.83.78.85 1.38 0 0 .13-.12.12-.14.21.7 0 1.92.84 2.15 0 0-.08.24 0 .33.42 0 .16.38.34.88.09.27-.3.35 0 .77.15.23.33 0 .5.2.65.8 1.42 1.59-.08.49.38.53.73 1.13 1.08 1.69a3.54 3.54 0 0 0-.3-.75c1.06.31 1 3.18 1.39 4.31.55-.91.21-.12 0 .37-.25.72-.74 1.21-.64 2 0 0 .15-.29.18-.33-.15 1.1-.55 1.81-.14 3a1.34 1.34 0 0 0-.77-.81c.21.63 1 2 1.39 1.48a3.16 3.16 0 0 0 .16 2.29c.12-.07.1-.16.2-.23a3.91 3.91 0 0 1 0 1.67c0 .45-.4.23-.38.67 0 .21.49.61.59.81s-.11.34 0 .6a8.43 8.43 0 0 0 1.7 2.29c-.08 0-.11-.13-.16-.13a1.14 1.14 0 0 0 .61.77.91.91 0 0 1 0-.17.77.77 0 0 1 .41.49s-.35-.18-.3-.19c.06.42 0 .44.47.7 0-.06-.19-.06-.17-.19a2.44 2.44 0 0 0 .42.12 1.46 1.46 0 0 0 .78 1.48c-.06 0-.19.08-.24.12.85 1.17 1.85 2.55 3.34 2.92a3.7 3.7 0 0 1-.39-.43c.5.45 1.36.34 1.95.61a7.73 7.73 0 0 1 1.75 1.47c.5.43 1.36.61 1.85 1.14 0 0 .35.82.44 1 .18.32.42.61.63.91 0-.9 1.5.41 1.21 1.47a1.94 1.94 0 0 0-.3-.13c.46.53 1.4.77 1.71 1.3.09.15 0 .94.07 1.27s.57.73.75 1.06-.09.4.09.65.65.39.71.51c.29.54-.1.64 0 1.2s.65.71.79 1.07-.26.91-.15 1.47.87.83 1 1a4.31 4.31 0 0 1 1.25 2.82c.25.25.3 0 .18.51.37.13.2 0 .25.25.69.21.93 1.5 1.31 2a11.27 11.27 0 0 0 2.79 2.43 10.41 10.41 0 0 1 2.46 2.27 8.63 8.63 0 0 1 .83 4 1.89 1.89 0 0 0-.06-1.44c.69.23.27.56.66.94.15.15.71.36.75.43.24.37.14.74.31 1.11.27.55.37.41.74.87a3.46 3.46 0 0 1 .84 1.68 6.73 6.73 0 0 1 .51 2.36c.84-.14.88-.68 1.29-1 .2-.19.64-.2.87-.45s.17-.72.36-.88c.39-.33 1.39-.66 1.12-1.59-.06-.2-.51-.22-.62-.58a2.74 2.74 0 0 1-.13-.82 9.7 9.7 0 0 1 0-1.33c.17-.83 1.88-1.79.36-2a4.28 4.28 0 0 1 2.28-1.79c1.12-.16 1.52.81 2.33 1.25a5.64 5.64 0 0 0 2.32.59s.31-.4.44-.44.51.25.8.19.23-.48.48-.53.57.14.89.08a35.76 35.76 0 0 1 6.56-.3 7 7 0 0 1 3.25.85 14.15 14.15 0 0 0 3.74.55c1.27.13 2.54.32 3.81.39s2.56-.46 3.74-.31c2.24.27 2 3.83 4.9 2.72 2.59-1 2.43-3.23 3.88-5.2 1.3-1.77 2.8-4.19 4.48-5.6s4.24-2.21 6.15-3.18c4-2 9-2 13.33-2.63 4.58-.65 9.39-.95 13.9-2 4.94-1.12 9.88-3.43 14.65-5.11l8.05-2.83c.95-.34 3.09-.63 3.8-1.34s.84-2.67 1.09-3.46c.85-2.71 1.7-5.43 2.54-8.14.7-2.25 1.95-4.83 2.16-7.17" fill="#79c7c8"/></svg>