<svg id="Слой_1" data-name="Слой 1" xmlns="http://www.w3.org/2000/svg" viewBox="0 0 362.83 355.27"><defs><style>.cls-1{fill:#fff}</style></defs><path class="cls-1" d="M361.07 313.34c.12.53.41 1.08.56 1.61-4.33-3 2.19-12.08-1.58-14.78-4-2.87-2.23 8.94-4 11a3.65 3.65 0 0 0-4.11-2c-1.39.32-1.52 2.12-2.41 2.65-1.55.91-4.07 1.2-5.78 1.7-.2 1.65-1.34 1.87-2.44.94.25 2.29-1.7 6.24-4 6.57a8.84 8.84 0 0 0 0 1.63c1.05-.42 1.43.08 2.09 0a2 2 0 0 0-.85.82c.87.11 1.27.85 2.19 1.43-1.17.39-2.66 1-3.6 1.36.92 1.09.33.93.52 2 0-.4.74.31.7.25-.23.15-.65.3-.86.45.93.47 3.8 1.21 4.14 2.77.26 1.17-1.74 3.37-3.47 3.51.14.64.52 1.7.71 2.31 1.93-.49 3.3-1.54 4.77-.23.43.37-1.13 2-1.32 2.1a11.09 11.09 0 0 1 .87.71c-.59.15-1.32.5-1.92.67-.36 1.37.24.95-1.36 1.84.16.12.89.57 1 .69.67-.26 1.57-.2 2.23-.44.16 1.4 1.75 1.5 3.48 1.62-2 3.27-5 2.22-1.76 5.29a9.14 9.14 0 0 0 4.7 2.07c-.24.09-.07.4 0 .47.32-.22.73-.46 1-.68.18.26.63 1 1 1.61-1.06 1.49 2.86 3.46 3.26.22-.4.14-.56.63-1 .69.14-2.42 2.76-4 3.4-6.63-.51 0-1.31.16-1.68.2 1-1.33.15-.57 1.72-.71 1.17-2.64.52-6 1.43-10.06.51-2.32 2.4-3.79 3.26-6s.58-4.29.69-6.8c-1.37-3.47.71-7.87-1.76-10.87M214.8 284.73a8.19 8.19 0 0 0 2.93-1.7 5.17 5.17 0 0 1-2.93 1.7m-107.25-51c-.62-1.21-.34-2.63-1-3.79a6.65 6.65 0 0 0-.46-.74c1.5 1 1.45 2.79 1.43 4.53M73.13 147.5a14 14 0 0 0 4.27 2.07c-1.72-.24-4-1.21-4.27-2.07m-18.25-9.7c.21-.4-.49-.4-.52-.5a5.06 5.06 0 0 0 1.55-.52c-.45.42-.63.7-1 1m-42.32-28.84a.79.79 0 0 1 .25 0h-.25m58.56-11.07a6.31 6.31 0 0 0 .54.39 4.47 4.47 0 0 1-.54-.39m239.78-19.53c-2.08-1.73-.65-2.93-4.08-2.29-.15 0-1.27 1.52-1.61 1.61-1 .24-2.59-.26-3.82-.32.39 0-2.47-.39-2.06.1-.77-.67-.81-1.91-1.57-2.48-4.23-3.11-3 1.36-4.53 1.42-3.27.12-4.93-6.25-5.9-8-2.28-4-7.87-6.15-11.85-5.07-1.06.29-1.2 1.82-3.48 1.52.07 0-2.83-2-3.4-2.3-2.25-1.21-1.79-1.55-4.25-1.47-1.59 0-1.68.91-3.5.87-3.18-.07-.76-.1-3.55-3.6-.62-.77-2-.57-2.43-.89-.22-.16.83-.77.19-1.13a27.53 27.53 0 0 0-2.71-.79c-1.86-1.38-3.38-3.45-5.58-4.45-2.83-1.28-2.12 1.64-3.47-2.2-.12-.35.76-1.42.68-2-.12-.79-1.62-1.5-1.63-1.6-.13-1.78.71-4.88 1.66-5.49.53-1.67-.1-2.65-1.19-3-4.22 2.44-2.06 4.32-4.29 6.95s-10.5 2.29-13 .37c-.35-1.32 1.16-1.91 1.2-2.91 0-.43.48-.53.46-1.37 0-1.89-1.68-1.55-1.71-1.68-.32-1.74 3.18-6.93.35-4.91-1.69-2.73-9.84-6.18-11.3-1.84-2.71-2.92.39-7.81-5.31-7.7 0-1.55-3.82.77-5.59-2.12-1.5-2.45 0-8.13-3.71-9.35-4.6-1.48-4.2 5.16-8.7 2.05-.84-.57-1.78-2.52-2.43-3.33-.38-.46-1.77-.11-2.25-1.15s.6-3.13.49-3.87c-.31-2-1.82-3.7-2.21-5.95-3.43 2.33-10 2.29-14.07 3.35-2 .52-8.79 3.15-9.72 5.41-.35.85.53 2.87.5 3.9-.06 1.55-.86 2.86-.81 4.55.08 2.2.32 3.84.25 5.32-.13 2.38-1.21 4.59.81 6-4-.16-.52 5.09 1.39 5.95.19.77-.74.06.18.81-1 .64-2.06-1.15-3-.72-1.09.52-1 1.1-1.88 1.83-2.05 1.75-3.32 5.16-6.07 7-5.06 3.39-11.63 3.56-17 5.83-5 2.1-9.77 4.31-11.2 9.7-.68 2.56-1.9 2.44.15 4.32s7.31 1.18 9.18-.35c-1.16 1.55-2.68 1.65-4.46 2.15-3.14.89-3.91 1.7-6.42 3.24-4.07 2.51-6.74 2.66-10.78 1.14-2.84-1.06-5.28-1.09-8.26-1.25-2-.11-11.19-3.5-10.45.32a11.64 11.64 0 0 1-2-.28c.9-3.15-2.48-4.24-2.83-7.06-.28-2.27 1.74-2 1.56-4-.45-4.82-5-1.49-6.87-1-2.31.57-2.41.26-4.69-.34-1.17-.31-4.28-1.86-5-1.7-3.38.71.54 1.5 1 3.13.28 1.1-.1 2 0 3 0 .45.09 1.86.16 2.65.15 1.66.5 4.47 1.91 4.25.29.71.72 1 1.35 1.76.19-.31 0-.63.4-.67-.25 1.71 1.06 3 1.88 5.27 1.05-.36.66-.26 1.93 0-2-.4-1.85 1.32-1 2.93.18-.39.18-.18.5 0-1.36 1.67-.73 3-.26 5 1.26-1.07.68-.35 1.81-.54-1.32-.16-1.5 5.64-2.4 7.12 1.69 1.2 2.25 5.13 4 6.85 1.28 0 1.06.08 2.19.75-3.14-.24-15.13 3.64-12.38-2.59-2.31.6-6.51 2.19-3.44 4.73.51.83.48 1.34 1 2.06-.28.26-.72.54-1 .78-.09-2.12-1.24-6.41-4.16-4.68.11.31.45.75.52 1a11.29 11.29 0 0 0-1.26 1c-.38-.36-.33-.78-.47-1.26-.2.69 0 .8-.54 1.31-.12-1-.72-1.58-.94-2.6a9.59 9.59 0 0 0-1.56 1.14l-.45-.36a9.43 9.43 0 0 0 1.23-1.85 6.55 6.55 0 0 1-.87-.78c-1 2-2.59 2-4.33 1.85 1.15.9-4.44 4.13-4.92 5.37a5.3 5.3 0 0 0-1.33-1c.73-1.48-6.13-9.46-7.78-9.69 1.73-2-.41-1.48-1.6.12 1.52-3.3-1.33-4.52-2.9-.36 1.51-4.8-2.63-1-5.39-.52 0-.15.36-.48.34-.53-2.44-1.75-5.45 1.26-2.74 3.14-1.72.7-1.24 3.24-2.78 1.33a11.26 11.26 0 0 1-4.35-1.09c-.31 1.09-.72.81-.69 2.39 0-.11-.46-.53-.52-.54a6.18 6.18 0 0 1 .16 2.11 12.14 12.14 0 0 1-1-1.85c-.58.32-1 0-1.59.79 0-1.36-.37-1.7-.48-2.88-1.4.72-1.77.46-2.28 1.83-1.08-.93-4.07-.48-3.28 1.33-.95.12-1.84.19-2.85.32-.07-1.87-1.54-1.57-3-.6 0-.09.26.4.41.56a10.27 10.27 0 0 1-3.88.5c.49.65.07.52.84 1.06a8.73 8.73 0 0 0-2 0 14.41 14.41 0 0 1 .77 1.33c-1.29-.61-2.52-.6-3.12.28-1.62.31-3.09 7-1.54 8.26a25.32 25.32 0 0 0 4.48-.44 55.75 55.75 0 0 0 7.45-2.9 8.07 8.07 0 0 0-4.14 3.65c.55 0 .74-.3 1.19-.49.28.06.13.48 0 .49a24.73 24.73 0 0 0 2.26-1c.33 0-.5.53-.19.54a4.37 4.37 0 0 1 1.4-.54 13.43 13.43 0 0 0-1.4 1.55 7.76 7.76 0 0 0 2.27 0 5.33 5.33 0 0 0 1.2.54 6.17 6.17 0 0 1-2.18.48c.14 0 .26-.07.28-.2-1.87.56-7.64 1.05-6.77-1.57a4.26 4.26 0 0 1-2.43 2.06 1.16 1.16 0 0 1 0 .78c2.39-.29 2.05 1.6 1.74 3.38 1.71-1.86 1.63-2.76 4.19-2 .87.27 2.64 1.28 2.73 2.7.28 4-9.52.83-11.23 4.43 4.25.49 7.71 1.12 9.34 6 .27.8-.52 2.5-.32 2.68 1.3 1.27 4.69.35 5.53-1.16-1-.7 0-.17-.83-1.22.49.26.27.28.83.72a1.2 1.2 0 0 1 1.05-.53 9.34 9.34 0 0 1-.54-2c.45 1.71 1.68 2.6 3.12 2.1.38-.25.39 0 .53-1.33 1.69.58 1.8 2 2.75 2.62 2.06 1.38 1.85.69 4.22 1a22.92 22.92 0 0 1 4 1.25c1.3.71 2.38 3.49 4.83 2.08-.05-.32-.43-.51-.47-.7.95-.55 1.65-1.26 2.54-1.88a29.41 29.41 0 0 1-1.91 2.86 10.77 10.77 0 0 1 1.91.74c-.35-.07-.62-.12-.89-.15a3.92 3.92 0 0 1 2.32 1.46c.51-.8.51-.78.42-1.53 1.21-.71 1.54-.33.36-1.84.83-.12.74.09 1.37-.23.13.14-.09.86 0 1 .06 0 .5-.3.53-.27-.14 1.72-1.89 1.22-2 3-.09 1.16 1.27.85 1.38 1.91.19 1.89-.68 4.54 1.5 4.6a5.17 5.17 0 0 1-1-4.5c.6.52.37.38.5.65a20.55 20.55 0 0 1 2.22 0c0-.72-.13-.47.1-1 .1.34.41 1 .45 1.17a.51.51 0 0 0 0-.73 9.37 9.37 0 0 0 1.38 1.29 13.79 13.79 0 0 1-.88-3.85c.23.58.71.64 1 1a2.27 2.27 0 0 0-.17 1.31c.29.12.28-.4.69-.28.23.18-.26.29-.17.51 1.12-.6 3-1.56 3.29-1.76.71.32.81.14 1.38.76 0 0-.86-.32-1-.25 1.6 1.26 2.19 1.1 1.74-.51 1.09 2-.55 4.26-2.61 2.8a4.92 4.92 0 0 0-.16.8c-.81-.44-1.53-.18-2.35-.46 1.46 1.27 5.1 3.89 6.16.94.35 0 .71.44 1.19.26l-.35.25c2.16-.33 4.48.55 6.78.51a14.23 14.23 0 0 0-3.31.56c.49 1.44 1 2.26 2.61 2.51a11.16 11.16 0 0 1-1.19 1c-.53-1-1.7-.63-3 .48a5 5 0 0 1 1.38 2.34 6.26 6.26 0 0 0 .54-1c1.52 1.86.7 2.58-1.56 1.53 2.23 2.61 2.49.5 4.32.76 1.4.2 1.07 1.57 2.83 1.3.53-.08 1.36-1.26 1.79-1.41 3.44-1.21 5-.64 6.63.37-1.48-.5-4.41-1.42-5.7 0-1.76 1.93 1.33 4.25-2.25 5.1 3 1.53 6.33.85 5.81 4.46-.4 2.74-3.61 3.51-3 6.35.5 2.3 4.27 4.06 5.54 5.82 1.66 2.3 1.55 5.28 3.13 7.36a14.31 14.31 0 0 1-.08-1.53c1.36 3.32 5.24 3.47 7.89 4.73.68.33.14 1.84.72 2.21.73.46 1.65-.61 2.47-.14a35.58 35.58 0 0 1 3.49 2.48c.1-1.07 1.76-3 2.45-1.05.83 2.31-1.4 1.34-1.74 3.1-.49 2.5.28 1.24.87 2.53s4.14 5.11 1 4.91c.51 1.2.91 1.85.69 2.64-.12.42-1 1.91-1 2.06-.47 3.06.84 3.49 3.45 6.19-2.41-.81-7.14-6.4-6.57.27 3.49.13 9.74 5.93 11.7 8.84 2.2 3.24 1.82 7 2.74 10.6s2.81 3.3 4.61 6.1a10 10 0 0 0-2.52-.93c-1.12-1.56-2.6-2.57-3.27-4.87-1.68-5.69-2.67-10-8.51-13.15-.87-.47 1.09-2.38-1-1s-1.21 7.74-1.48 9.86c-1 7.73-1.9 15.41-2.59 23.2.27-1.23 1.09-5.2 2.41-5.37s3.3 3.14 3 3.62c-.94 1.8-3-.12-4.54 2.66-1.15 2.14-.69 4.86-1 7.37-1.07 8.53-2.72 17-4.61 25.41-1.15 5.1-3.56 9-8.73 9.24-.84 3.66 1.5 2.9 3.43 3.63.74.28.06 1.45 1.43 1.75.53.11 1.29-1.27 3.08-.62 4.79 1.76-1.12 4.81.15 7.2 1.65 3.13 3.18-1.82 4.67-1.82-1.73 2.58 3.57 3.22 5.44 4s3.38 1.1 5.24 1.71c1.39.45 1.7-.12 2.87.49.59.32-.16 1.17.25 1.51 1 .85 3.39 3.35 4.09 3.69-.5-.24 3.43-.5 3.14-.39a7.35 7.35 0 0 0 3.33-1.84c1.24 1.38 2.4 2.25 4.08 1.61.09 5.48 6.55 2.68 9.71 2.72 0 0 1.53.77 1.95 1a14.25 14.25 0 0 1 2.13-.26c1.24-.08 5.87 1.32 7 .05.86-.95-1.31-2.86-.23-4.3 1.33-1.78 3.36-.34 5.35.27 2.93.89 6 2.4 8.41 3.32 1.74.66 2.9 0 4 .82.64.48 1.14 2.68 1.67 2.88 1.34.52.62-1.25 2.2-1.25 1.82 0 3.31 1.3 5.47 1.12 0 0 .85 1.24 1.09 1.58-4 2.1 1.34 2.89 2.94 4.06 3 2.21 1.64 3.23 5.48 2.16s4.4-1.25 8.35.34c.84.34 1.5 1.23 2.54 1.47.07 0 2.29-.76 3.38-.36-1.17-2.12 3.08-3.29 4.77-3.73 2.64-.68 3.18.08 5.13.37 3.84.57 3.56.64 2.6-2.56-.64-2.1-2.08-4.8-2.51-6.48.19.07.26.5.47.61 1.35-3.89-1.67-3.78-1.53-6.07.17-2.64 2.57-1 1.18-4.36l.55-.08c-.07.95-.39.54 0 1.3.81-2.26.33-5.82 1.43-5.92-1.09 2.54.52.19 1.61-.79 1.78-1.61 2.57-3.49 5-4.86.94-.53 2.06.24 2.56-.08 1.13-.71 1.72-2.16 2.76-3 2.72-2.23 6.07-3.55 8.31-6.31a3.73 3.73 0 0 0-.72.36 9.08 9.08 0 0 1 4.71-2.28 3.84 3.84 0 0 1-1.76 1.28c2-.29 1.55 1.9 3.23 2.88 2.42 1.41 5.28.27 8 1 1.07.28 1.86 0 2.83.67.54.35-.25 1.65-.1 1.76a6.6 6.6 0 0 0 6.15 1c-3.08-2.06-1.55-4.7-3.28-7.37 2.67 2.18-.08 6.24 4.49 7.13-1.22-3.67 2.64-.64 3.77-1.55 2.05-1.62-.9-2.52.2-4.87 1.82.72 2.72 3.57 4.89 1.9.2 3.72-8.18 2.78-3.88 5.64 1.86 1.25 5.46-1.79 7.15-.29.86.76-.3 3.46 0 3.85.84 1.05 2 .37 3.33.78 1.08.33 1.53.61 2.85 1.06 1.83.63 3.42.84 5.6 2.25-2.63 2 2 1.69 2.94 1.19a5.65 5.65 0 0 0-1.38-1.19 15.7 15.7 0 0 0 1.56-.48s-.23.67-.18.71c1.48-.32 6.85.44 3.65 1.67a6.62 6.62 0 0 0 2.6.22c-2.89-3.41 3.83-1.86 4.88-1.58-.75-2.14 3.08-2.93 4.84-3.41 1.18-.32 1.37 2.36 2.77-.57a19.78 19.78 0 0 0 .33-2.3c-.82.13-1.82-.11-2.58.07 1.5-.94 2.24-2.63 3.47-3.63 1.67-1.36 1.14-1.26 3.55-1.92 2 .44 2.67-5.78 6.43-4.14.45-2.58 2.05-5.3 5.25-5.09a2.54 2.54 0 0 1-.17.46c.87-1.5 2.79-1.49 3.46-2.34 1-1.24-.14-1.43.58-3.35.86-2.33 3.34-3.55 4.24-5.89s-.18-2.75.22-5.22c-2.43.45-5.55 2.24-8.21 1.79-1.75-.29-5.4-2.93-7.2-4-1.42-.88-7.08-4.45-3.25-6.9-3.82-2.46.25-10.07 3.48-8.8-.45-.83-.89-4.37-1.22-4.76-1.77-2-4.28-.63-6.2-2.8-1.13-1.27-.26-2.5-.93-3.86-.5-1-1.83-.44-2.16-1.58-.62-2.12-1-2.32 1.38-3.21 1.81-.66 3.07.31 4.67-.26a38 38 0 0 1 3.14-2.7c1.42-.87.6 1 1.85-.5 1-1.12.07-1.38.51-2.33 1.4-3.08 1.51-2.63-.09-5a37.86 37.86 0 0 1-3.5-5.67c-.29-.58.49-.95-.09-1.74-.37-.52-2.12-.77-2.56-1.26-3.68-4.13-.73-4.32 1.54-5.95 1.41-1 2.6-1.86 2.51-3.52-.15-2.42-3.13-3.13-3.56-3.65-.83-1 .18-1.83-.38-2.85-.35-.64-2 .21-2.18-.9-.12-.68.49-1.44.4-2.06-.12-.83 1.13-1.62 1.11-2.39s-1.42-1.32-1.47-1.94c-.21-3 1.06-4.93-4.36-4.88-2.26 0-7.52 1.54-8.83 3.68-1.69 2.76 1.16 2.83.84 4.22-.92 4-5.91 2.56-8.15 4 .24-3 .68-1.8 2.15-4.11.44-.7 2-1.29 1.93-3.32 0-2.19-1.5-2.5-1.43-4.35 0-1 .8-1.52 1.18-2.48.46-1.16 0-1.84.55-2.74 1.71-2.63 5.85-3.39 7.37-5.89.57-.93.21-3.38.56-4.67s-.4-1.36.85-2.8c1.08-1.24 3.77-1.48 5.14-2.94.43-.46 1.39-2.51 2-3.2 2.34-2.88 11.51-10.18 2.7-8.53 1.69-4.3 3.34-5.54 7.95-5-1.45 3.64 6.88 3.3 5.9-.06 1.83.27 2.38-.84 1.73-1.95 4.21-2.05 1.17-4.11 1.41-7.7s1.45-7 1.49-10.53c0-2.73-.34-3.63.82-6.29.82-1.88 2.67-4 3.07-5.82 1.12-4.89.7-8.29 3.66-12.5 1.24-1.75 2.37-2.74 3.38-4.05 1.52-2 2.61-4.64 4.32-6.75a6.21 6.21 0 0 0-2.79-.79c-5.18-2.77-10.57-1-14.73-4.44"/></svg>