<svg id="Слой_1" data-name="Слой 1" xmlns="http://www.w3.org/2000/svg" viewBox="0 0 552.79 292.68"><defs><style>.cls-1{fill:#9a1648}</style></defs><path class="cls-1" d="M370.1 55.88c.13 1.07 2.43 4.21 3.45 4.55s2-.9 3.18-.25c.74.42.31 1.49.94 2.09 1.14 1.07 3.28.57 4.49.95 1.89.58 2.44 1.75 3.86 2.7 3.17 2.1 6.94 1.37 9 4.24.89 1.23 2.61 5.92 4.14 2.5.37-.84-1-1.66-.24-2.65s2.5-.21 2.86.73c-5-1.1.53 5.56 1.77 7.59l.3-.1c0-.34.12-.74.15-1 .23 3.89 2.63-1.83 4.85-1.19-.15-3.58 1.7-1.43.11.43-.37.43-1.31-.38-1.72.61-.29.7.42 1.73.42 2.33-1.26-2.85-3.27.14-2.35 1.24.72.87 4.09.12 5-.1s1.92-.7 2.86-1S415 79.23 416 79s.53.07 1.41-.22c.54-.18.45-1.19.69-1.26 1.3-.38 1.76.77 2.9.52a6.37 6.37 0 0 0 2.72-1.78c.63-1.69-.59-1-.92-2.15-.62-2.21.74.6 2.4-.26.56-.28.41-1.76.47-1.78a1.48 1.48 0 0 1 1 .09c-.1 0 .7.57.85.51.36-.14.6-.69.86-.81s.44-1.46.44-1.67c.09 1.1 2.83 2.27 4.15 2.61.06 0 1-.67 1.56-.61.28 0-.13.81.49.8 1.34 0 1.91-.88 3.19-1.22s5.83-.1 6.1-1.12c.35-1.36-1.26-.77-1.56-1.45-.83-1.87.59-1.89.92-3.33.49-2.13-.14-3.38-2-4.71-1-.71-.91-1.18-2.2-1.49-.81-.19-1.06.52-1.66.5s-.93-.65-1.4-.66c-2.31 0-3.83.55-6.29.66A7.28 7.28 0 0 1 427 60c-1.35-.33-2.35-1.29-3.29.49-.94-4.2-8.69-2.06-11.24-1.34-1.92.54-3.51 1.35-5.39 1.56a15.14 15.14 0 0 1-3.33-.27 8.79 8.79 0 0 1-2.57-.93c-.37-.14-1 .13-1.21 0s-.69-.49-1.12-.63a10.43 10.43 0 0 1-3.26-1.17c-1.64-1.32-1.89-3.69-4.32-4.64-1.91-.74-4-.91-5.94-1.71-.54-.22-1.37-.09-1.88-.27s-.56-.9-1-1.09a21.25 21.25 0 0 0-4.38-1c-1.85-.27-1.39.13-2.75.81-.89.44-1.78 1.15-2.84 1.75-.51.28-.72.71-1.36 1s-1.62 0-2.09.49c-.93 1.07 0 2.07 1.07 2.84"/><path class="cls-1" d="M486.29 122.73a39.23 39.23 0 0 0-6.13-2.85c-2.26-.86-3.54-.16-5.78-.62a6 6 0 0 1-3-1.42c-.46-.63-.45-.57-.45-.56a3.18 3.18 0 0 0-.21-.41c-.11-.2.61-1.17.56-1.22-2.31-2.48-3 .86-4.22 1.48s-5.43-.82-5.83-1.78c-.62-1.46 1.22-4 2.92-3.27.16-2.19-1.56-.45-2.67-1.24-.62-.43-1.63-2.84-2-3.55-1-1.81-1.15-3.71-1.94-5.62-1.26-3.06-2.78-7.28-5.81-8.9-1.83-1-4.47-1.35-6.45-2.06-1.58-.56-4.57-2.52-6.28-2.32-1.87.23 3.57 3 3.84 3.47 2.15-2.06 2.17 2.11 3.2 2.5-.81.17-.91-.13-1.5-.71-.19-.19.34-.77 0-1a7.22 7.22 0 0 0-1.32-.55c-.38-.21-1.33-.26-1.78-.45-.84-.36-1.3-.91-2.1-1.31a11.62 11.62 0 0 0-4.18-1 11.39 11.39 0 0 0-2.18-.44c-.74 0-1.13.62-2 .47a10.14 10.14 0 0 0-4.82.92c-1.54.84-2 2.84-3.32 3.34 1.88-.33 1.49 2.28 3.68 2-2 1.29-2.74-.3-4.47-.28-.65.52-.1.63-1.1.31 0 1-.6 1.15-1.36.61.85 1 0 1.53-.94 1.52l.37.19c-.77.64-.34.76-1.22.35.11.52-.18 1.55-1.15 1.12-.57-.26-.84-1.91-1.05-2.27a2.53 2.53 0 0 1-.82 2.08c1.78-.68 2.87 3.33 1.17 3.3.1.67-1.85 5.14-2.35 5.81.3-.85-.12-1.79.14-2.54s1.09-1.27 1.23-1.87c.29-1.2.27-1.77-.89-2.34s-3 .32-4.22.52a20.5 20.5 0 0 1-5.35-.13 8.61 8.61 0 0 0-2.37 0c-1 .37-.82 1.44-1.91 1.45 1.33-2.64-2.3-2.45-4-3.12a28.36 28.36 0 0 1-5.92-3.12c-1.57-1.07-3.35-2.28-5.07-3.36-2.56-1.61-2.93-2.46-4.2-4.92-2.37-4.57-5.37-9.12-11-6.29a33.4 33.4 0 0 0-5.6 3.55c-.52.41-2.88 1.53-2.91 2.34-.06 1 1.88 1.73 2 2.9-2-2.53-3.08-2.54-5 .26-1.5 2.18-1.43 4.7-4.11 6-4.13 2-11.7-2.16-9.22 6.19-1.5-.14-2.46 1-3 2.23 1.69-.27 5.07-.37 5.68 1.2 1 2.68-2.36-.31-2.73-.14s-.95 2.43-1.2 2.86a21.07 21.07 0 0 1-1.93 2.26c-1.32 1.6-3.81 4.63-2.81 6.78-1.9.24-4.25 2.72-5 4.38-.34-1.45 1.1-2.08 2-3a8.76 8.76 0 0 0 2.48-3.8 28.94 28.94 0 0 1 2.38-4.23c.42-.65 3-3.27 3.05-3.72.27-2-1.26-.91-2.06-1.63s-.12-.37-.53-1.36c-.62-1.5.92-1.28-1-1.75-1.24-.3-3.76.56-5.11.68 1.49-1.62 5.35-.23 7.22-1.38a2.27 2.27 0 0 0 1.36-2.37c0-1.25-1.64-2.38-1.47-3.14.31-1.4.77-.68 1.49-1-.38.19 2.31-.52 1.69-.53.35 0 .83-.41 1.16-.45-.51.06 2.21.87 2.13.85 2.34.71 4.94 1.41 6.55-.81.69-.94.72-2.21 1.22-3.25a12.57 12.57 0 0 1 2.43-3.18c2.09-2.29 2-4.23 3.1-6.76.54-1.21 1.84-1.63 2.09-2.89-1.18-.28-1.35-1-2.11-1.8-.08-.08-.61-1-.79-1.15s-.75.25-.91.1a52 52 0 0 1-4.58-5.8 9.69 9.69 0 0 1-1.61-6.68 6.81 6.81 0 0 0-1.92-5.41c1.86-1.29.76-2.58-1.27-2.54-.29 0-1.33.9-1.6 1-1.37.26-1.22-.21-2.59.58s-.11.9-2.09 1.31c-1.54.33-3-.21-4.55.4-2.83 1.13-3.57 4.11-4.74 6.64-.61 1.33-1.49 2.51-2.13 3.77-.23.46-.82.65-1 1.12s.46.46.31.9c-.34 1-.64 2-1.09 3 0 0-1.32 2-.89 1.67a3.19 3.19 0 0 0-.38.31c-.05-.07-.23-.11-.71-.06a17.43 17.43 0 0 1-2.17-.21c-.76 0-3.24-.33-2.09.67-.78.61-1.47 1.61.13 1.59-1.13.84-2.13 6.08-1 6.73a3.58 3.58 0 0 1-1.65 0c.43.18.53.47.8.71-.37.45-.95.21-1.27.4s-1.84.49-2.43.8c-1.89 1-1.33 2.5-3 3.75a8.33 8.33 0 0 1 1.29-3.91c.28-.43 1-1 1.39-1.51a7.73 7.73 0 0 0 1.72-3.35c.15-1.08-.59-1.86-.18-2.94.32-.84 1.42-1.18 1.85-2 .16-.32-.54-.93-.32-1.38a7 7 0 0 1 1.41-1.35c2.51-1.94 8.35-4.3 8.8-8 .34-2.72-3-2.1-4.9-2.39-2.5-.38-3.87-1.38-6.05-2.43a4.06 4.06 0 0 0-2.82-.67c-1 .21-1.37 1.07-1.84 1.21-.8.23-3 .21-3.28-1.73-1.27.57-4-2.59-4.59-3.62-.3-.51.34-2.38-1.18-2.05-.37.08-1 2.37-1.58 2.68 1.41-3.86-.65-5.07-4.44-5.53-2-.25-5.65-.4-6 2.41l-6.47-3.07a17.44 17.44 0 0 0 .91-1.71c.35-.77.66-.83 1.21-1.59.7-1 2-2 .26-2.81 2.8 0 4.29-2.57 3.28-5.2-.77-2-3-4.36-4.41-5.78-4-4-5.15 4.27-8 2.09 1.48-1.58 3.8-2.92 4.86-4.78s.42-6.32-2-7.06c-1.67-.52-3.45 1.11-5.17 1.19-.27 0-1.59-.25-1.71-.2-1.7.73.25.52 0 2.36-1.26-1.19-1.76-1.44-2.14-3.12-.19-.85-.53-5.29-.16-5.64.77-.74.62 4.95 3.13 4.91 2.09 0 4.66-2.71 4-4.48-1.27-3.32-4.61-3.58-7.3-5.44-1.07-.73-2-2.28-3.17-2.75s-2.19.13-3-.47a10.07 10.07 0 0 0-.89-2A5.27 5.27 0 0 0 267.58 8c-2.81-1.26-3.07-.14-4.37 2.2-.26.46-1.61 3.44-2.33 1.15-.39-1.25 2.72-3.63 2.27-4.86-.28-.78-5.77-3.5-6.65-3.6s-.4-.45-1.15 0-1.27 2.28-1.7 3c-.92 1.62-1.21 3.27-2.46 1.52-.16-.21.68-1.28.51-1.47s-.8-.5-.84-.54-.74.14-.86.08c-1.12-.5-1.12-1.27-2.66-.23-1.28.86-.75 2.36-2.87 2.34C244 4 252 3.39 247.88 1c-3.35-1.93-7.5-.54-11-.31-3.38.23-6.19.07-9.44 1.37-1.36.55-2 1.48-3.28 2.09-.86.41-1.63 0-2.64.65s-1.72 1.58-3 2.28c-5.88 3.29-11 7.89-16 11.32a28.11 28.11 0 0 1-7.44 4 12.35 12.35 0 0 0-6.73 6.32c-.25.57-.37 2.58-.7 2.8a7.14 7.14 0 0 0-2.47-.58c-.83.23-1.65 1.7-2.07 2.56-.34.7-.38 2.19-.71 2.73-.43.72-1.45.91-2 1.52-.28-1.92-4.33-1.26-5.85-1.18-1.06.05-3.18-.17-4.07.6s-.53 1.21-.55 2.56c0-.05 0-.05 0 0-1-2.33-3.12-1.47-5.21-2.62-1.37-.76-4.12-3.19-5.92-2.2s-.05 4.12.75 5.35c1.23 1.9 3.09 3.37 3.5 5.83s-1.23 3.48-2.51 5.26-2.79 3.45-4 5.19c-1 1.39-1.07 2.55-2.15 3.76s-1.88 1-3 1.43a13.12 13.12 0 0 0-3.12 2.27c-.38.28-.94.47-1.29.78a11.22 11.22 0 0 0-1.22 1.57c-.86.51-1.67 0-2.1.19s-.36 1-.37 1a12.69 12.69 0 0 0-2 .9c-.55 1.09.25 1.37.38 1.82-.09-.3.78 1.08.81 1.15s-.63.87-.24 1.63c.13.25 1.09.47 1.34.69 1.07.92 2.06 2 3.22 2.84.33.25 1.7.74 1.91 1.14.37.69-.47.89-.24 1.67.47 1.66 2 2.7 2.24 4.49.35 2.52-2 5.86-2 8.93-.72-2-.12-3.58-.27-5.63a12.66 12.66 0 0 0-1.42-3.94c-1.06-2.6-1.28-4.69-3.9-6.29-.8-.49-.26-1.23-1.59-.64-.75.33-1 1.67-1.18 2.34-.54 2.37.56 4.51-.78 6.48-.46.68-5.61 5.46-7.38 4.86-2.89-1 .68-1.51 1.49-1.94.25-.13.25-.64.51-.83.42-.31 1.19-.61 1.62-1a4.07 4.07 0 0 0 1.69-3.79c-1.3.64-3.2 1-4.17-.16 1.7-.06 5.78-3.48 2.53-3.91 1.8-.89.1-1.41.6-2.28.77-1.32 1.62-.93 1.71-3.09.13-3.06-1.63-4.34-3.52-1.87 1.5-5.81-6.14.15-7.62-2.08-.78-1.16.74-4.8-1.29-4.85-1.34 0-3.95 3.63-4.73 4.6-.38-1-.32-.46-1.25-1.19 0 0 .05 0 0 0 2.59.55 3.71-4.69 6.37-4.77 2.05 0 2.94 3.06 5 3.55a24.49 24.49 0 0 0 4.84-.06c2.22-.35.62-.45 2.09-1.16.57-.28 1.21.46 1.64.22s.82-1.43 1.25-1.78 1.59-.57 2.27-1a23.68 23.68 0 0 0 4.38-3.7c1.69-1.8 1.48-3.5 2.48-5.43 2.22 1 4.24-4 5.4-2 .45-.67.77-1.56.25-2.11-1.12-1.17-2 .46-2.48.34-1.26-.31-1.09 0-.92-1.83.06-.7.83-1.39.65-2.16s-1.58-.6-1.57-1.4c0-1 3.16-1.52.35-2.38 1-1.91-.91-2.15-1.31-3.54a16.79 16.79 0 0 1 .23-4.53c.25-1.22 1.24-.44.86-1.9-.25-.94-1.27-1.07-1.9-1.61-1-.85-2.06-1.72-3-2.64-1.65-1.68-2.62-4.38-4.41-2.65s-.25 6.19-2.19 7.14c.13-.78.72-2-.38-2.16-1.62-.3-1.56 1.69-2 2.3s-1.95 2.42-3 2.77-1.58-.7-2.79 0c2.14.62 2.22 2.38.68 4-.11-.75.57-1.64.43-2.29s-1.58-1.07-1.38-1.81c.28-1 4-1.38 5-2.62.63-.81.69-1.72 1.5-2.58.66-.69 1.27-.77 1.8-1.52a24.32 24.32 0 0 0 2-4c-.41-1.83-3.4.41-4.55.75-.72.21-1 .56-1.77.43-1.93-.34-.59-.23-1-1.44s.49-1.7-1.32-2.19c-.78-.22-2.12.36-2.91.54-2 .44-4.09.68-6.08 1.16-2.38.59-3.15 1.79-5 3.25-1.59 1.27-3.55 1.83-5 3.42-1 1-1 1.28-2.07 2.32-1.31 1.3-2.62 2.4-4 3.64-2.93 2.56-5.91 6.49-10.17 6.78-1.69.11-3.42-.76-4.93 1.07-.53.65-.37 2.07-.9 2.32s-.79-.93-1.28-.94c-2.45 0-2.91 2.2-5.2 2.6-2 .34-2.68-1.23-4.07 1.19-.23.4.18 1.61 0 1.83s-1.11.46-1.32.68c-.57.6-1.17.47-1.71 1.51a10 10 0 0 0-.69 2.57c.29 1.62 2 1.33 1.67 2.8-1.22-1.08-3.62.64-1.85.93-.72 1.46-3.46 4.08-.76 5.34-.25.17-1.59.42-1.72.58-1 1.19.1 1.26-.39 2.28s-1.19.7-2 1.62c-.41.49-.86 2.35-1.37 2.43s-.3-1.36-.8-1.39c-1.38-.09-1.84.33-2.6 1.43-.45.65-.22 1.4-.73 2.13-.84 1.2-1.23-.18-1.39 1.87-.3 3.83-.45 7.25-.63 11.2 0 1.2.32 1.58-.08 2.81-.19.59-.86 1.57-1.19 2.28a19.29 19.29 0 0 1-2.17 4.33c-.7.87-1.76 1.3-2.32 2.4s0 2.3-.85 3.88c-.9 1.74-5.07 7.39-4 8.71-1.08-.12-1.84-1.79-2.92-.8l.84.42c-1.54.84-1.71.87-2.31 2.24-.33.72-.66 2.4-1.25 3.49q-2.17 4-4.42 8c-1.11 2-2.89 3-4.17 4.87-1.54 2.22-1.81 5.28-3 7.71-.25-2.21-2.79-1.41-3.88 0-1.23 1.62-.6 7.17 2.06 5-.73 1.7-2 3.25-2.5 4.91a24.65 24.65 0 0 1-.1 2.48 15.61 15.61 0 0 1-1.22 3.5c-2.64 5.18-4.41 11-6.37 16.64s-3.86 11-5.8 16.44c-1.57 4.44-4.12 8.82-5.45 13.22-.86 2.86 1.38 5.69 2.78 8.17.39.68 2.05 2.68 2.07 3.45 0 1.17-1.22 1.79-2.11 2.74 0-.6 1-1.38 1.19-1.94-2.42 2.14-1.74 4.14-2.67 7.09s-1 3.79-4 2.93c.15-.29.16-.52.32-.81-.67.52-1.56-.1-2.17.24s-.41-.76-.86.13c.11-.22 1.75 2.11 1.75 2.11.13.17.22 1.25.32 1.53s.85.09 1 .39c.31.89.76 2.88.32 3.78-.62 1.28-4.06 2.35-3.74.34l-.46.03c-.3 1.89-3.56-.39-4.9 1.05-1.1 1.18-3.88 7.67-1.63 8.25-.09-.86.36-2.35 1.48-2.42-.49-.33 0-.43-.79-.54A13.06 13.06 0 0 1 4 231.82c.77-.67 3-.47 4.24-.34 3.66.38 6.84.27 6.87 4.64 0 1.79-.09 3.47-1.4 4.78-.42.41-1.2.34-1.52.7-.86.94-.49 1.83-1.09 2.72-.37.54-1.73.85-2.34 1.18a3.29 3.29 0 0 1-1.23.48c.07 0 .29.3-.23 1.75S5.53 248.94 5 250c-.29.64.27 5.22.49 5.5 1.09 1.36 1.33.38 2.55-.23 1.72-.86 2.14-1.17 4 .4 2.26 1.85 4.63 4.92.92 6.88a9.72 9.72 0 0 1-3.57.76 14.4 14.4 0 0 1-2.22 0c-1.19 0-.53 2.83-.17 3.94.52-.76 2.08-1 3-1 2.22 0 1.62.19 2.53 1.65s2.62 4.16 2.12 5.82c-.58 1.94-4.22 2.56-5.85 3.16s-3.25.84-4 2.43.33 3.86-.12 5.57-1.53 2.76-3.22.8c-1.32-1.53.14-4.69-1.53-5.09 0 5.22 1.6 6.87 6.75 8.21 2.61.68 5.23 1.34 7.85 2 1.58.41 5.21 2.13 6.78 1.73.64-.17.8-.26.22-.85-.93-.94-4.88-1.29-6.11-1.62-2.21-.59-10.95-1.32-9.53-4.75 1-2.33 2.45-.89 4.37-.95 2.72-.08 1.7-.91 2.44-3.38a8.77 8.77 0 0 1 1.3-2.08c.38-.41 1.53-.9 1.71-1.15 1.18-1.63.76-2.86-.24-5.07-.48-1.05-2.23-3.47-1.75-4.62 1.07-2.56 5 .57 4.68-3.43-.1-1.29-1.5-3.14-2.05-4.3l-3.6-7.52c-2-4.11-1.6-5.6 2.49-7.53 1.85-.87 12.18-4.14 12.18-6.49 0 .29-4.34 2.1-4.86 2.35-2.14 1-3.57 2.66-4.22.44-1.22-4.16 6.11-5.78 8.69-7 1.37-.66 10.31-6.38 11.72-5.11a11.77 11.77 0 0 1-.33 3.35c-.53 1.21-.53 1-1.89 1.74-1.72 1-4 1.76-5.5 2.62 1.93.06 6.27-1.59 7.42-2.93s.75-5.2.87-7.21c.17-3.06.8-4.29-1.17-6.18-.71-.69-2.52-.58-1.31-2.13.45-.58 2.06-.44 3-.28s.3.73 1.11.82a9.08 9.08 0 0 1 2.56-.49c1.91.13 3.9.4 5.61-.7 3.93-2.55 1.83-6.8.17-10-2.86-5.45-5.86-10.47-8.49-15.53-.9-1.72-1.8-3.59-2.82-5.33a17.93 17.93 0 0 0-1.72-2.5c-.45-.54-.93-1.06-1.39-1.59-1.22-1.42-1.32-1.17-.83-2.71.4-1.25 2.91-5.79 4-3.08.45 1.12-.63 1.37-.38 2.42a7.8 7.8 0 0 0 1.78 1.8c.45 0 .78-.81 1.21-.79.88.05.9.49 2.1.79s.9.49 2 0c1.91-.89 3.53-3.89 5.08-5.36a3.74 3.74 0 0 0 .24.4c-.78-1.66 2.41-1.14 3-1.11-1.71 1.39.1 1.25.07 1.52-.16 1.44-1.16 2.08-2.45 3.55a36.26 36.26 0 0 0-2.9 3.2c-1.14 1.83-.45 2 1.18 3.62 1.82 1.81 1.81 2.26 3.6.41a32.49 32.49 0 0 1 3.58-3.56c1.33-1 3-3.18 4-1-1.21 1.48-3.8 4.74-5.38 4.29 2.3 2.29-6 4.71-2.48 7 .84-.73 2.48-3.27 3.45-1.87-.73.59-3.31 2-2.7 2.81.85 1.12 1.71-1.48 2.63-1.46a20.2 20.2 0 0 1 4.09 3.48 13.79 13.79 0 0 0-2.76 2.44 2.42 2.42 0 0 1 1.41-.81c.18-.06.28.49.75.31.24-.09 1.28-1.32 1.59-1.29 1.82.23.31 1.93.69 2.37 1.25 1.45 4.73 2.71 5.81 3.63 0-.16-.08-.43-.08-.52a3.15 3.15 0 0 1 1.74 1.75c-1.16.53-3 1.71-4.08 1.55v.06c1.16.26 3-1 4.14-1.54 0 .43-.07 1.21.57 1.5 1.57.71.47.78 2.17-.17a39 39 0 0 0 5.15-4c1.62-1.35 2.4-1.91 1.5-3.59-.44-.8-2.78-2-1.52-2.36l-.68-.75c0 .13 0 .43-.12.58-.86-.9-2.21-3-3-3.19 1.21-.49.15-2.09.27-2.9s1.53-1.14.06-1.73c-.24-1.66 2.49-1.35 4.18-1.65.57 3.22.52 4.86 2.31 6.86 1.44 1.61 3.46 6.29 5.82 3.68.77 1.17 2.14.32 2.49-.83s-.31-3.48-.53-4.71c-.18-1 .26-6.68-.82-6.28-.41-1.4.45-3.82 1.89-.79a5.17 5.17 0 0 1 0 3.37c1.18 0 .93 3.3 1 4.44.31 3.1.57 3.05 3.91 2.55 1.85-.28 3.71-.19 5.59-.54 2-.36 2.07-.46 2.4-2.17.23-1.24.26-3.94-.56-4.76.17-.46.26 0 .21-.77a17.38 17.38 0 0 0 3.28-1.22 15.68 15.68 0 0 0 2-.83c-.28 1.06-.29.9.3 1.51-.87.49.72 1.66 1.52 2.26.15-.55.07-.23.32-.58-.2 2 2.1 1.16 2.8 2.13 1.56 2.11-1 1.45 1.4 2.19.64.2 4.71.26 5.22-.16 1.4-1.14-.69-4.95.4-6.46-.25.35 2.61-.71 2.33-.79.43.12.64.36 1 1 .71 1.39.07 4.87.07 6.55v6.44c0 1.68.66 5-1 5.25-.78.14-1.86-.79-2.43-.93-1.53-.37-2.4.14-3.68.91s-2.19 1.51-1.15 3.12c.87 1.35 3.32 2 3.47 3.85 0 .5-.63 1.51-.67 1.88a15.55 15.55 0 0 0 .27 2.34c.37 1.2.81 2.81 2 3.55.53.32 1.73 0 2 .2 2 1.82-2.17 2.36-2 4.11-4.33.15-5.47-6.39-7.53-9.11s-2-1.9-4.46.22c-.78.67-1.45.77-2 1.76-.12.24.47.87.41 1.19-.21 1.2-1.82 1.26-.38 2.52a6.28 6.28 0 0 0-1.31 1.73c0-.06-.73 2.34-.32 2-.89.79-2.39-.32-1.89-1.29-1.69-2.8-3.22 1-4.17 2.34-1.3 1.77-.93 1.74-2.41 1.17s-3.21-2.93-4.24-3.89a39.9 39.9 0 0 0 7.06-6.86c.91-1.27 1.06-2.62 1.93-4s3.49-2.89 3.92-4.43c.59-2.15-2.47-1.07-4.42-1.07a23.78 23.78 0 0 0-5.4.26c-4.31 1-8.39 4-12.07 6.34-4.24 2.71-8.23 5.86-12.39 8.69-2.54 1.73-5 3.53-7.57 5.24-.44.29-2.27 1.13-2.55 1.68-.42.82.38 1.6.12 2.47-.42 1.4-1.75 1.73-1.85 3.4a7.09 7.09 0 0 0 1.1 3.85c1 1.45 2.62 1.39 3.54 2.57 1.15 1.48-.69 2.82-.59 3.43s1.68 1.63 2.49 2.73a37.82 37.82 0 0 1 2.51 3.8c.84 1.47 1.08 2.93 1.79 4.24.94 1.69 2.15 2.17 3.6 3.17 1.3.9 2.23 2.08 3.69 2.68 1.65.67 3.12.21 4.65.6a6.41 6.41 0 0 0-.52-.39 7 7 0 0 1 1.21.26 2.68 2.68 0 0 1-.18-.7s.21.4.31.45c.44-3.66 2.72-7 4.8-10.17 1.3-2 1.84-4.43 3.32-6.47.57-.78 1.72-1.69 1.58-2.58s-3.76-3.43-4.56-4.13c1-1.11 3.7-5.3 5.2-5.72 1.1-.31.43-.16 1.64.57.62.36 1.22 1.52 2.08 1.82 1 .35.81-.53 2.09-.17a5.53 5.53 0 0 0-.4.81c1.18.13 3 .39 3.12-.89 1.33.18.91 1.41.84 2.65-.11 2.07.21 2.16.81 3.61a49.61 49.61 0 0 1 1.77 5.74c.32 1.16.52 3 1.15 4.06.88 1.4.29 1.09 2 .82 2.31-.35 19.24-6.5 18.82-9.36-.34-2.28-9-5.49-10.91-6.59.51-1 1.21-3.72 2.41-3.93.49-.09.85.68 1.31.7 1.55 0 .27.42 1.66-.2s.25-2.21 1.44-1.06c.42.4.11 1.76.36 2.24.74 1.37 2.84 2.21 4.26 3 2.08 1.13 5.39 4.55 7.75 4.34 2.09-.19 4.64-3.24 5.76-5 2.73-4.29-2.86-2.16-3.64-4-2.37.42-10-3.81-10.56-6.22-.19-.25.15 0 .15 0 1 2.14 5.91 4.68 8.12 5.57 3.53 1.43 2.91-1.73 5.75-2.35 1.08-.24 3.18.88 4.38 1.16 1.78.42 2.81 1.09 4.39.92a12.83 12.83 0 0 0 5.49-2.15c3-2.28 1-3.67-1.56-5.73s-4.52-1.3-6.67-3a30.25 30.25 0 0 1-4.08-4.08c-3.05-3.4-3.74-12.59-10.28-8.33 1.45-1.18 1.16-2.21-.76-2-.78.07-.45 1-1.88 1.18-4.75.53-5.49-2.14-5.46-5.9 0-.89-.46-3.5 0-4.08.85-1 1.15.34 1.49.31 2.62-.18 8.16.44 10.08-.69a10.48 10.48 0 0 1-1.77 0c1.54-2.2-3.43-5.4-5.4-6.59-.49-.3-1.55-.55-2.38-.89-1.23-.52-.84-.27-1.78-1.29-1.48-1.61-.81-2.25 1.52-1.66a10.33 10.33 0 0 1 5.36 2.73c1.26 1.13 2.44 2.2 3.81 3.26 1 .77 5 3.89 6.24 3.51 1.57-.48 0-4.84-.8-5.18s-2.73.86-3.16 1.5c.25-.51-.08-1.12-.1-1.56s-.6.25-.54-.28a9 9 0 0 1 .78-1.63c.8-2.07 1.69-3.64 2.39-5.74.51-1.55 3-4.58 2.71-6.06s-3.15-2.15-4-3.26c2.12.21 3.69 3 5.35 1.79 1.17-.84 3-4.27 3.61-5.53s1.39-4 0-5.41c-1.2-1.17-3.65.77-4.85-.74-1.38-1.72 1.35-5.22.95-7.41a17.11 17.11 0 0 0-1.81-4.08c-.28-.6-1.15-2.7-2.16-3.05s-1.82.29-2.64.08-1.11-1-1.84-1.25a3.09 3.09 0 0 0 1.05-1.94c1.1.21 2.22-.2 3.3.13 1.31.4 2.25 2.39 3.28.05.83.92 1.68.6 2.42 1.54.91 1.15 1.38 3.16 2.15 4.2s4.57 6.88 2.31 7.94c-3 1.38-2.67-4.27-5.19-.52-1.19 1.76-2 2.75-.12 3.39.94.32 3.87.52 4.64-.09-1.21 1.51.39 2.47.61 3.93a6.16 6.16 0 0 1-.66 3c-.44 1.32-.58 2.75-1.1 4a38.49 38.49 0 0 1-2.46 4.18c-1.35 2.39-3.84 4.76-3.6 7.73.05.61.79 3.22 1.27 3.56.31.22 4.19.37 4.91.48a4.86 4.86 0 0 1-.39 1.84c-2.57-1-5-1.15-3.42 1.91.73 1.43 1.4 1.81 3.11 2.22 2 .46 4 .78 6 1.29 3.64.94 4.08 1.16 6.9-1.61a7.77 7.77 0 0 1 .51.71l.24-.52c-.15.33-.26.89-.48 1.28.16-.2.51-.51.64-.66.06 2.05.06 3.67 3 3.28-.1.32 0 .74-.12 1 .66-.54 4.75.15 6.4-.05a17.43 17.43 0 0 1 3.36-.47c.62.05 2 1.59.83.19.16-.32.37-.49.37-.77.48.15.79 0 1.05 0-1-.37-1.37-1.4-1.72-2.52-.51-1.65-1.55-3.77-2-5-.55-1.6.05-2.18-1.17-3.46a5.22 5.22 0 0 0-5.3-1.18c-1.08.29-3.7 1.69-3-.62.35-1.13 1.55-.94 1.71-2.46.18-1.76 1.06-7.69 3.42-7.33-1.17 2.06-4.4 6.21-1.65 8.18 1.33 1 3 .56 4.34 1.55s5.75 7.36 4.52 8.41c1.95 2.21 3.6 3.59 5.75 5.74 1.23 1.22 1.86 1.45 1.7 2.86-.1.85-1.69 3-2.19 3.69l13.22 8-3.75 6.17c-4.28-2.62-8.69-6.27-13.31-8.16s-6.35 1.94-8.65 5.44l23.72 14.18 8.75-14.77c.38.24 3.05 1.57 2.34 2-1 .66-1.92-2.17-2.93-.24l17.7 10.44c.15-.9 1-2.51 2-1.54.62.6.08 1.34-.19 2.13a10.29 10.29 0 0 1 1.33-1.84c-1.85 2.34 1.76 1 2 1.18.62.45-.36 1-.06 1.43s.75.28 1.2.7c1 1 2.58 2.55 3.27 3.26 1.12 1.15 3.25 3.2 4.54 3.74-.27-1.43 1-1.68 1.2-2.72.3-1.27.12-1-.86-2.1-2-2.31-3.91-3.07-3.17-6.52l.37.07c-.31 2.81 1 4.07 3.13 5.67.66.51 2.45 2.59 3.5 2.62 1.65 0 1.41-1.68 2.25-2.08s1.75 1.09 3.12.09a4.16 4.16 0 0 1-.18 1.1c.19-.21.39-.41.59-.62a5 5 0 0 0-.11.84c.16 0 .32-.36.47-.14-.14 1.73 2.75 2.25 3.67 2.25.59 0 2.37-.34 2.63 0 .71 1.05-.8 1.8-1.73 1.55 0 .12 0 .24-.08.36a3.86 3.86 0 0 0 2-.3c.18-.06-.13-.88.17-1s1.22.08 1.59 0c3.2-.46 2.64.74 2.67 3.4.94-.24 2.07 2 3.32 2.61a6.89 6.89 0 0 0 4.54.55c1.14-.34 0-1.78 1-.41.34.48.06 1.34-.11 1 .74 1.3 4 1.53 5.7 1.95.46-1.55 5.64-2.63 7.25-3.38-2-1.77-4.62-5.19-7-6.26s-6-.4-8.27.69c-1 .48-4.15 3.18-5.16 3s-1.28-2.13-.72-3c.94-1.54 7.21-4.62 9-5.08s6.67-.67 8.44 0c1.37.53 3 2.73 4 3.71.49.46 2.78 3.22 3.45 3.18 2.56-.16-.62-2.93-.85-3.44-.34-.74-1.33-2.69.82-2.44 2 .23 5.11 8.53 7.06 6l-1.62-1.8c.52-.14.69-.56 1.27-.64-.74-3.27-.18-7.15-.2-10.52.44-.07.41-.16.69-.26-1.11-.14-2.66-1.57-.91-1.59a10.94 10.94 0 0 1 3.63 1.62 14.07 14.07 0 0 1 1.55 1.08 3.92 3.92 0 0 0 .41 1.48 10.82 10.82 0 0 0 2.69 1.37c3.09 1 5.15-1 7.53-2.76 1.79-1.34 5.68-3.34 6.86-5.24 2.77-4.46-4.65-8.73-7.95-9.89-2-.72-4.95-2.25-6.28-.64.37-.44-.39 2.06-.43 2.15a45.82 45.82 0 0 1-2.74 4.34 5.48 5.48 0 0 1-1.54-1c.89-1.87-1.52-.26-1.74-1.61a2.57 2.57 0 0 0 .82-.46l-.3-.19v.36h-.36a1.41 1.41 0 0 1 .72-1.5c-1.51-.84 1-1.53.37-2.89-.85-1.87-2.37.9-3.43.84-2.06-.11-1.36-2.34-2.12-3.44-1.18-1.73-3.12-1.54-4.64-.57 1.09-4.24 5.68 1.36 6.8 2 1.81 1 .9 0 2.53-1 1.35-.85 3-.61 4.73-.65a2.68 2.68 0 0 1-1.06-1.95c.76.58 1.53 1.88 2.18 2.17a13.15 13.15 0 0 0 4.38.37c2.76-.09 3-1 2.81-3.68-.16-2-1-4.29-.87-6.31.21-2.49 2.26-3.82 4.29-5-1.07-.5-.78-1.38.25-1.47a21.27 21.27 0 0 0-2-2c-.87-.94-1.56-2.46-2.14-2.81 1.27-1.86 1.14.77 2.2 1.3 1.21.61 2.09.16 2.12-1.22 1.88-.4 1.74-3.22 1.38-4.69-.22-.95-1.09-1.59-1.14-2.65s.81-2 .74-3.09c.27-.05.66-.11 1.22-.25 0 .95-1.17 2.31-1 3.45.27 1.45 1.16 2.58 1.49 4.12.15.72.89 1.42.61 2.25s-1.28.8-1.55 1.3c-.42.78-.89.69-.57 1.71.5 1.62 1.19.08 2.26.88 1.6 1.19.25 2.25.67 3.44.32.88 1.85 1.79 2.7 2.18 3.33 1.54 5.93-1 7.9-3.65 1.34 1.13-2.62 4.45-3.92 5-2.8 1.21-5.42-.57-7.49-1a7.19 7.19 0 0 1 .73.73c-1.6.83-4.23 0-5.13.25-2.19.6-1.42 2.47-.89 4.32a28.7 28.7 0 0 0 5.53 11.25c.65.75 3.31 4 4.26 4.07s3.91-3 4.83-3.56c.65-.4 1.17-.38 1.87-.81.93-.58 1.66-1.54 2.67-2.1 1.91-1.05 3.24-2.3 5.15-3.43 3.23-1.9 6.23-3.76 9.64-5.54 3.2-1.66 7.51-2.49 11.09-3.62 7.42-2.32 13.54-4.41 20.86-6.49 2.52-.71 5.54-.34 7.95-1.63 2.2-1.17-.32-2 2.07-2.81.82-.26 1.81-.36 1.75.67s-1.48 1.17-1.91 1.59c1.65.53 3.18-.28 4.72-1 1.34-.63 2.71-.95 4.14-1.56a21 21 0 0 1 2.84-1.35c.95-.27 2-.37 3-.68a47 47 0 0 1 5.09-1.21c1.32-.25 3.31-.32 4.22-.54.39-.1.65-.74 1.08-.77.84-.06 1.57.37 2.18.21.36-.1 1.89-1 2.24-1.16a18.06 18.06 0 0 0 2.46-1.22c.74-.46 2.13-1.42 3.2-1.16-1.28-8-8.49-10.64-12.24-17.07 1 0 2.07 2.6 3 3.56 1.84 1.94 4.53 3.23 6.23 5.29 1.21 1.48 1.89 3.58 2.72 5.32 1.56 3.27.78 2.24 3.74 1.38a22.75 22.75 0 0 1 5.4-.83c1.76 0 3.06.61 4.76 0 .42-.16.72.62 1.29-.18.41-.58-.07-3.13-.09-3.84 0-1.68-.82-5 .36-6.38.16 2.69.39 5.38.49 8.07.08 2.44-.44 3.11 2 2.91 2.08-.17 4.67-2.1 6.69-.65 1.6 1.15 1.35 3.79 1 5.57 2.3-.57 5.4-2 7.75-1.93s5.31 1.68 7.44 2.48 3.61 1.71 6.05 1.14c2.29-.54 4.25-2 6.16-3.35 3.88-2.76 9.5-3.27 14.28-2.82 3.33.32 1.16 1.51 2.12 4.42.66 2-.41 1.1 2 1.45 1.3.19 2.61.44 3-.64-1 0-3 .53-3.84.12-1.15-.55-.18.22-.75-1.1-.43-1-.86-7.71-.29-8.56s3.48-.59 4.79-.53c3.31.17 2.28 1.85 2.36 5 .83-.05 3.66.3 4.26-.25 1.35-1.25-.2-1.91-.28-2.69-.18-1.69.73-7.17-.35-8.1s-6.21.11-7.95.16c-3.09.1-6.17.24-9.25.35 1.84-4.26 3.66-8.47 5.22-12.83 2 .7 5.89 4.05 8 3.05-1.82-1.93-4.1-2.78-6.15-4.27-1.89-1.37-1-.29-.55-1.6s1.59-2.57 2.23-3.8c.73-1.43 1.07-3.07 1.81-4.46.94-1.81.43-1.26 2.39-1.18.5 0 2.73 1.11 2.28-.32-.18-.59-2.85-1.17-3.44-1.34 1.63-1.9 1.25-1.79 3.4-1.19.88.25 3.68 2.23 4.38 2.05a3.31 3.31 0 0 0 1.44-1.69c.38-1.43.11-1-.94-1.83-1.35-1.1-3.17-1.07-4.64-1.9-1.73-1-1.59-1.44-.63-3.44.58-1.2 1.87-3.33 3.2-3.42 3-.2 6.81 4.25 9.6 5l.19-.37c-1.44-1.07-2.85-2.15-4.25-3.26a112.1 112.1 0 0 0-11.21-7M550.83 65.12c-1.46-2-2.24-4-4-5.88-1.52-1.68-3.43-2.76-5.14-4.4a22.7 22.7 0 0 0-6.2-4.44c-2.25-.91-4.82-1.19-7.11-2.31-2.45-1.2-4.42-2.41-7-2.87-1.19-.21-2.38-.8-3.6.22-.7.57-.54 1.7-1.48 2.4-2.57 1.89-4.28 0-6.44-.45-.81-.18-1.92.39-2.69.1-.53-.19-.62-.76-1.12-1.05a23.56 23.56 0 0 0-2.66-1.5c-.75 1.44.08 2.29-.92 3.78a17.75 17.75 0 0 1-3.65 3.28 4.09 4.09 0 0 1-2 .94c-1 .17-1.15-.42-1.93-.39-1.48.05-3.26 1-4.76.52-.93-.29.11-1.37-1.55-1.22a4.32 4.32 0 0 0-1.7 1.65c-.34 1 .35 2.92.59 4 .75 3.18 3.12 6 2.12 8.62s-4 5.4-1.84 8.23c1.75 2.27 5.26 3.36 7.3 5a6.35 6.35 0 0 1 2.77 3.61c.92 2.74.4 2.48 3 3.2 1.25.34 2.52.65 3.8 1 1.06.25 2.95 1.19 3.88 1.09 1.4-.16 4-2.24 5.46-2.93 2.23-1 2.41-.86 4.94-.69 1.74.12 3.17-.5 4.79-.86-.6 2.66-4.45 1.69-6.22 1.55s-3.93.84-5.59 1.68c-2.55 1.29-2.19 2.22-5.1 1.68-2.11-.4-4.63-1.71-6.8-1.49 2.78 1.67 5.17 6.56 7.05 9.18 2.21 3.11 4.59 4.69 4.43 8.65-.23 5.41 3.91 3.17 7.18 1.62 3.77-1.8 7.94-2.91 11.78-4.54s7.46-3.29 11.2-4.91c2.87-1.24 3.73-1.18 4.24-4.08.17-.94.24-1.89.49-2.81.14-.49 0-1 .1-1.43s1-.69 1.17-1.18c.33-1.14-.12-2.45.33-3.82a50.17 50.17 0 0 0 1.31-5c.27-1.26 1.46-3.82.92-4.72-.67-1.13-1.73.16-3.14.56a54.28 54.28 0 0 0-8.38 3c-1.66.78-2.54 2.2-4.32 3s-3.88.08-5.61 1.2c-1.21-2.1 5.26-1.87 6.51-2.71 1.47-1 1.61-1.72 3.17-2.44 1.09-.51 2-1.09 3.09-1.55 2.52-1.06 5.23-1.29 7.59-2.5 1.06-.55 2.81-1.16 3.43-2.45.87-1.8-.74-3.42-1.71-5"/></svg>