<svg id="Слой_1" data-name="Слой 1" xmlns="http://www.w3.org/2000/svg" viewBox="0 0 422.89 308.94"><defs><style>.cls-1{fill:#ca233c}</style></defs><path class="cls-1" d="M201.55 186.02l.02-6.05 1.24-2.64 1.24-2.01-.62-1.38.62-1.35.04-2.68-2.21-2.99-2.15.31.62-1.34v-1.99l-2.48-2.03-.02-1.32-.93-1h-4.3l-.64.64h-7.48l-1.84 1.34-1.84.03-1.57 1.65.02.69.93 1.01.93.33-.64.67.04 2.02.89 1h1.88l.89 1.01.31 4.37 2.52-.04 1.53 1.03-1.24 2.01.02 1.32.29.38 1.24-.02.62-.68.33.32-1.28 2.7.02 1.34-1.24 2.01v2.01l.62 1.34 3.41.99.62-.65h2.48l.64-.67h4.94l1.53-1.68zM164.37 181.35l-1.22-2.05-.6-2.66-1.55-1.68h-.64l-1.28-2.05-2.44-.63-.66-.69h-1.84l-.95 5.05-1.48.29-.96 1.05-.93 1.68-3.74 1.36-1.86 3.35-1.88-.07-1.5 1.7-.29 1.68-1.93.66-.55 1.37-.98-.36 1.88-4-.95-1.7-2.47-.62-3.11 3.33-1.24-.02-2.16 1.69-.03 1.34-1.51 1.7-1.88-.02-1.83 2.03-1.88-.02-.6 1.34-.73 1.43-.62-.72-1.53.41-.02 3.3-.88 1.7-.67-.02-.93 1v2.01l-.93 1.01-3.05-.02-.67.69-2.48.04-4.67 4.34v4.64l-.93 1.05-.25-1.03-1.58-1h-3.13l-.6.67-5.59.02-.61.7-3.71-.05-2.48 2.68-3.7 2.01-1.84.69-2.52 1.99-5.54.02-.32 1.66-1.25.66-.6 1.37v1.99l-.34.35-1.21-.67-1.27.67-.92-1.02-.02-1.34-1.84-2.01-.61-2.66-.92-1.03-.66.04-1.84-1.38h-6.84l-1.25.67-2.43-1.34-1.24-.02-1.88 2.05-.62-.67-1.24-.02-1.26-2.01-.89 1.7-1.28 2.01.02 1.96-1.27 3.4-1.54 1.67-.6-.02-2.77 3.69-.04 2.03 1.26 2.01-.31.96-1.88.04-.29-1.7-1.53-1-1.26 1.36-3.1 1.32-4.32.65-3.45 5.74-.93 1-1.24-.02-.58-.65-3.12-.02-1.86 1.34-1.24-.02-1.55 2.36.02 1.34.89 1.03 5.6-.67.91.98-.62 1.32v2.03l-2.15 2.37-1.88-.05-2.79 2.39.02 4.02.62.65-.02 3.37-.93.98-1.24-.02-3.1-2.68-1.84.05-.95 1.65.02 1.34L0 269.84l.62 1.34-.6 5.38 3.1 3.32-.64 2.03-.6.67v2.68l.6 1.34 1.57 1.65 1.24.02 1.55.99-1.26 3.34-1.22 1.37.33 2.34 2.46-1.38 3.08.67 1.55-.99-1.2-2.01 3.37-2.32 1.24-.02 1.86-1.32 1.26 1.97 1.86.04 1.55-1.67v-.69l1.86-1.36.02-.65 2.79-2.32 3.39-.36-.62-2.68.95-.31 2.15-2.35.02-.69 2.15-2.32 1.24-.02.62.67h2.48l.57-2.03.69.71 3.38.33-.61 1.35.61 3.32.94 1.03 1.24-.02 1.24 2 1.83.67 3.73 3.35 1.88-.02 2.5-3.3 1.84 1.31 2.47 1.99 2.47-1.34 1.88.05 2.79-2.35.01-3.35-1.54-2.34-6.84.65-.95-1.03 1.57-.98 2.17-2.3.33-1.07 4.94.06 2.45-1.38 2.51-1.34 1.23-.02 5.57-3.35 1.23.02 1.26-1.34 3.7.02 1.27 1.32 1.83.02.61-.67 4.35-2.67 1.24-.03 3.73-2.7 6.52.36v2.68l-1.88 2.03.02 1.99-.62.67.93 1.69h.61l1.56 1.65-.02.7 1.24.67v1.31l-1.86 2.01-.57 2.01.88 1.03h1.88l.29 1 1.57 1.66 1.25.02 1.23-2.01 3.1.02 1.25-2.05h2.48l.33 1.72 1.52 1 .71-1.43.64-.69h2.48l.88-1 .02-1.37 1.53-1h1.89l.29-1.65 2.14-2.35 3.15-.67.93-1.67-.03-1.34 1.26-1.36-.94-1.63-.63.65h-1.84l-1.26-1.32-1.88-.05-1.18-1.96-1.23-.02-1.26 1.31-1.29.03-1.17-2.01h-1.89l-.61.69-3.21-2.64-1.86.7-.93-1.68 3.12-2.01v-.69l2.88-3.08.61-.69 3.1-.02 1.22-1.32 1.25.02 1.26-1.36 1.55-.34-.04-1.29-3.09-3.4-.6-2.01-1.55-1.67-1.27.02-.61-.69-1.23.04-.6 1.34-1.3-1.96-2.53.05-.62.62-.95-.34.36-1 1.52-.98.62-2.01.95-1.01 1.24-.02.71-.92 3.07-.51 2.48 2.03 1.22.02.96.99v.65l1.59 1.02 6.77-.04.93-1.68.04-2.61-1.9-.71 1.27-1.37v-2.65l1.21-.67.02-1.3-.61-.69-.03-4-2.49-.69.01-1.34.64-.7-.02-2.67-.59-.63.93-1.03.57 1.32 1.91-1.34 1.23.02.32-3.04-.96-1.63-1.23-.02-2.47 2.66-4.05-.98.33-1.7 3.1.02.91-1.02-.91-1.64-3.45-1.04 1.29-2.02-.03-1.33.96-.99 6.17-.02 3.12-1.99 1.84 2.68 2.48-.02.96-.98v-2.04l-.63-.67-.02-3.99-1.86-3.33.33-2.37h2.47l1.23-.67 1.58 3.01-.65.65 1.87 3.37 1.56.3.6.69 1.26-1.32 3.7-.67.62-1.36 1.24.67.97-.29-.04-1.39-1.22-1.32.64-.69-.04-1.99 1.26-1.36-.31-1.65-.97-.34.04-2.03 1.84-1.97zM239.7 282.13l-3.12.03-.58.65-.93-.99-.32-1.72-1.23.03-1.26 1.36-1.25-.03-1.83 2.04h-2.46l-1.26-.67-.62.65h-2.48l-.62.71-1.24-.02-1.57 1.63-.91 2.36-2.17-2.99.29-1.67h.6l1.57-1.7.29-1 1.24.02 3.45-1.68.62-1.36-.62-.67v-2.67l-1.53-1.68-2.5 1.38-1.24 1.97-1.86-1.32-.95-1.67.02-3.37-.93-.99-1.28-.02-.29-.96-1.86-1.36.62-.69.02-1.34 1.22-1.32-.02-3.35-.89-1-1.24-.03-.66-1.31-1.24.02-1.82 2.66-3.1.64-1.86 1.34-1.24.03-.95.98v1.38l2.17 1.65 1.57.36-1.26 1.3-.02 1.34 1.9 1.34-2.83.33-2.17 1.7-.56 1.31-.04 2.7.33.34.62-.72 3.7.03.64-.65 3.7-.67 2.5 1.32.89 1 .02 4.02.6.67-1.22 2.7 1.88 2.68-.62.65-.02 4.71-.62.64.02 4.07-2.19 2.3-1.86.66-.91 1.03.58 4 2.81 2.34h3.1l.64-.67 1.84 1.36h1.84l1.24-2.01h.64l1.26-1.31 3.1 3.99 1.24-.02-.31-4.33-1.9-3.37.04-2.68 1.24.02 1.55 2.32 2.5 1.34 1.18 2.01 2.49.69.67 1.32 1.24.02.29-1.67-1.88-2.03.02-1.34-2.5-3.35-.6-3.3-.93-1.05-1.57-.29.31-1.03 1.24-.02 1.88-1.32.62.67 1.55-.35.58-2.68 1.9-1.32.31-1.03h.6l1.86 2.04h1.88l1.88-2.71.9-.29-.32-2.38-1.24-.68zM303.55 285.51l4.34-.02.64-.68.6.7h2.52l.58-.65.66.67 1.85-.04.61-.65.91-.34-.29-1h-.64l-1.82-1.99-2.21-.38.63-.65-.61-.69v-5.33l-2.5-4.02v-2.01l3.72.02-2.17-3.06-1.55-.33 1.24-1.32v-2.72l-1.86-1.99.02-1.34-1.26-1.32.02-.69-1.24-.65-.02-.69 1.55-.31.95-1.03.29-1.67.62.69 1.24-.02.93-.98.63-4.02.61-.67-.61-1.37v-2.68l.63-.64-.02-1.34-1.57-2.37h-2.46l-1.22 1.36h-.64l-1.81-4.71-.67.02-3.1 2.68-1.24-.02-.28-.96 1.21-.71v-5.36l-1.53-.34-1.57-1.67.96-.34.93-1.67-3.44-4.34-1.24-.02-.61 1.36-1.89-.02-1.22 3.35-1.84-.67-2.81-2.97-.01-1.38-.89-1.66h-6.85l-.9-3.03-.96-.99-1.23-.67-1.84-.02-.67-.62-.58.64-3.69-.02-.64.72-2.48-.05-3.13 4.02h-.64l.33 1.01-2.17 1.69h-1.87l-1.2-.67-1.89 2.01-.61-.67-.62.65-1.25.02-.58.67h-5l-.61.65h-2.48l-1.86-1.99-3.7-1.36-3.12-2.66h-1.88l-.56-.69h-7.48l-.62.67-5.58.69-1.84 1.99-1.28.72h-2.46l-4.32 1.96-1.55 2.32-.02 4.07.93 1 .6-.02 4.05 3.71 1.24 2.7.02 1.27 1.55 1.72 1.24-.02.62-1.34.91 1.7.62 1.31-.6 4.72.62 1.31 2.46 2.04.29 1 2.54-1.34 1.82 1.34 1.24-.02.6.69 8.06-.02.66.69 3.1-.02 1.22 1.36 1.83-.05.34.38-.64.69.01 1.3 1.27.67-.05.69-1.52.99-.31 1.02 3.12 2.01-.64.67-.03 1.32.93 1 .67-.02 2.46 2.03 1.24-.02.92-1.63.63-5.36.62-1.34 1.22-.67 1.55-3.01h5l.29 1-.62.65v2.68l1.53 1.68.64-.03 1.28 1.36 1.79-1.31h1.89l.92 1 .63 1.32v2.03l-1.22 1.32-.03 1.34.67.67-.96 1.67-1.59.36.32 1.65 4.65 1.72.64 2.01-1.55.31-2.15 2.34.02 1.32.6.69.26 2.35 2.53-.65 2.48-2.03 1.84.02.3-2.36 2.17-1.7 1.24.02.94 1.01.62 1.31v2.03l-1.24.67-.63 1.34v4.71l-.62.65-.02 1.99.66.67v2.72l.95 1.63 4.31.02.64-.65h2.45l.95-1.05v-2.65l-.59-.69-.67-2.66-1.22-1.36-.02-1.34-1.19-1.29 3.68-3.4-.61-.62-.94-1.7-2.47-1.34-2.19-2.34.02-2.03 3.1-3.33.29-1.03 1.25.03 1.87-2.71 1.87 2.04 1.84-.03.93-.98-.63-1.34v-2.65l-1.55-2.37-2.17-1.03-.64-4.69.33-.33.93 1 .03 1.39.88 1.63 2.53-.7 2.45 2.04.65-.65.3.31-.64 2.68 1.27 2.7.01 1.34.61.67v4.67l-.65.69.62.69.03 1.32 1.23.67-.01 1.34 2.2.33.89.98.6 3.37-1.24 1.99.95 2.34 1.24.03.62.67zM342.59 45.54l1.28-.71h2.48l1.82-2.66 1.24-.02.68 1.36 1.24-.02 1.82-2.67 1.24-.02 2.5-1.34.31-.96 2.48-2.69.02-1.38-2.81-.32-.33-3.04-4.65-3.02-1.24.02-.93 1.68 1.26.67-.02 4.03-1.26 1.32v.69l-3.06 2.69-.31.96-1.26-1.32-3.72.02-.62-.67-.93.98.02 1.35 1.86 1.34-.66 2.01 1.55 1.72zM338.27 22.03l.62-.67.62.7 1.24-.03 2.48-2.03.64.04.89.99-1.8 1.34.29 1.01 3.08-.03 1.24.67.95-1.67v-2l-.93-1.02-1.88.02-1.84-2.04h-.64l-.93-.98v-2.04l-1.55-.29-.95-1.05.02-1.34.91-.99h3.12l2.48 2.67 1.24.02 3.12-2.69 3.08.65.62-1.37 1.24.03.91-1.03-.89-.99-1.24.72-.64-.69h-4.96l-.62-.68-.62.65-4.32-.02-.66-.63-.58.65-.66-.67-1.84.05-.6-2.73-3.12.02-.29 3.69.91.31.95 1.68-3.12.03v2.03l1.55 1.64 2.5 1.38.91 2.33-.91.29-.62-1.28-2.48.65-.93.99-.02 1.34-1.22 1.37.89.98 4.36.02zM356.27 25.39l-.64-.02-1.53-1.64-.93-2.39-2.48-.65-.93 4.36 1.53 1.68 5.62 2.66 1.2 1.37 1.84-.03.31-3.02-.6-.62v-2.73l1.26-1.32-.04-2.01-1.2-.68-.35-1.65-1.2-.02-.95.98v2.66l.62.7-1.53 2.37zM384.77 65.65l.93.99-.02 2.03.66.63v2.73l1.84-.03-1.22 1.99v2.04l.62 1.39 2.17.26 2.15-2.28v-2.73l1.85-1.31.03-1.35.6-.71-.6-1.97-.97-.36-1.53-.98-.02-1.34 1.26-1.37.02-1.32-.93-1-1.24-.03-1.26-1.31-2.48.64-1.86 2.71-1.55.98.95 1.7h.6zM398.41 159.57l-1.24-.67-1.84-.02-1.86-1.99h-5.01l-1.19-.67-.95-1.7v-2.04l-.93-.98h-1.25l-1.26 1.32-1.23-.67h-1.84l-.62 1.38-1.26-1.36-3.08-.02-1.22.69-.66-.67-1.24-.02-.56 1.34-.66-.63-.29 1.66.62.69-1.57.29-2.17 1.72v2.66l.95 1.01.64-.03 1.82 2.02 1.24.02 3.39 3.01-2.15.32-.31 2.36 2.81 3.69h1.82l1.88-2.7 1.24.02.35-1.7.89-.98 1.24-.02.91 2.36 1.26 1.32-.94 1.03-1.26-.02-.28 1.03 2.48 6.03v2.68l2.81.31 2.17-4.31-.05-2.03-1.19-1.32.62-1.34-.64-1.39.29-2.34 1.24.02 1.26 2.01h1.88l1.55-1.03-1.55-2.32-.97-.31.35-.38h2.48l1.22 1.36 1.23-.02.63-.65 1.57-.36.02-1.34.58-.65-.62-1.38.95-.29.31-1.01-.97-.36-1.84-2.63z"/><path class="cls-1" d="M422.28 117.64v-2.04l-1.25-.67-.3-1.65-3.1-1.34-.93-.99.04-3.37-.66-.67-.02-1.34 1.9-1.39 1.22-3.33-.93-1.01-1.88.05-.58.65-1.89-2.69-.58.65-.32-.31-.31-2.35h-.67l-1.83 1.99-3.7.69-1.26 1.32h-2.48l-2.49-1.99-2.49.7-.58 1.29-1.55-.29v-2.73l-.66-.66.02-1.3-1.25-2.71.96-1.03 1.55-.31v-5.39l-1.53-.98-1.88-2.69-1.26-.67-2.79.32.02 4.02.62.67-.04 1.39-2.73.33-1.9 1.32-.63-.67-1.54.34-.02 1.99.62 1.36.94 1.66.94.35-.02 2.02-.58.67.6.67-.58.67-.02 4-.62.67-.04 1.39.66.62-.62.7-.04 1.34 1.28 2.01-.02.65-1.24.71.62.63-.32 1.03-1.23.02-.6-.69-1.24.67-1.57-1.03.93-1.68 1.55-.31-.02-1.32-1.22-1.36v-2.69l-1.22-2.01v-2.68l-.95-1.03-1.22.02-2.17 2.35-.02 3.35-.91.99-.66-.67-1.51.35 1.24 1.99-3.43 1.03-.33-1 1.9-1.37-.02-3.33-.62-1.36-1.86-1.99.93-1.03 3.72.02 1.53-1.7.04-3.31-.93-1.05-1.57-.29.62-.71-1.22-4.68 1.24-2.01v-3.37l.95-.34 1.82 1.36h1.88l1.53-.98v-2.68l-2.46-4.07v-3.32l-.62-.69-.64-2.66-.93-1.05-.91.34v.64l-1.88 2.08v2.67l.6.69-.58.65v2.68l-1.26 1.36.66.68-.95.98-1.22.67-2.5-.69-2.48 2.03-.33-.31 1.24-2.71.62-3.33 1.55-.36.31-1.03-1.55-2.32-1.24-.02-.62 1.36-1.84-.02-.33-1.01-.62-.63.62-1.4-1.2-3.29-1.61-.4-.29 1.72-.91 1.03-2.48-.05-3.1 4.03-1.22.02-4.07 3.67-.64 3.38-1.22.67.66.69-.02 4-1.53 1.7-1.28-2.06-.62.7h-2.48l-.62-1.32-1.84-.07-.35 5.73-.29.33-.93-.98v-.65l-1.53-1.05-1.24.02-4.65 4.34-.29 1.72-.64-.04-.95 1.02.31 2.35h.64l1.22-1.32.62.63 1.22.02.35 1.01-1.26 1.32.02 1.34 1.86 3.37v2.69l1.55 1.67 2.15.34.02.65-4.03 3.71-1.86.67-4.07 2.99-.31 5.73-.91-2.35-3.7-4.02-.02-.65 1.86-1.37.02-6.7-.62-.67-.02-1.35-1.53-1.67-3.72-.02-1.85 1.36h-2.49l-.64.67-1.22-2.01-1.88-.02-1.22 1.36h-2.48l-1.26 1.32-.31-1.66 1.57-.35.96-.99-.35-1h-2.49l-2.45-1.35-1.27.67h-1.88l-.29 1.66 1.26 2.01-2.19 2.39-1.55.29-1.22 6.04-2.19 1.01-.29 1.65-1.85 1.39 1.23 2.01-2.49 2.01-.65 2.71-1.22.67.04 1.96-.94.99-1.88.04-1.22 1.37-1.9.62-.58 1.34-.96.36-2.45 6.03.6.63 1.26 2.7-1.89 3.36-.29 1.67-3.72-.62-.93-1.05-.3-1.66-1.24-.02-.65.72-1.22-.03-.92 1.68-2.82 2.35-.92-.34 2.48-2.68.62-4.02 1.85-3.35 3.73-4.05.62-1.99 4.05-4.36.58.02 2.17-1.7-.62-1.31.04-3.38 1.22-.67.62-1.34v-4.72l-2.49-2.66-.28-1.03-1.24-.65-3.73.03-.62-.7-1.57-.33v-5.35l-1.55-1.74-1.23.04-1.86-2.01-3.08-.02-.63.69-1.26-.67-2.45-2.01-2.5-.65-1.56-1.72.65-.67-.93-.98-4.36-.03-3.08-2.66-1.24-.02-.36-1 .98-2.33 1.2.67.62-1.34 3.14.67.62-.72 1.24.03.61.69 1.25.02.31-3.06 2.15-.32 3.12-2.68 4.32 1.34.66.65 1.19.02 1.22 1.99 1.89.03 1.26-1.37h2.48l1.21 1.37 1.26.67 1.22-.67.61.67 1.23-.02.96 1.05-1.25 3.35-1.26 1.3.96 1.05 1.23-.03.62-.64 1.25 1.99h.64l1.23-2.02 1.2.67 1.29-.67.31-1.03-.96-.98-2.48-.69-1.55-3.67-.93-1.01-1.24-.02-2.16-1.65 1.21-7.4 1.9-1.35.31-1 .61-.02 1.55 1.72.94 2.35 1.25-.67h2.48l1.84-2.02 4.37-1.34.29.96-.62 1.37 1.55 1.67 2.18-1.65.59-2.68 1.88-2.04.6-1.99L302 64.6l.03-1.3.63-.69-.04-4.02-1.22-2V54.6l-.64-.67.34-1.68 1.54 2.33.31 1.66 3.11 1.36 1.21 1.32 1.88.02.6.67 1.24-.02 2.5 1.34 1.84.03.6 2.66 1.24.02 1.57-1.7.02-1.99 1.57-1.68 1.21-.02.61-.65.62.67 1.88-.04 3.68-1.99 3.45.33-.93 1.7-.97.34.95 3.66 1.24.03 1.86-3.36 1.57.99-.64 1.99-1.22 1.36-.02 1.34-3.08 2.04-.33 1.67-3.72-.02-1.22 2.06-.64-.69h-2.48l-1.2-.67-1.3 2.01-3.08-.05-1.24 2.06-.91.34.02 1.34-1.3 2.01.93 1.01 1.24.02.64-.71.93.35-4.63 5.73-1.57-.36.64-.65-.95-1.05h-1.88l-3.99 4.36-.02 2.03-.61.66.28 1.69 1.27-.02.32-1.65 1.53-1.01 4.37.02 1.81-1.38.64.04 1.58-1.7.61-2.03 3.41-3.67 3.08-2.04 2.46-.64.04-1.34-2.52 1.34h-2.46l.02-1.34 1.84.64 2.48-2.01h4.36l.6-.65 1.22-.02 1.88-1.32 1.22.02 1.26-1.36 1.26.67 1.22-1.32 1.86-.67 1.26-2.02.6.63.64-.65 3.7-.67 3.72-2.7.93-.99.02-1.34-1.24-.67.95-1.03 1.24.02 1.2-1.34.64 2.01 3.7-3.35h.6l5.6-7.4 1.24.02 1.84-2.02 1.26-.02 3.39-2.32.04-3.36-1.55-1.7-3.72 2.01-2.48 2.73-1.84-.02-.68.67-1.84-.02-.62.71-2.48-.06-.64.71h-2.48l-1.22.67-.58.65-1.24.02-1.3 2.02-1.22.67-3.68-3.36-1.28.67-.33-.31-.27-2.35-1.88-.02-.6-2.7-2.81.33-.02.69 1.26 1.37-.91.33-2.17-1.03.62-.64-.33-1.08-3.08.03-.02-.66 2.21-.35-2.19-1.68-.64.67h-3.12l-.24 1.03-1.62.29-1.2 1.36-1.57-.33 1.86-1.32v-2.04l-1.26-.67.02-1.99 1.55-.33 1.88 2.68 1.24-.02.29-2.33.93-1.72.91-.29.02-1.34 3.76-3.34-.95-1.7-1.24-.02-3.7 3.4-.31-1.72 1.84-2.66-.31-1.7-1.28.67h-1.84l-1.86-1.32-.31 3.02-2.78.31-.63-.67-2.46.05-.64.6-2.17-.27 1.26-2.06-.02-1.3 3.76-2.7-.95-1.68-2.83-1.01.02-1.34-.88-1.7-.65.71-1.24-.02-1.26 1.37-.92-.36 1.26-2.02-.63-4.04 1.55-.32.95-1.03-.35-1h-2.48l-.59-.63-1.25-.02-.66 1.99-1.24.02-.6-.69-.64.67-.9.33-.29 1.03h-.63l-.29-1.7-.95-1-3.09.67-1.58 1.68.03 1.34-1.87 3.35-.02 1.35-.59.67v2.01l-1.58 1.7-2.48.65-1.86-1.36-.92 1.7.01 1.36-2.19 1.03-1.19-1.36-1.3-.03-1.51 2.37-.03 1.35-.95.98-.86-.29-.32-1.72-1.9 1.34h-2.48l-.63.69-.28-.35.63-1.3v-2.04l-.63-.69-.01-4.7.3-.34.93 1.01.03.7 2.14.33 1.53-1.7.65-3.33 3.4-3.72.93.36-1.22 1.37.29.96h2.48l1.39-1.16-.27-.5-.09-.35.03-.36.22-.12.15-.23.21-.24.07-.1.16-.23.22-.52-.14-.39-.37-.35-.41-.65-.4-.47-.37-.28-.09-.27-.09-.15-.06-.09h-.02l-.27-.05h-.35l-.33-.22-.46-.2-.41-.13-.34-.07-.19-.24-.1-.38-.02-.37-.11-.22-.17-.25-.37-.04-.27-.25-.04-.1-.12-.23-.14-.29-.16-.28-.25-.26-.66-.51-.24.03-.17.06-.22.08-.12.39-.39.09-.41-.07-.34.17-.47.02-.68.06-.47-.06-.79-.55-.56-.36-.5.03-.34-.14-.36-.34-.28-.12-.41-.3-.36.09-.22.17-.24.14-.31.17-.5.02-.26-.19-.56.04-.6.06-1.06.11-.38.08-.67.07-.27-.23-.14-.3-.04-.07-.16-.31-.33-.17-.37.08-.21.19-.22.19-.38-.02-.25-.13-.08-.04-.3.06-.1.02-.37.04-.48-.02-.42-.01-.2.23-.01.09-.04.4-.16.33-.77.26-.58.12-.46-.09-.28-.11-.34-.17-.34-.07-.42.2-.5.07-.52.01-.65-.06-.62-.06-.44-.04-.37.12-.24.38-.12.28-.02.04-.38.06-.29-.09-.09-.03-.58-.18-.71-.15-1.01-.03-.34-.11-.32-.03-.26.06-.11.36-.06.17-.23.44-.5-.23-1.3-.72-.45-.19-.14-.25-.05-.76-.06-.24-.07-.24-.03-.13V3.4l-.04-.24.02-.64-.21-.31-.37-.4-.23-.28-.25-.19-.64.13-.27.11-.13.06-.48.12-.43.02-.36.01-.31-.07-.52-.01-.35.12-.35-.02-.26-.13-.17-.14-.42-.36-.18-.24-.19-.19-.29-.11-.49-.11-.33.02-.29.1-.21.13-.24.21-.28.21-.09.32-.1.26-.21.32-.29.06-.42.1-.46.05-.5-.08-.32-.26-.12-.32-.13-.3-.29-.76-.24-.33-.41-.26-.36.06-.28.12-.22.08-.47.45-.17.24-.55.8-.42.67-.2.36-.19.33-.2.61-.09.26-.12.35-.15.25-.25.29-.16.3-.1.55-.25.26-.52-.14-.44.07-.32-.01-.07-.02-.17-.06-.25-.08-.35-.09-.44-.15-.35.1-.23.52.01.66-.08.29v.32l.1.38-.05.36-.22.49-.21.22h-.34l-.34.09-.24.35-.12.49-.08.66-.02.77.02.2.15.39.62.21.31-.1-.19-.41-.01-.32.35-.07.29.06.23.3.02.43-.16.34-.31.2-.38.02-.33.17-.23.29-.21.31-.33.3-.24.28-.49.59v.01l-.07.28-.01.27v.2l.26.61-.35.35-.36.22-.6.07-.32.27-.34-.13-.37.09-.54.25-.31-.14-.06-.3.07-.37.04-.18-.63.16-.32-.09-.25-.08-.33.11-.01.01-.31-.04-.13-.37-.31-.17-.39-.04-.51-.16-.31-.06-.29-.29-.31-.14-.75-.05-.29-.05-.44.11-.63.54-.29.37-.33.2-.11.08-.21.15-.08.11-.23.32-.21.07-.21-.18-.26-.29-.34-.01-.36-.12-.17-.24-.23-.08-.37.34-.34.21-.28-.09-.27-.26-.39-.1-.29.17-.04.34-.12.4-.14.32-1.01.94-.35.17-.16-.08-.14-.07-.55-.38.02-.38.33-.11.06-.31-.29-.23-.56.26-.2.42-.09.44-.45.35-.27.04-.71.22-.27.15-.29.1-.3.25-.33.34-.18.34v.47l.23.27.39.65.12.4-.33-.06-.35-.32-.22-.08-.31-.01-.35.26.08.39.19.17.13.37-.65-.03-.47-.06-.49-.03-1-.36h-.01l-.48.11-.06.02-.33.18-.36.39-.02.68.01 1.03v.84l-.44.32-.26.11-1.1.65-.54.12-.96-.36-.38-.26-.36-.33-.23-.33.04-.46.08-1.03.03-.4.02-.86-.08-.96-.21-.35-.36-.23h-.43l-.31.35-.16.64-.17.28-.23.31-.03.04-.45.12h-.05l-.44-.03-.33-.13-.27-.13-.45.05-.28.4-.01.36-.02.49-.07.42-.15.41-.3.21-.42.05-.09-.31.12-.32.03-.25.07-.32.06-.29.02-.07.16-.64-.19-.53-.33-.06-.68.19-.62.23-.33.13-.05.02-.49.09-.69.19-.72.18-.36.06-.4.07-.36-.08-.33-.13-.16-.12-.07-.05-.03-.02-.31-.3-.27-.42-.06-.1-.19-.3-.26-.41-.26-.28-.3-.19-.32-.17-.37-.12-.48-.18-.48-.03-.49.1-.31.08-.06.02-.29.07-.37.12-.35.22-.38.33-.26.27-.27.25-.3.4-.2.26-.18.32-.21.33-.01.01-.23.35-.22.31-.2.39-.21.27-.3.18-.32.13-.53.14-.34.03-.66.12-.72.13-.01-.01-.4.06-.88.3-.44.2-.28.26-.24.4-.07.43-.02.66.1.34.38.44.29.31.43.4.22.15.79.44.11.06.3.15.44.23.63.38.24.15.1.06.1.07.38.28.42.47.12.22.06.36-.08.44-.21.66-.48.66-.52.72-.88.98.01.37-1.58 1.96-2.92.99-2.74-2.18-3.01.1-2.48.76-1.84 2.02-.64.02-1.57 2.33-.62 3.38-2.15 2.34-1.55 1-2.19.59-3.04-.94-.66-.62-4.96-.05-3.7 3.4-1.85.63-2.84 3.06-.6 2.64.62.7.63 4.04 1.27 1.3-.01 2.04-.62.67v2.66l.62.69-.65.65-.29 3.69-.97-5.05-1.55-1.64-1.24-.02-2.43 2.03-4.37 2-1.21 1.36h-3.13l-.28-3.71.58-.67.01-3.36 3.11-4-.92-1.68h-1.88l-.64.65-3.72-.02-.6-.63h-1.88l-.57 1.39h-1.93l-2.19 1.72-1.88 4.72-2.13 3.69-.64-.02-2.48 2.68-.64-.02-3.39 3.71-.02.65-3.06 4.7-.66 2.66-2.76 3.04-9.9 4.69H87.1l-1.55 1.72.05.63-5.63 6.04-1.22 6.06-2.81 2.34h-.59l-1.54 1.66-.35 2.99-3.69 2.02-3.08.02-.64.69-3.72-.04-.62.69-1.22-.67h-2.48l-.67.67-1.21.02-2.18 2.33-.01 1.32-1.51 2.37-1.26.67h-2.46l-1.55 1.67-.04 1.99 2.17 1.7 3.12.02 3.43 3.02.6 1.34-.65.67.05 2.68 1.5 2.35h.64l1.54 1.65.01 1.34.63.7v4.65l-1.22 1.36-.04 1.99 3.1 3.37.35 1.03 2.46 1.34 5.58-.02.64.69 3.1.67 2.48 1.97 1.2.04 1.25.68 1.27-.68 1.22-2.01 4.36-2.03 1.22-1.32 3.42-.33v-1.34l3.09-3.36-.03-3.37 1.26-1.32.02-.67 2.16-2.37.92-.36-.02-1.96-.57-.68.29-2.34.61.67 4.64.31.01 1.34 1.84 2.01-.02 2.69-.6.69-.58 1.32-.06 2.73.64.6.03 1.38 1.5 1.63 1.24.05 3.12 2.68 3.12.02 1.51 1.64-.89 1.69-.64-.02-.89 1.01.93 1.67 3.06.69.64-.66 1.22 1.31 1.88.05.62.65.71-.79.61-1.34h1.84l2.48-1.96 1.25-.03.92 1.03.34 1.66 2.43-1.35 2.82 1.01v2.03l1.56 3.02 3.73-.04.59.69 3.73.02.61-.71h2.49l1.85-1.32 1.24.02 4.34-2.73 3.72.03.62-.65 1.24-.05 4.96-4 1.24.03 3.7 1.99.62.69 3.74-.67 1.24-2.06 1.24-.62 3.76-.03.6-1.36 3.72 2.06 1.82-.05.64-.65 3.72.03.62-.72 4.34-.62 2.48-2.69 4.36.65 2.77 3.69v2.03l-1.84 1.97 3.1 4.04v2.04l.62 1.31-.62 1.3.62 1.39.93.98 1.24.02 1.24-2.05 1.55-.99.29-1.67 1.24.02.31 1.65-.64.67v2.71l-.58.02-.95-1.74-.93 1.67 1.57 3.02 3.08.74 4.36 5.34 1.88-.03 1.82-3.35.35 1.7-1.28 2.68 1.53 1.01 1.24-.05.66.69 5.54.03 1.28-.72 1.22 1.36h.63l5.87 5.7-.61.69.02 4.02.91 1.68.62-.65 2.48-.04.95 1.67.02 3.38.56 1.31-1.84 1.39.02 1.27.6.69 2.17 10.41h5.6l1.86-2.72.6.04.61-1.34 1.25-.02 1.52-1 .04-2.68.94-1.68 4.92 2.72.94-1.02v-2.04l.63-.64v-2.68l-.93-1.05-1.54-.29-.01-2.04.95-.33 2.15-2.35-.03-1.34 1.55-.98 4.35 4.71.64-.02 8.68 8.69 1.57-2.32-2.82-3.69-1.84-.02-1.27-2.01-.61.02-8.94-9.05.91-.33 2.48 2.66.92-1.68-.04-1.99-.61-.67.31-1.02h5l2.19 1.72-.35 4.33-1.54-.98-.01-2.04-.93-.33-.29 1.65-1.88 2.01.01 1.34 2.2 2.37.6-.02 1.81 2.03 2.51-1.36.62 1.36.64-.02 4.03 4.35.29 1.01.64.04 2.14 2.3 2.8 5.07 1.22-.71 2.81.36.01.65-1.85 1.38.61 1.32.02.69 1.25.67.28.96 1.53.34.34 3.03 1.23.67 1.84.03.64.67 1.55-1.05-.02-.65 7.46-8.71.6-1.34.02-2.04-1.23-2.68-1.27-.67.98-.29 1.52-1.69.61-2.04 1.26-1.31-.65-7.38-2.15-2.34h-.64l-1.26 1.36-.3-1.7.94-1.03 3.72.03 1.24.67.31 1.65 1.28 2.06-.01 1.27 1.52 1.74 1.84-.04.33-1.66.95-1 .29 1.03 1.24.67-1.24 1.29-.29 1.72-1.24-.02-.95 1.03.02 4.02 1.27.67-.05.62 1.24.67.65 1.34-.03 2.01.62 1.39 1.55 1.63 1.55.33-.02 1.34.66.68-.02 2.03.62.69-.6 4.67.89 1.67 1.88-.02.31 1.7.66.67-3.12 2.68.64 7.37.89 1.7 1.88-.05.58-1.34.95-.33.33-2.33.6.7 4.36.64.31 1.65.89 1.01h1.88l1.24.67 1.88 4.67 1.24.02.93-1.03v-3.3l.91-.36 1.86 1.36 1.59-1 .6-2.04-.97-2.32-2.44 1.32-.93-.29-.02-4.06-.6-.63-.04-2.03 1.3-1.36-.95-1.66-1.24-.02-1.57 1.7-.6 1.99-2.17 2.34-.95-.31 1.55-2.37.91-.33.02-1.34-4.03-.34-.6-.65-.93-.35-.04-2.01 1.28-.63.02-1.38-1.28-2.02 2.17-1.65 1.24-.02.33 1.01 2.15 1.67h4.34l2.48-2.66 3.1-1.34.93-1.05.04-3.3 1.22-.67-1.88-2.68.02-1.34-3.74-4.04-.02-1.35-.89-.98-1.22-.02-.64.69h-2.48l-2.21 2.35.04 1.34-.97.33-.89-1.7-1.26-.66 1.24-.65v-2.04l-.6-.64.02-1.39-1.26-.67-.33-5.65-1.24-.02-.62.69-3.72-.72-1.86 1.39-1.24.02-.62-1.38-2.48-.65-.95-1.03.06-4.67-1.9-3.37.04-1.34-1.59-.99-.95-1.69.02-4 .64-.67v-2.01l1.26-2.01-.95-1.06-1.28.03-.58.67-.93-1.01-.02-1.34-2.75-2.35-.64.03-1.26 1.99-3.7-.02-.35-.97 3.13-2.03.61-1.99 2.46-2.68v-2.68l.97-.34.6.7.95-1.05.31-2.31 2.75 2.31.04 1.38.6.63-.62.67-.02 2.03-2.44 2.01.31 2.35 1.24-.72 2.48.69.87 3.04 2.21 2.35 1.53-.98.02-2.04 1.28-.67-.68-1.32.64-.71v-2.68l-3.1-1.32.02-1.34-1.86-4.02 1.24-2.71-.04-4-2.13-1.67-1.57-.34.95-1.03 1.25.03.28-1.03 2.48-2.66.02-1.34 1.22-1.32.64-2.73.89-.98.66.67 1.24-.02.29-.97 1.55-1.04h1.88l1.55 2.32 2.17 3.06h2.48l1.2-2.01.31 1.65 1.26 1.32.31 2.39 1.24-.02.95-.98-.02-1.34.31-.36 1.88 2.68 1.24.02.58-.71 1.88.07.29-1.73-.6-.62.02-1.39 1.55-2.32 1.24-.02.6-.67 1.88.02 2.5-1.34.91.31-.35 1.01-2.13 1v2.04l1.24.67-.64 5.36.97.31 1.8-1.31.35 1 1.55 1.68 4.94 2.68 2.46-1.34.33 1 2.19 1.68h1.84l.62-1.34 1.24.67.95-1.03-1.86-3.98-1.26-.67.33-2.37 1.86 1.37 1.24-.03.58 2.02 2.21.33v2.03l2.79 2.35 1.24-.02.6.67h3.12l.62-1.99.93 1.63-.62.72-.02 1.96 2.19 2.37 3.74.67 1.21 1.32 1.23.02 1.24 2.02h1.88l.6.64 3.11-.02.92-.98.02-1.34-1.55-1.68-2.77-1.65-.04-2.04-.62-.67 1.55-1.7 1.24 1.37 1.24-.03 1.26-1.29.95.98-.07 2.03 1.87 4.03.97 1h1.84l1.57-1.67-.03-2.04-.9-1.63-.97-.35-1.24-2.71 3.11-.65-.64-7.37-.62-.67.03-1.99-.91-.36-1.22-1.36-1.24.02-.69 1.34-.55-1.36-1.59-.98-.62-2.02-2.81-2.99-1.82-.02-1.89 3.35-.92-.36.64-.65v-1.99l-1.84-1.34 2.15-.38 2.17-1.63v-5.41l1.53-.98.62 1.36.6-.02.95-1.03-1.24-1.99.6-2.7.95-1.03 2.48.04 1.88-2.7 1.23.02.61.69 3.12-.02 1.52 3.67.96 1h.64l1.82 2.04.62-.7 1.24.02 1.26.68 1.52-1.7-.61-1.32z"/><path class="cls-1" d="M358.13 175.63l.6.67h3.12l.93-1.67-1.26-2.01 1.86-.67.02-1.34 1.2-1.37-.6-1.31.6-1.37-.27-3.04-2.5-.64-1.84-1.35-2.17-.33 1.22-1.32.02-4.04-2.5-4.03.62-.65v-2.68l-1.53-1.67-1.59 1.69.04 1.32-1.55 1.7-.95-.36 1.88-2.01.62-3.33-2.46-.04-.66 2.03-1.22.67-.62 1.99-.95.34-.31 1.03-2.46 2.68-.02 2.01 1.57.36.58-.72.33.31v2.73l1.28 2.01-1.92.67.66.65-.02 2.03-1.2 1.34-.04 3.33 1.24 2.71 2.19 2.34 3.1 1.34 1.2-2.01.64-.02 1.24 2.01 1.88.02z"/></svg>