<svg xmlns="http://www.w3.org/2000/svg" width="1114.478" height="1360.335" viewBox="0 0 294.872 359.922"><path d="M86.969 358.353c-1.429-3.302-1.88-3.98-3.234-4.86-2.81-1.824-5.523-1.927-5.95-.226-.337 1.345-1.557 2.356-2.84 2.356-1.582 0-2.109-.714-1.865-2.53.386-2.883 2.768-4.667 6.26-4.689 2.177-.014 2.738-.36 7.658-4.736 1.951-1.735 2.558-2.495 2.558-3.203 0-1.057.577-1.775 1.427-1.775.847 0 1.625-1.047 1.894-2.549.62-3.458 1.819-4.619 3.158-3.056.46.538.745.639 1.022.362.277-.278.208-.58-.25-1.085-.901-.997-.468-1.786.98-1.786 1.592 0 2.954-1.126 3.41-2.82.224-.833.637-1.456 1.05-1.587.97-.308 3.874-3.622 4.64-5.294.48-1.05.647-2.278.653-4.798.012-5.218.836-6.646 3.147-5.451.582.301 1.765.547 2.627.547 1.364 0 1.717-.168 2.704-1.292 1.1-1.253 1.127-1.364.912-3.616-.184-1.924-.107-2.51.446-3.407.705-1.145.625-1.118 8.41-2.783 4.456-.954 6.094-.742 14.746 1.907 2.549.78 4.07.78 8.114.003.97-.187 2.299-.4 2.952-.473 1.582-.177 1.882-.726 1.666-3.051-.145-1.559-.024-2.271.601-3.528.942-1.893 5.823-7.045 6.675-7.044 1.095.001 3-2.078 4.448-4.853a18.781 18.781 0 0 1 3.565-4.798c2.087-2.015 2.533-2.695 1.766-2.695-.875 0-2.115 1.004-5.445 4.408-3.403 3.479-6.647 5.812-8.089 5.82-.374.001-1.191-.182-1.815-.408-1.007-.364-1.263-.314-2.278.441-2.432 1.81-3.87 3.498-3.87 4.545 0 1.77-1.356 2.48-4.733 2.48-4.045 0-5.998-.596-8.424-2.572-1.121-.914-2.233-1.661-2.47-1.661-.666 0-2.364-1.72-2.365-2.396-.002-.844-1.306-2.923-2.418-3.853-1.77-1.482-4.354-.8-4.424 1.167-.036 1.017-.056 1.026-2.682 1.238-1.455.117-2.924.333-3.264.48-.923.396-2.306-.071-2.77-.937-.33-.617-.285-.994.233-1.956.603-1.12.724-1.177 2.007-.96.798.134 1.786.056 2.378-.19 1.1-.455 1.667-1.368.969-1.558-1.302-.354-4.859-.913-5.811-.913-1.297 0-2.314-.876-2.035-1.754.264-.832-.39-2.48-.983-2.48-.261 0-.821.4-1.245.886-.698.803-1 .88-3.23.82-2.76-.074-3.6.382-4.465 2.427-.5 1.18-1.66 2.05-2.248 1.687-.543-.336-2.847.433-3.7 1.236-.43.403-1.351.826-2.046.939-1.135.184-1.393.065-2.519-1.16-1.357-1.479-1.63-2.593-.64-2.614.34-.007.998-.223 1.463-.48.82-.455.794-.477-.823-.72-.918-.138-2.263-.15-2.99-.027-1.622.274-2.579-.497-1.597-1.287 2.095-1.685 2.624-2.403 2.624-3.558 0-1.808-1.173-2.734-3.462-2.734-1.536 0-1.83-.104-1.83-.645 0-.752 1.022-1.735 3-2.883 1.903-1.106 3.007-2.124 3.396-3.132.288-.746.469-.811 1.639-.591 1.446.272 1.383.272 3.53-.025 1.194-.165 1.618-.418 2.028-1.211.504-.976 2.576-2.802 3.179-2.802.382 0 2.886-1.661 4.042-2.682.485-.427 1.194-.834 1.574-.902.46-.083.773-.522.935-1.315.134-.654.457-1.326.72-1.492.261-.166 1.756-.304 3.32-.307 2.697-.005 2.897-.06 3.858-1.063.558-.583 1.283-1.059 1.61-1.059.329 0 .787-.228 1.019-.508.231-.28.767-.557 1.19-.617.72-.103.78-.351.983-3.99.278-4.989.61-6.225 1.827-6.81 1.204-.58 1.232-1.128.057-1.128-1.287 0-2.859-.904-3.087-1.775-.357-1.365.181-3.125 1.385-4.53.654-.766 1.19-1.525 1.19-1.688 0-.163-.526-.717-1.17-1.23-.883-.705-1.283-1.408-1.635-2.876-.416-1.733-.397-2.135.178-3.733.354-.985.556-1.878.448-1.986-.2-.2-3.939.276-7.24.922-1.974.386-3.422 1.643-4.377 3.8-.546 1.234-.675 1.273-2.301.685-.89-.322-1.571-.322-2.967 0-.998.23-1.958.33-2.135.22-.933-.576 2.396-4.135 6.766-7.234 3.682-2.61 4.371-3.407 4.871-5.632.181-.808.66-1.82 1.065-2.251.933-.993.958-1.972.051-1.972-.376 0-.783.158-.903.353-.418.676-1.534.378-1.65-.441-.083-.58-.361-.804-1.031-.83-.505-.018-1.102-.148-1.328-.288-.828-.511-1.764-2.957-2.178-5.69-.774-5.117.346-6.863 4.4-6.863 2.449 0 3.643.986 4.919 4.057l.879 2.117 2.14-.084c2.389-.094 2.648.225 1.434 1.768-.956 1.215-.887 1.667.252 1.667 1.4 0 6.714-2.689 6.982-3.533.272-.858.92-.884 2.397-.1.774.411 1.96.6 3.775.6 2.273 0 2.96-.16 4.887-1.13 3.624-1.825 4.656-1.64 8.932 1.592 3.25 2.457 3.451 2.139 1.174-1.858-.873-1.532-1.588-2.903-1.588-3.046 0-.451 2.601-2.05 3.345-2.055 1.639-.012 1.758-.477.764-2.961-.514-1.283-.932-2.926-.93-3.652.005-1.763 1.383-4.63 3.146-6.542.79-.857 1.436-1.727 1.436-1.932 0-.206-.456-.474-1.014-.596-1.784-.392-2.64-1.686-2.802-4.237-.238-3.733 1.414-6.328 4.198-6.595.953-.091 1.265-.321 1.552-1.143.271-.775.25-1.066-.088-1.178-.611-.204-1.493-1.117-1.493-1.547 0-.193.715-1.087 1.588-1.985 1.607-1.653 1.874-2.416 1.235-3.526-.194-.337-.515-1.067-.712-1.622-.345-.97-.39-.987-1.147-.436-1.616 1.177-2.319 1.401-2.894.924-.296-.246-.542-.785-.545-1.198-.003-.413-.164-.989-.36-1.28-.306-.458-.423-.437-.876.156-.287.377-.522 1.06-.522 1.52 0 1.106-2.477 4.644-3.263 4.661-.34.007-.935-.304-1.323-.692-.847-.847-.94-3.252-.177-4.586.586-1.025.69-2.47.177-2.47-.194 0-.353.235-.353.521 0 .9-1.668 1.753-2.598 1.329-.953-.434-2.473-3.323-3.252-6.18-.305-1.12-1.059-2.66-1.674-3.42-.616-.76-1.794-2.199-2.618-3.197-1.173-1.42-1.5-2.104-1.5-3.134 0-1.583 2.095-7.684 3.144-9.158 1.14-1.602 2.13-3.98 2.148-5.16.017-1.186 1.22-4.07 1.87-4.482.233-.148 1.018-.272 1.746-.274 1.41-.006 1.585-.292.882-1.443-.376-.617-.338-.8.264-1.256.55-.417 1.254-.484 3.2-.307 2.004.182 2.583.12 2.941-.312.833-1.003.065-1.274-3.604-1.27-1.977.001-5.143-.189-7.035-.423-4.171-.516-4.321-.425-4.321 2.633 0 1.974-.082 2.217-.882 2.602-.485.234-2.231.556-3.88.715l-3 .29-.176 1.232c-.15 1.045-.47 1.409-2.116 2.394-2.456 1.47-3.498 1.4-4.06-.275l-.415-1.234-.594 1.146c-.326.63-.797 1.147-1.046 1.147-.765 0-1.727-.893-2.319-2.152-.468-.995-.781-1.218-1.838-1.306-.858-.072-1.598-.446-2.27-1.147-1.085-1.133-2.427-1.366-2.766-.482-.304.79-.341.71 1.075 2.278 1.041 1.153 1.293 1.713 1.308 2.912.045 3.634-.987 5.34-2.686 4.44-.436-.232-1.905-1.49-3.263-2.798-1.358-1.308-3.235-2.735-4.17-3.17-.936-.437-2.127-1.327-2.646-1.978-1.522-1.907-3.93-1.302-4.988 1.253-.455 1.099-.118 2.862.85 4.443.414.677 1.253 3.614 1.253 4.39 0 .204-.227.372-.504.372-.818 0-1.966-1.765-1.966-3.025 0-.854-.379-1.603-1.417-2.803-3.23-3.732-5.293-7.558-5.278-9.79.012-1.66 1.232-4.181 1.9-3.925.295.113.639.548.765.967.723 2.39 1.69 4.112 2.31 4.112.889 0 .852-1.15-.101-3.175-1.598-3.391-.623-7.548 2.523-10.76 1.745-1.78 2.472-3.108 2.475-4.52.005-1.801.863-3.535 3.033-6.127 3.59-4.287 4.33-6.107 2.982-7.327-.378-.342-.735-1.193-.794-1.892-.088-1.043-.39-1.476-1.695-2.424-4.766-3.466-4.996-3.713-4.698-5.05.152-.679.231-3.386.177-6.017-.09-4.377-.037-4.86.628-5.705 1.153-1.465 2.414-1.534 5.363-.295 2.826 1.187 4.88 1.42 4.88.552 0-.306-.319-.53-.755-.53-1.116 0-3.717-1.397-5.466-2.937l-1.536-1.352-.346.91c-.425 1.119-.944 1.148-2.055.117l-.855-.794-.576.857c-.317.473-.592 1.627-.611 2.575-.062 2.967-2.429 5.019-3.38 2.93-.23-.504-.669-.894-.974-.865-1.046.098-1.385-.03-2.462-.936-1.527-1.286-1.878-.866-1.741 2.088.136 2.948-.345 3.366-1.949 1.692-1.987-2.075-1.991-5.91-.01-10.156 1.101-2.358 3.253-4.712 4.31-4.712.505 0 1.825-1.915 1.825-2.648 0-.44-.385-.24-1.464.76-2.509 2.328-5.005 4.894-6.46 6.642-.769.924-1.752 1.841-2.185 2.039-.434.197-.865.56-.96.806-.393 1.025.873 5.292 2.243 7.56 1.86 3.077 1.836 3.817-.175 5.465-2.287 1.874-2.64 2.76-2.64 6.623 0 3.918-.985 7.284-2.79 9.53-.431.539-.41.712.17 1.352.944 1.043.885 3.274-.113 4.272-.756.756-3.368 1.65-4.915 1.681-.982.02-2.23-1.555-2.23-2.815 0-.534.555-1.778 1.235-2.766 1.18-1.715 1.234-1.933 1.238-4.89a24.283 24.283 0 0 1 2.607-10.965l1.3-2.579-1.067-.996c-1.6-1.495-1.871-2.52-1.17-4.414.563-1.516.56-1.617-.051-2.064-.608-.444-.553-.638.987-3.51 1.04-1.939 1.493-3.125 1.252-3.274-.456-.281-1.645.73-1.936 1.646-.28.879-.867.843-.867-.053 0-.902 1.562-3.425 2.835-4.58.594-.538 1.125-1.526 1.362-2.537.505-2.149.53-2.048-.517-2.048-.777 0-.87-.113-.66-.794.134-.437.621-1.443 1.082-2.236 1.076-1.855 1.054-2.041-.208-1.789-1.369.274-1.597-.185-1.055-2.121.294-1.051.72-1.718 1.254-1.96.65-.297.77-.564.61-1.36-.29-1.452.954-3.23 2.967-4.242a91.992 91.992 0 0 0 1.827-.934c.081-.05-.226-.487-.682-.973-.536-.57-1.058-.812-1.472-.68-.854.27-.806-.1.232-1.785.478-.776.876-1.729.884-2.117.008-.388.568-1.402 1.245-2.254.678-.852 1.232-1.902 1.232-2.332 0-.57.435-1.014 1.595-1.626 1.694-.896 1.977-1.819.616-2.013-1.26-.18-5.358 3.355-7.602 6.559-1.072 1.53-2.453 3.205-3.069 3.723-1.702 1.432-3.533 1.239-4.416-.467-.436-.843-.759-.992-2.456-1.133-1.52-.126-2.263-.41-3.345-1.28-.764-.614-1.479-1.117-1.587-1.117-.109 0-.197.437-.196.97.002 1.263 1.226 3.255 2.022 3.292 4.128.188 4.273.222 5.71 1.361 1.756 1.39 2.144 2.061 2.144 3.702 0 1.157-.083 1.258-1.037 1.258-1.294 0-1.675.558-.937 1.373.92 1.017.657 1.694-.96 2.476-1.887.915-2.238.918-2.792.032-.242-.388-.57-.706-.73-.706-.158 0-1.589.636-3.178 1.413-3.47 1.695-8.264 2.785-9.592 2.18-1.706-.778-1.518-3.555.223-3.288 2.998.458 7.362-.494 7.362-1.607 0-.566-1.473-.611-2.023-.062-.706.707-1.505.061-1.505-1.216 0-1.352.546-1.928 2.724-2.87 3.177-1.375 3.393-3.184.275-2.31l-1.626.454-1.405-1.462c-1.001-1.041-1.694-1.462-2.407-1.462-1.271 0-1.971-.774-1.499-1.657.19-.354.265-1.063.167-1.575-.157-.82-.04-.96.993-1.188.645-.141 1.768-.633 2.497-1.094 1.901-1.2 2.88-1.096 3.762.399.928 1.573 1.73 1.61 1.876.088l.111-1.147 1.96.064c1.85.06 1.982.007 2.335-.93l.375-.991-1.982.019c-1.09.01-2.752-.184-3.693-.43-1.376-.362-2.02-.363-3.289-.008-1.463.41-1.633.386-2.341-.322-1.34-1.34-.357-2.116 4.732-3.737 2.877-.917 3.093-.938 4.125-.404 1.06.548 1.119.535 2.2-.453.696-.634.968-1.105.727-1.254-.68-.42-.416-1.086.691-1.74.934-.551 1.064-.809.97-1.928-.107-1.29-.109-1.291-1.616-1.172l-1.508.12.202-1.531c.412-3.119.532-3.553 1.266-4.584.676-.949.913-1.042 2.384-.94 1.93.133 2.307-.67.576-1.228-2.264-.73-2.546-1.79-.855-3.214.727-.611 1.514-.917 2.381-.924.713-.007 1.604-.245 1.98-.53.596-.45 7.501-.518 52.61-.518 42.732 0 51.993.083 52.313.469.5.602.01 2.374-1.129 4.097-1.683 2.543-2.349 4.217-2.352 5.916-.005 2.322-1.178 4.666-4.025 8.045-3.06 3.632-4.298 5.793-4.593 8.022-.327 2.46-.567 2.833-4.065 6.303-3.335 3.308-4.087 3.837-5.459 3.837-1.07 0-1.211.84-.31 1.837.506.558.532.835.177 1.817-.23.637-.419 1.274-.419 1.415 0 .14 1.337.87 2.972 1.622 1.756.807 3.209 1.728 3.552 2.252.538.82.538.95.002 1.768-1.413 2.156-4.394 3.4-8.148 3.4h-2.957l-2.032 1.84c-1.118 1.01-2.288 2.4-2.6 3.086-.791 1.74-2.08 2.701-4.984 3.713-2.016.702-4.142.659-7.325-.148-3.364-.853-4.131-1.165-5.624-2.286-2.431-1.826-2.485-.607-.074 1.649 1.815 1.697 2.937 2.06 9.403 3.044 1.358.206 3.184.53 4.057.72.873.19 2.222.358 2.998.373.776.014 1.72.26 2.096.544.377.285 1.158.518 1.737.518 1.317 0 5.516-2.707 5.516-3.556 0-1.27 1.158-2.114 3.175-2.312 2.81-.275 4.594.41 5.409 2.076.552 1.13.815 1.323 1.809 1.323.639 0 1.343.218 1.564.484.397.478 3.914 2.05 7.195 3.217 2.957 1.052 3.077 1.198 9.538 11.641 1.628 2.632 2.404 3.57 3.061 3.705 1.132.23 3.9 2.017 4.585 2.96 1.34 1.843 1.751 3.794 2.252 10.715.329 4.536.697 7.413 1.051 8.21.3.673.803 2.573 1.118 4.22.403 2.104 1.029 3.838 2.1 5.821 1.494 2.768 1.994 4.195 3.216 9.175.761 3.106 1.408 4.567 2.81 6.35 1.23 1.565 1.68 2.695 1.64 4.123-.02.701.11.9.494.752.287-.11 1.507.294 2.71.897 1.204.604 3.22 1.353 4.481 1.665 3.326.822 7.071 2.75 9.047 4.66 2.296 2.217 4.298 5.669 6.133 10.571.463 1.239 4.822 5.36 7.327 6.929 2.002 1.253 2.143 1.763.799 2.894-3.463 2.914-2.793 6.822 2.394 13.956 5.104 7.02 6.356 9.222 5.907 10.392-.2.522-.37.447-1.192-.524-1.042-1.231-1.961-1.42-4.584-.936l-1.509.277-2.158-2.34c-1.486-1.61-2.418-2.34-2.989-2.34-.912 0-1.127.614-.324.923.279.107 1.165 1.204 1.97 2.438.99 1.522 2.38 2.961 4.315 4.47 5.555 4.33 6.865 5.526 8.1 7.392 2.838 4.295 4.864 9.491 4.864 12.475 0 2.046-.97 3.567-3.697 5.794-2.97 2.425-6.698 6.846-6.41 7.598.138.358.677.539 1.61.539 1.26 0 1.57.195 3.076 1.94 1.148 1.33 1.937 1.94 2.507 1.94.458 0 1.312.248 1.899.551 1.17.606 2.061.24 2.087-.859.008-.315.683-1.923 1.5-3.572 1.25-2.525 1.72-3.127 2.97-3.811 1.872-1.024 6.102-1.176 8.756-.315 1.073.348 2.848.556 4.576.534 2.286-.028 3.29.148 5.291.926 1.359.528 2.772 1.051 3.141 1.162 2.186.66 8.06 4.491 9.969 6.502 1.506 1.588 2.804 4.031 3.107 5.85.137.824.394 1.499.571 1.499.178 0 .322 2.058.322 4.586 0 2.558-.143 4.586-.325 4.586-.178 0-.433.494-.565 1.097-.133.603-.64 1.992-1.126 3.087-1.42 3.192-1.873 4.967-2.103 8.23-.263 3.735-1.125 5.562-2.857 6.059-.864.248-1.41.79-2.22 2.207-1.404 2.454-2.563 3.381-3.689 2.953-.783-.298-3.434-.187-5.44.226-1.354.28-.164.824 1.812.83 1.95.006 2.345.415 1.357 1.404-.995.994-.923 1.776.163 1.776.485 0 .882.165.882.366 0 1.475-3.367 3.868-5.443 3.868-1.22 0-2.67-.958-2.67-1.764 0-.583-1.066-.399-2.016.348-.762.6-2.218 2.802-2.218 3.355 0 .097.377.177.839.177 1.323 0 1.763.823 1.465 2.74-.143.918-.24 2.166-.215 2.773.034.86-.244 1.356-1.262 2.249-1.92 1.686-3.186 2.084-7.663 2.408-4.134.299-5.864.892-5.864 2.01 0 .674.671.66 2.086-.046 1.423-.71 4.573-.4 5.754.567l.803.657-1.588.682c-.873.375-1.877.782-2.23.905-.372.129-.593.484-.524.841.096.496.515.627 2.117.663 1.434.031 2.379.28 3.346.881 1.215.756 1.732.836 5.229.813 2.327-.015 4.728-.249 5.997-.583 2.523-.665 6.962-1.112 7.943-.8.931.295.908 1.64-.044 2.5-.652.59-.71.889-.467 2.436.538 3.436.4 4.984-.534 5.978-.89.948-4.905 3.018-5.852 3.018-.776 0-3.762 1.57-4.464 2.348-.328.363-.787 1.452-1.02 2.42-.792 3.293-.895 3.52-1.651 3.632-.408.06-1.221-.138-1.807-.44-1.76-.911-2.82-.69-5.032 1.048-2.318 1.821-4.038 2.634-5.574 2.634-1.661 0-3.914 1.047-5.833 2.71-1.105.957-2.1 1.523-2.678 1.523-1.263 0-5.605-1.149-8.794-2.327-3.122-1.153-6.074-1.258-10.304-.364-1.495.316-3.638.581-4.762.59-2.655.02-5.463.972-5.917 2.006-.523 1.193-1.217 1.264-2.708.277-1.327-.878-1.709-1.686-1.003-2.122.633-.392.375-.857-.972-1.749-1.621-1.072-2.627-.887-3.298.609-.67 1.491-1.375 1.66-1.375.33 0-1.13-.786-2.046-1.42-1.654-.249.154-.308.748-.161 1.618.279 1.65-.28 1.823-1.831.57-1.164-.94-3.895-2.723-4.17-2.723-.105 0-.156.441-.115.98.08 1.045-.256 1.842-.775 1.842-.173 0-.9.397-1.615.882s-1.56.882-1.878.882c-.318 0-.96.268-1.428.596-.668.468-1.724.605-4.929.639-3.446.037-4.308.163-5.554.81l-1.476.768-1.405-.75c-.806-.43-1.664-.65-2.012-.517-.57.218-.567.277.035.943.353.39 1.168 1.034 1.812 1.432 1.573.972 1.588 2.195.036 2.998-1.493.771-2.998.74-6.628-.142-5.978-1.453-6.259-1.437-7.552.433-.452.654-.554.613-2.322-.933-2.02-1.768-5.115-3.413-8.075-4.291-1.815-.539-2.06-.527-5.644.27-2.06.458-4.334.937-5.051 1.065-.72.128-1.983.799-2.815 1.494-2.216 1.851-2.951 2.046-4.385 1.16l-1.197-.74v1.031c0 .568-.318 1.955-.706 3.083-.388 1.128-.705 2.557-.705 3.176 0 .676-.281 1.379-.706 1.763-.388.351-.705.92-.705 1.265 0 .345.317.728.705.852.93.295.895 1.096-.088 1.945-3.236 2.797-3.44 3.066-3.44 4.546 0 .976-.23 1.675-.705 2.152-.862.862-1.138.87-3.292.098-1.282-.46-2.012-1.03-2.945-2.301-1.548-2.109-2.26-2.527-3.151-1.852-1.39 1.052-3.21.17-3.825-1.854-.132-.437-.388-.794-.57-.794-.18 0-.652-.324-1.047-.72-.565-.564-.67-.98-.49-1.94.199-1.061.137-1.22-.475-1.22-1.293 0-1.513 2.344-.365 3.896 1.161 1.571.437 1.995-1.51.882-1.982-1.133-2.417-1.121-5.966.16-2.993 1.08-5.89 1.378-6.592.676-.21-.21-.752-.33-1.203-.265-.648.093-.977.559-1.56 2.21-.407 1.149-.969 2.2-1.249 2.335-.28.134-1.256.577-2.168.983-.913.406-1.921 1.138-2.241 1.626-.463.707-.713.818-1.228.542-1.016-.544-1.398-.412-1.398.481 0 .455-.318 1.115-.706 1.466-.851.77-.88 1.162-.148 1.972.68.752.352 1.502-1.67 3.81-.746.853-1.357 1.686-1.357 1.853 0 .862-.963.106-1.529-1.2zm179.785-80.782c1.483-.689 1.19-1.323-.612-1.323-1.701 0-2.266.443-1.596 1.25.522.63.978.644 2.208.073zm-168.8-1.764c-.075-1.038-.268-1.499-.629-1.499-.376 0-.523.416-.53 1.5-.006 1.213.114 1.498.63 1.499.532 0 .62-.249.53-1.5zm62.44-76.67c1.047-1.205.773-1.434-1.014-.844-1.294.427-1.566.407-2.688-.197-.687-.37-1.326-.875-1.422-1.124a.766.766 0 0 0-.664-.451c-.91 0-.502 1.131.923 2.556 1.281 1.28 1.54 1.395 2.734 1.205.802-.128 1.637-.576 2.131-1.144zm67.637-18.616c.383-.263 1.172-.638 1.754-.833.9-.303.499-.395-2.686-.62-3.642-.257-5.252-.1-5.252.514 0 .164.724.3 1.609.3.884 0 1.956.242 2.38.54.973.679 1.327.695 2.195.099zM98.45 56.115c.085-1.048-.019-1.251-.693-1.347-.72-.103-.794.031-.794 1.44 0 .854.11 1.663.244 1.797.438.438 1.139-.628 1.242-1.89zm-5.66-6.228c.697-.63.845-1.18.318-1.18-.424 0-1.436 1.012-1.436 1.436 0 .489.395.398 1.118-.256zm1.976-1.82c.086-.258-.076-.337-.42-.205-.306.118-.558.37-.558.56 0 .463.802.172.978-.355zm56.966-8.047c2.28-1.283 4.145-2.552 4.145-2.82 0-.574-1.719-.654-3.438-.16-1.237.354-6.477 4.618-6.21 5.051.369.596 1.557.149 5.503-2.071zm-68.174-6.836c0-.194-.239-.352-.53-.352-.29 0-.529.158-.529.352 0 .195.238.353.53.353.29 0 .529-.158.529-.353zm-6.35-24.87c.376-.454.257-.53-.84-.53-1.245 0-1.72.469-.836.825.792.32 1.23.243 1.676-.295zm3.685-6.497c.239-.386-.507-.697-1.126-.47-.241.089-.35.304-.243.477.253.411 1.114.407 1.37-.007zm122.962 328.657c-.485-.224-1.884-1.165-3.108-2.093-1.293-.979-2.6-1.685-3.116-1.685-.554 0-.836-.167-.746-.441.232-.707 2.41-2.029 3.343-2.029.47 0 1.556-.41 2.412-.912 1.438-.843 1.693-.883 3.338-.53 2.121.454 4.537 1.627 4.808 2.333.115.298-.261.89-.911 1.437-.609.512-1.347 1.396-1.64 1.963-.513.992-2.413 2.434-3.145 2.387-.194-.013-.75-.206-1.235-.43zM61.202 162.466c-.248-.646-4.073-2.42-5.99-2.778-1.413-.265-2.698.407-2.698 1.41 0 .53-1.241.997-1.775.667-.203-.126-1.469-.032-2.812.208-1.967.352-2.547.349-2.984-.014-.644-.534-.697-1.827-.138-3.372.568-1.57.163-2.814-1.084-3.33-.573-.238-1.182-.346-1.353-.24-.452.28-2.554-1.086-2.554-1.659 0-.268-.313-.885-.696-1.372-.415-.527-.679-1.368-.652-2.078.06-1.604-.796-3.148-2.605-4.697-1.902-1.628-2.919-1.567-4.15.25-.494.73-1.399 1.632-2.01 2.004-1.493.908-1.767 1.898-.847 3.067 1.1 1.399.946 2.493-.468 3.327-.658.389-1.394 1.183-1.636 1.766-.241.583-.705 1.252-1.03 1.487-.326.235-.696.704-.823 1.044-.291.78-1.438.79-2.737.023-.827-.488-1.17-.52-1.923-.176-1.544.703-2.523.489-3.946-.865-1.52-1.446-2.77-2.052-4.99-2.418-1.635-.269-2.627-1.38-3.082-3.453-.122-.554-.528-1.121-.904-1.26-.375-.139-2.193-1.898-4.041-3.909-3.475-3.781-4.034-5.014-2.383-5.249.764-.109 1.731-.92 3.178-2.668.668-.808 1.032-.927 2.832-.927 2.133 0 2.903-.332 4.78-2.06 1.251-1.154 1.244-1.82-.02-1.82-1.078 0-2.82-1.131-3.944-2.56-.962-1.223-.906-1.496.486-2.356 1.149-.71 1.238-.716 2.25-.135 1.024.588 1.122.577 3.302-.348 1.236-.525 2.598-.953 3.028-.953.828.001 1.512-.92 1.512-2.034 0-.37.558-1.387 1.24-2.263 1.186-1.523 1.49-2.488 2.49-7.903.209-1.137 1.488-2.564 2.981-3.325 1.192-.608 1.663-.651 3.96-.36 1.435.182 2.962.239 3.393.126.932-.244 2.163-2.483 2.163-3.934 0-.563.344-1.46.763-1.994.736-.935.846-.961 3.117-.737 2.706.266 4.412-.175 8.23-2.131 2.301-1.18 2.518-1.223 4.938-.995 1.393.132 3.073.46 3.734.73.711.29 2.131.452 3.473.397 2.149-.089 2.315-.037 3.117.965 1.044 1.303 1.37 2.865.874 4.171-.584 1.536-.47 1.877.897 2.684 1.13.666 1.254.879 1.1 1.887-.209 1.376.12 2.058 2.02 4.182.805.9 1.849 2.362 2.32 3.25.683 1.287 1.003 1.577 1.579 1.433 1.08-.271 2.338 1.261 2.543 3.096.211 1.89-.64 3.11-3.02 4.32-2.046 1.042-3.154 2.208-3.435 3.614-.322 1.607.474 1.893 1.592.573 1.525-1.801 2.99-2.343 5.722-2.114 2.922.245 3.674.622 3.945 1.976.116.578.851 2.387 1.634 4.02 1.512 3.152 1.715 4.51.95 6.342-.26.624-.58 1.706-.711 2.404-.164.876-.51 1.393-1.114 1.668-.482.22-.876.647-.876.95 0 .975-1.392 3.316-2.341 3.938-.68.446-1.543.582-3.305.522-2.254-.078-2.432-.025-3.263.963-.572.68-1.036 1.885-1.328 3.452-.49 2.62-1.056 3.558-3.079 5.09-1.454 1.1-3.07 1.33-3.397.48zm15.17-16.663c.511-.332.98-5.594.666-7.458-.387-2.287-3.19-3.664-4.199-2.062-.314.5-.21.781.552 1.487 1.686 1.564 2.025 4.738.82 7.686-.206.503-.067.616.755.612.554-.003 1.187-.122 1.407-.265zm24.296 15.439c-.121-.196-.032-.95.199-1.677 1.313-4.14 1.855-5.216 3.595-7.14 1.018-1.127 2.167-2.867 2.554-3.868.792-2.05 2.143-3.6 3.7-4.245 1.648-.682 2.148-.294 1.914 1.484-.165 1.26-.047 1.715.711 2.727.5.668.91 1.39.91 1.602 0 1.08-3.757 6.28-6.358 8.799-2.532 2.453-2.969 2.745-3.552 2.381-.814-.508-1.912-.532-2.793-.061-.442.237-.733.236-.88-.002zM85.615 90.237c-1.768-1.054-2.41-2.275-2.41-4.588 0-1.062-.25-2.532-.557-3.266-.816-1.952-.42-3.402 1.34-4.908 2.064-1.767 3.27-1.671 4.524.36.928 1.5 2.102 5.565 2.102 7.274 0 .717.159 1.401.353 1.521.627.388.413 3.187-.292 3.826-.928.84-3.469.73-5.06-.22zm-30.749-7.193c-.512-.512-.19-2.01.647-3.004 1.096-1.303 1.097-1.637.01-3.238-.887-1.308-.882-2.136.017-2.48.579-.223.67-1.128.146-1.452-.796-.492-1.777.32-2.686 2.225-1.183 2.478-1.813 3.245-2.668 3.245-.936 0-1.165-.89-.713-2.78a39.5 39.5 0 0 0 .629-3.57c.196-1.592.457-2.146 1.454-3.087 1.39-1.312 2.208-1.457 2.474-.44.101.387.259.705.35.705.091 0 .991-.873 2-1.94 2.064-2.182 3.3-2.514 4.276-1.147l.566.794.704-.952c.388-.523 1.57-1.348 2.629-1.832 1.058-.485 1.924-.973 1.924-1.086 0-.113-.397-.356-.882-.54-1.691-.643-.985-2.09 2.823-5.78 2.61-2.532 3.546-3.176 4.23-2.913.78.3.65 1.59-.287 2.839-.45.6-1.184 1.885-1.632 2.855-.447.97-1.994 4.185-3.437 7.144-2.243 4.599-2.74 5.38-3.428 5.38-.9 0-1.836-.885-2.025-1.915-.185-1.012-.814-.87-.939.21-.06.52.32 1.784.848 2.823 1.18 2.319 1.592 4.03 1.212 5.03-.393 1.033-2.832 2.671-3.978 2.671-.512 0-1.139.281-1.392.624-.41.553-2.165 1.846-2.507 1.846-.071 0-.236-.106-.365-.235zm8.954-78.05c-.415-.775.325-3.279 1.282-4.336.63-.697 3.778-.914 4.165-.288.274.443-2.436 4.457-3.331 4.937-1.013.542-1.714.438-2.116-.313z" fill="#0b2746" stroke-width=".353"/></svg>