<svg data-name="Слой 1" xmlns="http://www.w3.org/2000/svg" viewBox="0 0 232.44 409.44"><path d="M145.1 386.96c-.86 2.31-.28 2.88-.28 2.88a20.51 20.51 0 0 1 6.06 2.31c2.88 1.73 1.44 3.47 1.44 5.77s0 2-1.73 4 .57 5.2 1.73 6.93 2.89-1.15 2.89-1.15a6.71 6.71 0 0 1 2.88-3.47c2.31-1.44 0-2.88 0-2.88l-.58-1.45 1.74-2s1.73 0 5.19 2 2.89 0 3.46-1.44-1.15-2.31-1.15-2.31-2.89-.57-3.46-2.31 0-1.15-2.31-5.19-1.73-.58-4.33-2.89-1.44-2.31-2-4 2-1.15 4.9.58 3.18 0 3.18 0l2.6-1.15a3.28 3.28 0 0 0-1.45-2.31c-1.44-1.16-2.31-.58-2.31-.58l-1.15-1.15s.58-1.74 1.15-3.18-.57.29-4.9 0-.87-.29-2.6-2.6 1.16-2.3 1.16-2.3a25.86 25.86 0 0 1 6.34 1.15c4 1.15 1.16 1.15 5.78 1.73s0 0 4 0a6.8 6.8 0 0 0 5.77-2.88s-.29 0-4-2.31-.58-2.31-4-5.2 0-1.15 0-1.15a5.84 5.84 0 0 1 1.15-2.89c1.16-1.73.87-.58 3.75-3.46s2-1.16 1.45-4-1.16-2.89 0-6.35a7.22 7.22 0 0 1 1.31-2.48c-.68.42-1.82.33-3.21 1.2-4.62 2.89-1 1.28-2.43 2.72s0 .87-2 3.18-2.31-.29-2.31-.29a5.89 5.89 0 0 1-3.46-1.45c-1.74-1.44-1.74 0-1.74 0a20.46 20.46 0 0 0-2 2.89c-1.44 2.31 0 1.44-2.88 4.62s0 .58-4.33 5.48-3.46 6.64-3.46 6.64a31.25 31.25 0 0 0-.58 4.91c0 2-1.16 1.44-1.16 1.44v1.44a7.84 7.84 0 0 0 .87 3.18c.87 1.73 0 1.15-1.44 6.92s-.58.58-1.45 2.89M34.63 65.16l-.85-.15.5-2.95-9.35-1.6-4 1.14-5-.86-8.29 3.45 1.95-3.92-2.49-.43-.1.59-5.16 7.63L.02 78.68l1.79 4.56 1.25.22-1.86 3.32 3.34 3-1.11 6.5 4.16 1.92 1.45-1 .32 1.87 4.79 2 2.17-1.45 3 1.13 3.52-1.83 2.81 2.3.32 1.88 5.29-.92.49-6.6.4-2.36-3.24-3.59 1.1-10.14 4.09-12.67h.18zm137.64-22l1-9.55-.33-1.88-5.2-3.32 3.6-6.06.5-3-5.15 7.63-1.87-.32-3.52 1.83-.1.59-4.36-.75-3.31 4.3-16.11 3.85-5.17-3.23-5.44-6.7-6.33-4.56-12.9 4.28-10.29-3.15-8.07-.87-1.69 1-16.37-.42-1.64 5.8-3.84-.06-.93 1.67-1.87-.32-5.77 7.52.64 3.75 4.06 2.52-1.39 11.91-3.71 6.66-1.34.38-3 2.76-.93 1.59 3.67 1.07-.72.48-1.78 17.92 1.15.8L52 90.02l-2.69.76-.71 4.13 5 .85 2.43 8.31 2.29 1.61.55 4.34-1.36.38.13 3.06 4.92 8.74 1.87.32.64 3.75.63.11-9.3 50.66-2.78 5-1.45 1-2.74 12.28-5 6.45-.62-.11-10.79 10.25 9.24 39.86 26.11 31.19 1.65-2.15 1.77.91-.19 4.83 14.53 38.93-1.58 16.74 5.83 22.26 1.24.21 1-5.91.62.11 22.14-16.87 1.74-2.74.63.11 4.43-7.14-.22-2.47 1.77.91 3.2-3.71-2.09-2.78 1.53-5.21 1.25.21 7.85-27.21-.45-.64-.32-1.88 2.35-6.28-2.14-1.4 6.56-9.39 5.18-20-1.15-3.58 1.41-8.27 5.19-.33-3.56-1.87 8.3-22.27 4.12-5.38 3.47-12.77-.32-1.88 3.62-2.42 2.58-3.81-.22-2.47-3-1.12-4.75 1 1.61-20.59h.12l4.88-2.59 5.61 1-3.29-14.53-2.71-2.9 1.41-8.26-.42-1.29 10.78-3-.4 2.36 2.49.43.23-16.36.72-.49.21-1.18-2.1-2.79v-3.69l5.18-.33 1.05 1.39 8.4-.39.31-1.77-1.69-5.15 9.56.42.72-.48 11.43.74-.43-1.29 1.07-.9.38-.07-.22-.31h-.42l-4.16-5.37.2-1.18-1.05-1.39-2.79 1.32-1.65 2.15-4.05 1.13.19-4.83-2.78 5-.63-.11-1.44 1-5.39 1.5-.63-.1-1.53 5.2-2.69.76-2.18 1.45-3.54-1.82-2.45-12 3.61-6.07.4-2.36-2.73-6.54 2.35-6.28-.52-.7-9.37-1.51-7.85 4.65-2.5 3.24 1.26 3.86-2.37 2.63 1.57 2.09.66 7.41 4.48 3.8.95 2 3.53 1.82-3.93.54-2-3.37-7.68-.1-.22-2.47-9-11.25-.33-1.88-1.15-.81-8.27-15.38.7-4.13.83-1.08.28-5.42 2.6-.16 2.17-1.45 2.49.42 3.94-.54.53.7 3.64 1.23-.41 2.36 4.29 5 5.65 2.34.48-.68 5.24-2.42 3.17 1 2.9-.92 2.47-3.22.3-1.78 1.25.22 2.46-6.87-1.05-1.4-4.78-2 1.35-.37.3-1.78-2.7.76-1.45 1-.74-3.17-7.38-1.87 1.85-3.33zm-23.39 35.49l10.17.52.21-1.18-2.52-4.07-1-5.63-2.6.17-3.7 6.65zm69.86-63.39l.93-1.67-1.57-2.09L193.75.05l-5.5 2.1-4 4.78-2.71-2.89-3.95.54 1.15.8-2.3 17.23.58 3.74-.62-.11.32 1.88 3.55 5.47 5.52 1.55 4.45-7.27 2.41-10.39 2-.27 3.34 3 3.22-.06-.2 1.18-5.92.81-1.8-.28-.62 3.59 5.63 15.47 1.55-1.56-.94-2 3.32-.64.4-2.37-.62-.1 1.45-1 1 1.39 2.5.43 4.95 16h-3.84l-1.32 4 1.82 11.85 1.15.8 1.24.21 1.75 16.1 2.29 1.61 6.65 2.35.4-2.37 3.51-5.47 4.78 2 .51-3-3.36-6.65-.22-2.47-1.87-.32-2.27 2 2.47-3.23 1-5.9 4.57-.43-1.15-.81.51-2.95 1.45-1 .4-2.36-19.14-8.13.3-1.77 2.49.43.2-1.18-2.39-1 3.6-6.07.5-3-2.49-.42 2-15.46.93-1.66z" fill="#ee2f48"/></svg>