<svg id="Слой_1" data-name="Слой 1" xmlns="http://www.w3.org/2000/svg" viewBox="0 0 322.85 331.69"><defs><style>.cls-1{fill:#ee2f48}</style></defs><path class="cls-1" d="M310.71 0l-.23.45-.33.29-.37.13-.95 1-1.39.89-.23.31-1.77 2.11-2.32 2.53-.86.56-.94.19-3.38-.27-2.78-.5-.7-.21-.31-.16-.85-.65-.17-.11-.19-.2-.32-.91-.17-.21-.3-.13-.2-.35-.25-.83.15-.78-.4-.32-.56.22-.27.8-.07.42-.19.47-.21.41-.21.27-.29.15-.29-.02-.64-.31.41-1.32.28-.37.36-.2.25-.06v-.08l-.36-.32-.67-.33-2.39-.13-.31.11-.34.27-.57.65-.15-.06-2.91-.05-.28-.08-.24-.18-.29-.3-.08.08-.21.12-.27-1.04-.11-.18-.48-.49-.09-.19.3-.2 1.62.2V.9l-2.3-.9h-39.75l.22 4.28-.07 1.14-.15 1.14-.36 1.27-.5.96-.62.75-1.11.94-.37.24-.38.14-.85.14-.46.21-.45.31-.34.33-.53.97-.29.66-.12.52.12.62.46 1.2-.06.51.18.25.36 1.08-.33.5-.24.47-.05.54.22.72 1.11 1.71.25.73.02 1.25-.34 1.19-.51 1.03-.53.8-1.34 1.45-1.51 1.16-.53.3-.26.06-.37.01-.24-.06-.43-.25-.48-.1-.82-.35-.73-.1-.21-.07-.36-.48.16-.48.2-.37-.23-.13-.45.05-1.5.63-2.04.31-.28-.08-.19-.14-.29-.4-.21-.22-1.43-.68-.4-.33-.6-.77-.35-.33-1.7-1.27-.35-.14-.15-.11-.21-.22-.24-.21-.28-.02-.17.15-.07.26-.06.29-.11.24-.38.29-.48.1-.99-.02-.6 2.03.17 1.09.6.74.75.62.66.71.96 1.4.14.37.14.63.3.42.2.4-.11.52-.36.43-.83.58-1.35 1.35-.32.4-.5 1.11-.29.51-.36.21-.15.28-.04.61-.13.64-.43.33-.41-.11-.3-.31-.45-.77-.44-.35-.34.11-.28.39-.51 1.06-.17.24-.15.13-.24.02-.22.07-.18.15-.83 1.07-.32.22-.47.12-1.92.1-.8.38-.66.99-.22 1.02.32 2.01.01 1.2-.25 1.22-.21.58-.82 1.38-.25.54-.09.51.19 1.07.2.66.22.29.9.72.61.23.18.13.39.78.09.14.03.12.36.46 1.99.89.66.69 1.01 1.83.65.76-.12.4.02.51.12.5.13.42-.09.16-.01.44-.05.3-.19.13-.14.11-.08.13v.16l.14.22.01.16-.04.59-.06.24-.18.26-.15.03-.44-.05-.09.12-.23 1.08-1.03 1.68-.32 1.65-.38.83-.09.57.08.55.6 1.52.28 1.1.19.5.28.21.22.08.5.39.24.09.19-.05.35-.14.2-.01.94.45.48.07.21-.42.13-.54.3-.51.36-.43.31-.25 2.51-.8.62-.47.21-.87-.2-2.14.39-.96.35-.17 1.05-.3.23-.17.19-.2 1.19-.63.22-.48.31-1.14.21-.47.37-.31.49-.09.48.16.36.34.12.47-.22.27-.31.25-.16.38.18.37.44-.12.9-.54h.97l1 .33 1.7.96.92.25.73-.3 1.21-1.24.35-.23.43-.18.93-.13.19-.22-.34-.5-1.5-1.43-.47-.29-.47-.11-.51-.04-.45-.13-.38-.23-.35-.31-1.31-1.73-.33-.34-.76-.52-.33-.34-.95-1.35-.32-.73-1.17-.83-.42.19-.37.11-1.28.12-.76.25-.46.06-.35-.15-1.48-1.65-.64-.51-2.04-1.12-.59-.68-.2-1.21.14-1.21.3-1.15.44-1.06 1.08-1.94.73-.89.8-.71.86-.4.49-.03 1.43.24 1.3-.21h.46l.95.42 3.33 3.83.22 1.09.11.22.16.19.41.32.56.17.23.18-.05.29-.17.08-.78-.17-.09.1.1.24.18.26.13.14.24.12.26.03.24-.05.23-.1.31-.3 1.12-1.63.36-.39 1.54-1.11.21-.12.23-.07.24-.03.23-.08.4-.39.54-.25 3.28-2.59 2.43-.99 1.72-.38 1.79-.05 1.79.48 1.42.8.42.12.32.18 1.1 1.31.96.64 2.99 1.37.85.62 1.16 1.21 3.55 2.55 1.71.55 4.2 2.46 4.01 1.42 3.09 2.07.51.45.45.54.2.49.17.28.42.42.45.36.31.11.23-.36.24-1.2.53-.49.23-.55.54-2.17.1-.6.04-.55-.03-.61-.22-1.52.13-1.26.35-1.12 1.96-3.64 2.52-3.98 1.27-1.56 3-2.58 1.91-2.35 3.1-2.22 2.79-1.35 2.78-.72.44-.02.26.12.13.27.08.3.09.24.18.22.17.13 1.47.52.61.11.52-.29 1.53-.15 2.84.68.82-.28-.24-.27-.31-.26-.27-.3-.12-.38.06-.32.17-.4.2-.35.18-.14.14-.07.2-.35.14-.14.16-.05h.1l.12.04.23.01.37.12.06.31-.05.32.03.27.53.5.61.25.68.03 1.33-.22.27-.08.18-.18.08-.37-.1-.28-.39-.67.97.31.48-.01.47-.3.13-.21.04-.18.06-.11.76-.09.19-.1.18-.24-.32-.14h-.33l-.25-.1-.08-.49.14-.37.25-.22.32-.12 1.52-.24.55-.22.44-.42.43-.23 2.02-.05.62-.19.33-.05.53.33.39.1.41.05.23-.07-.27-.17.56-.72.13-.22.11-.31.17-.68.12-.29.16-.21.53-.53.17-.28.12-.24.16-.17.28-.07.58.12.22-.06.3-.33.18-.12.77-.17.26-.12.35-.52.22-.12h.43l.17-.11.12-.24-.23-.14-.65-.2-.26-.03-.06-.04-.06-.06-.08-.06-.13-.04-.12.06-.26.28-.17.06-.94-.06-.27.06-.26.16-.11.19-.07.19-.12.19-.26.14-.52.13-.24.2-.82.92-.76.65-.12.2.09.37.23.22.18.2-.1.34-.5-.42-.47-.23-1.68-.17-.65-.17-.58-.3-.35-.42.33-.11-.11-.19-.34-.17-.34-.08-.32-.13-.12-.27.04-.32.19-.21.58.14 1.24 1.07.63-.09-.96-.75-.67-.93-.41-1.05-.52-2.3-.25-.66-.1-.45-.3-.25-.06-.23-.06-.59-.15-.55-.21-.47-.26-.37-1.29-1.39-.28-.42-.82-1.83-.04-.22-.01-.35.05-.31.3-.41.18-.61.22-.51.12-.57-.19-.51.31-.99.45-.99.5-.89 1.81-2.31.17-.44.2-1.34.22-.56 1.18-1.58.12-.29h-2.83zM49.65 286.53l-.11-.11-.15-.08-.82.49v-.12l-.01-.26.01-.11-.24.11-.14-.05-.11-.14-.12-.07-.19.05-.21.08-.22.04-.19-.1-.65-.56-.06-.28.4-.64.12-.38.12-.15.13-.09 1.03-.2.31-.14.08-.31-.2-.56-.23.44-.12.13-.18.07-.18-.03-.19-.13-.14-.21-.06-.27h-.12l-.04.25-.09.28-.16.14-.43-.25-.27.02-.23.07-.14-.04.01-.4.41-.3.33-.31-.21-.44-.51.3-.64.07-.41-.26.21-.74.4-.45.23-.14.09-.21.06-.24.09-.19.19-.28.45-.93h-.42l-.72.39-.43.1-1.35-.08-1.22-.28-2.54.04-.49-.07-.38-.15-.25-.31-.2-1.55.13-.31.5-.07.2.09.17.15.2.1H40l.18-.13.26-.42.18-.09.49-.13.07-.29-.06-.38.11-.33.36-.16.31.17.35.06.48-.41.16-.4.32-2.18-.06-.49-.2-.46-1.36-1.76-.23-.38-.4.06-.4-.24-.33-.13-.23.31-.35-.1-.51.03-.44.18-.2.28-.12.31-.57.93-.26.32-.7.39-.93.16-.96-.04-.81-.19-1.2-.7-.36-.11-1.27.07-.44-.07-.35-.23-.41-.41-.32-.43-.28-.68-.61-1.06-.21-.46-.07-.62-.05-.18-.59-.38-.1-.19-.06-.23-.08-.07v-.08l.22-.28.14-.27-.05-.16-.07-.16.03-.3.16-.24.39-.25.13-.17.01-.11-.12-.24-.01-.13.06-.14.18-.29.04-.16-.23-.31-.5.22-.51.39-.27.29-.3.42-.26.18-.32.05h-.56l-.16-.11-.1-.21-.07-.23-.07-.1-.75-.18-.98.17-.54-.05-.24-.36-.1-.08-.24-.03-.25.04-.16.07-.6.9-.43.34-.4.06-.96-.08-.31.06-.12.11-.07.15-.17.2-.45.3-.22.01-.15-.17-.24.72-.1.19-.21.14-.14.08-.1.14-.03.29.37.95.02.53-.45.23-.33.1-.25.26-.27.31-.31.29-.76.4-.22.28.29.3.19-.24.35-.3.39-.24.3-.02.16.35-.09.54-.24.5-.31.22-.17.06-.19.23-.18.05h-1.03l-.1.07-.08.12-.08.12-.14.01-.1-.06-.08-.11-.04-.09-.06-.06-.01-.05-.12-.29-.09-.06-.27-.07-.12-.1-.13-.25-.05-.52-.1-.22-.21-.14-.14.09-.18.38-.14.14-.13.08-.17.03-.23.01-.11.11-.52.7-.2.09-.2-.02-.19.04-.22.19-.1.2-.03.16.1.12.24.04.18.07.05.32.19.08.62-.16h.26l-.14.3-.22.21-.27.12-.25.04-.09.05-.16.32-.09.1h-.62l-.3.08-.19.2-.34.61-.22.25-.23.11-.62.04-.14-.06-.07-.15v-.36l-.09-.1-.38.05-.08-.03.01-.37.29-.31-.03-.29-.39-.45-.53-.12-.59.02-.52-.1.04.32-.17.61-.02.38.31.67.08.32-.18.15-.26-.14-.16-.28-.11-.28-.15-.13-.21.07-.2.17-.18.21-.03.2.38.63 1.04.48.22.6-.09.23-.19.17-.19.22-.08.35-.07.88.07.33-.27-.13-.22-.2-.14-.26-.11-.62-.13-.4-.21-.3-1.75.35-.3-.07-.16-.25.02-.54-.85.47-.47.07-.29-.39-.4.26-.11.45.11 1.19.1.3.01.16-.06.16-.13.1-.12.07-.08.07-.05.3-.02.56-.08.28h.52l.19.06.35.33.21.07.2-.03.15-.1.14.17.07.11-.01.15-.06.2.21.1.22.13.18.2.07.24-.06.26-.29.38-.05.32h.13l.13-.11.32-.03.17-.11.07-.17.08-.52.05-.2.17.11.08.12.04.16-.01.24.58-.29.09-.02.18.26-.12.24-.21.2-.11.19-.06.19-.08.19v.13l.2.06.47.39.15.08.19-.35.25.03.51.32-.08.36.29-.02.46-.15.4-.01 1.06.95.18.26-.08.57-.12.53-.01.49 1.03 1.87.4.32-.12.16-1.5-.72-.75-.08-.21.64-.15-.05-.06-.04-.07-.07-.15.23-.19.08-.14-.1-.06-.29-.16-.05-.3-.2-.19-.21.17-.1v-.08l-.34-.56-.04-.27.04-.86.16.2.09.28.12.24.2.09.13-.13-.01-.25-.12-.43-.1-.72-.16-.3-.28-.19-.43-.41-.38.5-.21.13-.11-.31.1-.36.42-.48.04-.28-.1-.12-.13.02-.12.06-.05.04-.07-.02-.16.03-.06-.01-.02-.06.03-.2-.01-.07-.4-.32-.55-.32-.54 1.94-.35.87-.04.44.11.47.12.16.19.19.17.23.07.3.02.28.08.24.17.36.22.37.5.63.23.45.19-.24.28-.21.25-.04.11.26.03.29.13.13.17.12.21.19.4.85.29.34.41-.07-.06.62-.25.55-.65.92-.42.76-.12.2-.24.16-.21.09-.2.12-.19.28.79-.05.66-.36 1.66-1.71.22-.32.9-1.92.29.16.49-.03.5-.13.36-.14.61-.39.21-.09.28-.08.68.08.84-.26.24.08.11.16-.01.12-.06.13-.04.15.04.17.09.13.14.11.06.53-.05.18-.16.26-.2.27-.23.22-.25.09-.27-.1-.1.67.26.59.31.43.08.23.29.27.39-.14.41-.29.48-.23.16-.16.12-.18.05-.14 1.28-.41.3-.24.14-.36.05-.61.06-.23.28-.43.07-.3.05-.74-.05-.31-.42-.95-.65-.63-.81-.24-.84.21-.74.54-.44.17-.74-.26-.52-.1-.34-.2.2-.48.2-.1.49-.02.2-.11.19-.2.4-.23.14-.13.33-.46.18-.39.02-.38-.12-.38-.94-1.8-.56-.63-.22-.41-.04-.58.63.26.54-.55.57-.75.7-.4.32.12.58.55.27.14.28.02.44.12.54.07.08.13-.02.21.1.27.13.17.43.3.08.04.09.02.12.02.1.09.04.12-.01.3.13.46-.03 1.02.13 1.55.15.42.58.32.92.97 1.52 1.24.25.46.03.15.08.1.04.1-.08.13-.21.3-.1.18-.04.16.06.25.13.28.23.23.27.12v.17l-.19.01-.17.03-.33.11-.3-.02-.23.12-.41.39-1.37.7-.35.27-.19.33.27.14.33-.15 3.24-.63h.54l-.24.58-.31.39-1.41 1.24-.11.19.07.29.45.36.17.31-.58-.01-.22.09-.17.24.34.32.07.61-.18.59-.42.25-.51.7-.09.18.07.65-.02.29-.2.26-.51-.51-.15.05-.16.46-.02.21.06.2-.04.22-.09.12-.26.17-.06.12-.19.59-1.45 1.56-.01.07.01.35-.03.08-.16.05-.07.1-.2.64-.07.16-.24.24-.42.28-.38.13-.61-.77-.83.3-.53.64.43.47-.6 1.2-.09.46.09.14.37.23.09.13.01.25.11.43.02.27-.14 1.53.08.42.18.28.55.57-.24-.13-.27-.04h-.57l.04.32-.03 1.04.05.22.31.12.92.56.27.2.75 1.18.56.65.21.36.03.44-.26.48.2.57-.12.77-.23.83-.13.76-.23.46-1.07.83-.33.54-.26-.23-.39-.48-.23-.09-.17-.03-.26-.11-.18-.01-.16.06-.52.27.42.25.59.47.52.53.23.41-.12.3-.02.17.08.07.14.06.11.15.07.18.05.52.09.31.17.24.24.13.53-.2.45-.01 3.56.43.36.18.23.33.19.54.01.32.1.16.3.14h.28l.22-.11h.22l.26.27.34-.38.39-.16.32-.18.15-.47.06-.39.24-.8-.03-.29-.26-.22-.89-.5-.27-.09-.31-.19-.22-.46-.24-.95-.59-1.32-.08-.48.02-.45.23-.94.25-.66.33-.57.18-.81.15-.24.54-.63.09-.19.07-.59.06-.24.62-.75.82-.25.91.08.89.27.57.54.11.84-.23.91-.45.73-.35.38-.19.09-.26.02-.26-.1-.08-.16.07-.62-.21-.4-.48-.12-.51.05-.3.07-.3.19-.42.39-.24.37.21.17.21.05.34.2 1.16.22.2.4.05.91.22.5.56.75.45.77.25.67.21.76.1.84-.01.9-.14.88-.27.93-.32.85-.35.66-.29.23-.79.49-.15.31-.25 1.84.33-.15.53-.33.78-.71.32-.19.67-.14.39-.17.34-.23.14-.23.16-.18 1.08-.21.33-.14.33-.19.31-.23.25-.24.22-.33.35-.71.18-.3.54-.58.33-.22.73-.18.92-.67-.61-.16-.14-.09-.01-.16.28-.44.07-.2-.17-.28-.41-.23-.48-.14-.85-.14-.16-.22.05-.35.68-1.21.23-.28.3-.23.75-.35.41-.1.4-.05.2.02.39.12.5.05.1.07.04.12.13.2.39.42.09.13.05.24-.01.39.1.16.31.16.37-.01.81-.15-.03.1-.02.06-.09.14.13.05.06.04.07.08.13-.1.05-.15.03-.17.07-.2.26-.36.1-.22.19-1.1.06-.17.25-.25.09-.13v-.48l-.04-.11-.07-.09-.05-.15.03-.29.08-.22.26-.45.05-.03.11-.39.22-.28.64-.52-.1-.71.5-2.56.06-.2.29-.39.06-.2-.07-.2-.53-.59-.2-.3-.12-.38-.05-.42.03-.44 1.24-2.6.52-2.3-.14-1.01v-.14l.29-.32.25-1.07.45-.91.24-1.16.21-.47.16-.15.11-.06.06-.11.05-.54.14-.61.08-.21.16-.08.24-.05.21-.12.08-.32-.02-.22-.25-.64.38-.23.43-.04.44-.1.38-.45-.35-.4-.12-.07-.33.01-.22-.27-.06-.29.35-.68-.09-.38.22-.11.46.02.28-.09.12-.14.35-.63.07-.25-.01-.18-.04-.07v-.04l.05-.11.1-.12.26-.22.18-.27.32-.11.5-.1h.09l.08.04.09-.04.03-.39.11-.42.06-.06.1-.05.08-.09.04-.19v-.66l.18-.49.93.12.37-.35.29.01.36-.15.31-.27.14-.32-.11-.13-.58.09-.25-.04.16-.26.16-.14.18-.08.17-.16.21-.38-.09-.17-.18-.09-.08-.17.24-.34.52-.24.59-.16.43-.05-.06-.17-.09-.13zM102.41 265.44l-.64-.03v-.16l.17-.03.19-.11.18-.03v-.14l-1.11.04-.29-.16.31-.54.23-.15.27-.1.21-.17.1-.3-.06-.33-.35-.68-.79-.89-.24-.01-.26.06-.23-.02-.1-.28-.02-.31-.1-.5-.01-.23.02-.15.14-.43.12-.08.02-.35.2-.57.07-.69.08-.18.12-.18.19-.32-.13-.2-.16-.16-.17-.09-.22-.04.39-.1.12-.08.17-.17.08-.14.18-.5v-.16h-.19l-.67.58-.36.08.31-.33.09-.2-.11-.13h-.29l-.25.06-.41.19-2.39.23-.24-.08-.25-.21-.2-.25-.08-.2-.1-.15-.24-.02-.53.09-.29-.11-.42-.43-.25-.1-.25-.06-.78-.44.28-.69-.23-.28-.45-.16-.41-.33-.09.19-.44.51-.15.12-.33-.1-.09-.24v-.67l-.07-.3-.1-.26-.19-.13-.33.04-.04.22-.04.34-.12.14-.31-.37-.25.51-.14.17-.7-.17h-.19l-.3.14h-.18l-.22-.07-.24-.21-.36-.1-.3-.22-.19-.05-.19.02-.32.12-.17.03-.24.12-.2.29-.14.33-.17.24-.61.38-1.22.58-.55.43-.45.45-.61.48-.56.19-.36-.38-.34.13-.57-.13-.59-.24-.42-.24.28.41.31.24.33.2.32.28.24.32.17.33.1.41.03 1.03-.13 1.08-.14.44-.26.35-.68.61-.28.34-.22.3-.26.3-.33.24-.41.13-.49-.03-.96-.36-.47-.09-1.46.16-.36-.05h-.12l-.23.05-.21.1-.19.12-.19.06-.21-.1-.25.54-.51.39-.62.24-.53.13-.31.02-.33-.02-.29-.09-.24-.16-.75-.69-.12-.13-.11-.7-.27-.63-1.39-2.17-.21-.14-.18-.04-.14-.07-.14-.24-.39.33-.24.12-.33.04v.16l.29.01.27.16.13.26-.08.29-.26.22-.58.22-.67.59-1.08.59-.34.43-.1.71-.05.75-.21.59-.59.24-.36.29-.11.7-.05.81-.17.65.03.71-.4.98-.62.85-.57.38-.3.07-2.1 1.16-.33.08-.18.15-.57.68-.12.23-.14.38-.32.3-2.68 1.57-.53.58-.24-.13-.29.08-.34.14-.29.09-.65.41-.16.03-.03.06.24.14-.46.2-.87.21-.7.55-.42.27-.28.28.12.27 1-.67.51-.2v.36l.51.03.16-.03.19-.08.07-.1.05-.12.12-.17 1.51-1.12.71-.39.67-.27h.49l.16-.1.08.02.19.08.18-.4.36.05.8.51-.19.06-.15.09-.13.16-.07.18h.28v.17l-.34.44-.01.54.23.3.38-.32-.08.67-.03.14-.16.12-.33.04-.14.09-.11.27.07.23.18.17.27.06h2.24v.17l-.38.08-.24.25-.13.35-.08.44.28-.23.27-.03.32.09.36.17-.18.23-.24.67-.34.57-.06.08-.13.08-.21.03-.07-.03-.08-.09-.34-.13-.65-.14-.23.03.26.12.29.1.2.24.3.18-.17.02-.38.16.1.33.19.12.58.02.22.07-.05.17-.16.17-.08.09-.08.02-.45-.02v.14l.28.07.12.23v.33l-.12.34h.39l-.22.28-.39.07-.42.02-.3.13 1.27.46.2.1.23.7.04.36-.2.16.04.21-.25 1.08.16.36.27.22.32.05.34-.15-.11-.09-.17-.17-.12-.06.13-.49.24-.03.33.16.39.04-.27-.33.33.12.85.59.17.02.25-.06 1.38-.02.17.37-.18.38-.59.61-.28.44-.35.91-.26.36.14.62 1.23-.72.17-.05.36.27.55.5.29.15.39.13h.41l.35-.19.27-.29.3-.21.26.03.18.38.25-.52.43-.08.48.18.35.28.09.17.2.46.11.17.14.11.37.19.16.18.34-.39v-.45l-.21-.43-.26-.33-.38-.35-.16-.2-.13-.28-.05-.21v-.47l-.09-.28.78-.5.14-.81-.1-.98.12-1.08.29-.51.38-.19.9.04.27-.05.08-.12.04-.2.08-.27.41-.81 1.03-1.54.21-.15.2.06.19.19.24-.25-.06-.15-.14-.17-.04-.25.22-.42.27-.27.24-.31.11-.54.04-.09.09-.07.09-.09.02-.17-.02-.11-.07-.08-.02-.12-.08-.17-.13-.16-.05-.19.13-.29-.08-.46.3-.48.46-.42.4-.27.13.1.13.07-.06.41.11-.04.36-.54.2-.17.16-.11.22-.04.31-.01.46-.08.49-.2.32-.3-.09-.39 1.3-.71.85-.24.8-.72.42-.27.84-.17.87.03 3.37.67.78.3 1.05.99.83.51.36.34.23.38.38.8 1 1.33.15.16.44.12.37.29.63.74.08-.32.04-.33.01-.73.05-.32.18-.68.13-.89.73-1.92 1.18-1.63.17-.4.08-.32.2-.08.27-.04.29-.13.22-.26.13-.32.03-.32-.13-.22.43-.47 1.63-.84 1.5-1.31.49-.18.13-.1.47-.7.7-.42.17-.06.51-.1.65-.26.57-.36.25-.43-.28.13-.31.06z"/><path class="cls-1" d="M248.18 123.98l-.1-.09-.56-.55-.08-.26.19-.43-.11-.16-.04-.14.05-.17.1-.24-.48.09-.91.96-.11-.34.09-.37.26-.56.05-.39.06-1.13.15-.61.04-.13.23-.25.07-.19-.03-.21-.06-.17.02-.14-.06-.12-.47-1.59-.06-.32-.07-.8-.11-.23-.13-.17-.12-.21-.23-.47.05-.17.23-.32.1-.26-.03-.27-.09-.28-.1-.55-.17-.14-.22-.06-.22-.12-1.28-1.19-.25-.4-.09-.62.19-.54.37-.31.22-.31-.25-.54-.24-.19-.53-.22-.24-.2-.07-.24.1-.25.18-.22.19-.08.16-.31-.23-.65-.53-1.01-.36-.44-.14-.21-.05-.33-.05-.15-.3-.66-.12-.08-.49-.63-.1-.17-.18-.54-.44-.73-1.34-1.55-.9-.71-.1-.05-.41.03-.41.12-.2-.01-.78-.85-.18-.32-.1-.28-.85-3.89-.38-4.49-.17-.65.21-1.12-.23-2.78.17-.96-.1-.21-.05-.2-.01-.23.01-.25.35-1.72.14-.26.08-.3.38-2.44.08-.22.26-.42.11-.26.08-.31.02-.3-.1-.64-.24-.1-.31.27-.3.39-.56.55-.71.39-.82.18-.89-.03-.97-.4-.64-.72-.51-.78-.62-.64-1.13-.9-.47-.2-.74-.08-.24-.1-.19-.14-.16-.18-.17-.15-.21-.06-.45-.19-.34-.33-.28-.06-.25.58v.13l.14.09.02.16-.07.12-.16.25-.06.13-.23.63-1 1.66-.05.27-.1.13.11.65-.01.21-.5.62-.06.27-.02.56-.05.25-.4.82-.01.51-.06.51-.12.52-.22.53.67.94.44.13.87-.71.25-.09.62-.09.25-.11.7-.43 2.31-.24 1.05-.34.73-1.05h-.25l.06-.21.08-.19.12-.16.15-.16.92.64.29.27.62.83.24.51.16.96.01.27-.07.3-.1.16-.34.39-.12.19-.09.54-.03 1.71-.08.51-1.08 2.63-.32.49-.36.22-.46-.05-.38-.11-.36-.22-1.09-1.01-.45-.29-.4-.13-.84-1.12-.31-.32-.43.12-.26-.08-.23.04-.31.47-.21.51-.02.36.13.33.24.43-.54.95-.6.84-.8.42-1.05-.24-.69-.69-.38-1-.38-2.96-.26-.87-.09-.79-.11-.56v-.32l.06-.27.28-.56.07-.24-.24-1.08-.69-.63-.88-.18-.78.27-.37.29-.42.24-.45.04-.46-.32-.52-.69-.32-.29-.88-.35-.19.08-.12.61-.07.28-.03.28.09.26.12.62-.23.63-.43.34-.48-.25-.28.2.27.38.79.51.17.47.08.62.24.39.78.49-.17.35.12.59-.23.15-.14-.08-.23-.25-.22-.26-.16-.33-.13.2-.13.31-.09.22-.01.28.02.64-.13.48-.25 1.63-.52 1.61-.24.43-.35.32-1.21.49-.78.66-.42.06-1.26-.38h-.49l-.42.16-.18.36-.1.6-.27.46-2.04 1.71-.38.44-.07.49.42.36.94.5.23.44.12.49.05 1.12-.06 1.14.07.4.27.5 1.1 1.26.13.43v3.37l-.09.14-.38.49-.09.27-.09.55-.22.6-1.48 3.13-.68.76-.93.36-.43-.05-1.18-.33-.71-.52-.04.37.14.62.17.45-.27.12.06.28.43.56.16.28.27.66.17.21h1.3l.36-.1.22-.23.18-.29.27-.28.87-.14.89.47.76.75.46.68.38.99.26 1.1.14 1.16.05 1.17-.29 4.55-.46 2.15-.76 1.92-.27.29-1.08.83-.07.42-.36 1.09-.11.5-.05 1.05-.07.5-.23.46-.13.42-.11 1.27-.1.49-1.78 5.42-.52.95-.63.84-1.43 1.57-.67.91-.6 1.03-.99 2.5-.74 1.36-.39 1.06-.22.94-.59 5.19-.15.44-.33.48-2.06 2.27-1.37 1.05-6.12 3.09-1.37 1.23-.98 1.66-.86 3.16-.37.95-.57.8-1.36 1.45-.53.84-.45.98-.44.76-.55.63-1.54 1.04-2.68 2.65-1.49 1.2-.74.4-.4.12-2.24.05-.31.2-.48.49-1.33 1.04-1.77.76-1.94.57-2.3 1.15-3.21.83-1.47.52-.46.54-.03.24.03.87-.03.26-.19.48-.04.27-.18.47-.4.47-.8.66-.79.28-1.01.05-1.04-.12-.82-.21-1.7-.67-.76-.49-.55-.7-.07-.88.85-2.13.18-1.05v-1.96l-.13-.47-.32.3-.51.93-.45.14-.39-.22-.59-.68-.39-.07-.4.24-.38.08-.25-.51.18-.31.23-.28.08-.26-.23-.33.98-1.37.03-.51.09-.2.21.12.39.42.39.08.66.29.4-.01.31-.22.92-1.07.2-.52.26-.51.42-.24h1.42l.37-.09.28-.13.25-.22.26-.34.12-.45-.19-.36-.54-.61.15-.31.23-.67.17-.23.28-.12.28.01.27.07.26.04.62-.25.06-.43-.09-.57.23-.62-.8-.69-1.2.15-2.94 1.17-.45.29-.21.35-.23.18-2.62 1.21-.35.07-1.21.06-.34.1-.83.39-.69.53-.47.69-.19.93.02.52-.05.18-.18.26-.25.24-.06.14-.03.29-.11.5-.21.5-.11.53.16.62.53-.29.18.38-.01 1.23.12.71.5 1.17.17.69.03.58-.03.3-.15.47.09.27.14.26.07.24-.07.51-1.43 3.45-.95 1.71-4.37 5.54-.82 1.48-.33.21-.36.13-.92.61-1.71 1.96-1.44.33-.18.12-.12.11-.07.19-.04.88-.07.27-.12.1-.13.2-1.3 1.51-.31.51-.27.58-.24 1.02-.31.36-.36.3-.29.37.24.4.59.66.12.37.05.6.14.37 1.53 2.06.16.37v.38l-.14 1.03-.19.48-.04.23.07.47-.02.25-.18.2-.39-.03-.16-.44v-.85l-.4-.81-.68.12-.43.6.28.57-.16.32-.04.26.07.44.16.34v.21l-.23.1-1.33.24-.66-.07-.17.02-.16-.02-.06-.08-.06-.13-.25-.38-.09-.09-.25.06.03.21.13.22.09.11.05.33.15.18.13.13.07.19-.1.29-.25.11-.26-.04-.22-.12-.01.31.07.24.15.19.22.1-.44.34-.42-.18-.41-.31-.38-.02-.14-.3-.21-.07-.51.06-.18.14.14.34.37.51.44-.24.12.27-.16.46-.4.34-.25.04-1.8-.04v-.18l.26-.17.33-.36.28-.38.08-.25-.29-.17-.39.25-.6.58-.17.05-.39.22-.18.08-.19.03-.57-.03-.36-.13-.05-.34.07-.43v-.45l-.19.4-.15.19-.14.07-.18-.03-.01-.12.04-.16-.06-.18-.16-.23-.15-.28-.06-.3.1-.35-.33.03-.24.19-.18.24-.2.21-.27.08-.57.01-.25.09-.29.47.13.5.41.3.57-.13v.61l-.15.14-.28-.07h-.39l-.32.24-.29.36-.22.18-.12-.29.04-.19.19-.46.05-.25-.04-.32-.08-.04-.09.06-.07.03-1.38-.83.14-.05.12-.06.13-.05.17-.01-.27-.34-.11-.22-.03-.26-.33.15-.26.19-.17.3-.07.43-.06.22-.16-.05-.1-.27.06-.47.23-.35.71-.82.15-.26.1-.39.22-.39.31-.23.32.1.13-.34-.03-.42-.23-.56-.32-.47-.3-.22-.37-.11-.3-.26-.36-.19-.51.07-1.17.6-.41.09-.37.14-.73.75-.32.25-.42.14-.48.04-.18.07-.29.33-.2.09-.12.07-.41.32-.22.1h-.23l-.4-.12-.19-.02-.7.14-.19-.07-.15-.15-.19-.13-.23-.11-.24-.03-1.95.21-.77.23-.4.05-1.97-.32-.46.1-.82.47-.83.19-1.29.57-.19.04-.18.01-.19.05-1.02.65-.32.42-.16.16-.17.06-3.15.63-2.49.03-3.32.56-1.75-.1-1.82-.54-.9-.13-.95.17-.34.14-.77.47-.66.6-.7.22-.39.24-.56-.24-.77-.18-.69-.28-.28-.55-.09-.34-.12-.29.01-.29.31-.35.32-.1h.31l.26-.07.21-.33-.88.08-.36.1-.39.18-.09-.11-.22-.15-.1-.1-.04.13-.14.11-.08.12-.36-.12-.76.01-.39-.07-.36-.26-.27-.24-.22-.05-.24.37v-.17l-.26.26-.29.4-.35.36-.4.16-.52-.02-.25.07-.09.2-.05.32-.14.1h-2.02l-.24.09-.22.18-1.05.46-.34.07h-.08l-.18.01-.17.06-.14.12.32.27-.28.09-.87-.01-.35.08-.41.15-.38.25-.22.33.18.15.51.3.19.05.21.13v.27l-.13.51-.09.52-.2.52-.27.43-.26.28-1.25.6-.31.08-.35.15-.75.68-.41.16-1.41.99-.12.25-.12.61-.1.21-.54.5-.94 1.37-.36.35-.37.18-.87.16-.39.16-.95 1.03-.73.29-.4.38-.75.95-.27.44-.12.32-.44.03-.21.13-.48.69-1.16 1.31-.39.28-.44.11-.02.09-.48.35-.09.05-.07.21-.1.55-.11.23-.3.19-.94.26-.74.11-.83.24-.46.02-.4.42-.24.13-.54-.27-.34.07-.31.21-.22.26.18.26.03.22-.12.14-.59.11-.08.13-.01.22-.1.25-.28.37-.31.34-.76.58-.42.1-.13.11.14.46-.12.22-1.06.93-.04.24.28.42-2.58.94-.96.06-.15.05-.25.19-.15.08.07-.35.08-.32.12-.27.14-.22.21.14.21.1.2.03.22-.1-.27-.38-.2-.16-.26-.02-.54.11-.29.11-.41.06-.03.12.05.17.09.78-.1.23-.38-.03-.26-.22-.31-.69-.24-.25-.27.1-.49-.27-.27.08-.2.15-.28.1-.28.03-.26-.02-.17-.11-.13-.17-.16-.14-.27-.06-.28.07-.22.2-.17.27-.1.29.25.08.04-.06.12-.2.21.08.76.17.07.28.11.08-.01.04-.32.17-.82.18-.13.07-.12.18-.29.05-.33-.05-.22-.09-.14.27-.06.29-.07.74-.08.17-.13.16-.08.17.1.23.3.24.03.09.07.27.27.47.11.61.09.17.06.21-.05.32-.2.38-.24.21-.25.17-.25.23-.25.38.03.27.13.24.09.33.1.23.47.42.1.18-.05.33-.05.22.02.22.2.28-.12.33-.03.46-.12.39-.4.12v.16l.27.13.11.19.12.07.32-.21.95-.98.8-1.13.51-.38.74.02.33.19.76.78.6.34.18.05.01.11-.02.15.07.35.03.22.04.19.11.09.17-.06.16-.11.11-.13.03-.04.15-.07.13-.08h.09l.04.22.06.16.16.05.18-.04.15-.08.15.31.29-.05.98-.62.21-.22.47-.66.53-1.03.14-.16.21.16.09.37-.06.44-.17.32.18.1.15-.04.12-.16.09-.22.05.14.1.17.12.13.14.04.17-.07.04-.1v-.09l.07-.08.02-.14.2-.19.06.02.1-.18-.02-.12-.08-.19.26-.13.21.1.35.37.16.1.63.22.02-.08.09-.07.12.01.06.21.02.15.03.09.09.02.13-.01.29-.14.09-.27-.08-.3-.17-.27.16-.25.1.03.07.14.09.08h.53l.23-.06.62-.26.25-.17.29.07.76-.28.45.16-.16.06-.12.23-.17-.04-.03-.04-.09.02-.06.01-.12.04-.05.09.24.26.16-.07.1-.11.1-.03.12-.17.09-.04.15-.15.55.22.28.22.17.04.03.16-.32.34-.61.48.05.38.23.13.7-.03V262h-.28l.42-.56.37-.08.37.23.46.41.19.11.54.22.22.15.49.7.11.12.45.07 1.25.44.36.22.22.17.26.16.19.23.07.42-.09.35-.18.16-.25-.04-.17-.23-.04.2-.15.35-.06.12-.42.32-.06.4.29-.02.39-.23.6-.53.87-.5.24-.28-.04-.37-.42-.89-.1-.44.04-.6.14-.19.29-.06.48-.2.63-.77-.05-.84-.23-.95.05-1.04.24-.38.27-.19.22-.25.1-.58-.11-.89-.13-.5-.18-.33 1.78-2.1.67-.53.75-.4.43-.06.72.44.4.01.39-.13.31-.19.41.24.17.17.1.25-.16.02-.24.11-.15.04.11.28-.03.18-.08.21v.3l.08.11.28.31.24.6.35.33.16.3-.28.34.19.29.22.01.54-.3.07-.07.06-.12.1-.1.18-.05.03.08.06.15.08.17.09.08.58-.02.93-.62.47-.16.6-.01.29-.06.13-.19-.1-.25-.19-.24-.02-.17.31-.06.42-.27.38-.46.36-.19.33.57.6-.41.57-.24 2.11-.21.82-.21.53-.45-.14-.75.28-.18.21.12.19.03.19-.01.22.04.38.21.31.26v.19l-.43.08-.27.8-.4.09.07-.29.03-.38-.09-.22-.21.16-.32.44-.2.23-.1-.01-.02.95.11.42.33.17.18-.11.46-.45.36-.15.23-.21.11-.06.1.04.25.22.15.06.34-.21.12-.44-.14-.49-.4-.32.26-.29.36-.22.32-.32.35-1.21.39.14.19.45-.35.29v.18l.5-.02.42.13.2.28-.19.41-.19.1-.26.05-.25.09-.1.17.1.23.23.02.28-.08.59-.29.31-.27 1.42-1.83.2-.5-.16-.14.09-.4.23-.12.51.02.25-.11.43-.3.2-.08.44.23-.27.5-.78.91 1.24-.51.11-.08.11-.11.13-.08.37-.08.16-.08.14-.13.05-.17.2-.16.88-.47.58-.2.3-.23.3-.14.33.14.13-.18.05.26.09.23.12.11.15-.08.49.43.23.59.28.48.64.14-.1-.59.75-.02 1.53.28.35-.54.25-.79.33-.53.58.21-.08-.21-.02-.04-.05-.07.26-.25.31-.2.24-.28.01-.42-.2-.29-.34-.09-.36.06-.34.14-.52.59-.3.21-.25-.13-.09-.41.22-.23.35-.13.51-.31.29-.06.68-.01.38.1.43.45.28.11.59-.1.69-.28.57-.42.26-.53-.21.11-.18.04-.15-.04-.14-.11.31-.23.14-.06.36-.09.32-.21.15-.05.1-.11.4-.57.13-.05.38-.06.16-.05-1.02-.23-.21-.09-.16-.4h.23l.55.25.56.07 1 .26.55-.02-.04-.28.11-.26.2-.21.27-.09.16.06.17.14.21.12.28.03.17-.12.5-.7.11-.06.1.02.06-.02.03-.2.03-.15.1-.13.13-.08.12-.05-.01.35.11.2.19.08.27.04.12-.03.13-.05.12-.09.09-.09.14-.07.1.04.11.07.14.05 2.56-.23.97.23.35.23.76.62.65.23 1.1.72.6.68.4.33.42.14.38.06 1.32.45.75-.05 1.03-.27.86-.4.22-.44 1.77-.66.2-.13.35-.28.2-.06.27.02.18.08.61.42.19.08.25.03.41-.02.73 1.23.08.44-.21.34.3.69-.11.64-.34.56-.53.55-.06.1-.07.06-.2.02-.05.07-.04.37-.05.13-2.18 2.31-.35.27-.45.26-2.54 1.09-.71.62.18.79.35.22.41.15.33.23.26 1.01.3.26.31.21.21.38-.06.33-.7.03-.38.22-.04.08v.21l-.04.12-.06.05-.16.07-.04.04-.41.82.32.03.45.19.39.22.19.22-.03.35-.15.36-.23.28-.19.12-.31.05-.29.14-.21.26-.08.4.33.33.06.22-.33.1-.12.08-.01.22.07.43-.07.09-.14-.02-.15.04-.06.21.14.26.31-.01.65-.18.39.13.24.25.39.69.46.56.54.51.4.23.51.38.54.27.53.1.34.16 1.01.76.22.29-.28.36-.54.09-.4.19.13.57.11.07.33.05.11.04.11.15.23.43.08.22.02.27.07.29.16.28.72.56.81.38 3 .95.61.1 1.98.72.06.13-.17.32-.04.19.21-.05.37-.22.15-.75.06-.21.09-.13.13-.07.32-.13 1.15-.71.28-.1.32-.18.81-.86.18-.26-.44.22v-.33l.28-.79.08-.4.39-.25.19-.7.72-1.01 1.07-2.93.41-.69.49-.29.22-.02.11-.07.2-.3.16-.18.08-.06.68-.11.15-.15.09-.42.35.14.12-.24-.15-.31-.44-.09V262l.28-.23.26-.29.13.26.17.26.23.13.28-.13.05-.2-.01-.65.03-.13.06-.12-.17-.25-.36-.36-.04-.31-.14-.2-.22-.09-.28.02v-.19l.24-.16.31-.51.13-.12.16.07.24.48.2.09.16-.02.19-.07.16-.12.1-.1.11-.34-.05-.13-.17-.09-.22-.18.04-.69.75-.7.94-.49h.65l.2-.23.9-.6.61.24.23-.01-.17-.4.12-.15.11-.21.11-.28.19.04.55.29.02-.22.05-.09.08-.06.12-.14.36.42.32-.04.28-.24.64-.27.25-.29.02-.28-.36-.11.52-.29.61-.19.33.07-.3.5-.11.37.46.09.6-.12.34-.27.67.48.02-.17.03-.08v-.08l-.05-.15.4-.11.37.11.21.33-.16.5-.26-.18.05.12.03.23.05.16-.24-.18-.41-.17-.42-.09-.29.11.03.26.38.21.48.13.34.04.31-.07.7-.27.19-.15.09-.38-.05-.45-.14-.4-.15-.24.11-.19.12-.16.3-.29-.25.02-.21-.08-.14-.13-.09-.15.16-.23.19-.09.23.03.24.12.18-.88-.02-.27-.17-.24-.18-.01-.21.02-.26-.09-.19-.23-.07-.23-.03-.26-.13-.28-.2-.15-.26-.08-.28-.01-.2.08-.22-.22-1.02-.43-1.49-.99-.29-.28-.28-.34-.31-.26-.41-.12-.88-.01-.34-.14-.21-.32.02-.25.08-.33.02-.29-.2-.12-.08-.09-.2-.38-.05-.11.05-.5.1-.48.39-.91.5-.72 1.15-1.36.4-.9.09-.52.04-.56-.05-.14-.19-.21-.04-.14.02-.12.1-.22.03-.16.18-.35.43-.41.9-.64.37.09.47-.23.92-.68.38-.18.1-.08.15-.18.1.01.09.08.12.01.25-.01.18-.04.24-.13-.06.41.14.64-.08.46-.12.24-.44.62-.4.29-.18.37-.13.43-.08.36v.46l.22.77.06.34.12.26.26.33.18.36-.09.36-.17.34-.1.42-.01.44.09.36.37.41.67.43.77.34.62.16-.14-.47-.21-.35-.46-.67-.23-.42-.05-.35.04-1.24.1-.4.15-.35.37-.58.25-.65.18-.3.09.63.01 1.79.24.38.13.14.23.65.12.21.29.11.53-.11.51.19.69-.28h.21l.23.11h.34l.34-.07.26-.12.2-.2.09-.22.12-.17.34-.06.52.06.22-.05.27-.19.67.6.17.23.07.21.07.45.11.39.1.22.04-.11.04.07.07.06.03.08-.14.12-.12.02-.29-.04-.13.02-.88.48-.52.14-.95.56-.57.14-.27.13-.25.28-.19.28-.11.13-.3-.08-.13-.15-.06-.17-.12-.11-.52.1-.28.47-.2.51-.29.24-.11.07.13.16.25.16.2.1 1.69-.26 4.06-1.5 1.72-.36 2.68-.16.59-.33.65.4 3.26.51 3.04-.36.77.04.76.14 3.32 1.33.87.06v-.17l-.33-.22-.3-.4-.16-.48.17-.45.89-1.65.22-.22 1.28-1.02.26-.4.09-.21.05-.22-.03-.26-.22-.46-.03-.24.17-.46.32-.34.36-.3.32-.32.26-.15 1.17-.51.19-.16 1.16-.6.28-.53-.18-.12-.4.12-.36.2.07-.48.16-.35.57-.65.73-1.15.28-.16.89-.06.4-.11.41-.17.87-.23.89.08.86.33.79.48 1.29 1.4-.27.25-.32.19-.38.09-.46.05-.74-.01-.34.2-.14.56-.06.76.06.3.08.24.23.36.1.24-.35.16-.23.19-.1.32-.01.48.05.07.08.1.1.14.05.19-.03.04-.1.63.02.46.12.73-.01.27-.17.28-.22.21-.16.24.01.43.11.24.14.08.14.05.15.13.08.18.18.64.15.26.23.29.28.27.3.16.67-.07.68-.41 1.11-1.14.1.26.16.16.19.03.23-.12-.11-.36-.04-.45.06-.43.15-.33.11-.17.22-.39.15-.19.14-.07.35-.09.13-.09.41-.58.15-.35.06-.4.02-.4.07-.33.19-.23.32-.08.54-.38.15-.83-.11-.9-.23-.55-.51-.44-.06-.24.01-.49.12-.59-.06-.26-.33-.14.42-1.31.32-.5.62-.16-.3-1.15.39-1 .8-.8.88-.54.78-.3.86-.21 1.76-.14.91.05.45.12.34.23.2.09.47-.04.21.03.26.13.09.15.08.18.99 1.62.02.26.11.15-.04.34-.14.5.03.3.04.11.1.03.47.06.29-.13.22-.04.2-.1-.1-.22-.19-.25-.1-.18.17-.44.4-.33.79-.47-.04-.09-.01-.08-.04-.09-.08-.1.39-.37-.39-.23-.62-.25-.32-.46-.19.1-.06.07-.19-.33-.11-.39-.01-.39.09-.31.07-.38-.34-.69.08-.34.29-.15.3.08h.24l.1-.33-.08-.26-.21-.2-.24-.17-.21-.19-.06-.41.44-.13.63-.08.49-.23.28-.16.68-.3.19-.28-.02-.34-.15-.32-.38-.51.23-.39-.06-.57v-.55l.38-.34.08.38.17.08.36-.11.3-.03.19-.12.13-.2.14-.32.28.48.17.14.23.05.32-.12.2-.24.13-.28.16-.2.26-.1.31.01.7.11.64.28h.11l.17-.13.31.36.25.38.18.4.07.45.17.09.36.38.19.41-.24.19-.4.18-.58.81-.53.37-.62.81-.19.18-.28.08-.88.37-.28.2-.14.37.22.64-.08.48-.24.35-.34.13-.39.06-.39.12-.58.34-.33.13-.43.05v.16l.98.4.34.31.58 1.21-.03.17-.17.32-.21.19-.51.36-.18.19.21.49.07.37-.01.87.04.27.19.45.04.28-.07.27-.23.22.03.25.4.15.24.18.04.34-.09.22-.13.08-.39.01-.08.05-.16.13-.21.1-.22.05-.4.04-.19.04-.16.1.19.33.96.74.17.24.07.15.12.1.26.09.17.03.19.01.46-.04.78-.2.4-.23.17-.32.02-.24.1-.46.02-.29.06-.27.28-.46.06-.26.18-.19 1.2-.72.74-.27.33-.29.14-.51.18-.3.43-.13 1.35.06.34-.04.31-.11.39-.24.26.03.46-.08.43-.15.21-.2.12-.46.29-.25.38-.18.36-.27.34-.78.03-.99-.13-.96-.17-.68-.04-2.05.79-1.92 1.19-1.63 2.49-2.33.77-.4 1.38-.21.8-.23.55-.08.41-.12.24-.01.2.08.43.27.18-.02.1-.22v-.31l-.07-.33-.1-.21-.18-.11-.25-.09-.21-.12-.22-.46-.83-1.16-3.46-6.07-.36-.95-.36-1.58-.22-2.12-.1-.3.34-.48.73-1.44.16-.63-.02-.39-.25-.96-.02-.37.27-1.79.31-.82 1.08-1.93.96-3.71.19-.41.83-1.29.17-.48v-.44l.05-.27.16-.14.16-.08.29-.34.48-.14.65-.45.5-.11.17-.06.69-.67.28-.88.26-2.19.35-.82.05-.26v-2.3l.13-.34v-.77l.43-1.84.11-.79-.26-6.76-.06-.25-.28-.35-.07-.17.04-.16.19-.33.06-.21v-.5l-.1-.33-.19-.25-.28-.28-.47-.67-.34-.82-.4-1.78-.26-1.83-.02-1.06.14-1.06.81-3.05.42-.91.59-.95.7-.86.2-.14.2-.13.16-.14.05-.19-.09-.23-.18-.07-.23.02-.19.11.11-.49.21-.45.29-.36.36-.27.18.14.16.03.17-.03.17-.14.31 1.06.09.16.34.02.12-.04-.05-.58.17-.61.42-.37.54-.2 1.49-.35.56-.02.43.16.44.43.19.11.24.08h.25l.18-.08h.17l.22.23-.18.55-.09.17.64.31.17.19.02.14-.09.14-.07.14.07.19.14.08.29.01.13.07.54.56.14.07.23-.69.11-.19-.26-.38V155l-.08-.51-.49-.3.16-.34.23-.14.27.03.29.11-.21-.33-.39-.1-.38.06-.23.2-.21-.25-.01-.2.01-.22-.13-.28.01-.15.23-.14.49-.14-.06-.11-.02-.09-.05-.09-.12-.07.11-.24.29-.95.07.26.11.21.16.14.21.06.08-.52.02-.42-.11-.37-.26-.4-.29.36-.3-.17-.33-.4-.32-.31.89-.7.12-.17.2-.35.15-.36-.06-.15-.93-.07-.23-.12-.22-.25v-.15l.36-.29.21-.11.48-.17.2-.15.25-.36.09-.08.12.01.11.11.1.07.14-.1.12-.38-.1-.26-.37-.3-.2-.4-.13-.18-.21-.12.18-.31.85-.67.28-.31.04-.18-.07-.23-.05-.48.01-.48.09-.23.2-.07.38-.02.15-.03.13-.08.1-.03.1.07.07.15.08.34.06.13.42.31-.1-.53-.47-1.28-.13-1.58.25-.29.85.04-.15.23-.27.13.15.25.22.29.25.23.26.1.26-.11.07-.24-.11-.24-.29-.11.27-.34.19-.05.23.04-.13-.29-.16-.28-.11-.29-.01-.37.36.27.41.02.8-.11.82.18.16-.09-.16-.24-.28-.24-.2-.11v-.2l.25.01.24-.02.24-.05.22-.1-.23-.26-.86-.45.38-.35 1.08.39.46-.21-.1-.31-.93-.72-.35-.37.5-.03.52-.15.41-.26.2-.44h-.64l-.24-.14-.06-.39.46.09.56-.21.38-.4-.05-.53v-.02l-.3.05-.65-.03-.01-.33.01-.34.17.01.34-.02.17.01-.08-.22-.13-.16-.14-.13.96-.44.4-.38-.06-.61-.26.26-.42.26-.44.15-.38-.15.42-.4.54-.4.21-.35-.5-.24.23-.17.42-.39.18-.14.22-.05.17.01.2-.04.42-.04.12-.18.01-.42.03-.37.13-.15.24-.14-.16-.27-.27-.19-.16.16-.19.48-.46.35-.5.07-.34-.46.25-.27.66-.25.32-.19.68-.88.13-.08.05-.19.11-.07.1-.11.02-.25-.05-.16-.08-.08z"/></svg>