<svg id="Слой_1" data-name="Слой 1" xmlns="http://www.w3.org/2000/svg" viewBox="0 0 515.59 166.25"><defs><style>.cls-1{fill:#ee2f48}</style></defs><path class="cls-1" d="M111.91 148.32l-.55-1.47-.19-1.12-.18-.36.14-.28-.21-.34-.32-.38-.16-.37-.04-.91-.13-.4-.51-.7-.24-1.24-.75-1.3h-.17l-.32.26-.37-.31-.3-.58-.13-.56.08-1.17-.05-.52-.21-.59-.17-.29-.57-.65-.17-.29-.31-.68-.5-.67-.69-1.69-1.26-1.56-.19-.54.06-.32.26-.54.06-.24-.1-.33-.47-.58-.18-.3-.06-.3v-.53l-.12-.29-.19-.17-.59-.44-.23-.22-1.99-2.5-.2-.5.03-.52.23-.63-.7-1.52-.32-.41-.94-.73-.08-.26.07-.22-.04-.2-.42-.15-.64.31-.26.04-.29-.1-.4-.37-.15-.08-.47-.02-.41-.09-.37-.16-3.19-3.15-1.25-1.67-.87-1.91-.18-1.07.57-6.52-.11-.53-.19-.54-.44-3.32.14-1.11 1.31-2.79-.92.19.38-.79-.63-.91-.92-.86-.47-.67-.1-.34-1.03-2.27-.15-.45-.02-.53.1-.37.23-.46.27-.35.47-.01.08-.49-.03-.99.09-.89.3-1.2.45-.78.61.37.1-.67-1-2.48-.18-.85.03-.47.24-.42.55-.74.22-.15.22-.08.2-.12.18-.28-.18-.7-.01-.24.1-.2.38-.46.17-.16.22-.33.37-.94.06-.3-.06-.81-.87-2.49.06-.4-.33-1.2.18-.54.26-.5.03-.62-.45-4.06-.26-1.13-.04-.61.2-.8-.02-.31-.14-.27-.48-.55-.1-.19-.16-.52-1.58-2.88-2.67-4.46-.94-2.29-2.76-4.31-2.49-2.81-1.4-1.23-.43-.29-1.11-.22-1.15-.57-4.82-3.81-.74-.32-.27-.42-.35-.87-.53-.66-.62-.49-1.42-.88-.8-.64-.56-.69-3.23-6.34-1.12-1.18-.62-.36-3.12-1.14-.58-.03-.3.42.43-.13.24.21-.13.31-.63.17-.31-.16-1.44-.97-.69-.5-.18 1.42.13 2.11-.31.86-.71.71-2 1.53-.66.8-.4 1.12-.02 1.15-.17 1.03-.87.76-.3.19-.14.23-.09.24-.16.24-.79.48-.14.16-.22.57-.32.34-.43.05-.58-.31-.23-.29-.17-.32-.21-.27-.36-.11-.32.09-.49.45-.27.14-.56-.12-.42-.46-.52-1.23.01-.24.08-.27v-.22l-.26-.11-.32-.05-.2-.13-.15-.21-.12-.3-.43-.57-.57-.13-.63.14-3.82 1.48-.95.61-1.04.49-1.06.19-.82.43-.33 1.22-.09.6-.23.55-.34.47-.42.4-1.26.76-.75.23-.45-.21-.31-.67-.4-.68-.52-.58-.6-.41-.27-.05-.51.02-.26-.1-.19-.21-.31-.64-.35-.54-.05-.3.06-.32.18-.3 1.11-2.23.44-.29.57-.11.49-.18.21-.5.04-.5.19-.88.04-1.54.14-1.05-.19-.53-.5-.38-.43-.4.02-.63.37-.44.35-.17.25-.23.04-.65-.07-.55-.18-.35-.34-.12-1.23.27-.45-.14-.87-.71-.51.11-.71.75-.51.13-1.12-.28-.36-.05-.33.11-.14.18-.12.02-.23-.4-.06-.23-.02-.78.05-.24.09-.25.06-.25-.05-.22-.32-.54-.12-.3-.06-.31-.08-1.28-.25-.51-.62-.36-.31-.05-.27.01-.25-.04-.23-.17-.07-.22v-.6l-.04-.17h-.46l-1.73 1.24-.48.06-.48-.12-.93-.4-1.64-.48-.49-.22-.86-.62-.4-.1-.7.08-.45-.03-.6-.19-1.04-.5-.53-.46-.3-.51-1-3.02-.18-.2-.29-.1-.31-.03-.25.03-.4.25v.05l-.41-.01-.23-.12-.19-.23-.25-.15-.38.12-.18.22-.07.31-.04.61-.18 1.09.03.46.22.63.05.38-.16.23-.23.2-.19.28-.02.24.09.47.01.24-.11.67-.24.58-.21.43.1.5.17 1.16.41 1.25.59 1.16.68.86.88.61.42.42.32 1.07.97 1.76.48 1.21.32.58.4.52.23.46.71 5.43-.3 3.15.12.12.27.12.2.16-.04.27-.23.16-.31.02-.31-.08-.25-.1.18 2.29.14.58.61 1.07.17.63-.16 2.32.04.61.13.37.56.77.65 1.22.09.35-.06.29-.27.5-.05.33.05.16.26.54.07.3-.07.55-.39.84-.19.88-.25.32-.3.25-.27.3-.13.07-.12-.04-.1.02-.04.23.21.61.23.38.4.91.17.57.66.76.16.39.09.37.16.35.33.38.19-.19.27-.17.29-.07.27.14.31.25.21.09.1.12.02.36-.16.01-.28.21-.13.23.3.12h.64l.29-.05.27-.15.08.36.24.1.26.02.16.09v.28l-.22.45.03.37.15.38.14.04.17-.09.27.04.53.18.07.18-.21.37.4.16.15.03v.2l-.77.05-.25.35.08 1.34.17.74.44-.01.6-.21.64.11-.28.17-.23.24-.21.31-.19.38-.42-.24-.36.23-.25.5-.09.54.17.51.41.36.48.12.41-.16-.35.73-.48 1.75-.07.75-.12.37-.51.38-.12.35-.04.51-.08.37-.25.69-.14.59.12.15.26.06.31.3.11.42.02.43.12.32.4.13-.17.36.11.81.26.87.27.55.62-.38.6.12.53.39.44.43 1.4.94.27.36.02.7-.1.63.12.43.7.06.29-.19.65-.32.62-.06.28.57-.45-.09-.55.1-.46.21-.43.53-.53.08-1.7-.08-.34.2-.13.44-.01 1.35.07.49.16.43.3.4.37.23.69.33.67.21.3-.12.12-.1.31-.09.59-.09.31.08-.1.2-.48.45-.29.63-.02.46.29.29 1.25.22.46.31.7.87.42.74.15.19.26.18.66.29 1.95 1.35.45.57.2.58.26 1.2.54.77.21.62.17.24.84.84 1.28 1.69.2.43.08.13.22.15.27.12.54.13.15.21.1.24.11.21.92.78.39.44.16.53.53 3.51.17.34.78.61.17.35.21 1.29v.7l-.3.3-.39.15-.39.36-1.34 1.64-.05.36.61.08-.47 1.22.65.43 1.2.12 1.19.27.83.72 1.33 2.03.63.74 1.07.76.59.25.9.16.55.25 1.49.26.46.33.27.29.34.2 1.28.12.37.15.22.29.55 1.56.39.42.26.22.18.09.46.32.13.74.06.86.19.67.33-.38.85-.06.47-.31.8.48.43.16.45.11-.05.47.32.42.53.3.58.12.3.13 2.03 2.26.74.58.91.52 4.32 1.78 3.78 1.55 1.02.59.48.35.34.34.03.12.05.11-.03.09-.23.05.19.34.3.33 2.21 1.77.44.52.51 1.14.35.53.61.33.45.01 1.34-.2.43-.16.84.39.76.48.64.56.52.61.44.71.31.28.45.11.61.07.6.16 1.1.53 4.55 2.82 3.2 1.22 1.14.72.75.86.5 1.04.88 2.92.23.54.38.52.94.81.33.53.38-.94.49-.71.07-.3-.03-.22-.13-.41-.03-.3.1-.13.21.2.19.28.05.12.96.17.8-.65 1.38-1.73.44-.23.41-.04 1.08.09.57-.14 1.09-.56.68-.06 2.33 1.21 1.3.33.95-.78.07-.42-.07-.41-.12-.39-.05-.35.14-.75-.02-.37-1.02-1.62-.27-.73.16-.32.6.41.64.96.85 1.77.16.48.09.18.21-.09.91-.68.45-.26.47-.13.5.11-.65.75-1 .4-.72.47.15.99.27.27.36.24.33.29.14.39-.02.51.03.28.21.18 1.09.43.53.11 1.21.06.14-.09.28-.39.14-.09h1.01l.13-.41-.07-1.18.22-.25.19-.29-.03-.68-.26-1.24zM515.53 45.87l.06-.59-.11-.44-.24-.35-.58-.57-.64-.88-.4-.41-.42-.2-.68.1-2.11 1-.81-.03-1.27-.67-.66-.02-.35.22.06.24.16.28-.07.37-.32.19-.44-.01-.42-.15-.29-.24.48-.26-.11-.57-.45-.56-.57-.26-.49-.14-1.27-.96.01.27-.04.18-.12.13-.2.15-.17-.65-.35-.53-.53-.36-.71-.13-.47-.2-.51-.49-1.27-1.54-.52-.36h-.59l-.7.48-.12.29.05.71-.12.28-.21.23-.17.3-.26.69h-.18l-.18-.57.08-.57.18-.58.27-1.53.08-.09.19-.1.2-.16.1-.26-.16-.35-.39-.26-.47-.22-.37-.22-.94-.77-2.76-1.6-.53-.13-.18-.08-.25-.16-.26-.1-.23.08-.3.33-.13.11-.14-.04-1.4-.74-.58-.12-1.11.49-1.2.12-.42.31-.04.29.22.49-.08.22-.16.2-.12.19-.18.47.11.28v.24l-.2.3-.27.12-.2-.11-.27-.39-.27-.12-.28.06-.26.11-.2.04-.25-.09-.19-.23-.22-.04-.44.1-1.08.5-.41.13-.33.07-.15.06-.12-.02-.23-.19-.81-2.09-.11-.2-.25-.15.05-.33.29-.33.45-.15 1.67.15.45-.15.5.19.64-.04.59-.17.41-.23.78-1.07-.01-.18-.15-.13-1.13-1.52-.14-.62.05-.55-.07-.33-.47-.24-.04-.24.02-.3-.05-.26-.93-.94-.38-.1-.19.08-.11.13-.47.25-.88 1.13-.73.52-.38.33-.16.34-.27.18-1.28.25-.47.03-.39-.06-.32-.09-.28-.02-.28.17.23.67-.16.31-.48.05-1.33-.15-1.81.23-1.9.01-.69.17-1.54.66-.48.09.65-.7 3.41-1.15.95-.57.38-.38.16-.44-.18-.66-.38-.17-.39-.1-.17-.44.08-.33.2-.11.24-.09.23-.22.12-.33-.01-.22-.07-.2-.04-.27-.09-.15-.39-.17-.44-1.05-.58-.68-.14-.43.25-.46.77-.7.49-.32.5-.17.89.16.41-.04.17-.4.25-1.78-.28-.72.13-.25.19-.24.09-.26-.05-.18-.24-.47-.09-.25-.04-.3.01-.24-.03-.2-.13-.19-.17-.13-.15-.02-.12.1-.1.23h-.19l-.27-.59-.28-.42-.65-.74-.27-.14-.28.05-.38.19-.35-.06-.26-.13-.4-.36-.11-.05-.35-.09-.09-.05-.03-.13.04-.17.06-.12.11.04-.62-.63-.11-.02-.02-.74-.09-.41-.22.01-.43.5-.64 1.07-.29.3-.44.1-.44-.15-.47-.34-.67-.61-.59-.67-.36-.32-.41-.13-1.09.03-.35-.2-.31-.57-.12-.43-.06-1.67-.16-.49-.97-1.27-.15-.45-.05-.55.12-.47.37-.2.12-.27.17-1.29-.02-.46-.11-.21-.16-.13-1.39-.84-.09-.11-.22-.06-.69-.29-.2-.12-.18-.01-.41.35-.23.13-.21-.04-.3-.11-.33-.09-.28.06-.11.19-.05.3.05.29.21.12.1.09-.07.19-.18.2-.23.09-.33-.07-.25-.09-.21.03-.22.31-.03.57.61 1.18.16.56-.15.4-.97.99-.37.73-.19.15-.17.05-.14.12-.1.93-.18.33-.87.63-1.2 1.15-.36.15-.28.21-.33.48-.41.5-.56.28-1.1-.27-.15-.94.39-1.16.49-.94.89-1.28.29-.71.1-1.06-.16-.55-.39-.24-.43-.15-.3-.27.01-.16.17-.84.13-.11.29.09.5.28-.37-1.93-.16-.3-1.11-.72-.28-.61-.08-.11-.31.04-.3.17-.23.23-.14.32-.29.43-.12.1-.19.09-.06.23-.03.6-.26 1.06-.23.42-.76.36-.09.45.05 1.03-.12.28-.33.44-.11.22-.04.27.04.91-.05.69-.16.48-.28.37-.41.38-1.66 2.23-.47.36-.36.17-.21.4-.09.52-.01.49-.17.57-.39.29-.51.23-.49.38-.4.4-2.4 1.81-.24.29-.14.22-.08.18-.23.85.01.15-.06.09-.25.17-.54-.04-.2.04-.11.09-.42.46-.74.38v.17l.69-.08.51-.25.32.08.12.89-.15.27-.33-.06-.41-.19-.31-.11-.46.07-.34.17-.57.51-1.28 1.91-.47.3-.82.26-.27.5.21.35.6-.21.43.8-.39 1.16-1.64 2.67-.17.52-.08 1.24-.18.62-.42.46-2.42 1.35-.39.32-.29.44-.15.52-.21 1.18-.33 1.09-.53 1.18-.7 1.06-.83.71-.72.24-.77.04-2.38-.17-.56-.25-.92-.79-.13.29-.11.73-.14.28-.55-.77.92-1.73-.37-.62-.53.53-.94 2.04-1.91 1.36-.3.4-.32.55-1.4.82-.32.29-.09.21-.18.27-.2.36-.17.88-.17.42-.08.38.16.33.53-.46.11-.06.29.07.01.17-.06.23.07.25 2.4 2.07.92.39.99.02 1.02-.48.18.36-.11.21-.23.16-.22.23-.29.55-.06.26-.04.97-.19 1.1-.16.43-.25.3-.43.31-.52.23-.54.09-.34.18-.86 1.09-1.07.94-.13.16-.89.9-.32.22-.43.08-.55-.01-.49-.16-.29-.53-.21-.14-.27-.11-.25-.05-.59.04-.14-.05-.09-.19-.29-.37-.38-.04-.31.24-.26.9-.3.2-.41.05-.46-.01.02.61.25.25.35.17.35.24.68.96 1.76 5.08.11.64-.04.46-.21 1.07-.02 1.06.15 1.13.35 1.06.62.83.95.89.39.57.07.56-.39.43-.59-.03-.62-.27-.49-.32-.24-.09-.52.02-.28-.12-.42-.35-.22-.08-.81.08-.56-.12-1.53-.57-.36-.24-.21-.38-.32-2.65-.32-1.07-.88-2.09-.23-1.05-.11-2.19.19-2.13-.16-.98-.03-1.04-.18-.56-.16.25-.21.2-.25.15-.3.14-.62.61-.09.41-.02.45-.17.42-.43.26-.47.01-.5-.08-.49-.03-.61.17-.48.3-.87.83-.46.29-.99.41-.26.24-.02.45.2.5.52.99.16.56.09.6.13 3.14.16.99.48.75.53.19.4-.07.2.14-.06.77-.25 1.02-.2.45-.29.46-.82.78-.16.25.02.55.84-.34.09.47-.19.5-.62.92-.18.52-.16 1.11-.2.4-2.48 2.36-1.27.74-1.11-.13-.13-.22-.2-.66-.13-.28-.21-.2-.58-.41-1.69-1.56-.38-.52-.26-.52-.56-1.71-.34-.35-.5-.03-1.1.2-1.18-.23-.92-.07-.12-.24-.05-.41.09-.16.37-.32.09-.26-.18-1.2-.37-.56v-.75l-.21-.75-.16-.3-.28-.31-.09-.18-.03-.21-.06-.18-.19-.07-.41-.01-.17-.09-.21-.55-.31-.2-.67-.26-.88-.68-.56-.3-1.48-.22-1.75-.83-.62.17-.17.44.6 2.53.01 1.27-.28 1.14-.57.9.2 1.05-.57 1.3-5.66 7.34-6.52 5.63-1.11.64-.51.41-.21.51-.09.62-.22.61-.63 1.09-1.29 1.45-.18.28-.15.17-.63.49-.14.27-.04.58-.06.22-.09.21-.49.75-2.1 1.84-.9 1.42-.11.25-.29.16-1.29 1.13-.72.48-.19.24.35.6-.58 1.03-1.43 1.53-.9.47-4.68 1.46-.32-.01-1.65.65-4.11.87-7.46 1.96-7.65 2.02-4.12.15-5.14 1.01-.83.4-2.93 1.81-1.94 1.49-.29.29-.18.39-.14 1.06-.47 1.65-.02.66.16.42.27.29.34.29.44.27 1.01.25.59.21-.16.09-.04.01-.03-.03-.15-.07-.54.45-.64-.02-.75-.2-.83-.04.2.39.32 1.13.23.33.87.81.54.56.23.49-.54-.31-.48-.36-.2-.04-.91.14-.25.08-.84.57-.23.06-.19-.11-.17-.16-.15-.07-.22-.18-.68-.83-.31-.27-.91-.28-.35-.21-.23-.46-.68.54-.34.74-.26 1.88-.32 1.27-.05.49.21.21.48.09.51.19.29.51-.54-.11-.54.26-.41.43-.16.43.02.62.13.29.39.04 1.92-.28.57.09.73.48.28.11.25-.06.23-.67.27-.28.32-.1.25.22-.08.21-.5.7-.18.19-.36.24-.23.04-.98-.19-.53-.2-.48-.03-.37.34.04.65.7.58-.66.06-.53-.18-.33-.05-.14.14-.06.62-.77 2.49-.84 1.76-.61.92-.23.49-.08.54.1.23.41.25.04.16-.19.16-.6.15-.13.16.05.4.13.36.63 1.06.11.13.17.06.48.1.1.1.06.12.31.44.03.32.09.07.17-.01.53.15.24-.02.23.03.49.37.25.12.54.16-.58.16-.45-.24-.38-.26-.34.07-.61.28-.44-.38-.35-.62-.36-.48-.52-.19-.6.02-1.55.3-.25.35-.22.99-.37.93-.03.22.03.79.12.33.52.5.48 1.28.45.38 1.19.48.49.35.39.4.43.29.51.15.59-.02.97-.45.31-.09.4.04.75.27.43.06.19.17.24.75.13.17.36.07.75.28.45.02-1.16.54-1.06-.5-.97-.8-.87-.35-.56.18-.9.46-.65.1-.33-.12-1.61-.8-1.03-.69-2.05-2.05-1.16-.75-2.29-.94-1.25-.18-.72.56.02.42.13.49.03.52-.26.51-.55.47-.49.25-.56.1-.71.02v-.2l1.01-.66.48-.49.16-.67-.34-.64-.68-.39-1.55-.46-1.11-.61-.36-.13-.32.03-.55.28-.25.06-.3-.11-.09-.23-.07-.29-.26-.3-.39-.16-.37.04-.73.3.16-.31.48-.49.1-.21.04-.54.15-.42.23-.37.33-.42-.35-.48-.43.05-.49.27-.81.28-.33.5-.27.12-.6-.04-.24-.05-.19-.08-.18-.1-.15-.13-.11-.15-.09-.19-.03-.17.04-.38-.01-.18-.09-.17-.25-.32-.21-.79-.36-.13-.43.27-.34.58-.04.26.04.85.04.11.13.27.02.17-.07.16-.26.32-.13.47-.19-.06-.64-.71-.15-.09-.16.02-.26.09-.19.11-.42.35-.13.08-.29-.09-.53-.37-.36-.08-3.43-.02-.59.06-.41.22-.32.06-1.33.02-.38-.08-.33-.44-.44-.93-.33-.46-.46-.34-1.09-.46-.96-.64-1.66-.7-.55-.4-.5-.5-.79-1.12-.24-.6.02-.43.12-.38.1-.43-.04-.53-.26-1.1-.07-.59-.12-.48-.51 1.44-.71 1.25-.41.6-.29.33-.98.84-.23.33-.03.41.17.97-.01.2.01.2.14.34.18.33.25.33.3.26.36.12h1.18l.48.18.14.52-.17 2.12.02 1.24.15.53.29.55.52.65 2.4 2.05.19.29.06.75.16.05.51-.28.2.18.47 1.14.47.39.54.04.54-.06h.51l.49.24.33.44.52 1.59.32.57.34.28.97.47.5.46.57 1.02.61.46.51.18 1.58.21.49.26.4.54.58 1.14 1.34 1.96.14.65.04.56.25.08.37-.11.39-.06 1.37.3.34.13.44.4 1.13 1.54 1.01.8 1.24.6 1.28.16 1.14-.53.27-.32.09-.21.11-.08.3.02.2.12.18.21.24.19.36.05.36-.14.5-.47.3-.18h.14l.3.11h.11l.54-.21.03-.08.34-.17.07.04.28.23.14.03.2-.14.06-.21.02-.48.27-.42 1.5-1.28.74-.36.82-.14 1.69-.05 6.03-1.55.54.05 3.62 1.6.6.17.57.03.53-.1 1.06-.34.47.01.28.26.15.4.11.46.3.6.33-.16.63-.89 2.26-.88.39-.06.49.04.72.2 1.4.59.77.23 1.62-.41 2.35-2.85 1.7-.53 2.17.01.69-.1.36-.16.19-.32 1.42-4.07.84-1.69.09-.29.02-.32-.17-.23-.61-.02-.13-.23.2-.68.49-.39 3.1-1.47.65-.22 1.66-.16.48-.15.46-.35.37-.38.44-.31.66-.15 8.04.41.7.22.18.01.32-.15.19-.22.16-.26.27-.24.49-.17.45.05.45.16.52.11 1.31-.05.46.07.64.26.46.25.25.37.02.61-.15.59-.31.52-.41.44-.83.61-.15.29.08.21.4.02 1.03-.35 1.05-.18 1.04.09.98.48.89.68.38.12 1.21.08 1.57.32 1.28.47 1.99 1.55 1.22.04 1.06-.44.57-.15.57.02.58.32 1.36 1.62.76.37.67-.15 4.27-2.86 1.62-2.04.61-.53.5-.2 3.89-.61 1.08-.02.99.32.27.23.25.3.27.26.35.11.27-.08.58-.4 4.06-1.71.51-.14.63.09.62.31 2.14 1.51.58.18.63-.15.43-.4.17-.52v-.59l-.13-.57v-.65l.31-.46.95-.76.4-.46.69-1.15.5-1.41.3-1.87-.03-.83-.08-.34-.09-.19-.03-.19.07-.3.15-.23.24-.26.29-.21.26-.1 1.46-.19 1.51-.58.34-.33.05-.51-.12-.57v-.46l.12-.45.24-.55.07-.34v-.41l-.11-.36-.26-.17-.63.07-.43.19-.31-.03-.28-.6-.03-.22.03-.9-.06-.28-.3-.42-.1-.24-.03-.5.31-1.47.41-1.06.82-.47 2.08-.28.72-.24.17-.31-.08-.42-.03-.56.18-.59.33-.18 1.04.08.51-.33 1.15-.98.47-.21.41-.24 1.01-1.15.58-.36 1.22-.11.56-.2.37-.52-.07-.48-.31-.62-.41-.63-.41-.44-.26-.18-.33-.15-.35-.1-.32-.04-.29.09-.58.28-.3-.01-.4-.38.06-.54.23-.6.12-.56-.08-.26-.29-.54-.03-.26.17-.33.24-.1.28-.06.29-.2.3-.66-.17-.53-.71-.91-.14-.36.07-.12.22-.1.37-.31.21-.31.1-.28.07-.28.11-.32.36-.56.44-.42 1.54-1.05.31-.35.46-.95.46-.69.37.11.69 1.02.77.37.85-.14 1.76-.77 1.1-.12.44-.18.22-.53.1-1.15.17-.48.93-1.25-.06-.2-.41-.13-.43-.52-.02-.47.94-4.06.49-1.25.58-.59.27.05.23.12.24.07.29-.11.15-.26-.02-.29-.21-.56-.44-.8-.1-.34v-.27l.05-.55-.03-.28-.67-1.62-.11-.64.01-1.07.16-1.06 1.04-3.13-.02-.89-.37-.39-.56-.31-.42-.39.01-.61.19-.19.95-.52.25-.3.52-1.04.33-1.17.3-2.38.37-1.09.24-.26.55-.14.18-.18.19-.25 1.15-1.06.2.08.19.24.27.14.37-.09.12-.28.11-.35 1.02-.87.12-.81-.02-.89.27-.85.35-.36.32-.04.24.22.12.43.25.39.54.14 1.14.07.64.24.34.19.16.19.11.45.16.43.29.32.44.16.34-.18 1.29-1.29.49-.3.29-.23.2-.32.22-.59.29.16.28.05.63.04 1.21.32.37.05.76-.22.75-.38.69-.14.73.71h.18l.19-.02.18.07.1.13.1.34.69 1.16.26.13.28.03.28-.08.67-.69.28.02.31.12.47-.13.22-.21-.06-.18-.13-.19-.01-.28.21-.39.56-.56.19-.34.29.04 1.18 1.7.36.03.68-.35.71.28.52-.02.51-.15.85-.72.48.06.98.7 1.04.23 2.11-.4h1.11l1.52.41 4.96-.09.26-.15.43-.39.33-.08.39.07.21.18.15.26.22.27.99.7 2.18 1.12 1.52 1.6.63.39.75.2.92.15.44.02.74-.06.44.17.23.22 1.12-.45.23-.03.27.02-.18-.22-.47-.45-.1-.14.08-.23.16-.19.13-.23.18-.17.56-.38.23-.25.13-.31-.05-.34-.4-.38-.1-.29v-1.11l-.12-.29-.52-.31-.09-.24.23-.29.53-.46.59-.38.4-.05.42.51.25.52.31.48.59.41.24.08.68.12.84.33.36.04.1.11.18.51.11.11.23.05.23.1.37.22 1.04.96.33.14.44.07 1.67.49.59-.02 3.56-1.8.64-.21 2.19-.2 2.43-.68.21-.14.35-.46.43.29.62.12 1.16-.03.52-.08.86-.25.46-.05 1.06.04.38-.1.41-.29.28-.28.27-.34.13-.4-.14-.45.41.09.27.13.23.04.29-.18.24-.29-.02-.2-1.06-1.15-.31-.5.15-.37-.33-.12-.66-.09-.3-.16-.76.57-.5.25-.22-.16-.17-.22-.33-.25-.24-.3.11-.35.29-.34.14-.34-.05-.33-.29-.36-.39-.24-.48-.14-.37.1-.07.46-.46-.19-.19-.12-.17-.15-.13-.19-.2-.49-.13-.16-.21-.09-.57-.08h-.24l-.24-.07-.23-.17-.35-.33-.94-.68-.83-.77-.74-.87-.65-.99-.3-.78-.16-.24-.17-.16-.69-.44-.18-.06-.12-.11-.03-.33.08-.29.2-.21.45-.34 1.51-1.7.97-.57 1.03.25-.04-.35.06-.27.13-.1.22.15.83-.7.58-.37.26.08.25-.14.56.17.84.43.93 1.08.48.82.16.2.34.25.27.01.58-.36.8-.62.32-.11.34-.01.56.17.77.12.85.35.43.1.56-.06.67-.19.63-.28.96-.59 5.02-1.45 4.91-1.78 1.08-.61 1.3-1.42.62-.53.07-.67-.14-1.26.06-.46.25-.89z"/></svg>