<svg data-name="Слой 1" xmlns="http://www.w3.org/2000/svg" viewBox="0 0 260.91 329.78"><path fill="#ee2f48" d="M87.04 0l2.15 2.31.71 1.13v1.19l-.19.79-.47.36-1.11.54-1.2 1.06-.6.38-.72.2h-3.12l-2.31.63-.61-.27-.28.4-.26.51-.09.55.24.54.46-.62.38.12.38.37.52.13v.33l-.68-.04-.87.18-.78.35-.39.51.08 1.27.58 1.06.81.75.76.26.33-.1.95-.92.44-.18 1.02.18.87-.1 1.49-.46.86-.11-.06.17-.07.35-.07.15.61-.26 1.08-.94.64-.13-.27.74-.45.76-.45.62-.29.23-.5.06-1.2.35-.35.26v.33l.21.75-.3.76-.44.83-.22.98.07.23.51 1.09.77 1.36h.2l.51-.58.92-.45 1-.18.69.21v.3l-.08.55.39.5.53.47.33.5v.76l-.15 1.03-.24.96-.22.52-.62.3-.6-.21-1.12-.74-.68-.2-.54.04-1.09.51 2.35 4.78.94 1.18 1.01.77.66.22.3-.49.33-.21.72.2 1.08.5 3.62.09 1.06.24 1.08.66 1.8 1.56 1.03.41.04.95.46 1.56.66 1.45.69.63.42.15 1.34.76.3.25.1.84.09 1.31.33 1.52.93 1.06 2.06 1.34 1.04.41 2.55.29 1.07.63.35.63-.37.15-3.48-.78-1.7-1.16-.35-.17-.67-.09-.53-.24-.44-.39-1.95-2.88-.39-1.46-.39-.5-.81-.65-1.13-1.35-2.78-4.91-.62-.83-.25-.16-.97.04-.46-.08-.39-.29-.47.35-2.26-.02-2.27.55-.53.63-1.14-.09-2.07.52-1.22.03-2.22-.56-1.08-.55-1.01-.86-.7-.8-.33-.15-.6-.04-.64.15-.63.37-.56.54-.41.62-.48 1.28-.76 2.89-1.05 2.67-.19.7-.06.82.09.79.4 1.09.21.91.25.72.29.65.21.28.74 1.87.15.23-.27 1.36-.6.58-.64.46-.44 1.04-.03 1.41.31 2.98-.08 1.16-.39-.87-.17-1.17-.03-2.68.18-1.39.46-1.03.62-.75.68-.6v-.34l-1.1-.54-2.42-.47-1.15-.6-.35-.46-.35-.66-.42-.59-.55-.24-1.18.05-.49.19-.37.41-.24.67-.21 1.63-.25.78-.05.7.6.1 1.12-.3.82.97-.15 1.63-.64 1.64-.6 1.01-.35.34-.3.18-.35.08-.48.01-.41-.2-.29-.44-.24-.45-.23-.2-.2-.14-.54-.63-.33-.19-.48-.01-.33.14-.36.18-.38-.41-.26-.61-.52-1.59.5-.32 1.12-.09.51-.27.62-.46.26-.44.09-.87-.32-.5-.62-.17-.45-.22.25-.6v-.3l-.96-.67-1.18-1.51-.79-1.74.19-1.34v-.36l-2.28-.67-8.54 1.21-4.2.87-.67-.16-.3-.41-.3-.22-4.38.5-2.25.88-1.06 1.1-.54.38-1.03 1.16-.92.63-.41.54.06.62.37.39.83.42.25.33.05.61-.2.47-.28.14-.15.39-1.14-.25-.57-.01-.23.43-.12.72-.55 1.44-.13.81.01 3.53.42 1.32 1.05.52 6.48.23 1.13.41.69 1.01-.55-.21-.98-.63-.61-.16-.67.01-.38.2-.72 1.09.21.53-.1.56-.25.51-.25.34-.32.35-.28.16.06 1.33.03.76-.08.74-.2.81-.41 1.05-.06.38.02.56.11.31.13.24.11.42.26 3.38-.04 1.69-.26 1.5-.62 1.58-2.33 3.68-.52 1.42-.24 1.58-.26 5.06-.21 1.65-.52 1-1.01-.32-.43-.18-1.4.21-1.51-.46-2.71.04-.95.3-1 .73.24.49-.05.42-.14.38.01.39.2.3.93.8-1.58.8-.46.04.34.73.11.83.04.82.17.7.56.65.75.37 2.25.32 1.48.56.8.13.74-.05.71-.2.27-.26.18-.31.17-.09 1.73 2.83.41 1.19-.24 1.69-.58 1.33-.2.71-.02.85.26.98.24.44-.09.24-1.26.77-.31.37-.67 1.07-.56.51-1.22.53-.55.59-.64 1.28-.35.33-1.85.2-.45.26-.49.51-.14.26-.24.59-.23.29-.34.17-.3.02-.25.12-.2.48.06.7.45.33.62.18 1.87 1.04.73.78.14.22.08.31-.03.57-.14.13-.22.05-.24.26-.65 1.17-.66.79-.77.42-2.52.08-2.83.97-1.4 1.08-.47.21h-.58l-1.82-.54.23 1.03-.11.47-1.07.29-.09-.72-.46-.26-1.09-.17-.13-.16-.31-.56-.21-.2-.24-.02-.88.18-.96-.39-.92-.74-.92-.44-.96.54.35.26 1.07 1.12.37.6-.45-.12-.67-.17-.93-.25-1.16.31-.41.23-.58.43-.55.24-1.17.2-.47.34-.1.41.65.5.38.89-.05.92-.63.63-.03.49.28.12.83-.02.33.16.63.48.28.29-.37 1.3.65.83 1.92.84-.33 1.03-.15.65.12.56 1.9 2.61 1.14 1.33.2 1.49.14.83-.1.9-.22.97-.04.83.43.51-.16.41-.09.99-.15.57-.29.39-.72.51-.3.29-1.46 2.7-.6.73-.28.5-.25.9-.08 1.02.2.83.67.37 1.42-.97.65.22-.23.13-.65.53.6.56-.43.57-1.62.88-2.62 2.06-.39.44-.55 1.15-.34.38-.52.06-.38-.35-.35-.43-.39-.23-.8.42.17 1.06.43 1.29.04 1.14.38-.07.74-.37.39-.11.39.05.75.25 1.02-.12.06.23-.18.38-.1.37.03.66.08.36.21.23.67.42.94.32-.06.19-.15.24-.05.3.24.92-.01.36-.18.47-.32.38-.63-.06-.4.23-.25.44.03.39.06.41-.15.54-.41.38-.43-.1.12.57.22.37.28.2.19.27-.06.59h-.01l-.02.04-.02.04-.02.08v.09l.03.05.01.03.31.16.17.09.01.33v.1l-.1.47.07.24.04.14.38.04 1.12-.32.48.05.54.55.32.48 1.41 2.16.01.01-.39.24.34.64.58.31 1.97.04.06.28-.14.29-.06.1-.32.4v.16l-.63.38-.55.45-.36.29-.52.82.01.01.46.59-.22.34.04.2v.01l.23.09.32.03h.01l-.22.38.16.15.06.06h.01l.07.17.17.34.15.13.07.06.09.01h.2l.82-.25.14-.05.05-.04.02-.01.06-.03.06.03.07.05.44.21 1.23.28.51.04-.31.31-.02.09-.05.27.01.07.07.32.16.46.07.13.17.27.16.03h.04l.06.09.06.07v.01l-.01.14-.02.6-.19.99-.01.05-.19.6.03.53.98 1.72.07.61v.01l-.24.25-.11.12-.01.01-.75.12-.39-.06-.21-.08-.11-.04-.32-.03-.16.09-.22.12-.19.24-.09.12-.19.42-.06.45.13.4h-.01l-.52.47-.72.2-.5.14-.59.28-.2.31-.08.13-.5.35-.14.1-.3.38v.01l.37.41.05.12.12.39-.02.5-.17.42-.06.04-.15.1-.57.04-.04.03-.2.13-.04.08-.01.06-.06.28-.04.22-.07.22.29.23.11.27v.01l-.03.08-.06.21-.26.3-.19.65-.14.61-.18 1.23.05.03.17-.02.06.02-.1.14-.27.52.31.18.19.35.17.93-.07.49.12.36.49.75.43 1.24.22.38.32-.6.48.79.94 2.25.44.45.97.43.41.27.14.24.28.76.03.15.23.02.43-.26.24.01.49.31.82.77.48.31.5.13h1.36l.88.26.11.01.15.15-.07.07v.37l-.05.03-.13.95-.01.32.08.19-.01.17-.27.24-.03.4.07.35.14.32.2.27-.25-.1-.13.07-.09.22.18.22.06.1-2.09 1.35-.44.62.05.14.18.12.18.18.02.29-.08.2-.21.31-.28.59-.75.92-.43.67-.16.48v1.38l-.24 1.84.09 1.32v.32l.24.03.3-.06.54-.37.24-.09.31.05 2.61 1.31.49.47.17.36.08.36.01.25-.05.02.19.29 1.39 1.46.09.26-.13.36-.5.02-.16.4.18.5.48.59 1.89 1.81.04.2-.05.43.03.18.15.11.39.15.13.13.22.79.09.19.04.1.05.34.08.16.12-.02.38-.25h.12l.18.68-.14.56-.08.53.36.61.33.13 1.28.02 1.1.41.36-.08.49-.66-.1-.72-.22-.7.17-.6.28-.07 1.19.27.83-.08.31.04 1.78 1.02.61.03-.01 1.53.33 1.19.62.49.88-.55.04-.22-.09-.23-.02-.24.26-.25.15.01 1.09.79.45.24.45.15 2.45.02.76.37.18.02.17-.17.3-.62.17-.21.27-.09.57-.07.22-.1.14-.24.21-.63.13-.22.48-.27.66-.2.56.05.11.48 1.24.09.51.18.19.63-.21.14-.07.09-.05.15.39.42.65 1.04.38.48.61.39 1.25.22.63.32.21.26.27.57.27.22.39.09.35-.09.33-.13.35-.08.32.05.6.21.28.05.35-.1.67-.36.31-.09 2.37.69 1.62-.17.51.06 4.51 2.41 2.8.58.33.3-.6.69-.88 1.68-1.3 3.56-.35.6-.17.14-1.05.56-.25.02-.06.1-.13.13-.14.23-.06.41-.05.23-.17.14-.21.08-.81.01-.32.11-.15.38-.04.82-.13.34-.29.41-.38.37-.35.22-.77.92-.44.39-.47.15-.33.24-1.21 1.87-.24 1.4v1.49l.34.91v.29l-.71.57-.35.35-.14.39-.06.81-.14.41-.19.28-.2.41-.14.48-.21 1.13-.03.56.09.52.18.55.15.56-.04.6-.38.63-.53.28-.46.38-.2.89-.06.87-.18.72-.3.62-1.79 2.52-.19.52-.06.61-.14.34-.2.26-.2.37-.19.66-.18.82.09 1.75 1.22 2.18.06 1.32-.26.5-.76.81-.15.56.03.69-.05.19-.18.43-.12.2-.19.18-.08.19-.03.18.01.11.02.1v.19l.15.79-.07.47-.38.21-.16.2-.4 1.36-.08.6.35 1.48-.02.68-.16.28-.47.5-.1.26.08.9.09.46.11.19.42.22.39.54.64 1.28.17.21.18.17.15.21.06.4-.06.15-.12.43 1.45-.43.64-.07-.37 1.06-.31.29-.73-.01 1.46.78.63.08 2.37-.49.54-.3.45-.55.52-.81.39.21 1.84.11.17.18.1.39.05.4.08.17h3.7l1.28-.28.28-.19.12-.18.12-.22.24-.27.23-.18.61-.33.53-.16.2-.21.13-.2.15-.1 1.54-.26h.51l.74.23.32.03.16.18.16.4.19.41.29.19 1.08.28 1.82.01.87-.14.04-.2.33-.72.87-.58.85-.09.44.42.34.56.32.39.37-.13.19-.32.04-.31-.02-.3.03-.29-.01-.15-.06-.17-.06-.18.07-.24.11-.08.14-.06.13-.01.03.07.01.26.18.09.17-.99-.26-.03-.46-.19-.39-.07-1.38.24-.43.22-.4.28-.42.22-.5.02-.59-.34-.73-.55-.14-.03-.45-.16.18-.46-.06-.36-.13-.3.04-.31.27-.32.72-.4.31-.28.22-.85.13-.31.38-.57.23-.12.31.01 1.53-.32.44-.21-.27-.67.45-.26.71.05.52.23.06.31.02.55.1.51.28.21.35-.23.15-.92.26-.28.36.12.28.42.22.5.22.33.29.07.31-.07.28.05.19.43-.08.16-.38.57-.09.27.12.35.22.28.08.32.05.27 1.5-.02-.23-.26.26-.83.76.04.93.54.74.69-.53.13v.29l.43.43.82.61.7.18 1.12-.1 1.04-.34.44-.48.54-.22 3.18.36h1.57l.39.6h1.06l1.11.26 7.86 4.9 1.79.49 1.83-.03.77-.37.41-.65.35-.76.63-.72.41-.22.42-.05.41.15.33.36.09.5-.05.51.11.45.58.29.22-.02.35-.22.15-.04.86.32.84.06.43-.08.35-.28.08.7.29.39.36.37.26.55v.13l.01.13.04.25.32.18.24-.11.25-.22.33-.15 1.4 2.06.25.49-.13.43-.65.51.32.36.06.44.04.46.14.39.29.26.19-.01.21-.15.38-.18.14.02.29.18h.15l.12-.1.34-.37 1.25-.23.52.28-.02.76-.52 1.55.07.27.02.26-.08.27-.14.14-.37.11-.12.08-.25.47-.12.27.12.06 2.26-.27.63-.24 1.27-.78.56-.51.5-.68.64-1.27.17-.27.29-.2.6-.21.25-.16.47-.63.42-.85.25-.95v-.89l-.12-.52-.15-.37-.24-.28-.41-.21.3-1.67.03-.39-.19-.47-.25-.46-.04-.37.43-.17.47-.08.22-.09.1.08.13.39-.04.17-.14.19-.1.28.04.36.16.19.23.16.45.21 1.21.19.33-.06.36-.3.58-.8.39-.28.69.01 3.76 1.43.11.13.09.21.15.21.24.06.84-.1 1.15-.52.4-.11.4.02.3.17.65.49-.24.29-.92.63.2.32 1.47.7 1.41 1.52.09.19.01.28-.06.3-.1.18-.07.01.3.57.39.23 2.97.04.56-.17 1.85-1.29.72-.19.62.25-.07 1.14.68.07.63-.28.4-.44.38-.5.55-.51.53-.17 1.23-.03.46-.2.25-.41-.11-.32-.31-.2-.35-.09 1.34-1.55.65-.15.69.1.65.2 1.34-.23.62-.24.51-.57.14-.39.22-.98.21-.44.78-.69.11-.12.52.02 1.25.24 2.31.01 1.6.33.3-.09.28-.71.32-.2 2.39-.48 6.53.28.23-.05.81-1.04.11-.27.03-.39-.05-1.13-.08-.23-.14-.1-.24-.23-.2-.27-.1-.24-.05-.34.45-.18.68-.58.25-.15.42-.18.06-.02-.08.2-.08.45-.09.33-.19.25-.1.3.16.46.29.25.3-.04.64-.33.62-.09 1.64.35.49-.09 1.11-.42.47.09.14.24.29.9.15.35.23.27.85.69.4.18.59.02.6-.11.44-.2 1.27-1.13.54-.27 1.01-.24h1.02l1.6.41.48-.07-.29.74.44.54.74.49.57.55-.78.38-.35.98.16 1.04.7.56.44.07.27.11.24.18 1.29 1.44 1.4 1.05.31.12.24-.07.24-.13.29-.01.28.14.16.17.17.11.31-.02.2-.17.8-.96v-.35l-.07-.25-.1-.22-.06-.23-.03-.26v-.73l.08-.11.27-.68.02-.06-.05.02-.03-.96.08.03.46-.59.02-.12.33-.84.08-.09.06-.51.02-.51-.08-.54-.23-.61-.56-.96-.34-.41-.36-.27-.44-.07-.72.32-.43.07-1.58-.3-.46-.47.52-.81.01-.01.18-.3.05-.28.01-.27.06-.27.15-.33 1.84-2.95-.13-.13-.62-.92-.97-2.23-.48-.48-.22-.12-.57-.59-.69-.41-.23-.34-.15-.44-.08-.51-.43-.95-2-2.1-.27-.42-.26-.5-.13-.57.05-.57.17-.31.19-.06.18.01.17-.07.41-.64.11-.15 1.14-.79.37-.43.52-.82.26-.29.42-.21 1.58-.32-.04-.1.45-.35.91-.52 1.06-1.02.46-.32 2.95-1.17 3.92-.69.96-.53 2.77-2.44.41-.66.15-.91.06-.21.13-.22.13-.3.06-.44-.06-1.21.06-.4.13-.39.38-.82.08-.41-.06-.38-.27-.41-.11-.78-.08-.19-.02-.15.16-.3.25-.23.93-.35.95-.13 2.96.82.5.26.45.35.44.67 1.16.53.06.06.26-1.14.24-.49.09.02.59-.09.23-.1.24-.23.14-.21.48-1.06.18-.55.09-.63.02-.72-.16-1.38.08-.52.38-.36-.35-.17-.15-.13-.3-.6-.14.05.06-.4.85-1.79-.56-.58-1.37-2.74-.67-1.04-.39-.22-1.06-.16-.54-.26-.49-.48-.44-.68-.3-.78-.07-.81-.52.05-.49-.27-.47-.38-.52-.31-.64-.14-.4.18-.27.48-.29.76-.67-.33-.9-.64-.81-.77-.41-.66-.03-1.22-.31-.75-1.2-1.23-.87-1.16-.35-.3-.56-.21-1.74-.09-.8-.47-.44-.72-.38-.86-2.66-3.62-.36-.2v-.01l-.91-1.08-.13-.4-.04-.42-.16-.36-.5-.2-.8-.85-.41-.34-.48-.25-1.09-.3-.38.13.12.55-.54.08-1.67-.25-.56-.21-.45-.46-.93-2.08-.58-.6-1.31-.61-.55-.46-.33-.64-.14-.71-.08-1.43-.04-.74-.21-.17-.3.05-.32-.1-.31-.33-.22-.32-.18-.4-.19-.52-.11-.51-.13-.97-.21-.48-.3-.32-.67-.38-.3-.35.03-.11.13-.35-.23-.11-.07-.05.24-.54-.02-.58-.23-.47-.4-.2-.94-.46-.44-.29-.41-.37-.59-.85-.3-.56-.13-.46.33-.66 1.18-.51.45-.45.09-.72.02-.93.16-.62.58.18.21-.68.66-1.21.22-.68.1-.85-.18-.32-.41-.16-1.16-.68.03-.48.2-.59-.08-.64-.48-.47-1.05-.1-.43-.43h-.03l-4.3-2.31-.1-.28v-.4l-.06-.45-.25-.44-.41-.36-.46-.26-.4-.37-.25-.66-.02-.67.2-1.01-.08-.66-.22-.53-.32-.49-.69-.77-1.41-.88-.29-.53.35-.53.3-.19.19-.21.05-.57-.1-.63-.23-.4-.66-.68 2.08.15.55.39.16.41-.01.76.12.35.31.28.42.13.82.02.21.11.09.16-.02.21-.13.24-.04.02h-.04l-.03.03-.04.03-.08.09-.03.08.03.11.08.1.5.5.12.17.12.28.05.26.03.23.34 1.22.29.46.48.06.39-.29v-.4l-.16-.48-.09-.54.1-.79.15-.42.56-.72.08-.7.23-.35.32-.22.32-.34.88-1.6.31-.3.83-.47.34-.3.11-.07.25.01.12-.06.06-.16-.02-.18-.04-.15v-.09l.07-.2.06-.23.1-.21.21-.19.79-.67 1.15-.35 2.12-.15 1.53.27.37-.04.32-.31.62-.97.37-.36.46-.17.46-.02.51.06.18-.06.39-.27.26-.05.24.07 2.63 1.6.97.06.85-.84.41-.47.19-.82.18-1.82.23-.16.24-.06.24.06.22.15.25.08.26.03.27-.03.26-.07.01-.01.81-.27 1.49.09.7-.53.41-.73.95-2.54.55.06.46.32.47.21.6-.3.3-.91.16-.29 1.07-.75.17-.19.02-.16.08-.06.35.13.15.17.4.68.19.24.63.3.53-.12.48-.44.5-.62.28-.16.17-.21.02-.27-.16-.37.48-.34.38-.5.11-.6-.33-.69 1.17-.7 1.28-.25 2.56.01.55-.1 1.08-.4.62-.07 1.3.15.52-.11.82-.51h.17l.16-.07.2-.27.01-.24-.07-.31-.03-.39.12-.43.26-.32.24-.01.28.09.36-.06.29-.22.44-.55.3-.22.56-.12 1.03.13.55-.03 4.44-2.04.35-.32.52-.79.31-.3 1.02-.22 2.23.17.84-.7.16-1.12-.75-.44-1.05-.31-.73-.72.03-.48.24-.16.04-.09-.56-.23-.97-.13-.33-.22.31-.46.41-1.3.68-.69.91-.15 1.05.35.22.2.15.25.19.25.31.17h.31l.8-.35 1.03.06.33-.17.24-.63.17.39.05.27.11.27.26.37.36.25.76.19.35.27.35.42.22.36.08.44-.05.68-.22.54-.34.64-.16.55.33.26 1.57-.65.34.01.16.5-.17.6-.48 1.13-.1.81.14.33.98.28.41.23 1.09.82 1.06.24.62.02.45-.12.28-.32.27-.52.45-1.21.01-.83.39-.66 1.02-1.13 1.44-3.42 1.27-3.22.08-.52v-.87l.05-.44.16-.31.22-.21.19-.3.05-.59.04-1.14.23-1.27.39-1.21.48-.95-.12-.13-.1-.14.15-1.31-.41-.9-.65-.75-.52-.93-.09-.31-.12-.81v-.05l-.27-3.13.24-.57-.3-.62-.53-.55-.44-.35-.64-.31-1.34-.4-.65-.37v-.01l-.6-.42-1.85-.63-.64-.66-.15-.81.23-.88.56-.88.33-.92-.05-1.19-.28-1.17-.36-.79-1.39-1.15-.64-.75-.29-1.17-.11-1.21-.4-.53-.51-.35-.47-.72-.08-.97.37-.8 1.63-1.66.52-.7.44-.83.24-.9.1-2.82.16-.44.61-1.12.13-.44.05-.42.08-.41.22-.39.53-.66-1.86-1.39-.28-.66.17-1.2.31-.84.11-.66-.41-.65v-.28l.55-.74.01-.94-.44-.81-.8-.36-.8-.19-.97-.49-.64-.71.17-.86-.6-1.34-.67-2.03-.16-1.86 1.47-1.29.69-1.1.48-1.09-.14-.49-.53-.49.22-1.09.8-1.67-.89-.73-1.81-2.04-1.71-.68-.81-1.11-.54-.26-.3-.29-.97-1.92-.45-.51-3.02-2.23-.77-.42-.94-1.1-.56-.25-.64-.05-.59-.18-.5-.4-.32-.66.75-.65.29-.58.12-.88-.05-.59-.36-1.66-.17-.49v-.29l1.38-1.02 1.74-.91 1.67-1.34.88-.91.38-.86.07-.39.86-2.68-.06-.68-.17-.67-.11-.76.08-.65.2-.57.29-.42.3-.16.21-.32.74-1.46-.38-.34-.11-.27-.43-.36-.18-.31-.08-.46-.02-.87-.04-.4-.79-3.67-.3-2.46-.6-1.01-.29-1-.69-1.06-.21-.99-.03-1.06.08-1.74-.05-.48-.59-1.86-.43-.93.11-.75-.03-1.34-.21.03-.45-.06-.42-.15-.36-.21 1.29-.93.03-.03.24-.35-.09-.78-.13-.13-.28-.26-.45-.1-.22.15-.33.67-.81.24-2.28-.17-.35-.14-.71-.43-.21-.06-.69.06-.11-.11-.46-.58-.94-.21-2.09-1.76-.31.07-.47-.41-.41-.61-.18-.53-.24-.17-.53-.13-.53-.26-.25-.58.29-.62 2.04-1.69.32-.44.18-.55-.05-.46-.35-.19-.16-.03-.19-.07-.17-.1-.14-.13-.11-.04-.4.04-.11-.09V30l.04-.22-.02-.17-.09-.22-.09-.36-.12-.33-.2-.14-.8-.34-.17-.12-.3-.5-.83-1.05-.34-.27.76-.47.37-.85.22-.94.42-.71v-.33l-2.27-1.9-.86-.45v-.29l.28-.09.19-.15.04-.21-.12-.25-.81.27-1.46.99-.84.39-3.51.7v.33l.23.22.32.55.24.22v.34l-.67-.02-.52-.34-.42-.59-.36-.71-.41-1.12-.16-.24-.26-.06-.18.15-.22.12-.34-.21.23-.2.14-.22.22-.57-.56-.22-1.05.54-.71.01.33-.35.43-.31-.75-.68-.95-1.94-.73-.39-.99-.24-1.48-.84-.94.08.32-.21.19-.09.26-.01v-.35h-1.27l-.31-.17-.08-.4v-.53l-.08-.54-.81-1.31-.12-.75.54-.96-.33-.32-1.24-.65-.34-.47-.21-.62.01-.58.36-.35-.71-.22-1.14.42-1.13.74-.72.72-.26.48-.29.79-.25.4-.31.28-.29.09-.55-.04-.29.06-.1.05-.11-.08-.49-.62-.17-.32-.13-.34-.08-.39-.26.37-.27.23h-.31l-.33-.29-.31.37-.33-.15-.29-.42-.25-.47-.1.39-.13.32-.36.62.07-.6.17-.56.29-.39.43-.11v-.36l-.37-.04-.35.05-.33.12-.29.23.05.17.07.36.07.16-1.55.9-.85.21-.53-.46v.32l-.23-.18-.2-.01-.52.19v.34l.18.04.37.29-1.84.89-.48.41-.06.2-.03.61-.09.24-.12.09-.31.1-.17.11-.72.71-.26.41-.19.57.58.53.35.16.44-.02-.61.38-.7-.18-1.23-.87.31-.37-.06-.43-.24-.53-.19-.66.47-.1.35-.43.14-.58-.18-.58.18-.33.21.18.16.07.41.08-.16-.77.19-.74.39-.57.46-.22 1.03.11.56.28.46.58.26-.55.51-.35.61-.06.55.3-.01-.21.05-.06h.08l.09-.04-.23-.03-.18-.06-.11-.18-.06-.42.18-.05.25-.22.15-.09.18.36.18-.65.27-.16.73.15h.59l.16-.13.3-.45.23-.09.74.1 1.22.46 3.04.26.73-.15.71-.66-.37-.55-.81-.2-.66.37-1.06-.52h-6.48l-1.23-.51-.61-.96h.2v-.31l-.58.29-.33.43-.45 1.28-1.17 2.04-.19.47-1.71 2.48-1.03 1.99-.42.51-1.08.9-2.14 1.18-.38.1-.39.27-.68 1.13-.57.52-.97 1.27-.23.46.28-.18.29-.13.31-.06.32.04-.25.65-.82.47-.29.56.15.47.14 1.27.27.58-.66-.78-.07-1.14.11-1.35-.14-1.39-1.07.69-6.78 1.46-2.38-.42-1.11.15-.9.63-.71 1.27-.1.13-.13.18-.08.24v.25l.21.17-.02.25-.13.35-.14.3-.19.22-.23.08-.38.27-.52 1.28-.56.43-.25.01-.73-.31v.3h.2v.36l-.97.99.05.23.07.54.05.22-.23.06-.28.22-.22.35.13.77-.21.97-.3.77-.04.51h-.32l-.21-.15-1.09-1.38-.02-.14h-1.18l-.18-.16-.29-.69-.22-.14-1.15.99-.23.06-.85-.06-.36-.21-.06-.51.12-1.09-.14-.25-1.02-.28-.2-.33-.18-.69-.2-.27-.25-.1-3.46.47-1.52.81-.54.11-.46.18-.84.88-.36.29-.15.02-.44-.02-.43-.13-.1-.44-.02-.57-.21-.51-.28-.11-1.09.11-.79-.24-.54-.46-.42-.69-.37-.94v-.31l.29-.33 1.1-1.71.11-.12.22-.15.27.03.18.21.2.14.24-.21h.23l1.14-.39.51-.33 1.14-1.47 3.3-2.14.13-.43.27-.31.27-.43.12-.84-.18-1.4-.03-.82.21-.61-.23-.93-.25-1.94-.31-.79.44.19.16.14.3-.48 1.06-1.18-.9-.34-1.99 1.23-.67-.47-.49.17-.5-.23.71-.01.52-.01v-.34l-2.37.31-.98.41-.94.61-1.63 1.52-.96.59-1.29.24-1.18-.29-2.53-2.39-4.49-2-1.72-1.38-.63-.32-1.21-.11-.33.11-.26.26-.15.28-.19.27-.38.23-1.08.11-.29.19-.2.41-.38 1.61-.67 1.52-.47.58-.62.23.28-.46.1-.46-.08-.41-.3-.33.18-.32-.01-.16-.1-.07-.07-.12.49-.14.51-.44.4-.61.17-.65-.15-.78-.23-.61.01-.53.56-.56-1.72-1.51-.53-.19-6.86 1.63-1.24-.64v-.32l1.2-.14 1.23-.4 1.14-.65.91-.85.37-.52.27-.57.2-.68.13-.82H87.04z"/></svg>