<svg data-name="Слой 1" xmlns="http://www.w3.org/2000/svg" viewBox="0 0 380.55 448"><path d="M177.92 0c-2.92.22-6.92 2-9.67 3.06-1.3.5-2.16 1.5-3.59 1.71s-1.11-.18-2.63-.4a32.63 32.63 0 0 0-7.64 0c-.54.06-1.11.88-1.82 1s-1.18-.64-1.81-.62a11.14 11.14 0 0 0-5 1c-2.76 1.47-2.76 3.61-3.9 6.17-1.55 3.53-4.56 3.12-8 2.5-3.84-.71-1.18-.84-2.49-2.7-2.38-3.39-6.28 1.32-8.75-1.4.18 2.33-1.34 4.75-1.84 6.7-.13.52-.92 2.05-.79 2.46.65 2.16 2.8 1 3 3.54.39 4.23-5.69 2.3-7.45.63-1.17-1.11.92-1.66-1.32-2.27-2.55-.68-3.39 1.74-4.14 3.26-1.36 2.7-1.44 4.19.28 6.1 2.08 2.32 1.42-.87 1.57 2.49.06 1.1-.5 1.73-.16 3.2s2.66 2.67-.6 3.51c-1.45.38-2.74-1.21-3.47-2.86-1.9-4.34-1.75-4.15-6.72-2.46-.53.18-1.6-.67-1.86-.46s-.35 1.16-.39 1.19c-1.31.63-1.72 2.74-4.75 1.5-4.12-1.69-3.37-5.87-4-9.51-1.83 2.68-1.88-.09-3.7-.1-3.28 0-2.09 3-1.84 4.64a11.84 11.84 0 0 1-2.89 10.05c-.81.86-2.25 1.46-2.87 2.49-.53.86 0 1.87-.45 2.64s-1.62.64-2.09 1.45c.16-.28-.48 3.7-.61 3.09.27 1.23 2 1.94 2.2 2.6a2.85 2.85 0 0 1-.56 3.09c-1.61 1.91-2.18.31-4.29 1a5.34 5.34 0 0 0-4.23-7.18c.68-2 2.76-3 1.32-4.9a24.22 24.22 0 0 0-2.93-.82c-1.11-.21-1.59.65-3.24-.49-1.39-1-3-3.3-4.27-4.57-1.47-1.51-1.89-1.37-1.8-3.87.06-1.62 1.7-5.28.15-6.65-2.87-2.53-4.29 2.49-5 3.61-.81 1.3-2.9 2.36-4 3.3-1.84 1.54-1.87.52-1.79 2.61.08 2.39 2.24 2.9.16 5.49-1.11 1.36-1.84 1.18-2.67 2.58-.62 1.06-.1 2.18-1.19 3.15-.67.6-2.06.18-2.79.76s-1 2-1.47 2.34c-2.38 1.5-4.15-.7-6.23-1.63-4.53-2-4.67 1.24-8.73 2.36-1.87.52-3.72.67-5.7 1.22-2.61.72-3.07-.85-5-1-2.43-.24-.08-.23-2 1a18.38 18.38 0 0 1-3.5 1.88c-1.88.79-3.38 1.28-2.75 4.38.73 3.54 4.54 3.25 5.75 5.88.35.76-.4 2.92.24 4.06s2.38 2.2 3.58 3.2c.38.31 2.5 2.4 2.51 2.48.13.75-.79 1.51-1 2.15-.12.47-.91.77-1 1.24s.32 1.59.17 2c-1.27 3.65-2.73 2.17-5.59 4.78-.49.45-2.42 2.1-2.44 2.1-1.94.31-2.92-1-5-.32S-.14 90.14 0 92s1.9 1.73 2.46 2.6c1.21 1.87.58 4 2.07 5.83 2 2.37 3.77.87 5.88 1.79 2.6 1.13 2.39 5.14 3.51 7.77-3.47-1.33-3 1.31-4 3-1.83 3.39-5 4.8-.44 8.13-3.06 1.06-1 4.31.11 6 1.31 2 2.07 1.88 3.69 2.66 2.92 1.41 5.85 3.35 8.84 4.38 3.71 1.28 7.19-1.75 11-1.43-1.12 2.13 1.15 2.53 1.13 4.45 0 .72-1 1.51-1.41 2.14-1.39 2.36-5.34 5.25-5.29 8 .13 6.61 16.24-.47 18.93-2.56s3.22-3.48 4.71-6.49c.49-1 .2-1.94.79-2.87 1-1.65 2.42-1.4 3.76-2.48s1.81-2.21 2.64-3.87c1.41-2.84 3.94-4.39 7-6.1 2.82-1.58 4.19-1.52 7.33-.61 1.81.53 4.7.6 6.47 1.53s1.53 2.74 3.73 3.1c-.07-1 .4-1.31.65-2.15a51.51 51.51 0 0 0 5.75 4.18c1.06.59.92 1.23 2.37.74.41 1.29 3.5 3.53 4.69 4.42 2 1.46 5.36 2.45 6.76 4.59a6.4 6.4 0 0 0-.51-2.94c1.84.46 2.85 2 4.68 2.73.69.29 2.77 0 4.27 1.29 5.78 4.83 5 12.57 6 19.37.82 5.68 6.06 8.9 7.54 14.77a18.39 18.39 0 0 1 .21 6.57c-.25 1.92-2.84 5.48-.86 6.9.86.62 1.2-.92 2.37-1.16 1.32-.27 4.61.48 5.47 1.57 1 1.27.81 4.13-.72 5.18 4.13 1.43 6 2.31 8.56 5.23 1.58 1.79 2.8 3.63 4.28 5.43.32.39 1.79.53 1.8 2.33 0 3.16-1.51 1.13-2.51 2.59-1.14 1.65.11 3.05 2.34 3.39.64-4.66 4.49-.26 5.46-1.76 2.23.38 5.27 2.27 7.36 3.65 3.24 2.16 3.53 4.86 5.15 8 .6 1.17 2.16 3.86 3 4.3s2.52.12 3.62.61a24.3 24.3 0 0 1 2.16 1.26 22.93 22.93 0 0 1 5.18 5.55c1 1.83.6 4.11 2.06 5.55s4.39 2.34 6.2 4.17c2.44 2.46 4 5.5 6.23 8 .48-.66 6.17 1 7.52 1.6a10.78 10.78 0 0 1 3.92 4c.29.46 1.23 3.39 1.6 3.59 1.8 1 6-3.24 9-2.71 3.46.59 5.33 3.11 8 3.67-1-2.22 2.92-2.57 4.25-2 2 .79 4.85 4.85 5.75 6.66a34.79 34.79 0 0 0 2.8 5c1.26 1.86 2 8 3.42 8.33-1.31-3.76 2.36-.63 3.7-.73.75-.06.94-1.81 2.64-1.64 1.08.11 2 1.5 2.83 2.14 1.34 1 3.86 1.7 3.26 3.75-.66 2.23-6.1 2.64-4.1 5.42 3.45-2.9 7.1-2.23 11.12-3.29 3-.79 3.54-1.05 5.7 2.13 1.39 2 4.27 6.46 3.8 8.92-.37 2-2.44 2.58-2.17 4.74.23 1.85.08.21 1.25 1.68a10.54 10.54 0 0 0 2.28 2.16c1.61.77 2.45.51 4.12 1.5s4.39 3.08 3.29 4.78c2.07-.72 3.12 1.67 5.22 1 1.17-.35 1.63-2.25 2.72-2.75s2.52-.24 3.66-.31c.7 2.13 2.76 4 3.77 6.17 1.15 2.41 1.25 4.73 1.65 6.61.59 2.79 1.09 6.49 2.58 8.93 2 3.27 4.26 5.56 5.3 9.71S302 349 303.91 353c1.08 2.23 2.72 2.81 3.28 5.09a5.43 5.43 0 0 1-3.79 6.76c-1.94.41-8.21.35-8.54 3.41-.2 1.87 2.93 2.91 2.44 5.86-.34 2.06-2.25 7.11-3.77 8.6-1 1-3.06.51-4 1.48-1.49 1.47-.58 2.07-.63 4 0 .94-.58 1.71-.62 2.62a12.59 12.59 0 0 0 .64 1.94c.08.31-.57.82-.25 1.48 1.8 3.76 5.12 2.5 8.5 2.71 2.54.16 4.64.9 6.4-1.44 1-1.38.81-3.55 1.32-5.1a15.3 15.3 0 0 1 3.26-5.19c2.46-3 5.29-3.76 8.11-6.05 5.74-4.65-1.6-12.25 2.47-17.16 2.11-2.55 6.63-4.88 9.81-5.61 1.78-.4 2.3.08 3.71.2.78.06 2.77-.14 3.24 1 .57-1.09 1.58-1.54 2.19-2.52.71-1.17-.5-2.05 1.1-2.82-4.16-.22-1.81-5.32-2-7.57-.25-3.22-1.1-4.25.44-7.93-2.56 0-3.24-2.16-5-3.43-1.51-1.12-3.81-1.85-5.38-3.1-2.39-1.92-2.43-1.74-5.83-2.47a5.57 5.57 0 0 1-4.84-5.1c-.49-3.8 1.51-4.57 3.05-7.64 1.21-2.4-.72-4 .4-6.62.89-2.1 3.29-3.7 4.34-5.83 1.55-3.15 3-6.25 5.34-9s4.59-3.29 7.95-2.74c.55.09.83.86 1.6 1 1 .18 1.05-1.22 1.63-.08.62-.26 1.41-.19 2-.41-.42 1.27-1.92 1.18-3.06 1 .93 1.06.48 1.81-.87 2.26 1.48 1.89 6.8 4.08 9.17 4.59 1.71.37 14.48.57 13.21 2.57.68 1.06.51 2.21 1.07 3.32.76 1.47 4.39 3.33 1.09 4.68 1.5.38 2.34 1.52.9 2.27a13.42 13.42 0 0 0 5.72 6.09c1 .47 5.12 2.6 5.86 2.44 1.89-.4 1.18-4.65 1.49-6.24.51-2.63 2.89-3.94 3.4-6.21 1-4.47-4.76-10.52-7.77-13.64-1.87-1.94-5.58-3-7.08-5.36-.82-1.32 0-5.08-2.91-4 0-1.39-4.79-3.11-6.3-4-2.5-1.46-5.4-1.88-7.86-3.3-4.13-2.37-6.67-6.45-10.83-9-4.92-3-9.78-4.37-14.78-6.07-5.63-1.9-10.66-5.26-16.14-7.78-3.73-1.72-11.63-4.47-10-10 1.2-4 8.39-4.57 9.5-8.7 1.42-5.29-4.24-6.26-8.15-5.84-6.37.68-13.4 1.49-19.66.64-2.72-.37-5.25 0-7.67-1.37-.94-.55-1.6-1.59-2.44-2.07-1.3-.74-2.6-.68-4-1.24-1-.41-4-1.49-4.57-2.33-1.67-2.28-.43-3-2.8-4.58-4.8-3.2-8.53-7.27-12.83-11.13a36.12 36.12 0 0 1-9.17-13.61c-4.21-11-5.34-23.42-10.94-33.86a9.34 9.34 0 0 0-2.24-2.89c-.37-.22-.78-1-1.1-1.17-.6-.33-.74.77-1.06.67-4.93-1.55-9.09-5.35-13.16-8.92a40.74 40.74 0 0 0-6.7-5.17c-2.53-1.46-5.29-1.95-7.39-4.19-4.05-4.31-7.72-7.61-9.34-13.53-.73-2.66-1.73-5.4-1.87-8.31s-.92-5.25-1.05-8c-.08-1.7.34-6.52 1.75-6.4s2.81 4.34 3.88 1c-.15-.14-.67-.16-.88-.28-.16.34.15-3.84.88-3.46 1.08.56-.16 2.41.65 3.74 1.37-1.25 4.17-7.49 1.34-7.68-.07-.17.34.83.41.34-1.77 0-2.54-2.76-4.16-3.7.67 1.13.52 1.36 0 2.46l-.45-.61c1.06-.92-.07-2.11-1.09-3.11-.11.28.27.4.24.61-1.24-.1-1.27-1-.67-2.19.18.87.29.59.67 1.24a26 26 0 0 1-.67-5.86 5.8 5.8 0 0 0-1.37 1.54c-2.91-.52-.33-3.42-2.21-4.67.31 3-2 1.17-1.1-.76-.3.66 1.62 0 1.78-.23a11.61 11.61 0 0 0 .85-1.84c.45-1.59-.13-2.73.56-4 1.74-3.32 3.75-1.26 5.16-2.47-1.3-1-1-.1-.88-1.59.37 1.15.59.91 1.75 1.24-.43-1.28.53-2.23 1.76-2.8.22 1.52 1.24 2.1 2.41.93a31.6 31.6 0 0 0-2.84 2.83c.13-.58.36-.1.43-.33A2.33 2.33 0 0 0 187 73l.44.61c-.35-.12-.43.14-.88-.33-.32.56.14.63-.65.64-.19.48-.47 1.53-.66 2.17a79.23 79.23 0 0 0 12.08-5.48 37 37 0 0 1 7.46-3.6c2.44-.81 2.26-1.09 4.12-3.1-2.32 1.86-3.58-1.25-.87-1.52-.88-2 .29-.66.55-.82 1.69-1 1.77-.49 3.53-.12 1.21.26 9 2.36 4.05 3.39 1.45.69 4.41-1.61 5.69-2.45-2.18-.73-.09-3.2 2.67-1.39 1.35.89 4.64 4.08 3.23 5.41A21.17 21.17 0 0 1 230 68c-1.22-.14-2.46-.18-3.09 1 2-.54 5.85 1.55 5.5-1.92-.18-1.76-3.58-4.67-5-5.68-2-1.39-4.78-1.55-5.11-4-.21-1.49 1.34-2.68 1.42-4.1.13-2.76.16-1-1.55-1.85-.71-.34-2.76.46-3.26-1.34-.33-1.22 2.75-3.63 3.59-4.42s2.67-1.81 2.15-3.15c-.43-1.08-1.41-.13-2.22-.54-1.71-.87-2.72-1.83-4.76-2.12l.46.83c-1.25 0-2.18-1.74-2.07-3.21.09-1.15 1.63-2.66 2.59-3.54 3.19-2.9 7.23-3.34 7.92-7.53-2.36.29-4.92-1.56-6.91-2-3-.57-5.9.82-8.81.18-1.56-.35-2.9-1.54-4.64-1.86-1.92-.36-4 0-5.88-.42-2.24-.45-4.19-1.6-6.31-1.89-2.61-.35-4.33-.27-6.75-1.28-2-.85-2.29-1.31-3.73-2.79-.09-.09-1.83-1.94-1.8-1.89-.3-.55-.73-1-1-1.65s.54-1.54.05-2.4c-.23-.4-3.76-1.94-4.55-2.15.82-1.39-.62-2-.34-3.58s4.48-3.35 2.06-4.67M83 259.45c-2.27.35-.89 1.82-1.61 3.2s-1.31 1.26-2.77 2a8.41 8.41 0 0 0-3.46 2.42c-.92.89-1.46 1.82-2.76 2.21 0 2-2.55 3.8-4.16 4.43-1.14.45-2.2.16-3.53.95-.93.56-1.24 1.81-2.6 2.39-2.09.88-6.58.45-8.49-.77-2.39-1.52-1.3-3.79-2.71-4.95-1.74 1.28.13 2.83 0 4.64-.2 2.89-4.33 5.81-.38 7.33-.26 2.26-2.77 2.78-1.14 5.36 0-1.38.49-2.23 1.74-2-.23.46-.41 1-.65 1.43 1.52.35 2.15-1.26 3.55-.19a22.87 22.87 0 0 1 1.37 3.36 12.5 12.5 0 0 1 1.38 3.57c.13.8-.6 1.9-.22 2.73s1.09 0 1.56.7c1.3 2 1 2 .93 4.48 0 1.39.83 3.56.72 4.72-.27 2.86-1.63 1.95-3.49 3.37 1.5.15.5 2.61.73 4.18.19 1.23 1.07 2 1.13 3.12.3-.49.62-1.21.9-1.69a8.52 8.52 0 0 0-.9 0c3.23-2.89 4.6 3.44 2.64 5.66.27-.29.71-.64.88-.85-1.38 1.34-2 3.27.66 3.39-2.24.47-2.19-1.71-3.84-2.54-.22 2.36.65 4.78.45 7.09a15.47 15.47 0 0 1-1.22 3.41c-.67 1.88-.24 1.53-.56 3.19-.21 1.09-1 1.69-.78 2.76s1.75 1.5 1.53 3.16-1.68 1.61-1.44 3.36c0 .08.9 1.35 1.05 1.64.68-.53.9.72.85 2 .83.2 1 .2 1.29 1.55 1.14-.35 1.14-.44.7.72 2.37-.13 2.28 2.07 2.42 4.2 1.44 0 1.37 1.37.64 2.52 1.32.47 1 .11 1.3 1.42.63-2.38 3.65-4.11 5.27-.87v-.84c2.05 3 5.32-3.1 7-3.65.12-1.83-.62-4.9.12-7.12.21-.64 1.57-1.22 1.59-1.8 0-.8-.72-.56-.73-.58s-1.32-1-1.39-1.41c1.92.05 2.5 2.67 4.44 2.89 1.14.12 2.61-2 4.49-1.26s2.79 2.55 4.38 3.39c1.09.57 2.47-.23 2.87 1.4.73-1.27 1.48-1.78 2-3.39s-1.2-3.51 1.74-4.52c-2.18-1.66-.25-6 .07-8.08.39-2.54.76-5.66 1-8.38.26-3.32-.25-8.07 1.55-10.14-.3 0-.35.21-.61.26-.76-2.33 1.54-4.42 1-6.38-.5-1.7-2.58-2.38-3.07-4.55-.93-4.06 2.08-5.13 3.89-7.7 2.3-3.25 2.4-5.42.93-8.44-1.22-2.53-1.69-6.43-3.58-9.22v.46c.09-.91-.53-.73.67-.86.4-1.24-.44-.42 1.1-1.44a6.8 6.8 0 0 1-3.51-2 10.94 10.94 0 0 1 .89-1.15 5.42 5.42 0 0 1-4.41-.26c2.53.24 1.11-1.15 2.47-2.05a4.39 4.39 0 0 1 2.59-1.14 4.15 4.15 0 0 0-3.3-.58c.09.23-.12.24-.21.29-.14-1.37-.34-1.32-.65-.29h-.66a14.11 14.11 0 0 0 .87-3.21s.19.57.22.61c1.24-1.71 0-2.14-.71-3.05a14.55 14.55 0 0 0-2.15.4c.14.94-.11.82-.44 2a2.94 2.94 0 0 0-1.09-2.88 7 7 0 0 0 .43-.87c-1.21.08-1.72-.5-2.78-1.31 0 .34 0 .68-.08 1-.63-.08-.8-.24-1.52-.32a4.74 4.74 0 0 0 0-1.13 2.12 2.12 0 0 0-.22 1.13c0-1.52-.9-2.83-2.11-2.57m201.48 122.62c-1.53 1.83-9.66 6.29-8.82 1.35.48 4.83-4.65 5.78-7.77 4.44-2.38-1-2.44-1-5.07-.53-3.21.58-3.7 1.85-6.44 3.5-2.5 1.51-5.88 1.85-8.44 2.23s-6 .75-8.46.2c-2.78-.61-3.15-.89-6 .17-2.69 1-3.83 1.72-6.83 1.49-.52-.81-3.55-1.55-4.72-2.77a5.22 5.22 0 0 1-.52-1.83c-1.46-.93-3.13.31-4.39-.39s-1-4.17-2.75-4.73c-1.5-.47-2.62 1.67-3.55 1.8-2.55.36-3-1.5-4.32.9-1 1.86.68 2.1-1.85 3.89-5.86 4.16-6-3.84-9-5.46-.51 3.82-4 5.12-7.64 6.93.89 1.95-1.07 6.48-1.38 8.4a3.88 3.88 0 0 0 .31 2.79c.26.69.21 1.44.72 2.08 1 1.26 1.67.66 2.61 1.4 2.61 2.08 1.95 3.65 5.62 3.6 3.45 0 5.4-.48 8.35 1.32.52.32.31 1.3 1 1.67s3.24-.26 4.36.25c1.47.67 2.28 2.51 3.43 3.58a26.43 26.43 0 0 0 5.68 4c1.38.64 2.89.57 4.21 1.35s2.28 2.5 3.69 3.39c2 1.23 5.81 3.13 8 3.26 3.13.17 4.85-1.14 8.1.61a16.41 16.41 0 0 1 6.77 6.84c2.18 4.09 1.46 3.91 5.39 5.2 2.09.68 3.66 2.82 5.72 3 .92.08 1.33-.63 2.48-.66 2-.07 2.19.47 4 1.07 1 .33 1-.46 1.93-.09.74.28 1 1.67 1.92 1.63 3.17-.12.49-4.31.63-5.93.24-2.92 2-4.43 3.7-6.15.9-.94 2.43-2.32 3.62-2-.55-1.19-2.23-1.68-.95-2 .77-2.39-3.56-2.09-1.76-3.84-2.94.53-1.62-5.11-.87-2.46 1.07-.84.29-.28 1.31-.54-.36-2.26-2.26-1.78-3.71-2.91-1.82-1.41-1.83-2.25-1.76-4.74.11-4 3-6.62 3.69-10.59 1.13-6.85 7.95-14.29 11.84-20.68-1.31-1 1.54-2.32 2.42-3-1.58-.21-2.85-1.36-4.43-.91" fill="#ee2f48"/></svg>