<svg data-name="Слой 1" xmlns="http://www.w3.org/2000/svg" viewBox="0 0 531.24 326.25"><path fill="#f2d842" d="M408.29 0l.49.24.37.94-.37 1.11.18 1.12.56 1.12.19 1.12-.75 1.49-1.49 1.49-2.23 1.49-1.5 1.31-.93 2.05-1.3 1.86-.56.93v.93l-.56.94-.93.93-.56.93-.19.93-.37.93-.93.75-.56.75-.19.93-.37.56-.37.37.18.19.93.37.38.93-.19 1.31-.56 1.12-.93.55-1.49.38-1.87.18-2.79 1.31-2.24 1.67-2.79 2.05h-.38l-1.12-.18-1.86-.93-2.05-.19-1.87-.75-1.11-.37-1.87-1.12-.74 1.68-1.68 3.17-1.49 2.61-.56 1.49-.56 1.12-.56 1.12-.19.56-.56 1.11-1.11 1.31-.38 1.31.19 1.11-.19 1.12-1.3.75-.93.56.37 2.05.37.74.94.93.74.75.75.56.93-.37.74-.94 1.31-.74h.74l.56.18 1.12.19 1.31-.37h.93l1.12.18.37.19 1.12.19 1.12.74.74.94.56.18.37-.37.56-.75.94-.56.93-1.3.93-.75.56-.18h1.12l.56-.19.93-.18.93.37 2.24.18.56.38 1.11 1.49.56.56.94.37.74.37.56.19.56.37.19.37.18.56.38.38.56.37.55.19v.56l.19.18.56.38 1.3 1.3.56.37.94.75.37.74v.75l.37.37.56.93.37.56-.18.56.18.75-.37.56-.93.55-.37.19h-.75l-1.31-.19-1.3.19-1.3-.37-1.31-.56-.56-.37-.93-.37-.56.18-.56.56h-2.79l-.75-.19-1.3.38-.75.18-1.49.56-.75.75-.74.18h-.56l-.38-.37-.74-.37h-.93l-.19.19-.19.37-.37 1.12v.55l-.19.38h-2.98l-1.12-.38-.55.19-.94.56h-.56l-.56.37-.37.93-.56.38-.74.75-.94 1.48-.37.75.19.56v.56l-.37.56-.75.56h-.56l-.93.56-1.31 1.12-.93.74-1.12.19-.93.18-1.86.38h-.56l-2.05.18-1.68-.56-.75.19-.74.19-.37.37-.19.37v.56l-.75.75-1.11.93-.93.75-.75.74-.56.37-.74.38-.57.18-1.12.75-.74.56-.56.18-.74-.18h-.56l-1.31-.19-.93-.18h-1.12l-2.98-.94-1.12-.37-.75-.93-.74-.56H334.59l-.75-.19-1.11.19-1.31.93-.56.75-.56.93-.56 1.49-.37 1.12-.19.74-.74.93v.56l.19.56.55.38.19.93.75.93.74.75 1.31 1.11.37.56.37.75.19.56v.37l-.56.37-.93.19-.38.56-.74.56-.75.74h-.56l-.37.19-2.24.93-.93.19-.74.19-.75.93-.56.74-.93.75-.37.56-.56.74-.93 1.12-.56.56-.38.19-.18.56-.93.18-.75.38-1.31.55-1.67.56-1.49.56-.75.37-1.49.56-.75.19h-1.86l-2.24.19-1.68.18-1.11-.18-1.87-.19h-1.49l-.93.19-2.24.18-.56.19-3.91.37-1.68.38-1.68.18-1.11.19-.75.18-.93.38-.56.18-1.68.75-3.91 1.49-2.61 1.31-.56.18-1.68.94-1.12.37-.56.74-.56.38-.74.37-.93-.56h-.75l-2.42-.19v-2.23l-1.68.37-2.8.37-2.42.56-2.24-1.12-1.67-.74-1.68-.75-2.24-.56-2.05-.37-3.54-.75-1.68-.56-.74-.74-1.5-1.87-.37-.37-.74-.19-.75-.18h-1.68l-1.86-.19-2.8-.37-2.23-.37-3.73-.56h-.93l-1.87.56-2.61.56-4.47-.56-2.05-.19-4.1-.37-4.48-.56-4.47-.56-3.35.19-1.68.18-2.05.38-.37-.38v-1.11l-.38-.75-1.3-.93-.75-.93-1.3-1.12-.56-.75-.19-1.12-1.3-2.98-.75-2.05-.37-.37-.37-.56-.38-.38-.93-.18-.37-.37v-.75l.18-.93.19-.75-.19-.18-2.61.18-1.49-.37-1.3-.56-2.05-1.31-1.12-.55-1.31-1.31-2.23-.37-.75-.56-.93-1.12-.93-.74-1.12-.38-2.05-.37-3.17-.56h-1.12l-1.86.19h-1.31l-2.23-.19-1.31-.37h-2.42l-1.31-.19-.74-.18-.56-.38-1.12.19-.75-.37-.74-.56-.75-.19h-.93l-.37.19h-.19l-.18-.75-.93-1.12v-.56l-.56-.56-.19-.55v-.75l.37-1.49.75-1.31.56-.37.18-.37.75-.56.37-.56-.18-.74-.38-.94-.37-.93.19-.56.37-.75.56-1.49v-.37l-.19-.37-.18-.75v-.93l-.75-1.49-.37-.75-.56-.37-.75-.19-.56-1.11-.74-1.12-.56-.93-.19-.38v-.93l-.37-1.12-.37-.56-.38-.37-.18-.74-.19-.19-.93-.19-.75-.56-.37-.56-.19-.56-.18-.37h-.56l-.38.37-.74.19h-.37l-.56-.19-.19-.37-.56-.37-.74-.93-.56-.37-1.31.18-1.3.37h-.56l-.75-.18-.56-.56-.56-.37-.56-.19-1.49-.75-.93-.56v-1.11l-.37-.75-.93-.19-.93-.74-1.31-.37-.75-.38-.74-.18-.19-.38v-.18l.38-.38.37-.37v-.37l-.19-.37-.74-.38-.94-.18-.18-.56-.56-.56v-.38l.56-.37.37-.18.19-.38-.38-.37-.18-.56v-.93h-.37l-.94.19-.74.18-.56.19-.37.37-.56.19-.75-.19-.75-.18h-2.61l-.37.18-.74.38-.56.55-.19.75.37.93-.37 1.68-.56.74-.93 1.12-.56.38-.93.18-.93.38-1.87.37-2.05.18-.56.19-.56.75-.37.74-.18.56-.56 1.68-.38 1.49.38 1.86.18 2.05v.75l.56 1.12.19.56-.19.93-.56.75-.56.93-.37.37-1.12.19-.93.18-1.12.75-.93.56-1.31.74-.56.19-.37-.37-.18-.75-.56-.37h-1.12l-1.68-.38h-1.12l-.74.19-.94.19-1.67-.38-.93-.18-.75-.19-1.68-.74-2.23-.93-.75-.19-.56.19-.19.55v1.12l-.37.75-1.49 3.72-.93 2.61-1.12 2.43-.37 1.68-.75 2.23-.75 1.49-.18.75-.19.37.19.56 1.12.37 1.12.38.18.18.19.56v.94l-.19.74-.37.75-.37.18h-.38l-.74-.37-.56-.37-.56-.19-1.12.19-1.3.37h-.38l-.56-.19-.74-.37-.19-.93-.74-.56-.75.56-2.24.56-2.6.93-1.68.37h-1.87l-1.11.38-.75.18-1.68.56-1.49.19-.93.74-.56.56v.38l.37.37.56.19h2.24l.93.37.93.18.19.38-.19.37h-.56l-.18.18.18.38-.37.74-.19 1.31.19 1.12.19 1.11-.19.56v.75l.37.56.37 1.12.57.56.74 2.23.56 1.31.37 1.49-.18.75v.37l.55.37.19.75.19.56v.37l-.19.19-1.3-.38-.93.56-.94.37-.18.38v.37l.74.37.75.37v.38l-1.12.19-1.49.55-.37.75-.38.74v.38l.19 1.11.19 1.31.37 1.3.18.38-.37.18-.18.19.18.75.19.74v.19h-.19l-2.79.19-.56.18-.56 1.12-2.43.75-1.3.37h-.37l-1.31.74-3.54 1.68-1.68.93-.93.56-.74.38v.56l-.19.37-1.87 2.23-1.49.19h-1.12l-.93.19-1.12.37-2.6-.19h-.94l-1.67-.18h-.75l-.56.56-1.12 1.67-.37.38-.19.37-.18.74-.38.94-.56.74-.37.56-.56.56-.74.56-.56-.93-.38.19-.55.37h-1.31l-1.12.74h-1.68l-.18-.18-.37-2.05-.19-.75-.37-.37h-.19l-2.42 1.49-1.12.37h-.93l-1.31-.37h-.18l-.19.37-.19.19.38.93v.19h-.57l-.74.18-.75.37-1.67 1.31-1.49.56-1.31.19-.56.18-.37.19-.37.56-.56 1.12-.19.37-.19.37v.37l.38.56.37 1.12v.19l-.37.56-.38.37-.93.19-.74.18v.56l-.19.93v.75l.56 1.3.56.57.37.55.19.19-.19.37-.56.19-.19.37v.38l.19.37.19 1.12.56.93.56.37.74.37h.56l.37-.74.56-.56h1.31l2.05.56 2.05.93.56.56.19.56-.57 1.3v.93l.19.75.38.75.37 1.12.18.93.19.18.19.38-.38.93v.74l.19.38.56.37.93.93.19.56-.37.37-.56.56-.75.38-.37.18-.37.19-.57-.37-.37-.38-.56.19-.93.37-1.68.75v.18l1.12.94.19.18.18.19.56-.19h.75l.74.19.57.37.37.19h.56l.93-.38.74.19 1.87.56.19.37.37 1.49.37.19.93-.37.93.18.75.38.75.56.37.37.37.74.19.75.18.75v2.05l-.37.37-.18.56v.37l.37.19.56.18.37.19.37.37.38 1.12.18.19h.75l1.12-.19.93-.37.56-.19v1.12l.74.56.75.37.37.19.93.56 1.87.56 1.68.37 1.49.37h2.23l.75-.18.18.18.19.19h.37l.56-.19.56-.18.19.18.19.19-.38 1.49v.56l.56 1.12.75 1.86.56 1.68.37 1.12.56.56 1.49.56 1.49.37.75.56.93.56.56.37.37.56v.75l-.37.37-1.68.93-.19.37v.38l.38 1.3.18.75v1.49l.19 1.49.56.74.37.38.37.37.56.56.38.37.37.19v.18l.19.38v.56l-.19.56v.37l.37.18.37.56.19.75v.56l.19.56v.56l-.19 1.3v.56h-.37l-.37.19-.56.93-.56.19h-.75l-.74-.38-.56-.56-.19-.37v-.56l-.37-.37-.56.19h-.93l-.93.18-.19.19v.19l.19.55.18.56.19.93.18.75v.19l1.68 1.86.37.37.19.19-.19.75-.37.74.19.56.37.75.56.56-.37.56-.38.74.38.37-.19 1.12.19.19h.74l.37-.37h.38l.37.18.19-.93h.37l.56.19 1.12 1.48.93 1.31.18.19.19.19.93.74.56.37.93-.18h1.12l.75.37.37.37 1.31 1.12.74-.19.38.38v.74l-.19.75.19.37h.55l1.31.56 1.12.37.56.19.56.19.55.55 1.12.75 1.12.56.19.56.37.74.37.56h.56l.75-.56 1.49-2.42 1.86-.37 1.87.18 1.68.38.37.74.37.93.19.38.56.37 2.42 1.3 1.3.94 1.87 1.49 1.3.56h1.31l.56.56 1.12 1.12.93 1.3 1.12 1.12h.74l.93-.37 1.31-.56.74.37.75.19.19.74.37 1.12.56 1.12.74.37.75.75.56.37 1.49.93.37.37.19.19.56.19.18.18h.56l1.87-.56.56.19h.18v.19l-.37.93-.19.93.19.56.93.19 1.68.18h2.24l.74.56.75.75.74 1.49.19.56.37.18.56-.37.19-.56v-.74l.56-.38.19.38.55.56.93.56.56.37.75-.19.19-.18.37-1.12.56-.19h.74l.19.37.19.38.93.18.74.38.75.37 1.12.74 1.3.19H122.28l1.49-.56H125.26l.75.19-.19-.38.19-.18.18-.19 1.12-.18 1.31-.38.56-.37.37-.19.56-.37.37.19 1.12.37.37.37.19.93.18.38-.18.93-.56 2.24v.93l.56.56.56.56.56-1.5.56-.55.74-.56.56-1.12.93-1.12 1.12-1.3.75-.94.37-.37 1.12-.56.74-.18.56-.75.75-.37.74-.19 1.12.19.93.18 1.12.38.19.18-.19.56-.18.37v.19l.18.19 1.12.18 1.31-.18.74.18 1.68.38.56.18.37.38.56-.19.56-.37.74-.38.38-.18.37.18.56.38.93.37 1.12.37.19.19V257.1h.74l.93.19.75.18h.56l1.12-.74h.37l.56-.19.37-.19.19.19h1.12l.74-.19.56-.37.93-.56.19-.37v-.37l-.19-.19-.18-.19.18-.37.38-.37 1.49-.75 1.3-.93.75-.75.37-.93.37-.93.38-.37 1.12-.19 2.6-.37.75-.37 1.31-.56.56-.56.37-.56v-.38l.93-.18.56-.75.93-.93 1.49-.56 1.31-.93h.55l.56.56.19.37v.38l1.68.18h.37l1.31.38 1.11.55.56.19h.38l.37-.19.19-.55.37-.19.19-.19v-.56l1.67-.93 1.5-.75 1.3-.55.37.18.56.37.56 1.12.37.19.75-.19.19.19-.19.37-.56.38-.75.56-.56.18.19 1.12v.37l.19.19 1.68-1.12.74-.19.19.19.18.74.56 1.12.37.75-1.67 1.49-.56.75v.37l-.37.56.37.37.37.19h.19l.37-.38 1.49-.56h.37l1.12.94h.38l1.3.18.93-.18.56.18 1.31.94.18.18.38-.37.56-.93.55-.56.19-.38.19-.55h.56l.56.18.37.19.18.74.38.38h1.12l.37.37.74.93.38.38.18.37.19.74.19.94.93 2.79.37.56.19.56h.37l.37-.37.19-.56.37-.19.37.19.94.37.37.37.19 1.31.18 1.68-.18.56.37 1.3.19 1.68v2.61l-.19 1.49-.37 1.3.18.93-.18.38-.75.37-.19.37.19.56.56.94v.37l-.19.37h-.56l-.74.37-.56.94-.75.93-.18.18-1.12-.18-.19.18-.37 1.49-.37.56-.56.56-.38.19-.37.18h-.93l-.37.75-.38 1.12-.18.74.37.94-.19.18-.37.19-.93.37-.37 1.31v1.3l.18.56.56.19.38.37.18.56.19.74-.19.94-.93 1.3v.75l.56.18h.37l.56-.37.75-.56 1.67-.74 1.68-.38h2.42l.56.19.19.19 1.68-.38h.56v.19l-1.12 1.12-.37.56.18.56.38.56.56.55.37.94-.37.93.18.37.37.38.19.55v.75l-.19 1.12 1.68.56 1.49.18h.94l.74.38.37.18.38.38v.37l-.38.37-.74.93-.37 1.12v1.87l-.75 1.11-.37.75-.19.93v.56l.37.19h1.49l1.68.18 2.05.38.75.18.37.38-.19.74v1.31l.38.55h.56l.56.38v.37l-.19.56.37.37.19.19.56.19 1.12-.38.93.19.74.19h.56l.75-.38 1.3-1.3 1.68-.75.37-.18h.38l.18.18v.19l.19 1.12-.19.18.56.38-.18 1.11.18.19.19.38v1.11l.19.19.37.19 1.3-.38.93-.18.38.37.37.19.37.18h.56l.38-.37.18-.19v-.18l-.37-.38-.38-.37.19-.56v-1.3l.19-.75-.19-1.49v-.56l-.37-.37-.75-1.12-.18-.56-.19-.56v-.37l-.19-.37-.18-.38.37-.37.56-.37.19-.75.18-.56.37-.18h.38l.74.93.94-.56h.74l.56.37.19.19.56-.19.37-.56.56-.74.74-.94.19-.55.19-.19.37-.19.37.19.75.37 1.12.37.93.56.37.56.56.56.37.19h.19l.75-.37.37-.56V305l.56-.37.56-.74.37-.38.19-.18.37.18.93 1.49h.19l.18-.18.56-1.12.37-.37h.19l2.42 2.23h.19l.19-.18.18-.38.19-.74.37-.75.75-.37.74-.19.19.38.56.56h.56l1.3-.75.56-.19h.93l.38-.37.56-.56.18-.93v-.75l.38-.37.37-.19.74-.37 1.68-.74.37-.38.38-.18.74.37.75.56.37.56.38.56.18.37 1.12.37.93.56.56.56h.37l.56-.18.37-.38h1.31l.19.19.56.74.37.19h.56l.93-.37.75-.19.74.37 1.31.94-.38.56-.18.74-.75.37-.37.19-.19.56-.18 1.12.18.37.38.19.37.37v.37l.18.93v1.5h.19l.37-.19.56.19.75.18.37.37h.37l.38.19v.56l.37.37 1.12.75h.74l.75.93.74-.37.19.56 1.49-.19 1.12-.37h.37l.94.74.56.56.74-.18.75-.38.93.19.37-.75.19-.56h.37l.19.19.55.56.56-.19.19-.37-.37-.56v-.93l-.19-.56h1.12l.19.19-.19.56.19.37.55.37.56.75.19.18h2.24l.56.38.37.37-.37.56v.37l.56.19.55-.19h1.12l.75-.37.93-.37-.19-1.5h.38l.18.19.94 1.31h.37l.18-.38.56.75h.94v.93l-1.31.38-.19 1.11-.55.75.18.74-.37 1.31.19.37.37.37.37.38.19.74v.75l.56.93.74.37.19.38.19.37h-.56l-.38-.19v.56l.56.56 1.49.37 1.87-.37.93-.56.37-.56.38-.37-.19-.56-1.68-1.31.19-.55.37-.19v-.37l-.18-.38-1.5-.18-.18-.93.18-.75 1.31-.93.37-.37.19-.56.18-.93.19.18.19.93.37.19.56-.19.74-.56.94-.93.93-.19 1.12-.18.18-.75h.38l.37.19h1.86l.56-.37 1.87-.19.74-.56.19-.37.56-.56h.93l.37-.56.19-.75.74.19.75.19.74.56.94.18.37-.37.37-.19-.18-1.12-.19-.55h.37l.38.18v.37l-.19.38.74.56.75.37.37-.37.19-.38.56-.37.74-.37.94.56.37-.38.19-.18.37-1.68.56-.74.56 1.11h1.12l.55-.56.19-.18.56-.19.37-.18h.19v-.38h.37l.19.19.19-.75.18-.37-.37-.56V305l-.56-.93-.37-.37-.19-.56-.75-.56v-.56l.94-.18.18-.56-.18-.56.56-.38.93-.18-.19.37v.93l.19 1.12.37.56.74.56.75 1.12.94.74.74.19.19-.37h.37l.37-.19h.56l.37.19h.19l.75-.38h.55l.75.56h.56l-.19-.74.37-.38.19-.37.37-.56.56.19.38.93.93.19.37-.19.19-.56.74-.18.75-.56.93-.38.75.38.74.56h1.12l.19-.56.37-.38.56-.37 1.12.37.74.19 1.87-.75.74-.18.56-.19v-.37l.37-.19.75.38h1.12l.37-.56.19-1.68.37-.37h.75l.37-.56-.19-.38-.56-.18.75-.19.56-.19.74-.55.56-1.87.93.19.56.37.56-.19.56-.37.56-.56h.37l.19.75.19.37.37-.37.37-.94v-.37l-.18-.18.18-.38 1.12-.18.37.18.38-.93.56-.74h.93l.56-.94 1.3-1.12v-.74l-.18-.56-1.31-.19-.37-.37v-.37h1.49v-.75l.56-.55h.93l.93.37 1.12-.19 1.31.19.74-.37.56-1.12-.19-.38-.56-.18v-.38h.56l1.12-.56.75-.18.37-.75-.37-1.12.56-.74.37-.19 1.87.19.37-.19-.37-.74-.56-.38-.19-.56.19-.37.74-.18.75.18.74-.18.56.55.93.38.19-.19v-.56l-.75-1.3.19-1.12.56-1.12.19-.93-.19-.75h-1.12l-.75.56h-.74l-.56-.18-.93-1.5.75.19.74.37.37.19h.93l.75-.75 1.12-.93.93-.74.75-.19v-.37l-.38-.38v-.37l-.37-.93-.56-.56-.74-.19-.19-.37-.19-.56-.18-.56.56.38.56.18.55-.37.19-.56.19-.18v1.11l.18.38h.38v.74l.74.19.75-.38.37-.37v-1.12l.37-.93 1.31-1.86.93-.56.56-.93.75-.75.55-.75.19-.74-.37-.93.74-.56-.18-.37.37-.56 1.12-1.31v-.56l-.56-.37-.19-.19.75-.18.56.18.56-.37.74-1.12.56-1.3.37-.19.56-.19.56 1.12h.75l1.3-.93.94.19-.19-.56-.56-1.49-.56-1.12.37-.75.75-.18.37-.38.19-.74-1.12-.75.93.19.37-.38-.18-.55-1.12-.93-.75-.19.38-.56.37-.37h1.12l.56-.19.56.19.55.93h.56l.38-3.36-.19-1.12-.37-.18-.56.18-1.31.94-1.49.18.56-.56.93-.37 1.87-1.86 1.68-.93-.56-.19h-.75l-1.12-.56-1.12-.19-2.23-2.42-.75-.56-.74-.19h-.75l-2.24 1.31-2.42.37-1.12-1.68-1.3.56-.75-.18-.37.18h-.19l.38-.37 1.86-.93h1.49l1.68.37.56-.37.37-.75.56-.93 2.8-1.31.93-.93.93-.37 1.3-.37h.75l.93-.37-.37-1.49-.37-.94-1.12-1.49-2.61-1.49-1.31-1.49-1.3-.93-1.12-.19-1.3-.74-.19-.94-.37-.56-1.87-.37-1.3.56-1.31.56-1.49-.37.37-.19.19-.19.75.19 2.98-1.49 1.12.37 1.3.37 1.49 1.68 1.49.19 1.12-.19h.75l2.79 1.49H419.4l-.19-1.11-.18-.75-.75-.93-.56-.56-1.67-.56-.38-.37-.37-.56v-1.49l-.56-.56-.37-.38-2.61-.93-1.31-.93v-1.12l.38-.74-.19-1.68-1.12-2.05-1.12-2.61-.93-1.31v-.74l-.74-1.49-.75-2.99-.56-1.11-.56-.38-2.05-1.3-1.68-.38-1.67-.93-1.31-1.3-.74-.37h-1.31l-.18-.94.37-1.49 1.12-1.12.74-1.86.93-.56.56-1.12 1.12-1.12.75-.18.37-.37.56-.38.56-.56.37-.56.19-.55 1.49-.75.56-.56-.19-.19-.74-.18-.75-.94.19-.37.56-.56.74-.18h.56l.19.37-.19.74.19.38.37.18 1.12-.56.93-.18.37-.37v-1.68l.38-.75.56-.37.55.37.38-.18.18-.56-.18-.56-.75-.56v-.37h.75l.93.37h.56l.74-.56 2.43-.75 2.05-.93 2.42-1.3.93-.19.93.19.38.37.18.37.19.38.37.18h.56l.93-.93.56-.19v-.56l-.18-.18-.38-.56.56-.75.56-.37v-1.3l.75-.93-.56-.19-.93.19h-1.31l-1.49-.56-.56-.56-.37-.19-.56.37-.37.56-1.31-.18h-1.49l-1.12-.56-1.11-.56-1.5-.19-1.3-1.3-2.61-1.12-3.36 1.3-.74.19h-.19l.19.37.19.19-1.31 1.3-2.42 1.49V165.21l-1.12.93-2.61.37-1.49-.19-1.49-.56-.94-.74-.37-.56v-1.68l.37-1.49.38-.19.37-.37-.19-.37-.18-.37v-.38l-.19-.93-.74-1.3-1.12-.94h-1.31l-.93.38-4.66-.94-2.24-1.3-.93-1.12-.74-2.05v-.74l.55-1.49 1.31-2.99.75-.56 1.49-.37.93.37 1.3 1.31 1.49-.56 1.49-.56.94.19.74-.19.75.19.56-.19.56-.37 1.49-2.05.37-1.49.56-.94.56-.93 1.86-1.68 2.24-.74 4.47-2.24.94-.37 2.61-3.73.55-.56.75-.37.56-.56.74-1.12.75-.56 3.17.19.56.37h1.12l.37-.19.37-1.11h.19l.18 1.3 2.43 1.68.37.93.93.56-.18.37-.56 1.12v.37l-1.87 2.24-.93.93-.56 1.12-2.61.93-.37.93.37.75v.56h-.37l-.56.19-1.12.74.19.19v.74l-.19.75h2.05l2.43-.19.18.19-.37.37-.93.75-.19.56.37 1.11-3.54 1.5-.74.18-.75.19.19 1.12.37.74h.37l.19-.37.75-.37 1.67-.19 1.31-.37.18-.19-.37-.74.37-.56h.56l.56.18h.56l.37-.37.56-.18.56-.38.75-.74.74-1.12.94-.93 4.47-2.43 1.12-.18.56-.56 1.68-.19.37-.37.74-.38h1.12l.93-.18.19-.56.37-.56.94.75 2.98-.19 1.49-.93.56-.93.18.18.19-1.12.93-.74 1.87-1.49.56-.56 1.11-.75h.38l.56-.18v-.19l.18-.37.38-.19.93-.56 1.12-.56h.93l1.12-.93.37-.37h.56v-.19l.37-.37.37-.38h.38l.93-.18.93-.19.56-.74.37-.56.38-.56.93-.56.74-.93.75-.93.19-.38h.37l.19-.37.37-1.12.18-.93.19-.56.93-.56.19-.19.18-.18.38.18.56-.37.56-.37.37.19.37.18.56.56.19.56.37.37v.56l.37.19.94.18 1.3.38h.75l.56.18.93.19 2.05-.19.74.19.37.37.56.19h.38l.37-.37.56-.75.19-.74v-.38l-.19-.56-.75-.37-.37-.74-.37-.75-.38-.19-.18-.37v-.56l.18-.37.94-.37h4.1l1.12-.19h1.49l.19-.37 1.11-.75.37-.19.57-.56.18-.56v-.55l.37-.38.56-.56.38-.37.55.19.56.18.38.19h.37l.19-.37.37-.19h.56l.19-.37.18-1.31.19-1.11.18-.75.38-1.12.18-.74.38-.38h.37l.37.19.37.19.56-.19.38.19.18.37.75.37v1.49l.56.75.56.56.74.37.37.19.19.37.56-.37v-.56l-.56-.56-.74-.19h-.19l.19-.37.18-.19.37-.37.75-.37 1.31-.19.56-.18.55-.19.75.19.56-.38.56-.19v-.55l.19-.75.18-.37.19-.37.37-.38.19-1.3.37-.75.19-.56v-.56l-.19-.37-.37-.19-.19-.18V98.85l.19-3.17.37-.75-1.12-4.29-.18-1.3-.38-.75-.37-.93-.37-.55.18-.38.38-.56.37-.18 1.3-.19.38-.19 1.49-.37.37-.37.74-.75.38-.56.37-.74.75-.38.55-.74.38-.19.56.56.56.37.74.19 1.12.19 1.49.37 1.68.56.93.19.56.18.93.19.56.19.38.18.55-.56.94-.56-.19-.93.19-1.12.56-1.86.74-.56h.37l.38-.19.74-.37.19-.56v-.56l.19-.56v-.56l.37-.74.18-.19.56-.37.38-.38.37-.55.19-.56-.19-.75.56-.56.74-.37.19-.37.19-.56v-.38l.18-.37-.18-.56-.19-.74.75-1.31.55-1.12.19-1.67.19-.19.18-.75v-.37l.56-.93.56-.56-.18-.74-.19-.75v-.56l.56-.56.37-.18.19-.38.37-.18.37-.19h.94l.56-.37.37-.56.93-1.12.19-.56.18-.37-.37-.94-.37-.93-.56-1.12-.19-.37.37-.74.38-.38.18-.37v-.75l-.18-.37-.75-.74-.93-.38-1.12-.18h-.37l-.75.18-3.17.94-1.49.74-.93.75-.74.37h-2.99l-.93.37-1.3.93-.94.56-.56-.18-.55.74-.75 1.31-.75.56-.74-.19-2.05.19-3.17.37h-2.05l-.75-.56h-1.3l-1.68.37h-.93l-.37-.18-.38-.56v-.94l-.74-.93-.93-.93-.19-1.3.75-1.31v-.93l-.38-.56v-.56l-.74-.56-.56-.93-.38-.37v-.94l.56-.93-.56-.93-1.86-.18-1.3-.19-1.31-.93-2.24-2.61-.93-.93h-.74l-.56-.38-.38-.74h-.93l-.18.18-.38.19-.56-.37h-.55l-.57.18h-.55l-.38-.56-.74-.37-.93-.19-.38-.37.19-.56-.37-.37-.56-.19h-1.49l-2.43.38h-2.05l-1.67-.56-.94-.56-.18-.56-.38-.56-.74-.37-.56-.94v-1.11l.19-1.12.74-1.49-1.86-1.12-.38-.56v-.75l-.37-.37v-.56l.37-.56v-.74l-.37-1.12-.93-1.31-1.49-1.86-.75-1.31-.18-.74-.19-.75-.37-.37-.19-.56.19-.74-.19-.38-.19-.37v-.75l-.37-.37-.56-.37-.18-.37.18-1.12-.37-.93-1.3-1.68-.38-1.31v-.93l-.56-.56v-.56l-.18-.74-.19-.37-.19-.19v-.37l-.18-.56-.75-.38-.18-.55-.19-.38-.19-.37-.93-.19-.16-.24h-47.3z"/></svg>