<svg id="Слой_1" data-name="Слой 1" xmlns="http://www.w3.org/2000/svg" viewBox="0 0 508.42 217.74"><defs><style>.cls-1{fill:#ee2f48}</style></defs><path class="cls-1" d="M1263.8 6351.7c-.78-1.73-3.45-1.78-4.16-3.39-.06-.14.1-2.39.09-2.85 0-.77-.29-2.68-.26-3 .24-3.2 1.27-3.45-2-5.55-.42-.27-1-.19-1.47-.54-.26-.2-.68-.73-1.12-1.16-1.83-1.8-4.35-1.06-4.7-3.12-.25-1.56.8-2.77 1.55-4.08s1.91-2.55 2.34-3.77.07-2.74.52-3.71c.56-1.21 2.72-1.57 2-3.24-1.14-2.6-3.61.83-4.44-2.72-.49-2.11 1.85-7.12-1.21-7.93a25.94 25.94 0 0 0 1-5.36c-.39-1.69-2.82-2.67-3.18-4.87-.28-1.77 0-2.35.23-4.29.34-2.88-1.4-3.14-2.39-5.47-.22-.53-1.87-4.73-1.83-4.83.43-1.13 3.87-1.37 4.7-1.27 2.62.29 4.37 2 5.86-1.31.49-1.08-.06-2.67.23-3.8.52-2 1.47-6.9 4-7.21 1.62-.19 5 3.09 6.68 4.29a13.39 13.39 0 0 0-3.67-5.46 28.73 28.73 0 0 1-3-3.55c-3.7-4.56-7.82-5.17-12.89-4.75-1.72.15-2.34 1.08-4.63.26a31.23 31.23 0 0 1-5.05-2.23c-1.62-1.08-1.35-.94-1.61-2.16 0 0 1.42-.18 1.49-.72s-1-1-1-1.44c-.15-1.72-1.55-3.84-2.13-5.56-.12-.37.59-1.37.54-1.87s-1.74-1-1.67-1.58a2.27 2.27 0 0 1 2-2c0-.07-.18-.57-.2-.51.17-.06.44.22.57.27-.06-3.31 3-4.81 1.65-8.81-1.15-3.5-2.3-5.87-5.17-8.12-1.77-1.38-1.6-1-2.25-3.44-.41-1.55.27-2.54-1.95-3.21-1.59-.49-3 .47-4.26-.06s-.74-2.21-2.9-2a3.51 3.51 0 0 0 2.19-1.8c-2.71-.25-7.41-4.92-8.56-7.24-.85 1.18-1.85 1-2.75-.15.84-.75.93-1.53 1.45-2.45-1.28-.47-4.54-1.17-5.84-.4-1.56.93-1 1.77-1.86 3.24-2.28 3.76-5.82 1.09-9.38.43-1.61-.3-5.18-1.25-6.8-.75s-2.08 2.68-3.72 2.76c-.86.05-2.51-1.62-2.66-2.28-2.38 1.13-3.71-1.18-5.69.15-1.68 1.12-2 2.84-3.58 4a71.69 71.69 0 0 1-10 5.64c-1.73.84-3.23.26-4.7.88-2 .87-3.48 3.12-5.47 4.19-2.65 1.42-4.13 1.11-6.8 2.68-1.54.92-4.13 2.75-6 2.79a6.19 6.19 0 0 1-2.33-.66c-.66-.22-1-1.31-1.72-1.44s-1.22.58-1.76.48c-1.39-.26-2.7-.73-4.33-1.19s-3 .1-4.78-.85c-2.46-1.31-2.12-3.23-5-2.69-1.69.31-2.71 1.47-4.41 1.51-.53 0-1.35-.77-2.18-.74s-2.48 1.1-3.51 1.27c-2.18.37-4.28.21-6.3 1.32-1.24.69-1.85 1.71-3.31 2.07 0 0-1.26-.83-2-.71s-1.77 1.28-2.79 1.54c-2.67.67-4-.48-6.32-.9-3.53-.65-14.32-.21-13.13-6.16a1.8 1.8 0 0 1-2.54-.63c-1.39.93-1.6 3.23-3.07 3.67-2 .59-3.43-1.69-4.91-2.53-1.84-1.05-3.8-1-5.81-1.38-1.09-.21-2.16-.07-3.08-.92s-.34-1.6-1.06-2.8c-1.64-2.72-5.85-4.31-9-4.15-2.8.13-1.2-.1-2.94 1.6-3.93 3.87-4.21 2.54-7.27-.15-1.84-1.62-4.67-3.15-5.32-5.92-.76-3.3.93-4.77-2.24-7.61v.49c-1.73-3.1-3.06-.08-3.33 1.5a5.38 5.38 0 0 1 1.13-3.25c-6.29 3.89-11.66 4.36-17.94.68a9.62 9.62 0 0 1-2.44-2.53c-.32-.41-1.19-1.76-1.93-2.91-1.26-2-1.66-6.9 2.25-5.41-.57-1.13-3.12-.47-4.66-1.26-1.14-.59-.24-1.7-2.6-1.71-.37 4.19-5.13 5.74-8.67 5.44-1.3-.11-2.77-.94-3.94-1-2.21 0-4 .84-6.24.69-4.25-.29-8.55-.58-12.66-.89-3.82-.29-8.66-2.12-12.47-1.39-4.09.79-8.1 4.22-12.2 5.35-1.85.51-4.6.54-6.33 1-2.21.6-4 2.37-6.16 3.49-1.07.55-3 .66-4.58 2-1.29 1.06-1.81 2.55-3.16 3.44-1.64 1.09-4 1.77-5.75 2.78a107.25 107.25 0 0 1-11.27 6.06c-2.91 1.24-1.94 1.44-2.44 3.73-.55 2.49-1.84 4.6-4.53 5.39-6.67 1.95-13.56-.58-20.23-2.19-1.38-.33-3.8-1.66-5.1-1.68s-1 .54-2 1c-3.05 1.3-5.63 1.41-9.35 1.07-5.49-.51-10.73-2.48-16.18-3-3.75-.37-4.55 1.27-5.55 4-.95 2.56-2.36 3.3-1.08 5.2 1.61 2.38 5.51 2.5 6.84 4.91-.2.1-.19 0-.19.26a1.18 1.18 0 0 0-.37-.26c-.22.34-.2.81-.54 1 1.3-.78 2.36-.48 2 .73 1 1.95 8.66.49 11.22.84.94.12 5.09.1 5.23.92.17 1-5.62.78-7 1.05a15.6 15.6 0 0 1-3.65.06c-.31 0-.87-.62-1.4-.62s-1 1.08-1.68 1.29-.9-.32-1.75-.11c-3 .71-7.25.65-10 1.73-1.51.59-5.43 2.82-6 4.36 1.4.26 2.4 1.47 3.67 1.72s1.76-.21 2.51-.16c1.75.12 2.93-.17 4 1.59-2.15 0-1.16 1.58-2.52 2.21-2.09 1-3.11-.23-4.92-.57-2.51-.47-3 .1-5.3.35-1.61.17-4.09-1-6-.06.33-.33.3-.45.75-.73-3.25.39-6.59-.49-9.88.13-1 .2-7.07 2.41-5.55-.43 1.15-2.14 5.16-1.55 1.1-3.4-2.06-.95-4 .12-5.35-1.16-4 1.27.84 5.17 3.34 5.35-3.19 2.8-3.58 1.87-7.14 2-3.41.12-6.12.77-8.81-2.71a.25.25 0 0 0 .24-.17c.59-.21.8-1.53-.44-2-.11 0-4.19.43-4.53.54-2.3.74-2.35 2-5 2.15-1.66.09-3.91-1-5.67-.17-1.34.67-2.8 3.12-3.89 4.26-1 1-3 1.91-3.79 2.83s-1.27 2.56-2 4c-1.88 3.42-4.71 2-5.86 5.31-.66 1.93-.25 4.79-.25 6.71a10.93 10.93 0 0 1-.81 5.07c-1 2.63-1.95 4.34 1.15 4.86 2.46.41 5.93-1.34 8.32-2.19 3-1.07 6.82-1 9.75-1.47 1-.16 2.29-1.19 3.26-.14 2.31 2.49-4.62 4.12-3.41 5.89-1.52 1.14-3.68 2.33-3.9 4.07-.27-.5-.63-.29-1-.5.15-.36.39-.17.52-.57-.76.29-.71.44-1.24 1.32 3.36.78 2.56 1 4.39 3.56.7 1 3.08 1.43 2.92 3.19-.07.81-1.61 1.38-2.32 2.06.12.09.48-.07.58 0a2.07 2.07 0 0 0 .28 2.84c1.3 1.36 1.58.1 2.82.16 1.4.08 3.84-.37 3 1.52.87 1-1 .94-2.23 1.64.3 1.22.08 1.73-.57.49l-1.1.48c.35.35 1 1 .93.94a7.74 7.74 0 0 0 0 1.18c-.41.28-.38.13-.76.71-1.8-.8-6.76-.38-4.07 2.36a8 8 0 0 0-.92.47 4.45 4.45 0 0 1 .92 1.2c1 .52.7-.19 1.09.71 1.83-.79 1.18 1.86 2.61 3.08a15.79 15.79 0 0 1-1.48-.75c1.18.92 2.81 2 2.72 3.27a11 11 0 0 1 6.19-.64c-1.24 1.87-8.66 3.29-10.76 3.08-.26-1.21-.75-2.33-1.52-2.2-1.71.28-.44 2.12-.79 3-.23.58.7 1.93-.78 0-.9-1.16-.28-2.2-1.75-2.7a4.62 4.62 0 0 0 0-1.45c3.43.51-1.11-6.07-2.6-6.92-4.69-2.67-3.39 2.84-3.32 4.35a2.07 2.07 0 0 1 .5 2.79c2.13-1.64 4.52 2.41 1.72 1a1.72 1.72 0 0 1-1.85 2.85c0 1.33-.91.89-1.86.23a8.13 8.13 0 0 0 .18-1.41c-.32.1-.26.47-.36.68l-.38-.41c.18.72-.17.87.38 1.61-.87.71-.85 1-1.87.94.09 1.22 3.43 3.26 4.1 1.17.11 1.17.43 1.26.92 2.11 0-.21-.23-.48-.18-.7a3.7 3.7 0 0 0 2.76 1.4c.06 1.21.41 1.38 1.3 1.91v-.72c.19.47.58 1 .74 1.41.42-.65.4-.55.38-1.41.05 0 .4.14.37.22-.44-3 4.51-3.73 4.15-.91 2.1-.08 1.65 3.19 2.63 4.46 1.82-2.71 4.68.25 6.35 1 1.23.53 3.47.62 4.11 1.58.93 1.39-.48 2-.5 3.22-.06 3.72 1.14 4.71-3.67 6.14-3.45 1-2.26.1.84 1.89 1.3.75 3 2 1.3 2.55a7.21 7.21 0 0 1-.18 3c.66-.46.51-.1 1.21-.35a4.91 4.91 0 0 1-.86 4.06c1 .65 2.29.62 4 .05-.1-.21-.3-.26-.4-.51.94-.76 1.94-2 3.16-.68-3 1.35.54 4.41.93 1.6.77.85.2 2.16-.25 3.11 1.15-.65 1.72-.69 1 .61.45-.25 2.21-1.84 2.67-1.66.94.36-.45 2 .3 2.82-.26.22-.71.5-.93.72l.33-.69c-.6-.06-1 .21-1.62.2a18.91 18.91 0 0 0 .72 2.12c.43-.1.27-.16.57 0-1.36.24-3.6 2.43-3.71.22-1.17-.22-.9-.19-1.5-1-.31.3-.68.21-1.11.73-.09-.75-.27-.49-.55-1 .11 1.46-1 1.55-1.87 1.19a8.14 8.14 0 0 0 1.13.46c-2.16 1-2.09 5.24.37 5.1a2.8 2.8 0 0 1 1.85-2.31c0 .47.15.68.18 1.15.07-.4.32-.74.37-1.15.64-.1 3.25 1.14 4.48 1.84.45-1.2 4.71-.87 6.07-1 2.93-.33 5.67-1.61 8.77-.35.29-1 5.13-1.73 5.94-.55-2 .14-1.69 1.71-3.17 1 .09.85-.21.91-.73 2.08.19-.2-.77-.23-.76-.24.25.47.11.66.21 1.16-.58-1.05-2.06-.89-3.34-.92.18.22.35.22.54.43-.18 0-.79-.1-.93 0s.39.4.39.49c-.21.69-.3-.09-.55 0 1.06 1 .93 1.65-.39 1.83a5.14 5.14 0 0 1 0 .94c1.38.35 1.41.48.55 1.62a10.42 10.42 0 0 0-4.43-.92c-1.28.13-2.46.91-3.48.88s-1.87-.85-2.73-.73-.12 1.23-.88 1.38c-1.08.21-2.51-.11-3.55.28-1.32.5-1.38 2.14-3.11 1.43a3.94 3.94 0 0 0 .38 1.13c.85.05 2.09.63 3 .68 1.83.11 2.94-1.46 5.12 0-.06-4.72 4-3.05 6-2.86 1.4.14 6.26-2.94 6.4-.37-.29-.12-.35-.6-.55-.72-1.16 1.54 1 1.32-.65 2.17 0-.18.06-.36.1-.54a15.55 15.55 0 0 0-3.35 1.27c1.07.74 1.21.5 2-.05.18.89.56.65.27 1.76a2.5 2.5 0 0 0 .75-.66l.38.46a2.94 2.94 0 0 1-3.54 1.39c.34 1.26.47 1.15 1.48.9.89 0 5.7-3.05 5.95-4.84.64 0 .68-.31 1.67 0-.49-.71-1.93-2.41-1.49-3.42.56-1.31 1.4-1 2 0-1 .63-1.52.61 0 .92 0-.12-.22-.63-.16-.72 1.3 1.2 2.61 1.26 3.14-.44-.66-.19-.83-.63-1.3-.84.71-.33 1.53-.75 2-1 .13 1.22-.06 2.05 1.31 2.27a1.83 1.83 0 0 1-.29.5 2.66 2.66 0 0 1 1 .43c.22-1.56 1-1.3 1.87-.21a2 2 0 0 1 .37-.72c0 1.07-.22 2.68.35 3.93.65-.14 4.1-.59 4.45 1.63.91 0 .87.29 1.48.69-1 1.88 1.82.37 1.13-1.38a2.92 2.92 0 0 1-.2 1.38c-.92-.78-.76-1.89.57-2.32.06-.73.46-.9 1.12-1.74.8 1.48 5.68 2.33 4.32 4.29-.1-.17 0-.58-.06-.69-1.9 1.09-1.43 1.74-2.22 3.23a14.76 14.76 0 0 1 2.72-.16 8.5 8.5 0 0 1 .08 3.11c-.18 1.25.91 1.51-.58 2.32.84.26.44.34 1.31.46a2 2 0 0 0 0 .93c3.49.36 4.22 4.84 7.23 2.74 0 .44.2.82.23 1.23a30 30 0 0 1 5.52 1.05 2.53 2.53 0 0 0-1.09.46 2.88 2.88 0 0 1 1.61.25c-.13.26-.3.26-.52 0a9.13 9.13 0 0 0 1.31 1.82 2.2 2.2 0 0 1 2.79-1.15 5.16 5.16 0 0 1-.37.7 4 4 0 0 0 1.66-.94h-.55a4.41 4.41 0 0 1 .74-.68c2.06-.78 4.3-.84 6.12-2.05-.11-.08-.43-.13-.58-.25a10.58 10.58 0 0 0 2.44.25s.17-.88.17-.92c.18.32.16.5.37.67-.28-3.06 7.85-2 6.88 1.61.92-.9 1.5-1.84 2.42-2.74-.41-.17-.18.07-.58 0 .52-.49.83-1.32 1.44-1.8-3.23-1.75 1.82-5.85 1.73-8.53-.93-.48-.74-5.06-.25-6.5a4.94 4.94 0 0 1 1.47-2.36c1.74-1.22 1.15-.29 2.66-.21 1.79.08 4 .21 5.92.32a35.81 35.81 0 0 1 14.52 4c3.28 1.55 6.38 3.34 9.32 4.9 2.62 1.39 4.69.94 7.08 3.28 2 1.92 3.38 4.65 5.12 6.87s3 4.25 5.89 5.87a32.23 32.23 0 0 0 5.42 2.34c2.9.92 3.12-.38 5.4-1.34 2-.85 3.44.42 5.26 0 .61-.14.63-1.3 1.09-1.42s1.27.09 1.65 0c2.6-.63 7-1.74 9.62-.64-.06.54-.16.08-.36.46 1.61-.28 3.45-3.9 4.27-.2.36-2.19 3.67-3 3.33-4.36 1.55-2.25 4.68-1.08 3.53 1.81a8.2 8.2 0 0 0 1.53-2.43.38.38 0 0 1-.25.15c.7-.9 1.86-.9 2.43-1.81.37-.6-.4-1.57-.07-2.18s1.1-1 1.69-1.71a40.28 40.28 0 0 1 7.19-6.9c2.41-1.78 3.76-3.69 6.5-4.64 2-.71 7.26-.83 7 2.53 3.09-1.33 7.75 3.56 10.22 4.69 1.95.89 1.09.75 2.89.53 1.56-.18 1.76-1.67 4-.6a10.62 10.62 0 0 0-1.42-.54c1-1.08 2 .7 3.67-.06.76-.35 1.29-2.78 2.21-3.56a7.66 7.66 0 0 0-2.36 2 3.4 3.4 0 0 1 2.73-2.46 5.18 5.18 0 0 1-1.65-.44l-.39.21a2.84 2.84 0 0 1 0 .92s-.22-.59-.38-.43a2.91 2.91 0 0 1-1.09.91 3.06 3.06 0 0 1 .74-1.85 6.52 6.52 0 0 1 .18.68c1.11-2.08 4.58-1.78 6.5-3.23 2.1-1.58 3.2-4.35 6.05-3.09 4.89 2.15 4.4 8.69 1.3 11.22-1.92 1.57-4 3-5.66 4.58-.78.75-3.32 3.12-3.46 4.2s1.92 3.48 2.44 4.35c2.36 4 3 4.91.9 8.82 2.56-1 1.34.85 2.49 1.61.08.05 3.44 1.31 3.23 1.34 2.1-.32.3-1.48 1.55-3.36.68-1 1.68-.92 2.46-1.26-.83.36 2.38-1.91 2-1 .73-1.61.69-5.83.4-7.38l.31-.32c1.08 1.23 4.21.59 5.71.32 3.06-.55 2.84-3.58-.16-3.84.92-1.25-.08-1.22-.34-2.1-.78-2.61-.35-2.23 0-4.59.41-2.78 2.16-7.35 2-9.93 3.42.56 8.43 1.4 10.27 4.43.5.82-.73 1.52.39 2.28s.72-.59 1.41-.53c1.34.12 2.84-.53 4.23-.48 4.36.13 4.59 1.17 8.49-1.08 2.65-1.53 5.48-1.8 8.29-2.87 6.11-2.33 9.67-6.26 16.47-2.78 2.56 1.32 3.87 4.2 6.5 5.32s5.4-.16 8 0c2.39.17 4.35 1.33 6.81 1.19a70.79 70.79 0 0 0 12.7-2.42 51.51 51.51 0 0 0 15.32-6.85c4-2.71 9.51-5.46 14.37-5.9 3.56-.31 6.53 1.14 10 1.58a31.71 31.71 0 0 0 8.9-.52c4-.67 9.49-1.39 13.14-3.11 2.44-1.15 3.49-3.64 5.61-5.09.27 1.85 1.71 1.15 2.56 2.05 1.67 1.75.8 3 1.38 5.23 5.75-.6 5.51-2.32 8.82-6.52 2.77-3.5 2.1-1.22 5.8-.76 1.87.24 2.55-1 4.25-1.28 2.46-.37 2.93.8 5.31 1.56.92.3 1.4-.43 2.18-.15 1.55.55 2.89 2 4.39 2.59 1.87.68 5 .47 7.22.56 1.29 0 .92.64 2.2.37 2.34-.49 2.69-2.95 5-3.38s6.52 1.71 6.09 4.55c-.3 2.06-3.76 3.24-.67 6.18 1.55 1.47 1.33.66 2.59 0 .47-.25.21-1.07.57-1.37.75-.6 2-.62 2.89-1.14 2.42-1.48 5.61-6.15 8.62-2.31-.31-2.67 2.14-5.47-1.22-6.82" transform="translate(-757.7 -6184.82)"/><path class="cls-1" d="M766.91 6238.17c.81 0 2.44.43 3.2.31 1.66-.27 4.27-1.88 6.31-1.66 3.35.36 3 1.52.86 3.47-.77.7-2.75.92-4 1.49a63.88 63.88 0 0 0-6 3.65c-1.4.84-3.73 1.85-4.76 3.11.41.64 1.65 1.71 1.65 3 0 1.9-1.8 3.18-2.18 5.05-.22 1.05-2 1.51.37 1.28 1.38-.13 3.74-2.34 4.65-3.37-1.8-1.74 1.12-2.86 2.58-4a17.94 17.94 0 0 0 4.15-4.33c2.76-4.09 8.46-5.85 12.66-8a18.81 18.81 0 0 0 6.74-5.5c2.8-3.3 3-7.38 7.33-8.22a12.87 12.87 0 0 1 5.52-.13c1.21.26 1.75 1.67 3.42 1.12.78-.25.78-1.66 1.62-2.25a10.69 10.69 0 0 1 3.79-1.58 14.93 14.93 0 0 1 8 1.26c1 .52 2.2 2.71 3.25 1.47.69-.82-.25-2.41-.75-3 1.61.36 1 1.5 1.55 2.25 1.34 1.83.14 1.19 2.72 1.71a8.94 8.94 0 0 0 6.43-.73c1.25-.66 5.64-3.4 3.19-6.07 5.65-2.33-2.28-3.2-3.58-3.67-5.55-2-13.77-5.25-18.3-9.08a17.05 17.05 0 0 1-4.9-7c-.51-1.24-2.59-3.81-2.3-5.17.43-2.06 1.71-.57 2-1.92.63-3.45-7.54-4.17-6-1.64-1.23.7-2.89-.61-4.6-.29-1.09.2-1.62.82-2.64 1.34.12.48.07.23.32.64-4.07-.76-5.54-6.84-9.87-6.39-.45 0-.68.66-1.47.74s-1.22-.71-1.75-.63c-1.89.29-2 1.65-3.5 2.66a14.67 14.67 0 0 1-3.54 1.47c-1.12.3-3.78-.58-5.3-.12-2.27.69-1.35 1.71-1.88 2.86-.29.61 0 1.45-.49 2-1.2 1.35-2.83 0-4.13.66-3.47 1.73-1.19 3.18.38 4.34.64.47 1.67.82 2.07 1.14a19.54 19.54 0 0 0 2.77 2.67l.52-.78c.14 1.41 2.06 13.34-1.5 9.39A13.73 13.73 0 0 1 769 6214c-.53.35-3.28 1.25-3.42 1.44-.61.83.28 4.36.36 4.86.06.31.22 2.23.22 2.64a3.06 3.06 0 0 1 .65 1c.09.54-.91.3-1 .59-.17 1 .83.79.26 1.6-.78 1.11-1 .27-1.13 1.55-.48-.2-.72 0-1.18-.41-.62 1.6-.42.66-.92.76-.31 1.59-2.51 6.21-5.22 5.86.35.41.39.92.68 1.33-.58 5.22 5.08 3.16 8.53 3" transform="translate(-757.7 -6184.82)"/></svg>