<svg data-name="Слой 1" xmlns="http://www.w3.org/2000/svg" viewBox="0 0 353.91 385.52"><path d="M353.91 129.91c-1.12-1-.48-2.09-1.19-3.19-.87-1.35-2.06-.87-2.93-1.26-1.31-.58-1.49-1.11-3-2.37-1.93-1.63-3.05-1.09-3.32 1.34a3.94 3.94 0 0 1-.73-2.61c4.3-1.76-.28-4.79-1-6.73-.59.4-1.34.42-1.89 1-.91-2.34 2.3-1.68 1.43-3.35.46.89-1.86-.32-1.67-.25-.31-.11-.1-1-.41-1.14-.54-.18-1.19.15-1.73.07a11.68 11.68 0 0 0-3 .3c-.31.15.18 1.29-.34 1.52a9.68 9.68 0 0 1-1.6-.24c-.82.66-.79 1.22-1.53 1.76a6 6 0 0 0-.25-.88c-.83 1-1.86.22-2 1.85-1.19-.54-2.61-1-4-1.61a6.65 6.65 0 0 1 .41.62c-.65-.4-1.79-.28-2.29-.59s-.53-1.61-1.37-1.79a7.34 7.34 0 0 0-4.07 1.8c-1.06 1.5.15 1.88-1.9 3.26-.94.63-2.73 1.33-3.41 1.72-2.63 1.53-6.46 1.55-8.77 4-1.1 1.16-1.4 2.47-3 3.49-.8.52-2.48 1-2.91 1.58-1.23 1.58.56 1.18-.24 2.6-.58 1-2.79 2-3.49 1.43-.13.21-.16.53-.3.72-.43.14-.23-.31-.47-.4a5.38 5.38 0 0 1-.31.64 12.89 12.89 0 0 0-.78-1.09c-.48 2.3-4.42 1.1-6.08 1.41-1.85.34-2.44 1.7-1.27 3.43s1.79.4 3.16.89 2.15.26 2.09 2.5c0 .64-.93 1.34-.95 2.17 0 1.32 1.74 1.57.81 3.16-.82 1.39-2.25-1.4-2.13.93-.21-.34-5.48-.55-6.07-.54.14 0-1 .88-1.23.93s-1.42-.38-1.81-.36c-2 .09-4.24.86-6.33.31-2.28-.61-2.4-1.8-4.55-1-1.61.59-1.73 1.71-4.1 1.88a34.31 34.31 0 0 1-3.55-.08c.16-2.18-3.66-1-4.66-1.25-1.83-.52-3.2-2-4.37-1.8.26-1.59-1.51-2.33-1.4-3.09.19-1.32 1.7-1 1.72-2.07 0-.34-1.35-1.31-1.5-1.91-.31-1.23.4-1.65.66-2.81.48-2.1.83-5.77-2.34-5.9-1.07 0-5.93 2.43-6.19 3a7 7 0 0 1 .14 3c-.4 1.22-.76 2.22-1 3.23-.5 2.23-.63 3.58.18 5.46 1.16 2.74 1.83 3.69.41 6.72-1.27 2.7-1.24 1.48-3.17 1.22-2.25-.29-9.49 3.08-9.46-1.93-1.31.76-2.39 1.91-3.76 2s-3-1.51-4.57-2a14.91 14.91 0 0 0-2.53-.26c-.77-.1-1.26-.55-2.05-.58-1 0-1.24.87-1.91.65-2.45-.8-.31-3.49-3.62-3.12-2.41.27-1.9 1.24-4.28.31-1.08-.41-1.85-1.46-3.2-2.22a14.07 14.07 0 0 0-1.71-.43c-2.36-1.69-.25-.31-1.22-2.26-1.23-2.48-3-2.9-5.63-3.7-.28-.08-.39-.64-.83-.74-.89-.2-.17.42-1.18.5a18.12 18.12 0 0 1-2.36.27c.46.7.16.82.25 1.22a15.49 15.49 0 0 0-3.21-1.53 2.93 2.93 0 0 0-2.65.64c-.37.09-.6.89-1.36 1 .57-.07-2.8-1.49-2.64-1.44-.67-.21-3.1-.32-3.5-.7-.68-.64-.1-2-.77-2.55-.87-.68-2.05.39-3.12.17-1.29-.26-2.31-2-3.53-2.51-2-.83-2.27 0-3.95-.31-1.39-.24-3.1-2.29-4.36-2.9a12.59 12.59 0 0 1-2-1.08c-1.49-1.42-1.58-2.73-3.64-3.66-1.59-.72-6.2-5-6.05-1.81-1.2-.93-4.16-2-5-3.56-1-1.93 1.07-3.45 1.81-4.78a7.49 7.49 0 0 0 .31-2.17 9.9 9.9 0 0 1 .47-2.41 30.55 30.55 0 0 1 1.93-4.15c1.3-2.42 4.25-3.49 5.37-5.93 2.83 1.56-.84-1.95-1.94-2.54-1.58-.86-4.78-2.69-6.59-2.36a6.34 6.34 0 0 1 .55-2.19c-.57-1.21-1.26-.7-2.19-1.29-.56-.36-1.94-2-2.55-2.19-1.39-.44-2.48.48-3.68.12-1.38-.42-6.38-9.24-6.71-5.19-.27-.06-.47-.34-.7-.49-1.16 2.57-2.15-.14-2.06-1.45v-1.25c0-.33.63-.69.57-1.27 0-.39-1.06-.83-1.21-1.48-.21-.89.62-1.73.43-2.66-.25-1.26-1.27-1.91-2.17-3.23a6.46 6.46 0 0 1-1.49-4.32c.16-2-.85-1.11 2-1.7 2.26-.48.56-.94 1.76.14 1.76 1.58 1.54 3.76 4.32 2.44.21-.1.22-1.17.67-1.44.26-.16.93-.09 1.07-.19.72-.55 2.76-.88 3.16-2.51.32-1.31-1.5-3.87-1.88-5-.21-.63.71-1.21.48-1.72-.36-.78-1-.14-1.62-.6-1.2-.91-1.52-.59-2.47-1.43s-3.51-5.68-.49-4.84c.33-1.73-2.17-4-1-5.48 1-1.31 5.12.19 6.75-1.37 1.29-1.24-.12-3.72.82-5-.54.72 2.49-.61 2.34-.51-.84.54 1-1.55.92-1.5 1.46-1.58 2.93-1.22 3.8-3.77.71-2.1.75-4.7 1.63-6.64s1.9-2.73.06-3.43c-.21-.08-.33-.73-.53-.7-.61.1-.73 1-1 1.06-.94.17-.43 1.43-1.72.72-.46-.25-.51-2.06-.93-2.53s-.6.46-.77.35-.64-.57-.81-.66c-2.1-1.18-1.56-2.14-2.69-3.48a11.47 11.47 0 0 1-1.75-.85c-.54-.24-.69-.82-1.67-1s-3.39 1.15-4.62 1.29c-1 .11-1.49-.62-2.5-.24-.66.25-1.93 1.69-2.8 2.14a20.55 20.55 0 0 0-2.37 1c-1.91 1.28-2.26 2.11-4.17 2.56-.58.14-1.39.27-2.23.42-1.68.3-1.73.4-2.84-.57-1.29-1.13-.75-2.06-2.78-2.75a14.28 14.28 0 0 1-3.77-1.67c-1-.61-1.71-.32-2.36-1.46-.49-.85.24-2.18-.49-3.11-.87-1.13-1.55-.38-2.66-1.05-.72-.44-1-1.22-1.57-1.58-1.41-.9-3.77-1.16-5-2.29-1.45-1.33-1.23-3.48-3.48-4.17-1.19-.37-2.58.54-3.25 0s-.26-2.01-.87-2.66c-1.19-1.35-5.06-1.69-5.8.13-.23-2-3.81-3.14-4-.84-1.2-1.18-3.56.34-4.85 1-.93.44-.23 1.21-1.77 1.2-1.17 0-2-1.19-3.39-1.11.45 1.45 2.93 1.44 1.6 2.66-.9.83-4-.45-5.18-.51a11 11 0 0 0-3.76.72c-.61.53-.08 1.57-.69 2.55-.77 1.23-2.55 2.51-4.12 3.69-1.3 1-1.29.21-1.79 2.15-.34 1.33.92 2.3-.55 3.64 2.53 1.47 4.68-.46 6.69.63 1.11.61.74 1.65 2.11 3.12a5.38 5.38 0 0 0 2.69 1.41c.73.22 3.33 0 3.73.54.84 1.19-.63 1-.58 1.66.33 4.21.46 1.5 3.38 3.55 1.43 1 1.68 1.76.62 3.56-1.6 2.7-4.33 1.59-5.22 5.41-1.61-1-2.36.51-2.43 2.13-.18 4 2.49 9.2 2.41 13a16.66 16.66 0 0 1-.51 4.17v.15c1 .31.3.88.64 1.38.92 1.36 2 1 3.21 1.51 2.31 1 7.46 6.5 9.36 2.73-.15 3.76-1 5 3.23 5.65 2.15.31 6.55 1.45 4.13 4.27-1.18 1.38-3.31 1.1-4.92 2-1.08.59-4.12 1.84-4.46 4-.16 1 1 2.06 1.06 3.19.11 1.28-.46 1.47-.73 2.9-.33 1.75-.37 2.87 1.54 3.1a22.34 22.34 0 0 0-5.32 4.8A50.91 50.91 0 0 1 69 97.57c4.2 2.21-2.39 4.2-3.77 4.93-3.41 1.8-4.16 7.83-6.19 11.29s-5.16 3.2-7.89 5.76c-1.6 1.49-1.25 3.06-2.19 4.89-.83 1.61-2.46 2.37-3.39 3.93-1.32 2.21.33 2-2.5 3.14-1.91.75-3.81.33-5.76.84-1.42.37-3.06 2-4.53 1.91-2.24-.07-1.57-1.22-2.58-2.56-4.23-5.63-7.92 4.76-10.64 7.61-1.87 1.95-5 5.18-3.11 8.17s6.83.57 8 3.28c.93 2.2-1.44 4.67-1.2 6.72.34 3 2.73 3.86 5 4.3.92.18 1.3-.89 2.14 0 .53.59 0 3.3.44 4.27 1 2.51 4.09 5.56 4.2 8.5 0 1-.8 1.78-.76 3.31 0 1.15 1.63-.42.61 1.14a16.9 16.9 0 0 1-2.18 1.3c-.54.23-1.6 1.39-3 .46-.82-.52-.14-2.15-.38-2.26-.85-.42-3.09.84-3.88 1.24-.42.21-1.1.09-1.5.33s-.41 1.19-.8 1.38a6.37 6.37 0 0 1-4.63.18c-.71-.2-1.2-1-2.08-1.19-1.28-.33-2.38.2-3.54.26-1.76.08-3.83-1.48-4.45.29-1.44-3.66-1.39 2.39-1.44 3.63-1.46 0-3.21-.36-4.49.35-.14-.07 0-.28-.28-.37-.49.74 0 .35-.69.39a3.53 3.53 0 0 0-1.24 2.52 1.41 1.41 0 0 0 .36-.37c.45 1.14 0 .81 1 1.18a6.47 6.47 0 0 0-1.66 1c2.44 1.32 5.64-2.88 8.22-3.52-1.73.79-2.63 2.18-4.32 3 0 0 .28.37.32.48-1.16-.21-1.28.54-1 1.64a.37.37 0 0 0 .43-.11c.11-.19-.17-.42-.12-.61a.88.88 0 0 0 .59.46 3.3 3.3 0 0 0-.75.9s.45.35.5 0c.12 0 .37.51.92.46.14.58-.14.49.8 1.13-1 .56-.88.64.19.77-.23.35.09.48-.33.36 1.58 3.23 7.24 5.13 10.65 5.88a6.36 6.36 0 0 0 3.27.15c1.35-.37 3.05-1.55 4.73-2-.42-.53 0-.32-.05-.84.58.73.4.54 1.24-.08 1 1.36 1.32.61 2.06.19.36-.22-.28-2.06 1-1.8 1.57.33-.23 2-.26 2.05-.58 1.19-2.72 4.78-3.85 5.5.27-.17-3.3 1-3.15 1-1 .25-.93 1.22-1.84-.09-.57 1.11-2 2.48-2.24.37 0 0-.36.11-.39.05.25 2-3 2.27-4.15 1.83-.29-.11.54-1.19.35-1.39-.34-.36-.62.28-.76.1-.41-.54-1.28.5-.71-1-4.31 1.57 2.07 8.52 3.75 7.9.4 2.22 3.71 4 5.1 5.56 2.41 2.7 4.37 5.53 7.54 7.49 4.56 2.82 9.71 2.56 13.76-1.37 0 .08-.3.21-.24.36 3.78-2.34 8.27-2.94 8.74-8.18a2.41 2.41 0 0 0-1.19-2.57c-.2-.12-4.38-1.34-.83-.76a7.16 7.16 0 0 1-.56-.82 10.78 10.78 0 0 0 1.35.75 3.69 3.69 0 0 0-.16-1.11c-.52 0-1.08-.18-1.55-.16.27 0 .63-.06.89-.09 0-.09-.25-.53-.31-.45.1 0 .44.12.59.1 0-.36-.11-.16-.34-.46 2.57 1.27 2.71-2.14 1.74-3.67-.86.4-.33.17-1.11.13 1.35-.7 1.93 1 3-1.16-.41 1.14-.18 1.24.8 1.34a18.1 18.1 0 0 0 5.36-.22c.06 1.8-3.49.43-4.5 2-.46.7-.49 2.43.2 2.83.07 0 1.88-1 2.22-1.06a5.67 5.67 0 0 0-2 1.89c-.83 1.94-.34 1.75.71 2.15 1.74.65 4.53-.1 6.07-1.07-1.54 2.1-5.41 1.52-6.57 4.55.61-.29 1.41-.53 2-.81a7.43 7.43 0 0 1-2.23 1.22 10.19 10.19 0 0 0 1 .3c-1 .66-.42.27-.33 1.43.44 0 .66.36 1.4.7-1.75.87-1.41 1.88-.25.46 0 .19-.09.78-.16 1.16.23-.31.34-.23.5-.63 1 .07 2 .87.3 1.1.75.44.52.59 1.48.72-.49.79-.28.93-.63 1.91a6.69 6.69 0 0 1 .77-.42c0 .13-.28.5-.17.79s.31.12.4-.19a1.65 1.65 0 0 0 .33.81c-.85.94-2 5-2.46 6.61s-1.27 4.6-.79 6.47c.3-.14.34-.39.61-.61a5.32 5.32 0 0 0 0 1.13c.12 0-.58-.2-.48-.24a9.22 9.22 0 0 0 .76 2.73 3.67 3.67 0 0 1-.18-.88 6.22 6.22 0 0 0 1.76.62c-4.78.5 1.86 3.52 2.06 4-.49-.71-3.75-2.5-3.32.17.25-.29.35-.49.66-.61a6.91 6.91 0 0 0-.55 1.31c.09 0 .33-.4.4-.32a5.31 5.31 0 0 1-.51 3.06c.07.09.26-.39.33-.27 0 .28-.05.53.12.77a13.05 13.05 0 0 1 .88-1.65 1 1 0 0 1 .07.44c.4-.82.65-1.34 1-2.2a10.2 10.2 0 0 0 .17 2.11c.25 0 .57-.17.83-.21a3 3 0 0 1-1.25.56c0 .11.31.17.42.09-1 .38-1.46 1.12-.13 1.15.15.47-.11.38.47.78-.06.28-.2.75-.26 1.06-.13-.4-.64-.76-.83-1.23-2.48.81.6 3.72 1 4.81-1.19-2.06-1.72-.13-1.17 1.14s2.24.49 1.76 2.24c-.28-.46-.82-.73-1.43-1.28a10.64 10.64 0 0 0 .84 3.15c.13-.18.18-.29.42-.35-.57.7.58 5.77 1.9 6.11a3.92 3.92 0 0 1-.88.28c.77 1.3.26 2.32 1.47 3.55l-.75-.27c2 3 .26 6.78 2.13 9h-.59c.24.3.45.29.69.51-.61.06 0 .46.09.52-.27-.18-.57-.34-.87-.57a3.67 3.67 0 0 0 .94 2c-.44.91.63 2.43.76 3.64a3.3 3.3 0 0 1 .49-1c-.63.93-.65 1.75.34 2.08-.29.45 1.53 3.37 2.24 3.8a1.52 1.52 0 0 0 .33 1.3c.36-.17 1.06-.36 1.33-.52-1.79.37-1.36 2.82.34 1.55 0 0-.12.42.08.34-.8.33-.45.29-.92.78a4.52 4.52 0 0 1 2.07.94s-.14.14-.16.09a3.07 3.07 0 0 0-2.08-.52c1.65.69 2.56 2.81 1.58 4.13 1.46.53 1.87 4 3.57 2.24 0 0 .41.45.31.45a8.12 8.12 0 0 0-1.72.67c.73.83 2.36 2.48 3 2.48-.45.79-.74 1.43.24.52a13 13 0 0 1 .84 1.19c-.61-.37-.26.12-.25.18l-.67-.85c.44 1.3.41 3.08 1.9 3.5-.34-.07-.58 0-.92-.16.74 2.54 2 4.85 2.76 7.53 0 0 .28-.59.33-.65.21.32 0 .48.58.73a2.31 2.31 0 0 0-.84.26 23.18 23.18 0 0 0 .51 2.74 3.16 3.16 0 0 1-.34-.69c.2 1.87 1.18 8.27 3.15 7.33a8.93 8.93 0 0 1-1.4.59c1 2.13 2.92 5.25 3.4 7.65.2-.09.17-.26.41-.34a3.61 3.61 0 0 0 1.66 3.49 4.86 4.86 0 0 1 .33-.94s.37.35.31.38-.43 0-.58 0c.81.65.26.7 1.36.45-.25.19-.08.56.08.67a7.33 7.33 0 0 0-1.12-.15c2.75 3.66 5.09 6.39 6.51 10.85a44.2 44.2 0 0 0 2.1 6.19c.48 1 2 5.87 2.14 3.5 1.16.95-1 1.6.57 3.46-.17-.61-.21-1.3-.33-1.85.73 1.65 1.5 2.32 2.14 4 .46 1.23-.45 3.18 1.35 3.41-2.12 1.47-1.56-2.5-2.07-4.13.06.5 0 1.39.17 2.11-.11-.6-.35-1.5-.46-2.22-.16.14-.14.27-.33.45 0-.19.21-.38 0-.59.18.56-.31-.18-.33-.22s.35.1.41 0-.5-.72-.48-.67a22 22 0 0 0 2.39 10.05c-.12-.41-.28-.83-.41-1.25.22.29 1 1.14.82.93a4.86 4.86 0 0 0-.16.67s0-.25-.08-.26a14 14 0 0 0 .91 2.44c0-.48.1-.32.34-.68-.05 0-.18.63-.09.52.55-.56.55-.45 1.33-.68 0 0-.41.3-.41.25s.32.19.32.21c-.8.19-.51.16-1.07.47.15.08.47 0 .58.08-.55 0-.36.21-.88 0 2.5 3 6.31 10 10.93 10.25 2 .12 10.13-3.42 8-7a18.09 18.09 0 0 0 1.16-1.6c-.16.1-.39.3-.58.43.2-4.05 5-4.87 7.91-5.83a9.19 9.19 0 0 1 7.74.85c-1.09-.76-1.26-1.67-1.9-1.88-1.48-.48-3.92 1.05-4.63-1.73-.49-1.94 3-6.25 4.41-7.16-2.28-2.87 2.59-3.43 4-3.7-.17.08-.5.18-.68.28a7.38 7.38 0 0 0 2.68.64 9.51 9.51 0 0 0-1.92-.59c1.08-.37 2.2.87 2.94.2s-.11-5.34-.11-6.36c0-1.69.87-8.94-2.08-6 1.06-.67 1.83-1.18 1.42-1.94 0 0 .16.32-.09.33-1.25-3.17.88-7.52 2.66-10.09a3.45 3.45 0 0 1-.75.3c2.95-2.21 5.24-9.55 4.49-12.39 2.1-3.65-4.62-3.14-2.67-6 .16.34.36.65.51.95 0-.45.08-.91.07-1.37a12.77 12.77 0 0 1 2.09 3.59c-.89-3.21-2.19-6.73-2.34-10a7.9 7.9 0 0 0-.85.58c.82-.73 2.94-4.37 1.1-4.7.63-1-.94-3.64-1-5.3a13.87 13.87 0 0 1 1.93-6.95c1-1.86 2-3.55 4.16-4.19 1.28-.38 3.63-.49 3 2.07.67-1.18 1.31-2.44.83-3.79.24 0 .22.32.26-.17-.06 1.33.09 2.61 1.4 3.19-.3-1.09 1.77-3.5 2.33-4.93.37-1 2-4 2.57-2.16.73-.28 1.27-.24 1.5-.43 2.62 1.67 6.72-1 9.29-2.6a1.46 1.46 0 0 1-.25-.61c.17 0 .13.21.32.25a7.06 7.06 0 0 0 .43-4.41c.41 1.61-1.1 1.63-1.13.91-.08-1.54 1.49-3.11 2.59-4s9.42-4.31 9-5.52c.35-.17.65-.11 1-.38-.22-.08-.54-.53-.63-.66 1.3.83 2.41-1.46 2.49-2.63 1 0 3.93-2.7 5.3-3.4 2.56-1.3 3.36-2.84 5.58-4.64a7.3 7.3 0 0 1-1.36.54c2.51-1 5.38-5 6.57-7.5-.49 0 .06 0-.48.3 0 0-.22-1.18 0-.95s8.37-5.9 10.15-7a23.48 23.48 0 0 1-3.32 1.5c.05-.15 0-.26-.17-.35.69.13 1.27-.15 1.24-1.15a3.61 3.61 0 0 0-2.4 1.41 3.61 3.61 0 0 1 .49.34 3.92 3.92 0 0 1-1.32 1c-.84-2.56 6.25-7.34 5.48-3.44-.26 0-.53.33-.75.44 0 0 .19-.3.09-.36a6.44 6.44 0 0 1-1.16.45c.53.76 1.62.36 2.56-.35 0 0-.14.16-.16.17 3-1.11 6.36-1.48 9.06-3.18-1-.63-2.61-1-2.67-2.29a4.74 4.74 0 0 0 3.32 1.85c-.49-2.06 2.39-2.68 4-4.07a2.61 2.61 0 0 1-.74.27 2.49 2.49 0 0 0 1.26-1.79c-.4.74-.16.27-.91.89-.15-2.3 2.54-3 3.91-4.27-.8.23-.5.05-1.25 0 .22-.08.52-.08.71-.17a4.12 4.12 0 0 0-1.46-.9h.91c.12-2.4-2-3.81-.9-6.4a7.69 7.69 0 0 1 4.38-3.67c2.46-1 5.58-.76 7.74-2.69a16.8 16.8 0 0 0 1.56-1.87s1.65-2.43 1.6-2c.23-1.87-2.19-2.25-2.83-4.77.71.94 1.67 2.15 2.23 2.77 1.69 1.88.93 1.48.81 4.07-.13 2.9 2.4 7 1.26 1.34a4.39 4.39 0 0 1 .73 2.52c0-.4.17-1 .11-1.48.54.65.1 0 .74.27a6.84 6.84 0 0 0 0 1.28c1.19-.42 1.28-3.41 1.24-4.58.57 1.37-.32 5 .59 5.44 0 0-.19-.34-.09-.53.68.06.86-.68.67-1.7.52-.49.76-.77-.33-.8.06-1.62.41-4.67 1.39-5.72-.33.66-.82 3-.37 3.45s1-2.21 1.38-2.48a13.2 13.2 0 0 0-.92 5.47c.37 2.44 1.37 2.24 1.5.26.11.47-.1.51-.06.9a3 3 0 0 0 .73-1.88c0 1.45 1 2.22 2 1.74 1.6.32-1-3.83-1.45-4.61.23.47.7.64 1.16 1.07.9-.56.46-1.86.41-3 .33-.34-.45-4.63-1.4-5.38 1.23-3.09-2.68-5.81.39-8.61-.47-.15-2.23-.13-2.43-.31-1.51-1.34.16-1.71 0-3.6-2.28 1.18-2.63-3.41-2-4.87.09-.21 1.23-.4 1.48-1.15.31-.91-.56-1.13-.51-1.71.1-1 1.32-1.71.77-2.71-.3-.55-4.66-1-6.13-2.18-1.12-.87-2.57-1.64-2.42-3.12 0-.09 1.47-3.25 1-3 1.68-1 1.36 1.28 3-.35.71-.69.32-2.51.79-3 .73-.74.67 0 1.61-.17a8.55 8.55 0 0 1 4.35 0c.92-1.64.08-1.78-1.44-3-.43-.35-.34-1.08-.88-1.33s-1.42.29-2.2-.07c-1.14-.53-1.13-1.62-1.83-2.39-.89-1-3.29-1.34-3.49-1.65-.68-1-.08-3.51.46-4.25a10.63 10.63 0 0 1 2.23-1.85c.83-.59.64-1.63 2-1.4-.07-1.31-1.25-2.17-2-1.29a2.49 2.49 0 0 1 .61-2.37c.37 1.67 5.28 3.16 3.15 4.7 1.54-.59 3 .55 4.77.39-.22-.31-2.41-1.81-1.47-2.43.67-.44 2 1.18 2.25 1.53-1.49 1.45 4.75 7 6.15 3.26-.15-.11-.43-.09-.54-.2.08-.27.38-.25.45-.45-.52-.63-.48-.29.13-.59 0-.78-.2-.46.46-.79.37 1.24 2.24 2.86 1.69 3.69 1 1.57-.57 5.39.06 7.53.55 1.9 4.65 3 7.09 3.21 1.61.13 3.86.13 5.33.09s3-.72 4.54-.64c1.1.06 2.35.59 3.56.7 2.48.22 5.33-1 8.26.08 1.53.57 5 2.71 2.89 3.82-.74.39-1.09-1-1.7-.68-1.14.57 0 .55-.45 1.6-.79 1.75-.94 6.05-3.44 5.35-.06.2.2.6.27.79-.42-.18-.48-.28-.88-.29.71 3.09-1.14 1.53-1.18 1.55-.91.43-1.14 1.55-2.09.08.07 1.86-.83 1.07-1.69 1.7-.13.1-1.32-.13-1.61 0s-.17 1.1-.36 1.31c-.56.62-2.18 2.43-2.31 3.41-.08.65 1.83 8.21 2.84 8.82-1.35-6 1.9 1 2.6 1.55a3.45 3.45 0 0 0 2.34-2.46c.19-.73-.53-1.4-.31-2.18s1.06-1.15 1.31-1.69c.69-1.51.54-2 .74-3.94 1.43 2.39 2.54-1.46 3.29 1 .17-.28.41-.65.54-.91.27 1.25.94 3.19 1.13 4.6.22 1.64-.22 3.67.27 5.49s1.34 3.22 1.78 5.15c.58 2.6 0 5.58.9 7.63.55-.28 1.09-1.51 1.17-1.52.79-.19-.63-.77 1.21-.14.69.24 1.12 1.31 1.28 1.93 1.33-.3 1.36-3.86 3.2-3 .39-1.54-.25-3.58-.45-5.62-.14-1.41.32-1.85.47-3 0 .12.27-1.79.1-1.51.1-.18-.36-.74-.14-1s1-.28.87-.1c-.41.53 1.21.08 1.47-.17.63-.6.36-1.29.53-2a24.36 24.36 0 0 0 .28-2.94 10.45 10.45 0 0 0-.31-4.13c0-.18-.91-3.23-.87-3.4.46-1.69 1.8.08 3.25.36a9.76 9.76 0 0 1 2.09-.36c.66.09 3 1.72 4 1.58 1.24-.18 1.83-3.13 2.56-5.18a23.85 23.85 0 0 1 2.48-4.71c.73-1.17 3.16-4.29 2.75-6-.31-1.25-1.71-.87-2-1.81-.42-1.71 1-2.76 1.91-3.74 1.08-1.16 3-1.91 3.69-3.66.26-.63-.27-1.65 0-2.37.1-.31 1.27-.5 1.35-1.1a7.42 7.42 0 0 0-.4-2.56c-.29-1.61-.78-2.86.11-4.51 1.07-2 1.65-1.29 3.77-2.24a22.6 22.6 0 0 0 2.33-1.94c.82-.68 1.73-1.44 2.62-2.21s1.52-1.81 2.35-2.5c1.81-1.51 4-.89 6-1.39 2.54-.62 2-1 4.12 1 .9.83 3.66 3.29 3 .51-.82-3.61-4.18-3.51-1.75-6.89.69-.95 3.42-3.24 4.07-2.59a2.19 2.19 0 0 0 .76-2" fill="#9a1648"/></svg>