<svg data-name="Слой 1" xmlns="http://www.w3.org/2000/svg" viewBox="0 0 443.42 254.8"><path d="M356 227.42c.55 1-1.11-1.06.85 1.33-.46-.44 1.9 3.1 1.49 2.06.24.54 2.19 1.17 2.18 1.5a2.84 2.84 0 0 0-1.38-2.2 2 2 0 0 0 2.75-.24c-.73.64-1 3.27-.39 4 1.46 1.71 1.52-.93 2.69-1.45a16.58 16.58 0 0 0-1.68 2.81c.66 0 .94.35 1.1-.41.74 1.24 1 4.88 2.9 4.93-.93.28-.91.5.07.67a5.29 5.29 0 0 1 1.73 0 6.78 6.78 0 0 1 2.4 2.18c.38.44 3.42 4.33 4 3.71-.69.74-1.71-.44-2.12-.85-1.33 2.15 1.66 1.41 2.73 1.14 1.6-.39 2.67-1.55 4-.52-1-.94 0 .35.3-.59a12.59 12.59 0 0 0 .28-2.23c.1-.86.11-1.72.27-2.57s.44-4 1-1.27c-.57-4.37.95-12.61-4.41-14.69a1 1 0 0 0 1.06.1c.41-.75-3.21-4.95-3.56-5.47-2.05-3-4.23-6.06-5.16-9.62 1.36.28.27 1 1.06 1.69.33.3 1.17-.51 1.35-.24.69 1.06.23 2 .53 3.11a10.89 10.89 0 0 0 2.33 4.27c-.46-1-1.37-1.82-1.74-2.88s0-2.08-.33-3.08c-.8-2.53-3.11-4.09-4.73-6.07A39.15 39.15 0 0 1 360 192c1.94 2.15-.58-1.79-.72-2.37-.21-.84.47-1.53-.24-2.49.77.79 1.18.68.92-.45-.89.9-.74-.12-.34-1 .05.21 2.32-.7-.87-1.41a7.5 7.5 0 0 0 1.95-.05c-.66-.2-.82-.53-.48-1 .69 1.14 1-.78 1-1.19-1 .82-.75.78-1.47 0 .56-.11 1.26-.3.63-1 1.74.89.4-.62.4-.52.08 1-1-.85-.86-.72 1.08.46 2.81-1.19 1-1.11 0-.82.33-1 1-.41.82-.16 1-.47.48-.94.79-1.08.76-1.56.93-3.21a2 2 0 0 0 0 1.46c.34.29.64-1 .58-1.19a12.22 12.22 0 0 0-1.75-3.18c.83.37 2.78 4.28 1.62.51a8.35 8.35 0 0 0 1.12 1.8c.22.18 1.22-1.61 1.32-1.64a5.25 5.25 0 0 0-1 .84c.68-.72.44-1.21-.55-1.07a1.45 1.45 0 0 0 .88-.43c-.3 0-1.62.45-1.76 0a12 12 0 0 1 2.34-.86c-.08 0-1.29.74-1.4.39.17.55 3.88-.6 2.42-1.3 1.38 1 2.64-.83 3.22-1.82-.68 0-1-.44-.86-1 1.64.42 1.62-.16 2.85-1.5.09-.09 2.62-1.88 1.76-2.58 2.42-.29-1-1.6.75-3.13a1.53 1.53 0 0 0 .47 2.23c-.36-3.11 1.89-6.43 4.09-7.81l1-.69c.46-.11 1.16.38 1.66.16a2.7 2.7 0 0 0 1.66-3.65 4 4 0 0 1 .71 2.63c.83-1.76.7-3.18 1.75-4.89.87-1.43 2.41-2.77.82-4.39a1 1 0 0 1 .63 1.62c1.11.33 2.17-1.27 1.9-2.24 1 1.43 2-.48 3.69-.39-.16-.42-.37-.48-.63-.16.52-.67.94-.6 1.25.21-.1-.84 3.55-3 1.65-3.75.62.54-.72 1.47-.95-.28-.15.79-.58.88-.41 1.59-.94-.69-1.1.56-2.12.41a4.77 4.77 0 0 1-2.88-1.74c1.29.67 5.2 1.63 4.2-1.12a3.12 3.12 0 0 1-.85.27 7.8 7.8 0 0 1 1.42-.77c.17 0-4.93-1.68-5.35-2.27 1.36.7 2.82 0 4.22.49-.74-1.09-1-1.56.67-1.6-1.1 1.07.2 2.24.54.7a2 2 0 0 0 .47 1q0-1.2 1-.21a1.44 1.44 0 0 0 1.32-.5c.8-.53 1.18-2.17 1.26-3a1.61 1.61 0 0 1 .55.61c1.41-.91.11-3.63-1-4.15-.16 1 0 0 .34.44-.2.42-.53.11-.69-.06.24.25 0 .92-.42 1.74-.31.61.66 2.29-1 1.26 1.11-.18.71-.76-.08-1 2.6-2.41-2.26-2-1.44-1.07-1.35 0-2.56.64-3.91.62.4-1.21-.4-2.73-.82-3.83 2 1.75.92 2.79 4 1.55a8.47 8.47 0 0 1-1.5-.84c.15.07 2.28 1 2.36.57a2.15 2.15 0 0 0-1-.95 1.24 1.24 0 0 0 2 0 3.68 3.68 0 0 1-1.51-1.31 6.21 6.21 0 0 0 2.76 1.07 7.82 7.82 0 0 1-1.07-1.36c.94.46 1.25 1.62 2.26 2a15.33 15.33 0 0 1-1.87-3.29c-.36 1.06-1-.27-1.4-1.4a1.72 1.72 0 0 0 1.39.69c-.7-.84-.92-.92-1-2.16 1.59 1.28 1.88 3.64 2.83 5.34a8.55 8.55 0 0 0 2.96 3.25c-1.61-2.83-3.24-6.45-5.41-8.85-.58-.64-4.71-2.45-3.29-.46a1.37 1.37 0 0 0-1.93.27c1.87-2.94-6.61-3.22-7.17-3.42.71-.27 3.33.7 3.42-.66.22.45 4.91 2.92 5.38 2 .64-1.25-4.93-2.7-5.19-4.31 1 .78 2.39 2.68 3.87 1.79-.82-.52-.56-.81-.69-1.49a11.1 11.1 0 0 1 1.51 1c-.11-1.08-.19-2.13-1.55-2.07 1.42-.52-1.22-1.22-1.89-1.61-1.84-1.06-3.34-2.93-5.47-3.43 2.28-.2 5.13 2.27 6.2 4.08.24-.81 1.15-.17 1.67-.16-.57-.89-.08-2.25-.35-2.62-.55-.75-2.24-1.21-3-1.57a43.87 43.87 0 0 0-4-2c-1-.1-1.61.9-2.58.69.7-.08.62-.32-.26-.74.31-.1 2.1-4.4 1.3-5.27.91.84-1.07 5.28-.09 5.59a1 1 0 0 0 .7-1.09c.28.44.35.12 1.12.35.21.06 1.17 1.29 1.44 1a1.8 1.8 0 0 0-.59-1.06c.8 1.26 2.85.69 3.52 2.08.36-.72.45.39.32-.87a2.64 2.64 0 0 0 1.52 1.34c-.59-2.54-3.87-3.1-4.36-5.73.32 1.29 2.84 4.36 2.57 1.66a16.51 16.51 0 0 0-2.06-4.78c1.6.58-.05-.76-.33-1.12.45.35 2.55 1.1.27-.35 1.95.48-.93-1.21-1.24-1.37.74 0 2.71.38 1-.76.87.5 1.57-.8.47-1 1.49-.12 1.07 2 1.24-1.13a.78.78 0 0 0 .28.86c.94-.13 1.93-5 1.54-1.18q.51-.75 1.05-1.47c.19 1.75-2.15 2.25.42 2.16-1.93.36-3.67 2.12-2.27 4 .78-1.16 0-1 1-1.37-.56.82-2.07 2.2-1.71 3.39 1.23-2.54.51-.37 1.53-1a.77.77 0 0 0 .52 1c-.53 1.38-2.29-.8-1.53 1.73.34-1.23.73-1.39 1.33.13 0-.08-.34-.87 0-.87.38.86.51-.23.27.74a1.35 1.35 0 0 0 1.53-.41c.19 1.15-.81.49-1.24.89-.61.56-.59-.13-1.14.66.44-.31.71-.25.78.19a.59.59 0 0 1-.8.45 5.54 5.54 0 0 0 1.17 1.71c-.45-1.46 1.25.3 1.57.55-.22-1.31-.13-2 .58-.29a5.81 5.81 0 0 1 .61-1.8c-.24.59-.4 1.66.58 1.69-1.23 1.15-.74 1.11.54.82-1 1.07-.23.65.35.28-.32.49-.62 1-.89 1.5.41-.29.53-.12.36.53a1.62 1.62 0 0 1 1.75-.7c-1 .53-.73.8 0 1.23-1.31.8-1.47 3.31-1.51 4.62 0 .13.3 3.28.63 2.87s.17-1.19.59-.27c.12-1.12-.62-3.07.8-3.69-.79-.65.25-.06-.33-.71 1.29 1.42.93-1.18 1.09-2.21a20.44 20.44 0 0 1 .84-3.6c.22-.64 1.76-3.34.46-3.7.73-.36.78-1.15 1 .64a4.89 4.89 0 0 0-.48-2.86 2 2 0 0 1-1.09.75c.35-.38-.52.35-.66.42a10.55 10.55 0 0 0 1.38-1.32c-.45-.39-.1 0-.45-.55 1.65.92-.13-.85-.61-1.36a19.6 19.6 0 0 1-3-3.37c-2.48-4.08-1.31-5.33 1.48-8.72-2.3 3.47-4.78 5.62 0 7.85.64.3 1.41.21 1.94.68.22.19 1.55 2.3 1 2.18 1 .23 3.11-4.5 1.55-4.07.75-.61 2.43-1.34 1.38-3.16 1.63.75 1.39-5 1.54-5.72a26.11 26.11 0 0 1 .47 2.92c.06-2.18.64-5.27-.89-7.12.61 1.34-1.38.48-1.65.07-.55-.85-.41-1.33.09-2.34.53 1 .8-1.43.81-1.6.11-1.6-1.29-3.07-.94-4.64a13.06 13.06 0 0 1 1 6.06c.23-2.49 4.13-5.55 6-6.77.89-.57 5.95-1.81 4.86-2.81.9 1 5-.58 5.81-1.31 1-.91 1.5-4 .72-5.18 1.08.82 1 .21 1.11 1.39a9.36 9.36 0 0 0 1.1-1.75 4 4 0 0 0 .29 3.41s3-3.81 3.44-3.74.24 2.34.24 2.09a16.92 16.92 0 0 0 4-2.5 5.47 5.47 0 0 0 .95-2.14c-.2-.41-2.81-2.37-2.92-2s1.61 1.17 1.67 1.75c.32-.85 0 0 .55-.45.57 1.36-1 2.51-2.16 2.68.82-.26-1.13-.39-1.4-.51a3.14 3.14 0 0 1-1.88-2.2c0 .54.23.66.57.35-.91-.94-1.76-2.11-3.15-2.34.51 1.36-1 .31-1.25-.1.84 0 .73-1 1.23-1.81-.17-.3-.31-.27-.42.08.18-.67 2.46-1.57 1.57-2.46-.47.94-1.12.46-1.6-.15.83.42-.19-.37-.25-1.16 0-.62.4-2.13-.16-2.64.5.06 2-3.62 2.18-4.36-.72.33 1-1.62-.24-1.88a11.57 11.57 0 0 1 1.66-2.77c0 .88.4.08.42-.18-.13.49-.26 1-.4 1.46 1.24-3.68 0 .21.26.11.63-.26.13-1.34.43-1.65a3.71 3.71 0 0 1 .91 1.54c.51-1.7-1.92-2.27-.56-3.68a4.24 4.24 0 0 0 1 2.91 3.58 3.58 0 0 0 .2-1.41c-.07.05-.33.88-.36.87a2.11 2.11 0 0 1 .39-2.34 2.33 2.33 0 0 0 .77 2.08 3.23 3.23 0 0 1-.15-2.21c0 .68.69 2.5.39 1.39.29 1.07.75-1.95.83-2.15.28 1.1.56 1.3 1.15.22-.05 2.05.91-1 1-1.44.27-2 0-2.81 1-4.89q-.57 2.79.57 1.11s-.45 1.41-.45 1.39a4.51 4.51 0 0 1 2.47 0 4.3 4.3 0 0 1-.92-1.47c.63.1 1.08-.24.48-1 .84.67 2.05.07 1.15-.71.73.68 1 .62.79-.19a7.87 7.87 0 0 1 1.61 1.6c.33-.35.2-1.6.19-1.88.84 1.94-.4-1.16.78.86 0-.41-.29-2.94.47-1.52 0-1.35.32-.32.61.1.38-.52 1-.66.55-1.38-.1 0 1.88-.84 1.51-.46-.57-.76-.42-1 .47-.78a.79.79 0 0 0 .67-.28 12.62 12.62 0 0 0 1-1.77c0-.05-.57-1.06-.4.12-.42-.54-.61-.46-.58.25-.65-.68 0-1.72-.59-2.47-.84-1.08-2.27-.58-3-1.41s-.42-2.1-1.37-3-2.07-.53-3-1.85c-2.05-3.08-1.14-14.07-7.37-13.1-1.47.23-2 1.85-3.42 2.18s-1.68-.67-2.84-.73c-2.31-.12-2.76 3.24-3.44 5.33a30.47 30.47 0 0 0-1.42 10.42c0 1.41-1.86 6.7-1.12 6.72-1.22 0-.68.34-1.06 1.91-1.38-2.74-4.63 3.71-5.96 4.26-2.34 1-5.59 1.24-8.07 1.89-2.92.77-5.81 1.38-8.76 2-4.43.89-7.7 2.2-10.4 6-.52.72-5.1 7-4.07 7.62a1.58 1.58 0 0 1 1.22-.54.64.64 0 0 0-.3.74c.1 0 .63-.44.74-.29.35.45-.73 1.42-1 1.53 0 0 .34 2.3 1.09 2 .37 2.91-5 5-7.13 5.43-2.69.6-12.25-.8-13.68 2.77-.73 1.82 1 1.58 1.55 3 .74 1.91-.93 3.83-2.1 5.13a35.74 35.74 0 0 1-4.12 3.72c-.33.27-2.43 2-1.43.88-3.52 2.7-7.14 5.47-10.8 8-1.91 1.3-6.19 4.13-8.5 2.29 1.28.72-2.56.89-2.91.8a14.11 14.11 0 0 1 2.77-1c-1.32-.94-3.19.43-4.56-.33-2.27-1.27-.62-3.18-.09-4.68s.66-3.54 1.75-5.1c.11-.16 2.58-3 1.65-.48 3.05-1.4.23-6.66-.55-8.67-1.05-2.71-2-7-5.76-5.16-2 1-.77 1.21-1.78 2.67-.73 1.05-2.26 2.57-3.52 1s2-4.44 2.72-6.12a6.36 6.36 0 0 0 .36-4.66c-.15-.5-2.51-4.94-.1-3.23-2.58-4.75-9.38-5-14.05-5.51 1.11 1.09-2 3.87 1.11 3.47-1.15 1.23-2.83.66-3.51 2.5-.59 1.57.9 3.31-.56 4.7a6.22 6.22 0 0 0 .22-2.37 8.45 8.45 0 0 0-.58 2.26c-1-1.08-.37-3.11 0-4.34-1.31.58-3.4 4.31-4 5.59a18.82 18.82 0 0 0-1.52 6.64c-.06 1 .14 9.44 2.57 8-.9.88.43 2.72.66 3.65a13.3 13.3 0 0 1-.23 6.6c-.67 2.57-2.22 6.44-5.14 7.07-7 1.51-7.55-13.66-7.65-17.62-.1-4.28 1.58-8.25 1.9-12.41s-1.18-1.46-2.91.08c-2.82 2.51-1.32-1.23-.16-2.74 2.45-3.2 2.57-7.33 4.85-10.62a3.79 3.79 0 0 0 .32 2.32c.68-.39 2-3.2 2.89-2 .68.91-2.16 1.52-.21 2.48-.37-3.18 3.36-3.24 5.38-4.18 1.22-.57 2.15-1.8 3.59-1.86 1.75-.08 3.28 2 5.05 1.51-1.21-2.18 5-1.55 5.86-1.81-.65-1.06-1.93-1.13-2.47-1.77s-.09-2.44-1.87-3.13l-1.11 1.06-1-.59c-.45 0-1.2.31-1.64.15-1.52-.59-2.06-1-.83-2.71-2.83.64-6.18.9-8.76 2.33-2.39 1.33-2.55 2.47-5.15 2.28a11.41 11.41 0 0 1-5.26-1.49c-1.81-1.09-4-3.36-5.69-.59a11.82 11.82 0 0 1 1-1.47 8.38 8.38 0 0 0-2.36 2.16 5.17 5.17 0 0 0-.29-2.73c-.32-.76-1.18-.69-1.27-1.69-3.13 1.81-11.29 10.23-15.25 6.76.52.64-.86 1.06-1.41 1.09.74-1 1.74-3.12-.08-3.53-.77-.18-2.51 1.4-3.25 1.79-1.5.8-5.77 2.78-4.85-.47.55-1.94 4.26-3.88 5.75-5.14 3.53-3 7-5.71 11.39-7.33-.83-.16-2.59-.22-3.26-.26a12.21 12.21 0 0 0-2.65-.1 5.87 5.87 0 0 1-2.67-.16c-1.79-.37.38-1.2-1.94-.7-1 .21-1.53 1.54-2.64 1.73s-2.14-.48-3.16-.95a10.44 10.44 0 0 0-2.65-1c-.22 0-1.56.42-1.2.48-1.13-.2-2.28-2.05-2.53-2.21-2.81-1.78-5.51.39-8.6-.16-2.05-.37-5.18-.88-6.5-2.56s-.71-4.83-3.78-4.78c.13 2.82.47 3.55-2.54 3.94-4.46.58-9.28.2-13.79.31q-13.63.32-27.27.17-27.53-.28-55-2.46T76.43 8.65Q62.69 6.61 49 4.1c-4-.73-8-1.39-11.9-2.36-1.86-.45-5.48-2.08-7.33-1a4.69 4.69 0 0 1 .69 2.5c1.43-1.06 1.47 2.11.34 1.4a1 1 0 0 1 .2 1.29 3.74 3.74 0 0 1-1.31-.65c-.12 1.31 2.21 1.34 1.73 3-1.4-.78-.68 1.43-.07 1.87a2.66 2.66 0 0 1-.51-1.72 13.45 13.45 0 0 0 1.58 2.17c-2 1-2 2.81-2.2 4.33-.1.72-.35 3.51-1.72 2.12-.65 2.73-2.89.18-3.14 2.09-.45-1.26-.08-1.29-1.25-.76.68-.37.7-.48.07-.34 1.11-.19 1.89-1.41 2.54-2.19a10 10 0 0 0-.22 2.24c.56-.7.52-1.68 1.48-2.05-.64.59-.58 1.07.19 1.47.15-.73 1.91-3.8-.29-2.74.27-1.17-.13-1.32.76-.4-.64-1.37-.57-1.88.14-1.37q.42.4.75-.12a2.48 2.48 0 0 0-.32-2.07c.62 2-5.15 3.16-4.21 4.74a1.58 1.58 0 0 0 1.53-.08c-4.33 2.19 1.16-4 1.08-4-.74 2.42.88 1.29 1.27.08.27-.84-1-1.83-.31-2.65-.79-.4-1.11.4-1.14 1 .42-1.9-2.08-.37-1.43-2.16-3.58 2.2-8-3.46-11.07-4.52.42 1.11-.56 2.33-.5 3.43s.84 2.23 1.18 3.32a15.18 15.18 0 0 1 .15 8.32c.58-1.7 1.72.11 2.66.23-.54 0-2 0-1.78.91-1.25-1.67-.94.17-.46.68s1.47.57 2 1.23C16.44 20.29 16.4 23.14 17 24c-1.59-.56-1.22-1-.83-2.72-.88 1-.48 2.46-1.19 3.53a7 7 0 0 1 4.09.81c.77.45 1.41 1.78 2.4 1.58-1.58 1-4.18-3.38-4.75-.24a3.08 3.08 0 0 0-1-1.51c.07 1.22-1.78 5.47-.35 5.36a1.24 1.24 0 0 0-.37 2c-.42-.45-.36.07-.51-.73-.72 2.5-1.9 5.21-2.75 8.28-.93 3.33-2.38 6.45-3.08 9.88a1.36 1.36 0 0 1 .87-.05c-1.15-.59-2 1.94-2.5 2.83.73-.89 1.22-.93 1.28.35-.65-.93-1.17-.35-1.37.48-.24-1-2.26 2.4-2.43 2.92-.67 2-.44 4.7-.59 6.81C3.49 69 6.14 74.59 1.76 79.24a1.82 1.82 0 0 1 1.37-.57 2.09 2.09 0 0 0-1.5 1.38C.88 79.3.08 81.45 0 82.61c-.1 1.49.89 2.79 1.4 4.11 1.35 3.41.29 6.34.41 9.89.15 4.82 4.07 7.83 5.28 12.22a13.14 13.14 0 0 0-.94-1.83 2.49 2.49 0 0 1-.79 2.38 5.48 5.48 0 0 0 .91-.76c.22.33 2.86 4 3.48 2.92-.52-1.75.06-2.45 1.51-2.37.4 0 .87.91 1.31 1s1-.9 1.2-.78c1 .67 1 2 2.69.55a.74.74 0 0 0-.58.62c.75.69 1.85-.12 2.26 1.3-1.18-1.68-6.37-2.37-8-1.16 1.62 1.48.65 4.08 2.16 5.67-2.26-.51-2.18-6.44-3.36-2.38-1.05 3.59.58 5.64 2.92 7.83 1.26 1.17 1.43 1.52.63 3.12-1.09 2.19-1.86 1.92-.43 4.77 1 2 1.58 4.4 2.8 6.24.59.89 1.63 1.4 2.21 2.28a6.9 6.9 0 0 1 .6 1.92.55.55 0 0 0 0-.38c-.68.83 1 3.49 1 4.63-.05 2.81-1.42 4.67 2.13 5.83 2.1.7 4.13 0 6 1.44 1.09.85 2.66 3.24 3.12 3.57 1.45 1 3.64.62 4.89 2s1.39 2.72 3 4c4.33 3.48 5.67 5.84 6 11.49.59-.89 1 0 1.11.59-.12-.49-.38-.74-.78-.77-.7 2.61 19.31 2.71 21.62 2.81-2.58 3.09 3.81 4.67 5.84 5.72 4.4 2.26 8.84 4.45 13.26 6.69 3.69 1.87 7.31 4 11.3 5.2s8.37 1.28 12.57 1.68c2.16.21 4.33.47 6.49.65 1 .08 4.41.87 5.47.32 2.34-1.22.2-4.32 4-4.65a46.89 46.89 0 0 1 9.69.45c3.83.55 5.3 3.17 7.75 5.83s5.65 4.56 7.83 7.46c2.44 3.24 2.19 7.57 4.65 10.75a22.75 22.75 0 0 0 8.5 6c4.13 1.58 4.5-1.24 5.84-4.14 1.55-3.34 4.44-3.68 7.65-3.12a26.85 26.85 0 0 0 3.79 0c.75 0 1.18.59 2.18 1.31 5.66 4.11 7.16 10.46 11.19 15.94 2.64 3.59 5 5.69 6.06 10.05.77 3.16 2.08 6.67 4.87 8.53 3.51 2.33 7.39 2 11.14 3.28.68.24 1.26.77 1.92 1 1.68.61 1.1.56 2.11.19.71-.27 2.13-.9 1.51-1.81a.87.87 0 0 1-.62.91c-.44-1.5-1.31-2.57-2-4.23-.89-2.24.19-.74.1-1-.23-.73-2.16-4.61-.78-3.68-1.32-1.18.54-3 .47-4.36-.94.64-2.24.17-3.18-.15 1.8.16.3-1 0-1.77 1.11.75 1.37 1.9 2.68.65.46.53.3.91-.48 1.15 3 0 2.5-5.53 0-6.06 2 0 5.07.42 4.43-2.67-2.2 2.26-1.51 0-1.11-.24.17-.1 1.44-.75 1.23 0a1.7 1.7 0 0 0 1-1.31c-.56 2.8 1.82-.1.56-1.6.57-.2.82.26.45-.68 2.19 2.62 3.73-.41 2.19-.13.62-.55-.85-1.92-1-2.51.43.46 2.58.84 1.49 1.52 1.63-.25.65-1 .38-1.94a9.71 9.71 0 0 0 2.45 1.12.29.29 0 0 1-.36-.14c.33.55 1.73-.12 0 .8.41-.11 1.44-.71 1.84-.52-.35-.17-1.51 1.28-1.73 1.53a18.36 18.36 0 0 0 4.49-2.52c-.36.09-1.77 1.26-2.11.86.13.16 8.5-3.17 6.9-6.2 1.09.67 2.21-1.6 3.1-1.86-1.54-.72-.92-2.64-2.36-3.43 1 .38 1.78-1.23 2.43-.88 1.08.58.87 1.83 0 2.53 1 .22 1.9-.46 2.91-.36-.78.85-2.12 1-2.63 2.16 1.45-1.06 6.43-4.5 7.83-3.51-.56-.4-.21-3.62.63-3.58 1.16.06-1.23 2.42 1.23 2.88 1 .19 2.28-.67 3.31-.72a12.48 12.48 0 0 1 3.95.77c2.45.69 5.74 2 7.93 0-.75.1-1-.8-1.71-1.31.95.43 1.78-.91 2.72-.87l1.58.94c1.26.74 4.08 3.7 4.36.86.31.44 1.69 3.28 1.24 3.69-.16-1.18-.79-1.35-1.76-.79.42 1.07 5.11 2 5.79 1.76s2.38-4.18 2.87-1.47c.69-1.4.42.13 1.19-.38a12.85 12.85 0 0 0 .31 1.84c.72-.17 1.77-1.87 1.87-2.36.15-.66-2.15-2.27-1.75-2.75.58.53 5.44.64 3.46 2.4a11 11 0 0 1 3.18.44c.55.15 1.3 2.48 1.59.55 0 .68.16.74.37.19a25 25 0 0 0-1 2.52c1.09-1.65.79-2.3 2.47-.95 0-.52.58-.87.19-1.31.64 0 .1-.11.69-.1-1.37 0-.45-.54.06-.55a22.13 22.13 0 0 0-3.34-1.52c.89.24-2.11-.67-1.74-.43-.24-.16-1.77-1.74-2.13-2.16a1.11 1.11 0 0 0 1.18-.14 1.78 1.78 0 0 0-.77-.69l2.06.6c-1.05-.6-.8-1.16-.19-2.07 1.1.44.74.81 1.31-.62-.72 0-1-.15-.42-.7q-1.35-.33-.06-1c-1.07-.33-3.29 3.69-4.14.94.09.28 2.52-2.7 1-1.64.32-.23.27-.78.46-1a10.67 10.67 0 0 0-.78 1.5c-1-.68.63-.84-.6-.16a9.2 9.2 0 0 1-1.86.92c-1.07.33-2.87.7-3.48-.56-1.36-2.77 2.51-2.3 3.94-2 2.74.57 2.51 1.2 4.8-.35.44-.3 4.18-2.28 4.59-1.73a1.91 1.91 0 0 0-.89-.13c4.35-2.2 7.93 3 8.17-4.15a7.93 7.93 0 0 1 1.93 3.18c.28 1.73.3 1.1-1.36 2.14 1.3-.31 3.25 0 4.07-1.39-.78-.19 0 .21 0 .09-.49-1.19-.25.26.53-.53.34-.35.93-.84.52-1.46 1.22.26-.15 1.9-.67 2.23 1.41-.44 3.67-1.69 2.75-3.53a1.44 1.44 0 0 1 .95 1.31 3.86 3.86 0 0 0 .37-1.7c.87.65.2 1.27 1.42 1.6a8 8 0 0 0-2.59 1.13c1.12-.4 2.33-.31 3.44-.69s2.13-1.47 3.34-1.78c-.32.63 2.44-.71 2.82 1.1-1.44-.51-2.14.39-3.55.15a26.45 26.45 0 0 1 7.42 1.93c-.55-.52-.14-1.08-1.37-1.19.28-.47 2.55-.71 2.64-.56a5.38 5.38 0 0 0-1.35 1.12 1.59 1.59 0 0 0 2.09.3c0 1 .23 1.28.69.91h.37c-1 .41-1.77-.55-2.71-.59a13.8 13.8 0 0 0 2 1.33 1.5 1.5 0 0 0-.55-.19c.56.47 1.41.63 1.85 1.24.07.09 1.09 2.21.34 1.67a3.18 3.18 0 0 1-.75-1.68c-.68 3.12 3.91 1.14 5 .12-.25.68 3.35-2.41 4.17-1.52.14-.75-.18-1.06-.94-.95 1.31 0 .35-.44 2-1.25 1.39-.68 3.23 0 4.44.64 1.81.9 3.08 2.53 4.47 3.94a17.2 17.2 0 0 0 4.75 3.16c2.53 1.4 2.79 3.23 2.92 5.85a41.11 41.11 0 0 1-.49 5.16c0 .31-.09 2.91-.09 1.32-.58 1.22.83 2 1.4 2.82a7.81 7.81 0 0 0-1.15-1.64c-.2-.15 1.55 1.28 1.62.48.13-1.57 1.68-1-.9-1.6.52-.7.52-.33.08-1.17 1.24.71 1.66 2.4 2.22 1.2a9.64 9.64 0 0 1 .23 2.2c-.24.84-1.5 1.65-.65 1.94-1.39.28-.39 1.31.55 1.85" fill="#1d2b47"/></svg>