<svg data-name="Слой 1" xmlns="http://www.w3.org/2000/svg" viewBox="0 0 250.74 385.45"><path d="M249.79 229.31a2.85 2.85 0 0 0-.88-2.15c-2.8 2.12-5.82 8.73-10.33 6.68s.17-5.29.24-8.65c.09-4.67-3.1-9.51-3.15-14.46-.06-5.86 2.83-9.37 4.17-14.69 1.64-6.5-2.07-12.64-.53-19.11 1.39-5.87 3.62-9.1 2.05-15.49s-3.28-12.32-2.9-19c.17-3 .79-4-.32-6.93-.93-2.46-3-4.28-3.93-7-2-5.82-3.08-10.61-6.39-16-3.4-5.58-7.24-11-9.92-16.92-1-2.12-2.67-4.67-3.44-6.45-.64-1.49-.9-3.37-1.56-5-1.83-4.71-6-7.69-9.22-11.43C185.23 51 176.71 24.94 164.19 0c-6.16 3.15-3.78 9.38-6.51 15.18a26.81 26.81 0 0 1-20.23 14.74c-3.89.57-7.92.38-11.84.67-4.51.33-6.6-.7-10.73-1.7-4.4-1.06-8.44.24-12.78.84-4.95.68-9-.11-13.91-.56C68.2 27.32 61.77 40.82 51 54.75c-4.58 5.89-8.12 8.09-9.53 15.58-.54 2.91-1.32 7.19-.72 10.06.7 3.31 2.08 3.32 4.54 6-5.72-.18-5.39-3-6.36-7.22-1.05-4.59-.12-3.51-4.44-4-5.27-.6-6 1-4.82 6.63.33 1.61.73 3.92 1.79 5.19s1.45-.24 2.34.62c2.06 2 6.52 7.48 5.39 10.69-.94 2.65-3.92 1-3 4.89 1 4.24 13.16 5.73 5.82 10.3 4.41-.85 5.4 4.57 10.19 2.75a3 3 0 0 0 1.45 3.81c-3.64-1-2.29.54-4.56 1.61-.55.26-4.05 5-2.93-.37-2.65.84-5.29-.9-7.93 0 .64 1.93 1.9 4.33 4.4 3.74-.43.61-4.36 4.36-3.51 5a3.69 3.69 0 0 0 2.63-.66c-2.63 2.42-1.15 3.47 1.45 2.95 2-.41 3.44-4 5.52-4.8.06 3.09 5.15 1.25 5.16 1.8s-12.26 7.44-6.18 7.44q-1.14 1.6-2.43 3.09c2.07 1.16 4.95 1.56 5.91-1.24a2 2 0 0 0 .94 2c1.19-.33 1.54-4.42 2.15-5.42a28.16 28.16 0 0 1 2.29 7.79 8.79 8.79 0 0 0-2.91-.65 4.31 4.31 0 0 1 1 1.21h-5c1.17 2.84 5.94 9.19 9.85 7.27s-.5-.93 1-2.34c2-1.9 2.52-2.81 5.54-3.64a4.53 4.53 0 0 1-3.48 2.41c4.35 4.4-7.24 7.84-9.76 8.78a15.4 15.4 0 0 0 3.28 4.29c-4.1-1.63-3.06 2.7-3.92 6.17-1.69-1 0-19.91-5-12.4 1.28-3.33-.22-10.87-4.15-5.28-.66-1.38-1.33-2.74-2-4.1-.62 3-3 5.18-4.77 7.53 1-4.54-4.35-13.21-9.47-13 .42.34 4.93 7.15 5 7.1-1.79 1.64-4.1-2.1-5.3-2.84-.23 3.72 5.29 6.49 6.26 9.93-2.18-.66-2.77-3.37-4.63-4.49a70.7 70.7 0 0 0-2.55 9.6c-1.23-1.07.05-12.88-3.27-9.43-.46-1.26 1.08-3.94.38-4.86-1.1-1.47-4.4-2.08-3.81.9q-2.18-1.95-4.05.26c2.93-.47 3.33 3.12 1.46 1.71-.15.67 9.55 7.31 1.58 8.19a6.24 6.24 0 0 0 2 1.26 6.56 6.56 0 0 0-2.87 2.5 11.57 11.57 0 0 1-1.9-1.93c-1 2.08.35 4.4 1.3 6.16-.92-1.1-5.08-.43-5.07-.4-.9-1.72 1.45-3.28 1.72-5.06.53-3.56-.8-7.06-.15-10.64-3.84.82-.66 4.64-1.71 6.76-1.38 2.77-5.36 2.43-3.75-1.1-3.48.55-2.95 8.23.49 8-1.39 1.39-1.53 1.23-3.48.66 3.83 4.49-1.61 2.17-1.94-.66-.78 3.7-2.9 6.14-2.38 10.1 1.47-1.26 1.49-3.38 1.86-5.11 8.18 3.57-.48 4 .2 6.76.91 3.74 6.78-2.35 8.21-3.06 1.71 4 .48 8.28 1.53 12.35a4.44 4.44 0 0 1 3.45-2.47c-2-2.06-1.64-5.59-3-8 2.72.13 1.7-3.72 4.15-3.41 3.77.47 1.12 7.08.77 8.93 5-1.16 4-6.81 8-9.83 2.18 2.91-.06 1.39.42 4s5 2.92.55 4.63c2.07.9 2.31 3.23 2.11 5.17-4-1.51-3.21 2.23-3.06 4.48.07 1.15 1.42.66 1.51 1.78s-.51 1.51-.47 2.58c.06 1.94-2 4 1 5.07 1.4.49 1.65-2 2.52-2.2 2-.5 3-1.08 5.45-.93-2.53 1.26-8.32 4.27-8.36 7.64 0 1.26 4.26 1 4.75 2.38.86 2.46-2.28 1.8-3.93 3.52a14.59 14.59 0 0 1 5 2.51c-7.1 4.89-.4 6.09 1.45 11-3.24-.85-6.1 1.2-8 3.66 3.47 1.75 6-1.7 9.28 2.6 1.51 2.06 1.51 6 3.51 7.68 4.3 3.68 10-2.56 14.58-4-2 7.88-17.52 3.42-18.19 11.33-.74 8.84 13.84.39 15.76 3.69a25.3 25.3 0 0 1-3.11 2.74 11.89 11.89 0 0 1-3.42-.25c-1.75.91-3.47 0-2.41 2.56 1.19 2.91 7.79 1.59 4.94 6.81-2.07-4.27-6.77-.21-7 3-3.81-3.57-16.17 5.55-15 10.06 1.72 6.59 13.3-2.9 15.47 7-3.74-2.6-10.28-.37-13.92 2.23-5.53 3.95-6.31 9.25-3.08 14.51a5.64 5.64 0 0 1-3.39-2.16c-1.39 1.77-1.78 4.25-2.21 6.38s-2.87 2.92-.26 4a7.21 7.21 0 0 0-5 1.7c6.22-.81 3.73 2.85 6.34 7.55 2.9 5.1 4.9 5.17 2.18 11.35-.78-.77-.78-3.51-1-3.64-1.27-.94-2.73.08-3.7-1.79-1.07-2.06-.11-4.6-1.28-6.68a5.51 5.51 0 0 1-2 3.61c-2.37-8.16-6.71 6-.92 5.18a2.18 2.18 0 0 0 0-2.75c7.71 2.8 2.23 5.85 3.43 10.23a5.89 5.89 0 0 0-3.43 0c1.34 1.33 2.2 2.07.95 3.07 4.82 4 3.53-6.07 8.83-3.82-4.65 3.67-1 4.3-.84 8 .1 1.85-3.23 5.64-2.92 7.36.41 2.35-1.4 1.73 2.43 1.75.95 0 3.88-1.93 6-1.85-.91.83-1 1.54-.31 2.13 5.32-.49.71-8.72 4.63-10 2.73-.92.95 5.28 1.1 6.71 2.14-.4 4.95-.82 6.53 1.19-3.66.48.25.88-2 1.76-1 .39-2.55-.65-3.6-.44-2.78.53-5.53-.24-3.89 4.14-2-.77-14.24-3.43-11.09 2 7.28-6.72 11.43 7.48 17.54 8.2-2.32 1.76-4.88-.32-7-1.19 2.09 3.51-3.26 1.19-4.33.15-2.48-2.38-.59-5.13-5.1-4.94 1.59.93-.11 2.47-.48 4.26 2-1.17 8.43 5 4.11 5.79-5 .93-6.55-6-7.22-9-3.93-17.7-7.06 9.09-2.17 6.91-2.53 1.13-1.12 1.65.66 3.08-.63-.51 2.33.13 2.72.32 1.87.93 1.05 2.5 3 2.92 2.93.62 3.82-2 6.06-2.3 2.06-.29 5.51.54 1.74 2.48a8.31 8.31 0 0 1 2 1.79c-2.43-.23-5.63.47-5.47 3.59 2.41-.84.23.65.74 2.12.2.57 1.43 1.42 1.45 1.53.3 1.5 1-.56 1.1 2.59.07 1.37-2.1 3-2.31 4.54 3.94-1.15 3.64 10 9 3 2.28-2.95 3.17-10.55 8.67-10.77-3.48.14 2.4-3.51 2.72-3.66-1-.84-1.07-8.5 1.11-9.14 3.91-1.14 1.79 5.31 1.91 7 .42 5.43 2.57 4.87 6.9 7.59-1.27-2.88 2.15-3.16 3.33-4.78 2-2.77 2.59-8.09 4.44-11.17a19.14 19.14 0 0 1 8.18-6.9c1.66-.69 3.92-.15 5.43-1 2.43-1.34 2.58-4.71 4-6.8 1.22 2.49 3.5 5.22 6.07 2.25.92 1.81 3 9.21-2 7.6-1.62-.52.32-5.22-2.88-3.88-3.76 1.57 3 11.85-5.23 10.86a11 11 0 0 0 1.49-5.43c-3.31 1.75-9.91 10.29-2.46 10.84-2.25-4.69 4.62-1.15 5.52-.46 2.26 1.73 2.68 6.87 6.41 6.41-2.06-2.12 2-1.44 3.39-2.56 1.76-1.38 2.46-3.95 3.54-5.8-2.13-.3-5.58.91-6.33-2.1-.94-3.75 2.86-2.8 4.86-2.67 1.34.08 5.48 4.09 6.63.47.74-2.33-2.41-3.74-4.19-4.13 4.86.63-2.12-4.56-3.5-6.83-.45-.76.19-2.09-.16-2.86-.11-.24-3.15-1.5-3.22-1.09.4-2.43 3.44-2.24 4.89-3.61a10.18 10.18 0 0 1-4.36-2.07c5-1.45 8.39-.59 11-5.92 1.75 2.81 4.05 10.75 4 13.82 0 2.36-1.86 3.8-.52 6.29 1.21 2.24 3.76 2.16 5.46 3.91 1.18-3.88-3.17-7.38 1.81-9 2.54-.84 3.74 1.32 5.55 1.26a2.66 2.66 0 0 1-1.31-1.23c3.4-1 3.79-8.65 3.79-11.33-1.53.74-4.46 1-6.15 1.46-2.24.61-1.52 1.95-3.95 1.24-2.17-.64-5-6.24-4.44-8.37 1.2-4.93 2.55.19 5 .48 3.84.46 5.73-3.92 5.43-7.22 3 6.35 15.15 5.25 15-2.62a7.46 7.46 0 0 1 2 3.61c2.2-1.74 6.62-1 3.43-4.89 2.58 0 3.67-2.54 4.94-4.27-.92 3.8-3.56 10.13-.5 13.23.71.72 3.53 1.07 4.27 1.42a1.62 1.62 0 0 0 .68 1.82 29.57 29.57 0 0 0 5.55.47c-.86-4.68 2-2.84 4.25-3.06.28 0 .93 1.71 1.83 1.58 1.37-.19 2.58-2.53 3.21-3.5a10.47 10.47 0 0 1 1.64 3.29 2.63 2.63 0 0 0-2.4 1.1c-.19 1.67 5.56 2.93 6.63 3a5.62 5.62 0 0 1-1.67.67c1.24 4.43 7.38-1.91 4.93-4.29-2.21 4.16-2.92-6.69-1.8-7.94s6.49 1.56 4.11-3.45c-1.65-3.5-6.71 1.21-8.79 2.31.8-3.95 4.58-5.13 8-6-2.68-3.21 3.4-2.24 4.81-1.77 2.62.86 5.07 4.61 7.56 3-2-.57-7.25-13.5-4.18-13.22 1.41.12 1.78 5 1.73 6 1.85-.95 3.58 1.12 4.49 2.37a4.6 4.6 0 0 1 1.18-2.42 18.32 18.32 0 0 1 .3 4.18c2.09-1.49 8.05-1.51 6.93 1.19 2.4-1 6.77-.72 8-3.61 1 4.22 3.3.21 5.51-1.14a16.27 16.27 0 0 0 0 9c1.62-1.1 1.61-1.61 2.55-3.55a2.9 2.9 0 0 0 .89 1.19c.13-.79.52-3.25 1.2-3.71 2-1.32 1.76-.19 2.85-.72.2-.09 1.56.45 2.31.1 1.16-.55.34-1.74.68-1.94a15.22 15.22 0 0 1 1.88-2.09c.76-.58 2.74 0 3.71-.54 3-1.77 2.66-4.58 3.72-7.45 2-5.52 7.67-8.31 8.55-14.28.15-1.05-1.18-2.35-1-3.47.08-.43 1.33-.9 1.35-1.12.16-2.25-.72-5.27-.26-6.51 2.1.8 2.44 3.54 2.85 5.37 6.52-3.67 4.49-17.27 6-23.47 1.07-4.58 2-9.22 3.15-13.78s4.69-9.91 2.62-14.62c-.09-.9 2.19 5 0 0" fill="#ee2f48"/></svg>