<svg xmlns="http://www.w3.org/2000/svg" width="524.903" height="372.847" viewBox="0 0 138.881 98.649"><path d="M52.17 97.86c-.493-.53-.997-1.372-1.122-1.869-.125-.497-1.408-2.05-2.851-3.452-1.72-1.67-2.698-2.913-2.836-3.605-.116-.581-.51-1.327-.876-1.658-.366-.331-.665-.897-.665-1.258 0-.658-.088-.885-1.175-3.056-.324-.646-.59-1.405-.59-1.686 0-.282-.237-.603-.528-.715-.291-.112-.53-.396-.53-.631s-.357-.766-.793-1.18a47.065 47.065 0 0 1-1.147-1.118c-1.02-1.06-2.65-2.138-3.236-2.138-1.093 0-2.04-.888-3.954-3.71-1.52-2.24-1.845-3.001-1.986-4.657-.093-1.089-.396-2.231-.675-2.539-.39-.431-.416-.72-.113-1.261.216-.386.384-1.68.372-2.876-.016-1.743-.194-2.407-.898-3.354-.483-.65-1.098-1.956-1.367-2.902-.27-.946-.689-1.796-.931-1.89-.243-.093-.441-.37-.441-.613 0-1.18-4.412-4.765-5.88-4.778-.425-.004-1.036-.73-1.784-2.117-.625-1.161-.962-2.11-.75-2.11 1.045 0-1.737-5.951-2.927-6.262-.448-.117-.654-.495-.654-1.2 0-.602-.226-1.114-.545-1.237-.3-.115-.924-.957-1.387-1.87-.463-.914-1.845-3.14-3.07-4.945-1.227-1.806-2.706-4.114-3.288-5.13-.582-1.016-1.217-2.082-1.41-2.37-.394-.582-3.705-1.082-3.705-.559 0 .182-.153.236-.34.12-.198-.122-.053-.719.35-1.436.379-.675.776-1.9.884-2.721.26-1.993.942-5.552 1.063-5.552.054 0 1.342.238 2.863.53 4.232.809 4.59.75 6.25-1.02.8-.851 1.771-1.974 2.16-2.495.535-.718 1.241-1.058 2.929-1.41 1.223-.256 2.274-.522 2.336-.592.062-.07.373-.642.692-1.269.32-.627 1.067-1.392 1.661-1.7.684-.353 1.01-.744.887-1.064C21.997.071 24.207 0 37.813 0h15.844l2.225 1.874c1.224 1.03 4.174 3.432 6.556 5.336l4.33 3.463 3.078.29c1.693.158 5.557.452 8.587.653 3.03.2 5.767.464 6.082.584.315.121.738.836.94 1.589.47 1.746 1.24 2.138 3.944 2.012l2.184-.102.641 1.705c.353.939.878 1.942 1.166 2.23.288.289.542.712.565.94l.088.93c.046.494 1.018 1.122 2.517 1.625.4.134.525.304.289.393-.29.109-.195.532.311 1.39.423.717.922 1.159 1.192 1.055.256-.098.551.091.657.421.105.33.907 1.05 1.78 1.601 1.632 1.029 2.407 1.8 1.434 1.426-.725-.278-.724.691 0 1.293 1.056.876 1.286 1.705.703 2.538-.3.428-.545.584-.545.346 0-.237-.16-.43-.353-.43-.532 0-.424.955.132 1.168.266.102.59.746.718 1.43.131.701.69 1.677 1.28 2.233.574.543 1.045 1.335 1.045 1.761 0 .862 1.142 3.026 2.254 4.273.62.695.966.786 2.41.63l1.686-.182-.577.88c-.317.485-.516.916-.441.958.075.043.453.252.841.466.389.214.752.693.808 1.064.056.37 1.57 2.498 3.365 4.726 3.694 4.586 2.445 3.989 10.82 5.173 2.426.342 5.629.627 7.118.633l2.707.01 1.477 2.394c1.693 2.743 1.798 1.547-.905 10.306-.898 2.91-1.755 5.53-1.903 5.82-.148.292-1.604.98-3.235 1.53-1.63.55-5.664 1.998-8.963 3.218-7.416 2.745-7.67 2.803-17.711 4.055-7.782.97-8.353 1.094-11.543 2.493-3.555 1.56-4.776 2.6-6.734 5.74-.58.928-1.376 2.196-1.77 2.817-.394.62-1.156 1.283-1.693 1.472-.86.302-1.102.21-2.02-.771-1.005-1.076-1.143-1.115-3.95-1.12-1.6-.003-3.782-.205-4.85-.45-1.64-.377-4.517-.47-11.024-.357a63.06 63.06 0 0 1-2.361-.013c-.669-.019-1.277.151-1.353.378-.075.226-.426.411-.779.411-.395 0-.783.406-1.01 1.059-.242.693-.609 1.058-1.064 1.058-.382 0-.93.09-1.217.2-.303.117-.896-.203-1.417-.765z" fill="#79c7c8" stroke-width=".353"/></svg>