<svg xmlns="http://www.w3.org/2000/svg" width="754.714" height="2829.238" viewBox="0 0 199.685 748.569"><path d="M47.88 748.287c-3.077-.696-5.97-2.796-7.539-5.473-1.818-3.103-2.053-7.648-.558-10.81.447-.945 1.282-2.255 1.855-2.91.887-1.013 1.015-1.308.862-1.984-.355-1.565-.264-3.777.173-4.214.432-.432 1.619-.551 2.124-.214.515.344.9 1.325.9 2.294 0 1.08-.034 1.068 1.696.544 5.257-1.595 11.262 1.239 13.743 6.485 1.111 2.35 1.297 5.69.469 8.418-1.728 5.688-7.847 9.195-13.725 7.864zm5.851-4.387c2.592-1.218 4.445-4.046 4.471-6.824.03-3.218-1.505-5.748-4.35-7.17-1.327-.663-1.95-.812-3.393-.812-3.194 0-6.29 2.12-7.261 4.973-1.536 4.507.922 9.118 5.542 10.395 1.203.333 3.68.054 4.991-.562zm-9.78-26.385c-.792-.529-.942-1.387-.487-2.788.598-1.841 2.572-5.665 3.493-6.77.85-1.016 1.881-1.175 2.717-.418.726.656.65 1.56-.238 2.855-.955 1.392-2.241 3.957-2.678 5.339-.184.582-.516 1.267-.739 1.521-.411.471-1.54.614-2.068.26zm9.154-13.291c-.86-.86-.686-1.95.463-2.897 1.477-1.217 7.156-4.026 7.948-3.93.366.044.912.413 1.215.82.874 1.176.291 1.844-3.143 3.601-1.601.82-3.385 1.815-3.964 2.212-1.255.86-1.81.903-2.519.194zm15.408-5.837c-1.09-.426-1.309-2.42-.333-3.023.452-.279 4.428-.873 7.212-1.077 2.346-.173 2.555-.147 3.08.378.693.693.724 1.724.073 2.375-.368.368-1.077.535-2.844.672a55.027 55.027 0 0 0-6.06.806c-.29.057-.798 0-1.128-.131zm23.618-.162c-.727-.045-2.688-.208-4.356-.36-3.296-.301-3.981-.615-3.974-1.818.009-1.602.861-1.934 4.138-1.615 1.432.139 3.4.256 4.373.26 2.202.01 3.062.32 3.28 1.188.28 1.116-.071 1.913-.985 2.232-.46.16-.906.27-.994.243-.087-.026-.754-.085-1.482-.13zm9.677-1.578c-1.18-1.5-.43-2.289 3.014-3.16 1.45-.366 3.507-.958 4.57-1.315 1.063-.356 2.21-.648 2.548-.648 1.19 0 1.865 1.451 1.229 2.64-.279.52-3.517 1.687-7.323 2.64-2.843.711-3.372.69-4.038-.157zm17.034-6.302c-.65-.65-.81-1.334-.447-1.904.107-.167 1.504-1.167 3.105-2.221 1.6-1.055 3.434-2.317 4.073-2.805.676-.516 1.47-.887 1.9-.887 1.338 0 2.174 1.423 1.468 2.5-.734 1.12-8.013 5.966-8.962 5.966-.268 0-.78-.292-1.137-.649zm14.538-10.665c-.344-.23-.9-1.234-.9-1.625 0-.15 1.102-1.498 2.448-2.994 1.346-1.496 2.908-3.286 3.471-3.977.837-1.027 1.18-1.256 1.877-1.256 1.018 0 1.73.688 1.73 1.67 0 .796-1.78 3.054-4.992 6.333-1.972 2.015-2.775 2.423-3.634 1.849zm11.056-14.266c-.192-.077-.464-.444-.606-.817-.219-.576-.025-1.134 1.3-3.742.855-1.686 1.83-3.759 2.164-4.606.335-.847.884-1.72 1.22-1.94 1.092-.716 2.487.152 2.487 1.547 0 .893-3.056 7.466-4.12 8.86-.652.855-1.469 1.088-2.445.698zm5.923-17.169c-.49-.49-.48-.408-.42-3.322.032-1.609-.131-3.004-.553-4.723-.648-2.645-.587-3.009.619-3.694.596-.339.749-.33 1.374.08.387.254.828.782.98 1.175 1.113 2.88 1.352 9.278.387 10.344-.596.658-1.8.729-2.387.14zm-77.41-7.695c-6.223-.595-6.917-.706-7.546-1.2-.41-.323-.655-.783-.652-1.225.009-1.643.781-1.912 4.23-1.477 1.527.193 3.711.426 4.853.518 1.53.124 2.208.3 2.58.672.715.715.635 1.686-.193 2.337-.675.531-1.117.582-3.272.375zm9.826-.584c-.743-.742-.715-1.498.084-2.297.453-.453.942-.65 1.62-.65.533 0 2.686-.248 4.784-.553 3.532-.512 3.863-.521 4.466-.126.884.58.914 2.082.054 2.646-.706.463-4.638 1.136-8.031 1.376-2.233.157-2.453.128-2.977-.396zm-28.082-2.928c-3.465-1.135-5.884-2.11-6.405-2.582-.578-.523-.619-1.752-.076-2.295.732-.732 1.38-.722 3.343.05a99.6 99.6 0 0 0 4.593 1.627c1.455.474 2.795 1.049 2.976 1.278.483.608.405 1.755-.153 2.26-.665.602-1.648.524-4.278-.338zm45.384-.274c-.561-.62-.615-1.766-.107-2.27.365-.362 9.244-3.56 9.885-3.56.188 0 .608.216.933.479.73.591.777 1.778.096 2.423-.558.528-8.802 3.448-9.734 3.448-.331 0-.814-.234-1.073-.52zm43.684-4.257c-1.832-.982-3.6-1.569-5.934-1.97-1.701-.293-2.425-.543-2.767-.955-.641-.774-.58-1.466.202-2.247.592-.592.804-.645 1.918-.484 2.213.322 5.177 1.164 6.85 1.946 2.62 1.227 3.291 2.232 2.275 3.408-.706.816-1.425.902-2.544.302zm-26.16-.799c-.808-.47-1.077-1.262-.72-2.123.254-.614.598-.85 1.675-1.15 2.616-.731 5.873-1.274 7.823-1.306 1.853-.03 1.992.01 2.356.648.532.935.229 1.962-.683 2.314-.402.155-1.386.361-2.186.458-.8.097-2.87.46-4.6.81-1.73.348-3.16.63-3.176.625-.016 0-.236-.128-.49-.276zm-78.819-1.935c-6.261-3.884-6.985-4.643-5.902-6.188.71-1.013 1.716-.763 4.417 1.098 1.346.928 3.142 2.077 3.991 2.552 1.648.923 2.192 1.684 1.935 2.708-.15.597-1.126 1.261-1.838 1.251-.175 0-1.346-.642-2.603-1.421zm-13.412-10.68c-.787-.836-2.25-2.574-3.252-3.861-2.081-2.676-2.361-3.776-1.162-4.562 1.026-.671 1.819-.29 3.212 1.546.69.909 2.125 2.639 3.19 3.844 2.1 2.379 2.32 3.043 1.322 3.98-1.007.947-1.724.742-3.31-.946zm-8.636-13.658c-.346-.346-.87-1.447-1.165-2.448-1.625-5.512-1.275-9.36.85-9.36 1.215 0 1.625.873 1.664 3.534.027 1.816.208 2.948.725 4.537.83 2.552.856 3.146.166 3.836-.702.702-1.472.668-2.24-.099zm3.827-16.305c-.682-.682-.675-1.706.018-2.398.761-.762 4.922-2.746 7.558-3.605 2.555-.832 3.463-.705 3.877.54.4 1.202-.375 1.978-2.728 2.73-1.088.347-3.168 1.224-4.624 1.948-1.455.725-2.854 1.317-3.108 1.316-.255 0-.702-.24-.993-.531zm17.893-5.784c-.273-.301-.496-.854-.496-1.228 0-1.12.705-1.616 2.785-1.96 2.682-.445 7.58-1.082 8.31-1.082.787 0 1.671.883 1.671 1.669 0 1.343-.445 1.538-5.049 2.208-7.124 1.038-6.661 1.013-7.221.393zm18.771-2.305c-.228-.228-.416-.821-.416-1.317 0-1.443.529-1.608 6.41-1.99 4.956-.323 5.246-.315 5.755.145.62.562.698 1.668.167 2.394-.315.43-.97.552-4.432.83-5.649.452-6.98.441-7.484-.061zm18.833-1.358c-.888-.99-.442-2.583.791-2.823.402-.078 2.918-.279 5.591-.445 4.721-.294 4.876-.288 5.39.227.69.689.684 1.881-.012 2.444-.57.462-1.961.625-7.99.94-3.068.161-3.34.136-3.77-.343zm18.696-1.531c-.535-.817-.322-1.841.49-2.35.781-.49 10.396-1.306 11.08-.94 1.143.612 1.273 2.331.217 2.896-.543.29-7.836 1.05-10.104 1.052-1.042 0-1.323-.11-1.683-.658zm18.974-1.689c-.69-.69-.715-1.374-.079-2.16.427-.526 1.104-.686 5.753-1.355 2.899-.417 5.412-.704 5.587-.637.174.067.516.426.76.799.374.57.393.8.12 1.46-.179.431-.52.844-.76.918-.8.247-6.89 1.182-8.865 1.361-1.77.16-2.006.124-2.516-.386zm18.92-2.963c-.82-.645-.932-1.807-.234-2.426.41-.364 9.76-2.846 10.72-2.846 1.246 0 1.704 2.337.6 3.06-.509.334-9.496 2.76-10.223 2.76-.09 0-.48-.246-.863-.548zm18.417-5.02c-.896-.356-1.262-1.351-.82-2.231.269-.536.957-.967 2.74-1.716 1.31-.55 3.49-1.544 4.846-2.21 2.695-1.323 3.306-1.34 4.006-.111.688 1.208.103 1.864-3.088 3.465-5.056 2.535-6.779 3.164-7.684 2.804zm15.979-9.532c-1.207-.95-.95-1.667 1.4-3.922 1.154-1.106 2.827-2.875 3.717-3.93 1.299-1.538 1.766-1.918 2.36-1.918.936 0 1.615.738 1.615 1.755 0 1.574-6.606 8.558-8.1 8.563-.162 0-.609-.246-.992-.548zm-84.31.071c-.755-.233-1.318-.934-1.318-1.64 0-1.034.65-1.46 3.175-2.082 1.237-.304 3.22-1.042 4.408-1.638 2.395-1.203 3.097-1.242 3.862-.212.793 1.066.228 1.944-2.053 3.19-2.557 1.398-7.01 2.711-8.074 2.382zm-11.523-.858c-3.295-.857-6.056-1.893-6.77-2.539-.93-.841-.48-2.455.797-2.86.268-.085 1.577.266 2.91.78 1.332.515 3.388 1.167 4.57 1.449 1.18.282 2.371.715 2.644.962.935.846.485 2.348-.843 2.815-.228.08-1.717-.193-3.308-.607zm-14.68-6.692c-1.93-1.036-7.443-5.296-7.689-5.941-.33-.868.23-1.935 1.178-2.248.642-.212.912-.127 1.852.581.606.457 2.502 1.855 4.213 3.108 3.304 2.418 3.754 3.038 3.02 4.16-.588.896-1.35.996-2.574.34zm40.134-2.16c-.853-.854-.767-1.398.578-3.637a71.966 71.966 0 0 0 2.295-4.167c1.149-2.316 1.862-3.175 2.635-3.175.911 0 1.732.742 1.732 1.567 0 .848-3.406 7.476-4.564 8.88-.843 1.023-1.962 1.245-2.676.531zm81.075-5.407c-.698-.698-.686-1.086.118-3.907.365-1.28.829-3.453 1.031-4.83.293-1.992.488-2.598.954-2.976.775-.627 1.46-.599 2.15.091.503.504.549.77.421 2.458-.197 2.61-1.435 7.627-2.14 8.678-.718 1.068-1.753 1.267-2.534.486zm-136.136-5.08c-2.511-2.713-5.168-6.311-5.168-7 0-.87.896-1.694 1.837-1.694.645 0 .993.283 2.03 1.653.687.91 1.922 2.428 2.744 3.374 2.405 2.767 2.706 3.256 2.504 4.062-.201.801-.826 1.23-1.793 1.23-.456 0-1.097-.484-2.154-1.625zm63.733-5.914c-.25-.382-.368-.914-.28-1.264.252-1.004 4.89-8.6 5.522-9.042.323-.227.8-.412 1.058-.412.653 0 1.529.94 1.529 1.64 0 .531-4.33 8.179-5.25 9.274-.602.717-2.052.607-2.579-.196zm-72.34-7.356c-1.795-.906-3.805-10.103-2.495-11.413.564-.563 1.857-.525 2.454.073.361.36.526 1.037.632 2.582.092 1.341.453 3.008 1.004 4.637.954 2.82.925 3.666-.146 4.153-.812.37-.646.374-1.45-.032zm146.722-.014c-.372-.272-.668-1.38-1.252-4.696-1.15-6.537-1.15-6.523-.605-7.125.545-.601 1.659-.682 2.359-.17.485.355 1.704 5.737 2.13 9.41.171 1.474.136 1.639-.49 2.264-.751.751-1.414.85-2.142.317zm-64.316-8.23c-.358-.357-.65-.881-.65-1.164 0-.599 4.128-6.502 5.71-8.165.593-.624 1.283-1.134 1.533-1.134.613 0 1.753 1.176 1.753 1.809 0 .431-4.458 6.833-6.065 8.708-.663.774-1.472.755-2.281-.054zm-81.329-8.78c-.301-.383-.548-.924-.548-1.202 0-.664 1.132-1.695 2.778-2.532 2.108-1.072 7.03-2.742 7.572-2.57 1.267.402 1.74 2.021.829 2.836-.255.228-1.713.846-3.241 1.373-1.528.528-3.451 1.372-4.274 1.876-1.792 1.1-2.39 1.142-3.116.22zm141.352-1.404c-.242-.283-.765-1.406-1.163-2.496-.397-1.09-1.27-3.137-1.938-4.548-.669-1.412-1.216-2.73-1.216-2.928 0-1.167 2.17-1.866 2.973-.957 1.118 1.268 4.171 8.444 4.171 9.805 0 1.466-1.89 2.218-2.827 1.124zm-48.154-3.988c-.738-.294-1.228-1.204-1.043-1.94.079-.314 1.795-2.208 3.814-4.208 3.085-3.057 3.797-3.637 4.468-3.637.439 0 .995.218 1.236.484.953 1.054.614 1.628-3.27 5.539-2.038 2.053-3.913 3.791-4.166 3.863-.254.072-.721.027-1.039-.1zm-76.151-.84c-.291-.166-.617-.43-.724-.588-.353-.521-.21-1.653.26-2.07.64-.565 8.923-3.906 9.685-3.906 1.233 0 1.941 1.669 1.161 2.736-.281.385-9.102 4.16-9.664 4.135-.104 0-.427-.143-.718-.308zm16.007-7.358c-.698-.697-.67-1.633.066-2.29.328-.292 2.54-1.47 4.914-2.617 4.109-1.983 4.353-2.066 5-1.698.872.497 1.174 1.324.78 2.135-.373.767-8.382 4.97-9.503 4.988-.4.01-.966-.227-1.257-.518zm98.17-4.511c-1.735-1.392-3.888-2.586-5.698-3.16-1.459-.462-1.72-.725-1.72-1.735 0-1.083.59-1.706 1.613-1.706 2.393 0 8.396 3.493 9.478 5.516.525.98-.45 2.421-1.637 2.421-.204 0-1.12-.601-2.037-1.336zm-24.448.259c-.883-.695-.9-1.654-.043-2.511.844-.844 5.572-3.156 7.904-3.865 1.805-.549 1.812-.55 2.513-.028.86.639 1.024 1.65.386 2.373-.262.296-1.43.864-2.593 1.262-1.164.397-3.203 1.306-4.53 2.02-1.329.713-2.533 1.297-2.677 1.297-.145 0-.576-.246-.96-.548zm-57.8-4.033c-1.176-1.251-.77-1.986 2.032-3.675a231.89 231.89 0 0 0 4.271-2.646c1.092-.698 2.252-1.268 2.58-1.269 1.274 0 2.1 1.696 1.323 2.713-.54.705-8.433 5.49-9.057 5.49-.316 0-.833-.276-1.15-.613zm14.968-9.727c-.309-.18-.463-.596-.463-1.251 0-.94.148-1.1 3.597-3.89 1.978-1.6 3.861-3.075 4.185-3.28 1.286-.81 2.919.544 2.387 1.98-.136.366-1.911 2.026-3.951 3.692-3.811 3.114-4.535 3.46-5.755 2.749zm13.619-11.768c-.388-.272-.588-.685-.588-1.215 0-.643.506-1.361 2.555-3.623l3.45-3.812c1.426-1.58 3.255-1.16 3.255.748 0 1.246-6.473 8.314-7.614 8.314-.259 0-.735-.186-1.058-.412zm11.318-13.876c-.735-.735-.66-1.521.276-2.91.442-.655 1.594-2.5 2.56-4.101 1.863-3.085 1.978-3.22 2.934-3.475.766-.203 1.903.788 1.903 1.66 0 .841-4.503 8.219-5.509 9.025-.61.489-1.563.402-2.164-.199zm8.731-15.61c-.29-.291-.529-.69-.529-.887 0-.504 3.576-9.355 3.972-9.832.77-.929 2.907-.064 2.907 1.176 0 .718-3.356 9.013-3.882 9.594-.573.633-1.809.608-2.468-.051zm-62.335-15c-.616-.451-.904-1.358-.648-2.032.345-.907.88-1.127 3.188-1.308 1.606-.127 2.388-.36 4.101-1.227 1.165-.589 2.366-1.07 2.671-1.07.846 0 1.48.868 1.382 1.891-.07.727-.316 1.034-1.395 1.738-.72.47-2.03 1.107-2.91 1.413-1.67.582-5.874.973-6.39.595zm68.744-1.552c-.83-.58-.757-1.38.595-6.59.767-2.957 1.324-4.606 1.63-4.83.712-.52 1.53-.405 2.205.313.584.621.597.723.295 2.26-.175.886-.728 3.123-1.231 4.972-1.126 4.14-1.896 4.994-3.494 3.875zm-76.707-2.961c-.945-1-2.835-5.09-3.413-7.386-.554-2.198-.337-3.082.826-3.374 1.253-.315 1.812.342 2.718 3.198.454 1.43 1.306 3.398 1.894 4.372 1.203 1.993 1.304 2.625.54 3.388-.744.744-1.747.667-2.565-.198zm21.788-4.254c-.762-.843-.482-1.685 1.617-4.87a282.278 282.278 0 0 0 2.577-3.964c.711-1.148 1.722-1.498 2.624-.907 1.324.868.884 2.113-2.566 7.273-.715 1.068-1.526 2.17-1.804 2.447-.64.64-1.878.65-2.448.021zm58.393-10.513c-.512-.511-.64-.85-.526-1.389.083-.391.234-2.712.335-5.158.167-4.08.228-4.478.728-4.828.824-.577 1.65-.462 2.261.314.48.61.547 1.05.532 3.506-.009 1.545-.112 3.813-.23 5.04-.175 1.842-.316 2.316-.806 2.712-.816.66-1.496.602-2.294-.197zm-84.626-1.966c-.435-.482-.464-.956-.332-5.43.165-5.6.351-6.214 1.883-6.214 1.672 0 1.752.31 1.569 6.07-.144 4.49-.225 5.189-.65 5.615-.64.64-1.872.62-2.47-.041zm34.912-2.24c-.358-.356-.65-.838-.65-1.069 0-.611 4.171-8.671 4.69-9.062.241-.182.693-.331 1.003-.331.662 0 1.716 1.027 1.716 1.674 0 .764-4.195 8.87-4.741 9.162-.8.428-1.312.333-2.018-.373zm49.153-13.306c-.29-.255-.851-1.535-1.249-2.845a45.982 45.982 0 0 0-1.727-4.606c-1.102-2.44-1.09-3.053.074-3.716.547-.311.808-.323 1.38-.064 1.42.648 4.68 8.996 4.104 10.51-.22.576-1.162 1.183-1.837 1.183-.12 0-.455-.208-.745-.463zm-41.017-1.421c-.325-.12-.71-.533-.856-.916-.229-.6-.075-1.056 1.11-3.294.756-1.429 1.92-3.41 2.584-4.404 1.154-1.724 1.256-1.806 2.257-1.806.861 0 1.119.127 1.446.71.473.843.535.697-2.568 6.022-2.165 3.716-2.659 4.174-3.973 3.688zm-40.8-.311c-1.17-.586-.963-2.5.96-8.857.76-2.51 1.465-3.244 2.698-2.81 1.208.425 1.453 1.364.827 3.177-.296.856-.898 2.985-1.338 4.731-.44 1.747-.94 3.312-1.114 3.478-.534.515-1.343.627-2.033.28zm72.099-13.983c-.582-.438-2.309-1.459-3.837-2.268-3.05-1.617-3.44-1.956-3.44-2.995 0-1.046.842-1.683 1.98-1.498 1.378.224 7.98 4.083 8.666 5.065.36.515.207 1.648-.281 2.09-.72.651-1.898.501-3.088-.394zm-21.564.38c-.626-.219-1.058-.91-1.058-1.692 0-1.63 6.293-6.058 8.61-6.058 1.187 0 1.756.622 1.656 1.81-.086 1.024-.126 1.056-2.879 2.244-.812.35-2.25 1.294-3.195 2.096-1.765 1.497-2.443 1.843-3.134 1.6zm-45.059-3.459c-.247-.273-.45-.792-.45-1.154 0-1.134 3.095-5.9 5.515-8.495 1.306-1.4 2.268-1.63 3.077-.736.814.899.574 1.7-1.128 3.76-.879 1.066-2.308 3.068-3.175 4.45-1.447 2.307-1.652 2.52-2.483 2.593-.625.055-1.046-.075-1.356-.418zm14.304-15.159c-.784-.456-1.076-1.262-.746-2.055.298-.714 3.948-3.454 8.154-6.12 2.406-1.526 3.14-1.601 3.926-.402.796 1.215.363 1.764-3.294 4.176-1.872 1.234-4.159 2.793-5.082 3.465-1.728 1.257-2.168 1.396-2.958.936zm17.938-12.474c-.962-1.374-.662-1.775 3.424-4.58 1.456-1 3.337-2.389 4.181-3.087.882-.73 1.803-1.27 2.164-1.27.671 0 1.725 1.104 1.725 1.808 0 .695-2.87 3.231-6.264 5.534-3.502 2.377-4.475 2.673-5.23 1.595zm13.467-14.341c-.362-.553-.376-.865-.101-2.26.407-2.07.168-4.344-.679-6.461-.365-.913-.664-1.9-.664-2.193 0-1.151 1.719-1.833 2.719-1.079.575.434 1.633 2.878 2.01 4.643.579 2.717.234 6.51-.684 7.524-.641.709-2.085.612-2.6-.174zm-9.117-17.917c-.945-.731-3.012-2.12-4.593-3.087-2.985-1.825-3.525-2.451-3.093-3.587.255-.672.768-.962 1.701-.962.576 0 4.576 2.328 7.176 4.177 3.019 2.146 3.624 3.18 2.514 4.29-.85.849-1.81.633-3.705-.831zM83.797 294.89c-4.972-2.692-7.991-4.573-8.189-5.102-.116-.31-.099-.858.037-1.22.577-1.53 1.502-1.417 5.072.618a519 519 0 0 0 4.708 2.655c2.053 1.134 2.407 1.497 2.407 2.462 0 .762-.883 1.671-1.617 1.665-.239 0-1.327-.487-2.418-1.078zM66.925 284.09c-2.894-2.287-6.411-6.972-6.411-8.538 0-.79.805-1.804 1.433-1.804.84 0 1.294.421 2.535 2.348.714 1.11 2.316 3.027 3.56 4.26 1.905 1.89 2.261 2.378 2.261 3.094 0 .894-.756 1.675-1.622 1.675-.246 0-1.036-.466-1.756-1.035zm-6.529-17.545c-.634-.905-.518-1.45.926-4.359 1.061-2.137 1.67-3.003 2.925-4.165 1.646-1.524 2.45-1.901 3.497-1.638.721.18 1.262 1.2 1.056 1.989-.08.304-.71.96-1.403 1.457-1.305.937-2.765 3.045-3.594 5.188-.254.654-.64 1.399-.858 1.653-.58.677-2.037.606-2.549-.125zm48.837-6.52c-.653-.652-.728-1.563-.19-2.3.328-.45.83-.535 4.035-.681 2.013-.092 4.33-.256 5.148-.364 1.315-.172 1.555-.13 2.05.366.635.634.727 1.56.225 2.246-.516.705-2.053.973-6.571 1.143-3.974.15-4.153.135-4.697-.41zm-13.247-.56c-3.327-.403-3.88-.54-4.3-1.057-.611-.755-.609-1.377.007-2.138.582-.719.972-.72 6.894-.02 4.395.52 4.789.698 4.789 2.161 0 1.692-.987 1.833-7.39 1.055zm-14.306-1.6a67.962 67.962 0 0 0-4.432-.222c-2.066-.03-2.53-.117-2.976-.564-.717-.717-.665-1.476.158-2.299l.687-.687 4.142.182c4.46.197 6.075.448 6.425.999.122.192.223.73.226 1.195.005.939-.794 1.699-1.709 1.626-.295-.023-1.43-.127-2.52-.23zm44.47-1.219c-.302-.383-.549-.807-.549-.943 0-.64.69-1.363 2.226-2.333 1.774-1.12 3.695-3.041 4.443-4.442.247-.465.757-.985 1.132-1.155.576-.263.792-.228 1.401.225.396.294.758.791.805 1.104.234 1.576-2.598 5.074-5.771 7.13-2.012 1.302-2.91 1.403-3.688.414zm5.997-15.376c-.228-.254-.71-1.135-1.072-1.956-.361-.82-1.443-2.862-2.404-4.535-.96-1.674-1.747-3.208-1.747-3.41 0-.201.185-.63.412-.954.487-.696 1.976-.808 2.59-.194.494.494 3.656 6.183 4.389 7.896.3.703.546 1.62.546 2.036 0 1.34-1.836 2.097-2.714 1.117zm-9.535-16.8c-.627-.467-4.948-9.088-4.948-9.871 0-1.222 1.568-2.13 2.575-1.49.18.114 1.238 1.988 2.352 4.163a934.236 934.236 0 0 0 2.536 4.93c.427.814.458 1.076.189 1.588-.178.337-.454.7-.614.807-.458.306-1.602.236-2.09-.128zm-7.03-17.892c-1.346-1.346-.716-11.416.763-12.208.785-.42 1.727-.304 2.254.277.456.505.464.67.114 2.58-.206 1.122-.377 3.627-.38 5.567-.007 3.18-.058 3.563-.522 3.902-.71.52-1.64.471-2.23-.118zm4.636-18.245c-.24-.266-.438-.79-.438-1.165 0-.823 1.694-3.134 4.436-6.048 2.717-2.888 3.776-3.406 4.825-2.358 1.008 1.009.706 1.823-1.475 3.976-1.102 1.088-2.611 2.751-3.354 3.697-.742.946-1.53 1.869-1.75 2.05-.586.484-1.74.405-2.244-.152zm14.114-13.01c-.6-.6-.688-1.554-.198-2.162.76-.944 8.934-5.776 9.77-5.776 1.269 0 2.049 2.138 1.078 2.953-.255.213-1.654 1.088-3.11 1.943a150.498 150.498 0 0 0-4.207 2.563c-1.758 1.134-2.562 1.25-3.333.479zm16.993-9.143c-.849-.595-.813-2.075.065-2.65 1.251-.82 9.162-4.082 9.899-4.082 1.339 0 2.114 1.632 1.288 2.712-.182.238-1.224.784-2.315 1.213-1.092.43-3.22 1.33-4.731 2-3.03 1.344-3.35 1.406-4.206.807zm17.763-7.407c-.524-.523-.636-.835-.503-1.39.24-.994.519-1.157 4.18-2.437 1.782-.623 3.68-1.353 4.22-1.623 1.855-.925 3.385-.399 3.385 1.166 0 .83-.523 1.393-1.812 1.954-1.65.717-8.083 3.005-8.449 3.005-.19 0-.65-.304-1.021-.675zm15.515-7.792c-.975-.975-.695-1.836 1.209-3.712.956-.941 2.391-2.575 3.19-3.63 1.224-1.618 1.574-1.918 2.23-1.918.882 0 1.838.81 1.838 1.557 0 .815-2.066 3.665-4.37 6.026-2.329 2.387-3.08 2.695-4.097 1.677zm8.996-14.023c-.623-.622-.634-.9-.129-3.175.21-.946.463-2.96.563-4.474.141-2.156.287-2.861.667-3.242.676-.676 1.448-.607 2.257.202.678.678.685.726.526 3.506-.191 3.337-.99 6.876-1.662 7.368-.684.5-1.615.423-2.222-.185zm-.842-16.602c-.217-.255-.844-1.295-1.393-2.311s-1.64-2.674-2.424-3.683c-1.532-1.971-1.653-2.363-1.015-3.274.722-1.03 1.973-.798 3.266.604 2.169 2.353 4.695 6.85 4.389 7.815-.407 1.283-2.036 1.772-2.823.849zm-13.9-13.6a638.82 638.82 0 0 1-4.573-2.165c-1.372-.675-.806-3.087.725-3.087 1.674 0 9.141 3.75 9.394 4.717.193.737-.454 2.064-1.086 2.23-.355.092-1.943-.511-4.46-1.696zm-14.362-4.333c-1.092-.19-3.026-.487-4.299-.66-2.518-.341-3.639-.938-3.639-1.94 0-.943.733-1.759 1.582-1.759 1.13 0 8.21 1.045 9.202 1.358 1.47.465 1.8 1.694.738 2.756-.726.725-.803.73-3.584.245zm-19.182-3.703c-5.385-1.52-5.481-1.557-6.055-2.326-.502-.672-.516-.794-.158-1.424.627-1.103 1.137-1.3 2.43-.931.626.177 2.804.76 4.84 1.293 2.038.534 3.913 1.148 4.168 1.363.61.518.599 1.958-.02 2.519-.68.615-1.576.53-5.205-.494zm-18.387-6.756c-3.404-1.704-4.314-2.274-4.528-2.837-.34-.897.046-1.81.94-2.217.582-.265 1.155-.05 5.097 1.908 2.443 1.213 4.65 2.38 4.905 2.592.604.504.593 1.693-.02 2.248-.887.802-1.989.51-6.394-1.694zm-12.557-8.65c-1.901-1.883-3.653-4.137-4.53-5.827-.549-1.058-.618-1.412-.393-2.002.15-.395.541-.818.87-.94 1.058-.39 1.866.152 3.03 2.037.609.985 2.018 2.78 3.131 3.99 1.752 1.902 2.002 2.293 1.856 2.9-.211.877-.829 1.363-1.732 1.363-.494 0-1.144-.443-2.232-1.521zm-6.7-14.501c-.533-.373-.589-.634-.589-2.749 0-2.24.51-5.786 1.097-7.637.325-1.024 1.227-1.482 2.194-1.114 1.176.447 1.278 1.059.687 4.12-.296 1.536-.538 3.624-.538 4.642 0 1.612-.084 1.935-.65 2.5-.75.751-1.373.818-2.202.238zm2.734-16.845c-.227-.323-.412-.801-.412-1.062 0-.828 2.624-8.47 3.082-8.977.734-.811 2.16-.508 2.744.583.225.421-.013 1.415-1.182 4.925-.805 2.418-1.599 4.56-1.764 4.758-.488.589-1.994.45-2.468-.227zm6.263-14.819c-.67-.323-.991-1.22-.758-2.122.084-.327 1.031-2.202 2.104-4.167 1.332-2.44 2.165-3.677 2.629-3.905a1.664 1.664 0 0 1 2.224 2.281c-1.83 3.51-4.226 7.64-4.59 7.908-.53.392-.806.393-1.61.01zm8.141-14.226c-.742-.743-.659-1.616.265-2.778.436-.55.794-1.055.794-1.124 0-.07-.42-.975-.931-2.014-3.52-7.145.692-15.443 8.551-16.847 3.43-.613 7.357.584 9.897 3.018 2.651 2.54 3.768 5.354 3.584 9.03-.192 3.842-1.664 6.715-4.571 8.924-3.548 2.697-8.919 3.059-12.717.858l-1.08-.626-.932 1.044c-1.062 1.19-2.013 1.361-2.86.515zm14.318-4.412c1.59-.892 3.18-2.775 3.64-4.31.512-1.71.37-4.212-.325-5.698-.704-1.503-2.561-3.335-4.055-3.998-1.561-.693-4.669-.638-6.203.11-2.82 1.374-4.58 4.156-4.555 7.202.024 3.078 1.528 5.426 4.407 6.882 1.499.758 1.807.82 3.651.72 1.626-.088 2.29-.263 3.44-.908z" fill="#00679a" stroke-width=".265"/></svg>