<svg id="Слой_1" data-name="Слой 1" xmlns="http://www.w3.org/2000/svg" viewBox="0 0 108.85 11.08"><defs><style>.cls-1{fill:#9a1648}</style></defs><path class="cls-1" d="M119.71 1454.5l-2.06-1 2.06-1 2.06 1zm11.7-1.47l-4.31-2-1 .49-2.06-1 1-.48-4.3-2-1 .49-1-.49-4.31 2 1 .48-2.06 1-1-.49-4.3 2 1 .49-1 .49 4.3 2 1-.49 2.06 1-1 .48 4.31 2 1-.49 1 .49 4.3-2-1-.48 2.06-1 1 .49 4.31-2-1-.49zM137.77 1454.64a.75.75 0 0 0 0 .43c.15.4.85.48 1.46.48s1.37-.11 1.48-.59-.37-.44-2.13-.76-3.47-.58-3.19-1.9c.33-1.51 2.56-2.17 4.74-2.17s4.23.55 4 2.14H141c.11-.24 0-.41-.27-.52a2.27 2.27 0 0 0-.93-.16c-.45 0-1.19.07-1.27.44s1.45.57 2.9.82 2.84.69 2.58 1.89c-.37 1.71-3 2.26-5.39 2.26-1.2 0-4.58-.26-4.16-2.36zM154.41 1454.31c-.39 1.82-2.17 2.69-5.41 2.69s-4.65-.87-4.26-2.69l.86-4h3.27l-.77 3.57c-.14.67-.32 1.51 1.27 1.51s1.72-.84 1.86-1.51l.77-3.57h3.27z" transform="translate(-108.01 -1447.98)"/><path class="cls-1" d="M48.15 2.31h4.65l.69 3.86h.03l2.34-3.86h4.65L59.1 8.87h-3.08l.9-4.21h-.03l-2.75 4.21h-2.43l-.94-4.21h-.03l-.9 4.21h-3.1l1.41-6.56zM61.3 2.31h3.27l-1.41 6.56h-3.27l1.41-6.56zM67.99 3.99h-2.97l.36-1.68h9.21l-.36 1.68h-2.97l-1.04 4.88h-3.27l1.04-4.88z"/><path class="cls-1" d="M186.67 1455.37a2.39 2.39 0 0 0 2.5-1.8c.31-1.46-.9-1.8-1.73-1.8a2.38 2.38 0 0 0-2.49 1.8c-.32 1.46.89 1.8 1.72 1.8m1.12-5.24c3.23 0 5.07 1.44 4.64 3.44s-2.89 3.43-6.11 3.43-5.07-1.43-4.64-3.43 2.89-3.44 6.11-3.44" transform="translate(-108.01 -1447.98)"/><path class="cls-1" d="M85.75 2.31h4.65l.69 3.86h.03l2.34-3.86h4.65l-1.4 6.56h-3.09l.9-4.21h-.03l-2.74 4.21h-2.44l-.94-4.21h-.03l-.9 4.21h-3.09l1.4-6.56z"/><path class="cls-1" d="M211 1455.37a2.38 2.38 0 0 0 2.49-1.8c.31-1.46-.89-1.8-1.72-1.8a2.38 2.38 0 0 0-2.5 1.8c-.31 1.46.89 1.8 1.73 1.8m1.12-5.24c3.22 0 5.07 1.44 4.64 3.44s-2.89 3.43-6.11 3.43-5.08-1.43-4.65-3.43 2.89-3.44 6.12-3.44" transform="translate(-108.01 -1447.98)"/></svg>