<svg xmlns="http://www.w3.org/2000/svg" width="799.061" height="163.366" viewBox="0 0 211.418 43.224"><path d="M130.588 42.876c0-.178-.178-.472-.396-.653-.51-.423-.504-1.143.019-2.155.49-.946.772-.866.4.113-.327.859.167 1.334 1.218 1.172.712-.109.718-.122.148-.314-1.222-.412-.287-1.3 1.218-1.156.956.091 1.027.05.997-.567-.017-.366.084-.725.226-.797.382-.196.772 1.14.569 1.947-.138.549-.336.699-.923.699-.412 0-.963.237-1.227.529-.263.29-.668.538-.9.55-.274.013-.306.068-.092.154.666.269.34.848-.463.825-.438-.012-.794-.168-.794-.347zm56.445-.539c-.22-.574.34-1.115.74-.714.34.339.13 1.13-.3 1.13-.154 0-.352-.188-.44-.416zm-52.599-.1c-.098-.157.042-.279.322-.279.271 0 .718-.164.992-.364.469-.343.472-.392.051-.813-.555-.555-.563-.922-.036-1.674.579-.827.845-.736 1.157.395.393 1.423-.31 2.82-1.478 2.934-.46.045-.913-.044-1.008-.198zm15.36.023c-.233-.377.248-.768.903-.733.92.048.867.801-.06.872-.398.03-.777-.032-.843-.139zm15.19-.17c0-.264.265-.396.794-.396.53 0 .794.132.794.397 0 .264-.265.396-.794.396-.53 0-.794-.132-.794-.396zm4.564.222c-.49-.198-.4-.618.133-.622.254-.002.641-.124.86-.27.344-.23.332-.303-.089-.55-.363-.214-.44-.463-.31-.986.369-1.467 1.08-1.769 1.477-.627.169.485.46.752.846.779.521.036.535.01.124-.223-.37-.211-.407-.371-.18-.795.37-.693 1.354-.56 1.7.228.294.67.93.806.93.199 0-.621.478-.465.609.198l.117.595.197-.595c.233-.706.66-.79.672-.132.008.44.02.44.278 0 .34-.586.82-.604.718-.028-.043.24.087.494.29.564.292.102.341-.146.238-1.213-.154-1.612.084-2.176.673-1.588.284.284.363.74.272 1.565-.276 2.49.081 2.278-3.832 2.27-3.47-.007-3.482-.005-3.995.7-.49.672-.994.827-1.728.531zm15.332-.297c.11-.572 1.37-.592 1.479-.024.058.302-.145.422-.742.439-.629.017-.801-.08-.737-.416zm3.652.076c-.274-.33-.241-.397.191-.397.848 0 1.426-.847 1.233-1.81-.173-.865.211-1.163.614-.474.116.2.509.45.873.559.528.157.597.13.343-.138-.423-.445.034-1.312.692-1.312.604 0 1.187.664 1.004 1.143-.078.202.037.356.266.356.33 0 .373-.25.239-1.395-.183-1.559.064-1.935.764-1.161.376.415.405.595.146.907-.178.214-.25.617-.162.896s.043.816-.1 1.194c-.25.655-.345.684-2.058.63-1.7-.054-1.82-.018-2.255.67-.506.802-1.28.946-1.79.332zm13.875.008c-.5-.38-.499-.39.082-.397.872-.013 1.732-.955 1.413-1.55-.159-.298-.16-.613 0-.854.213-.326.291-.314.523.08.339.574 1.57.626 1.57.066 0-.644.527-.453.547.199l.018.595.287-.595c.158-.328.388-.596.511-.596s.232.268.241.596l.017.595.24-.595c.3-.747.679-.765.868-.04.269 1.026.647.28.438-.863-.188-1.028-.107-1.81.187-1.81.506 0 .825.846.71 1.88-.274 2.481-.144 2.35-2.282 2.309-3.051-.06-3.255-.02-3.586.706-.34.746-1.021.85-1.784.273zm-54.973-.053c-.22-.22-.231-1.755-.016-2.315.264-.689.506-.476.503.44-.002.743.097.872.727.945.837.096 1.175-.435.765-1.202-.338-.63-.002-1.202.575-.98.275.105.5.01.602-.256.265-.69.565-.489.75.502.203 1.08.59 1.196.938.28.255-.67 1.213-1.357 1.409-1.009.275.49.434 1.652.28 2.05-.12.314-.352.391-.818.274-.358-.09-.817-.025-1.019.143-.55.455-1.169.091-1.169-.687 0-.93-.406-.611-1.036.812-.47 1.062-.611 1.18-1.418 1.18-.494 0-.976-.08-1.073-.177zM37.72 39.973V37.99h.934c.584 0 .991.148 1.086.395.127.332.257.311.826-.137.62-.487.725-.497 1.295-.123.342.223.621.285.621.136 0-.15.357-.27.794-.27.436 0 .794.125.794.279 0 .159.245.108.57-.12.413-.29.705-.327 1.064-.135.569.305 1.011.113 1.011-.437 0-.466.782-.515.823-.05.017.181.054 1.014.084 1.851.046 1.313-.012 1.522-.426 1.522-.384 0-.48-.213-.48-1.059 0-.611-.127-1.058-.3-1.058-.195 0-.251.359-.16 1.032.132.992.105 1.038-.694 1.16-.457.07-.98.007-1.162-.139-.409-.33-.432-1.166-.038-1.41.206-.126.19-.244-.053-.394-.517-.32-.769-.046-.769.833 0 .87-.697 1.348-1.08.742-.15-.235-.236-.256-.238-.056-.008.613-1.082.688-1.688.118l-.581-.546-.34.543c-.19.306-.504.479-.719.396-.252-.096-.38.03-.38.375 0 .287-.18.52-.397.52-.318 0-.397-.396-.397-1.984zm1.388-.198c.157-.43-.042-.992-.352-.992-.133 0-.243.297-.243.661 0 .69.384.904.595.331zm2.509.17c-.088-.087-.316-.096-.507-.02-.211.084-.149.147.16.16.278.011.435-.051.347-.14zm0-1.057c-.088-.088-.316-.098-.507-.021-.211.084-.149.147.16.16.278.011.435-.051.347-.14zM.404 40.625c-.297-.296-.468-.653-.382-.793.208-.337.92-.33.92.01 0 .145.18.264.397.264.65 0 .45-.506-.271-.687-.804-.202-1.211-.87-1.006-1.654.283-1.084 2.206-1.04 2.421.054.093.473-.608.609-.879.17-.216-.348-.661-.34-.661.014 0 .153.347.4.772.548.425.148.84.447.924.664.084.218.285.314.447.213.215-.133.213-.232-.007-.368-.418-.258-.089-.99.515-1.149.797-.208 1.266.382 1.361 1.712.086 1.195.063 1.24-.705 1.359-.447.069-.967-.029-1.19-.224-.329-.287-.486-.282-.911.03-.698.512-1.11.474-1.745-.162zm5.145.081c-.21-.21-.373-.892-.373-1.565 0-.978.08-1.175.45-1.104.299.058.453.35.462.88.018 1.034.539 1.034.557 0 .017-.99.902-1.326.929-.352l.017.615.239-.596c.219-.544.508-.704.954-.529.092.037.27-.211.396-.551.433-1.169.887-.48.968 1.467l.077 1.865-.815.12c-.847.124-1.426-.17-1.67-.85-.095-.267-.148-.212-.162.168-.026.707-1.45 1.01-2.029.432zm3.596-1.262c0-.363-.12-.661-.265-.661-.145 0-.265.298-.265.661 0 .364.12.662.265.662.146 0 .265-.298.265-.662zm8.24 1.388c-.385-.386-.391-1.17-.01-1.405.206-.127.19-.245-.053-.395-.535-.33-.769-.039-.769.957 0 .886-.029.91-1.058.91-.765 0-1.059-.11-1.059-.396a.402.402 0 0 0-.405-.397c-.223 0-.474.178-.557.397-.084.218-.37.397-.635.397-.466 0-.465-.059.007-1.711.577-2.016.706-2.258 1.202-2.258.23 0 .537.587.797 1.521.606 2.177.606 2.176.629.794.02-1.215.047-1.257.814-1.257.437 0 .794.126.794.28 0 .157.254.101.582-.128.514-.36.652-.362 1.174-.02.558.365.596.347.675-.315.103-.871.728-1.126.924-.377.08.305.246.492.37.415.123-.076.467.104.763.4.488.488.542.495.57.076a6.822 6.822 0 0 0-.02-.95c-.037-.34.092-.458.432-.392.266.052.5.27.519.486.02.216.05.548.066.739.024.272.15.262.59-.047 1.056-.739 1.812-.078 1.818 1.589.004 1.033-.045 1.102-.856 1.225-.473.072-.98.06-1.125-.028-.145-.087-.532-.124-.86-.082-.397.052-.595-.06-.595-.338 0-.345-.089-.327-.515.099-.41.41-.676.468-1.303.288-.433-.124-.827-.194-.874-.156-.335.273-1.781.33-2.032.08zm3.666-1.388c0-.363-.12-.661-.265-.661-.145 0-.264.298-.264.661 0 .364.119.662.264.662.146 0 .265-.298.265-.662zm2.513-.132c.09-.145.038-.265-.116-.265s-.28.12-.28.265c0 .146.052.265.116.265s.19-.12.28-.265zm-9.392-.265c0-.145-.053-.264-.117-.264s-.19.119-.28.264c-.09.146-.038.265.117.265.154 0 .28-.119.28-.265zm15.944 1.713c-1.371-.961-.835-3.83.716-3.83.497 0 .918.21 1.182.585.53.757.1 1.273-.572.688-.678-.591-1.13-.303-1.13.719 0 1.072.396 1.385 1.029.813.615-.557.822-.534.822.091 0 .283-.264.7-.588.926-.723.507-.746.507-1.459.007zm2.75-.08c-.662-.731-.565-2.066.186-2.559.741-.485 1.329-.318 1.685.479l.259.58.181-.571c.442-1.39 2.278-.744 2.278.8 0 1.222-.816 1.95-1.72 1.538-.364-.165-.665-.512-.67-.77-.006-.414-.042-.407-.307.061-.586 1.032-1.223 1.181-1.892.442zm1.15-1.258c0-.829-.622-.738-.747.11-.056.38.055.574.331.574.27 0 .415-.24.415-.684zm2.513.022c0-.267-.149-.534-.33-.595-.21-.07-.331.148-.331.595 0 .447.12.665.33.596.182-.061.331-.329.331-.596zm15.406 1.39c-.24-.183-.544-.63-.676-.993-.239-.66-.239-.66-.428.199-.306 1.394-1.055 1.138-1.547-.53l-.41-1.389-.02 1.39c-.017 1.048-.12 1.388-.419 1.388-.317 0-.397-.396-.397-1.984 0-1.587.08-1.984.397-1.984.22 0 .397.235.397.529 0 .342.176.529.498.529.282 0 .584.258.695.595l.197.596.117-.596c.07-.358.31-.595.603-.595.362 0 .457.152.371.595-.112.58-.108.582.135.037.318-.709.986-.97 1.619-.631.896.48.973 2.194.127 2.813-.607.443-.709.446-1.259.03zm1.059-.888c-.088-.088-.316-.097-.507-.021-.211.084-.149.147.16.16.278.011.435-.051.347-.14zm2.105 1.047c-.1-.1-.181-1.055-.181-2.122 0-1.777.045-1.94.54-1.94.504 0 .535.137.463 2.029-.07 1.855-.338 2.517-.822 2.033zm3.986-.115c-.514-.299-.632-1.037-.166-1.037.21 0 .203-.113-.022-.384-.384-.463-.147-1.359.415-1.575.643-.247 1.496.34 1.344.923-.073.279-.025.573.107.655.132.081.24-.216.24-.662 0-.633.115-.809.53-.809.441 0 .528.176.528 1.074 0 .649.105 1.01.265.91.145-.09.264-.573.264-1.074 0-.632.121-.91.397-.91.304 0 .397.335.397 1.425 0 1.39-.02 1.428-.817 1.545-.495.073-.965-.027-1.19-.253-.322-.322-.432-.316-.79.042-.478.479-.85.51-1.502.13zm6.475-.026c-.423-.422-.418-1.538.007-1.548.182-.004.122-.13-.135-.279-.67-.39-.99-.078-.99.964 0 .633-.12.91-.397.91-.304 0-.397-.338-.397-1.455 0-1.44.008-1.455.794-1.455.457 0 .796.14.798.33.003.223.068.238.198.048.329-.48 1.048-.622 1.48-.294.228.175.453.84.508 1.504l.099 1.19.046-1.359c.044-1.304.08-1.364.863-1.479.82-.12 1.547.312 1.581.939.01.171.118.06.243-.247.305-.756 1.252-.972 1.81-.414.415.415.474.414.907-.02.559-.558.743-.57 1.392-.096.66.482.641 2.238-.029 2.728-.631.462-.807.438-1.435-.19-.436-.435-.563-.464-.682-.153-.337.88-1.577.747-1.963-.209-.221-.546-.226-.544-.243.057-.012.439-.149.589-.48.524-.331-.065-.467-.352-.476-1.012-.018-1.19-.49-1.085-.598.132-.076.864-.146.932-.97.932-.49 0-1.05.062-1.249.138-.198.076-.505-.007-.683-.186zm6.161-1.015c.092-.148.277-.2.413-.117.442.273.258-.208-.217-.569-.675-.512-.86-.449-.86.293 0 .671.36.884.664.393zm4.892.798c-1.143-1.144-.471-3.704.972-3.704.569 0 1.41.762 1.41 1.277 0 .441-.668.384-1.061-.09-.652-.784-1.337.418-.895 1.57.207.541.795.538 1.004-.007.093-.242.332-.36.557-.273.24.092.395 0 .395-.237 0-.44.92-1.447 1.323-1.447.505 0 1.322 1.063 1.322 1.72 0 .658-.817 1.72-1.322 1.72-.146 0-.514-.249-.818-.553l-.553-.554-.516.554c-.646.693-1.142.7-1.818.024zm3.97-1.19c0-.365-.107-.662-.237-.662-.309 0-.602.773-.41 1.082.288.466.646.233.646-.42zm57.287 1.366c-.209-.69-.37-3.13-.23-3.492.296-.773.621-.363.621.783 0 .713.163 1.335.416 1.588.54.54 1.088.556.643.019-.264-.317-.261-.48.01-.807.506-.609 1.417-.372 1.575.41.177.87 1.156.92 1.277.066.112-.786.577-.768.577.022 0 .392.156.617.428.617.361 0 .403-.218.264-1.395-.181-1.548-.013-1.83.76-1.264.418.305.461.472.223.854-.163.262-.238.781-.167 1.155.072.374.004.915-.15 1.202-.252.47-.57.524-3.217.536-2.017.01-2.966-.082-3.03-.294zm16.896-.03c-.08-.211-.107-1.164-.058-2.118.065-1.258 0-1.733-.24-1.733-.404.001-.44-.695-.05-.936.488-.301.554-.123.9 2.431.155 1.154.28 1.38.81 1.482.477.092.647-.009.707-.415.044-.294.238-.588.432-.652.233-.076.322.07.264.43-.048.301.002.553.111.56.634.038.701-.056.558-.773-.184-.917.066-2.126.44-2.126.142 0 .26.446.263.992.005 1.277.25 2.183.592 2.183.172 0 .209-.526.101-1.44-.188-1.6.054-1.984.76-1.205.375.416.404.595.145.907-.178.214-.25.618-.162.896.088.28.043.818-.102 1.198-.236.622-.39.687-1.528.65-.696-.022-1.404-.145-1.572-.272-.182-.136-.378-.117-.48.047-.257.417-1.721.335-1.89-.106zm9.253-.02c-.106-.278-.253-.323-.469-.144-.408.339-1.476.057-1.476-.39 0-.19.277-.682.616-1.093.34-.411.693-.956.786-1.211.279-.764.714-.523.719.397.005 1.14.229 1.425 1.236 1.569.796.114.835.08.7-.593-.078-.392-.017-.79.136-.885.452-.28.897.878.714 1.855-.165.879-.197.898-1.488.898-.938 0-1.364-.116-1.474-.403zm-.358-1.449c0-.145-.052-.265-.116-.265-.065 0-.19.12-.28.265-.09.146-.038.265.116.265s.28-.12.28-.265zm3.75 1.275c.058-.408.293-.643.704-.7.587-.084.595-.113.166-.586-.259-.287-.378-.687-.28-.941.156-.408.212-.404.706.042.404.366.516.75.457 1.558-.074 1.002-.136 1.077-.96 1.156-.788.076-.871.02-.793-.529zm16.467.274c-.084-.136-.364-.18-.623-.098-1.297.411-1.782-.79-.722-1.794.338-.32.699-.811.802-1.09.256-.694.641-.237.747.886.068.729.225.946.79 1.096.6.16.73.092.866-.445.198-.79.613-.823.725-.06.062.42.28.582.812.604.816.035.824.026.482-.613-.327-.612.095-1.35.526-.919.321.321.414 1.99.136 2.44-.207.336-4.333.33-4.54-.007zm15.59-.116c-.125-.324-.21-.342-.37-.081-.162.261-.358.27-.869.037-.799-.364-.692-1.15.258-1.896.345-.273.628-.627.628-.788 0-.28-.161-.34-1.058-.4-.702-.046-.425-.757.327-.837.853-.09 1.002.105 1.392 1.836.277 1.23.345 1.309 1.154 1.332l.86.025-.699-.557c-.967-.771-.804-1.682.406-2.273 1.203-.586 1.323-.581 1.323.059 0 .33-.259.634-.676.793l-.676.257.647.86c.494.658.593 1.002.42 1.457-.195.509-.422.595-1.567.595-.979 0-1.383-.113-1.5-.419zm-189-1.83c0-1.508.087-1.984.364-1.984.273 0 .373.495.402 1.984.031 1.617-.036 1.985-.364 1.985-.324 0-.402-.385-.402-1.985zm15.345.794c0-.655-.007-1.28-.015-1.39-.026-.327 1.172-.528 1.67-.279.62.312.68 2.86.065 2.86-.286 0-.397-.294-.397-1.059 0-.582-.119-1.058-.264-1.058-.146 0-.265.476-.265 1.058 0 .765-.11 1.059-.397 1.059-.294 0-.397-.31-.397-1.191zm30.427-.28v-1.472l.993.082.992.082.08 1.39c.064 1.113-.002 1.389-.33 1.389-.304 0-.412-.279-.412-1.059 0-.582-.119-1.058-.264-1.058-.146 0-.265.476-.265 1.058 0 .765-.11 1.059-.397 1.059-.305 0-.396-.34-.396-1.472zm36.248.602v-.869l2.977-.317c1.637-.175 3.957-.515 5.156-.756l2.18-.439-1.954-.85c-3.263-1.418-6.863-3.858-8.584-5.818-.69-.786-.87-.878-1.007-.52-.12.312.379.945 1.756 2.23 1.735 1.619 2.258 2.568 1.373 2.493l-.8-.067c-.538-.043-1.501-.864-2.22-1.892-.444-.635-.445-.622-.019.328.567 1.265.3 1.513-.924.857-1.365-.731-2.22-2.46-2.114-4.278l.08-1.374-.606.57c-.333.313-.734 1.08-.891 1.704-.158.625-.377 1.135-.487 1.135-.971 0-1.06-3.462-.117-4.529l.513-.58-.712.458-.712.458-.18-.956c-.312-1.667.98-2.483 2.53-1.598.935.535.972.515 1.156-.637.253-1.58 1.385-2.405 3.303-2.405 1.42 0 2.685.49 2.685 1.039 0 .119-.597.295-1.326.391-1.66.22-2.114.392-2.114.801 0 .234.428.183 1.543-.183 1.97-.645 3.407-.327 4.791 1.06 1.034 1.038.826 1.367-.558.884-1.169-.407-2.478-.357-2.865.109-.182.218-.702.413-1.157.433-.455.02-.1.12.79.221.903.103 2.024.435 2.535.751.888.55 2.063 2.257 1.76 2.56-.082.082-.672-.073-1.311-.345-2.357-1.002-2.68-.825-.5.274 1.236.623 2.248 1.252 2.248 1.397 0 .516-1.925.438-3.024-.122-1.674-.854-1.272-.434.848.888 2.292 1.428 6.597 3.475 8.226 3.911 1.03.275 1.36.24 2.85-.299 2.16-.783 5.978-2.694 7.802-3.905 1.683-1.118 1.826-1.351.374-.61-.576.294-1.469.534-1.984.534-1.593 0-1.127-.685 1.246-1.833 1.2-.581 2.112-1.061 2.026-1.067-.153-.01-2.548.803-3.481 1.182-.762.309-.557-.538.393-1.62 1.053-1.2 2.145-1.676 3.964-1.731 1.071-.032 1.181-.068.472-.153-.51-.062-1.022-.28-1.138-.487-.277-.492-2.049-.489-3.23.005-1.27.53-1.421.063-.333-1.026 1.34-1.338 2.801-1.648 4.756-1.007.854.28 1.611.415 1.682.3.205-.331-.735-.719-2.22-.916-.754-.1-1.37-.279-1.37-.397 0-1.01 3.84-1.454 4.93-.57.728.589 1.156 1.437 1.156 2.291 0 .774.135.81 1.058.282 1.539-.88 2.842-.069 2.534 1.576l-.176.935-.706-.462-.706-.461.565.794c.722 1.014.981 2.708.542 3.55-.396.762-.994 1.03-.994.446 0-.727-.843-2.549-1.289-2.787-.379-.202-.431-.012-.431 1.55 0 1.525-.102 1.915-.712 2.713-.672.88-2.184 1.774-2.487 1.47-.077-.076.04-.568.26-1.093.513-1.228.397-1.206-.46.09-.489.738-.981 1.124-1.681 1.317-2.03.56-1.745-.496.705-2.619.908-.786 1.597-1.6 1.597-1.886 0-.276-.031-.503-.069-.503-.037 0-.863.761-1.835 1.691-2.026 1.938-4.89 3.804-7.752 5.047l-1.98.861 2.18.439c1.199.241 3.52.581 5.156.756l2.977.317v1.815l-2.245-.172c-2.166-.167-8.868-1.452-10.158-1.949-.455-.175-1.407-.042-3.451.485-3.056.787-7.766 1.558-9.514 1.558-1.056 0-1.09-.027-1.09-.868zm7.4-.888c1.96-.365 3.747-.781 3.97-.925.292-.19.184-.215-.39-.091-3.676.793-5.859 1.197-7.627 1.414-1.14.14-2.138.32-2.219.401-.25.25 2.535-.105 6.267-.8zm17.933.807c-.085-.085-1.087-.27-2.227-.409-1.768-.217-3.95-.621-7.627-1.414-.574-.124-.682-.099-.39.09.82.53 10.715 2.205 10.244 1.733zm-11.91-2.385c-.088-.088-.317-.098-.508-.021-.21.084-.148.147.16.16.28.011.435-.051.347-.14zm-3.5-1.264c-2.514-1.034-3.986-1.773-5.954-2.988-.867-.536-1.16-.65-.725-.283 1.41 1.191 7.35 4.116 8.398 4.135.218.004-.556-.385-1.72-.864zm7.242-.002c2.292-.966 5.474-2.671 5.715-3.061.082-.133-.678.238-1.69.823-1.01.586-2.947 1.527-4.304 2.091-1.356.565-2.326 1.03-2.156 1.035.17.004 1.266-.395 2.435-.888zm8.632-5.313c.585-.535.26-.347-.727.42-.983.762-1.786 1.433-1.786 1.49 0 .172 1.393-.887 2.513-1.91zM94.87 32.342c0-.05-.268-.318-.596-.596l-.595-.504.504.596c.474.56.687.715.687.504zm-1.323-1.053c0-.048-.328-.375-.728-.728l-.727-.642.64.728c.6.68.815.849.815.642zm51.448 8.159c-.195-1.298.006-2.517.415-2.517.145 0 .26.818.26 1.852 0 2.08-.403 2.477-.675.665zm34.711-.03c-.179-1.306.005-2.487.388-2.487.13 0 .236.833.236 1.852 0 2.094-.372 2.473-.624.635zm15.866.799c-.207-.54-.208-2.327 0-2.866.324-.846.633-.076.633 1.58 0 1.62-.284 2.196-.633 1.286zm15.098-.938c-.1-.846-.043-1.568.153-1.918.287-.516.329-.464.503.628.204 1.269.053 2.646-.288 2.646-.114 0-.28-.61-.368-1.356zm-62.437-.931c-.364-.364-.175-.925.28-.838.256.05.464.257.464.46 0 .419-.467.655-.744.378zm58.149-.06c-.398-.397-.026-.761.737-.723 1.098.056 1.21.815.123.834-.406.007-.793-.043-.86-.11zm-72.765-.586c-.273-.442.34-.947.705-.582.306.305.115.87-.294.87-.128 0-.313-.13-.411-.288zm7.436.045c-.232-.376.281-.721 1.045-.703 1.133.027 1.07.783-.07.84-.475.024-.913-.037-.975-.137zm14.776-.066c-.36-.581.266-.76 1.805-.516.104.017.129.19.055.383-.148.384-1.639.49-1.86.133zm6.101-.24c-.267-.431.132-.744.877-.687.407.032.722.214.722.418 0 .413-1.368.644-1.599.27zm19.845.003c-.268-.434.13-.747.876-.69.43.033.722.211.722.441 0 .435-1.353.646-1.598.249zm24.892-.23c-.195-.317.302-.63.655-.413.296.183.102.66-.269.66-.128 0-.302-.112-.386-.247zm-75.285-2.443c-1.196-.336-1.805-.903-1.402-1.306.217-.217.545-.213 1.241.017 1.22.403 1.683.238 2.94-1.05 1-1.024 1.012-1.057.376-1.057-1.763 0-2.301-1.51-1.285-3.609.879-1.815 2.03-1.845 2.74-.07.23.574.417 1.22.417 1.435 0 .335.922.392 6.36.392h6.359l-.904-.794c-.498-.437-1.015-.794-1.15-.794-.44 0-1.404-1.548-1.404-2.256 0-1.23.537-1.75 3.031-2.932 3.213-1.521 3.335-1.517 2.771.1-.196.562-.583.934-1.257 1.209-.535.218-1.4.578-1.92.8l-.947.403 2.005 2.135 2.005 2.135 2.443-.003 2.443-.003-.447-.938c-.414-.868-.415-.99-.016-1.646.658-1.084.91-1 1.396.461.318.957.394 1.723.266 2.66l-.181 1.315h-3.4c-1.986 0-3.467-.11-3.563-.265-.11-.178-.328-.178-.66 0-.291.156-3.11.265-6.855.265h-6.36l-.573 1.332c-.95 2.206-2.09 2.733-4.469 2.064zm3.442-5.907c-.33-.398-.796-.313-.796.145 0 .137.253.249.562.249.467 0 .506-.066.234-.394zm18.15 4.76c-.275-.208-.612-.415-.749-.461-.334-.112.324-1.524.71-1.524.166 0 .45.148.63.329.262.261.375.254.555-.038.185-.299.376-.259 1.047.219.72.512.784.656.52 1.162-.415.799-.386.785-.983.466-.354-.19-.591-.197-.7-.022-.217.352-.429.325-1.03-.13zm-109.84-.679c-1.063-.309-2.189-1.515-2.4-2.572-.17-.848-.167-.85.928-.85.924 0 1.137.103 1.346.654.426 1.12 2.672 1.277 3.359.236.516-.782-.03-1.287-1.801-1.667-2.836-.608-3.671-1.392-3.671-3.449 0-3.59 5.887-4.297 7.316-.878.469 1.121.298 1.4-.856 1.4-.732 0-.967-.133-1.166-.655-.469-1.233-2.951-1.184-3.13.062-.094.658.23.842 2.655 1.509.832.229 1.844.7 2.249 1.05.624.536.737.837.737 1.958 0 1.045-.14 1.476-.662 2.041-1.207 1.31-2.965 1.725-4.904 1.161zm6.227-.016c0-.412 2.897-9.724 3.22-10.352.17-.331.56-.463 1.367-.463h1.128l1.64 5.248c.903 2.887 1.641 5.394 1.641 5.572 0 .217-.37.296-1.124.242-1.07-.078-1.142-.136-1.484-1.218l-.36-1.136-1.602.078-1.602.078-.294 1.058c-.279 1-.356 1.063-1.412 1.14-.757.055-1.118-.025-1.118-.247zm5.112-5.482c-.217-.678-.457-1.41-.533-1.629-.076-.218-.359.377-.63 1.323-.27.946-.495 1.723-.5 1.727a42.14 42.14 0 0 0 1.025-.091l1.033-.1zm4.796 5.441c-.072-.186-.098-2.656-.058-5.49l.072-5.151 1.125-.082 1.124-.081v11.143h-1.066c-.623 0-1.121-.141-1.197-.339zm6.015-.091c-3.263-1.664-3.579-7.749-.517-9.933 1.168-.833 3.532-.87 4.6-.072.944.705 1.622 1.65 1.84 2.563.166.704.136.728-.908.728-.926 0-1.137-.11-1.48-.772-.46-.892-1.662-1.277-2.531-.812-.73.39-1.316 1.803-1.316 3.171 0 3.125 2.382 4.55 3.744 2.24.446-.755.697-.917 1.426-.917.486 0 .96.123 1.052.272.276.446-.915 2.592-1.78 3.208-1.067.76-2.982.91-4.13.324zm9.61-.098c-2.552-1.272-3.435-4.964-1.943-8.127.95-2.018 3.424-2.924 5.655-2.072 2.076.793 3.21 2.986 2.962 5.727-.354 3.895-3.544 6.032-6.674 4.472zm3.476-2.215c.623-.536.742-.868.831-2.315.057-.929-.02-2.01-.172-2.403-.72-1.865-3.179-1.993-4.069-.212-.563 1.128-.596 2.873-.078 4.114.621 1.487 2.262 1.87 3.488.816zm25.23.935c0-.671-.123-.777-1.19-1.021-.961-.22-1.19-.204-1.19.087 0 .198-.238.36-.53.36-.29 0-.529-.121-.529-.27 0-.384 2.885-26.618 3.076-27.97.145-1.028.276-1.184 1.584-1.893.8-.432 1.494-.661 1.582-.52.095.155.29.14.505-.038.242-.201.403-.205.521-.013.095.152.466.277.826.277.36 0 .705.15.767.331.124.362 2.786 29.596 2.783 30.56-.001.41-.16.595-.513.595-.328 0-.54-.213-.595-.596-.047-.327-.233-.583-.415-.568-.182.014-1.522.044-2.977.066-2.635.04-2.646.042-2.646.7 0 .486-.14.662-.529.662-.405 0-.53-.176-.53-.749zm4.961-1.915c-.919-.485-1.05-.493-1.786-.114-.436.226-.793.467-.793.536 0 .07.804.12 1.786.114l1.786-.012-.993-.524zm-5.763-.263c-.233-.435-.369-.483-.668-.235-.47.39-.251.781.437.781.447 0 .48-.08.231-.546zm3.067-.027l.97-.573-.889-.46c-1.002-.518-1.276-.33-1.283.879-.005.874-.016.873 1.202.154zm4.596-.287c-.01-.327-.1-.802-.2-1.054-.17-.427-.246-.42-1.096.096l-.914.556.916.488c1.191.634 1.317.626 1.294-.086zm-6.86-.495c0-.7-.06-.776-.391-.502-.291.242-.323.454-.123.827.38.71.514.625.514-.325zm-1.815-.667c-.248-.426-.287-.433-.294-.05a3.57 3.57 0 0 1-.178.926c-.158.452-.138.455.294.05.36-.34.4-.544.178-.926zm6.622-.574a10.552 10.552 0 0 0-1.698 0l-.86.083.782.432c.724.401.85.401 1.698 0l.915-.432zm-5.362.114c.245-.295.152-.389-.48-.481-.69-.102-.753-.058-.527.366.308.575.598.608 1.007.115zm5.545-.92c.603-.17.592-.192-.295-.615-.889-.424-.953-.417-1.947.194l-1.028.632 1.323-.018c.727-.01 1.604-.097 1.947-.194zm-5.52-.567c-.334-.625-.614-.666-1.04-.154-.246.298-.212.4.167.499 1.032.267 1.172.212.874-.345zm3.437-.793c0-.073-.356-.335-.792-.583l-.792-.451v2.067l.792-.45c.436-.248.792-.51.792-.583zm3.526-.185l-.148-1.1-.87.57-.87.57.968.558c.533.307.991.545 1.018.53.027-.015-.017-.523-.098-1.128zm-6.169-.004c0-.898-.036-.946-.42-.563-.357.357-.367.505-.068.983.193.31.382.563.42.563.038 0 .068-.443.068-.983zm-1.799-.658c-.247-.247-.317-.176-.317.318s.07.564.317.317c.247-.247.247-.388 0-.635zm6.357-.21l.866-.529h-.826c-.455-.001-1.214.076-1.686.17l-.86.172.628.348c.826.458.869.454 1.878-.161zm-5.236-.238c.08-.13-.049-.312-.287-.403-.515-.198-.743-.035-.5.357.212.344.589.366.787.046zm5.12-1.364c-.98-.517-.988-.517-1.853.01l-.869.53 1.852-.01 1.852-.011zm-4.97.029c0-.494-.59-.599-1.009-.18-.394.395-.372.429.29.429.395 0 .718-.112.718-.25zm.793-.999c0-.9-.035-.947-.423-.56-.336.337-.361.537-.123.983.425.794.546.7.546-.423zm1.876.488l.611-.495-.847-.438-.846-.438v.933c0 1.059.21 1.144 1.082.438zm3.68-.438v-.933l-.793.41c-.437.227-.794.464-.794.528 0 .097 1.303.883 1.521.918.037.006.066-.41.066-.923zm-7.316-.53c-.21-.547-.357-.483-.357.156 0 .3.114.474.253.388.14-.086.186-.33.104-.545zm5.729-.257c.64-.365.617-.378-.662-.379-1.22 0-1.283.03-.809.388.619.468.638.468 1.47-.008zm-4.63-.132c.09-.145-.089-.265-.397-.265-.308 0-.487.12-.397.265.09.146.268.265.397.265.128 0 .307-.12.397-.265zm.082-1.222c-.265-.265-.563-.345-.782-.21-.317.197.01.38 1.087.612.068.014-.07-.166-.305-.402zm4.606-.103c-.81-.494-.91-.5-1.521-.1-.36.235-.654.473-.654.53 0 .055.685.1 1.522.1h1.52l-.867-.53zm-2.062-.4c.56-.424.552-.445-.311-.894-.555-.289-.596-.255-.596.493 0 .894.16.965.907.4zm3.327-.539v-.94l-.786.464-.787.464.72.475c.396.261.75.475.787.476.036.001.066-.421.066-.939zm-6.827-.17c-.246-.247-.317-.177-.317.317s.07.565.317.318c.247-.247.247-.388 0-.635zm1.535.264c0-.427-.078-.503-.294-.287-.162.162-.215.424-.117.582.274.443.411.344.411-.295zm-.661-.74c.09-.146-.03-.265-.265-.265-.235 0-.354.12-.265.265.09.145.21.264.265.264.056 0 .175-.119.265-.264zm4.513-.124c.474-.358.41-.389-.81-.389s-1.282.03-.809.389c.283.213.647.388.81.388.162 0 .527-.175.81-.388zm-4.328-1.252c-.247-.247-.388-.247-.635 0s-.177.317.317.317.565-.07.318-.317zm4.379-.099c-.645-.35-.81-.35-1.456 0-.719.39-.71.395.728.395 1.439 0 1.447-.004.728-.395zm-1.677-.605c.076-.123-.155-.358-.514-.522-.616-.28-.654-.252-.654.5 0 .708.058.766.515.522.283-.151.577-.376.653-.5zm-3.496-.355c-.247-.246-.317-.176-.317.318s.07.564.317.317c.247-.246.247-.388 0-.635zm1.527.12c-.007-.625-.047-.662-.28-.263-.148.256-.197.583-.108.728.274.442.396.295.388-.465zm4.685-.505c-.07-.07-.375.027-.677.215l-.549.343.59.319c.514.278.6.25.676-.215.048-.294.03-.591-.04-.662zm-5.339-.09c.09-.146-.029-.265-.264-.265-.236 0-.355.119-.265.264.09.146.209.265.265.265.055 0 .174-.12.264-.265zm4.25-.125c.473-.358.412-.389-.795-.396-1.205-.008-1.267.021-.793.38.654.494.95.498 1.587.016zm-.32-1.245c-.397-.192-.716-.189-1.058.01-.408.237-.313.283.568.275.923-.009.986-.045.49-.285zM106.07 13c.468-.354.467-.377-.036-.646-.446-.239-.54-.184-.647.375-.142.743-.009.796.683.271zm-2.877-.127c.083-.135.03-.32-.117-.412-.148-.091-.269.02-.269.246 0 .465.159.533.386.166zm1.118-.332c-.085-.211-.147-.148-.16.16-.012.279.051.435.139.347.088-.088.097-.316.02-.507zm4.582-.085c0-.597-.053-.63-.53-.333-.608.38-.67.631-.198.822.618.249.728.175.728-.489zm-4.914-.364c.08-.13-.099-.299-.396-.377-.444-.116-.485-.073-.23.235.366.44.432.455.626.142zm3.855-.191c0-.057-.327-.102-.727-.1-.53.003-.626.068-.355.24.337.213 1.082.117 1.082-.14zm.117-1.022c-.283-.213-.633-.388-.778-.388-.146 0-.496.175-.778.388-.475.359-.415.389.778.389 1.192 0 1.252-.03.778-.389zm-4.699-.72c-.084-.21-.147-.148-.16.16-.01.28.052.436.14.348.087-.088.097-.316.02-.507zm1.407.167c0-.227-.12-.338-.269-.246-.148.091-.2.277-.116.412.226.367.385.299.385-.166zm1.557-.406c-.57-.36-.763-.285-.763.299 0 .468.074.498.565.236.451-.242.491-.35.198-.535zm2.48.172c-.107-.557-.192-.604-.62-.337-.474.297-.47.323.095.637.324.18.603.332.619.337.016.005-.026-.281-.094-.637zm-4.434-.412c.09-.145-.088-.264-.397-.264-.308 0-.486.119-.396.264.09.146.268.265.396.265.129 0 .307-.12.397-.265zm3.308-.264c.297-.193.165-.257-.53-.257-.694 0-.826.064-.529.257.219.14.457.256.53.256.072 0 .31-.115.529-.256zm-3.175-.646c0-.28-.508-.397-.66-.152-.09.147.02.268.247.268s.413-.052.413-.116zm3.083-.448c-.35-.204-.571-.201-.78.008-.213.213-.081.29.488.284.684-.007.72-.043.292-.292zm-3.96-.544c-.085-.21-.148-.148-.16.16-.012.28.05.436.138.348.088-.088.097-.317.021-.508zm2.698-.239c-.57-.36-.763-.285-.763.298 0 .468.074.5.565.237.451-.242.491-.35.198-.535zm2.25.174a.418.418 0 0 0-.544-.228c-.323.124-.33.194-.044.376.528.334.751.278.588-.148zm-4.204-.414c.09-.146.038-.265-.116-.265s-.28.12-.28.265c0 .145.052.265.116.265s.19-.12.28-.265zm3.44-.265c.097-.156-.195-.263-.712-.26-.663.003-.78.066-.479.26.515.333.986.333 1.19 0zm-3.307-.645c0-.28-.508-.397-.66-.153-.09.148.02.27.247.27s.413-.053.413-.117zm2.927-.502c-.204-.204-.405-.165-.705.135-.383.383-.358.408.285.285.503-.097.623-.217.42-.42zm-2.398-.176c0-.145-.126-.264-.28-.264-.154 0-.207.119-.117.264.09.146.216.265.28.265.064 0 .117-.119.117-.265zm1.262-.215c.159-.476-.388-.376-.573.105-.098.258-.04.379.154.314a.749.749 0 0 0 .42-.419zm2.177-.173c0-.236-.155-.33-.395-.237-.217.083-.33.258-.249.389.231.373.644.276.644-.152zm-3.836-.405c.09-.146-.03-.265-.265-.265-.235 0-.354.12-.264.265.09.145.209.264.264.264.056 0 .175-.119.265-.264zm3.043-.16c0-.058-.246-.105-.545-.105-.3 0-.475.114-.389.253.142.229.934.102.934-.149zm0-.738c0-.251-.792-.378-.934-.15-.086.14.09.254.389.254.3 0 .545-.047.545-.104zm-1.323-.705c0-.137-.12-.25-.265-.25-.145 0-.264.186-.264.413 0 .227.119.339.264.25.146-.09.265-.276.265-.413zm1.852-.133c0-.227-.121-.337-.27-.246-.147.091-.2.277-.116.412.227.367.386.299.386-.166zm-.926-.381c.09-.145-.03-.265-.265-.265-.235 0-.354.12-.264.265.09.146.209.265.264.265.056 0 .175-.12.265-.265zm-1.07-1.04c.084-.135.031-.321-.117-.413-.147-.09-.268.02-.268.247 0 .465.158.533.385.166zm1.996-.135c0-.064-.12-.19-.265-.28-.145-.09-.264-.038-.264.116 0 .155.119.28.264.28.146 0 .265-.052.265-.116zm50.973 27.702c-.571-6.978-.565-7.3.166-8.148l.675-.784.136.661c.075.364.261 2.307.414 4.318.153 2.01.347 3.766.431 3.902.084.136.8.247 1.592.247 1.328 0 1.44-.047 1.44-.612 0-.34.363-.957.82-1.39l.82-.776-.093 1.389-.092 1.39h.86c.654-.001.86-.116.86-.48 0-.47 1.277-1.902 1.697-1.902.193 0 .097.675-.272 1.918-.09.302.006.463.277.463.24 0 .415-.226.415-.54 0-.566 1.003-2.106 1.372-2.106.3 0 .27 2.996-.038 3.805l-.252.665-5.53.016-5.53.017-.168-2.053z" fill="#fff" stroke-width=".265"/></svg>