<svg xmlns="http://www.w3.org/2000/svg" width="714.1" height="169.031" viewBox="0 0 188.939 44.723"><path d="M65.983 44.272c-.29-.29-.423-2.039-.423-5.574 0-3.312-.14-5.29-.393-5.543-.552-.553-.072-1.16.917-1.16.483 0 1.145.393 1.567.93.662.84.731 1.405.731 5.926 0 5.098-.18 5.844-1.41 5.844-.311 0-.756-.19-.989-.423zm4.398.188c-.129-.13-.235-1.785-.235-3.68 0-2.66.126-3.569.555-3.997.74-.74.944-.706 1.915.328.768.817.888.843 1.636.352 1.015-.664 2.384-.681 2.92-.035.265.318.374 1.663.308 3.792-.098 3.175-.134 3.303-.944 3.418-1.145.162-1.44-.447-1.446-2.987-.004-1.55-.165-2.294-.572-2.632-.886-.736-1.55.485-1.55 2.85 0 1.089-.19 2.17-.423 2.403-.456.456-1.78.571-2.164.188zm10.021-.694c-.534-.68-.73-1.442-.73-2.827 0-1.044-.198-2.213-.438-2.599-.349-.557-.349-.843 0-1.401.24-.386.437-.945.437-1.243 0-.822 1.608-1.447 2.283-.887.297.246.54.66.54.92 0 .259.426.867.948 1.35l.949.88-.949.36c-.851.324-.949.539-.949 2.086 0 1.21.218 2.003.729 2.652.905 1.15.637 1.638-.9 1.638-.864 0-1.388-.254-1.92-.93zm5.656-.318c-1.575-1.793-1.548-3.866.07-5.583 1.518-1.609 2.72-1.9 4.509-1.094 1.49.671 1.974 1.63 1.593 3.149-.166.66-.578.961-1.714 1.252-2.59.663-2.577.653-1.912 1.318.381.382 1.091.571 2.003.535 1.554-.062 1.741.204.766 1.086-.421.382-1.264.584-2.433.584-1.604 0-1.9-.128-2.882-1.247zm3.286-3.45c.797-.584.6-1.83-.29-1.83-.82 0-1.457.943-1.16 1.717.268.698.612.725 1.45.112zm4.877 4.289c-.282-.282-.439-1.531-.439-3.504 0-2.462.13-3.225.656-3.875l.655-.81.986.776c.924.727 1.04.74 1.844.214.792-.52.91-.514 1.55.063.8.725.747 1.839-.114 2.378-.456.286-.769.218-1.331-.29-1.057-.957-1.374-.4-1.494 2.634-.101 2.529-.145 2.65-.99 2.749-.487.057-1.082-.094-1.323-.335zm7.319-.484c-.452-1.189-.171-6.41.38-7.074.613-.739 1.233-.612 1.886.385.555.846.627.862 1.611.353 2.456-1.27 3.256-.468 3.463 3.473.167 3.176-.187 3.917-1.76 3.694-.76-.108-.821-.298-.917-2.866-.078-2.071-.237-2.802-.641-2.957-.928-.357-1.367.54-1.55 3.167-.17 2.46-.207 2.544-1.145 2.652-.777.09-1.042-.076-1.327-.827zm9.513-.274c-.96-1.575-.948-4.761.025-5.997.984-1.252 1.902-1.464 3.147-.73 1.002.593 1.079.592 1.754-.019.908-.822 2.335-.502 2.627.588.336 1.255.249 6.033-.122 6.618-.25.397-1.131.546-3.539.598l-3.205.07-.687-1.128zm4.539-2.513c.13-1.095-.769-2.67-1.524-2.67-.75 0-1.645 1.945-1.38 3 .48 1.914 2.665 1.667 2.904-.33zm6.06 2.974c-.553-.554-.706-1.176-.706-2.883 0-1.423-.18-2.376-.52-2.752-.46-.508-.434-.747.229-2.087.412-.832.965-1.596 1.23-1.698.65-.25 1.53.531 1.53 1.358 0 .39.368.81.883 1.006.485.184.882.501.882.704 0 .203-.397.55-.882.771-.758.346-.882.634-.882 2.055 0 1.204.19 1.825.705 2.29.388.352.706.932.706 1.29 0 .933-2.226.894-3.175-.054zm5.715.282c-.57-.57-.57-5.993 0-6.562.534-.534 1.575-.548 1.898-.025.392.635.438 6.082.055 6.57-.439.558-1.403.567-1.953.017zm5.36-.22c-1.103-.923-1.55-1.962-1.55-3.602 0-1.196.22-1.69 1.178-2.649 1.6-1.599 2.863-1.876 4.45-.976 2.663 1.51 3.194 5.15 1.017 6.982-1.3 1.094-3.927 1.22-5.094.244zm3.692-1.966c.72-1.502.01-3.74-1.187-3.74-1.519 0-2.148 2.567-1.023 4.173.72 1.027 1.592.856 2.21-.433zm4.444 2.167c-.104-.27-.143-2.05-.087-3.955.086-2.903.206-3.529.743-3.856.528-.321.777-.223 1.411.556.713.874.836.908 1.652.453 2.413-1.346 3.528-.169 3.528 3.724 0 2.84-.313 3.52-1.62 3.52-.992 0-1.202-.594-1.202-3.391 0-1.774-.126-2.324-.573-2.495-.842-.324-1.341.78-1.544 3.417-.168 2.19-.22 2.298-1.148 2.405-.59.067-1.047-.082-1.16-.378zm9.348-.724c-.473-.776-.688-1.768-.688-3.183-.001-1.802.125-2.182 1.03-3.086 1.133-1.134 2.172-1.317 2.849-.502.241.29.669.529.95.529.281 0 .75-.238 1.04-.53.735-.733 1.795-.66 2.23.154.536 1 .474 6.968-.075 7.318-.243.155-1.838.314-3.545.354l-3.104.073zm4.54-2.513c.13-1.095-.77-2.67-1.525-2.67-.75 0-1.644 1.945-1.38 3 .48 1.914 2.666 1.667 2.904-.33zm5.393 3.048c-.186-.347-.38-2.971-.43-5.831-.081-4.509-.013-5.28.508-5.801.464-.464.74-.514 1.212-.217.527.332.624 1.106.709 5.614.056 3.01.256 5.42.471 5.68.55.662.06 1.186-1.107 1.186-.624 0-1.157-.247-1.363-.631zM4.272 35.483C2.019 34.447.373 32.572.096 30.725c-.617-4.113 1.792-7.197 5.623-7.197 2.043 0 4.142 1.547 5.747 4.236 1.454 2.436 3.422 3.626 5.46 3.3 1.922-.307 1.786.43-.4 2.173-3.639 2.9-8.782 3.842-12.254 2.246zm41.188-.24c-2.373-1.194-4.32-3.632-5.268-6.6-1.1-3.438-1.9-8.855-1.708-11.552.143-1.995.074-2.477-.376-2.65-.303-.117-.618-.013-.699.23-.132.397-5.018 7.152-5.744 7.943-.472.514-1.074-.2-3.835-4.551-1.426-2.246-2.767-4.026-2.98-3.956-.214.07-.429.591-.478 1.158-.33 3.767-1.676 8.992-2.78 10.778-2.095 3.395-6.607 3.717-8.28.592-.33-.618-.165-.95 1.175-2.354.858-.899 1.8-2.031 2.093-2.516 1.88-3.113 3.22-10.56 2.62-14.562-.134-.892-.632-2.194-1.107-2.894-.475-.7-.863-1.348-.863-1.439 0-.091.515-.48 1.146-.865 1.766-1.076 4.064-.94 5.842.348 1.246.903 4.828 5.813 6.375 8.74.537 1.016 1.498 1.016 2.13 0 .27-.437 1.797-2.54 3.392-4.676 3.14-4.207 4.367-5.114 6.913-5.114.885 0 1.826.28 2.462.733l1.03.733-.723 1.014c-1.264 1.775-1.748 4.136-1.753 8.54-.008 8.482 2.362 14.353 7.052 17.474.873.58 2.114 1.169 2.758 1.307.644.139 1.26.486 1.37.771.28.731-1.869 2.844-3.732 3.67-2.105.932-3.745.85-6.032-.301zm130.696.234c-2.09-.846-5.468-3.305-5.468-3.982 0-.34.504-.47 1.766-.45 2.227.034 3.184-.644 5.271-3.732 1.809-2.676 3.47-3.785 5.67-3.785 5 0 7.452 6.622 3.782 10.214-2.573 2.518-7.259 3.256-11.021 1.735zm-48.86-.307c-.432-.808.077-2.117.824-2.117 1.192 0 1.81 2.196.735 2.609-.892.342-1.157.258-1.559-.492zm-73.52-7.245c-3.022-1.498-4.419-3.289-5.164-6.617-.366-1.635-.365-2.394.002-4.041 1.9-8.52 12.772-10.227 17.588-2.764.836 1.295.93 1.779.938 4.792.007 3.036-.08 3.484-.923 4.763-2.153 3.267-4.794 4.753-8.418 4.736-1.703-.008-2.738-.232-4.023-.869zm5.588-3.542c1.099-1.1 1.375-2.133 1.375-5.152 0-2.793-.086-3.179-.959-4.323-1.145-1.502-2.22-1.623-3.386-.382-1.631 1.736-1.725 8.022-.142 9.604.939.94 2.313 1.051 3.112.253zm11.343 3.352l-.914-1.086v-6.907c0-6.824-.01-6.92-.882-8.063-.485-.636-.881-1.244-.881-1.351 0-.108.595-.449 1.322-.758 2.54-1.079 5.854.271 6.624 2.699.28.88 1.29.867 1.845-.023.564-.902 3.668-2.476 4.884-2.476 1.483 0 3.18 1.264 3.81 2.836.434 1.087.565 2.7.565 7.001 0 5.056.067 5.676.705 6.487 1.405 1.786.583 2.726-2.383 2.726-1.467 0-1.943-.188-3.198-1.262l-1.474-1.262-.005-5c-.006-5.547-.31-6.695-1.815-6.871-.658-.077-1.133.163-1.667.841-.679.863-.747 1.394-.747 5.858 0 6.418-.606 7.696-3.65 7.696-.936 0-1.442-.257-2.14-1.085zm22.7.287c-2.72-1.833-4.131-5.63-3.756-10.1.33-3.95 1.55-6.119 4.205-7.48 2.184-1.12 4.455-.712 6.516 1.171 1.487 1.359 1.71.777 1.594-4.165-.095-4.093-.032-4.675.618-5.712 1.319-2.105 4.301-2.344 5.649-.452.636.894.69 1.75.789 12.624.096 10.523.167 11.73.723 12.346 1.333 1.471.395 2.566-2.199 2.566-1.608 0-3.01-.601-4.03-1.728-.845-.934-1.336-.934-2.182 0-1.108 1.225-2.464 1.728-4.66 1.728-1.578 0-2.368-.193-3.267-.798zm6.58-4.06c3.17-2.62 1.284-10.881-2.128-9.326-2.525 1.15-2.974 6.852-.717 9.11.992.99 1.83 1.054 2.846.216zm16.369 3.996c-3.603-1.878-5.042-4.326-5.023-8.544.012-2.489.151-3.138 1.017-4.73 1.138-2.09 2.557-3.354 4.776-4.255 3.092-1.254 7.341-.465 9.948 1.848 1.427 1.266 1.457 1.34 1.457 3.598 0 1.957-.13 2.443-.86 3.22-1.043 1.11-2.823 1.633-6.545 1.922-3.471.269-3.825.853-1.526 2.518 1.427 1.033 1.673 1.092 3.991.955 1.359-.081 2.828-.27 3.264-.42 2.083-.713-.272 2.843-2.655 4.01-2.151 1.055-5.692 1-7.844-.122zm5.27-10.65c.402-.512.731-1.306.731-1.765 0-.894-1.126-2.252-1.852-2.234-1.181.03-2.734 2.172-2.734 3.772 0 1.132.032 1.156 1.562 1.156 1.267 0 1.7-.176 2.293-.93zm11.438 10.503c-2.123-1.538-2.24-2.297-2.24-14.483 0-11.9.078-12.352 2.251-13.07 1.516-.5 2.74-.201 3.8.927l.828.88.077 11.689c.075 11.288.103 11.723.824 12.698.713.964.719 1.042.133 1.69-1.002 1.107-3.922.937-5.673-.331zm12.4.35c-3.594-1.638-5.459-4.57-5.464-8.594-.004-3.026.74-4.955 2.703-6.997 2.642-2.75 5.871-3.43 9.868-2.081 3.556 1.2 5.458 4 4.666 6.867-.683 2.472-3.312 3.703-7.908 3.703-2.272 0-2.939.594-1.908 1.7 1.353 1.453 2.738 1.913 5.24 1.742 1.28-.087 2.63-.289 2.998-.447.598-.258.643-.178.415.74-.34 1.368-1.48 2.565-3.201 3.36-1.882.868-5.513.872-7.409.007zm4.385-10.264c.97-.518 1.58-2.26 1.105-3.148-.571-1.067-1.642-1.553-2.46-1.115-.943.505-2.148 2.566-2.148 3.674 0 .85.12.929 1.434.929.79 0 1.72-.153 2.069-.34zm18.417 9.834c-2.394-1.3-5.57-1.422-8.016-.308-.868.396-1.733.624-1.92.508-.617-.38-.36-1.894.703-4.143 1.192-2.523 2.552-3.964 5.698-6.038 3.154-2.08 3.093-2.335-.563-2.335-2.905 0-4.278-.34-4.852-1.2-.502-.752-.261-2.227.472-2.89.664-.603 1.425-.683 7.32-.769 3.935-.057 6.888-.253 7.348-.487 1.12-.57 1.755-.174 2.024 1.261.476 2.535-2.022 5.802-7.736 10.115-1.993 1.505-2.258 1.89-1.496 2.171.518.192 5.631-.267 7.093-.636 1.94-.489 2.273 2.036.578 4.376-1.019 1.406-1.133 1.463-2.91 1.433-1.334-.022-2.379-.317-3.743-1.058zM142.344 6.303c-1.138-1.257-.467-2.986 1.333-3.438.445-.111 3.225-.151 6.178-.088 4.832.103 5.419.182 5.869.799.686.94.627 2.09-.145 2.788-.547.495-1.558.584-6.648.584-5.368 0-6.065-.068-6.587-.645z" fill="#fff" stroke-width=".353"/></svg>