<svg id="Слой_1" data-name="Слой 1" xmlns="http://www.w3.org/2000/svg" viewBox="0 0 53.82 10.27"><defs><style>.cls-1{fill:#9a1648}</style></defs><path class="cls-1" d="M0 4.16h10.27v1.87H0z"/><path class="cls-1" d="M4.24 0h1.87v10.27H4.24z"/><path class="cls-1" d="M9 10.27l-9-9L1.36 0l8.91 8.91L9 10.27z"/><path class="cls-1" d="M1.36 10.27L0 8.91 9 0l1.27 1.27-8.91 9zM16.3 3.57h1.19v4.58H16.3zM18 8.15h1.1l-.08-3.14h.08l1.53 3.14h1.53V3.57h-1.11v3.14l-1.52-3.14H18v4.58z"/><path class="cls-1" d="M11.97 8.15h1.61V5.69h2.3V4.5h-2.3V3.23h3.82V2.04h-5.43v6.11zM25.47 6.28h-1.19l.59-1.78zm-3.06 1.87h1.19l.43-1h1.69l.34 1h1.36l-1.78-4.58h-1.53zM27.68 8.15h1.1l-.09-3.14 1.62 3.14h1.53V3.57h-1.11v3.14L29.2 3.57h-1.52v4.58zM32.26 8.06a6.24 6.24 0 0 0 1.36.17c1 0 2-.34 2-1.52 0-1.62-2.21-1.19-2.21-1.87 0-.43.51-.43.85-.43a2.16 2.16 0 0 1 1 .17l.08-.93a5.24 5.24 0 0 0-1.19-.17c-.93 0-2 .34-2 1.44 0 1.62 2.21 1.11 2.21 2 0 .34-.42.42-.76.42a2.86 2.86 0 0 1-1.28-.25zM37.18 4.41h.34c.43 0 .85.09.85.51s-.42.43-.85.43h-.34zm0 1.79h.34c.43 0 .94.08.94.51s-.43.59-.94.59h-.34zM36 8.15h1.87c.85 0 1.78-.26 1.78-1.36a1 1 0 0 0-.84-1 1 1 0 0 0 .76-1c0-.85-.59-1.18-1.44-1.18H36zM42.7 6.28h-1.1l.59-1.78zm-3.05 1.87h1.27l.34-1H43l.34 1h1.35l-1.82-4.58h-1.44zM44.91 8.15h1.1V5.01l1.62 3.14h1.52V3.57h-1.1v3.14l-1.61-3.14h-1.53v4.58zM49.58 8.15h1.27V6.03l1.45 2.12h1.52l-1.87-2.46 1.7-2.12h-1.44l-1.36 1.86V3.57h-1.27v4.58z"/></svg>