<svg xmlns="http://www.w3.org/2000/svg" width="1170.511" height="478.519" viewBox="0 0 309.698 126.608"><path d="M279.865 102.065V77.523h5.931l-.148 2.712-.149 2.712.725-1.058c2.513-3.667 5.566-5.225 10.212-5.21 4.653.015 8.098 1.874 10.595 5.718 3.556 5.472 3.556 16 0 21.473-1.82 2.802-3.904 4.365-7.03 5.274-2.183.635-6.85.448-8.912-.357-1.665-.65-3.376-2.009-4.535-3.6l-.783-1.073.09 11.247.09 11.247h-6.086zm17.776 3.615c3.658-1.766 5.61-6.74 5.288-13.473-.222-4.642-1.095-7.332-3.076-9.482-1.593-1.727-3.131-2.389-5.568-2.394-5.68-.011-8.834 4.613-8.82 12.935.008 4.995.907 8.247 2.89 10.44 1.362 1.51 2.205 2.06 3.852 2.518 1.8.5 3.654.315 5.434-.544zm-133.53 3.957c-4.316-.547-8.362-1.865-11.253-3.667-4.426-2.759-7.383-6.894-8.896-12.44-.488-1.79-.58-2.853-.6-6.879-.026-5.643.255-7.026 2.281-11.234 1.179-2.447 1.613-3.045 3.749-5.16 4.993-4.944 10.858-7.073 19.48-7.073 5.977 0 10.631.906 15.206 2.958l1.704.765-.654 1.61c-.36.886-.729 2.322-.82 3.191-.144 1.38-.236 1.581-.722 1.58-.341-.001-.806-.366-1.196-.939-.901-1.323-3.219-3.38-4.852-4.306-2.315-1.313-4.749-1.936-8.136-2.082-3.809-.164-6.186.297-9.202 1.784-3.839 1.892-6.726 5.324-8.28 9.841-1.09 3.17-1.39 5.578-1.228 9.859.385 10.125 4.811 16.565 12.848 18.695 4.078 1.08 9.748.668 13.976-1.018l1.631-.65.193-2.296c.197-2.348-.01-11.193-.295-12.618l-.158-.79h7.319l-.01 9.26-.01 9.26-3.09.7c-1.7.386-4.435.902-6.077 1.148-2.868.43-10.983.744-12.909.5zm57.51-.608c-5.591-1.513-9.243-5.336-10.572-11.068-.534-2.3-.524-7.131.018-9.475 1.725-7.45 7.58-11.81 15.831-11.79 5.334.012 9.035 1.44 12.033 4.645 2.867 3.065 4.107 6.617 4.116 11.792.006 3.531-.43 5.54-1.822 8.389-1.666 3.409-4.282 5.677-8.26 7.161-1.535.573-2.316.68-5.62.762-3.174.079-4.162.008-5.724-.416zm8.19-2.294c1.747-.595 3.705-2.453 4.665-4.425 1.153-2.37 1.604-4.396 1.776-7.986.268-5.587-.989-10.274-3.428-12.788-1.686-1.737-2.846-2.236-5.51-2.371-2.06-.105-2.436-.046-3.917.62-2.71 1.215-4.52 3.758-5.49 7.71-.634 2.585-.617 8.828.031 11.327 1.114 4.295 3.114 6.866 6.201 7.969 1.331.475 4.195.447 5.671-.056zm24.187 2.515c-3.278-.773-5.35-3-6.263-6.735-.462-1.887-.524-3.294-.603-13.549l-.087-11.443h6.568l-.167 1.521c-.092.837-.246 5.69-.343 10.785-.193 10.141-.106 11.077 1.223 13.172 1.14 1.797 2.666 2.435 5.828 2.435 2.29 0 2.639-.069 3.928-.783 2.502-1.386 3.761-4.01 4.264-8.886.265-2.576.169-14.83-.136-17.252l-.125-.992h6.64l-.204 1.389c-.259 1.773-.276 27.227-.02 28.653l.194 1.07-3.179.01-3.178.012.152-2.669c.15-2.616.143-2.655-.321-2.007-2.833 3.952-5.944 5.578-10.586 5.53-1.424-.015-3.037-.132-3.585-.261zm-62.699-2.075c.258-1.95.253-27.083-.006-28.528l-.201-1.124h6.945l-.157 1.124c-.086.619-.227 2.077-.313 3.242l-.156 2.116.905-1.414c2.4-3.75 5.221-5.609 8.812-5.806l2.139-.118.009 3.154.009 3.154-1.619-.34c-4.467-.936-7.379.357-9.214 4.09l-.871 1.771v20.153h-6.476l.195-1.474zM76.145 80.04c1.472-2.303 3.939-7.178 7.392-14.607l3.345-7.196-8.564-19.924-8.565-19.923 6.607.042 6.607.043 1.639 4.588c2.267 6.343 7.83 20.348 8.307 20.912.086.102 2.348-5.613 5.026-12.7l4.869-12.885h3.398c1.87 0 3.399.068 3.4.151 0 .083-1.262 2.94-2.804 6.35-6.641 14.683-15.233 34.757-20.997 49.061L82.82 81.36l-3.76.002-3.761.002.846-1.325zm41.96-20.806c-1.849-.307-4.748-1.32-6.185-2.163l-1.136-.666.517-4.654c.488-4.387.55-4.654 1.073-4.654.426 0 .778.448 1.509 1.918 1.802 3.628 4.331 5.691 7.884 6.432 4.907 1.023 8.477-1.164 8.477-5.193 0-3.128-.995-3.96-8.533-7.145-4.746-2.004-6.864-3.191-8.566-4.8-5.414-5.114-3.194-15.423 4.108-19.077 2.854-1.427 5.231-1.86 9.384-1.708 3.007.11 3.815.241 6.012.979 1.395.468 3.14 1.195 3.875 1.616l1.339.764-.634 1.57c-.35.864-.914 2.625-1.256 3.913-.38 1.431-.766 2.367-.993 2.406-.211.036-.764-.625-1.284-1.536-2.372-4.154-5.254-6.086-9.1-6.1-1.43-.004-2.113.142-3.242.694-3.04 1.488-3.88 5.312-1.655 7.538 1.045 1.045 2.416 1.733 7.37 3.698 9.42 3.735 11.781 5.88 12.326 11.193.708 6.914-4.024 13.153-11.272 14.861-1.902.448-7.614.513-10.018.114zm119.852-.104c-4.552-1.276-7.044-4.277-7.776-9.364-.55-3.819.542-7.169 3.08-9.45 1.792-1.612 4.224-2.701 9.947-4.456 5.044-1.546 8.34-2.894 8.978-3.671.498-.606.193-3.535-.547-5.253-.734-1.706-2.766-3.524-4.523-4.046-4.467-1.326-8.73.619-11.853 5.406-.41.63-.43.6-1.256-1.87-.462-1.381-.84-2.633-.84-2.783 0-.422 3.876-3.216 5.82-4.195 3.353-1.688 5.256-2.115 9.393-2.108 4.068.007 5.93.366 8.731 1.68 2.991 1.402 5.266 4.106 6.26 7.44.274.92.355 3.949.355 13.36 0 11.648.023 12.216.529 13.213.766 1.506 1.69 2.079 3.582 2.215l1.605.116-.08 1.092-.08 1.092-1.763.59c-3.865 1.291-8.616 1.471-10.672.403-1.457-.757-2.638-2.057-3.364-3.705l-.612-1.39-1.112 1.424c-1.292 1.655-3.405 3.141-5.562 3.911-2.033.727-6.256.905-8.24.349zm11.247-5.66c.6-.272 1.413-.92 1.809-1.438 1.285-1.685 1.468-2.87 1.468-9.496V36.47l-.86.18c-3.206.668-6.442 2.2-7.929 3.754-1.743 1.823-2.607 5.415-2.06 8.562.592 3.395 2.208 5.002 5.028 4.999.854-.001 1.906-.206 2.544-.496zM.18 55.695c.513-7.774.667-13.667.665-25.4C.843 18.463.699 12.785.183 4.233L0 1.191h12.668c13.58.002 14.622.087 18.167 1.484 3.022 1.192 5.59 3.41 6.766 5.848 1.5 3.11 1.963 8.96 1 12.644-2.198 8.4-9.26 12.428-21.798 12.433l-3.77.002.004 6.946c.002 3.848.176 8.95.391 11.443.213 2.474.39 4.915.393 5.424l.006.926H.006l.174-2.646zm16.8-26.891c6.3-1.087 9.049-5.253 8.69-13.175-.31-6.897-3.164-9.808-9.612-9.808h-2.436l-.18.86c-.1.473-.245 5.711-.322 11.641l-.14 10.782h1.13c.62 0 1.912-.135 2.87-.3zm25.278 29.208c.069-.18.261-4.824.427-10.319.282-9.363.02-27.812-.413-28.937-.117-.307.845-.367 5.836-.367h5.976l-.145 1.72c-.347 4.118-.467 8.995-.223 8.995.14 0 .523-.804.848-1.786 1.898-5.723 5.553-9.12 10.655-9.9 1.126-.173 2.095-.263 2.152-.2.057.061-.014.946-.158 1.964-.268 1.903-.131 9.176.188 9.969.159.396-.016.383-1.629-.122-2.106-.658-5.245-.76-6.802-.218-2.323.807-4.08 3.421-4.644 6.908-.464 2.868-.206 18.57.36 21.96l.112.662h-6.333c-4.937 0-6.306-.073-6.207-.33zm101.677-6.154c.254-8.266.254-18.722 0-26.987l-.199-6.482h11.643v5.52l1.521-1.59c2.951-3.087 5.895-4.507 9.904-4.778 5.566-.375 10.044 1.907 12.239 6.24l.699 1.379 1.2-1.596c3.25-4.324 7.7-6.36 13.176-6.029 4.904.297 8.638 2.615 10.395 6.454 1.352 2.953 1.468 4.649 1.783 26.15l.12 8.202H193.94l.189-2.91c.383-5.903.571-16.06.376-20.272-.298-6.437-1.024-8.586-3.363-9.956-1.052-.617-1.521-.72-3.218-.712-3.437.018-5.273 1.507-6.256 5.075-.451 1.635-.493 2.935-.493 15.28v13.495h-12.608l.148-1.059c.343-2.442.738-16.475.578-20.53-.339-8.595-1.295-11.087-4.624-12.055-2.896-.841-5.999.168-7.29 2.37-1.515 2.585-1.604 3.591-1.604 18.044v13.23h-12.04zm68.773 1.059c.279-6.945.28-22.41.003-29.237l-.215-5.291h12.496l-.212 5.159c-.274 6.666-.272 22.725.003 29.501l.215 5.292H212.49l.218-5.424zm59.283 1.058c.263-5.691.26-26.23-.005-31.485l-.206-4.101h11.392v5.654l1.987-1.96c4.844-4.782 12.061-6.017 17.794-3.044 2.714 1.407 4.262 3.173 5.163 5.89.519 1.565.562 2.467.739 15.552.103 7.64.276 14.784.383 15.875l.195 1.985h-12.514l.205-3.837c.112-2.11.203-8.242.203-13.626 0-8.575-.06-10.003-.474-11.51-.966-3.52-2.545-4.766-6.025-4.756-2.355.007-3.84.589-4.81 1.884-2.412 3.22-2.75 6.924-2.238 24.569l.212 7.276H271.79l.2-4.366zm-55.89-42.039c-2.347-1.08-3.575-3.025-3.566-5.642C212.548 2.557 215.1 0 218.818 0c5.222 0 8.156 5.776 5.087 10.014-1.574 2.173-5.28 3.085-7.804 1.922z" fill="#fff" stroke-width=".265"/></svg>