<svg xmlns="http://www.w3.org/2000/svg" width="1351.216" height="1212.002" viewBox="0 0 357.509 320.676"><path d="M0 315.534v-5.142l1.852-2.218c4.798-5.747 6.868-8.344 16.894-21.19 12.117-15.525 21.723-28.08 29.418-38.452 2.879-3.88 8.716-11.484 12.971-16.897 16.726-21.275 23.46-31.145 28.371-41.576l1.287-2.734h28.093l.007 1.676c.019 4.974 1.625 12.263 5.111 23.195a938.664 938.664 0 0 1 3.892 12.523c.902 3.008 2.877 9.437 4.388 14.288a1877.04 1877.04 0 0 1 4.245 13.802l1.498 4.983 4.115-5.16c2.264-2.837 4.236-5.355 4.383-5.595.147-.241-.37-2.323-1.154-4.643-.782-2.313-2.94-9.34-4.796-15.615-5.32-17.98-9.11-28.734-12.566-35.654-.749-1.5-1.362-2.968-1.362-3.263 0-.473 1.908-.537 15.987-.537h15.986l.406 3.457c.224 1.91 1.046 5.582 1.837 8.202.786 2.61 2.62 9.064 4.074 14.341 1.453 5.278 2.76 9.907 2.902 10.285.213.566 1.455-.854 6.962-7.958 3.687-4.756 8.48-10.807 10.651-13.446 4.647-5.647 6.605-8.9 7.439-12.356l.608-2.52 13.317-.002c10.609-.002 13.317.09 13.317.45 0 .25-.889 1.321-1.975 2.382-6.059 5.913-14.341 15.86-27.308 32.796-4.53 5.918-9.658 12.556-11.393 14.75l-3.156 3.992 1.862 6.516c1.024 3.584 1.965 6.58 2.091 6.659.127.078 1.596-1.634 3.265-3.805 1.669-2.17 4.508-5.852 6.308-8.18 10.133-13.104 29.871-39.488 32.677-43.68 1.795-2.68 4.02-6.44 4.944-8.355l1.681-3.48 13.276-.024 13.277-.023.212.793c.117.437.215 1.372.218 2.078.008 2.148 1.27 7.6 3.677 15.883 2.46 8.468 6.298 21.747 10.81 37.403 1.549 5.373 3.431 11.564 4.183 13.759.752 2.195 2.662 8.039 4.243 12.986 5.127 16.04 11.353 34.65 12.983 38.806 1.648 4.204 3.409 7.871 4.657 9.701.397.582.723 1.257.724 1.5.002.346-3.618.44-16.93.44h-16.934v-1.385c0-4.313-1.092-9.104-4.831-21.192a3884.995 3884.995 0 0 1-4.336-14.111c-4.237-13.934-5.35-17.531-5.706-18.433l-.382-.97-26.504.015-26.503.016-4.104 5.807-4.104 5.808.974 3.085c8.518 26.964 10.019 31.14 13.333 37.096 1.01 1.817 1.838 3.52 1.838 3.784 0 .399-2.765.48-16.228.48-8.925 0-16.228-.119-16.229-.264-.009-2.09-3.2-15.381-3.86-16.072-.294-.308-3.854 3.568-6.417 6.988-1.672 2.23-3.597 5.341-4.858 7.85l-.753 1.498h-25.62l-1.107-5.38c-.61-2.958-1.629-6.923-2.265-8.809l-1.156-3.43-3.75 5.017c-3.516 4.703-6.09 8.797-7.2 11.456l-.48 1.146h-12.54c-9.95 0-12.543-.093-12.543-.45 0-.249 1.05-1.48 2.333-2.735 5.114-5.005 11.892-13.123 21.204-25.396l4.957-6.532-1.328-4.58c-2.943-10.151-4.644-15.85-4.808-16.117-.096-.155-11.985-.281-26.42-.281H57.886l-.882 1.146c-.485.63-2.065 2.734-3.512 4.675-1.446 1.94-4.27 5.676-6.277 8.301a3363.701 3363.701 0 0 0-8.041 10.583 869.456 869.456 0 0 1-8.912 11.536c-5.544 7.028-9.16 12.08-11.8 16.491l-2.011 3.36H0zm156.155-28.127c1.815-2.509 3.3-4.762 3.3-5.007 0-.244-.262-1.06-.582-1.81-.32-.752-1.635-4.412-2.921-8.133l-2.339-6.767-4.495 5.814-4.496 5.813 2.909 9.082 2.908 9.081 1.208-1.755c.664-.965 2.692-3.808 4.508-6.318zm-51.369-41.08l-3.863-12.435c-1.905-6.128-3.385-11.568-3.6-13.23a889.215 889.215 0 0 1-.603-4.739l-.235-1.917-1.377 2.27c-2.205 3.635-5.95 8.827-11.652 16.158a5301.273 5301.273 0 0 0-8.077 10.407c-1.52 1.966-3.176 4.01-3.682 4.544l-.92.97H105.415zm137.572 1.825c0-.112-1.685-5.549-3.744-12.083-3.817-12.112-4.719-15.99-4.721-20.315l-.001-2.44-1.8 2.969c-3.532 5.826-7.546 11.294-17.199 23.43-3.395 4.268-6.323 7.959-6.507 8.202-.265.35 3.155.44 16.82.44 9.434 0 17.153-.091 17.153-.203zm-40.922-71.773c0-.199 2.907-4.128 6.46-8.73 13.186-17.082 22.144-28.689 27.97-36.24l23.418-30.338c23.443-30.37 28.012-36.29 35.739-46.302l13.204-17.11c10.14-13.14 17.787-23.041 23.701-30.692L337.314 0h10.222c8.083 0 10.167.092 9.96.441-.145.243-8.128 10.68-17.74 23.195-9.612 12.515-23.63 30.771-31.153 40.57-7.523 9.798-14.363 18.688-15.2 19.755-.838 1.067-5.97 7.735-11.404 14.817-17.494 22.796-42.836 55.781-46.494 60.514-1.954 2.53-5.771 7.49-8.482 11.024l-4.929 6.426h-10.329c-6.83 0-10.329-.123-10.329-.363z" fill="#fff" stroke-width=".353"/></svg>