<svg xmlns="http://www.w3.org/2000/svg" width="801.376" height="341.572" viewBox="0 0 212.031 90.374"><path d="M191.238 86.94c-1.58-1.892-2.922-3.44-2.98-3.44-.057 0-1.025.462-2.15 1.027-5.298 2.66-9.74 3.546-17.919 3.57-5.93.02-8.602-.266-12.303-1.31-.8-.227-1.693-.476-1.984-.555-1.221-.331-5.332-1.989-6.559-2.644a432.2 432.2 0 0 0-1.323-.704c-1.63-.862-5.506-3.681-7.14-5.194-8.42-7.796-12.892-18.51-12.892-30.888 0-9.873 3.537-18.738 10.305-25.83 4.931-5.168 11.103-8.925 18.402-11.203 2.944-.918 5.019-1.344 8.295-1.7 4.638-.507 12.18-.006 16.18 1.072 5.52 1.49 10.281 3.662 14.156 6.457 8.283 5.978 13.352 14.104 15.372 24.643.556 2.902.764 9.469.403 12.7-.26 2.33-1.079 6.09-1.843 8.467-1.154 3.593-4.344 9.291-7.08 12.646-.355.436-.145.731 2.538 3.572a399.77 399.77 0 0 0 6.218 6.398c1.81 1.816 3.202 3.393 3.09 3.504-.11.111-1.387.383-2.836.605-1.449.22-3.408.523-4.354.672-1.722.27-5.237.81-8.467 1.302-.946.144-1.84.264-1.987.267-.147.003-1.56-1.542-3.142-3.434zm-19.792-18.292c.682-.166 1.357-.406 1.498-.535.158-.144-1.97-2.462-5.544-6.04-3.19-3.192-5.747-5.856-5.68-5.918.065-.062 2.203-.369 4.75-.681 2.546-.312 5.285-.674 6.085-.803.8-.13 2.847-.382 4.548-.56l3.093-.326 2.493 2.617c2.806 2.946 2.764 2.94 3.927.596 2.499-5.038 2.76-10.545.754-15.906-1.288-3.442-2.793-5.629-5.862-8.516-1.7-1.599-2.7-2.283-4.821-3.3-3.38-1.62-5.51-2.132-8.866-2.132-7.047 0-13.402 3.18-17.45 8.731-2.351 3.224-3.437 6.205-3.663 10.055-.328 5.585 1.471 11.22 4.884 15.295 3.306 3.946 7.065 6.274 11.82 7.318 2.016.443 6.4.5 8.034.105zM.056 85.485c-.115-.146-.048-1.158.15-2.25.445-2.46.833-4.757 1.296-7.672.196-1.237.669-4.035 1.05-6.218.38-2.183.867-5.04 1.083-6.35.587-3.566.816-4.912 1.573-9.26.38-2.183.857-4.981 1.059-6.218.202-1.237.499-2.963.659-3.836.16-.873.456-2.6.659-3.837.202-1.237.978-5.82 1.723-10.186 1.48-8.66 1.58-9.267 2.23-13.362.241-1.528.583-3.492.758-4.365l.318-1.588 9.694-.07L32 10.205l.4 1.002c.221.55.957 2.487 1.636 4.302.68 1.816 1.482 3.897 1.783 4.625.301.727.642 1.62.756 1.984.277.878 1.511 4.226 1.804 4.895.38.864.922 2.282 3.749 9.79 1.48 3.928 2.837 7.5 3.018 7.937.18.436.48 1.21.664 1.72.184.509.5 1.3.7 1.76.202.458.367.957.367 1.108 0 .794.518.406.925-.69.447-1.203 1.64-4.088 2.378-5.75.194-.437.715-1.746 1.158-2.91 1.003-2.636.393-1.108 6.604-16.537l5.272-13.097 10.286-.15c6.241-.09 11.066-.278 12.27-.478 1.092-.182 2.58-.435 3.308-.564.727-.129 2.156-.36 3.175-.515 1.018-.154 4.055-.63 6.747-1.058 2.692-.427 5.37-.827 5.953-.89.582-.061 2.13-.302 3.44-.534 1.31-.232 4.702-.776 7.54-1.209 2.838-.433 5.576-.853 6.085-.935 1.4-.223 3.72-.587 7.673-1.205 1.965-.307 4.287-.673 5.16-.812 2.406-.385 5.112-.796 6.879-1.045.873-.124 2.302-.347 3.175-.497 2.711-.464 4.1-.571 4.1-.316 0 .345-2.366 2.341-3.24 2.734-.4.18-.728.417-.728.527 0 .11-.13.2-.29.2-.16 0-.606.224-.992.498s-1.119.733-1.628 1.019c-.51.286-2.295 1.294-3.969 2.241-5.091 2.881-6.992 3.931-10.186 5.629a1411.72 1411.72 0 0 0-7.806 4.183l-1.72.926-.067 33.762-.067 33.763-7.142.02c-3.929.012-7.62.02-8.202.02a30.22 30.22 0 0 1-1.322-.02c-.175-.013-.265-9.955-.265-29.256 0-16.08-.071-29.237-.158-29.237-.086 0-.473.163-.86.363-.386.199-1.238.629-1.892.955-.655.327-1.86.938-2.679 1.358-.818.42-1.592.76-1.72.756-.127-.004-.62-.69-1.094-1.522-1.92-3.371-4.688-8.218-5.525-9.674-.489-.851-.889-1.655-.889-1.786 0-.132-.093-.24-.206-.24-.114 0-.35-.327-.525-.727-.383-.875-1.396-2.657-2.003-3.524l-.44-.629v.686c0 .377.166 1.683.37 2.903.203 1.22.557 3.468.786 4.996.23 1.528.603 3.968.83 5.424.227 1.455.768 5.027 1.201 7.937.864 5.804 1.221 8.176 1.593 10.583.135.874.423 2.779.64 4.234.217 1.455.516 3.42.665 4.365.148.946.447 2.91.664 4.366.217 1.455.516 3.42.665 4.366.148.946.442 2.91.652 4.365.36 2.486 1.257 8.449 2.13 14.156l.553 3.638.17 1.124-8.37.033c-4.604.018-8.787.033-9.297.033-.509 0-1.207-.015-1.55-.033-.689-.036-.57.476-1.357-5.854a658.134 658.134 0 0 0-.662-5.16 539.51 539.51 0 0 1-.685-5.423c-.22-1.82-.519-4.2-.662-5.292a407.14 407.14 0 0 1-.498-3.969c-.13-1.09-.43-3.413-.666-5.159a595.042 595.042 0 0 1-.816-6.35 222.1 222.1 0 0 0-.582-4.461l-.195-1.287-1.037 2.477a293.305 293.305 0 0 1-1.654 3.874c-.339.769-.616 1.468-.616 1.555 0 .086-.29.827-.644 1.645-.561 1.297-2.267 5.363-4.955 11.808-.424 1.018-.886 2.058-1.026 2.311-.14.253-.254.571-.254.708s-.4 1.121-.89 2.187c-.49 1.065-.984 2.235-1.096 2.599-.182.592-.747 1.922-1.87 4.405-.208.459-.377.902-.377.985 0 .082-.278.779-.618 1.547-.34.768-1.075 2.528-1.633 3.91-.558 1.383-1.103 2.617-1.211 2.743-.15.173-5.729.306-7.812.185-.306-.018-1.15-1.994-5.09-11.923-4.531-11.418-6.677-16.805-6.93-17.397-.14-.327-.366-.863-.502-1.19-.333-.8-4.143-10.449-4.506-11.414-.159-.42-.344-.708-.413-.64-.11.112-.398 1.922-1.186 7.49a777.64 777.64 0 0 1-.619 4.233c-.216 1.455-.641 4.372-.944 6.482-.683 4.759-.601 4.193-1.9 13.097-.593 4.075-1.187 8.231-1.318 9.237-.132 1.005-.28 1.869-.33 1.919-.241.24-19.291.198-19.483-.043z" fill="#fff" stroke-width=".265"/></svg>