<svg version="1.1" id="Layer_1" xmlns="http://www.w3.org/2000/svg" xmlns:xlink="http://www.w3.org/1999/xlink" x="0" y="0" viewBox="0 0 99.6 21" xml:space="preserve"><style>.st0{clip-path:url(#SVGID_2_);fill:#fff}</style><defs><path id="SVGID_1_" d="M0 0h99.6v21H0z"/></defs><clipPath id="SVGID_2_"><use xlink:href="#SVGID_1_" overflow="visible"/></clipPath><path class="st0" d="M42.3 17.3v-.5-10-.4c0-.3-.3-.6-.7-.5-.4 0-.6.2-.6.6v10.8h-2c-1.1 0-1.1 0-1.1-1V3.6h3c0 .3.1.6.1 1 .6-.7 1.2-1.2 2.2-1.2 1 0 1.6.5 2 1.3.2-.2.3-.4.5-.6.7-.7 1.5-.9 2.5-.7.9.2 1.4.9 1.6 1.7.1.3.1.6.1.8v11.3h-3.1v-.5-10-.4c0-.4-.3-.6-.7-.6-.4 0-.6.2-.6.6v10.4c0 .4-.1.5-.5.5-.9.1-1.8.1-2.7.1M78.6 10v3.5c0 .5.4.8.8.7.4-.1.5-.4.5-.7V6.8c0-.5-.3-.8-.7-.8-.4 0-.7.3-.7.8.1.9.1 2 .1 3.2m1.3-5.4c0-.4.1-.7.1-1h3V17.8c0 2-1.2 3.1-3.3 3.2-.6 0-1.3 0-1.9-.1-1.5-.3-2.2-1.2-2.3-2.6-.1-1-.1-1 1-1h2v1c0 .4.2.7.7.7.4 0 .7-.2.7-.7v-2.9c-.3.2-.5.4-.7.6-.7.5-1.5.6-2.3.3-.8-.3-1.2-1-1.3-1.8v-.8-7.6c0-.3 0-.7.1-1 .2-.8.8-1.4 1.7-1.6.9-.2 1.6.1 2.2.8.1 0 .2.1.3.3M0 11.1h3.4v3.2c0 .4.3.7.7.7.4 0 .7-.2.7-.7v-2.4c0-.5-.3-1-.7-1.4-.9-.6-1.6-1.4-2.5-2.1C.5 7.5-.1 6.3 0 4.8V3.1C0 1.7.8.7 2.2.3 3.5-.1 4.8-.1 6 .3c1.4.4 2.2 1.4 2.2 2.8v2.6H4.8v-.4-2.1c0-.4-.3-.7-.7-.7-.4 0-.6.3-.7.7v.1c-.2 1.6.4 2.9 1.8 3.9.5.4 1 .8 1.5 1.3 1.1 1 1.7 2.2 1.6 3.6v2.4c0 1.2-.6 2.1-1.9 2.6-1.5.6-3.1.6-4.6 0C.7 16.7 0 15.9 0 14.7v-3.6M55.1 10.4V6.8v-.4c-.1-.3-.3-.5-.7-.5-.4 0-.6.2-.6.5V14c0 .2 0 .4.1.5.1.2.3.4.5.4s.5-.2.6-.3c.1-.1.1-.4.1-.5v-3.7m-1.4 5.9c0 .4 0 .7-.1 1h-3V.1h3.1v4.4h.1l.3-.3c.6-.6 1.3-.9 2.2-.7.9.2 1.5.8 1.7 1.7.1.2.1.4.1.7v9.2c0 .4-.1.8-.3 1.2-.7 1.6-2.8 1.8-3.9.4 0-.2-.1-.3-.2-.4M17.5.1h3v4.4l.1.1c0-.1 0-.1.1-.2.8-.8 1.7-1.1 2.7-.8.9.3 1.4 1.1 1.5 2.2v11.6h-3v-.5-9.8-.5c-.1-.4-.4-.6-.7-.6-.4 0-.6.2-.7.5v10.8h-3V.1zM37.1 3.6v13.7h-2.9c0-.3-.1-.6-.1-1-.2.2-.2.3-.3.4-.7.7-1.5 1-2.5.6-1-.3-1.4-1-1.6-2v-.6V3.6h3.1v10.5c0 .2 0 .4.1.6.1.3.3.4.6.4s.5-.2.6-.5V14 3.6h3zM63.3 8.8V6.3c0-.5-.2-.7-.6-.7-.4 0-.6.3-.7.7v1.5c0 1.1 0 1.1 1.1 1 .1.1.1.1.2 0m3.1 2.1H62v3.8c.1.3.4.6.7.5.4 0 .6-.3.6-.6v-2.7h3.2c-.1 1.1 0 2.2-.2 3.3-.2 1.2-1.3 1.8-2.5 2.1-.9.2-1.8.2-2.7-.1-1.4-.4-2.2-1.4-2.2-2.8V6.5c0-1.6 1.2-2.8 2.9-3 .9-.1 1.9-.1 2.7.3 1.1.4 1.8 1.2 1.8 2.3.2 1.6.1 3.2.1 4.8M86.9 7.4v1.2c0 .1.1.2.2.3h.9c.1 0 .2-.1.2-.2V6.3c0-.4-.3-.6-.6-.6-.4 0-.6.2-.6.6-.1.3-.1.7-.1 1.1m4.4 3.5H87c0 .1-.1.1-.1.2v3.5c0 .4.2.6.6.6.3 0 .6-.2.7-.6v-.4-2c0-.3.1-.4.4-.4h2.3c.3 0 .4.1.4.3V14c.1 2-1.4 3-3.1 3.3-1 .1-2.1 0-3-.5-.9-.5-1.4-1.3-1.4-2.3V6.2c0-1.2.8-2.2 2.1-2.6 1.3-.4 2.6-.4 3.8.3.9.5 1.5 1.3 1.5 2.3v4.4c.1.1.1.2.1.3M16.7 11.9c-.1 1.2 0 2.3-.3 3.5-.2 1.1-1.2 1.7-2.3 2-1 .2-1.9.2-2.9-.1-1.4-.4-2.1-1.4-2.1-2.8V6.7c0-1.7 1.1-2.9 2.9-3.1.9-.1 1.8-.1 2.7.3 1.1.5 1.8 1.2 1.9 2.4.1.8 0 1.7 0 2.5h-3.1v-.5-2c0-.4-.3-.7-.7-.7-.4 0-.6.3-.6.7v8.3c0 .4.3.6.7.6.4 0 .7-.2.7-.6v-2.3c0-.3.1-.4.4-.4h2.7M92.1 17.3V3.6h3c0 .3.1.6.1 1l.4-.4c.7-.6 1.5-.9 2.4-.6.9.3 1.4 1 1.5 1.8v5.2c0 .3-.1.4-.4.4h-2.3c-.3 0-.4-.1-.4-.4v-4c0-.6-.6-.8-1-.6-.2.1-.3.3-.4.5-.1.1 0 .3 0 .4v10.4h-2.9zM67.3 3.6h3c0 .3.1.6.1 1 .2-.2.3-.3.3-.4.7-.8 1.7-1 2.6-.7.9.3 1.5 1.1 1.5 2.1v5.3h-3.1v-.8-3.5c0-.4-.2-.6-.6-.7-.4 0-.7.2-.7.6V17.2h-3V3.6z"/><path fill="#fff" d="M25.7.1h3v17.2h-3z"/></svg>