<svg xmlns="http://www.w3.org/2000/svg" width="1050.808" height="540.962" viewBox="0 0 278.026 143.129"><path d="M84.28 142.732c-4.867-.92-10.71-3.674-14.366-6.772l-1.17-.991-.064-10.672c-.035-5.87.049-10.672.186-10.672.138 0 1.725 1.684 3.528 3.741 7.07 8.068 12.716 11.155 19.405 10.607 5.866-.48 8.842-3.88 7.67-8.765-.738-3.076-2.855-4.972-12.402-11.108-10.076-6.477-14.105-10.158-16.539-15.112-3.938-8.017-1.863-18.769 4.785-24.789 8.75-7.924 22.094-8.501 34.666-1.5l2.205 1.228v9.267c0 5.097-.06 9.268-.13 9.268-.073 0-1.588-1.164-3.368-2.585-6.423-5.128-11.185-7.293-16.042-7.293-4.724 0-7.822 1.744-8.666 4.878-.82 3.044 1.498 6.169 7.373 9.938 11.827 7.59 14.413 9.413 16.96 11.962 5.034 5.035 7.094 10.085 7.139 17.496.023 3.725-.09 4.572-.937 7.055-2.432 7.13-8.26 12.44-15.911 14.497-2.96.795-10.876.973-14.321.322zm101.281-.806l-7.937-.098-1.468-3.43c-.807-1.886-2.691-6.207-4.186-9.603-1.496-3.395-2.941-6.69-3.212-7.32l-.492-1.146h-28.1l-.453.97c-.442.945-6.788 15.529-8.213 18.873l-.713 1.676h-8.067c-4.437 0-8.067-.14-8.067-.31 0-.17.384-1.163.853-2.205.47-1.042 3.708-8.483 7.197-16.535 3.49-8.052 6.9-15.91 7.579-17.462 1.343-3.07 7.188-16.533 13.478-31.045 2.186-5.045 4.179-9.613 4.428-10.15l.453-.98 5.483.097 5.482.097 6.983 15.875c3.841 8.731 8.56 19.447 10.489 23.813 12.61 28.554 16.935 38.6 16.694 38.778-.15.112-3.845.16-8.21.105zm-23.989-36.272c0-.145-4.408-10.292-6.791-15.631l-.851-1.907-3.675 8.585c-2.022 4.722-3.73 8.72-3.796 8.883-.066.163 3.307.283 7.496.266 4.19-.017 7.617-.105 7.617-.196zM0 102.486v-39.36l15.081.137c14.232.13 15.24.181 17.904.916 8.09 2.233 13.587 7.035 15.73 13.743 1.168 3.657 1.35 10.638.376 14.488-1.221 4.828-4.362 9.075-8.433 11.404-1.019.583-1.852 1.126-1.852 1.207 0 .081.704 1.013 1.565 2.07 1.407 1.727 23.129 34.223 23.129 34.6 0 .087-4.189.157-9.308.157h-9.308l-8.136-12.436c-8.871-13.559-10.67-15.993-13.261-17.951-1.761-1.331-4.842-2.422-6.841-2.422h-1.124v32.809H0zm28.04-8.13c4.134-1.236 6.097-4.385 5.75-9.222-.432-6.023-3.558-7.825-13.593-7.838l-4.675-.01v18.087l5.204-.195c3.467-.13 5.907-.406 7.313-.826zm201.947 1.385l-1.259-.142-.77-5.715c-.424-3.144-.77-6.143-.77-6.665 0-.522-.158-1.047-.352-1.167-.194-.12-.353-.025-.353.21 0 .236-.736 3.182-1.637 6.547-1.59 5.944-1.663 6.12-2.557 6.117-.507 0-1.517-.167-2.245-.37l-1.324-.367.204-2.364c.414-4.814.68-10.97.462-10.728-.124.137-1.38 2.526-2.793 5.309-1.412 2.783-2.781 5.141-3.042 5.241-.26.1-.473.403-.473.673 0 .608.012.608-1.536-.039-1.133-.473-1.247-.638-1.065-1.544.111-.558.045-1.113-.149-1.232-.218-.135.167-2.184 1.015-5.402.75-2.851 1.325-5.224 1.276-5.274-.049-.049-1.5 1.728-3.223 3.948-1.723 2.22-3.271 4.037-3.44 4.037-.17 0-.397-.23-.505-.512-.152-.395-.382-.297-1.006.428-.724.842-.906.897-1.733.52-1.127-.514-1.146-.874-.135-2.51.434-.701.742-1.546.686-1.877-.079-.467 2.25-5.838 3.408-7.859.109-.19-1.211.743-2.933 2.071-2.877 2.221-3.167 2.366-3.586 1.793-.423-.578-.6-.515-2.434.87-1.9 1.435-2.005 1.47-2.658.879-.374-.338-.68-.79-.68-1.004 0-.214.728-1.26 1.616-2.326.888-1.066 2.553-3.317 3.699-5.003l2.083-3.066-2.871 1.037c-3.364 1.215-3.115 1.174-3.115.508 0-.74-.129-.703-2.999.882-1.406.776-2.78 1.41-3.054 1.41s-.764-.45-1.09-1l-.59-1.001 3.69-2.713c2.03-1.492 3.69-2.854 3.69-3.027 0-.173.595-.685 1.323-1.137l1.323-.823-1.588-.176c-1.277-.142-1.608-.322-1.693-.92-.106-.738-.143-.735-4.587.433-2.463.648-4.662 1.181-4.886 1.185-.352.01-1.338-2.074-1.094-2.31.049-.049 2.47-1.037 5.381-2.197 5.196-2.07 5.294-2.13 5.405-3.249l.114-1.14-6.287.13-6.287.13-.108-1.292c-.128-1.54-.76-1.3 7.34-2.802 3.395-.63 6.272-1.236 6.392-1.347.12-.112.322-.64.448-1.173.186-.79.108-.97-.423-.97-.819 0-13.825-2.344-13.97-2.518-.06-.07-.034-.723.056-1.451l.165-1.323h8.605c7.22 0 8.604-.08 8.604-.504 0-.284-.807-.807-1.852-1.2-2.425-.912-13.824-5.413-13.923-5.498-.236-.202.787-2.675 1.106-2.674.21 0 4.033.713 8.495 1.584 4.463.87 8.272 1.585 8.466 1.586.193 0-2.903-2.161-6.88-4.807-3.976-2.646-7.284-4.856-7.35-4.912-.193-.163.27-1.332.806-2.036.466-.612.814-.503 6.606 2.055a905.933 905.933 0 0 1 8.36 3.734l2.248 1.033-5.617-5.91c-6.579-6.922-7.168-7.566-7.168-7.83 0-.108.52-.611 1.154-1.117l1.153-.92 5.99 4.39c3.295 2.414 6.418 4.698 6.94 5.074.673.485-.39-1.482-3.644-6.742l-4.594-7.426.822-.687c1.174-.98 2.066-1.208 2.572-.655.24.263 2.545 2.859 5.123 5.769 6.307 7.12 5.774 6.61 5.172 4.939-.516-1.434-4.889-12.912-5.334-14-.185-.454.109-.775 1.232-1.348.81-.414 1.684-.672 1.94-.574.257.1 2.259 3.2 4.448 6.89 2.19 3.692 4.02 6.673 4.07 6.624.047-.048-.457-3.415-1.122-7.483-.665-4.067-1.213-7.652-1.218-7.966-.01-.409.516-.675 1.843-.938 1.018-.202 1.89-.33 1.936-.285.046.045 1.167 3.21 2.49 7.032 1.323 3.823 2.516 6.84 2.65 6.706.134-.134.244-1.462.244-2.952s.104-4.645.231-7.012L227.3 0l2.15.104 2.15.103.915 7.232c.893 7.048.927 7.192 1.349 5.645.238-.874 1.074-3.97 1.858-6.88.784-2.91 1.474-5.345 1.534-5.41.159-.175 4.056.73 4.192.972.064.113-.096 3.063-.354 6.555a707.315 707.315 0 0 0-.479 6.703c0 .194 1.304-2.166 2.908-5.243 1.604-3.078 3.07-5.603 3.257-5.61.188-.01.531-.267.763-.577.378-.507.517-.51 1.364-.035 1.433.804 1.425 2.757-.035 8.439-.67 2.604-1.164 4.788-1.099 4.853.065.065 1.525-1.704 3.243-3.932 2.852-3.698 3.176-4.005 3.712-3.52.53.48.645.445 1.173-.361.698-1.064.947-1.095 1.992-.25l.796.645-.893 1.56c-.49.86-.825 1.738-.743 1.954.082.216-.64 2.038-1.606 4.05-.965 2.01-1.724 3.688-1.685 3.726.038.038 1.325-.871 2.86-2.021 1.536-1.15 2.916-2.09 3.067-2.09.15 0 .411.245.579.544.254.455.613.3 2.174-.943 1.432-1.141 1.998-1.407 2.423-1.139 1.407.888 1.309 1.38-.765 3.823-2.502 2.95-5.78 7.767-5.121 7.527 4.685-1.709 5.286-1.86 5.568-1.405.228.368.91.158 3.155-.97 1.575-.792 2.936-1.44 3.024-1.44.088 0 .492.466.897 1.035l.738 1.035-3.448 2.533c-1.896 1.392-3.633 2.766-3.861 3.052-.228.286-.933.903-1.568 1.371l-1.154.851h1.48c1.343 0 1.48.081 1.48.882 0 .485.076.882.17.882.092 0 2.348-.549 5.012-1.22 2.663-.67 4.857-1.187 4.874-1.146l.473 1.097c.242.563.314 1.15.16 1.303-.25.246-2.563 1.175-8.837 3.55-1.747.66-1.852.77-1.852 1.931v1.23l2.38-.199c1.31-.11 4.128-.238 6.263-.286l3.88-.086.105 1.413.104 1.412-6.278 1.173c-3.453.646-6.565 1.254-6.915 1.352-.545.153-1.514 1.794-1.225 2.075.054.053 2.48.517 5.39 1.032 2.91.515 6.134 1.098 7.163 1.296l1.87.36-.107 1.47-.107 1.47-8.302-.127c-6.99-.108-8.371-.045-8.734.392-.422.508 2.506 1.805 13.42 5.943 2.13.807 2.352 1.186 1.702 2.896l-.327.859-4.347-.836-8.695-1.673c-2.391-.46-4.217-.72-4.057-.574.16.145 3.426 2.35 7.258 4.898 3.832 2.55 6.967 4.72 6.967 4.824 0 .51-1.122 2.272-1.447 2.272-.357 0-7.74-3.176-13.49-5.804l-2.767-1.264 1.356 1.562c.745.859 3.56 3.88 6.255 6.714 4.868 5.12 4.896 5.158 4.237 5.886-1.532 1.693-1.486 1.713-8.61-3.541-3.685-2.718-6.7-4.858-6.7-4.757 0 .101 1.984 3.367 4.41 7.256 2.424 3.89 4.409 7.134 4.409 7.208 0 .074-.647.563-1.439 1.087-.887.587-1.529.814-1.675.591-.375-.568-10.71-12.116-10.845-12.116-.066 0 .255.992.715 2.205l2.943 7.765c1.458 3.85 1.983 5.638 1.706 5.812-1.188.746-2.83 1.462-3.046 1.328-.136-.084-2.05-3.168-4.255-6.853-2.204-3.684-4.05-6.657-4.101-6.606-.052.052.203 1.91.566 4.13 1.739 10.65 1.827 11.382 1.403 11.644-.676.418-3.232.732-3.512.432-.142-.153-1.293-3.294-2.557-6.98-1.264-3.687-2.38-6.465-2.48-6.174-.1.29-.312 3.545-.472 7.232l-.291 6.702-.882.036c-.485.02-1.449-.028-2.141-.105zm4.476-24.636c8.491-1.463 15.438-7.47 18.347-15.864.86-2.482.98-3.355.996-7.232.016-3.942-.091-4.741-1.006-7.534-1.945-5.932-6.276-11.063-11.74-13.905-3.471-1.806-6.424-2.538-10.27-2.545-11.26-.02-20.559 6.603-23.769 16.928-.683 2.197-.82 3.395-.804 7.056.015 3.826.14 4.764.949 7.09 2.937 8.448 9.639 14.217 18.612 16.02 3.115.625 4.994.622 8.685-.014z" fill="#fff" stroke-width=".353"/></svg>