<svg xmlns="http://www.w3.org/2000/svg" width="645.971" height="189.317" viewBox="0 0 170.913 50.09"><path d="M98.23 49.573c-6.734-2.076-10.188-14.379-6.354-22.629 2.171-4.672 5.857-7.268 10.366-7.3 4.028-.03 6.873 1.824 8.88 5.787.81 1.596 1.574 5.05 1.58 7.133l.003.97H95.066l.005 1.676c.007 2.114.842 5.7 1.737 7.453.377.74 1.278 1.865 2.003 2.501 1.269 1.114 1.403 1.15 3.705.985 1.772-.127 3.085-.502 5.09-1.454 1.487-.706 2.753-1.283 2.813-1.283.307 0 1.27 3.174 1.064 3.507-.448.726-3.796 2.19-6.14 2.688-2.902.615-5.04.605-7.113-.034zm9.534-20.008c-.01-2.421-2.417-5.735-4.44-6.114-3.394-.637-5.858 1.216-7.557 5.685l-.33.87h6.164c4.698 0 6.164-.105 6.163-.44zM124.81 49.46c-2.048-.707-4.697-2.338-4.697-2.891 0-.2.318-.984.705-1.745l.706-1.382 2.558 1.363c3.143 1.675 4.3 1.932 6.355 1.414 2.285-.575 3.61-2.059 3.61-4.04 0-2.185-1.186-3.27-6.576-6.01-2.461-1.252-4.988-2.707-5.614-3.234-3.582-3.014-3.17-8.97.803-11.625 4.078-2.726 11.298-2.118 14.496 1.22l.949.99-1.246 1.206c-1.06 1.029-1.335 1.142-1.852.767-4.837-3.507-11.013-2.604-11.013 1.61 0 1.676 1.02 2.526 6.048 5.043 5.208 2.608 6.708 3.729 7.682 5.741 1.043 2.155 1.01 5.6-.076 7.651-2.002 3.787-7.962 5.607-12.838 3.922zm27.902.101c-.6-.296-1.473-1.205-1.94-2.02-.84-1.465-.85-1.608-.964-12.507l-.115-11.024H144.454v-3.528h5.645V15.19h4.234v5.291h5.997v3.528h-5.645v10.516c0 12.154-.054 11.916 2.678 11.626.953-.101 1.982-.29 2.288-.418.421-.176.673.12 1.036 1.22.56 1.698.471 1.801-2.273 2.634-2.21.67-4.309.66-5.702-.027zM61.552 34.77V20.48h2.47c2.404 0 2.469.024 2.469.89v.889l1.323-.665c2.648-1.33 5.177-1.962 7.85-1.961 2.826 0 4.173.48 5.507 1.96 1.436 1.595 1.548 2.707 1.548 15.344v12.118h-4.586V37.431c0-7.888-.128-11.906-.399-12.5-.93-2.04-4.756-2.037-8.976.006l-2.09 1.012-.094 11.553-.093 11.554h-4.929zM18.054 40.59C11.42 39.193 4.87 34.811 2.37 30.101.442 26.47.009 24.387 0 18.718-.009 12.855.387 10.435 2.34 4.44 3.953-.522 4.518-1.409 3.76 2.205c-.824 3.935-.8 16.626.038 19.687.707 2.587 2.31 6.088 3.393 7.409l.722.882.008-.859c.021-2.331 2.202-4.869 4.688-5.454l.976-.23-.798-1.386c-.476-.827-1.155-1.476-1.682-1.607-2.614-.652-4.414-2.82-4.158-5.007.133-1.142.022-1.297-1.731-2.418-1.03-.66-1.873-1.282-1.873-1.385 0-.23 2.148-4.056 2.278-4.056.051 0 2.093.945 4.537 2.1 3.045 1.44 5.35 2.273 7.32 2.646 4.466.848 4.754.794 8.436-1.566 5.121-3.284 8.711-4.359 9.519-2.85.2.375.365 1.209.365 1.852v1.17h3.616c3.205 0 3.794.1 5.179.882 3.86 2.178 4.186 7.082.929 13.99-2.785 5.906-7.32 11.063-11.553 13.143-4.397 2.159-10.077 2.674-15.916 1.443zm11.924-4.986c1.165-.363 2.506-.963 2.982-1.333l.865-.672-1.57-.404a71.702 71.702 0 0 1-3.647-1.084l-2.076-.68-2.334 2.453c-1.992 2.094-2.23 2.475-1.628 2.6 1.28.265 5.255-.207 7.408-.88zm-12.803-1.932c1.169-.605 4.513-3.587 4.513-4.025 0-.144-.479-.46-1.065-.703-.585-.242-1.928-1.046-2.984-1.786-1.693-1.186-2.052-1.307-3.036-1.025-1.548.444-2.698 1.255-2.963 2.09-.284.893.963 3.759 2.196 5.046 1.066 1.113 1.795 1.201 3.339.403zm18.271-4.87c0-.235-4.536-3.03-4.917-3.03-.396 0-1.223 1.385-.975 1.633.502.503 5.892 1.78 5.892 1.397zm5.995-5.283c1.363-3.04 1.891-5.487 1.44-6.672-.36-.95-.37-.953-3.986-.947-1.994.003-3.788.122-3.986.264-.513.368-2.348 5.177-2.017 5.288.15.05 1.78 1.102 3.62 2.339 1.839 1.236 3.483 2.166 3.653 2.066.17-.1.743-1.151 1.276-2.338zm-15.883.775l.684-1.126-2.854-1.55c-2.337-1.27-3.066-1.511-4.028-1.33-1.7.318-1.827.867-.46 1.991 1.202.988 5.085 3.14 5.665 3.14.17 0 .617-.506.993-1.125zm3.307-6.356c.273-1.046.181-1.088-1.589-.728l-1.53.312 1.057.583c1.425.785 1.821.753 2.062-.167zm135.968 4.688c-.989-.884-1.152-1.262-1.152-2.675 0-1.412.163-1.79 1.152-2.675 1.305-1.165 2.717-1.327 4.323-.496 1.281.662 1.757 1.522 1.757 3.171 0 1.65-.476 2.51-1.757 3.172-1.606.83-3.018.668-4.323-.497zm4.544-.512c.74-.637.972-1.153.972-2.163 0-2.5-3.193-3.975-4.986-2.305-3.015 2.81.89 7.155 4.014 4.468zm-3.403-2.163v-1.94h1.246c1.458 0 1.87.663 1.252 2.019-.328.72-.321.975.032 1.193.246.152.333.392.193.533-.141.14-.652-.116-1.137-.571l-.88-.828v.767c0 .422-.159.767-.353.767-.194 0-.353-.873-.353-1.94zm1.94-.73c0-.37-.277-.725-.617-.79-.62-.12-.894.95-.375 1.469.417.417.993.023.993-.679z" fill="#fff" stroke-width=".353"/></svg>