<svg xmlns="http://www.w3.org/2000/svg" width="3324.957" height="530.712" viewBox="0 0 879.728 140.417"><path d="M1.648 137.769c.906-1.422 21.165-32.974 45.018-70.115L90.036.126h28.222v69.369l-13.625 20.122-13.625 20.123-.068-30.632-.067-30.631-29.735 45.939-29.734 45.939H0zm78.939 2.255C81.142 139.085 171.019.749 171.212.536c.126-.14.227 10.226.227 23.42v23.67L141.386 93.99l-30.054 46.365h-15.47c-12.305 0-15.431-.068-15.275-.331zm97.73-69.784V.126H206.1V140.355h-27.781zm33.868 56.092v-14.023h76.464v28.046h-76.464zm84.402-28.84V54.63h4.19c2.304 0 8.496.079 13.758.175l9.568.175v85.375h-27.516zm43.656-27.252V.126h28.046V140.355h-28.046zm58.022 25.796l-23.602-44.311.187-25.863L375.036 0l23.378 42.86c12.859 23.572 23.485 42.971 23.614 43.11.138.146.236-17.655.236-42.797V.126h27.781V140.355l-14.089-.004-14.09-.004-23.6-44.312zm98.544 43.988c.144-.182 20.712-30.692 45.707-67.8 24.994-37.107 45.548-67.581 45.675-67.72.132-.143.231 8.68.231 20.518V45.79l-31.016 47.282-31.015 47.282h-14.922c-11.901 0-14.869-.067-14.66-.331zm98.492-15.147v-15.479h-20.136c-16.003 0-20.11-.067-20.007-.33.072-.182 4.065-6.582 8.873-14.222l8.742-13.89 11.264-.07 11.264-.068V.39h26.988v139.965H595.3zm74.42 14.592l-15.947-30.294-15.478-29.407h-8.599v-27.76l14.618-.077c14.578-.077 14.623-.079 16.133-.689 4.887-1.976 7.35-5.793 7.35-11.397 0-6.59-2.767-10.62-8.45-12.306-1.244-.369-3.362-.426-15.808-.426h-14.372V.39h15.716c14.357 0 15.977.045 18.725.514 5.351.915 9.897 2.658 14.042 5.385 3.1 2.04 5.171 4.033 7.712 7.422 7.696 10.268 9.736 16.198 9.342 27.16-.498 13.87-6.464 24.759-17.647 32.213-2.298 1.531-6.538 3.698-8.943 4.57-1.294.469-1.63.699-1.505 1.027.146.385 22.75 44.45 29.024 56.58l2.634 5.094H670.191zm31.414-69.109V.365l20.042.091c19.366.088 20.153.11 23.331.681 10.209 1.834 18.785 4.966 26.643 9.73 7.751 4.701 14.491 11.174 19.534 18.76 2.07 3.114 5.542 10.026 6.893 13.72 3.427 9.376 5.207 20.261 5.197 31.788 0 5.775-.368 9.235-1.5 14.282-2.15 9.588-7.519 20.32-14.11 28.206-9.062 10.842-22.442 18.6-37.907 21.978-1.818.397-3.847.579-7.576.68l-5.093.136v-26.666l2.976-.043c6.727-.097 14.048-2.445 19.968-6.405 6.244-4.176 11.723-10.32 14.767-16.558 5.315-10.89 5.428-25.967.291-38.76-5.803-14.455-18.665-23.272-36.282-24.872-3.347-.304-6.139-.338-7.901-.096l-1.228.168v113.17h-28.045zm118.268 17.607V35.58h27.869l-.176 38.695c-.097 21.282-.176 44.857-.176 52.388v13.692h-27.517zm-313.266 7.99v-20.16h-48.948V47.488l24.408-.068 24.407-.067.068-23.482L506.14.39h27.778v75.384l-13.657 19.921c-7.512 10.957-13.763 20.034-13.891 20.173-.135.145-.233-8.26-.233-19.91zM225.745 83.8l-13.56-.07V55.952h64.029v28.045l-18.455-.063c-10.15-.035-24.557-.096-32.014-.135zm73.025-38.1l-11.708-.072V.126h45.508V45.899l-11.046-.064c-6.076-.035-16.315-.095-22.754-.135zm497.992-19.537c-6.15-9.956-14.211-17.4-26.174-24.174-1.601-.907-2.96-1.697-3.02-1.756-.062-.059 25.15-.107 56.025-.107h56.135V28.7H798.33zm-556.465 1.81l-28.112-.069v-7.893c0-4.342.078-10.592.174-13.89l.175-5.995h64.209V28.17l-4.167-.065c-2.292-.035-16.818-.095-32.28-.133z" fill="#fff" stroke-width=".265"/></svg>