<svg id="Слой_1" data-name="Слой 1" xmlns="http://www.w3.org/2000/svg" viewBox="0 0 65.14 35.36"><defs><style>.cls-1{fill:#fff}</style></defs><path class="cls-1" d="M0 19.32h1.91v.5H.55v.51h1.19v.49H.55v.54h1.37v.49H0v-2.53z"/><path class="cls-1" d="M585.42 3841.83a1.29 1.29 0 0 1 1.32-1.31 1.32 1.32 0 0 1 1 .39l-.36.41a.9.9 0 0 0-.64-.28.75.75 0 0 0-.74.78.75.75 0 0 0 .74.79.9.9 0 0 0 .66-.29l.35.35a1.33 1.33 0 0 1-2.33-.84M590.12 3841.83a.77.77 0 0 0-.77-.79.76.76 0 0 0-.76.78.77.77 0 0 0 .77.79.75.75 0 0 0 .76-.78m-2.11 0a1.31 1.31 0 0 1 1.35-1.31 1.29 1.29 0 0 1 1.34 1.3 1.35 1.35 0 0 1-2.69 0" transform="translate(-583.12 -3821.23)"/><path class="cls-1" d="M8.08 19.32h.51l1.18 1.56v-1.56h.55v2.53h-.47l-1.22-1.61v1.61h-.55v-2.53z"/><path class="cls-1" d="M596 3841.83a.77.77 0 0 0-.77-.79.75.75 0 0 0-.76.78.77.77 0 0 0 .77.79.75.75 0 0 0 .76-.78m-2.11 0a1.31 1.31 0 0 1 1.35-1.31 1.29 1.29 0 0 1 1.34 1.3 1.35 1.35 0 0 1-2.69 0" transform="translate(-583.12 -3821.23)"/><path class="cls-1" d="M13.99 19.32h.6l.67 1.07.66-1.07h.6v2.53h-.55V20.2l-.71 1.08h-.02l-.7-1.07v1.64h-.55v-2.53zM17.15 19.32h.56v2.53h-.56z"/><path class="cls-1" d="M601.34 3841.83a1.29 1.29 0 0 1 1.32-1.31 1.32 1.32 0 0 1 1 .39l-.36.41a.9.9 0 0 0-.64-.28.75.75 0 0 0-.74.78.75.75 0 0 0 .74.79.9.9 0 0 0 .66-.29l.36.35a1.33 1.33 0 0 1-2.34-.84M606.19 3842.58a.72.72 0 0 0 .76-.75.72.72 0 0 0-.76-.76h-.43v1.52zm-1-2h1a1.26 1.26 0 0 1 1.34 1.25 1.26 1.26 0 0 1-1.34 1.26h-1z" transform="translate(-583.12 -3821.23)"/><path class="cls-1" d="M24.91 19.32h1.9v.5h-1.35v.51h1.19v.49h-1.19v.54h1.37v.49h-1.92v-2.53zM27.11 19.32h.61l.66 1.78.66-1.78h.6l-1.02 2.55h-.49l-1.02-2.55zM30.03 19.32h1.91v.5h-1.36v.51h1.19v.49h-1.19v.54h1.38v.49h-1.93v-2.53zM32.45 19.32h.56v2.02h1.26v.51h-1.82v-2.53z"/><path class="cls-1" d="M619.65 3841.83a.77.77 0 0 0-.77-.79.76.76 0 0 0-.76.78.77.77 0 0 0 .77.79.75.75 0 0 0 .76-.78m-2.11 0a1.31 1.31 0 0 1 1.35-1.31 1.29 1.29 0 0 1 1.34 1.3 1.35 1.35 0 0 1-2.69 0M621.72 3841.83a.39.39 0 0 0 .44-.38c0-.25-.17-.38-.45-.38h-.43v.77zm-1-1.27h1a.86.86 0 0 1 1 .87c0 .58-.45.88-1 .88h-.42v.76h-.56z" transform="translate(-583.12 -3821.23)"/><path class="cls-1" d="M40.02 19.32h.6l.66 1.07.67-1.07h.59v2.53h-.55V20.2l-.71 1.08h-.01l-.71-1.07v1.64h-.54v-2.53zM43.15 19.32h1.9v.5H43.7v.51h1.19v.49H43.7v.54h1.37v.49h-1.92v-2.53zM45.57 19.32h.51l1.18 1.56v-1.56h.55v2.53h-.47l-1.22-1.61v1.61h-.55v-2.53zM49.01 19.84h-.77v-.52h2.09v.52h-.77v2.01h-.55v-2.01z"/><path class="cls-1" d="M636.16 3842.6c.24 0 .39-.09.39-.28 0-.17-.13-.27-.41-.27h-.64v.56zm-.15-1c.24 0 .4-.08.4-.27 0-.16-.13-.26-.36-.26h-.55v.54zm-1-1h1.17a.89.89 0 0 1 .66.22.6.6 0 0 1 .17.43.58.58 0 0 1-.33.54.61.61 0 0 1 .47.62c0 .46-.37.69-.94.69H635zM639.55 3841.83a.76.76 0 0 0-.76-.79.75.75 0 0 0-.76.78.77.77 0 0 0 .77.79.75.75 0 0 0 .75-.78m-2.1 0a1.31 1.31 0 0 1 1.35-1.31 1.29 1.29 0 0 1 1.33 1.3 1.34 1.34 0 0 1-2.68 0M641.92 3842l-.34-.81-.33.81zm-.59-1.48h.52l1.08 2.54h-.58l-.23-.56h-1.07l-.23.56h-.57zM644.44 3841.78c.27 0 .42-.14.42-.35 0-.24-.16-.36-.44-.36h-.55v.72zm-1.12-1.22h1.15a1 1 0 0 1 .74.25.79.79 0 0 1 .21.58.79.79 0 0 1-.54.78l.62.9h-.65l-.54-.81h-.44v.81h-.55zM646.91 3842.58a.72.72 0 0 0 .76-.75.72.72 0 0 0-.76-.76h-.43v1.52zm-1-2h1a1.25 1.25 0 0 1 1.34 1.25 1.26 1.26 0 0 1-1.34 1.26h-1zM587.92 3854.65c1 0 1.57-.35 1.57-1.1 0-.68-.5-1.1-1.64-1.1h-2.57v2.23zm-.59-4.07c1 0 1.6-.32 1.6-1.07 0-.66-.52-1-1.46-1h-2.19v2.14zm-4.21-4.09h4.69a3.65 3.65 0 0 1 2.64.9 2.31 2.31 0 0 1 .69 1.72 2.35 2.35 0 0 1-1.33 2.18 2.47 2.47 0 0 1 1.89 2.48c0 1.85-1.5 2.77-3.78 2.77h-4.8zM598.78 3852.37l-1.34-3.28-1.34 3.28zm-2.33-5.95h2l4.33 10.17h-2.28l-.92-2.26h-4.27l-.93 2.26h-2.26z" transform="translate(-583.12 -3821.23)"/><path class="cls-1" d="M20.72 25.26h2.22v4h4.1v-4h2.22v10.1h-2.22v-4.05h-4.1v4.05h-2.22v-10.1z"/><path class="cls-1" d="M618.72 3851.4c1.08 0 1.71-.58 1.71-1.43 0-1-.67-1.44-1.75-1.44h-2.21v2.9zm-4.47-4.91h4.62a4 4 0 0 1 2.94 1 3.17 3.17 0 0 1 .87 2.31 3.14 3.14 0 0 1-2.17 3.13l2.47 3.6h-2.6l-2.16-3.23h-1.75v3.23h-2.22zM630 3852.37l-1.34-3.28-1.34 3.28zm-2.33-5.95h2l4.33 10.17h-2.33l-.92-2.26h-4.27l-.93 2.26h-2.26z" transform="translate(-583.12 -3821.23)"/><path class="cls-1" d="M51.97 25.26h2.22v10.1h-2.22zM56.16 25.26h2.05l4.74 6.22v-6.22h2.19v10.1h-1.89l-4.89-6.42v6.42h-2.2v-10.1zM19.52 0h12.06v3.13h-8.56v3.24h7.54V9.5h-7.54v3.36h8.68v3.13H19.52V0z"/><path class="cls-1" d="M623.61 3834.05a4.56 4.56 0 0 0 4.82-4.78 4.59 4.59 0 0 0-4.82-4.82h-2.72v9.64zm-6.24-12.82h6.24c5 0 8.5 3.45 8.5 7.95v.05c0 4.5-3.48 8-8.5 8h-6.24zM642.27 3834.14c1.55 0 2.49-.55 2.49-1.74 0-1.08-.8-1.74-2.6-1.74h-4.07v3.52zm-.94-6.44c1.56 0 2.54-.51 2.54-1.69v-.01c0-1.05-.82-1.64-2.31-1.64h-3.47v3.38zm-6.67-6.47h7.43a5.81 5.81 0 0 1 4.18 1.42 3.66 3.66 0 0 1 1.09 2.72 3.72 3.72 0 0 1-2.1 3.45c1.85.71 3 1.78 3 3.93v.05c0 2.92-2.37 4.38-6 4.38h-7.61zM583.12 3821.23v16a8.81 8.81 0 0 0 0-16m16 0v16h-10.36l-1.25-2.17 5.78 1.2-4.37-4 5.86-.64-5.38-2.42 5.38-2.42-5.86-.64 4.37-4-5.78 1.21 1.25-2.18z" transform="translate(-583.12 -3821.23)"/></svg>