<svg xmlns="http://www.w3.org/2000/svg" width="1202.773" height="1006.529" viewBox="0 0 318.234 266.311"><path d="M88.239 266.075c-20.228-.122-48.148-.31-62.045-.42l-25.268-.198-.08-.96c-.068-.816.011-.982.529-1.106.335-.08 7.336-.16 15.558-.176 8.222-.016 31.856-.14 52.52-.276 20.664-.135 58.645-.251 84.402-.258 49.933-.014 154.558.44 160.418.694l3.52.153-.08.965-.08.964-23.416.177c-99.824.756-139.43.84-205.979.44zM71.04 246.039c-2.792-.511-5.954-1.316-6.28-1.599-.18-.155-2.32-8.967-2.32-9.549 0-.141.745.292 1.654.962 4.47 3.295 11.841 5.563 16.206 4.987 3.637-.48 7.12-2.271 8.514-4.379.764-1.155 1.098-3.353.773-5.088-.249-1.324-1.64-3.257-3.174-4.412-1.411-1.063-5.341-3.179-7.833-4.218-10.644-4.44-14.834-8.785-14.81-15.352.021-5.72 3.336-9.826 9.6-11.891 3.283-1.082 5.176-1.344 9.74-1.346 3.852-.002 7.132.4 9.956 1.22l1.39.403v4.17c0 2.294-.076 4.246-.168 4.338-.092.092-.657-.253-1.257-.767-1.38-1.184-4.291-2.614-6.513-3.2-3.83-1.01-9.13-.347-11.427 1.432-1.655 1.282-2.183 2.308-2.275 4.416-.073 1.686 0 2.014.716 3.24 1.291 2.21 3.787 3.923 9.574 6.572 7.327 3.353 10.1 4.99 12.432 7.344 4.217 4.255 4.18 10.866-.088 16.085-2.22 2.714-6.21 5.19-10.255 6.362-2.843.824-10.35.967-14.155.27zm66.41 0c-11.274-2.076-18.378-8.31-21.07-18.486-.7-2.648-.958-8.636-.506-11.732 1.545-10.56 8.348-18.142 18.772-20.919 3.222-.858 10.48-.978 15.107-.25 1.965.31 4.227.713 5.027.897l1.455.334.073 4.426c.04 2.434-.013 4.426-.118 4.426s-1.21-.52-2.454-1.157c-4.055-2.074-7.447-2.924-11.538-2.894-8.21.061-14.235 4.342-16.69 11.856-.94 2.874-1.169 7.99-.506 11.267 1.579 7.803 6.917 13.835 13.8 15.596 2.523.645 7.144.7 9.942.12 2.858-.595 5.857-1.633 8.618-2.983 1.347-.659 2.517-1.13 2.601-1.046.084.084-.703 2.12-1.75 4.523-2.144 4.927-1.76 4.552-5.89 5.762-2.778.814-11.074.96-14.873.26zm57.9.125c-6.765-1.285-12.541-4.683-16.643-9.79-7.958-9.906-7.402-24.157 1.301-33.397 4.655-4.943 10.032-7.755 16.616-8.69 16.034-2.28 29.53 6.768 32.116 21.53 1.563 8.922-2.198 18.65-9.478 24.514-2.64 2.127-7.024 4.339-10.507 5.302-2.15.594-3.164.709-7.011.793-3.072.067-5.1-.017-6.394-.262zm11.024-5.873c8.72-2.114 14.188-10.193 13.679-20.213-.409-8.034-4.307-14.919-10.335-18.255-4.836-2.676-11.899-2.796-17.235-.291-4.59 2.155-7.933 6.191-9.555 11.537-.649 2.14-.722 2.786-.722 6.35 0 3.549.075 4.215.708 6.293 2.106 6.907 6.455 11.922 12.224 14.093 3.224 1.214 7.474 1.397 11.236.486zm46.49 3.933c.704-.691 1.452-1.733 1.663-2.315.318-.88.396-4.418.464-20.993l.082-19.934-5.1.104c-4.766.098-5.22.151-6.892.808-.985.387-2.208 1.023-2.72 1.412-.51.39-.985.652-1.055.582-.13-.129 2.357-8.866 2.59-9.098.07-.07.649-.007 1.286.14 1.568.361 72.78.38 74.037.02.498-.143.953-.214 1.01-.157.112.113-2.236 8.89-2.43 9.085-.066.065-.502-.316-.969-.849-1.527-1.739-1.933-1.845-7.451-1.952l-4.961-.096v19.292c0 22.298-.105 21.215 2.273 23.5.787.756 1.43 1.45 1.43 1.541 0 .092-3.392.167-7.54.167-4.147 0-7.54-.062-7.54-.137 0-.075.523-.64 1.163-1.257 2.073-1.995 2.012-1.281 2.012-23.527v-19.533l-15.545.068-15.544.068-.073 17.727c-.043 10.491.033 18.614.188 19.9.315 2.63.952 3.959 2.529 5.277.656.548 1.193 1.09 1.193 1.205 0 .115-3.461.209-7.691.209h-7.69l1.28-1.257zM0 245.109c0-.059.516-.41 1.147-.779 1.34-.785 2.743-2.27 3.718-3.934.38-.65 2.004-4.504 3.607-8.566 1.603-4.06 3.148-7.92 3.433-8.574.286-.655 1.607-3.93 2.937-7.276 7.382-18.576 7.117-17.721 5.945-19.114-.386-.459-.935-.908-1.22-.998-.284-.09-.517-.278-.517-.416 0-.154 2.38-.224 6.128-.18l6.128.07.977 2.381c.538 1.31 2.203 5.418 3.701 9.129 8.905 22.064 12.61 31.053 13.54 32.853.99 1.918 2.705 3.857 4.451 5.037.628.424.257.447-7.342.46-4.402.008-8.004-.034-8.004-.093s.535-.42 1.188-.803c1.968-1.153 1.948-1.912-.198-7.424a3302.43 3302.43 0 0 1-2.693-6.946l-1.252-3.24H16.76l-2.401 6.548c-1.32 3.601-2.483 7.098-2.584 7.77-.228 1.523.269 2.594 1.58 3.404.513.317.932.627.932.687 0 .061-3.214.111-7.143.111-3.93 0-7.144-.048-7.144-.107zm33.094-25.094c-.639-1.651-6.456-16.561-6.684-17.132l-.264-.662-.365.926c-.2.51-1.796 4.556-3.547 8.992-1.751 4.436-3.184 8.157-3.184 8.268 0 .112 3.212.203 7.137.203h7.137zM114.3 169.12c0-.088.312-.405.694-.705 1.552-1.222 1.547-1.176 1.638-16.266l.083-13.824h-3.276c-3.592 0-5.303.358-6.905 1.446-.579.392-.966.525-.966.332 0-.178.368-1.633.818-3.234l.819-2.91h26.344l-.363 1.19c-.2.655-.557 1.965-.793 2.911-.614 2.456-.732 2.611-1.313 1.724-.774-1.18-1.83-1.46-5.527-1.46h-3.316l.002 13.296c.001 8.884.099 13.644.294 14.348.166.595.739 1.498 1.322 2.081.566.566 1.029 1.075 1.029 1.13 0 .056-2.381.102-5.292.102-2.91 0-5.291-.072-5.291-.16zm27.82-.436c1.757-1.488 1.673-.714 1.758-16.256.054-9.88-.012-14.43-.222-15.21-.167-.62-.697-1.508-1.202-2.013-.496-.496-.902-.95-.902-1.008 0-.058 2.322-.106 5.16-.106 2.837 0 5.159.072 5.159.16 0 .089-.312.406-.694.706-1.27 1-1.423 1.83-1.423 7.725v5.432h18.839l-.1-5.49c-.11-5.931-.248-6.57-1.668-7.688-.367-.288-.667-.596-.667-.684 0-.089 2.322-.16 5.16-.16 2.837 0 5.16.096 5.16.214s-.347.471-.771.784c-1.458 1.078-1.479 1.317-1.479 16.596 0 15.255.014 15.416 1.473 16.643.427.36.776.72.776.802 0 .083-2.351.146-5.225.141l-5.226-.008.76-.566c1.472-1.097 1.598-1.793 1.703-9.405l.096-6.945h-18.831v6.888c0 7.456.107 8.143 1.423 9.179.382.3.694.618.694.706 0 .088-2.352.16-5.226.159l-5.225-.001.7-.594zm46.263.44c0-.09.312-.41.694-.71 1.422-1.118 1.423-1.135 1.422-16.521-.001-8.89-.104-14.596-.273-15.205-.149-.536-.64-1.285-1.09-1.665-.45-.379-.77-.738-.71-.798.06-.06 4.54-.144 9.955-.188l9.846-.078v3.065c0 1.685-.072 3.137-.16 3.225-.09.089-.472-.127-.852-.48-1.158-1.073-2.738-1.444-6.146-1.444-1.702 0-3.467.074-3.921.165l-.827.165V148.15l4.366-.084 4.366-.084v2.844c0 1.565-.082 2.844-.182 2.844-.1 0-.466-.267-.814-.595-.58-.546-.93-.602-4.185-.682l-3.551-.086v6.088c0 5.573.039 6.099.463 6.215.255.07 2.195.275 4.312.454 3.412.288 4.074.275 5.821-.117 1.81-.406 3.473-1.149 5.345-2.389.96-.635.94-.47-.415 3.416l-1.106 3.175-11.179.069c-6.148.038-11.179-.004-11.179-.095zM77.92 152.847a7124.846 7124.846 0 0 0-37.726-.198c-10.272-.021-23.339-.117-29.038-.213L.794 152.26V150.308l15.147-.17c8.331-.094 30.358-.248 48.948-.342l33.8-.172v3.526l-.86-.07c-.472-.04-9.432-.143-19.91-.232zm141.863.12c-.098-.099-.179-.889-.179-1.755v-1.576l38.563.2c21.21.11 43.266.273 49.014.362l10.451.164.08.958.08.958-13.573.166c-7.466.092-29.29.235-48.5.318-19.208.084-35.111.204-35.34.268-.229.064-.497.035-.595-.063zm-63.157-32.27c-14.344-8.51-24.867-21.346-29.802-36.348-2.195-6.673-3.168-12.228-3.446-19.683l-.167-4.47-1.569-2.34c-1.808-2.7-4.432-7.732-4.432-8.502 0-.389-.085-.454-.33-.25-.456.376-2.882.79-3.823.652-.742-.109-.802-.036-1.525 1.828-1.564 4.034-3.949 8.415-6.385 11.73-2.015 2.742-2.734 3.337-4.054 3.355-.608.008-1.175-.053-1.259-.137-.084-.084.769-1.14 1.894-2.347 4.532-4.857 6.335-8.903 6.19-13.883l-.071-2.463 2.907-.107c1.842-.068 3.278-.263 3.92-.53.558-.234 1.638-.424 2.4-.424h1.388l.886 2.05c.487 1.128 1.567 3.42 2.4 5.093l1.514 3.043.017-7.483c.014-6.384.075-7.505.412-7.634.532-.204.337-.458-1.274-1.658-.754-.561-1.656-1.273-2.006-1.581-.879-.776-1.187-.712-2.076.43-1.205 1.55-1.215 1.603-.471 2.487.38.452.636.876.57.943-.068.067-1.12-.346-2.339-.917-1.219-.571-2.726-1.12-3.348-1.22-.707-.112-1.65-.572-2.513-1.223-.759-.573-2.045-1.336-2.857-1.695-1.123-.497-1.52-.823-1.655-1.36-.097-.388-.39-1.02-.65-1.407a676.7 676.7 0 0 1-1.164-1.736c-1.265-1.891-4.54-5.741-5.682-6.677-.62-.508-2.346-1.505-3.837-2.217-1.49-.711-2.503-1.298-2.249-1.304.864-.021 3.767-1.128 5.015-1.913l1.243-.782 2.57.533c2.89.6 3.683.436 4.285-.885.477-1.047.398-1.37-.605-2.48-1.512-1.674-3.702-2.674-7.86-3.59-.39-.086-.782-.387-.872-.669-.09-.282-.747-1.1-1.462-1.819-1.545-1.553-3.79-2.54-6.393-2.812l-1.764-.184-.45-1.106c-.726-1.786-1.716-4.759-1.617-4.858.105-.105 1.3.807 4.273 3.257 1.124.926 1.562 1.115 2.91 1.252 2.827.287 3.435.584 5.52 2.69 2.056 2.075 3.377 2.825 5.549 3.149.703.105 1.749.356 2.323.559 1.259.444 3.934 2.181 4.124 2.679.076.196-.278.817-.786 1.379-1.17 1.294-1.63 2.607-1.26 3.583.406 1.065.332 2.14-.19 2.777l-.463.566-3.795-.955c-3.269-.823-3.9-.911-4.564-.637-.423.175-.769.406-.769.513 0 .107.74.714 1.646 1.349 2.038 1.429 6.076 5.411 6.688 6.593.25.483.569 1.008.71 1.167.14.16.517.766.836 1.348.378.69.995 1.28 1.776 1.693l1.196.634 1.048-.662c1.679-1.06 5.735-3.097 6.738-3.385 1.977-.567 2.422-.278 7.435 4.814l4.657 4.73 2.09-.14c6.017-.402 11.376-.675 16.245-.827l5.424-.169-.662.717c-1.535 1.663-1.52 1.66-8.214 1.977-6.794.323-16.468.981-18.066 1.23l-1.012.157.11 12.607c.116 13.447.219 14.737 1.653 20.835 3.896 16.568 14.683 31.405 29.312 40.315l2.327 1.418.848-.434c3.376-1.729 7.2-4.461 11.153-7.971 9.354-8.304 15.815-18.525 19.307-30.54 2.045-7.039 2.529-11.98 2.532-25.868l.002-10.355-1.125-.16c-2.667-.378-19.232-1.485-22.24-1.487-1.996 0-2.107-.034-3.241-.983-.647-.54-1.175-1.086-1.175-1.214 0-.214 8.887-.066 12.964.216 10.185.706 10.35.709 10.944.21.311-.261 2.393-2.35 4.627-4.642 4.506-4.621 5.185-5.046 7.083-4.43 1.295.419 3.674 1.6 6.022 2.988l1.82 1.076 1.222-.646c.939-.495 1.407-.988 2.017-2.12 1.675-3.113 4.66-6.342 8.129-8.794 1.153-.816 1.447-1.152 1.233-1.41-.569-.685-1.36-.637-5.143.31-4.703 1.176-4.627 1.214-4.54-2.279.056-2.264.053-2.273-.936-3.484-.546-.667-.992-1.323-.992-1.456 0-.342 1.796-1.743 3.06-2.389.587-.299 2.008-.738 3.16-.976 2.845-.588 3.703-1.038 5.554-2.916.873-.886 1.886-1.798 2.251-2.028.748-.47 3.049-1.017 4.273-1.017.564 0 1.222-.341 2.166-1.124a196.18 196.18 0 0 1 1.852-1.522c.273-.218.632-.524.798-.679.166-.155.644-.506 1.064-.78l.762-.5-.196.65c-.108.356-.63 1.772-1.16 3.146l-.965 2.498-1.586.096c-3.212.193-5.973 1.627-7.552 3.922-.624.907-1.036 1.215-1.913 1.43-3.445.842-5.177 1.602-6.77 2.966-1.159.993-1.448 1.871-.983 2.985.634 1.516 1.059 1.57 5.207.67 1.396-.303 1.54-.285 2.513.318 1.588.983 2.81 1.496 4.369 1.832 1.315.283 1.374.327.764.564-3.251 1.266-5.195 2.472-7.077 4.39-2.456 2.506-5.108 6.012-6.057 8.012-.634 1.335-.868 1.573-1.93 1.966-.664.246-1.862.952-2.663 1.57-.952.735-1.858 1.191-2.623 1.32-.643.11-2.125.66-3.293 1.226-2.671 1.291-3.118 1.31-2.043.086.47-.535.746-1.078.64-1.257-.463-.778-1.835-2.29-2.08-2.295-.15-.003-1.27.784-2.489 1.748-1.828 1.446-2.14 1.796-1.779 1.998.39.218.44 1.051.455 7.706l.017 7.461.975-1.992a305.765 305.765 0 0 0 2.394-5.069l1.418-3.075 1.064-.102c.624-.06 1.623.103 2.418.394.9.33 2.332.535 4.265.612 2.568.102 2.903.17 2.848.573-.035.251-.071 1.488-.081 2.749-.036 4.6 1.936 8.643 6.594 13.517.938.983 1.633 1.86 1.543 1.95-.09.09-.675.157-1.3.15-1.038-.011-1.263-.146-2.573-1.549-.79-.845-2.056-2.49-2.814-3.656-1.611-2.481-4.604-8.393-5.26-10.389l-.455-1.389h-1.712c-1.01 0-2.028-.164-2.486-.4-.758-.392-.778-.385-.949.33-.294 1.24-2.432 5.32-4.182 7.986l-1.664 2.535-.182 4.63c-.243 6.23-.863 10.447-2.333 15.875-3.999 14.766-13.143 27.764-25.968 36.91-1.545 1.102-7.319 4.63-7.577 4.63-.081 0-1.275-.67-2.654-1.487zm.452-6.213c-.992-.595-1.852-1.22-1.911-1.388-.06-.167-.283-1.495-.498-2.95-.837-5.68-2.523-9.097-5.426-10.997l-.632-.413.662-1.44c1.934-4.206 5.056-7.644 8.866-9.764l1.108-.617 1.838 1.092c3.193 1.897 5.986 5.004 7.852 8.736l.972 1.943-.619.417c-2.938 1.98-4.602 5.4-5.491 11.292l-.438 2.895-1.842 1.132c-1.014.623-2.022 1.135-2.24 1.139-.218.003-1.209-.482-2.2-1.077zm4.147-16.497c1.512-1.401.349-3.849-1.83-3.849-1.252 0-2.585 1.204-2.585 2.335 0 1.951 2.878 2.939 4.415 1.514zm-75.632 15.187c-.728-.422-2.157-1.033-3.175-1.356-2.318-.736-2.513-.884-2.518-1.903-.003-.624-.208-.97-.827-1.402l-.822-.574-.05-3.924c-.048-3.752-.092-4.048-1.013-6.764a79.83 79.83 0 0 0-2.085-5.387c-1.043-2.37-1.095-2.595-.74-3.228.261-.465.761-.779 1.573-.988 1.298-.334 3.49-1.388 5.094-2.45l1.02-.674-1.69-1.742c-3.524-3.63-5.219-6.726-5.423-9.91-.237-3.69.672-6.138 3.888-10.472 2.78-3.748 4.724-6.689 5.842-8.84 1.157-2.227 1.371-1.59.419 1.247-.77 2.292-2.165 4.723-4.608 8.026-2.157 2.917-2.985 4.748-3.152 6.97-.404 5.365 3.18 10.793 9.015 13.655 1.609.79 1.761 1.023 1.038 1.595-.876.69-7.522 5.116-7.697 5.125-.096.005-.392.173-.657.374-.459.347-.438.452.439 2.174.97 1.908 1.328 2.881 3.09 8.424 1.322 4.157 2.285 6.237 3.592 7.763.902 1.052.995 1.312 1.11 3.109.07 1.078.021 1.951-.107 1.94-.128-.01-.829-.365-1.556-.788zm145.595.345c-.066-.255-.046-1.126.044-1.936.128-1.155.368-1.726 1.114-2.646 1.416-1.748 2.166-3.338 3.398-7.205 1.587-4.982 2.602-7.722 3.48-9.39.42-.8.733-1.476.693-1.502l-2.586-1.612c-3.089-1.924-6.545-4.289-6.748-4.618-.083-.134.598-.621 1.513-1.083 4.036-2.035 7.078-5.235 8.463-8.902.781-2.068.832-5.776.101-7.48-.52-1.214-2.412-4.221-3.255-5.172-1.6-1.805-3.567-5.583-4.318-8.29-.285-1.03-.516-1.962-.513-2.073.003-.111.548.75 1.214 1.915 1.468 2.57 3.487 5.614 6.028 9.088 3.16 4.321 4.204 7.532 3.623 11.141-.249 1.545-1.231 4.092-1.863 4.831-.16.187-.637.878-1.062 1.537-.425.658-1.494 1.89-2.375 2.736-.881.847-1.542 1.638-1.467 1.758.424.687 4.705 2.742 6.945 3.334.184.048.475.4.649.78.267.587.228.86-.26 1.794-1.033 1.977-2.714 6.518-3.28 8.86-.565 2.336-.782 6.413-.413 7.763.167.614.071.782-.733 1.279-.802.495-.926.71-.926 1.604 0 .91-.086 1.05-.727 1.192-1.684.373-2.686.757-4.519 1.73-1.066.567-1.975 1.03-2.02 1.03-.044 0-.134-.208-.2-.463zM98.214 111.8l.079-1.654 6.868-.132 6.869-.132.324-1.588c.306-1.497.29-1.64-.284-2.513-1.86-2.833-6.972-6.606-9.838-7.26-1.483-.339-1.986-1.036-2.379-3.3-.308-1.777-2.198-7.76-2.567-8.13-.066-.066-.7.22-1.409.633-2.943 1.719-5.183 2.6-9.521 3.746-1.62.428-2.244.325-1.028-.17 2.52-1.025 7.112-3.82 8.89-5.41.378-.338 1.098-.977 1.6-1.42 1.42-1.252 3.739-4.087 4.648-5.683 1.895-3.327 2.417-6.695 1.388-8.963-.29-.64-.479-1.213-.42-1.273.06-.06.642.431 1.292 1.09 1.554 1.577 2.908 4.227 3.663 7.168 1.07 4.17.797 11.575-.606 16.468-.316 1.1-.304 1.141.592 2.078 2.271 2.374 7.204 5.933 9.838 7.098 1.648.73 2.092 1.307 2.54 3.307.177.79.506 2.07.731 2.845l.41 1.41 10.498.006 10.499.007 1.653 1.578c.91.868 1.654 1.639 1.654 1.713 0 .073-10.364.134-23.031.134H98.135zm76.411 1.463c0-.105.68-.879 1.513-1.72l1.513-1.529h20.96l.734-2.712c.403-1.491.886-3.01 1.072-3.373.2-.39 1.1-1.054 2.19-1.615 2.433-1.254 5.033-3.02 7.45-5.062 3.081-2.604 3.025-2.458 2.22-5.759-.588-2.413-.681-3.403-.71-7.54-.038-5.5.34-7.688 1.887-10.9.892-1.854 3.292-4.88 3.614-4.557.083.083-.098.667-.403 1.298-1.877 3.885.907 10.187 6.776 15.338 2.163 1.9 5.062 3.833 8.07 5.381 2.53 1.303 2.48 1.397-.397.744-2.405-.546-7.348-2.667-8.944-3.837-.636-.467-.776-.489-.987-.154-.577.917-1.937 5.08-2.418 7.402-.562 2.718-1.07 3.544-2.335 3.797-3.047.61-8.71 4.881-10.256 7.737-.27.497-.268.913.006 2.148l.34 1.532 7.534.132 7.535.132.078 1.654.08 1.654h-23.561c-12.959 0-23.56-.086-23.56-.191zm2.035-13.442c-1.207-2.53-3.619-4.757-6.012-5.552-1.351-.45-1.79-1.213-.895-1.557 2.525-.97 8.207.065 10.395 1.892l.882.736-1.284 1.87c-.707 1.027-1.588 2.25-1.96 2.714l-.674.846zm-37.07-1.382c-2.138-3.028-2.2-3.17-1.59-3.64 2.053-1.576 6.198-2.687 8.938-2.394.903.097 1.817.285 2.03.419.618.384-.024 1.126-1.29 1.493-2.124.614-4.38 2.716-5.702 5.312-.24.473-.55.86-.688.86-.137 0-.902-.923-1.698-2.05zm9.37-7.189c-.867-.643-2.79-1.28-5.016-1.662-1.511-.259-2.16-.236-4.107.147-1.271.25-2.77.688-3.33.974-.56.286-1.127.52-1.258.52-.24 0-1.118-1.82-2.144-4.439l-.547-1.396.727-.28c.4-.155 2.096-.288 3.77-.296 5.082-.026 8.89 1.393 12.272 4.572 1.405 1.32 1.56 1.562 1.248 1.938-.455.548-.793.532-1.615-.078zm19.024.079c-.312-.376-.143-.631 1.359-2.05 3.597-3.402 8.64-4.974 14.01-4.369 1.235.14 2.326.338 2.425.442.098.103-.234 1.14-.739 2.305a572.11 572.11 0 0 0-1.226 2.844c-.37.872-.422.877-1.957.178-3.736-1.702-7.936-1.567-11.977.384-.791.382-1.461.695-1.489.695-.028 0-.21-.193-.406-.43zm-17.056-3.463c-2.138-3.102-6.413-5.923-10.963-7.234-1.44-.415-3.013-.609-5.732-.708l-3.747-.138-.294-1.168c-.464-1.842-1.075-5.187-1.075-5.883 0-.632.01-.634 2.182-.474 7.035.517 14.52 4.519 18.488 9.885 1.317 1.781 3.142 5.413 3.142 6.252 0 .522-.42.979-.898.979-.034 0-.53-.68-1.103-1.511zm14.95 1.095c-.487-.588.293-2.777 1.914-5.372 3.964-6.346 11.496-10.719 19.509-11.326l2.224-.169-.174 1.3c-.096.714-.433 2.46-.747 3.878l-.573 2.58h-2.878c-4.966 0-9.327 1.254-13.073 3.758-1.854 1.241-4.203 3.573-5.074 5.039-.5.84-.654.883-1.128.312zm-11.962-1.353c-.068-.119-.205-.692-.303-1.274-.739-4.343-3.637-9.63-7.004-12.773-2.947-2.752-6.742-5.032-9.82-5.901-.654-.185-1.315-.43-1.467-.543-.153-.113-1.641-.344-3.308-.513-1.666-.17-3.178-.35-3.36-.4-.245-.07-.331-1.09-.331-3.939V58.42l1.654.01c5.47.03 12.333 3.274 16.605 7.846 2.08 2.228 2.439 2.692 3.76 4.874 2.623 4.328 4.07 8.765 4.57 14.004.143 1.508.097 1.792-.354 2.2-.285.258-.574.372-.642.254zm10.021-.228c-.438-.32-.474-.585-.31-2.292.934-9.763 5.84-18.238 13.255-22.9 3.297-2.074 8.54-3.768 11.663-3.768h1.69v3.809c0 4.217.039 4.129-1.807 4.13-1.335 0-4.926.656-6.527 1.192-5.492 1.84-10.728 5.824-13.555 10.316-1.699 2.7-3.51 7.368-3.51 9.046 0 .762-.29.912-.899.467zm-7.685-2.7c-.656-6.458-1.83-10.862-4.112-15.424-2.024-4.046-3.744-6.454-6.714-9.395-4.358-4.315-8.846-6.77-14.391-7.873l-2.712-.539v-5.116l3.373-.303c1.856-.167 4.649-.38 6.208-.474l2.833-.171 3.386 3.409c2.296 2.311 3.957 4.27 5.158 6.086 1.816 2.745 4.404 7.719 4.96 9.533.172.56.415 1.257.54 1.548.83 1.931 1.96 6.752 2.358 10.054.157 1.31.287 4.014.287 6.01.001 3.314-.043 3.653-.51 3.902-.47.251-.522.153-.664-1.248zm4.839.662c-.247-3.644.105-8.924.853-12.803 1.968-10.198 7.743-20.35 14.863-26.127l1.256-1.019 4.697.309c2.584.17 5.293.393 6.02.497l1.323.188.076 2.577c.042 1.418.005 2.577-.082 2.577-1.024 0-4.435.756-6.21 1.377-4.248 1.484-7.73 3.758-11.132 7.266-2.69 2.772-4.218 4.882-6.008 8.29-2.372 4.517-3.75 9.104-4.309 14.354-.29 2.724-.392 3.109-.82 3.109-.316 0-.5-.208-.527-.595zm-2.435-.78c-.09-.335-.165-3.186-.167-6.336-.008-12.346-1.72-20.931-6.088-30.519-.292-.64-.53-1.211-.53-1.27 0-.057 1.371-1.459 3.048-3.115 1.888-1.864 3.29-3.494 3.681-4.28l.633-1.271.81 1.414c.79 1.38 4.728 5.605 6.005 6.442.797.522.798.852.013 2.417-1.794 3.576-3.887 10.127-4.76 14.898-.868 4.743-1.033 6.716-1.194 14.264-.164 7.69-.175 7.806-.727 7.885-.399.057-.608-.096-.724-.53zM66.41 80.195c-.858-.311-2.142-1.837-2.615-3.108-1.095-2.943-.92-8.699.397-13.068 1.47-4.876 1.791-6.595 1.447-7.745-.597-1.993-1.488-1.639-2.71 1.078-1.378 3.06-2.444 5.044-3.209 5.971-.886 1.076-2.658 1.742-3.174 1.194-.254-.27-.249-.369.023-.468 1.397-.51 2.543-3.095 3.52-7.939 1.111-5.51 1.493-6.875 2.403-8.587 1.17-2.204 2.25-2.861 4.703-2.861 1.595 0 2.15.119 3.066.656 1.418.83 2.65 2.679 3.04 4.56.461 2.22.348 5.997-.257 8.592-.586 2.516-.486 2.259-3.31 8.49-2.851 6.292-3.305 8.637-1.92 9.928 1.364 1.274 3.374.818 4.608-1.047.812-1.226.985-1.274.773-.214-.252 1.26-1.71 3.266-2.94 4.044-1.088.688-2.762.917-3.845.524zm182.388-.154c-1.717-.964-3.53-3.387-3.53-4.716 0-.487.123-.411.764.473.878 1.212 2.427 2.057 3.348 1.826.344-.087.943-.43 1.33-.763.592-.51.705-.823.705-1.954 0-1.67-.622-3.494-2.795-8.192-2.342-5.065-3.053-7.17-3.5-10.359-.75-5.333.316-9.217 2.992-10.915 1.082-.686 1.47-.779 3.234-.779 1.847 0 2.082.064 2.99.813 1.94 1.599 2.541 3.157 4.01 10.397.998 4.91 1.87 7.109 3.096 7.807.847.481.952.77.363.996-1.414.542-3.164-1.049-4.771-4.337-2.759-5.646-2.915-5.854-3.757-5.012-.788.79-.569 3.229.68 7.556 1.296 4.488 1.72 8.04 1.348 11.308-.137 1.207-.365 2.5-.507 2.873-.4 1.05-1.367 2.241-2.28 2.805-.942.582-2.835.67-3.72.173zM86.614 45.905c-.031-3.09-.157-4.213-.71-6.328-.99-3.778-3.657-8.745-6.476-12.059-4.946-5.813-5.671-11.89-1.91-16.005.703-.77 1.919-1.724 2.7-2.119 1.463-.74 4.306-1.475 4.594-1.188.09.09-.384.834-1.052 1.653-2.27 2.786-3.315 5.708-3.323 9.281-.006 2.68.593 4.625 2.44 7.927 4.594 8.214 5.292 10.183 5.298 14.95.003 2.294-.136 3.56-.565 5.149-.313 1.159-.657 2.195-.764 2.301-.107.107-.212-1.496-.232-3.562zm144.898 3.258c-.481-.899-1.316-5.346-1.32-7.032-.005-1.838.364-4.15.97-6.068.46-1.463 2.602-5.872 3.684-7.586 1.677-2.656 2.753-5.232 3.036-7.266.623-4.481-.466-8.07-3.625-11.943-.389-.476-.626-.946-.527-1.045.272-.272 2.809.33 4.28 1.015.718.334 1.981 1.28 2.807 2.1 1.28 1.271 1.587 1.776 2.086 3.418 1.058 3.483.378 6.73-2.234 10.659-.508.763-1.139 1.63-1.403 1.926-1.933 2.169-4.3 5.955-5.486 8.774-1.389 3.302-1.854 5.783-1.864 9.936-.005 2.001-.034 3.638-.066 3.638-.03 0-.183-.237-.338-.526zm-96.409-18.025c-1.502-5.005-3.149-8.2-5.506-10.685-.867-.915-.948-1.1-.596-1.363.683-.509 2.163-.66 3.344-.343.828.223 1.54.742 2.74 1.996.914.955 1.847 1.694 2.14 1.694.484 0 .501-.1.265-1.528-.352-2.132-.052-3.432 1.028-4.45 2.157-2.035 6.21-.778 6.21 1.926 0 .787-.074.903-.464.739-1.523-.64-2.712-.164-2.712 1.085 0 1.688 2.654 3.175 5.576 3.124 4.156-.073 7.044-2.828 6.066-5.789-.714-2.165-3.033-2.316-4.823-.314-.448.501-.462.497-.727-.2-.351-.924-.343-1.71.03-2.822.393-1.168.892-1.737 2.33-2.659 2.412-1.545 6.199-.695 8.119 1.823.46.604.91 1.253.997 1.443.13.285.187.285.318 0 .547-1.185 2.002-2.653 3.283-3.31 1.255-.645 1.694-.734 3.227-.654 1.458.076 1.977.235 2.909.89 1.843 1.295 2.66 3.213 2.162 5.074-.212.788-.512.751-1.594-.199-1.425-1.252-3.124-1.025-3.925.524-.521 1.007-.507 2.205.037 3.26.522 1.009.865 1.3 2.606 2.217 2.604 1.371 6.79.798 8.312-1.138.663-.843.692-1.368.122-2.183-.419-.598-1.046-.667-2.481-.275-.272.074-.424-.124-.482-.627-.114-.997 1.318-2.42 2.852-2.833.954-.257 1.338-.237 2.267.118.615.235 1.297.631 1.515.88.953 1.093 1.166 3.11.576 5.463-.143.568-.091.624.444.484.334-.087 1.251-.842 2.04-1.677 2.112-2.238 3.67-2.72 5.966-1.845l.76.289-1.177 1.258c-.648.692-1.403 1.612-1.68 2.045-.275.433-.574.847-.662.92-.323.265-1.869 3.79-2.531 5.77-.374 1.12-.708 2.064-.742 2.1-.034.037-1.838-.046-4.009-.183-11.99-.757-23.625-.873-34.11-.34-3.637.185-7.355.41-8.262.499-1.28.127-1.672.081-1.758-.204zm25.999-5.939c1.376-1.158 1.358-2.737-.05-4.283-.407-.448-.836-.596-1.722-.596-1.01 0-1.307.136-2.07.945-1.23 1.303-1.227 2.477.008 3.712 1.163 1.163 2.615 1.247 3.833.222zm-3.51-15.925c-.838-1.419-1.66-2.782-1.827-3.03-.303-.45.106-1.436 1.405-3.386.242-.364.763-1.175 1.158-1.803.394-.628.838-1.101.987-1.051.149.05 1.046 1.358 1.992 2.909l1.722 2.818-1.809 3.055c-.995 1.68-1.875 3.057-1.956 3.06-.081.005-.833-1.153-1.672-2.572z" fill="#fff" stroke-width=".265"/></svg>