<svg xmlns="http://www.w3.org/2000/svg" width="935.539" height="799.815" viewBox="0 0 247.528 211.618"><path d="M69.64 211.304c-4.063-.806-8.259-4.243-9.62-7.88-2.096-5.603-.932-11.385 3.042-15.102 3.063-2.865 6.413-4.027 10.794-3.743 3.964.256 7.065 1.995 9.449 5.298l.695.964-2.31 1.139-2.31 1.139-1.325-1.27c-1.826-1.75-3.28-2.406-5.325-2.406-5.385 0-9.254 5.62-7.655 11.12 1.786 6.145 9.377 8.234 13.076 3.598l.982-1.23 2.15 1.013c1.182.558 2.2 1.255 2.263 1.549.063.294-.822 1.47-1.967 2.616-1.737 1.737-2.476 2.203-4.473 2.82-2.451.757-4.914.88-7.465.375zm55.252-.202c-9.654-2.594-13.048-14.888-6.164-22.324 2.578-2.784 5.197-3.96 9.305-4.177 8.115-.43 13.911 4.568 14.401 12.416.211 3.389-.453 6.163-2.093 8.74-2.997 4.71-9.475 6.95-15.45 5.345zm6.369-4.776c1.792-.537 3.698-2.157 4.65-3.953 1.102-2.076 1.108-6.489.011-8.554-.962-1.812-2.822-3.466-4.533-4.03-2.068-.683-5.272-.248-7.001.95-3.283 2.275-4.44 7.738-2.473 11.685 1.724 3.459 5.526 5.046 9.346 3.902zM0 198.086v-13.23l3.968.004 3.969.004 1.02 2.73c3.067 8.21 5.273 13.514 5.482 13.177.13-.21 1.577-3.873 3.216-8.142l2.982-7.76 3.968-.006 3.97-.006v26.458H22.93l-.018-9.436-.017-9.437-1.697 4.233c-.933 2.328-2.613 6.575-3.732 9.437l-2.035 5.203h-2.307l-2.378-6.085a1512.481 1512.481 0 0 0-3.723-9.437l-1.344-3.351-.018 9.437-.018 9.436H0zM31.75 211c0-.188 1.92-5.314 4.266-11.39a3599.556 3599.556 0 0 0 4.97-12.915l.7-1.864 3.54.1 3.54.1 4.891 12.7c2.691 6.986 4.895 12.905 4.898 13.156.004.344-.734.43-3.033.352l-3.039-.102-.789-2.116-.789-2.117H39.422l-.75 2.117-.75 2.116-3.086.102c-1.822.06-3.086-.038-3.086-.239zm16.783-11.416a608.433 608.433 0 0 1-2-5.468c-.645-1.795-1.26-3.262-1.364-3.261-.185.002-3.895 10.18-3.895 10.684 0 .137 1.819.25 4.041.25h4.041zm39.308-1.454v-13.275h6.1c6.696 0 8.97.385 11.992 2.03 7.637 4.156 8.26 16.451 1.095 21.597-2.946 2.115-4.867 2.54-12.396 2.741l-6.791.182zm12.991 7.701c3.435-1.02 5.415-3.903 5.442-7.923.018-2.705-.8-4.605-2.704-6.276-1.613-1.416-3.205-1.833-6.998-1.836l-3.087-.002v16.58h2.758c1.517 0 3.582-.244 4.59-.543zm45.57-7.746v-13.23l2.91.002 2.91.002 5.998 8.165 5.997 8.164.095-8.167.095-8.167h5.631v26.488l-2.728-.103-2.727-.103-6.18-8.45-6.18-8.452-.095 8.54-.094 8.539h-5.632zm26.81 12.936c0-.176 1.92-5.302 4.267-11.391 2.346-6.089 4.582-11.91 4.969-12.935l.702-1.864 3.536.1 3.536.1 4.901 12.696c2.696 6.982 4.901 12.902 4.901 13.155 0 .35-.725.435-3.038.357l-3.039-.102-.788-2.116-.789-2.117-5.664-.097-5.664-.097-.844 2.214-.844 2.213-3.07.102c-1.69.056-3.071-.042-3.071-.218zm16.784-11.437a607.326 607.326 0 0 1-1.997-5.466c-.646-1.793-1.289-3.142-1.428-2.998-.274.282-3.833 9.932-3.833 10.392 0 .152 1.818.277 4.041.277h4.041zm13.556-1.5v-13.229H208.834l.094 10.672.093 10.671 5.556.098 5.556.097v4.92h-16.58zm19.755 0v-13.229h6.1c8.549 0 11.527.865 14.785 4.295 4.63 4.873 4.407 13.554-.467 18.285-3.07 2.978-6.534 3.86-15.214 3.872l-5.204.007zm12.837 7.791c3.689-1.11 5.67-3.91 5.632-7.965-.025-2.708-.864-4.63-2.74-6.278-1.612-1.416-3.204-1.833-6.997-1.836l-3.087-.002v16.58h2.766c1.521 0 3.513-.224 4.426-.499zM41.39 170.083c-2.306-.855-4.675-2.476-5.825-3.987-5.313-6.979-3.334-17.11 4.052-20.741 4.17-2.05 8.738-2.177 12.858-.358 2.309 1.019 5.136 3.91 6.302 6.443.908 1.973 1.011 2.572 1.014 5.907.003 3.478-.068 3.858-1.143 6.04a13.268 13.268 0 0 1-6.376 6.23c-2.725 1.26-8.116 1.49-10.882.466zm9.309-5.442c3.806-2.638 4.705-8.968 1.835-12.93-3.443-4.752-11.018-3.8-13.462 1.693-.827 1.858-.918 5.718-.176 7.489.755 1.8 2.345 3.518 3.951 4.269 2.196 1.026 5.982.775 7.852-.521zM0 157.34v-13.053h7.947l3.148 8.128c1.732 4.47 3.251 7.923 3.376 7.673.126-.25 1.557-3.908 3.182-8.128l2.953-7.673H28.575v26.106h-5.644l-.011-9.437-.011-9.437-3.67 9.349-3.67 9.348h-2.586l-3.581-9.172-3.581-9.172-.094 9.26-.094 9.26H0zm69.061 2.381l-.093-10.672-3.792-.1-3.793-.1V144.287h20.814v4.562l-3.792.1-3.792.1-.094 10.672-.093 10.672h-5.271zm23.99 0l-.094-10.672-3.792-.1-3.793-.1V144.287h20.814v4.586h-7.408v21.52h-5.634zm81.574-44.362V81.845h19.996l8.067 20.812c4.437 11.446 8.18 20.693 8.32 20.549.14-.144 3.825-9.47 8.189-20.723l7.935-20.461 10.082-.094 10.083-.094v67.04h-14.111v-24.06c0-13.76-.132-23.916-.308-23.725-.17.185-4.078 10.02-8.685 21.855a10490.224 10490.224 0 0 1-9.26 23.737l-.882 2.217-3.194-.1-3.194-.101-9.048-23.175c-4.976-12.747-9.224-23.542-9.44-23.99-.29-.605-.397 5.346-.415 23.264l-.024 24.077h-14.111zM0 33.691V.001h20.05l1.819 4.674c1 2.571 4.61 11.898 8.02 20.726 3.41 8.828 6.296 16.16 6.412 16.295.116.134 3.863-9.191 8.325-20.722L52.74.008 62.883.004 73.025 0v67.38H58.566l-.09-24.188-.091-24.189-9.4 24.1-9.4 24.101-3.133.1-3.133.101-9.34-23.931-9.339-23.931-.09 23.919-.09 23.919H0z" fill="#fff" stroke-width=".353"/></svg>