<svg xmlns="http://www.w3.org/2000/svg" width="1756.457" height="435.168" viewBox="0 0 464.729 115.138" version="1.1" id="svg8"><defs id="defs2"><style id="style10"></style></defs><g id="layer1" transform="translate(118.503 -37.143)"><path d="M310.344 151.547c-.812-.726-.894-.932-.882-2.229.014-1.503.806-3.248 1.941-4.275.438-.396.522-.7.403-1.455-.125-.786-.006-1.153.672-2.087 1.578-2.171 3.112-2.603 4.478-1.259.761.749.544 1.238-.46 1.037-.48-.096-1.033.032-1.584.367-.714.434-.787.565-.464.833.298.247.737.244 1.984-.013.88-.182 1.686-.247 1.788-.144.103.103-.003.582-.231 1.065-.37.777-.626.93-2.208 1.32-2.356.581-3.996 1.563-4.549 2.723-.832 1.745.408 2.535 4.236 2.697 1.42.06 2.58.199 2.58.307 0 .497-3.383 1.705-5.058 1.807-1.645.1-1.804.058-2.646-.694zm10.532-4.072c.066-1.644.25-3.254.407-3.578.274-.56 1.37-1.075 3.344-1.569l.89-.223-.51-.628c-.491-.607-.536-.614-1.34-.198-.456.236-.962.43-1.123.43-.509 0 .613-1.613 1.585-2.28 1.456-.998 1.962-.85 3.303.972.997 1.355 1.155 1.735 1.02 2.448-.27 1.428-.446 1.505-3.425 1.505h-2.746v2.05c0 1.429-.14 2.328-.463 2.962-.87 1.714-1.07 1.315-.941-1.891zm-165.202 1.653c-.853-.52-1.85-1.768-1.608-2.011.072-.073.454-.01.847.14.393.15 1.173.272 1.733.272.811 0 1.156-.165 1.702-.814.85-1.008.855-1.315.042-2.08-.625-.587-.631-.628-.213-1.505.501-1.052.793-1.03 1.518.108l.53.831 2.579.01 2.58.01v-2.728c0-2.716.002-2.73.783-3.307.43-.318.847-.579.926-.579.078 0 .143 1.905.143 4.233v4.234h-3.572c-3.225 0-3.572.045-3.573.463-.003 1.169-2.031 3.239-3.174 3.239-.218 0-.778-.232-1.243-.516zm65.537-.61c-.933-.422-.92-.392-.53-1.121.42-.783.712-.815 1.553-.168.535.412.582.566.322 1.053-.344.641-.419.654-1.345.236zm108.83-1.143c-.605-.605-.667-.833-.532-1.966.083-.706.385-1.738.67-2.293.526-1.027 1.79-2.391 2.01-2.17.067.066-.23.817-.66 1.67-.92 1.826-.943 2.04-.271 2.647.623.564 2.399.632 4.099.156 1.45-.406 1.73-1.057 1.241-2.885-.315-1.177-.309-1.199.611-2.119.511-.51 1.007-.852 1.102-.757.095.095.234.72.31 1.39.127 1.129.187 1.212.828 1.138.468-.055.717-.26.771-.637.091-.64 1.807-2.408 2.076-2.14.098.1.032.668-.147 1.265-.179.597-.276 1.135-.215 1.196.06.06.574.138 1.142.172 1.015.062 1.035.046 1.115-.922.06-.727.28-1.126.835-1.521.414-.295.824-.536.91-.536.258 0 .18 1.803-.158 3.636l-.316 1.714-2.528-.158c-1.39-.087-2.648-.165-2.793-.172-.93-.05-1.929.525-3.126 1.798-1.65 1.753-2.563 2.177-4.683 2.177-1.376 0-1.706-.098-2.292-.683zm-49-.135c-.674-.628-.66-1.498.032-1.931.655-.411 1.391.122 1.378.997-.012.798.278.904.632.231.46-.876 2.454-8.596 2.314-8.961a.625.625 0 0 0-.546-.365c-.223 0-.405-.12-.405-.265 0-.156.926-.265 2.249-.265 1.237 0 2.249.07 2.249.156s-.228.354-.506.596c-.32.277-.868 1.758-1.483 4.009-1.284 4.691-1.626 5.498-2.529 5.965-1.105.572-2.676.494-3.385-.167zm-370.371-1.79a154.11 154.11 0 0 1-3.52-3.076c-2.838-2.563-2.873-2.58-5.907-2.808-2.574-.195-2.82-.269-5.635-1.7-2.903-1.477-2.954-1.491-3.757-1.076-1.077.556-1.85.53-2.884-.101-1.004-.613-1.063-.832-1.244-4.638-.076-1.6-.213-3.29-.305-3.754-.136-.69-.038-.974.535-1.546l.702-.702-.69-.903c-1.11-1.456-2.257-4.17-2.526-5.973-.137-.92-.553-6.675-.924-12.786-.56-9.253-2.297-35.89-2.937-45.046-.094-1.346-.108-2.447-.032-2.447s.644.178 1.262.397c1.401.494 1.743.506 1.363.048-.318-.384-1.022-12.78-.742-13.06.093-.093 1.51.264 3.148.795 5.777 1.87 11.5 2.984 16.472 3.207l2.646.119-2.381-.245c-5.94-.61-11.48-1.77-17.036-3.566-2.323-.751-2.94-1.052-2.94-1.434 0-.45.12-.439 1.786.175 4.874 1.794 11.143 3.183 17.094 3.787 3.967.402 14.1.184 17.845-.384 5.636-.855 11.663-2.458 15.189-4.04l1.528-.686.926.63c.51.347.927.84.928 1.094.002.545-.276.591-.798.132-.208-.182-.151-.06.125.27.464.556.497 1.037.435 6.416l-.066 5.816.748.01c.424.006 1.103.322 1.566.728l.817.717-1.128 24.738c-1.625 35.612-1.568 34.684-2.184 35.959-.288.595-.445 1.126-.349 1.18.096.054.829.248 1.63.432 2.28.525 2.467.677 2.278 1.86l-.162 1.014 2.116.185c1.165.101 2.117.23 2.117.286 0 .056-.535.76-1.19 1.564-.655.804-1.19 1.606-1.19 1.782.001.177.295.797.654 1.379.358.582.655 1.148.66 1.257.004.109-.864.198-1.93.198-1.363 0-2.505.193-3.848.65-2.44.83-4.704 1.078-5.591.612-.49-.257-.725-.673-.904-1.598-.134-.688-.372-1.25-.53-1.247-.157.002-4.572 3.75-9.81 8.33-5.24 4.578-9.609 8.327-9.71 8.33-.102.002-.876-.574-1.72-1.28zm4.036-3.336c.461-.349.193-.39-2.627-.397-2.763-.007-3.102.04-2.812.388.46.556 4.708.562 5.44.008zm-5.54-3.719c4.337-.743 7.003-1.807 13.767-5.493 2.345-1.279 4.963-2.57 5.816-2.871 3.616-1.274 7.36-1.624 9.729-.911 1.458.439 1.363.568 1.733-2.36.147-1.165.341-2.377.43-2.695.251-.888-1.435-1.278-5.445-1.259-4.971.024-8.142 1.082-14.288 4.766-3.332 1.998-7.954 4.208-9.921 4.745-2.451.668-7.555.822-9.658.292-2.124-.536-4.362-1.614-6.614-3.185-.946-.66-2.184-1.512-2.75-1.893-2.268-1.527-4.641-.36-3.08 1.514l.52.625.01-.86c.007-.816.059-.86 1-.859.546 0 1.393.245 1.881.543l.889.542-.224 1.507c-.255 1.717-.26 3.604-.013 4.59.129.513.602.871 2.003 1.517 4.348 2.004 9.218 2.602 14.215 1.745zm-5.7-.514a2.996 2.996 0 0 1-.36-.67c-.097-.262-.155-.194-.168.198-.02.572-.815.893-.815.328 0-.158-.223-.13-.546.067-.473.287-.613.252-1.036-.264-.3-.367-.53-.476-.594-.284-.057.172-.246.225-.42.118-.183-.113-.336-.933-.365-1.965l-.051-1.77-.094 1.653c-.089 1.558-.132 1.654-.75 1.654-.455 0-.732-.202-.906-.662-.264-.693-.68-.87-.85-.361-.219.657-1.237-.078-1.625-1.172l-.394-1.112-.021.992c-.011.546-.14.992-.285.992-.155 0-.265-.882-.265-2.117 0-2.287.303-2.696.928-1.256l.374.86.01-.75c.018-1.265.66-.651.807.77l.134 1.302.2-1.124c.217-1.225.617-1.456.952-.55.124.336.284.457.386.292.122-.197.496-.2 1.235-.013.896.228 1.06.377 1.067.965.007.6.045.632.278.232.285-.49 1.169-.628 1.419-.223.081.132.366.182.633.113.366-.096.554.09.767.752l.281.88.027-.86c.015-.473.146-.86.292-.86.149 0 .277.835.294 1.918l.03 1.918.399-1.918c.447-2.145.995-2.542 1.279-.926.482 2.744.59 2.906.617.926.02-1.517.11-1.918.423-1.918.312 0 .397.367.397 1.72 0 1.352.085 1.72.397 1.72a.4.4 0 0 1 .397.398c0 .303-.286.388-1.19.354-.796-.03-1.191-.162-1.191-.399 0-.195-.179-.354-.397-.354a.39.39 0 0 0-.397.38c0 .432-.97.45-1.303.026zM-98.469 136c.065-.74-.305-1.689-.558-1.428-.15.155-.244.984-.203 1.8.043.881.676.57.76-.372zm-3.493-2.434c-.327-.327-.404.184-.215 1.419l.199 1.3.082-1.286c.045-.707.015-1.351-.066-1.433zm10.435 2.187c0-1.93.017-1.982.652-1.982.778 0 1.234.724 1.015 1.61-.087.352-.083.572.007.49.091-.08.263-.616.382-1.19.294-1.415.882-1.347 1.27.148l.31 1.19.1-1.433c.109-1.557.505-1.976.965-1.02.287.595.29.594.308-.126.012-.462.163-.727.415-.727.218 0 .397-.12.397-.265 0-.473.793-.279.812.198.014.376.07.354.298-.116.274-.567.963-1.007 1.202-.768.067.066-.095.486-.36.933-.49.83-.486.864.293 2.73.146.35.065.463-.334.463-.31 0-.609-.245-.727-.596-.196-.581-.203-.579-.31.106-.06.385-.312.772-.558.86a9.718 9.718 0 0 0-.753.304c-.168.081-.425-.185-.574-.595l-.27-.74-.021.854c-.017.7-.15.887-.735 1.034-.45.113-.751.066-.816-.127-.154-.464-.51-.367-.652.178-.094.36-.405.495-1.221.527l-1.095.043zm1.058.796c0-.218-.119-.397-.264-.397-.146 0-.265.179-.265.397 0 .218.12.397.265.397.145 0 .264-.179.264-.397zm0-1.455a.265.265 0 0 0-.264-.265.265.265 0 0 0-.265.265.265.265 0 0 0 .53 0zm7.99-.847c-.174-.174-.317-.889-.317-1.587 0-1.563.74-2.518 1.594-2.06.453.242.523.195.523-.35 0-.532.838-1.242 1.468-1.242.308 0 .073.755-.277.89-.219.084-.397.282-.397.44 0 .16.119.216.264.126.334-.206.35.732.02 1.071-.136.138-.285.668-.332 1.178-.055.609-.22.926-.481.926-.219 0-.553.208-.743.463-.404.54-.875.592-1.321.145zm1.157-1.383c.089-.353.04-.86-.11-1.124-.25-.445-.29-.432-.513.169-.263.708-.133 1.597.233 1.597.126 0 .302-.289.39-.642zm2.78-.202c.09-1.561.7-4.556.947-4.638.31-.103.885 2.002.885 3.246 0 .68-.397.887-.608.318-.07-.188-.243-.029-.403.371-.31.78-.852 1.243-.821.703zm2.096-3.226c0-1.817.049-1.986.695-2.41.572-.374.735-.391.922-.096.18.284.228.268.231-.076a.683.683 0 0 1 .401-.587c.323-.124.397.117.397 1.295 0 1.398.303 1.89.633 1.028.089-.23.16-.938.16-1.572 0-.634.12-1.227.265-1.317.392-.242.342 3.654-.052 4.048-.175.175-.592.318-.926.318-.448 0-.615-.158-.633-.596-.018-.464-.078-.408-.269.253-.222.767-1.095 1.666-1.618 1.666-.113 0-.206-.88-.206-1.954zm.975.052c-.085-.211-.147-.148-.16.16-.012.279.051.435.139.347.088-.088.097-.316.02-.507zm.794-1.323c-.085-.211-.148-.148-.16.16-.012.279.05.435.139.347.088-.088.097-.316.02-.507zm3.258-1.273v-2.117h.904c.498 0 .964.149 1.038.33.073.183.143.064.154-.264.03-.842.815-.778.815.066 0 .364.119.662.264.662.146 0 .265-.298.265-.662 0-.411.15-.661.397-.661.293 0 .403.327.422 1.257l.026 1.256.305-1.301c.398-1.699.895-1.859 1.153-.372l.198 1.144.139-1.058c.126-.969.205-1.058.932-1.058.74 0 .804.079.952 1.19l.159 1.19.04-1.124c.028-.805.152-1.124.436-1.124.318 0 .397.397.397 1.984 0 1.588-.08 1.985-.397 1.985-.252 0-.403-.265-.413-.728-.016-.7-.026-.704-.256-.132-.193.48-.447.595-1.306.595-.772 0-1.067-.11-1.067-.397 0-.546-.326-.497-.865.132-.682.797-1.252.676-1.252-.264 0-.437-.12-.794-.265-.794-.145 0-.264.366-.264.813 0 .63-.104.793-.46.725-.253-.049-.67.121-.926.377-.257.257-.704.466-.995.466-.486 0-.53-.176-.53-2.116zm1.323-.28c0-.574-.119-1.043-.264-1.043-.146 0-.265.543-.265 1.206 0 .737.103 1.143.265 1.043.145-.09.264-.633.264-1.206zm6.086 0c0-.137-.12-.25-.265-.25-.145 0-.264.186-.264.413 0 .227.119.339.264.25.146-.09.265-.277.265-.413zm0-1.308a.265.265 0 0 0-.265-.264.265.265 0 0 0-.264.264c0 .146.119.265.264.265.146 0 .265-.12.265-.265zm-15.456 11.785l1.036-.915-1.268-.01c-.855-.008-1.802.235-2.91.747-.904.417-1.821.824-2.04.905-.218.08.625.156 1.874.167 2.227.02 2.292.003 3.308-.894zm-29.139-.98c.656-.298.674-.377.674-2.91v-2.603h-1.17c-.642 0-1.347-.069-1.567-.153-.332-.128-.413.234-.49 2.183-.102 2.56.06 3.174.93 3.524.779.314.848.313 1.623-.04zm32.16-1.677c.814-.867.222-.863-1.191.007l-1.059.652.814.001c.527.001 1.033-.231 1.435-.66zm14.304-2.895c1.101-.351 2.734-.722 3.628-.823l1.626-.184-.387-.748c-.527-1.02-.502-1.171.42-2.512l.807-1.172h-2.648l-.155.992c-.085.546-.211 1.342-.28 1.769-.244 1.524-.703 1.737-3.748 1.737-3.45 0-4.726.584-2.891 1.325.898.362 1.49.3 3.628-.384zm-34.678-.112c0-.126-.265-.565-.588-.977-.324-.412-.63-1.053-.68-1.425a23.899 23.899 0 0 0-.295-1.602c-.17-.772-.208-.627-.227.876-.017 1.375.072 1.838.376 1.954.226.087.345.358.275.626-.084.323-.007.428.243.332.202-.077.367-.009.367.152s.12.293.265.293c.145 0 .264-.103.264-.229zm8.587-.498c-.11-.255-.255-.85-.321-1.323-.072-.507-.275-.86-.494-.86-.274 0-.326.193-.195.727.098.4.279.768.402.816.123.049.223.317.223.596 0 .278.132.507.293.507.18 0 .215-.18.092-.463zm-12.066-.596c-.278-.797-.754-1.319-.754-.826 0 .525.523 1.62.773 1.62.163 0 .156-.293-.019-.794zm36.012-.54l1.73-.178-1.602-.038c-1.11-.026-1.761.09-2.117.379-.282.23-.34.326-.128.215.212-.11 1.164-.281 2.117-.379zm-43.51-.259c.092-.149-.254-.446-.769-.661-1.214-.508-1.218-.507-1.218.27 0 .577.115.661.91.661.501 0 .986-.121 1.078-.27zm7.95-3.699c.176-.625.16-.637-.282-.218-.303.287-.501.942-.56 1.852l-.093 1.41.375-1.191c.207-.655.459-1.489.561-1.853zm11.23 1.043c0-.59-.11-1.006-.245-.923-.135.083-.303-.058-.375-.315-.072-.256-.11.159-.086.923.054 1.7.705 1.991.705.315zm5.551-1.109l-.005-1.918-1.292 1.39c-.71.763-1.49 1.388-1.73 1.388-.242 0-.365-.119-.276-.264.09-.146-.009-.265-.22-.265-.411 0-.773.638-.511.9.087.087.823.16 1.635.162.813.002 1.656.12 1.875.26.218.142.426.26.463.261.036.002.064-.859.061-1.914zm2.121 1.654c0-.146-.126-.265-.28-.265-.154 0-.206.12-.116.265.09.145.216.265.28.265.064 0 .116-.12.116-.265zm-26.866-1.04c.084-.136.626-.2 1.206-.142.58.058 1.054.003 1.054-.121 0-.22 1.213-.497 2.711-.621.4-.033.708-.18.686-.325-.14-.899-.373-1.255-1.05-1.605-.417-.216-.76-.509-.76-.65 0-.143-.243-.259-.541-.259-.298 0-.813-.293-1.145-.65-.36-.39-1.041-.722-1.691-.826-.598-.095-1.15-.338-1.228-.54-.077-.2-.375-.365-.661-.365-.287 0-.887-.334-1.334-.742l-.813-.742.863-.642c1.069-.795 3.891-1.041 4.435-.387.18.218.725.397 1.21.397.954 0 2.229.478 2.229.836 0 .122.291.222.648.222.356 0 .77.208.918.463.441.758.35-.202-.102-1.069-.372-.712-.355-.757.464-1.282.78-.5.512-.562-.606-.139-.268.102-.911-.488-1.984-1.818-1.451-1.8-2.458-2.565-2.08-1.58.131.342-.386.398-3.712.398h-3.865v1.852h5.018c4.747 0 5.033.028 5.3.529.28.52.202.53-4.885.53h-5.169v.793c0 .613.119.794.52.794.286 0 .648.238.803.529.249.464.202.529-.388.529-.653 0-.662.024-.322.86l.35.86 2.739.132c1.857.09 2.774.239 2.848.463.082.25-.516.33-2.427.33-1.394 0-2.535.093-2.535.207 0 .113.185.47.412.793.391.56.59.588 4.037.588 3.322 0 3.653.044 3.951.522.318.508.235.524-3.268.595l-3.594.074.573.728c.6.76.93.895 1.185.48zm21.2-1.116c.352-.022.784-.052.961-.067.177-.014.7-.44 1.163-.945l.842-.918-.542-.47c-.823-.714-1.48-.574-2.61.556-.891.892-1.024 1.18-1.006 2.183.02 1.089.036 1.113.287.428.182-.498.467-.74.905-.767zm5.76-.556c.253-2.109.203-7.078-.071-7.078-.244 0-.44 1.876-.646 6.152-.084 1.735-.029 2.315.219 2.315.201 0 .396-.543.498-1.39zm2.75 1.207a2.174 2.174 0 0 0-.925 0c-.255.066-.047.12.463.12.509 0 .717-.054.463-.12zm-20.678-1.711c.117-.19.073-.234-.116-.117-.213.132-.306-.153-.306-.938 0-1.184.388-1.16.603.038.103.574.124.551.155-.168.027-.626-.134-.941-.658-1.285-.382-.25-.635-.353-.562-.229.072.125.048.851-.053 1.615-.161 1.22-.127 1.39.282 1.39.257 0 .551-.138.655-.306zm10.11-.344c.255.44.301.333.308-.716.007-1.053.172-1.433 1.133-2.603 1.632-1.99 2.054-2.876 2.015-4.234-.034-1.167-.038-1.16-.23.341-.108.843-.28 1.616-.384 1.72-.296.296-.97-.81-.768-1.26.1-.222.234-1.326.298-2.454.1-1.755.055-2.05-.308-2.05-.355 0-.425.35-.425 2.124 0 1.645-.09 2.16-.397 2.277-.218.084-.397.333-.397.552 0 .308-.167.354-.727.2-1.51-.413-8.799.007-8.796.507 0 .16.294.769.653 1.35.721 1.172.824 1.991.36 2.862-.274.515-.261.54.116.23.232-.193.5-.7.594-1.128l.17-.778.77.548c1.103.785 2.403.927 3.708.405.606-.242 1.164-.379 1.24-.303.075.076.197.765.27 1.531.092.947.193 1.228.316.878.18-.512.183-.512.48 0zm10.106-.244c0-.055-.179-.248-.397-.43-.325-.27-.397-.251-.397.1 0 .237.178.43.397.43.218 0 .397-.045.397-.1zm4.965-.09c-.397-.06-1.112-.06-1.587-.002-.476.059-.15.108.723.11.873.002 1.262-.047.864-.108zm-8.934-1.411c0-.587-1.236-1.243-2.83-1.501-.67-.11-.874-.048-.874.263 0 .3.423.455 1.62.594 1.272.147 1.648.295 1.75.687.172.657.334.636.334-.043zm11.245.278c-.091-.148-1.32-.265-2.778-.265s-2.687.117-2.779.265c-.105.17.885.264 2.779.264 1.893 0 2.883-.094 2.778-.264zm3.832-.595c-.01-.761-.46-1.026-1.61-.944l-1.164.084.926.59c1.027.656 1.854.776 1.848.27zm2.653-.794c.692-1.135.673-1.21-.332-1.306-.564-.055-.887-.241-.945-.546-.073-.387.113-.463 1.122-.463.868 0 1.21-.106 1.21-.376 0-.206.073-.563.16-.793.137-.354-.091-.419-1.474-.419-1.414 0-1.623-.062-1.547-.463.07-.365.41-.48 1.607-.542 1.488-.078 1.519-.096 1.519-.86v-.78h-1.852c-1.79 0-1.852-.022-1.852-.65 0-.624.078-.654 1.918-.728 1.866-.076 1.92-.097 2-.794l.084-.717-2.197-.077c-1.845-.065-2.21-.151-2.285-.54-.078-.412.162-.463 2.18-.463 2.243 0 2.268-.007 2.268-.662 0-.66-.007-.661-2.531-.661-2.475 0-2.53-.014-2.448-.596.08-.561.222-.6 2.532-.671 2.404-.075 2.447-.088 2.447-.728 0-.648-.01-.651-2.645-.651-1.456 0-2.646-.11-2.646-.243 0-.134-.072-.431-.16-.662-.141-.366.206-.418 2.777-.418h2.94v-.653c0-.65-.01-.653-2.978-.727-2.859-.072-2.98-.099-3.06-.67-.084-.588-.047-.596 2.976-.596h3.061v-1.475l-3.44.108c-3.36.104-3.44.094-3.44-.454 0-.543.11-.56 3.573-.56h3.572v-1.852h-3.809c-3.14 0-3.834-.07-3.96-.397-.131-.342.397-.397 3.808-.397h3.96v-1.838l-4.03-.073c-3.596-.065-4.042-.123-4.121-.536-.082-.425.25-.463 4.031-.463h4.12v-1.31l-4.295-.073c-3.848-.065-4.306-.12-4.385-.536-.082-.426.268-.463 4.428-.463h4.517v-2.116h-4.762c-4.586 0-4.763-.02-4.763-.53 0-.509.177-.529 4.733-.529h4.732l.116-.788.116-.788-5.044-.072c-4.56-.064-5.051-.116-5.132-.534-.082-.429.3-.463 5.09-.463h5.179v-2.117h-4.753c-4.483 0-4.77-.03-5.037-.53-.278-.52-.201-.528 4.753-.528h5.037v-1.323h-5.66c-4.612 0-5.687-.069-5.803-.371-.078-.204-.071-.442.016-.53.087-.086 2.757-.158 5.935-.158h5.776V79.267h-5.953c-5.776 0-5.953-.016-5.953-.53 0-.513.177-.528 5.953-.528h5.953V76.356h-6.35c-5.468 0-6.35-.055-6.35-.396 0-.342.897-.397 6.483-.397h6.482V73.71h-6.88c-6.702 0-6.878-.014-6.878-.53 0-.515.176-.529 6.879-.529 6.605 0 6.879-.02 6.879-.507 0-.28.072-.696.16-.926.144-.375-.545-.419-6.614-.419-6.599 0-6.775-.014-6.775-.529s.176-.53 6.747-.53h6.747v-.62c0-.599-.097-.629-2.58-.793-1.419-.094-4.455-.172-6.747-.172-3.527-.001-4.167-.063-4.167-.399 0-.342.926-.396 6.747-.396h6.747v-1.852h-7.091c-6.938 0-7.726-.087-7.726-.847 0-.117 3.393-.212 7.54-.212h7.541v-2.116h-5.342c-4.398 0-5.859.1-8.268.572-1.61.315-3.027.659-3.15.765-.369.32.26 1.173 1.264 1.714.913.492.944.558.944 2.023 0 1.085-.115 1.578-.405 1.74-.354.199-.237 1.042.926 6.664.732 3.54 1.331 6.48 1.331 6.533 0 .053.298.097.662.097.617 0 .661.088.661 1.326 0 .73-.138 1.547-.306 1.816-.245.394.378 3.963 3.177 18.187 1.915 9.733 3.482 17.786 3.48 17.895-.004.532.86.1 1.325-.661zm-35.457-.199c-.156-.29-.343-.529-.416-.529-.072 0-.005.238.151.53.156.29.343.529.416.529.073 0 .005-.239-.151-.53zm27.516.265c-.519-.336-1.512-.336-1.72 0-.099.16.284.263.977.26.834-.002 1.034-.072.743-.26zm-9.837-1.278c.09-.612-.121-.71-.718-.332-.443.28-.177 1.174.303 1.016.182-.06.369-.367.415-.684zm6.398-.324c-.546-.373-2.86-1.573-3.034-1.573-.078 0-.141.417-.141.926v.926l1.786-.004c1.302-.003 1.678-.077 1.389-.275zm8.192-.55c-.328-1.144-.37-1.159-1.431-.502-1.42.877-1.237 1.331.54 1.331h1.129zm-1.978-2.152c-.537-.3-.777-.092-.555.486.14.364.238.38.578.097.37-.307.368-.364-.023-.583zm-1.716.022c0-.63-1.147-1.539-1.941-1.539-.658 0-3.35 1.404-3.35 1.747 0 .058 1.19.105 2.645.105 1.864 0 2.646-.093 2.646-.313zm-26.59-.216c.238 0 .167-.213-.216-.642-.315-.354-.587-.622-.604-.596-.018.026-.115.39-.215.808-.153.635-.112.734.249.596.237-.091.591-.166.787-.166zm20.357-.555c.518-.306.941-.603.941-.662 0-.058-.476-.106-1.058-.106-.953 0-1.059.066-1.059.662 0 .8 0 .8 1.176.106zm9.253-.333c-.107-.28-.463-.43-.998-.424l-.832.011.926.494c1.036.553 1.144.543.904-.081zm-26.502-.346c-.182-.073-.33-.42-.33-.772 0-.518.135-.64.711-.64.654 0 .673-.028.236-.348-.266-.195-.43-.574-.37-.86.083-.409.302-.5 1.086-.453 1.141.067 1.258-.1.32-.455-.936-.357-.906-1.323.042-1.323.678 0 .686-.018.238-.513-.476-.526-.369-1.075.21-1.075.181 0 .32-.322.315-.727-.01-.67.064-.723.915-.666.862.058.884.04.319-.244-.892-.45-.693-1.422.277-1.356.838.058.896-.086.298-.747-.655-.724-.275-1.284.884-1.304.82-.014.9-.057.442-.242-1.247-.504-.877-1.59.545-1.597l.807-.004-.661-.333c-.9-.454-1.021-1.438-.217-1.76.337-.136.457-.254.265-.264-.22-.01-.317-.28-.264-.734.059-.502.281-.771.745-.9.628-.172.63-.183.066-.208-.472-.021-.595-.183-.595-.78 0-.52.184-.842.595-1.04.474-.229.501-.291.132-.305-.254-.01-.463-.213-.463-.452 0-.239.209-.592.463-.785.427-.324.414-.352-.162-.36-.544-.007-.61-.113-.508-.807.07-.473-.026-.918-.234-1.091-.528-.438-.449-1.547.11-1.567.352-.013.319-.075-.138-.258-.33-.133-.71-.513-.843-.843-.212-.53-.244-.484-.258.375-.01.537-.136 1.05-.282 1.14-.145.09-.264.394-.264.677 0 .662-1.49 4.972-1.883 5.445-.243.292-.119.36.66.36.527 0 .958.128.958.285 0 .168-.429.254-1.047.209-.576-.042-1.131.009-1.235.112-.41.41-.812.14-1.239-.827-.553-1.253-.574-3.246-.054-4.963.217-.714.396-1.332.397-1.374.006-.162-1.059.506-2.221 1.393-1.73 1.321-2.01 1.248-2.01-.524V90.38h-15.874v1.852h7.673c7.496 0 7.673.012 7.673.53 0 .516-.177.529-7.673.529h-7.673V94.877h9.393c8.172 0 9.392.052 9.392.397 0 .345-1.205.397-9.26.397h-9.26v1.852h9.628c8.315 0 9.65.054 9.782.397.133.348-1.044.397-9.63.397-9.465 0-9.78.016-9.78.507 0 1.411-.57 1.345 11.482 1.345h11.162l.331-1.257.597-2.257c.36-1.363.77-.99.77.702 0 1.963-1.26 5.478-3.02 8.428-1.599 2.677-3.86 7.99-3.86 9.065 0 .578.112.662.86.644.473-.012.71-.081.529-.155zm4.961-23.901a.265.265 0 0 1 .53 0 .265.265 0 0 1-.53 0zm.85 23.509c.384-.198.429-.502.298-2.016-.085-.98-.316-1.953-.513-2.163-.434-.463-.389-.514-1.284 1.44-.882 1.922-1.207 2.95-1 3.158.188.188 1.869-.094 2.499-.42zm7.15-.851c.106-.166.196-.727.198-1.247.004-.913-.027-.943-.856-.846-2.228.261-2.3.352-1.776 2.238l.27.976.985-.41c.541-.226 1.072-.546 1.179-.711zm-5.965-.362c-.067-.258-.126-.111-.131.325-.006.437.05.648.122.469.072-.18.077-.537.01-.794zm7.721-1.196c-.031-1.82-.044-1.857-.245-.727-.299 1.682-.294 2.645.014 2.645.155 0 .25-.793.231-1.918zm3.284.858c-1.72-.987-1.928-.986-1.928.002v.793l1.654-.002 1.654-.002-1.38-.791zm8.123.465c-.002-.182-.075-.597-.162-.923-.155-.578-.178-.581-.923-.142-1.105.653-1.019 1.396.163 1.396.566 0 .924-.129.922-.331zm-30.847-.794c-.209-.64-.313-1.31-.348-2.238-.012-.322-.276-.821-.585-1.11-.328-.305-.497-.697-.406-.936.087-.227.055-.412-.072-.412s-.355-.357-.507-.794c-.152-.436-.388-.794-.524-.794s-.33-.267-.429-.595c-.11-.36-.234-.465-.317-.264-.103.248-1.413.33-5.274.33-4.888 0-5.137.025-5.137.508 0 1.362-.078 1.344 5.95 1.344 5.407 0 5.635.021 5.768.53.135.517.008.529-5.658.529h-5.796V110.752h3.043c2.866 0 3.043.03 3.043.53 0 .496-.177.529-2.91.529h-2.911v1.322l3.638-.01c3.377-.01 3.586-.04 2.91-.405-.77-.418-.913-.761-.44-1.054.158-.098.227-.411.152-.697-.13-.499.618-1.538 1.107-1.538.123 0 .44.238.703.53.263.29.615.529.782.529.318 0 3.915 2.632 4.068 2.976.207.466.328.147.15-.397zm-2.487-2.183c-.284-.341-.178-.396.761-.396.794 0 1.091.108 1.091.396 0 .261-.26.397-.761.397-.419 0-.91-.178-1.09-.397zm28.906 1.793a8.42 8.42 0 0 0-1.72 0c-.473.06-.086.107.86.107s1.333-.048.86-.107zm-10.464-1.255c.611-.16 1.176-.356 1.255-.435.079-.078-.375-.402-1.008-.718-1.277-.638-3.981-.843-3.396-.258.175.175.318.641.318 1.037 0 .794.386 1.062 1.19.823.291-.087 1.03-.289 1.641-.449zm-1.387-.952c-.243-.392-.015-.555.5-.358.239.092.368.273.287.403-.198.32-.574.3-.787-.045zm7.42.282l.998-.794h-1.095c-1.04 0-1.095.04-1.095.794 0 .437.044.794.096.794.053 0 .546-.357 1.095-.794zm5.423.297c0-.612-1.336-1.217-2.178-.985-.33.09-.957.46-1.394.822l-.794.657 2.183.001c1.96.001 2.183-.05 2.183-.495zm2.756-.656c-.092-.239-.422-.432-.734-.429-.548.006-.546.022.09.511.74.569.887.55.644-.082zm-26.443-.421c.53-1.025.518-1.072-.258-1.072-.473 0-.661-.143-.661-.501 0-.433.122-.474.893-.3.889.2.9.192 1.96-1.682.862-1.522 2.438-4.992 2.438-5.368 0-.047-4.94-.086-10.98-.086h-10.98V102.538l4.825.072c4.352.065 4.834.118 4.914.535.083.428-.289.463-4.856.463h-4.945l.16.596c.088.327.161.746.163.931.003.263 1.143.321 5.23.265 5.61-.077 5.387-.013 4.957-1.42-.146-.476-.055-.558.64-.578.445-.012.878.088.962.224.084.136.335.247.56.247.425 0 1.942 1.469 1.942 1.88 0 .13.12.237.265.237.145 0 .264-.12.264-.265 0-.154.882-.265 2.117-.265 1.705 0 2.117.078 2.117.397 0 .32-.412.397-2.117.397-1.164 0-2.117.066-2.117.146 0 .08.234.587.52 1.125.286.538.726 1.484.977 2.103.251.618.49 1.124.532 1.124.04 0 .256-.351.478-.78zm-5.946-7.025c-.291-.35.233-.397 4.465-.397 4.086 0 4.795.059 4.795.397 0 .337-.672.397-4.465.397-3.647 0-4.526-.073-4.795-.397zm20.767-3.461l.196-4.784-.824-.341c-.454-.188-.825-.516-.825-.729 0-.212-.149-.336-.33-.275-.244.082-.31.854-.252 2.938.062 2.22-.004 2.91-.312 3.218-.55.55-1.035.487-1.457-.188-.35-.56-.373-.563-.725-.081-.2.273-.363.822-.363 1.219 0 .397-.199 1.118-.442 1.603-.79 1.576-.881 1.795-.881 2.117 0 .174-.26.853-.577 1.508-.562 1.16-.564 1.198-.074 1.472.276.155.81.596 1.184.98.442.452 1.19.803 2.129.998.796.165 1.803.516 2.237.779l.79.479.165-3.065c.09-1.685.253-5.217.36-7.848zm.993 9.546c.07-.363.024-.661-.101-.661s-.228.298-.228.661c0 .364.046.662.101.662.056 0 .159-.298.228-.662zm10.4-.198a17.898 17.898 0 0 1-.26-1.058c-.143-.648-.216-.691-.684-.399-.732.457-.688 1.455.07 1.601l.786.15c.105.02.144-.112.088-.294zm-17.74-.198c.09-.146.037-.265-.117-.265s-.28.119-.28.265c0 .145.052.264.116.264s.19-.119.28-.264zm11.244.137c0-.133-1.99-1.196-2.238-1.196-.079 0-.143.298-.143.662 0 .607.097.661 1.19.661.656 0 1.191-.057 1.191-.127zm-12.435-.55c0-.227-.12-.339-.265-.249-.145.09-.264.276-.264.413 0 .136.119.249.264.249.146 0 .265-.186.265-.413zm8.66-4.152c-.055-.618-.101-.112-.101 1.125s.046 1.743.101 1.124c.056-.618.056-1.63 0-2.249zm7.215 1.968c0-.275-1.477-1.372-1.847-1.372-.285 0-2.386 1.312-2.386 1.49 0 .054.952.097 2.116.097 1.164 0 2.117-.096 2.117-.215zm-5.027-.858l.661-.532-.791.075c-.506.048-.823.242-.88.538-.114.602.191.578 1.01-.08zm7.343-.051c-.06-.182-.397-.364-.75-.405-.62-.071-.624-.061-.126.33.621.49 1.025.525.876.075zm-6.02-1.628c0-.116-1.81-1.216-2-1.216-.064 0-.117.297-.117.661 0 .595.106.661 1.058.661.582 0 1.059-.047 1.059-.106zm5.556-.394c0-.276-.188-.574-.419-.662-.617-.237-.64-.22-.64.501 0 .485.142.661.53.661.343 0 .529-.176.529-.5zm-3.109-1.014a8.42 8.42 0 0 0-1.72 0c-.473.059-.086.107.86.107s1.333-.048.86-.107zm-5.97-.652c-.085-.21-.148-.148-.16.16-.012.279.05.435.138.347.088-.088.098-.316.021-.507zm8.606-1.273c-.128-.874-.85-1.11-.85-.278 0 .4.397.846.946 1.064.012.004-.032-.35-.096-.786zm-5.877-.692c0-.056-.298-.102-.661-.102-.488 0-.662.14-.662.535 0 .51.031.515.662.102.363-.238.661-.479.661-.535zm-2.465-1.474c-.085-.211-.147-.149-.16.16-.011.278.051.435.139.347.088-.088.097-.316.02-.507zm1.936.21c0-.057-.179-.173-.397-.256-.218-.084-.397-.037-.397.104 0 .14.179.256.397.256.218 0 .397-.047.397-.104zm5.885-.558c-.128-.672-.441-.857-.711-.42-.219.354.122 1.082.506 1.082.211 0 .286-.24.205-.662zm-2.181-2.24c0-.335-.89-.802-1.53-.802-.277 0-.72.238-.984.529-.473.523-.462.529 1.018.529.823 0 1.496-.115 1.496-.255zm-3.462-.992c.061-.041-.147-.075-.463-.075-.352 0-.573.165-.573.43 0 .367.067.378.463.074.255-.195.513-.388.573-.43zm.287-1.146c-1.149-.78-1.323-.814-1.323-.261 0 .432.17.537.86.534.668-.003.771-.064.463-.273zm4.494-.053c-.002-.182-.12-.51-.26-.728-.2-.31-.258-.236-.261.33-.002.4.115.728.26.728.146 0 .263-.149.26-.33zm-1.592-1.584c.005-.252-.34-.847-.767-1.323l-.775-.864-.945.912c-.52.502-.943.978-.942 1.058 0 .081.498.464 1.105.852 1.05.67 1.132.684 1.71.264.333-.242.61-.646.614-.899zm-22.903-2.799c.878-1.733 1.24-1.988 2.51-1.774.595.1 1.273.056 1.57-.103.523-.28 1.898-2.731 1.898-3.383 0-.608-1.466-.378-2.447.382-3.384 2.624-4.312 3.267-4.929 3.413-.382.09-.991.312-1.355.492-1.872.927-2.736 1.204-2.983.957-.168-.168-.496-.17-.93-.004-.952.362-1.313-.083-.757-.932.24-.366.437-.7.437-.741 0-.042-2.262-.04-5.027.002l-5.028.077v2.094h8.194c7.175 0 8.175.05 8.042.397-.349.908.207.303.805-.876zm16.585-.925c-.492-.492-.612.012-.246 1.037l.355.995.085-.876c.047-.482-.04-1.002-.194-1.156zm3.151.776c0-.055-.178-.248-.396-.43-.326-.27-.397-.251-.397.1 0 .237.178.43.397.43.218 0 .396-.045.396-.1zm2.496-2.1c-.134-.349-.512-.446-1.73-.446-.858 0-1.56.113-1.56.25 0 .138.507.605 1.125 1.039l1.125.789.606-.593c.384-.376.543-.755.434-1.039zm-13.032.7c.615-.59.836-.661 1.337-.433 1.387.632 2.598-.868 1.622-2.008-.263-.306-.63-.557-.816-.557-.186 0-.338-.166-.338-.368 0-.203-.479-.56-1.064-.794-1.375-.55-1.5-.537-.92.104.263.29.37.546.24.568a17.2 17.2 0 0 1-1.6.186c-.851.06-1.562 1.7-1.158 2.675.277.67 1.056 1.268 1.71 1.315.137.01.581-.3.987-.688zm-15.922-1.153c0-.149.268-.39.595-.535.328-.146.988-.551 1.467-.901.479-.35 1.67-.943 2.646-1.32.976-.375 1.924-.778 2.106-.895.432-.275-5.708-.961-6.865-.767-.481.08-1.083.229-1.338.33-.671.265-.61-.795.132-2.265.425-.842.823-1.247 1.39-1.414.436-.129 1.048-.35 1.359-.492.31-.142 1.996-.215 3.744-.163 2.763.082 3.15.043 2.963-.302-.391-.72-1.7-1.797-2.668-2.194-.555-.228-1.199-.79-1.543-1.348-.326-.526-.7-.956-.835-.956-.446 0-.25-.507.315-.809 1.072-.574 2.657-.35 4.602.651 1.743.897 1.857.922 1.936.423.08-.497.288-.53 3.374-.53 2.747 0 3.289.066 3.289.397 0 .528.031.52 1.504-.394 1.313-.816 3.936-1.468 4.855-1.208l1.05.297c.476.135.528.024.527-1.124-.002-1.139-.087-1.323-.794-1.726-.635-.361-.792-.628-.792-1.345 0-.71.22-1.092 1.058-1.845.63-.565 1.058-1.188 1.058-1.536 0-.558-.074-.577-1.653-.42-.91.09-3.023.256-4.697.367l-3.042.203 4.311.132c4.254.13 4.307.14 3.924.662-.38.518-.737.53-18.136.604l-17.748.075V67.096h17.198c17.021 0 17.198.005 17.198.53 0 .523-.177.528-17.066.528h-17.066v1.588h17.727c17.551 0 17.728.005 17.728.529s-.177.53-17.756.53c-16.082 0-17.74.039-17.595.418.089.23.161.647.161.926 0 .487.27.507 6.615.507 6.438 0 6.614.014 6.614.53 0 .515-.176.529-6.632.529h-6.632l.084.727.083.728 8.331.132c7.663.122 8.338.17 8.42.595.083.434-.451.463-8.265.463h-8.353V78.21h4.762c4.586 0 4.763.02 4.763.529s-.177.529-4.63.529h-4.63v1.574l4.163.073c3.721.065 4.173.122 4.253.536.081.425-.258.463-4.192.463-3.796 0-4.263.047-4.12.418.087.23.16.528.16.662 0 .14 2.73.243 6.501.243 6.05 0 6.496.032 6.413.463-.081.423-.637.469-6.502.534l-6.412.07v.878c0 .482.08.956.176 1.053.3.3 10.407.208 10.407-.094zm14.43-3.15c-.095-.156-.368-.283-.605-.283-.362 0-.348.062.08.376.555.405.806.36.526-.093zm9.06-.084c.264-.323.414-1.054.353-1.72-.049-.533-1-.38-1.772.283l-.713.613.734.577c.848.668 1.027.7 1.398.247zm2.836-.728c-.09-.145-.275-.264-.412-.264-.137 0-.25.119-.25.264 0 .146.186.265.413.265.227 0 .339-.12.25-.265zm1.275-3.347c.095-.095-.034-.323-.286-.507-.331-.242-.554-.256-.802-.05-.282.234-.282.325-.001.503.416.265.856.286 1.089.054zm-6.812-1.4c.23.191.378.208.378.044 0-.322 1.421-.22 2.447.176l.728.28v-1.68c0-.923.074-2.05.165-2.504l.165-.825-1.174 1.123c-1.024.978-2.484 2.174-4.316 3.533-.406.301-.324.293.35-.034.686-.332.962-.357 1.257-.112zm1.594-1.708c.078-.203.432-.424.786-.492.495-.095.644-.01.644.37 0 .37-.196.492-.786.492-.563 0-.745-.104-.644-.37zm-7.201-.49l1.228-1.521H-93.988l1.032.76c.568.417 1.38 1.13 1.807 1.584.426.454.797.797.825.762l1.279-1.585zm-1.953.595c0-.145.238-.264.53-.264.29 0 .529.119.529.264 0 .146-.239.265-.53.265-.29 0-.529-.12-.529-.265zm13.734-.162c-.227-.273-.424-.287-.845-.062-.53.283-.531.307-.06.651.633.463 1.376-.02.905-.589zm-.429-2.513c-.446-.447-.977-.022-.576.461.221.267.404.3.595.109.191-.191.186-.366-.019-.57zm.189-2.626c0-.376-.127-.318-.687.313-.5.564-.5.566.092.255.327-.172.595-.427.595-.568zm-19.863-6.366c-1.83-.117-4.985-.456-7.012-.753-4.797-.705-12.167-.782-11.915-.126.089.23.16.588.16.794 0 .319 1.67.37 11.047.337 8.467-.03 10.27-.088 7.72-.252zm4.835-2.55c-.076-.397-.414-.94-.751-1.204-.898-.707-1.275-2.197-.905-3.574.315-1.169 1.303-2.078 1.977-1.82.308.118.25.388-.305 1.429-.492.922-.634 1.483-.505 1.997.188.746 1.374 1.723 1.699 1.398.103-.103-.02-.304-.273-.446-.744-.416-.606-1.931.236-2.593.694-.546 2.061-.721 2.66-.341.44.28.876 1.525.876 2.5 0 .45.09.729.199.617.109-.11.198-.756.198-1.433 0-1.054.076-1.23.53-1.23.404 0 .548.204.612.869l.084.869.81-.867c.808-.865.808-.868.636-3.153-.143-1.897-.105-2.312.224-2.439.766-.294 1.205.565 1.205 2.358 0 1.7 0 1.701.765 1.701.42 0 1.043.226 1.384.502l.62.502.27-.824c.148-.454.604-1.006 1.016-1.23.728-.395.767-.382 1.521.511.426.504.792 1.1.814 1.323.022.224.111-.129.198-.784.128-.955.257-1.182.657-1.148.45.038.484-.107.355-1.522-.166-1.836-.03-2.525.54-2.744.777-.298.99.351.93 2.848-.045 1.932-.003 2.259.204 1.586.471-1.536 2.319-2.174 3.632-1.254l.588.412v-1.682c0-.925-.135-1.817-.3-1.981-.384-.385-.104-1.13.424-1.13.223 0 .643.239.934.53.468.468.53.888.538 3.638.007 2.77.05 3.053.391 2.603a1.44 1.44 0 0 0 .227-1.128c-.155-.614.265-1.41.742-1.41.136 0 .372.362.526.803.225.644.352.742.648.497.202-.168.368-.656.368-1.085 0-.658.093-.767.595-.696.52.074.592.234.57 1.255-.021.925-.177 1.299-.743 1.786-.47.404-.58.616-.32.616.609 0 .8.534.351.983-.482.482-.982.243-.982-.47 0-.667-.122-.65-1.208.18-.703.536-1.072.65-1.636.503-.878-.228-1.72-.225-3.045.009-.705.125-1.181.053-1.636-.245-.611-.4-.646-.392-.726.17-.083.587-.087.586-.811-.126l-.728-.716v.65c0 .357-.142.649-.315.649-.173 0-.095.161.175.359.3.22.426.527.324.793-.21.544-.943.569-1.147.039-.12-.314-.262-.256-.683.279-.405.514-.73.656-1.359.595-1.07-.104-1.358-1.007-.322-1.007.375 0 .681-.119.681-.264 0-.146-.296-.265-.659-.265-.364 0-.802-.228-.977-.51-.31-.496-.326-.494-.605.067-.363.73-1.729 1.203-3.532 1.222-1.264.013-1.367.056-1.004.42.466.465.292 1.182-.287 1.182-.217 0-.456-.238-.532-.529-.166-.634-.259-.65-.776-.132-.57.57-1.587.489-2.043-.162-.365-.52-.432-.53-.987-.141-.343.24-.608.716-.626 1.124l-.031.707 3.42-.18c6.586-.348 14.14-1.543 19.884-3.146l3.175-.887.175-1.303c.175-1.296.296-9.903.14-9.903-.045 0-1.086.367-2.315.816-7.674 2.8-16.801 4.131-26.54 3.869-7.147-.193-13.526-1.166-20.258-3.092-1.519-.434-2.81-.74-2.872-.679-.093.094.722 10.777.833 10.905.02.025.365.127.765.227.59.148.727.093.727-.292 0-.261-.262-.754-.583-1.096-.441-.47-.61-1.03-.69-2.303-.094-1.464-.032-1.758.477-2.267.809-.808 1.181-.373.822.96-.155.577-.187 1.371-.071 1.802.22.827 1.492 1.962 1.825 1.63.11-.11-.005-.316-.257-.457-.826-.462-1.079-1.254-.623-1.95.578-.882 1.314-1.033 2.433-.502.992.47 1.69 1.624 1.698 2.806.003.446.065.509.235.24.127-.201.168-.837.09-1.413-.132-.986-.102-1.043.493-.959.521.074.648.265.716 1.082.092 1.118.292 1.219.957.483.382-.422.448-.93.383-2.975-.07-2.219-.03-2.475.409-2.56.73-.14.938.421.943 2.538.004 1.839.03 1.919.628 1.919.344 0 1.033.277 1.532.615l.908.616.465-.616c.305-.404.736-.615 1.258-.615.638 0 .862.161 1.139.819l.344.819.154-1.493c.085-.82.031-1.845-.12-2.277-.463-1.331.097-2.012.953-1.157.33.33.416 1.05.416 3.52 0 3.2-.16 3.737-1.112 3.737-.262 0-.476.11-.476.246 0 .503-.856 1.077-1.606 1.077-.931 0-.966-.156-.18-.797l.595-.485-.772-.295c-.424-.163-.907-.48-1.072-.706-.27-.37-.334-.369-.65.01-.417.504-2.154.557-3.888.12-.89-.223-1.269-.223-1.493 0-.165.166-.627.301-1.026.301-.863 0-1.55-.846-1.55-1.91 0-.807-.914-1.914-1.354-1.642-.168.104-.009.45.407.884.817.852.881 1.75.154 2.139-.291.156-.53.503-.53.772 0 .416.518.589 3.506 1.166 4.547.878 10.368 1.616 13.59 1.722 1.338.044 1.35.037 1.214-.679zm-3.37-2.248c-.077-.2-.106-1.847-.065-3.658.07-3.091.107-3.292.604-3.292.503 0 .529.176.529 3.568 0 3.19-.05 3.578-.464 3.657-.255.05-.527-.074-.604-.275zm12.938-5.626c-.092-.238-.04-.56.115-.716.404-.403 1.167-.034 1.062.512-.117.61-.965.756-1.177.204zm-24.87-1.058c-.092-.239-.04-.561.115-.716.403-.403 1.166-.035 1.061.512-.117.609-.965.756-1.177.204zm39.951-2.117c-.091-.238-.04-.56.116-.716.403-.403 1.167-.034 1.061.512-.117.61-.965.756-1.177.204zm-46.53 10.733c-1.123-.33-1.645-.382-1.782-.177-.395.59-.164.687 1.583.666l1.786-.022zm53.578-.818c0-.436-.12-.504-.654-.37-.36.09-1.282.318-2.05.505l-1.397.341 2.05.03c1.89.026 2.05-.013 2.05-.506zm-28.315-1.78c-.007-.795-.415-1.196-1.021-1.003-.753.239-.71.577.1.78.363.092.66.283.66.426 0 .143.06.26.133.26.073 0 .13-.209.128-.463zm7.28-.596c0-.622-1.277-.63-2.005-.011l-.64.544 1.322-.068c.97-.05 1.323-.174 1.323-.465zm-17.234-.397c-.161-.42-.625-.55-.625-.176 0 .28.29.573.565.573.117 0 .144-.178.06-.397zm-3.422-.124c-.395-.395-1.496-.445-1.628-.074-.08.227.197.33.884.33.648 0 .91-.09.744-.256zm24.493.024c0-.33-.68-.852-.866-.665-.256.255.1.898.497.898.203 0 .369-.105.369-.233zm3.885-.875c-.085-.211-.147-.149-.16.16-.012.278.05.435.139.347.088-.088.097-.316.02-.507zm1.458-.678c-.076-.4-.19-.575-.253-.388-.112.336.09 1.115.289 1.115.057 0 .041-.327-.036-.727zm-7.867-6.014c5.549-.745 12.278-2.407 15.703-3.879.682-.293 1.448-.549 1.7-.569.267-.02.362-.134.226-.27-.136-.135-1.244.166-2.64.718-6.665 2.635-14.364 3.942-26.488 4.495-1.092.05.337.054 3.175.01 2.838-.044 6.583-.271 8.324-.505zm52.848 96.382a1.249 1.249 0 0 1-.318-.766c0-.386.82-3.28 1.24-4.371.082-.216-.03-.366-.274-.366-.526 0-1.613 1.845-2.32 3.937-.526 1.559-.58 1.619-1.448 1.619-.496 0-.902-.062-.902-.138 0-.075.495-2.117 1.1-4.536 1.057-4.219 1.082-4.414.615-4.755-.267-.195-.426-.415-.353-.488.166-.166 2.927-.699 3.04-.587.044.046-.03.493-.167.994a90.68 90.68 0 0 0-.64 2.602l-.39 1.692.857-.832c.597-.578 1.114-.831 1.7-.831 1.18 0 1.339.841.622 3.307-.688 2.37-.709 2.872-.079 1.916.265-.401.562-.65.66-.551.311.311.2.577-.643 1.536-.842.96-1.723 1.196-2.3.618zm4.653-.043c-2.5-1.9.905-7.919 3.847-6.8 1.557.592.96 2.766-1.024 3.727-.595.288-1.223.523-1.395.523-.532 0-.356 1.282.218 1.59.439.234.641.166 1.155-.388.65-.702 1.224-.88 1.224-.382 0 .16-.405.696-.9 1.191-.975.975-2.259 1.197-3.125.539zm2.56-4.174c.668-.794.837-1.976.274-1.922-.538.051-1.746 2.752-1.232 2.752.143 0 .574-.373.958-.83zm10.595.717c-.872-2.098-1.625-3.776-1.674-3.727-.049.05-.44 1.44-.867 3.09-.778 2.998-.779 3-.244 3.439.294.241.534.51.534.595 0 .086-.655.156-1.455.156-1.515 0-1.735-.134-1.048-.637.225-.164.893-2.075 1.486-4.248l1.079-3.95-.56-.454c-.308-.249-.56-.523-.56-.61 0-.085.64-.155 1.424-.155h1.425l1.353 3.075c.745 1.691 1.362 3.21 1.373 3.373.035.562 1.296-4.198 1.3-4.909.003-.48-.168-.764-.525-.878-1.037-.329-.505-.661 1.058-.661 1.683 0 1.887.155 1.097.831-.273.234-.75 1.406-1.076 2.639l-1.18 4.467c-.37 1.398-.738 2.274-.975 2.314-.26.046-.88-1.137-1.965-3.75zm5.937 3.263c-.232-.435-.169-1.074.294-2.945.541-2.193.554-2.41.155-2.633-.24-.134-.435-.343-.435-.465 0-.224 2.867-.678 3.06-.484.059.058-.188 1.17-.547 2.47-.36 1.3-.65 2.6-.647 2.892.015 1.067 1.57-1.252 2.217-3.307.614-1.953.64-1.986 1.578-2.067.525-.045.954-.044.954.002s-.296 1.155-.658 2.463c-.362 1.31-.657 2.618-.656 2.909.002.5.028.496.47-.078.63-.818.94-.432.395.491-.832 1.408-2.313 1.707-2.875.58l-.294-.59-.618.658c-.78.83-1.976.882-2.393.104zm14.368.38c-.483-.195-.408-1.29.237-3.468.557-1.88.551-2.41-.025-2.054-.431.266-1.369 2.207-1.857 3.845-.417 1.398-.473 1.458-1.421 1.537-1.128.095-1.123.382-.063-3.257.34-1.164.575-2.164.523-2.22-.403-.447-1.899 2.128-2.48 4.27-.329 1.213-.375 1.257-1.323 1.257h-.983l.579-2.183c.99-3.736.976-3.638.534-3.638a.4.4 0 0 1-.402-.397c0-.218.208-.398.463-.4.255-.001.927-.079 1.494-.173 1.03-.17 1.031-.17.84.599l-.192.768.763-.728c1.008-.962 2.37-1.014 2.6-.098l.159.629.628-.63c.723-.722 2.004-.836 2.512-.223.315.379.01 1.987-.967 5.095-.104.33 0 .292.385-.142 1.057-1.192 1.203-.274.155.972-.643.763-1.339.97-2.16.638zm3.798-.222c-.487-.369-.47-.503.62-4.673 1.06-4.054 1.096-4.313.653-4.636-.258-.189-.408-.404-.334-.478.19-.19 2.714-.644 2.846-.512.095.096-.165 1.457-.68 3.552-.133.544-.1.603.191.33.195-.181.744-.33 1.22-.33 2.631 0 1.962 4.578-.955 6.544-1.026.692-2.783.792-3.561.203zm2.835-.873c.903-.998 1.628-4.28 1.027-4.65-.519-.321-1.17.662-1.787 2.693-.671 2.21-.31 3.14.76 1.957zm4.622.909c-2.5-1.9.905-7.919 3.847-6.8 1.557.592.959 2.766-1.025 3.727-.595.288-1.222.523-1.395.523-.531 0-.355 1.282.219 1.59.438.234.641.166 1.155-.388.65-.702 1.223-.88 1.223-.382 0 .16-.404.696-.9 1.191-.974.975-2.258 1.197-3.124.539zm2.56-4.174c.668-.794.836-1.976.274-1.922-.538.051-1.747 2.752-1.232 2.752.142 0 .573-.373.957-.83zm12.899 4.122c-2.636-1.847-1.334-7.457 2.213-9.536.992-.58 1.42-.678 2.53-.571 2.67.256 3.824 2.757 2.756 5.973-.521 1.57-2.284 3.677-3.501 4.186-1.165.487-3.268.46-3.998-.052zm4.25-2.254c.406-.79.93-2.413 1.165-3.606.396-2.014.395-2.215-.015-2.842-.625-.953-1.526-.87-2.49.226-1.674 1.907-2.688 7.134-1.545 7.97.866.635 2.025-.067 2.886-1.748zm8.145 2.29c-.363-.437-.183-1.685.552-3.834.27-.788.421-1.502.336-1.587-.383-.383-1.726 1.697-2.286 3.541l-.603 1.987-1.02.002c-.709.002-.983-.099-.896-.328.07-.182.41-1.451.756-2.82.48-1.895.551-2.517.3-2.602a.515.515 0 0 1-.331-.453c0-.318 2.554-.854 2.816-.591.06.06-.02.453-.18.873l-.29.764.89-.86c.625-.603 1.141-.86 1.732-.86 1.191 0 1.355.875.628 3.347-.7 2.379-.71 2.708-.063 1.908.738-.91.974-.412.313.658-.78 1.26-1.993 1.651-2.654.854zm4.55-.028c-1.307-.916-.995-3.625.625-5.418 1.21-1.338 2.514-1.799 3.417-1.207.661.434.754.66.659 1.606-.08.798-1.315 1.958-2.444 2.296-.77.23-1.003.438-1.003.888 0 1.06.636 1.28 1.53.528 1.516-1.276 1.879-.707.49.767-1 1.058-2.241 1.263-3.274.54zm2.99-4.654c.428-.828.335-1.722-.149-1.424-.308.19-.902 1.3-1.182 2.206-.173.562-.14.591.36.323.304-.163.74-.66.971-1.105zm15.037 4.392c-.61-.93-.357-2.753.592-4.28 1.197-1.926 2.842-2.854 3.641-2.055.234.234.425.297.425.141s.43-.283.954-.283c.674 0 .916.1.823.343-.072.189-.39 1.29-.708 2.448a588.205 588.205 0 0 1-.725 2.633c-.146.517-.137.518.4.039.987-.882 1.24-.34.326.701-.927 1.056-1.93 1.288-2.346.544-.226-.405-.288-.405-.866 0-.934.655-2 .557-2.516-.231zm3.222-2.078c1.155-2.525.821-4.769-.412-2.765-.688 1.118-1.35 3.292-1.155 3.799.298.774.93.357 1.567-1.034zm7.574 2.427c-.46-.46-.396-1.146.32-3.467.557-1.804.583-2.055.206-1.983-.564.109-1.513 1.792-2.135 3.783-.476 1.526-.532 1.59-1.453 1.67-.528.045-.96.008-.96-.084 0-.09.318-1.35.707-2.798.691-2.58.695-2.64.199-3.004-.675-.493-.517-.594 1.283-.816l1.526-.19-.27.71c-.401 1.058-.343 1.076.515.157.619-.663.96-.822 1.627-.755 1.334.132 1.494.687.838 2.915a69.77 69.77 0 0 1-.76 2.46c-.176.483-.134.476.483-.086 1.009-.918 1.15-.24.181.864-.848.965-1.727 1.203-2.307.624zm7.29-.145c-.228-.255-.555-.994-.728-1.643-.355-1.33-.616-1.127-.92.717-.18 1.1-.208 1.124-1.22 1.124-.57 0-1.032-.03-1.028-.066.003-.036.529-2.134 1.168-4.66 1.104-4.37 1.136-4.602.655-4.728-.913-.239-.534-.543 1.014-.812.837-.145 1.557-.231 1.6-.19.043.04-.278 1.483-.713 3.206-.436 1.724-.76 3.165-.722 3.203.038.039.479-.36.978-.886.588-.619.791-.998.577-1.076-.182-.066-.33-.29-.33-.495 0-.278.376-.375 1.455-.375 1.117 0 1.455.092 1.455.397 0 .218-.132.397-.293.397-.16 0-.762.372-1.337.827-.925.732-1.025.92-.879 1.653.469 2.347.97 3.113 1.32 2.014.177-.56.66-.477.66.113 0 .537-1.244 1.743-1.799 1.743-.275 0-.687-.209-.914-.463zm198.091-.794c.252-1.78.413-2.226.765-2.111.17.056.346.417.392.802.104.882 1.268 1.822 2.125 1.718.357-.043.881-.39 1.164-.77.471-.635.481-.757.12-1.456-.217-.42-.883-1.155-1.48-1.635-1.563-1.256-2.02-2.25-1.63-3.55.468-1.56 1.496-2.067 4.045-1.99 1.13.034 2.053.146 2.054.248 0 .102-.13.792-.288 1.535-.301 1.403-.828 1.673-.992.507-.187-1.33-1.793-2.09-2.635-1.249-.677.677-.318 1.49 1.403 3.186 1.56 1.539 1.72 1.795 1.72 2.78 0 2.22-2.186 3.62-4.672 2.994-.889-.223-1.298-.234-1.364-.036-.052.156-.276.284-.5.284-.33 0-.372-.228-.227-1.257zm10.295.981c-.458-.14-1.202-.675-1.654-1.19-.688-.783-.82-1.152-.82-2.283 0-1.927.474-3.259 1.63-4.571 1.396-1.586 2.578-2.003 5.467-1.928l2.348.061-.348 1.455c-.19.8-.352 1.545-.357 1.654-.005.11-.188.198-.406.198-.258 0-.397-.258-.397-.734 0-1.109-.683-1.911-1.628-1.911-1.953 0-3.784 2.79-3.792 5.774-.004 1.47.078 1.746.652 2.21.48.39.892.494 1.549.387.79-.128 1.238-.362 2.582-1.35.498-.367.729-.014.397.605-.704 1.317-3.442 2.168-5.223 1.623zm-338.495-.254c0-.145.234-.264.52-.264.286 0 .636-.218.779-.485.22-.412 2.14-7.678 2.14-8.1 0-.493-1.028.014-1.909.94-.568.597-1.09 1.03-1.158.961-.16-.16.153-2.143.404-2.547.134-.218 1.32-.287 4.021-.235l3.83.073-.278 1.405c-.299 1.503-.751 1.928-.899.844-.104-.763-.76-1.587-1.263-1.587-.19 0-.463.446-.606.992-1.139 4.335-1.824 7.346-1.713 7.525.072.118.363.214.645.214.283 0 .514.119.514.264 0 .158-1.014.265-2.514.265-1.499 0-2.513-.107-2.513-.265zm66.68.067c.003-.11.298-1.33.656-2.712.774-2.987.767-2.91.265-2.91a.398.398 0 0 1-.397-.398c0-.218.208-.398.463-.4.255-.002.91-.076 1.455-.166.838-.139.992-.09.992.308 0 .441.033.443.484.035.738-.668 1.593-.56 1.79.227.234.933-.33 1.536-1.265 1.349-.65-.13-.802-.027-1.247.845-.279.546-.705 1.674-.947 2.507-.425 1.461-.47 1.513-1.347 1.513-.499 0-.905-.09-.902-.198zm35.449.05c0-.105.19-.33.421-.498.33-.241 2.481-7.504 2.488-8.398 0-.1-.237-.256-.528-.349-1.202-.381-.378-.661 1.945-.661 3.757 0 4.67.484 4.67 2.477 0 .743-.191 1.081-.974 1.727-.772.636-.887.836-.554.964 1.25.48 1.123 2.856-.22 4.12-.624.586-.92.64-3.961.721-1.808.049-3.287.002-3.287-.103zm5.222-.963c.182-.15.46-.756.62-1.346.394-1.465-.008-2.373-1-2.257-.641.076-.755.263-1.172 1.921-.255 1.01-.397 1.943-.318 2.072.167.27 1.38.017 1.87-.39zm.915-5.166c1.006-.882.784-2.983-.315-2.983-.51 0-.774.624-1.227 2.888-.166.83-.142.866.46.682.348-.106.835-.37 1.082-.587zm108.748 5.988c-1.43-.429-1.778-2.468-.602-3.532.457-.414.492-.387.66.513.22 1.164.855 1.457 3.145 1.452 2.945-.007 2.827.133 2.827-3.328v-3.005l.78-.403c.43-.222.846-.404.926-.404.08 0 .146 1.488.146 3.307v3.308h8.599c4.729 0 8.599-.064 8.599-.142 0-.078-.193-.435-.428-.794-.393-.6-.393-.704 0-1.304.57-.868.554-.919-.366-1.24-.924-.322-.964-.485-.313-1.289.393-.486.573-.54.992-.302 1.256.714 1.296.768.91 1.231-.305.37-.297.542.06 1.145.23.39.503 1.157.605 1.702l.186.993h8.834c4.859 0 8.834-.093 8.834-.206 0-.113-.186-.471-.413-.796-.383-.546-.37-.652.178-1.42l.59-.83.486.599c.267.33.56 1.061.65 1.626l.164 1.027H229.677v-2.76c0-2.745.004-2.764.769-3.308.422-.3.84-.547.926-.547.086 0 .157 1.843.157 4.096 0 4.03-.01 4.098-.595 4.233-.327.076-11.609.19-25.07.254-13.46.063-25.247.176-26.193.25-.946.075-2.111.018-2.59-.126zm95.194.057c0-.128.245-.396.544-.596.393-.262.832-1.386 1.587-4.067.573-2.037.987-3.853.92-4.035-.068-.182-.306-.33-.529-.33-.223 0-.405-.12-.405-.265 0-.378 5.449-.34 6.169.043.855.456 1.221 1.047 1.23 1.987.017 1.657-1.89 2.997-4.266 2.997-.89 0-.914.03-1.358 1.697-.558 2.095-.562 2.007.077 2.007.294 0 .53.177.53.397 0 .322-.427.397-2.25.397-1.237 0-2.249-.105-2.249-.232zm6.343-5.582c1.106-1.106 1.027-3.182-.12-3.182-.663 0-.875.447-1.357 2.859-.148.739-.099.845.393.845.309 0 .797-.235 1.084-.522zM101.2 145.964c-.168-.169-.131-1.512.055-1.997.145-.377.212-.363.544.11.273.39.671.542 1.422.542.574 0 1.044-.064 1.044-.143 0-.079-.244-.621-.542-1.206-.566-1.108-.514-1.809.175-2.38.514-.427.741-.114 1.314 1.81l.413 1.39h21.148c11.631 0 21.148-.093 21.148-.206 0-.113-.186-.471-.413-.796-.383-.546-.37-.65.16-1.395.314-.442.709-.76.876-.705.71.232 1.374 4.128.8 4.69-.226.222-47.925.505-48.144.286zm49.631-3.493v-3.839l.742-.71c.409-.392.825-.711.927-.711.1 0 .183 1.643.183 3.652v3.652l-.926.898-.926.897zm18.521-.036v-3.798l.926-.897.926-.898v7.979l-.926.706-.926.706zm64.294.01v-3.813l.742-.71c.408-.392.825-.711.926-.711.101 0 .175 1.696.165 3.77l-.02 3.77-.906.754-.907.754v-3.814zm-55.248.303c.067-.2.41-.444.763-.543.632-.176.631-.18-.085-.206-1.543-.055-.52-2.143 1.05-2.143.917 0 .722.701-.257.921l-.86.193.86.245c1.409.4.998 1.379-.722 1.723-.672.134-.842.091-.749-.19zm-33.513-1.845c.094-.152.032-.444-.138-.649-.687-.827.727-2.474 1.825-2.126.715.227.413.935-.4.935-.347 0-.632.132-.632.293 0 .281.674.204 1.722-.199.334-.128.424-.05.355.309-.051.264-.618.758-1.259 1.097-1.26.666-1.743.777-1.473.34zm196.38-2.92c-.254-.148-.463-.424-.463-.612 0-.189.209-.53.463-.76.398-.36.556-.368 1.125-.062.561.303.726.298 1.09-.03.348-.314.559-.327 1.124-.07.822.375.88.778.201 1.392-.415.376-.607.396-1.198.128-.537-.245-.775-.248-1.013-.01-.375.375-.716.381-1.329.024zm.75-2.232c-.49-.37-.49-.404-.035-.908.437-.482.533-.492 1.236-.13.837.433.92.645.444 1.122-.42.42-1.021.389-1.646-.084zm-368.632-18.065c-3.044-3.678-9.319-10.942-10.446-12.093-.515-.526-.518-.476-.437 7.452l.08 7.982h-1.15c-1.15 0-1.152 0-.992-.838.088-.46.237-5.278.33-10.706.132-7.719.241-9.85.501-9.79.183.044 2.449 2.52 5.035 5.503 2.587 2.983 5.773 6.607 7.082 8.052l2.378 2.628-.18-7.853-.18-7.854H-22.402l-.177 1.124c-.098.619-.24 5.411-.317 10.65-.076 5.239-.22 9.55-.32 9.579-.1.03-1.63-1.697-3.402-3.836zm50.101 3.622c-3.586-.518-6.63-2.827-7.897-5.993-.52-1.299-.61-2-.614-4.827-.005-3.167.03-3.382.829-5.067 1.383-2.92 3.374-4.54 6.622-5.386 3.977-1.036 8.678.172 11.1 2.854 3.385 3.746 3.552 10.636.363 14.949-1.933 2.614-6.281 4.065-10.403 3.47zm5.663-2.147c1.567-.92 2.189-1.633 3.07-3.515.69-1.473.743-1.822.743-4.894 0-4.013-.423-5.468-2.143-7.381-1.498-1.666-3.012-2.284-5.53-2.255-4.145.046-6.565 2.483-7.326 7.378-.788 5.07 1.199 9.836 4.628 11.1 1.769.65 5.088.432 6.558-.433zm22.254-1.331a565.776 565.776 0 0 0-7.094-8.258c-3.427-3.904-3.952-4.403-4.035-3.837-.053.359-.046 3.946.016 7.972l.113 7.32H39.25c-.953 0-1.128-.076-1.017-.441.28-.915.688-15.095.517-17.958-.151-2.532-.12-2.988.21-2.988.213 0 2.897 2.887 5.963 6.416 3.065 3.529 6.247 7.13 7.069 8.004l1.495 1.587-.092-7.739-.091-7.74h2.077l-.204 2.58c-.112 1.42-.188 6.241-.17 10.716.02 4.766-.066 8.136-.207 8.136-.133 0-1.662-1.696-3.398-3.77zm88.156-.265c-6.69-7.99-10.81-12.5-10.918-11.953-.055.28-.045 3.864.022 7.962l.121 7.453h-1.157c-.957 0-1.134-.076-1.023-.441.228-.755.73-14.84.638-17.878-.058-1.863.01-2.919.19-2.981.154-.053 2.79 2.792 5.858 6.324 3.068 3.532 6.25 7.135 7.072 8.009l1.494 1.587-.084-7.739-.083-7.74h2.073l-.19 2.316c-.105 1.273-.182 6.095-.171 10.716.011 4.9-.082 8.4-.222 8.4-.133 0-1.762-1.816-3.62-4.035zm36.843 3.75c-5.876-.878-9.385-6.158-8.433-12.69.87-5.963 5.302-9.374 11.572-8.906 2.864.214 4.744 1.047 6.637 2.94 2.04 2.04 2.762 3.793 2.951 7.167.273 4.858-1.571 8.588-5.146 10.412-2.028 1.035-5.017 1.46-7.58 1.076zm4.891-1.71c1.478-.52 3.225-2.23 3.913-3.83 1.709-3.972 1.118-9.769-1.272-12.491-1.922-2.19-5.942-2.85-8.808-1.448-2.772 1.356-3.957 3.662-4.132 8.034-.146 3.668.433 5.939 1.973 7.737 1.885 2.203 5.37 3.039 8.326 1.998zm67.431 1.74c-1.971-.258-3.253-.912-4.449-2.272-1.634-1.856-1.704-2.282-1.805-11.033l-.091-7.871H245.155v7.474c0 8.052.095 8.744 1.401 10.297 2.155 2.562 6.948 2.392 9.104-.321 1.265-1.593 1.563-3.838 1.477-11.127l-.075-6.324h2.26l-.152 2.051c-.084 1.128-.245 4.551-.359 7.607-.196 5.31-.238 5.63-.955 7.227-1.5 3.343-4.743 4.867-9.134 4.292zm-270.399-.391c0-.04 1.471-3.572 3.27-7.85 1.798-4.276 3.788-9.06 4.422-10.629.795-1.967 1.272-2.83 1.537-2.778.236.046 1.992 4.099 4.56 10.526 2.298 5.748 4.183 10.528 4.19 10.623.007.095-.702.172-1.575.172s-1.587-.113-1.587-.252c0-.138-.616-1.903-1.368-3.923-1.063-2.854-1.49-3.704-1.918-3.819-1.103-.296-5.863-.163-6.292.176-.416.328-1.944 4.233-2.581 6.592-.332 1.232-.336 1.235-1.496 1.235-.639 0-1.162-.033-1.162-.073zm11.313-9.785c.048-.048-.54-1.587-1.305-3.422-.766-1.834-1.468-3.248-1.56-3.141-.166.191-2.627 6.307-2.627 6.528 0 .327 5.168.36 5.492.035zm10.075.237l.088-9.612-2.073.122c-1.14.068-2.52.167-3.065.22l-.992.1v-2.067H8.423l.015 1.044.014 1.044-1.24-.11c-.682-.06-2.052-.17-3.044-.242l-1.803-.132.084 9.623.083 9.622h-2.91l.089-9.612zm10.23-.813V100.17h2.91v20.849h-2.91zM56.2 120.718c.071-.17 1.321-3.106 2.778-6.526a970.01 970.01 0 0 0 4.326-10.316c1.004-2.454 1.834-4.126 2.07-4.167.29-.051 1.515 2.753 4.64 10.63l4.248 10.699-1.601-.002-1.601-.002-.455-1.417c-1.258-3.923-2.382-6.437-2.945-6.588-.874-.234-5.816-.18-6.208.068-.328.209-2.14 4.87-2.706 6.96-.254.937-.304.97-1.469.97-.816 0-1.164-.1-1.077-.308zm11.224-9.55c.094-.094-1.894-5.172-2.416-6.168-.306-.583-.414-.41-1.636 2.624a578.898 578.898 0 0 1-1.39 3.436c-.17.383 5.063.487 5.442.109zm8.266-.574v-10.425h2.85l-.14 8.41c-.078 4.626-.055 8.988.051 9.694l.192 1.283 3.22-.184c1.77-.102 3.487-.25 3.815-.33.542-.132.595-.051.595.92v1.063l-5.292-.004-5.291-.003zm18.917-.002v-10.424l4.234.006c4.636.006 5.682.259 6.995 1.683.937 1.018 1.081 3.405.302 5.014-.535 1.105-2.17 2.558-2.88 2.558-.174 0-.316.12-.316.265 0 .145.251.264.56.264.91 0 2.598 1.102 3.213 2.096.85 1.376.825 4.245-.05 5.772-1.391 2.43-3.556 3.24-8.571 3.21l-3.487-.021v-10.423zm6.929 8.873c2.409-.912 3.699-4.27 2.53-6.588-.7-1.388-1.89-1.94-4.475-2.076l-2.205-.116v4.377c0 3.254.084 4.411.33 4.51.612.247 3.068.178 3.82-.107zm.248-10.846c2.772-1.342 2.912-5.628.22-6.753-.494-.206-1.735-.375-2.758-.375h-1.86v7.673h1.636c1.111 0 1.997-.175 2.762-.545zm5.391 12.291c0-.064 1.346-3.298 2.992-7.188 1.645-3.889 3.64-8.65 4.432-10.582.991-2.416 1.558-3.488 1.82-3.439.21.04.828 1.202 1.373 2.585.546 1.382 2.38 5.966 4.074 10.186s3.14 7.869 3.215 8.11c.114.372-.102.436-1.478.436-.886 0-1.611-.112-1.611-.249s-.62-1.903-1.377-3.925c-1.057-2.825-1.502-3.71-1.918-3.823-1.095-.294-5.856-.16-6.284.178-.388.306-1.886 4.158-2.614 6.725-.306 1.077-.34 1.102-1.469 1.102-.635 0-1.155-.052-1.155-.116zm11.297-9.725c.038-.038-.549-1.579-1.304-3.423-.756-1.845-1.45-3.266-1.542-3.159-.183.212-2.63 6.26-2.63 6.5 0 .34 5.141.417 5.476.082zm28.788-.584v-10.432h2.778l.013 4.829.013 4.828 2.246-2.381c1.235-1.31 3.164-3.48 4.286-4.823l2.04-2.44 1.424-.007 1.423-.006-4.4 4.503c-2.42 2.476-4.397 4.649-4.393 4.828.004.18 2.024 2.767 4.489 5.75 2.465 2.984 4.486 5.5 4.491 5.593.005.093-.75.173-1.678.179l-1.687.01-3.316-4.28c-1.824-2.354-3.679-4.696-4.123-5.205l-.807-.926-.01 5.206-.011 5.207h-2.779v-10.432zm44.182 0v-10.432h10.454v1.879l-3.969-.185-3.969-.185V109.243l3.705-.146 3.704-.147v1.946l-3.73-.103-3.73-.102.192 5.171.193 5.171h-2.85zm16.167 8.94c.543-1.225 4.682-11.122 7.658-18.314.332-.8.768-1.489.97-1.53.255-.052 1.625 3.064 4.534 10.319 2.292 5.716 4.23 10.53 4.306 10.698.096.211-.358.304-1.485.304-.996 0-1.66-.118-1.715-.304-.624-2.092-2.69-7.261-3.003-7.514-.473-.382-6.04-.464-6.617-.098-.195.123-.933 1.937-1.64 4.03l-1.284 3.807-1.198.057-1.198.058zm9.685-8.157l1.185-.163-1.15-2.814a291.07 291.07 0 0 0-1.437-3.476c-.266-.61-.397-.392-1.67 2.779l-1.38 3.44.943.16c1.394.238 2.19.254 3.51.074zm9.34-.792V100.17h4.244c3.875 0 4.346.052 5.422.595 1.58.799 2.373 2.03 2.373 3.686 0 .71-.163 1.682-.362 2.16-.384.917-2.402 2.82-2.993 2.82-.731 0-.308.477.57.642 2.492.467 3.934 3.217 3.286 6.266-.241 1.135-.553 1.676-1.529 2.657-1.683 1.69-3.105 2.074-7.57 2.044l-3.44-.023v-10.424zm6.792 8.884c2.791-.776 4.1-5.413 2.095-7.419-.91-.91-2.293-1.301-4.608-1.303l-1.806-.002.19 4.3c.117 2.657.301 4.373.483 4.493.428.283 2.52.243 3.646-.07zm.042-10.672c2.662-1.112 3.352-5.01 1.164-6.571-.688-.49-1.279-.627-3.037-.702l-2.182-.093-.003 1.68c0 .925-.078 2.663-.172 3.864l-.17 2.183h1.768c.972 0 2.156-.163 2.63-.361zm35.762 1.811l.003-10.446h5.442c6.128 0 7.401.229 9.297 1.672.76.579 1.442 1.464 2.062 2.678.924 1.81.926 1.821.926 5.412 0 3.489-.026 3.653-.834 5.36-1.058 2.232-2.581 3.756-4.814 4.814l-1.76.834-5.162.061-5.162.061.003-10.446zm10.399 8.338c3.406-1.467 5.197-6.136 4.308-11.237-.556-3.196-1.97-5.005-4.48-5.735-1.072-.311-7.041-.46-7.31-.181-.251.26-.442 9.475-.275 13.266l.194 4.388.832.121c1.994.29 5.329-.018 6.73-.622zm9.976-8.36V100.17H292.612l-.155 4.366-.155 4.365h11.76l-.189-4.365-.188-4.366h2.87v20.864h-2.847l.192-5.273.193-5.272h-11.786l.137 5.265.137 5.265h-2.976zm18.642 9.86c.227-.582 3.832-9.116 4.77-11.288.282-.655 1-2.382 1.596-3.837 2.101-5.133 2.304-5.557 2.695-5.634.26-.05.557.356.868 1.19.609 1.634 7.094 17.898 7.64 19.165l.416.963-1.71.01c-1.334.008-1.711-.076-1.711-.38 0-.657-2.636-7.338-2.982-7.558-.18-.114-1.657-.209-3.283-.21-2.18-.004-3.055.092-3.326.363-.203.203-.935 2.039-1.628 4.08l-1.259 3.71h-1.155c-1.076 0-1.14-.039-.931-.573zm11.075-9.3c.11-.108-2.308-6.22-2.594-6.558-.095-.112-.776 1.317-1.514 3.175l-1.342 3.38.964.175c.922.168 4.275.04 4.486-.171zm8.251-.56v-10.424h4.31c3.947 0 4.407.05 5.474.595 1.476.754 2.145 1.673 2.315 3.18.24 2.133-1.031 4.472-2.837 5.22-1.02.422-1.007.686.042.896 1.158.231 2.586 1.382 3.027 2.438.55 1.315.472 3.893-.153 5.118-1.312 2.573-3.563 3.462-8.672 3.425l-3.506-.026zm7.297 8.653c.593-.27 1.329-.807 1.634-1.195 1.076-1.369 1.254-3.985.38-5.617-.507-.947-2.102-1.524-4.525-1.636l-2.225-.104.178 4.315c.122 2.974.28 4.38.505 4.523.597.379 2.956.212 4.053-.286zm-.343-10.444c1.444-.616 2.115-1.571 2.251-3.206.24-2.887-1.069-4.087-4.47-4.098l-1.746-.006-.17 2.182c-.094 1.201-.17 2.927-.172 3.837l-.003 1.654h1.729c.95 0 2.111-.164 2.58-.363zm8.789 1.791V100.17h2.91v20.849h-2.91zm-3.5-15.797l-1.619-1.14 1.633-1.782 1.634-1.781 1.587 1.068c.873.588 1.707 1.115 1.852 1.17.248.096-2.978 3.605-3.314 3.605-.085 0-.883-.513-1.773-1.14zM-33.451 92.92c-3.52-1.113-5.353-3.577-5.609-7.535-.291-4.505 2-10.475 5.547-14.454 1.139-1.278 2.725-2.512 3.229-2.512.106 0-.422.673-1.174 1.496-5.748 6.289-6.599 12.044-2.403 16.247 1.723 1.726 3.09 2.226 5.98 2.186 5.73-.08 10.437-2.96 10.437-6.386 0-.955-.481-1.382-2.667-2.367-3.186-1.434-3.522-2.425-1.916-5.65 1.891-3.8 5.674-6.734 9.082-7.043 1.399-.127 1.576-.076 2.706.787 4.728 3.61 16.15 5.476 31.425 5.135 16.229-.361 31.345-2.843 38.784-6.367l2.422-1.147.32-1.334c.225-.94.294-3.747.233-9.497l-.088-8.164 1.323-2.62c1.59-3.149 2.047-3.49 1.536-1.147-.336 1.545-.438 3.535-.722 14.183l-.109 4.055 1.465-2.14c1.827-2.672 4.666-5.328 6.79-6.354 1.89-.912 4.513-1.498 5.546-1.239.952.24 1.767 1.08 1.764 1.822-.008 1.813-3.162 6.154-6.712 9.24-8.917 7.75-22.61 12.666-40.91 14.686-3.496.385-6.476.481-14.95.479-16.646-.004-22.748-.85-28.592-3.961-3.012-1.604-4.168-1.913-5.505-1.472-.948.313-2.616 1.791-2.48 2.198.041.124.74.497 1.554.827 3.258 1.324 3.91 2.255 3.286 4.69-.542 2.116-1.424 3.773-3.19 5.99-4.272 5.36-11.905 8.79-16.402 7.368zM69.472 61.982c6.21-3.473 8.015-5.266 6.423-6.38-2.05-1.437-6.242 1.181-9.429 5.888-.56.828-1.213 1.883-1.45 2.344l-.43.839 1.252-.68c.689-.373 2.324-1.278 3.634-2.01zm153.01 30.423c-.827-.32-1.579-.657-1.67-.748-.09-.09.385-1.178 1.056-2.418l1.219-2.255 1.974.664 1.975.664-1.259 2.354c-.693 1.295-1.378 2.347-1.524 2.338-.145-.01-.942-.279-1.77-.6zm-108.077.087c-2.053-.42-4.386-1.963-5.366-3.549-1.82-2.946-.985-8.789 2.16-15.1 1.45-2.908 3.085-5.33 4.545-6.729 1.02-.977 1.67-.935.765.05-.799.868-3.324 4.842-4.244 6.679-1.932 3.855-2.452 7.726-1.353 10.064.713 1.518 2.292 2.873 4.18 3.587 2.803 1.061 6.897.293 9.672-1.816 1.833-1.393 2.602-2.59 2.417-3.765-.178-1.137-.942-1.783-3.085-2.61-2.751-1.063-3.303-2.844-1.807-5.838 1.836-3.675 6.333-7.004 9.485-7.022 1.347-.008 1.719.13 3.785 1.396 5.088 3.119 9.342 4.013 20.053 4.214 15.951.3 31.872-1.542 41.508-4.802 3.925-1.328 4.053-1.735 4.13-13.12.059-8.82.198-10.254 1.178-12.175.918-1.8 1.034-1.528.99 2.311a274.38 274.38 0 0 0 .024 7.086c.058 2.97-.262 6.63-.904 10.319l-.138.794.608-.792c4.398-5.731 9.02-9.206 12.246-9.206.795 0 1.62.145 1.832.321.637.528.738 1.696.268 3.085-1.802 5.324-9.777 11.783-17.877 14.478-6.482 2.157-20.786 4.808-31.183 5.78-4.684.437-17.073.433-20.505-.006-6.347-.814-10.687-1.927-14.769-3.788-1.994-.909-2.497-1.038-3.47-.892-2.075.31-4.773 2.555-3.966 3.298.134.124.899.437 1.7.696.85.276 1.825.84 2.344 1.359.865.862.887.938.787 2.697-.253 4.493-4.362 9.283-10.357 12.075-2.079.968-3.94 1.272-5.653.921zm92.65-29.21c5.899-2.84 8.554-5.823 5.982-6.72-1.581-.551-4.624 1.103-7.368 4.004-1.333 1.41-2.98 3.746-2.98 4.23 0 .409 1.332-.053 4.366-1.513zM137.668 91.61c-.91-.296-1.653-.614-1.653-.706 0-.092.63-1.01 1.401-2.04l1.402-1.873 1.818.966c1 .532 1.818 1.08 1.818 1.216 0 .137-.705.863-1.566 1.613l-1.566 1.364zm63.831-4.342c.146-.133 1.693-.75 3.44-1.372 9.669-3.442 13.458-5.898 11.52-7.468-.33-.266-.83-.484-1.11-.484-.759 0-1.81-1.18-1.817-2.039-.01-1.151 1.911-6.16 2.677-6.982 1.718-1.845 4.494-.929 4.9 1.619.244 1.52.494 1.786 1.134 1.207.847-.766 1.334-2.445 1.59-5.487.191-2.286.389-3.138 1.045-4.513.445-.933 1.072-1.927 1.394-2.21.495-.434.56-.445.422-.066-.333.916-.716 3.624-.978 6.921-.367 4.62-1.042 6.054-4.717 10.02-1.315 1.42-2.3 2.89-3.741 5.582-2.51 4.69-2.179 4.51-9.012 4.917-2.838.17-5.576.373-6.085.453-.568.088-.824.05-.662-.098zM68.546 85.371c-.891-.17-.842-.202 1.323-.88 8.475-2.653 11.25-3.967 12.436-5.888.8-1.295.696-2.109-.331-2.584a13.53 13.53 0 0 0-1.522-.59c-1.844-.539-2.039-1.951-.742-5.386 1.116-2.957 2.312-4.27 3.89-4.27 2.175 0 3.202 1.065 3.202 3.32 0 .648.092 1.178.205 1.178.488 0 2.24-1.732 2.77-2.738.53-1.011.58-1.509.615-6.258.023-3.047.175-5.755.37-6.614.385-1.681 1.9-5.122 2.39-5.424.364-.225.375-.484-.423 9.657-.674 8.564-1.582 11.198-5.094 14.777-1.733 1.766-2.33 2.631-3.848 5.582-3.13 6.082-3.577 6.366-9.95 6.323-2.4-.016-4.782-.108-5.291-.205zm191.823-.467c-3.157-.185-10.426-.938-14.95-1.548-4.9-.66-11.697-1.808-11.897-2.009-.063-.062.137-.97.442-2.017.489-1.675.623-1.89 1.111-1.785 2.198.476 11.55 1.563 18.249 2.122 10.4.868 25.67.93 33.9.139 14.678-1.412 25.467-4.73 32.594-10.021 2.31-1.715 5.587-5.11 5.76-5.967.061-.307.252-2.106.423-3.998.277-3.06.412-3.64 1.223-5.253.502-.997.968-1.757 1.036-1.689.068.068-.052 1.896-.267 4.062-.627 6.316-1.028 13.835-.851 15.936.309 3.66 1.657 5.333 4.299 5.332 1.462 0 2.346-.419 4.334-2.05 1.486-1.22 2.127-1.348 3.613-.728.522.219 1.113.397 1.313.397.613 0 2.368-1.772 3.545-3.578.614-.942 1.293-1.713 1.508-1.713.485 0-.095 1.043-2.243 4.035-2.051 2.858-4.298 4.96-5.303 4.96-.43 0-.935-.186-1.124-.414-.19-.228-.707-.602-1.15-.831-.787-.407-.82-.399-1.342.329-2.533 3.521-3.857 4.62-5.564 4.62-1.519 0-2.71-.863-3.652-2.647l-.767-1.453.111-5.747.112-5.746-2.268 2.184c-8.416 8.106-23.671 13.574-41.809 14.985-3.195.248-16.692.31-20.386.093zM99.328 61.011c.053-9.327.12-10.893.517-12.079.25-.75.689-1.642.974-1.984.516-.62.518-.587.527 9.178.009 10.546-.08 11.427-1.446 14.277l-.634 1.323zm133.122 8.93c.104-.328.284-4.287.4-8.798.211-8.18.358-9.668 1.204-12.171.509-1.505 1.382-3.307 1.603-3.307.081 0 .072 1.16-.02 2.58-.092 1.418-.269 5.556-.392 9.194-.207 6.126-.276 6.78-.942 8.863-.729 2.283-1.597 4.234-1.884 4.234-.087 0-.073-.268.031-.596zm41.032-2.272c-.391-.166.043-.358 1.821-.804 2.996-.751 4.116-1.226 4.116-1.747 0-.254-.319-.48-.817-.58-.49-.098-.926-.404-1.09-.766-.34-.744.141-1.486 2.26-3.49 1.723-1.63 2.608-1.794 3.712-.69.807.806.823.882.329 1.557-.363.496-.385.496-1.302.002l-.934-.503-1.079.715c-.593.392-1.08.887-1.08 1.098 0 .41.892 1.01 1.137.765.08-.08.394-.068.696.028.407.129.55.396.55 1.033 0 1.729-2.668 3.305-5.91 3.492-1.043.06-2.127.01-2.41-.11zm62.227-7.602c-.691-.36-1.257-.77-1.257-.912 0-.369 2.433-3.7 2.703-3.7.453 0 2.886 1.355 2.805 1.562-.144.367-2.723 3.705-2.862 3.705-.073 0-.698-.295-1.389-.655zM-17.323 57.24c-1.158-.58-2.163-1.108-2.234-1.174-.07-.065.759-.926 1.843-1.912l1.971-1.792 2.325 1.059c1.278.582 2.324 1.14 2.324 1.239 0 .1-.928.958-2.062 1.907l-2.062 1.726zm164.48-4.137c.241-.693.717-.937 5.181-2.653 2.704-1.04 4.949-1.857 4.989-1.816.04.04.012.389-.062.774-.123.639-.568.865-5.075 2.58-2.717 1.033-5.021 1.879-5.12 1.879-.099 0-.06-.344.086-.764zM4.516 52.56c0-.244.149-.637.33-.874.301-.39 9.065-3.905 9.738-3.905.283 0 .106 1.004-.242 1.367-.093.097-2.342 1.005-4.998 2.017-3.968 1.512-4.828 1.76-4.828 1.395zm-101.6-3.618c-6.584-.801-11.13-1.739-16.029-3.305-2.389-.763-3.357-1.198-3.574-1.604-.277-.518-.246-.545.458-.388l.756.17-.727-.407c-.906-.505-1.003-1.288-.133-1.067l.596.152-.596-.307c-.465-.24-.595-.535-.595-1.353 0-.896.066-1.017.463-.844 1.277.556 5.338 1.925 6.152 2.072.509.093-.444-.287-2.117-.844-3.56-1.186-4.763-1.768-4.763-2.306 0-.504.013-.502 1.794.245 6.002 2.517 14.037 3.898 22.68 3.898 10.499 0 19.826-1.684 27.593-4.98l2.192-.931.915.623c.503.342.915.831.916 1.086.002.49-.255.591-.678.264-.141-.109-.046 0 .212.241.442.415.652 1.28.31 1.28-.086 0-.507-.249-.935-.553l-.777-.554-2.862 1.073c-5.508 2.064-10.898 3.357-17.36 4.162-5 .624-13.881.63-18.36.013-1.802-.248-3.325-.403-3.383-.345-.149.148 3.156.621 6.926.992 3.885.381 12.503.165 16.8-.422 5.707-.78 13.176-2.76 16.802-4.453l1.323-.619.856.552c.567.365.858.764.86 1.178l.004.627-.86-.65c-.86-.65-.86-.65-1.919-.167-1.934.883-7.517 2.61-10.525 3.257-9.862 2.12-20.302 2.451-29.215.928-1.69-.29-3.12-.478-3.178-.42-.112.112 3.237.752 6.67 1.274 2.869.436 14.339.436 17.86 0 6.32-.784 15.209-3.01 18.337-4.594 1-.507 1.011-.507 1.896.04.794.49.89.676.89 1.727v1.177l-.943-.64-.943-.641-1.232.624c-3.18 1.61-9.31 3.306-15.36 4.247-2.672.415-14.94.766-17.197.492zm11.112-.898c6.26-.465 13.296-1.755 16.537-3.031 1.206-.476.868-.408-3.175.638-6.135 1.587-11.478 2.217-18.786 2.213-7.356-.004-12.602-.67-18.485-2.35-1.29-.369-2.396-.62-2.458-.557-.216.215 5.884 1.765 9.037 2.295 5.879.989 11.329 1.238 17.33.792zm-21.96-3.173c-.905-.29-1.6-.29-.926 0 .29.125.767.224 1.058.22.426-.006.4-.05-.132-.22zm-5.027-.265c-.218-.14-.576-.25-.794-.242-.262.01-.217.092.132.242.728.313 1.145.313.662 0zm3.368-.16c-.088-.087-.316-.097-.507-.02-.211.084-.149.147.16.16.278.011.435-.051.347-.14zm-4.956-.369c-.218-.14-.516-.256-.661-.256-.146 0-.086.115.132.256.218.141.516.257.662.257.145 0 .086-.116-.133-.257zm9.062.09a1.021 1.021 0 0 0-.661 0c-.182.073-.033.133.33.133.364 0 .513-.06.331-.133zm22.027-.361c6.328-.71 12.624-2.186 17.44-4.09 1.693-.67 3.224-1.136 3.402-1.036.247.14.252.104.02-.148-.243-.262-.846-.127-2.911.651-8.258 3.112-15.593 4.427-27.873 4.997-1.091.05.159.047 2.778-.008 2.62-.055 5.834-.22 7.144-.367zm-29.215-.276c-.79-.28-1.481-.463-1.538-.405-.135.134 2.055.91 2.575.912.218 0-.249-.227-1.037-.507zm5.992.387c-.088-.087-.316-.097-.507-.02-.211.084-.148.147.16.16.279.01.435-.052.347-.14zm9.398-.031a8.421 8.421 0 0 0-1.72 0c-.472.059-.085.107.86.107.946 0 1.333-.048.86-.107zm-10.72-.233c-.089-.088-.317-.097-.508-.021-.21.084-.148.147.16.16.279.011.435-.051.347-.14zm7.545-.027a3.77 3.77 0 0 0-1.19 0c-.328.063-.06.115.595.115s.923-.052.595-.115zm-2.249-.26a2.173 2.173 0 0 0-.926 0c-.254.066-.046.12.463.12.51 0 .718-.054.463-.12zm-1.714-.256c-.18-.073-.537-.077-.794-.01-.258.067-.111.127.326.132.436.005.647-.05.468-.122zm-10.39-.356c-.219-.14-.516-.256-.662-.256-.145 0-.086.115.133.256.218.141.516.257.661.257.146 0 .086-.116-.132-.257zm8.797.09a1.021 1.021 0 0 0-.661 0c-.182.073-.033.133.33.133.364 0 .513-.06.331-.133zm-1.323-.265a1.021 1.021 0 0 0-.661 0c-.182.074-.033.134.33.134.364 0 .513-.06.331-.134zm-1.196-.25c-.088-.087-.316-.096-.507-.02-.211.084-.148.147.16.16.279.011.435-.051.347-.14zm319.292 4.332c-.583-.15-1.104-.312-1.16-.361-.056-.049.396-.926 1.004-1.95.685-1.153 1.277-1.859 1.556-1.856.901.008 2.831.744 2.759 1.052-.17.722-2.311 3.44-2.69 3.414-.226-.015-.887-.15-1.47-.3z" id="path56" fill="#fff" stroke-width=".265"/></g></svg>