<svg xmlns="http://www.w3.org/2000/svg" width="1558.004" height="488.956" viewBox="0 0 412.222 129.37"><path d="M206.276 127.98c.449-2.895.117-3.82-1.635-4.552-1.243-.52-2.79-2-3.329-3.184-.296-.652-.484-1.69-.487-2.693-.01-2.437.969-4.37 2.888-5.71.355-.248.593-.489.53-.535-.065-.046-1.07-.351-2.234-.678-1.164-.328-3.128-1-4.365-1.494-7.258-2.899-10.638-2.938-13.023-.152-.707.825-1.116 1.093-1.573 1.028l-.618-.087V88.227l.802-.079c.752-.074.822 0 1.139 1.183.466 1.742 2.136 5.236 3.54 7.404 3.244 5.015 8.796 8.946 15.063 10.665 3.539.971 8.777 1.143 12.164.4 1.442-.318 4.213-1.676 5.959-2.921 3.848-2.746 5.905-6.667 5.912-11.266.01-5.712-3.743-10.97-10.632-14.902-1.411-.805-2.632-1.464-2.712-1.464-.273 0-.15 16.246.13 17.256.43 1.546 1.404 2.5 3.041 2.976 1.332.387 1.445.481 1.445 1.206v.787H196.85v-.773c0-.698.134-.816 1.39-1.224.763-.25 1.609-.645 1.878-.881 1.176-1.027 1.19-1.19 1.252-14.023l.059-12.236-4.076-2.256c-2.241-1.242-4.82-2.79-5.73-3.44-6.641-4.737-9.751-9.38-10.377-15.49-1.005-9.807 5.01-18.686 14.81-21.863 1.355-.439 4.498-1.093 5.292-1.101.157-.002.043-3.851-.138-4.679-.246-1.119-1.438-2.185-2.928-2.618-1.312-.382-1.432-.481-1.432-1.191v-.775H218.281v.775c0 .707-.12.81-1.396 1.18-1.369.398-2.504 1.312-2.997 2.41-.13.291-.296 8.82-.37 18.951l-.131 18.422-5.6-3.09c-3.078-1.7-5.79-3.249-6.024-3.444-.38-.314-.425-1.522-.415-10.966.006-5.837.01-10.862.006-11.168-.005-.514-.1-.541-1.262-.357-4.391.696-8.335 3.29-10.136 6.67-.738 1.385-.898 2-.994 3.813-.216 4.13 1.404 7.424 5.13 10.43 3.367 2.717 4.709 3.515 19.427 11.555 3.857 2.107 8.321 4.698 9.922 5.76 9.615 6.371 14.11 15.695 12.15 25.192-1.294 6.26-6.175 12.218-12.679 15.474-3.173 1.589-8.3 3.113-10.468 3.113-.427 0-.777.043-.777.096 0 .052.398.517.884 1.032 1.295 1.374 1.85 2.729 1.874 4.572.024 1.903-.405 2.83-3.378 7.292-2.538 3.809-3.377 4.736-4.285 4.736-.696 0-.7-.01-.485-1.39zM34.138 78.427c-3.058-.855-5.175-2.565-6.49-5.24-1.25-2.544-1.476-4.585-1.433-12.923l.036-6.797 2.866-.082 2.865-.082.083 8.202.082 8.202.743 1.34c.92 1.66 2.404 2.67 4.262 2.902 2.767.346 5.05-.828 6.133-3.153.62-1.331.63-1.484.633-9.34l.003-7.988 2.93-.082 2.929-.083-.093 8.731c-.089 8.33-.12 8.8-.69 10.228-1.114 2.79-3.21 4.809-6.06 5.836-2.041.736-6.72.91-8.8.329zm352.323-.011c-2.13-.516-4.625-1.75-5.995-2.966l-1.144-1.015 2.073-1.617 2.073-1.616.828.63c.455.348 1.537.962 2.404 1.364 1.409.655 1.871.732 4.354.729 3.776-.005 5.027-.681 5.027-2.716 0-1.624-1.374-2.313-7.239-3.63-5.54-1.243-7.807-2.976-8.22-6.282-.516-4.129 2.396-7.234 7.635-8.144 4.261-.74 9.008.387 12.13 2.877l.997.796-2.018 1.728-2.017 1.729-1.362-.9c-1.387-.916-3.869-1.716-5.32-1.713-2.14.004-4.11 1.111-4.11 2.311 0 1.59.785 2.008 6.065 3.22 4.33.993 6.307 1.859 7.7 3.369 1.346 1.461 1.622 2.188 1.639 4.328.032 3.985-2.347 6.59-6.9 7.555-2.222.471-6.578.452-8.6-.037zM8.467 68.392V58.197H0V53.435h22.49v4.748l-4.117.073-4.117.073-.05 10.054-.05 10.054-2.845.075-2.844.076zm46.566-2.456V53.302l8.533.14c7.666.128 8.665.195 9.835.662 1.706.682 3.942 2.736 4.527 4.16.614 1.492.61 4.694-.008 6.219-.527 1.301-2.644 3.325-3.985 3.81-.5.18-.91.404-.91.496 0 .093 1.14 2.166 2.534 4.609 1.393 2.442 2.597 4.605 2.674 4.806.115.3-.452.364-3.13.357l-3.269-.009-2.606-4.622-2.607-4.621H60.854v9.26h-5.82l-.001-12.634zm14.968-1.422c1.64-.413 2.495-1.476 2.495-3.104 0-.721-.181-1.502-.432-1.86-.8-1.141-1.85-1.353-6.703-1.353h-4.507v6.614h3.984c2.191 0 4.515-.133 5.163-.297zM83.08 66.02v-12.55l2.779-.084 2.779-.083-.001 5.547v5.548l3.498-3.696c1.924-2.032 4.335-4.528 5.358-5.547l1.86-1.852 3.237.132 3.237.132-3.561 3.572c-1.959 1.965-3.804 3.896-4.1 4.292l-.539.72 1.678 2.588c2.73 4.21 6.898 10.675 7.942 12.318l.972 1.529-3.472-.074-3.472-.074-3.683-5.688a2055.835 2055.835 0 0 1-3.932-6.086c-.2-.318-.72.082-2.636 2.028l-2.388 2.424v7.455H83.08zm28.575-.074l-.001-12.643 2.797.132 2.796.133.006 12.435.006 12.435-2.802.075-2.802.076V65.945zm19.315 7.577v-5.047l-1.138-1.501c-2.098-2.77-9.492-13.24-9.469-13.41.013-.092 1.422-.17 3.132-.173l3.11-.005 1.384 1.943c.761 1.068 2.368 3.457 3.571 5.309 1.204 1.852 2.254 3.37 2.334 3.373.08.003.852-1.095 1.714-2.44a204.203 204.203 0 0 1 3.57-5.325l2.002-2.877 3.024.048c1.663.026 3.067.091 3.12.144.053.053-1.602 2.457-3.678 5.342-2.076 2.886-4.468 6.213-5.315 7.394l-1.54 2.147V78.57h-5.821zm19.05-7.586V53.302l10.054.072 10.054.073v4.75h-14.573l.076 2.182.077 2.183 4.167.073 4.168.073V67.457H155.575v6.086h15.081V78.57H150.018zm94.985 0V53.302l8.533.132c8.098.126 8.597.162 9.801.718 2.074.958 2.862 1.664 3.562 3.192.548 1.197.637 1.711.521 2.994-.161 1.776-.914 3.186-2.063 3.865-.92.543-.969.776-.216 1.014.307.098 1.014.59 1.571 1.093 1.96 1.77 2.338 4.95.922 7.745-.773 1.525-1.905 2.53-3.794 3.369-2.094.93-4.237 1.135-11.891 1.14l-6.946.005V65.936zm16.017 7.298c1.514-.83 2.04-3.11 1.062-4.603-.805-1.228-1.81-1.438-6.884-1.438h-4.639v6.656l4.83-.087c3.887-.07 4.984-.173 5.63-.528zm-.58-10.833c1.304-.594 1.605-2.418.594-3.594l-.638-.743-4.918-.082-4.919-.083v4.796h4.618c2.82 0 4.869-.115 5.263-.294zm9.17 16.07c0-.064.702-1.705 1.56-3.647 5.443-12.314 7.742-17.535 8.52-19.347l.885-2.059 2.888.074 2.888.075 5.387 12.303c2.962 6.766 5.387 12.396 5.387 12.51 0 .113-1.398.173-3.108.132l-3.109-.075-1.114-2.778-1.114-2.778h-10.707l-1.112 2.778-1.112 2.778-3.07.075c-1.688.041-3.07.022-3.07-.041zm16.933-10.439c0-.12-.634-1.817-1.409-3.77a958.89 958.89 0 0 1-1.611-4.08c-.159-.415-.45.102-1.34 2.38-.626 1.601-1.388 3.536-1.693 4.3l-.554 1.389h3.303c1.817 0 3.304-.099 3.304-.219zm13.229-2.03V53.434l2.844.01 2.844.01.864 1.115c.691.892 4.749 6.18 10.83 14.115l.58.757.015-7.986.015-7.987 2.778-.083 2.78-.083V78.57l-2.58-.01-2.58-.01-5.821-7.554c-3.202-4.154-5.997-7.84-6.213-8.192-.215-.352-.464-.64-.551-.64-.088 0-.104 3.692-.035 8.203l.124 8.202H299.774V66.001zm29.104.016v-12.55l2.906-.083 2.906-.083.07 5.447.071 5.447 5.027-5.37 5.027-5.371 3.374-.01c1.855-.006 3.373.071 3.373.172 0 .1-1.756 1.95-3.902 4.108-2.147 2.16-3.903 4.109-3.903 4.333 0 .395 8.597 14.086 8.864 14.115.072.008.983-1.92 2.023-4.284l5.003-11.377 3.112-7.078h2.826c2.824 0 2.826 0 3.165.728.758 1.628 10.594 24.178 10.594 24.288 0 .066-1.4.12-3.11.119h-3.108l-1.159-2.916-1.159-2.915-5.321.072-5.322.071-1.161 2.844-1.162 2.845h-5.36c-4.298 0-5.389-.072-5.5-.363-.077-.2-1.299-2.135-2.715-4.3a1148.295 1148.295 0 0 1-3.749-5.76l-1.172-1.824-2.358 2.347-2.359 2.348v7.552h-5.82V66.018zm39.953 2.034c0-.109-.641-1.805-1.424-3.77-.784-1.964-1.51-3.81-1.616-4.1l-.192-.53-.228.53c-1.183 2.745-3.067 7.804-2.95 7.921.225.225 6.41.176 6.41-.05zm37.835-2.033v-12.55l2.778-.084 2.779-.083V78.57h-5.556V66.019zM32.133 51.172c-2.188-1.08-2.25-4.242-.108-5.507 1.478-.873 3.595-.315 4.35 1.146 1.474 2.85-1.374 5.776-4.242 4.36zm8.939.085c-1.051-.506-1.732-1.929-1.578-3.295.175-1.559 1.04-2.452 2.572-2.657 3.202-.43 4.907 3.222 2.53 5.417-1 .923-2.308 1.122-3.524.535zm72.008.066c-2.11-.853-2.302-4.325-.308-5.576 2.508-1.574 5.81 1.045 4.699 3.728-.722 1.743-2.646 2.553-4.391 1.848zm113.933-4.064c0-1.085-1.044-4.748-1.836-6.44-1.575-3.367-4.828-7.248-7.389-8.816-1.064-.651-1.08-.685-1.087-2.211-.005-1.133.082-1.516.323-1.423 3.603 1.377 5.437 1.834 6.804 1.697 1.323-.132 1.572-.264 2.566-1.354.765-.838 1.31-1.207 1.786-1.207h.685V47.878h-.926c-.795 0-.926-.088-.926-.62zm-21.3-33.603c-3.316-1.095-5.14-3.412-5.153-6.543-.008-2.043.602-3.63 1.917-4.99C203.985.565 205.304 0 207.433 0c3.751 0 6.695 2.573 7.064 6.174.178 1.74-.235 3.234-1.337 4.838-1.548 2.252-4.963 3.465-7.446 2.644z" fill="#9a1648" stroke-width=".265"/></svg>