<svg id="Слой_1" data-name="Слой 1" xmlns="http://www.w3.org/2000/svg" viewBox="0 0 78.33 11.58"><defs><style>.cls-1{fill:#9a1648}</style></defs><path class="cls-1" d="M8.47 11.58l-.92-.21-.64-.67h-.07l-.68-.1-.54-.37-.37-.49-.17-.62-.15-.22-.77.19-.9-.25-.64-.65h-.28l-.65-.15-.58-.34-.38-.54-.15-.62.11-.53-.5-.56L0 4.7l.09-.48.21-.42.71-.6.49-.69.37-.26.42-.1.26-.54.35-.39.53-.26.58-.1h.07l.64-.6.47-.17.47-.09.99.3.47-.09.79.2.54.6.54-.6.34-.15.43-.05.43.09.51-.21.54-.09.92.26.69.6h.06l.58.1.49.26.39.39.19.54.45.1.41.26.45.69.73.6.28.9-.17.75-.52.56.09.53-.15.62-.36.54-.56.34-.65.15h-.3l-.64.65-.88.25-.79-.19-.17.22-.15.62-.37.49-.56.37-.64.1h-.09l-.6.67-.9.21z"/><path class="cls-1" d="M12.87 1.16h-.22L12.1.51 11.24.3l-.54.06-.43.26-.51-.11-.45.11-.37.24-.25.36-.11.39v.96l1.18-.96L11.41 3l1.03-.6.9-.25.69-.07.23.04-.53-.68-.86-.28zM4.01 1.16h.26L4.8.51l.39-.19.47-.02.5.06.47.26.49-.11.47.11.35.24.21.36.15.39v.96l-1.18-.96L5.47 3l-1.03-.6-.9-.25-.92-.03.21-.4.32-.28.39-.22.47-.06z"/><path class="cls-1" d="M2.79 7.83l-.45.09-.54-.11-.47-.3-.32-.43-.11-.54.17-.64-.53-.49-.22-.71.11-.41.15-.34.68-.52.22-.43.32-.28.39-.21.43-.07.81.03.84.21.92.54-3.6 2.98H3.3l3.82-3.15.47.38L4.18 6.2h1.33l-.49.66-.32.63-.09.43.19.7-.62.15-.86-.25L3 8.24l-.21-.41zM14.09 7.83l.47.09.54-.11.45-.3.32-.43.11-.54-.17-.64.53-.54.22-.66-.26-.75-.28-.32-.38-.2-.22-.43-.32-.28-.84-.28-.21-.04-.6.07-.8.19-.96.56 3.62 2.98H13.6L9.76 3.05l-.45.38 3.34 2.77h-1.28l.51.66.35.63.08.43-.19.7.62.15.82-.25.53-.69z"/><path class="cls-1" d="M8.47 11.35v-1.12l-.53-.28-.22-.75V5.73l-.28-.18-.17-.25 1.18-.6h.02v-.58L5.9 6.22l-.56.69-.41.7-.02.33.13.62.37.43v.1l.1.5.28.43.47.27.58.11h.24l.21.37.32.28.86.3z"/><path class="cls-1" d="M8.47 11.35l.8-.3.53-.65h.26l.54-.11.45-.27.32-.43.1-.5v-.1l.37-.43.11-.62v-.33l-.39-.7-.58-.69-2.51-2.1v.58l.73.53.02.13-.06.19v.5l.9.15.71.32.28.22.15.34v.53l-.28.33-.41.08-.28-.11-.64-.83-.39-.32v3.53l-.73-.06v1.12zM43.63 8.19L42.94 10H42l1.18-2.68zM18.7.9v9h.82V2.79l5.94 7.08h.79V.9h-.75v6l-4.82-6zm18.88 8.94L41.22.9h2.08l3.93 9H45l-3.35-7.65-3.06 7.59zM52 .9h2v6.46l.06.37v.13l.13.36.11.17v.2l.15.1.07.13.15.11L55 9l.11.08.17.18.11.06h.1l.33.11h.36l.15.06h.45l.19-.06h.39l.22-.07.17-.06.25-.18v-.07h.08l.18-.17.14-.11.22-.37.15-.4v-.32l.07-.37V.9h.68v7.04l-.06.15-.09.17v.19l-.19.34-.13.2-.41.38-.11.07h-.1l-.07.11-.1.06-.15.09h-.13l-.15.08h-.15l-.22.08-.17.07h-.22l-.25.1h-1.55l-.27.03h-.3l-.22-.06-.24-.08h-.21l-.22-.08-.53-.32-.15-.07-.26-.25-.06-.2-.11-.13-.15-.15-.22-.43-.06-.17V7.71l-.09-.21v-.32l-.05-.1V6.8zm21 6.26h-2l2-4.5v-.19l2 4.69zM65.07 6l-.15.07-.43.11H63.66V6l-.08-.08V1.61h.07v-.07H64.76l.28.15h.11l.13.08h.15l.15.09.11.06.17.11.11.11v.1l.13.11v.11l.21.32v.15l.11.11v.13l.06.21v1.18l-.11.06v.15l-.21.33v.1l-.16.14v.11l-.11.1-.17.07-.11.11-.15.06-.28.15zm0-5.12h-3.68v9h2V7h.07v-.09h.06v-.06H63.99l.41.4V7.42l.1.17 1.51 2.32h3.28l.86-1.93h4.54l.88 1.93h2.19L74.64.9h-2l-3.8 8.64-1.77-2.89v-.07l.11-.11h.06l.22-.17.19-.1.17-.2.18-.1.28-.28.06-.11.15-.15.15-.28.07-.17V4.7l.06-.22v-.8l-.07-.58-.06-.24-.08-.21-.11-.26-.13-.21-.07-.18-.11-.11-.14-.17-.34-.22-.15-.11-.17-.1-.15-.07h-.15l-.11-.07h-.13L66.64 1H66.21L66 .9h-.54zM32.6 9.54l-.28-.06h-.25l-.28-.11-.26-.13-.24-.24-.29-.21-.22-.23-.17-.26-.18-.3-.1-.32-.19-.37-.07-.31-.07-.37-.1-.43v-.43l-.05-.41.05-.45V4.5l.1-.38.11-.39.07-.32.19-.36.1-.37.22-.28.17-.28.14-.21.49-.37.26-.15.28-.13h.83l.28.07.26.1.28.15.25.18.22.19.21.21.35.56.21.37.11.36.1.32.11.39v.38l.06.41v.88l-.06.41v.43L35 7.7l-.25.3-.17.28-.18.26-.4.51-.25.15-.28.13-.26.11h-.28zm0-8.85h-.45l-.51.06-.93.3-.47.17-.34.22-.41.28-.34.3-.32.34-.3.36-.28.43-.17.39-.3.94-.07.43v.97l.07.45.3.94.17.39.58.79.32.32.34.32.41.24.34.26 1 .36.45.07.51.1h1l.49-.1.48-.07.43-.19.47-.17.77-.5.36-.32.33-.32.3-.45.25-.38.22-.39.11-.47.17-.43.06-1v-.88L37.41 4l-.11-.47-.22-.39-.25-.43-.65-.71-.36-.3-.39-.28-.38-.22-.47-.17-.43-.13-.48-.15-.49-.06h-.54zm12.23 2.42L45.77.9h2.06l3.75 9h-2.16l-3.26-7.65-.75 1.87z"/></svg>