<svg xmlns="http://www.w3.org/2000/svg" width="1771.73" height="299.007" viewBox="0 0 468.77 79.112"><path d="M120.901 78.693c-1.739-.723-1.838-1.158-1.838-8.024v-6.11h-.927c-.646 0-.926-.12-.926-.398 0-.277.28-.396.926-.396h.927V60.06h4.498v3.705h1.587c1.235 0 1.587.088 1.587.396 0 .31-.352.397-1.587.397h-1.588v6.218c0 5.865.03 6.248.53 6.747.66.66.924.663 1.57.017.625-.625 1.072-2.147 1.074-3.655 0-.619.12-1.125.266-1.125.408 0 .315 3.337-.122 4.383-.706 1.69-3.745 2.478-5.977 1.55zm13.703.059c-3.475-.979-5.481-4.137-5.142-8.094.38-4.43 3.094-7.158 7.123-7.158 3.697 0 5.849 1.889 6.217 5.458l.147 1.421h-8.276v1.84c0 4.147 1.03 6.099 3.22 6.097 2.168-.002 3.727-1.663 4.097-4.364.11-.801.291-1.192.554-1.192.316 0 .356.241.206 1.257-.274 1.851-1.314 3.59-2.571 4.296-1.314.738-3.813.935-5.575.439zm3.244-11.134c0-2.273-.28-3.21-1.033-3.449-1.296-.41-2.142 1.2-2.142 4.078v1.338h3.175zm39.91 11.25c-1.39-.45-2.36-1.22-2.874-2.283-.647-1.336-.651-2.063-.02-3.453.631-1.39 1.658-2.008 4.788-2.887 1.383-.387 2.674-.838 2.87-1 .26-.216.33-.862.261-2.383-.076-1.686-.192-2.158-.605-2.46-1.368-1-3.129.308-4.137 3.073-.483 1.324-.678 1.581-1.202 1.581-.612 0-.626-.055-.626-2.352v-2.352l1.692-.458c2.44-.66 6.54-.48 7.877.346 1.615.997 1.808 1.878 1.808 8.261v5.551h.661c.364 0 .662.12.662.265 0 .16-1.103.264-2.779.264h-2.778l-.01-.992-.01-.992-.376.69c-.206.379-.688.895-1.071 1.146-.803.526-3.102.768-4.13.435zm4.046-1.08c.616 0 1.023-1.894 1.023-4.755 0-1.605-.09-2.917-.198-2.914-.11.002-.675.274-1.257.603-1.246.704-1.683 1.713-1.705 3.94-.022 2.22.62 3.589 1.528 3.255.194-.071.468-.13.609-.13zm12.224 1.154c-.9-.2-1.871-1.258-2.182-2.379-.16-.578-.285-3.415-.286-6.515l-.001-5.49h-.794c-.53 0-.794-.132-.794-.397 0-.264.265-.396.794-.396h.794V60.06h4.762v3.705h1.588c1.235 0 1.587.088 1.587.396 0 .31-.352.397-1.587.397h-1.588v6.331c0 5.46.059 6.39.425 6.756.477.477 1.37.33 1.875-.31.367-.466.875-2.667.875-3.794 0-.43.12-.78.265-.78.425 0 .305 3.062-.165 4.238-.272.678-.726 1.226-1.234 1.49-.82.423-3.298.682-4.334.453zm21.74-.063c-2.055-.541-3.717-2.013-4.667-4.134-.81-1.808-.837-5.279-.055-7.012 1.287-2.853 3.425-4.228 6.574-4.228 3.12 0 5.303 1.366 6.496 4.066 1.732 3.917.434 8.681-2.875 10.55-1.486.84-3.894 1.173-5.473.758zm3.235-1.278c.411-.628.469-1.4.469-6.295 0-4.836-.06-5.673-.456-6.276-.971-1.483-2.649-1.05-3.037.783-.116.547-.208 3.197-.204 5.889.006 4.147.078 5.026.47 5.755.384.714.617.86 1.375.86.701 0 1.023-.167 1.383-.716zm27.533 1.248c-1.907-.575-3.12-2.118-3.12-3.972 0-2.279 1.141-3.398 4.474-4.389 1.25-.372 2.673-.85 3.162-1.063l.888-.387-.1-2.004c-.087-1.713-.192-2.077-.72-2.504-.34-.276-.845-.5-1.122-.5-.866 0-2.316 1.618-2.961 3.306-.458 1.197-.75 1.609-1.188 1.672-.56.082-.58.004-.58-2.302v-2.387l.992-.308c.546-.17 2.219-.367 3.718-.44 4.115-.2 5.809.625 6.38 3.104.15.655.277 3.483.28 6.284l.006 5.093h.662c.364 0 .661.12.661.265 0 .16-1.102.264-2.778.264h-2.778v-.794c0-.974-.164-.993-.866-.1-.983 1.25-3.094 1.74-5.01 1.162zm4.273-1.26c.314-.255.682-.94.817-1.521.24-1.042.362-5.953.147-5.953-.06 0-.64.227-1.289.505-1.455.623-1.776 1.4-1.776 4.297 0 1.724.09 2.167.53 2.606.647.648.843.656 1.57.066zm30.708 1.35c-.364-.072-1.465-.498-2.448-.945l-1.786-.814v-3.004c0-2.938.013-3.003.596-3.003.501 0 .671.26 1.08 1.65 1.27 4.32 2.351 5.491 5.071 5.492 1.92.001 3.197-.577 4.03-1.823 1.382-2.07.172-3.847-3.524-5.177-5.74-2.064-7.249-3.487-7.251-6.833-.003-2.095.54-3.384 1.94-4.613 1.567-1.376 2.94-1.739 6.048-1.599 1.5.068 3.202.29 3.784.495l1.059.37.075 2.844c.07 2.645.04 2.844-.428 2.844-.388 0-.694-.506-1.334-2.201-.514-1.361-1.14-2.498-1.64-2.977-.732-.7-.983-.775-2.578-.774-2.2.002-3.479.652-3.917 1.988-.623 1.9.304 2.957 3.692 4.216 5.69 2.114 7.213 3.363 7.501 6.155.316 3.062-1.279 5.94-3.922 7.077-1.376.592-4.576.927-6.048.633zm17.166-.178c-3.308-1.238-4.869-3.634-4.856-7.456.008-2.605.725-4.405 2.353-5.906 1.646-1.517 3.09-1.979 5.755-1.84 1.212.062 2.531.25 2.931.418.726.303.728.31.728 2.975 0 2.29-.06 2.66-.417 2.587-.23-.048-.766-.925-1.198-1.962-.836-2.006-2.103-3.548-2.915-3.548-.735 0-1.497.892-1.74 2.036-.35 1.654-.256 9.082.129 10.17.455 1.285 1.159 1.87 2.25 1.87 1.922 0 3.105-1.126 3.724-3.544.474-1.852 1.11-2.098.868-.336-.226 1.648-1.246 3.365-2.435 4.1-1.18.73-3.803.95-5.177.436zm31.65.102c-2.096-.51-4.018-2.315-4.749-4.46-.468-1.373-.54-4.476-.138-5.923.835-3.005 3.443-4.981 6.57-4.979 2.683.002 3.679.38 5.249 1.99 1.746 1.79 2.315 3.507 2.138 6.453-.303 5.053-4.279 8.086-9.07 6.919zm3.234-1.261c.4-.609.482-1.473.555-5.786.093-5.457-.128-7.05-1.045-7.54-.856-.458-1.809-.073-2.198.887-.864 2.13-.683 11.597.24 12.618.71.782 1.873.697 2.448-.18zm12.959 1.143c-2.015-.751-3.01-1.64-3.935-3.521-.794-1.613-.88-2.015-.872-4.046.014-3.477 1.334-5.835 3.948-7.052 2.774-1.292 6.682-.59 8.464 1.519 2.383 2.82 2.577 7.539.438 10.648-1.546 2.247-5.423 3.429-8.043 2.452zm3.78-1.354c.315-.626.4-1.884.4-5.954 0-2.837-.092-5.485-.203-5.883-.255-.91-1.305-1.628-2.04-1.394-1.218.386-1.445 1.255-1.55 5.935-.098 4.365.18 7.139.79 7.874.19.229.68.343 1.258.295.747-.063 1.03-.247 1.345-.873zm-259.554.926c0-.146.357-.265.794-.265h.794V59.267h-.794c-.53 0-.794-.133-.794-.397 0-.336.647-.397 4.233-.397 3.587 0 4.234.06 4.234.397 0 .264-.265.397-.794.397h-.794v18.785h.794c.437 0 .794.12.794.265 0 .165-1.588.264-4.234.264-2.645 0-4.233-.099-4.233-.264zm10.319.018c0-.135.268-.284.595-.33l.595-.085.071-6.681.07-6.68h-.665c-.416 0-.666-.15-.666-.398 0-.327.485-.396 2.778-.396h2.778v1.955l.86-.814c1.216-1.15 1.828-1.406 3.37-1.406 1.667 0 2.76.537 3.372 1.658.395.722.489 1.785.6 6.809.132 5.926.135 5.953.728 6.037.327.047.595.196.595.331 0 .14-1.494.246-3.44.246-3.123 0-4.294-.244-2.91-.606.51-.133.53-.359.525-5.917-.004-6.03-.159-7-1.15-7.19-.77-.149-1.7.955-2.006 2.381-.153.717-.28 3.393-.28 5.946 0 4.42.026 4.649.53 4.78 1.384.362.213.606-2.91.606-1.946 0-3.44-.107-3.44-.246zm43.92-.018c0-.146.298-.265.662-.265h.662V64.558h-.662c-.411 0-.661-.15-.661-.397 0-.327.485-.396 2.778-.396h2.778v1.058c0 1.111.378 1.422.658.54.09-.284.524-.82.964-1.19.66-.555 1.074-.673 2.367-.673h1.567v3.043c0 2.451-.073 3.042-.375 3.042-.22 0-.563-.577-.826-1.389-.959-2.961-1.504-3.643-2.488-3.117-1.132.606-1.338 1.762-1.338 7.523v5.45h.662c.363 0 .661.12.661.265 0 .163-1.411.264-3.704.264s-3.704-.1-3.704-.264zm12.7.018c0-.135.269-.284.596-.33l.595-.085.071-6.681.07-6.68h-.665c-.416 0-.666-.15-.666-.398 0-.327.485-.396 2.778-.396h2.778v.926c0 1.101.147 1.146.845.259 1.607-2.043 5.668-1.93 6.877.19.247.433.386 2.365.48 6.694l.132 6.086.728.083c.4.047.728.195.728.331 0 .14-1.487.247-3.44.247-3.115 0-4.129-.208-3.043-.625.61-.234.588-11.685-.025-12.56-.891-1.272-2.398-.048-2.777 2.255-.115.7-.216 3.278-.225 5.73-.015 4.24.01 4.463.514 4.594 1.384.362.213.606-2.91.606-1.946 0-3.44-.107-3.44-.246zm43.657-.018c0-.146.298-.265.661-.265h.662V64.558h-.662c-.411 0-.661-.15-.661-.397 0-.33.514-.396 3.043-.396h3.042V78.052h.662c.364 0 .661.12.661.265 0 .163-1.41.264-3.704.264-2.293 0-3.704-.1-3.704-.264zm25.135.017c0-.136.328-.284.728-.33l.728-.084.07-6.68.07-6.682h-.797c-.534 0-.799-.131-.799-.397 0-.328.5-.396 2.91-.396h2.911v2.157l.693-.824c.966-1.148 1.967-1.598 3.553-1.598 1.59 0 2.618.522 3.325 1.69.443.73.508 1.505.583 6.843l.084 6.02h.644c.354 0 .643.118.643.264 0 .162-1.323.264-3.44.264-2.116 0-3.439-.102-3.439-.264 0-.146.179-.265.397-.265.342 0 .397-.878.397-6.318 0-6.869-.06-7.153-1.447-6.804-1.357.34-1.588 1.352-1.681 7.368-.075 4.8-.033 5.511.33 5.651 1.106.424.11.632-3.023.632-1.954 0-3.44-.106-3.44-.247zm32.544 0c0-.136.328-.284.728-.33l.727-.084.07-9.327.07-9.326h-.798c-.532 0-.797-.132-.797-.397 0-.33.514-.397 3.04-.397h3.039l.07 9.723.069 9.724.595.084c.327.047.595.196.595.331 0 .14-1.595.246-3.704.246-2.117 0-3.704-.106-3.704-.247zm48.948 0c0-.136.327-.284.728-.33l.727-.084.07-9.327.07-9.326h-.798c-.532 0-.797-.132-.797-.397 0-.33.514-.397 3.043-.397h3.042v6.979l.728-.68c1.09-1.016 1.744-1.272 3.249-1.272 1.596 0 2.622.521 3.33 1.69.442.73.508 1.505.583 6.843l.084 6.02h.643c.354 0 .644.118.644.264 0 .162-1.323.264-3.44.264s-3.44-.102-3.44-.264c0-.146.18-.265.397-.265.342 0 .397-.876.397-6.297 0-6.472-.07-6.932-1.065-6.932-.641 0-1.492 1.052-1.818 2.249-.16.583-.29 3.232-.29 5.895 0 4.057.062 4.862.395 4.99 1.086.416.072.624-3.043.624-1.953 0-3.44-.106-3.44-.247zm49.742-.017c0-.146.297-.265.661-.265h.662V59.267h-.662c-.411 0-.661-.15-.661-.397 0-.33.514-.397 3.042-.397h3.043v19.579h.662c.363 0 .661.12.661.265 0 .163-1.411.264-3.704.264s-3.704-.1-3.704-.264zM204.105 62.589c-1.486-.635-1.82-2.672-.634-3.858.774-.774 2.478-.708 3.313.127 1.808 1.808-.302 4.747-2.679 3.731zM69.982 51.611c-2.84-.458-4.79-1.717-5.89-3.804l-.724-1.373-.078-13.03-.078-13.031H59.267v-.732c0-.6.25-.883 1.389-1.57 3.079-1.855 6.331-5.217 7.453-7.705.38-.842.646-1.106 1.12-1.106h.621v8.996h8.731v2.117H69.826l.08 12.634c.07 11.102.133 12.746.518 13.56.836 1.767 2.207 2.648 4.105 2.64 1.725-.008 3.195-.731 4.5-2.214l1.09-1.238.698.604.698.605-.791 1.243c-.907 1.425-2.335 2.464-4.131 3.004-1.583.477-4.895.677-6.61.4zm39.433-.03c-4.067-.635-7.176-2.237-10.223-5.266-1.826-1.816-2.493-2.706-3.378-4.51-2.447-4.99-2.53-10.044-.244-14.817 1.97-4.115 6.105-7.575 11.013-9.216 1.787-.597 2.47-.678 5.733-.683 3.37-.005 3.894.06 5.82.729 5.577 1.933 10.034 6.127 11.776 11.081.816 2.319 1.011 6.603.422 9.25-1.404 6.313-6.301 11.272-12.762 12.925-2.396.612-6.032.838-8.157.506zm6.287-2.107c2.345-.724 4.104-2.322 5.337-4.846 1.359-2.784 1.765-4.621 1.92-8.691.33-8.607-1.894-14.15-6.542-16.316-2.124-.99-5.6-1.119-7.797-.29-2.981 1.122-5.051 3.87-6.268 8.318-.792 2.892-.858 10.13-.119 12.965.634 2.43 1.748 4.757 2.944 6.153 2.408 2.81 6.656 3.902 10.525 2.707zm177.287 2.12c-2.107-.294-5.043-1.322-6.93-2.429-2.112-1.237-5.322-4.5-6.461-6.567-1.563-2.835-2.168-5.228-2.172-8.599-.003-2.364.115-3.277.632-4.862 1.667-5.114 6.063-9.333 11.793-11.32 1.926-.667 2.45-.733 5.82-.728 3.264.005 3.947.086 5.734.683 6.939 2.32 11.815 7.871 12.622 14.369 1.279 10.303-6.254 18.921-17.083 19.545-1.282.074-3.062.032-3.955-.092zm5.653-1.962c3.48-.927 5.9-3.739 7.08-8.225.678-2.582.946-6.434.659-9.467-.621-6.556-2.57-10.323-6.283-12.151-1.66-.818-1.94-.871-4.553-.871-2.298 0-3 .1-4.026.574-2.652 1.225-4.657 4.135-5.803 8.422-.823 3.08-.834 9.358-.022 12.632.96 3.865 2.485 6.375 4.762 7.836 2.33 1.495 5.466 1.974 8.186 1.25zm44.258 1.945c-2.306-.4-4.642-1.678-5.695-3.116-1.803-2.462-1.8-2.433-1.965-14.727-.157-11.69-.153-11.644-1.407-13.022-.492-.54-1.891-1.112-3.7-1.511-.545-.12-.727-.32-.727-.792v-.631l6.068.003 6.067.003.096 12.605c.093 12.234.113 12.658.691 14.396 1.097 3.297 2.944 4.577 6.33 4.385 3.375-.19 6.958-2.653 8.49-5.836 1.216-2.526 1.362-3.825 1.36-12.103 0-4.76-.112-8.217-.285-8.84-.463-1.669-1.733-2.512-4.806-3.19-.602-.134-.727-.303-.727-.98 0-.8.02-.814.98-.634 1.27.238 9.204.238 10.475 0l.98-.184v13.814c0 12.222.05 13.919.431 14.723.589 1.24 1.157 1.476 3.307 1.374l1.843-.087-.078.927-.08.926-5.158 1.351c-2.838.743-5.199 1.32-5.246 1.28-.048-.039-.374-1.361-.726-2.939a589.284 589.284 0 0 0-.781-3.476c-.133-.565-.215-.517-1.163.681-1.72 2.177-4.54 4.122-7.329 5.056-1.928.646-5.227.893-7.245.543zm52.325.023c-1.764-.318-3.575-.957-4.96-1.749l-1.187-.678-1.006 1.078c-1.627 1.744-1.78 1.567-1.78-2.056 0-1.724-.078-4.233-.174-5.576l-.173-2.442.866.086c.798.08.903.202 1.32 1.541 1.91 6.124 6.368 9.238 11.21 7.83 4.687-1.362 5.631-6.41 1.81-9.677-.678-.58-2.662-1.791-4.408-2.691-5.957-3.069-8.257-4.909-9.468-7.575-.884-1.944-.808-5.226.17-7.365 2.29-5.011 8.25-6.75 14.49-4.23l1.606.649.796-.906c1.455-1.657 1.534-1.45 1.534 3.99v4.894h-.764c-.708 0-.827-.156-1.626-2.137-1.05-2.606-2.881-4.753-4.62-5.417-1.577-.602-4.338-.44-5.357.315-1.872 1.387-2.39 3.404-1.42 5.538.692 1.522 1.917 2.427 6.619 4.888 6.363 3.33 8.026 4.68 9.362 7.6.465 1.015.574 1.75.577 3.897 0 2.348-.08 2.825-.736 4.234-1.183 2.535-3.177 4.308-6.044 5.371-1.728.641-4.825.916-6.637.588zm44.248.103c-.364-.063-1.376-.24-2.249-.394-.873-.153-2.705-.817-4.071-1.476-4.056-1.954-6.898-5.21-8.398-9.616-.394-1.158-.493-2.214-.485-5.16.01-3.342.082-3.908.738-5.791 2.584-7.417 8.258-11.894 15.523-12.249 8.409-.411 14.808 4.199 15.275 11.002l.147 2.144h-23.846l-.19 1.765c-.743 6.948 2.334 13.87 7.24 16.286 1.634.804 1.95.866 4.417.866 2.488 0 2.773-.057 4.488-.901 1.23-.606 2.434-1.505 3.667-2.738l1.837-1.837.825.839.825.838-2.012 1.91c-2.158 2.049-4.359 3.311-6.954 3.987-1.596.416-5.622.728-6.777.525zm8.705-24.092c.572-.4.611-.575.494-2.21-.295-4.122-3.005-6.618-7.182-6.614-4.003.004-6.562 1.912-8.122 6.056-.307.816-.623 1.87-.7 2.343l-.144.86h7.517c6.545 0 7.596-.056 8.137-.435zM0 49.91v-.891l1.819-.13c2.026-.145 3.592-.796 4.314-1.793 1.058-1.46 1.143-3.062 1.143-21.564S7.191 5.43 6.133 3.97C5.411 2.97 3.845 2.32 1.82 2.176L0 2.046V0h38.1v11.642h-.884c-.861 0-.892-.04-1.216-1.522-.827-3.794-2.656-6.232-5.451-7.263-1.468-.542-2.045-.583-8.324-.595l-6.747-.013-.07 10.689-.068 10.688 2.53-.177c5.323-.375 8.048-2.062 9.082-5.627.29-.998.6-2.261.69-2.807.145-.882.249-.992.934-.992h.772l-.003 9.938-.003 9.937-.814-.082c-.764-.077-.84-.186-1.245-1.801-1.165-4.64-3.722-6.35-9.496-6.35h-2.474l.085 8.93c.094 10.07.153 10.407 2.093 12.068 1.754 1.501 3.622 1.89 8.967 1.87 6.434-.024 8.938-.679 11.215-2.933 1.275-1.262 2.24-3.298 2.623-5.53l.292-1.705h1.823l-.164 2.447c-.09 1.346-.245 4.144-.343 6.218l-.18 3.77H0zm146.895.14c.073-.629.224-.721 1.482-.9.771-.111 1.763-.388 2.204-.616 1.508-.78 1.554-1.164 1.554-12.77 0-6.078-.114-11.16-.27-11.981-.392-2.07-1.117-2.694-3.294-2.833-1.699-.108-1.727-.122-1.727-.867 0-.616.136-.785.727-.902.4-.08 2.726-.633 5.168-1.232 2.442-.598 4.48-1.041 4.53-.985.049.056.302 1.56.562 3.343.26 1.782.574 3.24.696 3.24.123 0 .223-.107.223-.24 0-.547 2.454-3.195 3.756-4.052 2.19-1.441 4.232-2.088 7.109-2.25 5.947-.336 9.73 1.408 11.537 5.319l.749 1.62.132 11.246c.12 10.095.18 11.332.6 12.1.573 1.048 1.582 1.596 3.423 1.86 1.254.178 1.41.272 1.482.893l.08.694-8.76.005-8.761.005.081-.699c.073-.63.224-.72 1.52-.905.793-.113 1.805-.417 2.25-.677 1.54-.896 1.595-1.233 1.687-10.23.137-13.43-.532-16.433-4.056-18.205-1.942-.976-5.06-.775-7.562.488-1.647.832-3.768 3.216-4.52 5.08-.605 1.496-.615 1.68-.615 11.357 0 9.562.016 9.856.553 10.583.685.926 1.639 1.407 3.24 1.634 1.082.154 1.244.261 1.315.872l.081.696-8.629.005-8.629.005.082-.701zm56.305-.038c0-.71.052-.736 1.823-.91 2.339-.231 3.984-1.046 4.583-2.27.906-1.853 1.045-5.326.93-23.152-.08-12.2-.204-17.552-.43-18.415-.581-2.229-2.44-3.413-5.358-3.413H203.2V.132h11.377L225.954.13v1.664l-1.918.099c-2.354.121-3.804.804-4.482 2.112-.758 1.46-.991 4.303-1 12.2l-.008 7.343h27.252l-.005-7.475c-.005-7.805-.231-10.552-.995-12.083-.64-1.285-2.118-1.975-4.49-2.097l-1.918-.099V.132h22.754v1.72l-1.389.001c-2.642.003-4.252.769-5.12 2.435-.707 1.36-.89 5.691-.89 21.112 0 15.847.18 19.77.986 21.417.607 1.24 2.24 2.052 4.59 2.284 1.77.174 1.823.2 1.823.909v.73l-11.377.003-11.377.004v-.709c0-.69.06-.717 2.307-1.023 4.78-.652 5.08-1.53 5.093-14.95l.008-8.136h-27.252v8.05c0 8.378.256 11.64 1.018 12.984.62 1.096 2.389 1.923 4.568 2.138 1.769.174 1.822.201 1.822.909v.728l-11.377.002-11.377.002v-.73zM460.772 11.95c-4.483-2.147-4.366-8.579.19-10.482 1.495-.624 3.074-.518 4.723.317 3.834 1.942 4.162 7.175.606 9.674-1.457 1.024-3.944 1.245-5.52.49zm4.525-.587c1.942-.94 3.247-3.299 2.887-5.217-.462-2.466-2.225-4.237-4.466-4.49-3.018-.34-5.724 2.066-5.724 5.09 0 3.74 3.953 6.239 7.303 4.617zm-4.856-1.596c.394-.23.463-.68.463-3.043 0-2.22-.079-2.803-.397-2.925-.916-.352-.274-.625 1.469-.625 2.153 0 3.338.484 3.584 1.462.19.758-.482 1.978-1.09 1.978-.215 0-.39.127-.39.283 0 .425 1.533 2.57 2.056 2.874.368.214.277.265-.47.26-.825-.006-1.047-.176-2.047-1.58-.617-.865-1.242-1.573-1.39-1.573-.146 0-.267.6-.267 1.332 0 1.133.09 1.367.596 1.57.455.183.222.242-.992.248-1.202.007-1.475-.056-1.125-.26zm3.293-3.8c.712-.619.725-.676.337-1.388-.292-.536-.643-.767-1.257-.826l-.852-.083v1.472c0 1.281.067 1.472.515 1.472.283 0 .848-.291 1.257-.646z" fill="#fff" stroke-width=".265"/></svg>