<svg id="Слой_1" data-name="Слой 1" xmlns="http://www.w3.org/2000/svg" viewBox="0 0 57.71 17.45"><defs><style>.cls-1{fill:#9a1648}</style></defs><path class="cls-1" d="M57 14.73V9.45c0-1.26-.42-3.37-3.85-3.37s-4.75.69-5.51 1.21l-.21 2.48h1.82c.26-1.11 1.37-1.53 2.69-1.53.73 0 1.37.11 1.37.48s0 .68-1 .94c-.59.15-5 .9-5.56 3a3.74 3.74 0 0 0 1.53 4.32 4.46 4.46 0 0 0 5.06-.63l.52.89h3.85v-1.46c-.42 0-.68-.42-.68-1M53.34 13a1.65 1.65 0 0 1-1.53 1.89A1.51 1.51 0 0 1 50.49 13c.37-1.22 1.58-1.53 2.85-2zM31.32 17.2v-1.42a1.16 1.16 0 0 1-1.06-1.16v-8h-4V8a.93.93 0 0 1 .89 1v5.59a1.17 1.17 0 0 1-.89 1.16v1.45zM28.31 5.52a2.76 2.76 0 1 0-2.76-2.76 2.77 2.77 0 0 0 2.76 2.76M31.74 9c-.16-.39-.42-1-.71-1V6.61h5.27V8c-.5 0-1.08.58-.74 1.48l1.08 2.74 1.14-2.82c.22-.4.1-1.4-.61-1.4V6.61h4.77V8A1 1 0 0 0 41 9.4l1.11 2.8 1.19-2.93c.16-.42.13-1.21-.48-1.24V6.61h4.22V8c-.37 0-.58.45-.76.87L43 17.2h-2.46L39 13.41l-1.46 3.79H35zM1.21 15.1V7.61c0-.79-.63-1-1.21-1V5.18h7.07c3.48 0 6.74 2.27 6.74 6s-1.32 6.22-6.38 6.22H0V16c.69 0 1.21-.26 1.21-.89m4 .1h1A3.72 3.72 0 0 0 10 11.46c0-2.8-1.68-3.9-3.74-3.9h-1zM24.78 14.73V9.45c0-1.26-.42-3.37-3.85-3.37s-4.74.69-5.51 1.21l-.21 2.48H17c.26-1.11 1.37-1.53 2.69-1.53.74 0 1.37.11 1.37.48s.05.68-1 .94c-.58.15-5 .9-5.56 3a3.74 3.74 0 0 0 1.5 4.28 4.46 4.46 0 0 0 5.06-.63l.53.89h3.84v-1.42c-.42 0-.68-.42-.68-1M21.09 13c0 1.53-1.05 1.89-1.53 1.89A1.52 1.52 0 0 1 18.24 13c.37-1.22 1.58-1.53 2.85-2z"/></svg>