<svg xmlns="http://www.w3.org/2000/svg" width="2020.842" height="1008.528" viewBox="0 0 534.681 266.84"><g transform="translate(-412.942 -154.313)"><image y="147.535" x="390.31" preserveAspectRatio="none" height="283.633" width="581.731"/><path d="M618.557 420.948c-22.21-.925-44.71-3.567-64.559-7.581-7.417-1.5-16.3-3.523-19.402-4.42a364.082 364.082 0 0 0-5.821-1.601c-1.94-.517-6.941-2.051-11.113-3.41-4.171-1.358-7.743-2.509-7.937-2.557-.37-.093-.765-.246-5.17-1.998-1.486-.59-2.915-1.114-3.176-1.163-.26-.049-1.744-.68-3.296-1.404a279.551 279.551 0 0 0-3.528-1.622c-2.717-1.185-7.942-3.89-10.782-5.582-3.274-1.95-10.557-6.722-10.913-7.15-.097-.117-1.482-1.102-3.077-2.19-2.644-1.8-4.934-3.564-8.702-6.699-.754-.627-1.51-1.194-1.679-1.26-.169-.064-.75-.54-1.292-1.057-.542-.517-2.45-2.21-4.24-3.762-4.563-3.955-9.08-8.462-13.435-13.406-2.051-2.328-3.93-4.443-4.173-4.7-.244-.256-.448-.573-.452-.705-.005-.132-.52-.824-1.147-1.538-.626-.714-2-2.54-3.053-4.057a245.786 245.786 0 0 0-2.822-3.992c-.5-.68-1.289-1.95-1.755-2.823a54.568 54.568 0 0 0-1.746-2.999c-2.664-4.18-6.923-13.863-8.38-19.05a119.54 119.54 0 0 0-1.003-3.351c-1.478-4.621-2.608-12.32-2.9-19.756-.602-15.268 3.211-32.194 10.509-46.65.564-1.118.92-2.033.79-2.033s.001-.278.29-.617c.29-.34 1.147-1.729 1.903-3.087s1.57-2.787 1.807-3.175c.237-.388.547-.937.688-1.22.141-.284 1.02-1.67 1.954-3.08.934-1.41 1.698-2.65 1.698-2.758 0-.107.794-1.217 1.764-2.467s1.764-2.417 1.764-2.593c0-.175.262-.537.584-.804.644-.533 4.522-5.318 4.54-5.599.015-.253 1.532-1.845 8.402-8.82 6.375-6.47 7.147-7.19 11.661-10.858l3.175-2.58c.214-.175 1.262-.946 2.33-1.713 1.066-.768 2.131-1.562 2.366-1.765.234-.203.513-.37.62-.37.108 0 1.662-.98 3.455-2.177 1.793-1.198 4.053-2.6 5.024-3.117.97-.516 3.192-1.709 4.938-2.65 4.846-2.612 14.324-7.207 14.926-7.237.134-.007.879-.319 1.655-.694.776-.374 1.526-.687 1.665-.693.14-.007 1.122-.409 2.183-.894 1.06-.485 2.078-.882 2.263-.882.184 0 .79-.237 1.345-.527.556-.29 1.28-.528 1.607-.53.328 0 .684-.142.79-.315.107-.173.633-.419 1.168-.547.535-.129 2.243-.693 3.796-1.255 4.413-1.596 14.734-4.607 20.99-6.124 23.987-5.817 46.97-8.345 75.798-8.337 17.694.004 30.253.668 47.145 2.494 8.76.946 26.736 3.416 29.385 4.037.445.104 2.667.507 4.938.896 5.399.923 20.759 4.014 25.473 5.125 6.312 1.487 15.236 3.71 17.639 4.393 1.261.359 4.992 1.386 8.29 2.282 3.299.896 6.394 1.764 6.88 1.928.484.164 3.024.964 5.644 1.779 2.62.814 5.284 1.7 5.92 1.971 2.158.915 2.237.66.702-2.243-.795-1.504-1.903-3.409-2.463-4.233-.56-.825-.93-1.5-.82-1.5.108 0-.23-.674-.75-1.499-.522-.824-1.538-2.61-2.26-3.969-.721-1.358-2.52-4.597-4-7.198-1.478-2.601-2.613-4.803-2.523-4.894.09-.09 1.878 1.422 3.973 3.36 5.032 4.657 8.798 7.85 9.257 7.85.205 0 .372.146.372.323 0 .178.992 1.05 2.205 1.938 1.213.889 2.522 1.918 2.91 2.288 1.129 1.076 5.468 4.311 5.468 4.077 0-.117.45.236.999.784.549.549 1.7 1.473 2.557 2.055.858.581 1.639 1.144 1.736 1.25.097.107 1.446 1.092 2.999 2.19a243.14 243.14 0 0 1 3.704 2.658c2.667 2.007 7.762 5.365 7.772 5.122.006-.156.218-.011.47.32.388.511 1.727 1.486 4.504 3.277 1.329.858 8.07 5.341 9.832 6.54 1.067.725 2.02 1.31 2.116 1.3.097-.012.812.414 1.588.945 3.296 2.257 6.722 4.436 6.982 4.44.154.002.471.166.706.362.693.583 2.714 1.866 6.403 4.068 1.907 1.138 3.302 2.124 3.1 2.191-.202.068-1.93-.297-3.84-.81-3.794-1.02-5.09-1.362-11.94-3.156-4.184-1.096-7.117-1.793-13.582-3.23-10.694-2.376-24.108-4.874-34.572-6.44-9.83-1.47-25.77-3.31-27.517-3.177-.485.037-1.12-.027-1.411-.143-.291-.115-4.419-.466-9.172-.78-11.772-.775-35.13-1.064-45.685-.564-10.547.498-19.237 1.088-19.932 1.353-.291.11-.943.169-1.45.13-1.111-.088-11.178 1.068-19.893 2.284-9.005 1.255-17.796 2.885-31.22 5.786-5.85 1.265-15.676 4.046-25.048 7.092-6.093 1.98-8.248 2.768-12.524 4.582-.388.165-2.119.872-3.846 1.572-3.649 1.479-10.762 5.031-12.678 6.332-.727.493-1.45.897-1.607.897-.156 0-.941.476-1.745 1.058-.803.582-1.546 1.059-1.65 1.059-.32 0-5.967 3.907-6.35 4.393-.197.251-.862.763-1.478 1.137-3.637 2.212-16.172 14.712-16.62 16.575-.064.26-.236.472-.384.472-.259 0-2.895 3.78-4.428 6.35l-1.156 1.94c-.23.389-1.076 2.056-1.877 3.705-.802 1.65-1.66 3.395-1.906 3.88-1.538 3.031-3.702 10.863-4.631 16.757-.945 5.997-.693 17.344.45 20.285.112.291.27 1.085.35 1.764.325 2.782 3.135 10.375 5.351 14.464 1.285 2.37 3.164 5.148 4.32 6.385.564.604 1.026 1.193 1.026 1.31 0 .256 2.969 3.342 5.62 5.843a91.473 91.473 0 0 1 3.317 3.307c.771.825 1.615 1.5 1.877 1.5.26 0 .474.145.474.324 0 .29 1.316 1.378 7.17 5.936.936.728 2.225 1.642 2.866 2.03.64.388 2.017 1.277 3.06 1.977 7.437 4.985 19.542 11.027 28.927 14.439 24.486 8.901 49.036 13.45 81.958 15.188 8.958.472 40.928.245 49.763-.354 13.705-.93 33.194-2.676 34.395-3.083.291-.098 1.637-.25 2.99-.339 4.406-.287 35.131-4.768 36.521-5.326.291-.117.65-.187.798-.156.257.055 2.84-.381 8.904-1.503l4.939-.914c5.007-.927 14.954-2.985 20.46-4.232l5.469-1.24a547.126 547.126 0 0 0 8.962-2.136c2.697-.67 4.975-1.148 5.06-1.063.086.086-.85.921-2.078 1.857-1.228.936-2.688 2.143-3.245 2.682-.557.539-1.433 1.22-1.946 1.514-1.58.905-3.386 2.29-3.687 2.828-.158.282-.413.435-.567.34-.153-.095-.898.378-1.654 1.05-.756.674-1.537 1.224-1.735 1.225-.198 0-.913.442-1.587.983-.675.54-2.339 1.688-3.697 2.55-1.358.862-2.549 1.65-2.646 1.751-.097.102-.59.398-1.096.658-.506.26-1.737 1.091-2.734 1.846-.998.755-1.814 1.283-1.814 1.173 0-.218-2.536 1.26-2.822 1.646-.097.13-1.05.71-2.117 1.289-1.067.578-3.607 1.968-5.644 3.088-3.796 2.086-18.857 9.71-19.182 9.71-.099 0-1.499.614-3.111 1.364-4.213 1.961-4.985 2.294-9.105 3.928-2.037.808-4.18 1.672-4.762 1.921-.582.25-2.249.89-3.704 1.425-1.455.534-2.964 1.11-3.352 1.277-1.152.5-13.202 4.456-15.875 5.212-1.358.385-3.66 1.042-5.115 1.46a425.416 425.416 0 0 1-8.996 2.454c-1.593.418-13.362 3.056-16.58 3.717-1.552.319-3.06.672-3.352.785-.29.113-.65.18-.8.147-.149-.032-2.53.336-5.291.818-8.494 1.482-15.597 2.423-27.952 3.705-12.558 1.302-38.475 2.01-52.387 1.431zm-63.863-80.708c-.005-.146 3.516-10.901 7.825-23.901 13.754-41.498 28.9-87.036 30.007-90.223l1.072-3.087h22.89c21.705 0 22.87.032 22.517.618-.404.671-1.998 5.276-8.458 24.43-2.324 6.887-4.55 13.45-4.947 14.581-1.284 3.662-2.213 3.41 12.595 3.41 14.291 0 14.742-.064 15.755-2.232.428-.916 7.36-21.614 12.426-37.103l1.154-3.527 22.824-.091c18.21-.073 22.793-.001 22.666.353-.087.244-1.16 3.539-2.383 7.322-1.223 3.784-3.45 10.61-4.947 15.17-1.498 4.56-4.59 14.005-6.87 20.99a14068.37 14068.37 0 0 1-6.521 19.932c-1.307 3.978-3.929 11.994-5.827 17.815a5703.16 5703.16 0 0 1-6.193 18.874c-2.682 8.11-3.621 11.108-3.7 11.818-.023.194-.317.988-.656 1.764-.338.776-.704 1.848-.812 2.381l-.198.97H651.85c-12.684 0-23.063-.077-23.063-.172 0-.095 1.647-5.135 3.66-11.2 4.793-14.438 10.1-30.73 10.1-30.995 0-.116-.332-.592-.736-1.059l-.735-.847-11.487-.107c-6.317-.059-11.741.001-12.053.134-.312.132-.925.264-1.362.294-.438.03-1.136.395-1.552.81-.705.705-3.67 9.19-12.394 35.46l-2.545 7.663-22.49.01c-12.369.004-22.493-.11-22.499-.256zm135.47-.706c.162-.533 1.636-4.939 3.273-9.79 1.638-4.85 7.36-21.916 12.716-37.923 5.357-16.007 10.144-30.255 10.639-31.661.495-1.407.943-2.836.996-3.175.053-.34.218-.814.367-1.053.304-.486 2.383-6.678 2.52-7.503.048-.29.282-1.005.519-1.587.574-1.409 2.146-6.212 2.251-6.88a3.08 3.08 0 0 1 .355-.963c.313-.502 2.392-6.714 2.511-7.503.044-.291.311-1.085.593-1.764.283-.68.904-2.462 1.381-3.963l.868-2.728 52.084-.006 52.085-.006-.816 2.645c-.45 1.456-.746 2.646-.66 2.646.087 0-.066.357-.34.794-.274.437-.662 1.35-.861 2.028-.2.68-1.906 5.958-3.792 11.73l-3.43 10.495-28.614.005c-22.217.004-28.812.105-29.497.448-.676.339-1.134 1.18-1.966 3.61-.596 1.743-1.19 3.407-1.32 3.698-.676 1.52-1.177 3.862-.915 4.286.243.393 5.355.493 29.064.571l28.77.094-.235.965c-.129.53-2.022 6.361-4.206 12.958-2.185 6.597-4.23 12.907-4.543 14.023l-.571 2.028h-57.472l-1.056.97c-.853.784-1.466 2.21-3.18 7.4-1.17 3.537-2.125 6.604-2.125 6.817 0 .212.266.652.592.978.543.543 2.953.6 28.961.69 22.153.077 28.337.193 28.221.53-.082.237-2.121 6.418-4.532 13.736l-4.382 13.305-52.275.012-52.275.012.296-.97zm121.01.633c0-.186 1.328-4.353 2.952-9.26a4204.32 4204.32 0 0 0 5.42-16.508c5.23-16.078 10.525-32.264 13.157-40.217 2.451-7.406 3.48-10.732 3.657-11.818.031-.194.18-.548.328-.787.304-.486 2.383-6.677 2.52-7.503.048-.291.283-1.006.52-1.588.239-.582.994-2.804 1.68-4.939.685-2.134 2.42-7.452 3.856-11.818 1.436-4.365 2.959-9.009 3.385-10.319l.775-2.38H898.6c39.186 0 49.144.089 49.023.44-.084.243-3.22 9.688-6.97 20.99l-6.816 20.55h-21.114c-11.614 0-21.115-.128-21.115-.284 0-.156.715-2.325 1.59-4.82 1.51-4.306 1.562-4.58 1.025-5.399-.55-.84-.66-.859-4.336-.733-5.395.185-5.301.062-9.232 12.118a8391.186 8391.186 0 0 1-4.39 13.405 8072.048 8072.048 0 0 0-4.674 14.288c-1.17 3.59-2.973 9.114-4.006 12.277-1.452 4.441-1.794 5.887-1.503 6.35.295.47 1.014.622 3.338.707 5.744.208 6.277-.182 8.228-6.017l1.387-4.145h21.14c16.762 0 21.109.091 20.984.441-.086.243-1.553 4.727-3.259 9.966-4.751 14.594-7.913 24.186-8.517 25.841l-.547 1.5h-48.831c-30.825 0-48.83-.125-48.83-.338z" fill="#fff" stroke-width=".353"/></g></svg>