<svg xmlns="http://www.w3.org/2000/svg" width="2666.151" height="688.576" viewBox="0 0 705.419 182.186"><path d="M603.55 181.969c-.678-.072-3.139-.447-5.467-.833-28.993-4.803-53.152-22.525-65.62-48.135-3.096-6.356-4.721-10.68-6.349-16.877-3.253-12.39-4.064-24.948-2.43-37.627 2.633-20.43 11.325-38.393 25.352-52.388C562.942 12.234 579.56 4.02 600.199.822c6.576-1.02 20.27-1.107 26.988-.172 29.505 4.104 53.177 19.97 66.93 44.862 11.393 20.623 14.366 46.864 8.037 70.965-1.631 6.212-3.258 10.533-6.355 16.877-12.995 26.624-38.189 44.32-68.774 48.31-3.898.508-19.648.713-23.474.305zm22.931-14.745c34.474-5.294 59.319-31.497 63.128-66.576.853-7.85.304-19.762-1.248-27.09-2.332-11.016-6.93-21.385-13.284-29.954-2.937-3.961-8.853-10.145-12.612-13.183-20.941-16.924-52.16-21.176-78.317-10.667-9.81 3.942-17.626 9.265-25.243 17.193-11.466 11.935-18.504 27.745-20.29 45.578-.606 6.052-.25 17.19.725 22.738 4.459 25.357 18.76 44.79 40.648 55.232 8.304 3.962 16.242 6.197 25.68 7.233 4.263.468 16.399.174 20.813-.504zm-60.595-66.414l.094-38.012.778-1.455c.428-.8 1.27-1.868 1.87-2.372 2.002-1.685 3.949-1.994 12.585-1.994h7.874v81.845H565.79zm36.17-7.585c-.101-49.66.021-46.783-2.048-48.313-.588-.434-1.776-.737-3.44-.877l-2.542-.213v-10.16l13.14.104 13.142.104 1.763.882c1.883.942 3.12 2.462 3.7 4.545.229.827.354 18.58.356 50.4l.002 49.125H602.15zm37.125 4.675V56.977h7.874c9.395 0 10.906.3 13.126 2.607.782.811 1.615 2.123 1.852 2.915.329 1.095.432 10.395.432 38.881v37.442H639.18zm-380.529 46.217c-8.838-.976-14.2-5.816-16.223-14.644-.958-4.18-.873-13.764.156-17.532 1.972-7.225 5.817-11.938 12.338-15.125 5.988-2.926 11.855-4.474 26.682-7.042 3.278-.568 6.046-1.119 6.152-1.224.42-.42-.549-6.82-1.233-8.147-1.396-2.704-4.063-3.785-9.293-3.765-6.309.023-13.145 1.413-20.618 4.193-2.442.909-4.493 1.588-4.558 1.51-.255-.308-5.567-15.199-5.457-15.297.455-.409 5.927-2.953 8.399-3.905 3.507-1.35 10.192-3.025 15.708-3.935 3.031-.5 5.81-.637 12.7-.63 7.94.01 9.132.089 11.954.799 9.986 2.513 14.669 8.286 16.08 19.82.217 1.786.365 12.406.365 26.39 0 16.09.123 23.891.394 24.969.653 2.592 3.334 4.382 6.573 4.387l1.146.002V143.408h-13.24c-14.509 0-14.76-.032-16.484-2.08-1.162-1.38-1.668-3.129-1.67-5.77-.002-1.115-.1-2.028-.22-2.028-.119 0-1.11.764-2.204 1.698-2.706 2.31-3.507 2.83-7.967 5.171-6.048 3.174-12.779 4.459-19.48 3.718zm17.273-17.462c3.615-.942 7.362-3.117 10.567-6.134l1.323-1.245v-8.219c0-7.593-.047-8.218-.618-8.216-1.606.007-9.47 1.885-12.737 3.041-7.596 2.688-9.3 4.934-9.337 12.302-.02 3.863.621 5.969 2.27 7.468 1.655 1.503 5.07 1.905 8.532 1.003zM1.38 139.263c.759-2.28 7.323-22.164 14.586-44.186s13.693-41.39 14.287-43.039c.857-2.376 1.083-3.573 1.086-5.767.005-2.66-.04-2.815-1.147-3.922-1.313-1.313-3.598-1.952-6.98-1.952h-2.098v-9.172H42.41c12.95 0 22.039.14 23.195.358 2.55.482 4.844 1.96 6.026 3.884.716 1.166 4.876 15.462 15.91 54.671l14.94 53.094-13.574.092c-7.466.05-13.653.014-13.749-.083-.096-.096-1.954-6.17-4.129-13.498l-3.954-13.323-16.594-.091-16.593-.092-.667 2.208c-.366 1.215-2.168 7.326-4.005 13.581L25.877 143.4l-12.938.005L0 143.409zm62.237-41.738c-.127-.4-2.843-10.354-6.035-22.12C54.39 63.636 51.739 53.97 51.69 53.92c-.07-.07-12.84 41.118-13.555 43.714-.159.58.617.617 12.772.617 12.909 0 12.94-.002 12.71-.727zm48.513-3.63V44.382l-.798-1.199c-1.047-1.571-2.816-2.402-5.687-2.67l-2.334-.218v-9.07h13.518c14.751 0 16.034.14 18.008 1.982.555.519 1.306 1.595 1.668 2.39.632 1.392.657 3.51.665 54.63l.008 53.18H112.13zm45.5.918c-.004-27.217-.147-49.192-.323-49.952-.602-2.593-2.636-4.02-6.205-4.353l-2.283-.213v-9.1l14.023.103c13.942.102 14.033.108 15.722.94 1.947.958 3.21 2.64 3.743 4.984.238 1.044.365 19.48.37 53.887l.009 52.299H157.64l-.009-48.595zm45.083 12.814c-.095-35.56-.1-35.788-.826-36.777-1.08-1.474-2.837-2.23-5.178-2.23l-2.029-.001v-9.172h13.353c9.045 0 13.74.13 14.552.401 1.814.607 3.41 1.943 4.29 3.588l.79 1.479.094 39.246.094 39.247h-25.046zm130.175.415c-.094-34.769-.107-35.387-.809-36.6-.93-1.611-3.307-2.823-5.535-2.823h-1.689v-9.172l13.141.008c11.995.007 13.264.064 14.552.656 2.828 1.298 3.666 3.18 3.69 8.287l.015 3.482 1.852-1.574c7.072-6.01 13.042-9.433 19.314-11.075 2.82-.738 10.577-.856 13.396-.204 6.856 1.585 11.489 6.131 13.383 13.132 1.296 4.791 1.443 8.937 1.443 40.595v30.654h-25.024l-.1-29.545c-.098-29.192-.108-29.564-.842-31.133-1.245-2.663-2.874-3.527-6.644-3.527-4.34 0-7.932 1.436-12.326 4.927l-2.689 2.136V143.407h-25.034l-.094-35.365zm85.806 26.625v-8.74l17.992-25.098c9.895-13.804 17.992-25.199 17.992-25.321 0-.123-5.04-.175-11.201-.116-10.493.1-11.279.151-12.436.82-1.61.93-2.822 3.307-2.822 5.535v1.689h-8.82v-8.45c0-4.838.167-9.226.39-10.267.507-2.359 2.347-4.284 4.65-4.863 1.162-.293 9.5-.41 29.336-.41h27.714v17.381l-17.551 25.06c-9.653 13.784-17.604 25.193-17.668 25.354-.065.16 8.23.292 18.432.292h18.55v15.875h-64.558zm-209.987-82.12c-5.632-1.365-8.664-4.805-9.012-10.224-.514-8.02 3.847-12.346 12.887-12.78 6.28-.303 10.428 1.01 13.304 4.209 2.074 2.307 2.806 4.68 2.585 8.379-.322 5.392-3.452 8.906-9.285 10.425-2.548.664-7.722.66-10.48-.009z" fill="#fff" stroke-width=".353"/></svg>