<svg xmlns="http://www.w3.org/2000/svg" width="560" height="369.917" viewBox="0 0 148.167 97.874"><path d="M16.466 97.516c-5.124-.973-9.416-2.953-12.302-5.675-2.054-1.938-2.944-3.303-3.666-5.62C.038 84.743 0 83.605 0 71.414V58.208h18.785l.004 11.973c.002 6.585.077 12.245.166 12.578.362 1.348 3.357 1.879 4.69.83l.697-.548V.794H45.773l-.004 41.34c-.003 35.47-.059 41.577-.393 42.994-1.516 6.43-6.43 10.462-14.787 12.132-2.966.593-11.532.748-14.122.256zm48.754.19c-2.872-.396-6.202-1.707-8.768-3.45-2.812-1.91-4.35-3.98-5.55-7.473-.48-1.398-.499-2.847-.499-37.041V14.155l.81-2.26c1.558-4.35 4.043-7.128 8.152-9.112C63.499.787 67.677 0 74.135 0c8.828 0 14.693 1.762 18.473 5.55 2.035 2.039 2.992 3.72 3.706 6.511.479 1.87.523 2.951.523 12.588v10.54H77.523V14.794l-.65-.65c-.547-.547-.902-.65-2.26-.65-1.359 0-1.714.103-2.261.65l-.65.65v68.204l.557.504c.436.395.959.504 2.405.504 3.005 0 2.859.535 2.859-10.48v-9.231H73.29V49.212H96.837v47.89H86.524l-1.327-2.644-1.327-2.643-1.64 1.322c-2.258 1.819-5.798 3.59-8.447 4.225-2.102.503-6.217.67-8.563.345zm53.975-.096c-5.646-.76-10.717-2.877-13.447-5.616-1.805-1.811-3.075-4.075-3.814-6.798-.434-1.601-.466-4.07-.466-35.719 0-31.785.03-34.12.473-35.844C104.305 4.41 112.006.022 125.856.005c6.199-.007 10.302.735 14.076 2.546 2.644 1.269 5.42 3.987 6.584 6.445 1.487 3.142 1.65 4.699 1.65 15.735v9.936l-9.723-.07-9.723-.069-.133-10.012-.132-10.011-.624-.506c-.89-.72-3.163-.696-4.103.043l-.697.548v68.451l.697.548c.504.396 1.082.548 2.081.548 1 0 1.578-.152 2.081-.548l.697-.548V58.208h19.58v13.206c0 14.704-.02 14.895-1.856 17.757-2.102 3.274-7.107 6.395-12.564 7.832-2.33.614-3.246.706-7.673.776-2.765.044-5.86-.032-6.88-.169z" fill="#fff" stroke-width=".265"/></svg>