<svg xmlns="http://www.w3.org/2000/svg" width="2297" height="477.439" viewBox="0 0 607.748 126.322"><path d="M543.719 125.985c-1.221-.638-2.117-1.298-2.117-1.56 0-.142-.268-.634-.595-1.093-.566-.794-.602-1.138-.728-7.052l-.132-6.217-1.985-.303c-4.61-.701-8.603-1.976-13.626-4.35-1.867-.882-6.77-3.887-7.276-4.459-.852-.964-.899-.936-4.802 2.907-4.818 4.743-5.61 5.304-7.728 5.472-2.034.162-3.527-.426-4.429-1.742-.832-1.216-.851-3.877-.038-5.47.295-.579 2.336-2.854 4.534-5.056s3.997-4.056 3.997-4.12c0-.063-.447-.72-.992-1.46-1.408-1.907-1.493-2.035-3.248-4.928-.87-1.434-1.581-2.715-1.581-2.848s-.117-.449-.26-.702c-1.549-2.731-3.282-8.327-3.77-12.167l-.31-2.447h-6.049c-6.904 0-7.99-.206-9.66-1.825-2.548-2.473-1.868-6.022 1.46-7.621 1.512-.727 1.57-.733 7.903-.83l6.38-.096.157-1.76c.171-1.916 1.093-5.736 2.13-8.827 1.359-4.046 4.707-10.318 6.753-12.65l.807-.92-4.2-4.233c-4.567-4.602-5.31-5.693-5.31-7.805 0-2.194 1.072-3.852 2.884-4.46 1.282-.43 2.189-.377 3.801.226 1.181.442 2.12 1.225 5.71 4.763l4.295 4.234.585-.557c1.477-1.408 8.713-5.793 9.559-5.793.076 0 .807-.306 1.625-.68.817-.374 2.22-.918 3.116-1.21 2.175-.706 8.065-2.072 8.951-2.076l.707-.003.09-6.151c.087-5.887.118-6.198.71-7.21.86-1.472 1.32-1.941 2.4-2.454 2.411-1.144 4.784-.088 6.4 2.85.267.485.4 2.288.496 6.747l.133 6.086 1.984.28c6.437.906 13.515 3.636 19.04 7.342 1.529 1.026 3.017 2.087 3.307 2.357.52.483.585.433 4.4-3.398 2.152-2.16 4.388-4.158 5.033-4.495 2.128-1.113 4.641-.72 6.162.962.9.998.952 1.153.952 2.898 0 1.37-.142 2.1-.55 2.843-.303.55-2.316 2.786-4.473 4.97l-3.923 3.968.646.661c.355.364 1.136 1.436 1.737 2.382.6.945 1.365 2.136 1.699 2.645 1.153 1.76 2.646 5.272 4.104 9.658.541 1.625 1.372 5.39 1.672 7.573l.169 1.224 5.346.122c4.95.112 5.445.168 6.67.752.727.347 1.597.904 1.932 1.237.73.724 1.375 2.18 1.375 3.1 0 1.028-.753 2.67-1.54 3.36-1.75 1.532-3.118 1.814-8.794 1.814h-4.964l-.304 1.918a59.07 59.07 0 0 1-.712 3.638c-.595 2.505-3.01 9.29-3.53 9.922-.12.146-.721 1.217-1.335 2.381-.982 1.862-1.728 3.08-2.432 3.97-.115.145-.628.826-1.139 1.514l-.93 1.251 3.792 3.793c4.178 4.18 4.955 5.373 4.955 7.607 0 3.159-2.201 4.875-5.643 4.402-1.8-.248-2.505-.766-6.503-4.778l-3.812-3.825-2.67 1.791c-6.151 4.125-12.68 6.712-19.605 7.766l-2.116.323-.133 6.217c-.142 6.703-.204 7.011-1.706 8.513-1.426 1.426-3.497 1.93-4.908 1.192zm-2.646-40.098v-7.903l-1.624-.704c-1.94-.841-.97-1.498-7.708 5.225-4.772 4.762-4.977 5.008-4.514 5.432.922.844 2.082 1.563 4.459 2.762 2.772 1.399 4.132 1.889 7.1 2.56 1.185.267 2.184.496 2.22.509.037.012.067-3.534.067-7.881zm10.956 7.37c3.046-.673 5.117-1.414 7.516-2.69 2.202-1.17 4.811-2.855 4.811-3.106 0-.093-2.47-2.616-5.49-5.607l-5.49-5.437-.926.465c-.51.257-1.61.683-2.445.948l-1.52.482-.002 7.739-.003 7.739.595-.006c.328-.003 1.656-.24 2.952-.527zM527.15 76.83l5.364-5.27-.834-1.656c-.458-.91-.903-1.922-.987-2.247l-.155-.59h-7.83c-7.281 0-7.83.032-7.828.463.005 1.299 1.686 6.627 2.777 8.799 1.507 3 3.557 6.124 3.885 5.921.134-.083 2.658-2.522 5.608-5.42zm43.305 4.458c2.582-3.453 4.376-7.734 5.655-13.493l.162-.728h-15.814l-.464 1.257c-.255.69-.689 1.652-.964 2.134l-.499.878 5.492 5.401c3.02 2.97 5.559 5.403 5.64 5.406.082.003.438-.382.792-.855zm-39.887-22.357c.117-.582.844-2.37 1.45-3.567.055-.106-2.378-2.628-5.405-5.605-4.21-4.142-5.583-5.346-5.844-5.13-.947.786-3.86 6.248-4.7 8.809-.496 1.512-1.19 4.749-1.19 5.545v.676h15.543zm45.693.644c0-1.321-1.649-7.078-2.705-9.441-.634-1.42-2.215-4.09-2.997-5.062l-.56-.696-4.21 4.17a609.938 609.938 0 0 0-5.503 5.503l-1.291 1.332.563 1.164c.31.64.564 1.372.564 1.627 0 .255.123.693.274.975.261.488.633.512 8.07.512 4.287 0 7.795-.038 7.795-.084zM564.72 38.968c-.3-.487-4.064-2.837-6.034-3.77-3.2-1.513-7.703-2.791-9.835-2.791h-.642l.07 7.705.07 7.706 1.72.584c.946.32 2.196.834 2.778 1.14l1.058.557 5.476-5.456c3.011-3 5.414-5.554 5.34-5.675zm-25.996 10.278c.673-.341 1.477-.687 1.786-.768.558-.146.563-.213.563-8.078v-7.932l-1.786.353c-4.524.893-9 2.95-12.63 5.804-.503.396-.311.625 4.896 5.825 2.98 2.977 5.538 5.413 5.683 5.415.146 0 .816-.278 1.488-.619zm-458.82 64.218c-1.726-.341-5.88-1.703-7.165-2.348-6.756-3.394-11.194-9.916-12.869-18.914-.645-3.468-.63-11.578.03-14.949 1.277-6.527 3.76-11.818 7.306-15.564 4.569-4.827 9.592-7.057 15.89-7.057 7.82 0 15.074 3.938 19.491 10.583 1.728 2.598 2.482 4.12 3.474 7.011 1.548 4.506 1.903 6.513 2.074 11.708l.158 4.829H79.04l.134 2.58c.212 4.053 1.472 6.59 3.53 7.106 1.967.494 4.317-1.15 4.889-3.422l.311-1.237h19.504l-.165.86c-.305 1.594-1.714 5.346-2.626 6.993-2.862 5.168-7.271 8.794-13.203 10.86-2.509.872-2.86.925-6.747 1.006-2.256.047-4.399.027-4.763-.045zm8.628-36.72c.246-.64-.662-3.668-1.433-4.778-1.448-2.086-3.262-2.732-5.146-1.834-1.554.741-2.831 3.32-2.839 5.732l-.004 1.257h4.639c3.768 0 4.665-.07 4.783-.376zm228.304 36.282c-4.543-1.722-8.191-6.214-10.79-13.283-5.185-14.111-2.017-35.292 6.277-41.954 1.971-1.583 3.353-2.262 5.675-2.785 2.657-.6 6.268-.41 8.101.425l1.968.895c.906.41 3.309 2.908 4.609 4.79 1.078 1.561 1.097 1.574 1.173.794.042-.437-.021-2.015-.141-3.506l-.218-2.712h21.316v56.62H333.58l.192-3.703c.105-2.038.123-3.705.038-3.705-.085 0-.643.663-1.242 1.473-2.235 3.026-4.441 5.091-6.554 6.137-1.885.932-2.162.993-4.794 1.053-2.367.054-3.037-.028-4.384-.539zm14.256-18.183c1.726-1.516 2.812-5.701 2.812-10.836 0-3.608-.396-5.384-1.792-8.043-2.7-5.141-6.275-3.663-8.174 3.38-.635 2.353-.57 7.415.126 9.683.575 1.88 1.688 4.397 2.224 5.034 1.502 1.781 3.327 2.078 4.804.782zM0 72.08V31.824l13.163.13c12.736.125 13.27.15 16.47.794 3.716.747 7.356 1.953 9.525 3.155 10.647 5.901 16.256 16.696 17.243 33.18.87 14.546-2.667 27.083-9.827 34.836-3.144 3.403-6.697 5.685-11.345 7.284l-2.818.97-16.205.082L0 112.337zm26.423 19.712c2.57-1.173 5.772-5.015 7.202-8.644 1.61-4.085 2.066-11.672 1.015-16.913-1.785-8.914-5.935-14.155-11.625-14.684l-1.848-.171V71.88c0 11.274.089 20.59.198 20.702.365.375 3.622-.133 5.058-.789zM115.093 84V55.69h9.79c5.385 0 9.79.1 9.79.222s-.18 2.108-.402 4.414c-.22 2.305-.303 4.29-.182 4.41.12.121 1.043-1.002 2.05-2.495 1.008-1.493 2.622-3.498 3.588-4.454 1.55-1.535 2.009-1.823 3.899-2.448 3.475-1.149 7.096-.86 10.164.81 2.625 1.428 5.185 4.995 6.52 9.082 1.408 4.312 1.416 4.448 1.536 26.508l.111 20.572h-20.14l-.002-15.81c-.001-10.659-.096-16.149-.292-16.854-.16-.575-.683-1.438-1.162-1.918-1.701-1.701-3.953-.915-4.84 1.69-.38 1.113-.446 3.277-.523 17.083l-.087 15.809h-19.817zm54.24 0V55.69h19.844v56.62h-19.844zm24.342 26.593c0-1.968-.373-1.05 6.292-15.48a3601.79 3601.79 0 0 1 3.369-7.276c.542-1.164 1.329-2.861 1.748-3.77 1.21-2.628 2.198-4.749 3.655-7.85.746-1.59 1.263-2.977 1.15-3.084-.114-.107-.802-.094-1.53.03-.727.122-3.853.23-6.945.238l-5.622.016V55.69h42.333v3.672l-6.17 12.518c-5.544 11.244-10.596 22.695-10.192 23.098.075.076.768.018 1.539-.129.77-.146 4.243-.265 7.715-.265h6.314v17.727h-43.656zm51.065-38.504V31.844l16.073.099 16.073.098 2.382.705c6.07 1.798 10.878 4.784 14.148 8.789 1.083 1.326 2.666 4.384 3.354 6.482 1.335 4.067 1.364 11.05.06 14.38-1.186 3.027-3.336 5.386-7.062 7.749l-1.726 1.094.904.462c1.573.803 4.891 3.244 5.842 4.295 3.595 3.98 4.887 7.948 4.804 14.75-.04 3.273-.165 4.424-.716 6.563-1.923 7.473-6.372 12.083-13.787 14.288-1.79.532-2.512.555-21.101.643l-19.248.092zM273.2 92.823c2.888-.97 4.065-2.736 4.075-6.12.016-4.954-2.409-6.936-8.487-6.936h-2.618V93.26h2.863c1.963 0 3.274-.138 4.167-.438zm-1.44-30.366c2.11-.89 3.126-2.721 3.135-5.651.01-3.405-1.08-4.81-4.15-5.347-.989-.173-2.392-.274-3.12-.225l-1.323.09-.071 5.755-.071 5.755h2.354c1.44 0 2.7-.146 3.246-.377zm89.22 31.399c.096-10.15.175-22.89.175-28.31V55.69h20.982l-.182 2.447-.344 4.63c-.104 1.412-.066 2.183.108 2.183.148 0 .965-1.097 1.816-2.439 1.696-2.675 4.795-5.98 6.26-6.675 4.365-2.07 10.127-1.378 13.441 1.616 2.528 2.284 4.346 5.859 5.473 10.764l.678 2.952.113 20.571.114 20.572h-20.148V96.483c0-17.457-.013-17.599-1.632-18.961-1.41-1.186-3.448-.772-4.294.872-.807 1.569-.953 4.516-.953 19.217v14.7h-21.783zm54.68-21.497V32.407h19.843l.013 22.158.012 22.16.74 1.43c.407.786.81 1.317.895 1.179.175-.282.435-.96 4.416-11.473 1.57-4.148 3.253-8.583 3.74-9.856l.885-2.315H469.654l-.308.595c-.29.559-3.794 6.533-6.791 11.576a932.188 932.188 0 0 0-3.867 6.614 515.947 515.947 0 0 1-3.178 5.428l-.647 1.061 2.593 5.421c1.425 2.981 4.808 9.993 7.518 15.583 2.71 5.589 4.926 10.204 4.926 10.255 0 .051-5.446.062-12.1.024l-12.102-.069-2.404-7.143c-1.323-3.93-3.468-10.24-4.767-14.023l-2.362-6.88-.068 14.09-.069 14.089H415.66V72.359zm-245.27-30.56V33.2h17.728v17.198h-17.727z" fill="#9a1648" stroke-width=".265"/></svg>