<svg xmlns="http://www.w3.org/2000/svg" width="739.353" height="383.078" viewBox="0 0 195.621 101.356"><path d="M2.871 101.125C1.864 100.87.83 99.986.265 98.9c-.49-.942-.293-1.497.532-1.497.495 0 .672.175.795.793.34 1.698 3.51 2.477 5.398 1.326.702-.428.86-.691.86-1.436 0-1.197-.833-1.775-3.44-2.388-2.308-.543-3.58-1.234-3.803-2.069-.443-1.654.066-3.194 1.342-4.057 1.098-.743 4.134-.69 5.403.095 1.522.941 2.153 2.973.923 2.973-.456 0-.68-.187-.8-.67-.344-1.367-2.858-2.156-4.495-1.41-1.258.573-1.364 2.493-.173 3.13.298.16 1.205.413 2.015.563 2.44.45 3.79 1.157 4.23 2.21.212.508.385 1.194.384 1.526-.001.902-.922 2.24-1.882 2.737-.99.512-3.424.72-4.683.4zm22.133-.184c-.566-.234-1.255-.832-1.654-1.435-.67-1.013-.684-1.127-.684-5.67v-4.635h1.323l.04 3.505c.02 1.928.055 3.685.074 3.903.25 2.783 2.401 4.205 4.623 3.056 1.438-.744 1.593-1.301 1.673-6.013l.072-4.32.728-.083.728-.084v4.371c0 2.848-.112 4.629-.322 5.111-1 2.3-4.041 3.357-6.601 2.295zm115.046.06c-2.332-.867-3.451-2.761-3.469-5.868-.01-1.93.067-2.264.79-3.435.95-1.536 2.078-2.361 3.55-2.597 2.304-.368 4.312.436 5.504 2.204.69 1.025.66 1.432-.119 1.548-.382.056-.7-.193-1.089-.85-1.007-1.709-3.67-2.22-5.317-1.02-2.297 1.67-2.502 6.194-.372 8.203.791.745 1.102.862 2.286.862 1.817-.001 2.967-.713 3.65-2.259.29-.652.453-1.304.364-1.448-.089-.144-.922-.261-1.85-.261-1.748 0-2.103-.178-1.821-.912.139-.362.549-.418 2.58-.355l2.416.076.075 2.888c.08 3.06-.173 3.915-.877 2.962-.204-.276-.412-.626-.463-.779-.05-.153-.523.05-1.049.452-1.177.898-3.268 1.155-4.789.59zm24.962.077c-2.231-.666-3.692-3.01-3.692-5.924 0-2.169.54-3.554 1.874-4.807 1.763-1.655 5.052-1.813 7.086-.34 1.626 1.178 2.247 2.595 2.256 5.147.01 2.532-.67 4.03-2.365 5.213-1.212.847-3.603 1.176-5.159.711zm3.704-1.426c.422-.218 1.1-.834 1.508-1.369.673-.882.741-1.171.741-3.15 0-2.035-.053-2.245-.807-3.176-1.999-2.47-5.703-2.008-6.902.86-.594 1.423-.47 4.082.241 5.136 1.288 1.91 3.448 2.614 5.219 1.699zm8.864 1.438c-1.131-.333-2.179-1.407-2.5-2.562-.151-.546-.276-2.876-.277-5.178v-4.185l.727.084.727.084.133 4.586.132 4.587.898.801c.804.718 1.034.788 2.206.676.956-.092 1.498-.315 2.013-.83.695-.694.705-.756.836-5.261l.132-4.56.75-.085.749-.086-.088 4.764c-.08 4.31-.14 4.834-.632 5.51-1.147 1.57-3.659 2.287-5.806 1.655zm-166.82-.357c0-.362 1.277-3.953 1.984-5.58.19-.436.53-1.329.756-1.984 1.308-3.786 1.334-3.831 2.212-3.918.944-.092 1.009.013 2.4 3.918.442 1.237 1.23 3.413 1.752 4.835.523 1.422.95 2.702.95 2.844 0 .143-.348.259-.773.259-.663 0-.817-.142-1.078-.992-.804-2.621-.571-2.448-3.291-2.448h-2.433l-.607 1.72c-.518 1.468-.7 1.72-1.24 1.72-.368 0-.632-.156-.632-.374zm6.519-4.786c.084-.218.06-.605-.052-.86-.112-.254-.452-1.187-.756-2.073-.346-1.01-.675-1.57-.882-1.5-.182.062-.331.258-.331.437 0 .178-.3 1.089-.666 2.024-.366.935-.608 1.85-.538 2.034.195.506 3.028.452 3.225-.061zm17.423 4.85c-.077-.2-.108-2.863-.069-5.915l.072-5.55h3.217c3.2 0 3.223.006 4.233.818 1.565 1.258 2.077 2.499 2.065 5.004-.012 2.512-.532 3.77-2.065 5.003-.988.795-1.105.82-4.165.912-2.498.074-3.177.018-3.288-.272zm5.91-1.301c1.393-.486 2.03-1.855 2.03-4.36 0-3.516-1.155-4.612-4.86-4.612H36.16v9.26h1.813c.997 0 2.184-.13 2.638-.288zm6.257 1.292c-.075-.196-.105-2.854-.065-5.906l.072-5.55h1.322v11.642l-.596.085c-.328.047-.658-.075-.733-.271zm8.87-5.634V89.2h2.92c3.362 0 4.508.346 5.132 1.553.598 1.155.518 2.267-.225 3.128l-.64.743.905.829c.784.719.904.995.904 2.076 0 2.649-1.58 3.577-6.09 3.577h-2.906zm6.711 4.082c.53-.417.697-.783.693-1.522-.002-.535-.094-1.114-.203-1.287-.361-.567-1.647-.876-3.646-.876h-1.967V99.784h2.213c1.838 0 2.331-.093 2.91-.548zm-.42-5.42c.682-.478.8-1.843.228-2.626-.29-.396-.811-.517-2.646-.613l-2.285-.12v3.771h2.057c1.435 0 2.236-.125 2.646-.412zm5.086 1.338V89.2h1.303l.076 5.69c.042 3.13.037 5.81-.012 5.954-.048.144-.376.262-.727.262h-.64zm4.36 5.634c-.076-.196-.105-2.854-.066-5.906l.072-5.55h.912c.89 0 .977.104 3.5 4.102 1.422 2.256 2.657 4.31 2.743 4.564.452 1.337.65.062.65-4.185v-4.648l.728.084.727.084v11.642l-.812.079c-.887.087-.552.528-5.15-6.803-.948-1.51-1.617-2.343-1.7-2.117-.076.206-.169 2.279-.207 4.607-.067 4.168-.077 4.235-.665 4.318-.328.047-.658-.075-.733-.271zm12.044-5.634V89.2h.662c.652 0 .662.034.706 2.315.025 1.273.018 3.42-.016 4.769-.09 3.68-.254 3.499 3.164 3.499h2.893v1.323H83.52zm8.203 5.572c0-.21.104-.446.232-.526.129-.079.296-.413.371-.743.142-.617 1.33-3.892 1.753-4.832.13-.291.507-1.304.836-2.25 1.012-2.91 1.222-3.217 2.143-3.124.87.088.835.015 3.306 6.961.362 1.019.821 2.269 1.02 2.778.775 1.984.77 2.117-.095 2.117-.73 0-.833-.126-1.404-1.72l-.617-1.72h-4.856l-.573 1.72c-.53 1.593-.629 1.72-1.344 1.72-.496 0-.772-.137-.772-.381zm6.73-4.62c.199-.322-1.248-4.568-1.553-4.562-.247.005-1.738 3.829-1.738 4.455 0 .403 3.047.502 3.292.106zm5.44-.952v-6.01l3.129.095c2.868.086 3.217.153 4.201.804 1.555 1.03 2.195 2.514 2.195 5.092 0 1.736-.112 2.27-.707 3.363-1.12 2.06-2.006 2.458-5.709 2.57l-3.109.095zm6.61 3.974c.972-.881 1.328-1.974 1.327-4.081-.001-2.381-.56-3.549-1.98-4.143-1.175-.49-4.261-.514-4.446-.033-.073.19-.088 2.066-.034 4.167.054 2.1.101 4.043.105 4.316.006.455.192.487 2.247.379 1.689-.089 2.375-.238 2.78-.605zm5.54.325a494.62 494.62 0 0 1 .001-8.863c.019-1.3.063-1.39.682-1.39.724 0 .705-.075.705 2.779 0 .946-.01 3.386-.022 5.424l-.022 3.704h-.661c-.633 0-.663-.072-.683-1.654zm4.38 1.335c-.075-.196-.104-2.854-.065-5.906l.072-5.55.834-.08c.815-.08.897.021 3.703 4.552 1.578 2.547 2.956 4.546 3.062 4.44.106-.106.225-2.154.265-4.552.072-4.294.082-4.36.669-4.444l.595-.084v11.976l-.833-.082c-.762-.076-1.054-.434-3.418-4.184-3.766-5.976-3.391-5.875-3.44-.926-.024 2.328-.06 4.411-.079 4.63-.045.507-1.184.682-1.365.21zm29.636-.276c-.08-.328-.112-2.977-.07-5.887l.074-5.292 2.381-.083c3.423-.12 5.014.126 5.956.92.71.596.791.822.791 2.183 0 1.262-.107 1.619-.637 2.117l-.638.599.638.939c.496.731.637 1.287.637 2.507 0 .863.123 1.799.274 2.08.246.46.182.512-.64.512h-.915l-.161-1.786c-.235-2.601-.545-3.074-2.14-3.27a22.108 22.108 0 0 0-2.637-.133l-1.321.03-.076 2.58c-.075 2.538-.086 2.579-.723 2.579-.45 0-.69-.18-.793-.595zm6.793-6.143c.676-.276 1.113-1.571.824-2.443-.37-1.115-1.217-1.414-3.776-1.338l-2.25.068-.08 1.692c-.119 2.54-.157 2.505 2.534 2.34 1.27-.077 2.507-.22 2.748-.32zm30.12.763v-5.975l3.29.088c2.85.076 3.388.162 4.034.645 1.605 1.2 1.778 3.618.373 5.191-.72.806-.824.835-3.492.98l-2.75.151-.075 2.447c-.075 2.404-.088 2.448-.728 2.448h-.652zm5.946-.752c.717-.3.939-.571 1.08-1.324.361-1.926-.796-2.648-3.983-2.482l-1.587.082-.08 1.692c-.044.93-.018 1.853.058 2.05.188.49 3.325.478 4.512-.018zM31.923 82.133c.59-1.1.709-2.846.216-3.151-.175-.108-1.216-.215-2.315-.238l-1.998-.042-.075-2.928c-.07-2.768-.04-2.97.563-3.67.606-.704.772-.747 3.307-.849l2.668-.107.076 2.875.075 2.874 1.82.08c1.642.07 1.801.033 1.64-.385-.387-1.011-.464-2.72-.162-3.635.44-1.331 1.298-1.702 4.1-1.77 2.214-.052 2.35-.023 2.683.579.618 1.114.48 1.214-1.883 1.361-1.239.077-2.43.287-2.646.467-.59.49-.502 2.268.145 2.914.492.493.818.531 3.902.463l3.366-.074.079-1.665c.074-1.554.136-1.7.926-2.182.466-.284.931-.517 1.035-.517.103 0 .222.981.264 2.182l.077 2.182 1.11.081c1.084.079 1.114.06 1.288-.87.098-.522.112-1.278.032-1.68-.17-.846-.008-1.17.794-1.592 1.03-.542 1.141-.386 1.146 1.614.005 2.329.173 2.645 1.346 2.533l.899-.086.075-2.405.076-2.406.916-.282.917-.281.004 2.423c.002 1.332.104 2.58.225 2.771.139.219.607.318 1.253.265l1.031-.085.074-3.609c.068-3.337.113-3.619.595-3.745.287-.075.76-.074 1.051.002.501.13.53.36.53 4.308 0 3.37-.076 4.233-.395 4.497-.3.25-3.706.336-14.353.363l-13.96.037-.079 1.351c-.087 1.51-.894 2.537-2.24 2.854l-.731.172zm.413-5.72c.085-.339.117-1.143.071-1.786-.075-1.049-.157-1.178-.798-1.252-1.381-.159-1.799.323-1.799 2.077v1.578h1.186c1.02 0 1.207-.086 1.34-.617zm126.393 6.103c.3-.456.462-1.221.462-2.17 0-1.638.222-1.504-2.646-1.586l-1.72-.05-.075-2.746c-.046-1.654.045-3.04.23-3.485.4-.968 1.646-1.33 4.211-1.221l1.985.083.075 2.844.075 2.845H166.267l.163-1.019c.698-4.366 6.845-4.179 7.367.225l.079.661h4.177c4.522 0 4.674-.048 4.682-1.48.007-1.2-.713-1.562-3.11-1.562-2.265 0-2.645-.184-2.18-1.053.252-.472.549-.535 2.534-.535 3.315 0 4.612.706 4.612 2.51 0 .38-.181 1.043-.403 1.472l-.404.78h1.358c1.19 0 1.334-.057 1.167-.462-1.58-3.827.043-5.358 5.675-5.358 1.89 0 2.371.08 2.5.418.337.877.173 6.08-.208 6.6-.352.482-.82.503-10.685.47l-10.317-.033-.968.689c-1.306.93-3.13.95-4.392.052-.779-.555-1.22-.643-3.407-.684-1.382-.025-2.667.013-2.856.086-.215.082-.343.602-.343 1.39 0 1.007-.14 1.398-.698 1.956-.383.384-.85.697-1.036.697-.187 0-.557.084-.823.186-.465.178-.466.157-.022-.52zm12.465-4.712c1.336-1.05.579-3.156-1.136-3.156-.856 0-1.87 1.03-1.87 1.9 0 .653 1.15 1.805 1.803 1.805.278 0 .82-.247 1.203-.549zm-12.003-2.626v-1.852h-.793c-1.257 0-1.74.687-1.63 2.317l.093 1.387h2.33zm33.205-.133v-1.852l-1.67.027c-1.936.03-2.524.433-2.488 1.704.042 1.491.955 2.083 3.1 2.01l1.058-.037zM9.723 81.951c-.427-.516-.145-1.388.504-1.557.74-.194 1.393.39 1.286 1.148-.11.772-1.269 1.037-1.79.409zm3.172-.124c-.45-.84-.075-1.398.875-1.306.724.07.826.18.826.874 0 .665-.115.807-.71.876-.492.057-.795-.078-.99-.444zm167.042-.435c-.315-1.254 1.151-2.03 1.744-.923.397.742-.1 1.588-.93 1.588-.471 0-.693-.182-.814-.665zM1.61 78.639c-.06-.06-.11-1.204-.11-2.54 0-2.094.083-2.555.605-3.33.746-1.109 1.886-1.51 4.157-1.463l1.72.035.132 2.778.132 2.778h5.292l.132-2.778.133-2.778.86-.083c.473-.045.873.014.89.133.116.84.18 6.165.08 6.697l-.124.662H8.615c-3.792 0-6.945-.05-7.005-.11zm4.333-3.525c-.087-2.132-.44-2.483-1.678-1.672-.569.373-.649.62-.649 2.006v1.582H6.021zm12.013 3.543c-.275-.176-.28-.361-.023-.924.315-.693.36-.703 2.954-.703h2.635l-.11-1.71c-.06-.94-.202-1.803-.316-1.918-.115-.115-1.108-.234-2.206-.266-1.099-.03-2.063-.122-2.142-.201-.08-.08.043-.54.272-1.02.416-.874.422-.876 2.098-.782 2.197.124 3.485.525 3.938 1.227.234.362.406 1.603.473 3.413l.106 2.844H22.32c-1.823 0-3.473.059-3.667.13-.194.071-.507.03-.697-.09zm48.036.017l-.728-.092V69.357h.64c1.489 0 1.477-.038 1.477 4.762 0 4.759.009 4.731-1.39 4.555zm5.754-.061c-.727-.076-1.471-.232-1.653-.347-.233-.147-.33-1.094-.33-3.192v-2.983l.91-.28c.502-.153.978-.213 1.059-.132.08.081.147 1.32.147 2.754v2.607l5.622-.071 5.623-.072.132-2.378c.127-2.28.163-2.394.86-2.727.402-.192.848-.275.993-.186.149.092.264 1.412.264 3.029 0 4.262.375 4.03-6.628 4.077-3.121.02-6.27-.024-6.999-.1zm17.135.052c-.566-.08-.575-.119-.197-.85.391-.756.43-.767 2.974-.842l2.578-.076.09-.789c.126-1.114-.405-2.7-.951-2.84-.254-.066-1.233-.146-2.176-.179-.942-.033-1.751-.098-1.797-.144-.046-.045.123-.515.375-1.044.365-.765.565-.926.986-.793.291.092 1.132.153 1.869.134 2.93-.074 3.588.79 3.588 4.716v2.66l-.86.01c-.472.006-1.99.035-3.373.066-1.382.03-2.78.018-3.106-.029zm11.005.022c-.717-.162-.827-1.197-.18-1.689l.563-.428-.701-.92c-.667-.874-.702-1.073-.702-4.021v-3.102l.794.565c.79.562.794.58.794 3.152 0 2.17.078 2.658.484 3.025 1.235 1.118 1.897.02 1.897-3.147 0-2.175.06-2.464.612-2.984.337-.316.694-.575.794-.575.1 0 .182 1.36.182 3.022 0 2.838-.04 3.07-.662 3.809-.8.95-.82 1.198-.134 1.67.695.477.448 1.548-.36 1.565a57.8 57.8 0 0 0-1.755.084c-.655.04-1.387.029-1.626-.026zm1.93-1.26c0-.139-.128-.294-.284-.347-.157-.052-.284.104-.284.347 0 .242.127.398.284.346.156-.052.284-.208.284-.346zm10.94 1.19c-1.6-.073-3.058-.228-3.24-.346-.232-.15-.331-1.086-.331-3.123V72.24l.918-.383c.504-.211.98-.384 1.058-.384.077 0 .14 1.25.14 2.779v2.778h11.378V72.28l.824-.426c.966-.5 1.224-.319 1.34.941l.085.926 1.521.08 1.521.08v-1.028c0-.565.07-1.097.155-1.182.085-.085.561.085 1.058.379.775.457.904.675.904 1.533 0 1.397-.507 1.72-2.753 1.754-1.033.016-2.026.046-2.208.067-.209.023-.33.468-.33 1.209 0 1.835-.318 2-3.922 2.028-1.7.014-3.566.044-4.148.066-.582.023-2.368-.018-3.97-.09zm21.709.04c-.431-.083-.466-.33-.352-2.515.078-1.495.292-2.742.558-3.257.591-1.143 2.187-1.729 4.42-1.624l1.712.08.075 2.844.075 2.845h1.203c1.188 0 1.2-.01 1.035-.763-.306-1.394-.24-3.428.127-3.87.685-.825 1.76-1.152 3.978-1.21 2.2-.059 2.228-.051 2.674.709.248.422.46.84.47.927.011.088-1.069.23-2.4.316-1.33.087-2.55.289-2.711.45-.405.404-.368 2.545.05 2.965.218.217 1.25.377 2.813.434 2.293.084 2.494.136 2.81.727.187.35.261.716.164.813-.178.179-15.817.3-16.701.13zm4.299-3.513c.084-1.904-.158-2.24-1.389-1.93-.743.186-1.202 1.127-1.202 2.461 0 1.27.14 1.397 1.445 1.301l1.068-.079zm-11.577 3.089c-.532-.641-.083-1.468.796-1.468.597 0 .808.146.933.647.09.355.085.772-.01.926-.253.408-1.349.341-1.719-.105zm-11.112-5.556c-.42-.507-.12-1.398.545-1.609.675-.214 1.296.299 1.296 1.071 0 .9-1.24 1.262-1.841.538zM1.6 69.505c-.225-.587-.018-1.252.49-1.571.363-.229.577-.172 1.019.27.463.463.508.655.259 1.12-.346.648-1.542.77-1.768.18zm3.138.075c-.462-.462-.41-.861.178-1.394.41-.371.615-.401 1.074-.155.827.442.646 1.694-.26 1.8-.365.043-.811-.07-.992-.251zm71.69-.012c-.843-.843.202-2.106 1.27-1.534.545.291.65.701.37 1.433-.19.494-1.186.555-1.64.101zm58.332.142c-.688-.689.327-2.137 1.25-1.783.563.216.8 1.112.416 1.575-.328.394-1.351.522-1.666.208zm3.012-.329c-.204-.381-.158-.639.19-1.057.843-1.014 2.247-.026 1.601 1.128-.332.594-1.459.55-1.79-.07zm-50.747-20.75c-5.566-5.562-10.12-10.198-10.12-10.304 0-.242 40.86-.254 41.102-.011.234.234-20.069 20.462-20.519 20.443-.188-.008-4.897-4.566-10.463-10.128zm19.714.016c4.983-4.987 9.06-9.155 9.06-9.26 0-.106-8.216-.193-18.257-.193-10.04 0-18.256.078-18.256.173 0 .2 18.058 18.347 18.259 18.348.074 0 4.211-4.08 9.194-9.068zm-17.123-.155c-4.387-4.389-7.904-8.097-7.815-8.242.568-.919 1.517-.155 8.595 6.918l7.185 7.18 7.043-7.072c5.769-5.794 7.2-7.099 7.918-7.215.638-.104.874-.043.871.223-.002.201-3.562 3.926-7.912 8.277l-7.908 7.91zm1.905-1.958c-3.237-3.239-5.885-6.021-5.885-6.183 0-.175.346-.253.86-.193.71.082 1.75.99 5.947 5.181l5.086 5.082 5.1-5.064c5.107-5.07 5.414-5.297 6.95-5.132.252.027-11.758 12.198-12.037 12.198-.075 0-2.785-2.65-6.021-5.889zm1.85-1.862c-2.217-2.227-4.03-4.189-4.03-4.36 0-.193.308-.278.8-.22.82.095 2.267 1.34 5.725 4.923l1.66 1.72 3.249-3.23c2.465-2.45 3.457-3.265 4.11-3.377.598-.103.86-.045.86.19 0 .31-7.907 8.401-8.21 8.401-.074 0-1.948-1.821-4.164-4.047zm1.588-2.025c-1.202-1.265-2.105-2.38-2.006-2.48.557-.557 1.612-.099 3.051 1.325l1.52 1.504 1.577-1.504c1.217-1.16 1.763-1.504 2.39-1.504.448 0 .814.09.814.202 0 .375-4.478 4.825-4.82 4.79-.187-.019-1.323-1.069-2.526-2.333zm1.816-1.705c-.635-.676-.324-1.266.365-.694.267.222.515.228.899.022.799-.427.99.16.251.775-.785.654-.805.653-1.515-.103zM72.01 33.374c-.668-.291-17.33-16.988-17.33-17.367 0-.154 1.267-1.161 2.815-2.238a472.606 472.606 0 0 0 3.77-2.645c.526-.377 3.158-2.272 5.85-4.211C74.787 1.388 76.84-.037 77.08.001c.122.018.282 2.896.355 6.394l.132 6.36 19.976.015 19.976.015.071-6.374c.06-5.307.134-6.375.448-6.375.207 0 4.223 2.758 8.925 6.128 4.701 3.37 8.905 6.375 9.342 6.676a218.23 218.23 0 0 1 2.597 1.848l1.804 1.3-8.815 8.82-8.815 8.821-25.268-.012c-13.897-.007-25.506-.116-25.797-.243zm58.992-8.994c5.091-5.094 8.096-8.288 7.938-8.438-.14-.132-.745-.58-1.343-.995-1.2-.833-7.001-4.996-11-7.894-4.571-3.312-7.295-5.165-7.595-5.165-.205 0-.293 1.644-.293 5.47 0 4.717-.06 5.535-.438 5.952-.417.461-1.403.484-20.579.484-17.8 0-20.209-.048-20.728-.412-.577-.403-.588-.522-.588-6.085 0-3.12-.051-5.674-.114-5.674-.119 0-19.7 13.93-20.088 14.291-.124.116 3.467 3.913 7.98 8.438l8.206 8.228 25.225-.001h25.225l8.192-8.199zm-65.725-.411l-7.29-7.289.794-.648c.944-.77 1.19-.808 1.19-.185 0 .256 2.948 3.41 6.55 7.011l6.551 6.547h49.059l6.491-6.466c4.293-4.275 6.491-6.65 6.491-7.011 0-.3.149-.542.33-.537.403.01 1.524.915 1.518 1.224-.002.122-3.252 3.466-7.22 7.432l-7.217 7.21H72.57zm2.447-2.031c-5.824-5.803-5.9-5.894-5.9-6.992 0-.888.141-1.225.697-1.662 1.114-.876 1.326-.715 1.39 1.052l.058 1.6 5.004 5.015 5.004 5.014h47.074l5.18-5.123 5.178-5.124v-3.314l.86.66c.705.543.874.872.938 1.825l.078 1.162-5.637 5.63c-3.1 3.096-5.814 5.741-6.03 5.879-.24.151-9.752.25-24.195.253l-23.799.004zm2.103-2.213l-4.3-4.348v-2.1c0-2.072.013-2.111.886-2.777.486-.37.963-.674 1.058-.674.095 0 .173 1.221.173 2.715v2.715l3.381 3.385c1.86 1.861 3.54 3.482 3.734 3.602.194.12 10.516.215 22.938.21l22.585-.008 3.513-3.543a982.036 982.036 0 0 0 3.617-3.657c.057-.064.116-1.21.132-2.547.017-1.483.14-2.47.315-2.527.157-.053.603.155.992.46.66.52.706.693.706 2.68v2.125l-4.341 4.338-4.342 4.339-23.374-.02-23.373-.02zm2.514-1.977l-2.844-2.932v-3.17c0-3.125.01-3.178.727-3.81.4-.351.817-.643.926-.648.11-.005.199 1.682.199 3.747v3.756l2.05 2.065 2.05 2.065h44.22l2.034-2.083 2.033-2.083v-3.561c0-1.959.076-3.637.169-3.73.092-.093.51.074.926.37l.757.54v6.727l-2.876 2.836-2.875 2.836-22.326.003-22.326.003zm2.513-1.942l-1.389-1.295.008-4.525.008-4.526.671-.49c.37-.268.734-.426.81-.35.075.075.122 2.156.103 4.623-.034 4.48-.033 4.486.661 5.312l.696.827h42.16l.724-.672.725-.673V9.286c0-2.614.09-4.748.199-4.743.109.005.488.25.842.544.635.529.643.595.635 4.91l-.008 4.373-1.31 1.31-1.311 1.31-21.417.056-21.418.056z" fill="#fff" stroke-width=".265"/></svg>