<svg xmlns="http://www.w3.org/2000/svg" width="2156.067" height="421.531" viewBox="0 0 570.459 111.53"><path d="M51.86 111.41c-13.427-.863-25.91-6.56-35.595-16.246C7.622 86.521 2.31 75.99.517 63.934c-.648-4.352-.693-11.536-.099-15.797C2.294 34.685 8.945 22.428 19.13 13.65 34.105.745 54.434-3.335 73.164 2.807c8.35 2.738 15.672 7.244 21.947 13.505 8.132 8.115 13.306 17.994 15.521 29.63.782 4.112.974 12.536.387 16.999-3.859 29.326-29.547 50.373-59.159 48.47zm10.438-4.617c5.818-.762 11.228-2.415 16.364-4.997 18.187-9.147 29.197-27.716 28.41-47.916-.31-7.948-1.965-14.383-5.502-21.392-7.011-13.894-20.262-24.07-35.347-27.143-8.298-1.692-17.188-1.33-25.085 1.02a51.675 51.675 0 0 0-31.35 26.198C6.293 39.48 4.631 45.96 4.322 53.88c-.95 24.354 15.218 45.812 39.073 51.859 5.592 1.417 12.986 1.83 18.903 1.054zm3.47-7.564c.126-.203.663-1.024 1.194-1.825 2.173-3.272 4.478-8.664 4.478-10.474v-.857l-1.39.77c-2.489 1.381-6.113 2.396-9.128 2.556-1.491.079-2.712.082-2.712.007s.481-.658 1.069-1.295c4.171-4.52 5.196-9.588 2.413-11.93-4.032-3.392-10.064 3.105-10.557 11.373-.125 2.088-.21 2.433-.57 2.322-.234-.072-1.972-.316-3.864-.543-1.892-.228-4.153-.593-5.026-.813-3.231-.812-5.57-2.765-6.247-5.216-.17-.612-.612-1.887-.983-2.833-.628-1.603-1.136-5.292-.728-5.292.095 0 .66.248 1.254.552.595.303 1.692.614 2.437.69 2.24.226 3.03-.674 4.45-5.07.913-2.828 1.603-3.93 2.859-4.566.509-.258.969-.492 1.02-.52.367-.197-1.295-1.765-2.489-2.349-1.284-.628-1.682-.697-3.384-.588-2.237.144-3.966.949-6.04 2.814l-1.278 1.149.006 2.555c.003 1.405.112 3.012.242 3.57.233 1.006.229 1.014-.47.842-1.182-.29-2.965-1.46-4.442-2.914-1.152-1.134-1.62-1.412-2.605-1.547-2.774-.38-5.221-2.647-7.16-6.634-.65-1.336-1.182-2.562-1.182-2.725 0-.163-.41-.55-.91-.86-1.031-.637-3.239-2.988-3.886-4.138-.38-.674-.388-.91-.072-1.957.198-.655.667-1.547 1.042-1.984l.683-.794-.156.972c-.194 1.2.12 1.432 1.004.737 1.84-1.447 3.538-1.63 5.967-.643.905.368 1.776.589 1.934.49.634-.391-.145 1.948-1.526 4.581-.789 1.504-1.434 3.077-1.434 3.494 0 1.142 2.003 4.94 3.01 5.708.474.362 1.639.861 2.587 1.11l1.726.453 1.196-.701c.658-.386 2.55-1.715 4.205-2.955 1.654-1.239 3.725-2.605 4.6-3.037 5.758-2.833 13.44-.264 15.475 5.174 1.05 2.804.567 4.777-1.78 7.287-1.444 1.543-4.329 3.513-6.232 4.256-.754.294-2.14.607-3.08.695-1.637.154-1.74.206-2.484 1.266a4.98 4.98 0 0 0-.9 2.394c-.107 1.115-.027 1.402.6 2.148 1.334 1.584 4.367 2.692 7.35 2.683.757-.002 1.509-.092 1.672-.199.162-.107.496-.908.742-1.782 1.316-4.679 3.465-8.442 5.852-10.247 5.274-3.988 12.138-.978 12.093 5.303-.015 1.998-.54 3.683-1.57 5.032l-.7.918.772-.184c3.467-.828 6.86-4.136 8.171-7.965.168-.49.21-.475.575.215.217.41.557 1.523.756 2.474.199.951.414 1.781.478 1.845.272.272 1.338-2.584 1.693-4.534.647-3.556-.06-10.023-1.375-12.565-.22-.424-.399-.836-.399-.916 0-.59 3.094.519 4.76 1.705.41.292.805.53.878.53.34 0 .456-3.3.184-5.284-.574-4.192-2.7-9.585-4.7-11.92l-.972-1.138 1.537.181c.846.1 2.21.408 3.032.685.822.277 1.55.448 1.62.378.28-.279-.927-2.98-2.512-5.628-.924-1.543-1.76-3.137-1.859-3.542-.172-.715-.121-.696 1.762.662 5.365 3.866 6.982 6.378 7.53 11.697l.19 1.834-1.029-.61c-1.083-.642-3.031-1.406-3.187-1.25-.05.05.15.795.447 1.655 1.806 5.25 2.189 11.62 1.024 17.051l-.286 1.335-1.057-1.2c-.581-.66-1.195-1.2-1.365-1.2-.222 0-.313 1.276-.325 4.564-.018 5.23-.46 8.19-1.805 12.104-.475 1.382-.966 2.745-1.09 3.029-.627 1.42 4.632-3.385 6.373-5.824 1.617-2.266 2.901-5.096 3.715-8.188.66-2.506.707-3.111.896-11.639.155-6.99.295-9.337.626-10.525.445-1.593 1.152-3.122 1.862-4.027.383-.488.403-.332.256 1.984-.188 2.987.107 5.291 1.382 10.78.52 2.239 1.026 4.867 1.125 5.84l.18 1.769.834-1.985c.976-2.32 2.029-6.34 2.493-9.525.425-2.907.426-10.784.002-14.086-.298-2.32-1.329-7.712-1.733-9.065-.087-.29.272.364.797 1.456 5.209 10.814 5.701 23.835 1.33 35.154-4.854 12.566-15.236 22.4-27.942 26.464-3.56 1.139-4.1 1.251-3.82.796zM37.301 79.214c.296-.4.51-.846.474-.992-.035-.146-.69-.52-1.456-.83l-1.392-.566.001.698c.001.877.92 2.418 1.443 2.418.216 0 .634-.328.93-.728zm10.222-7.005c.952-.836 1.692-2.143 1.692-2.988 0-.5-1.518-1.185-2.624-1.185h-.789l.398.953c.22.524.362 1.268.318 1.654-.075.64-.182.7-1.259.7-1.162 0-1.18.014-1.388 1.058-.116.582-.273 1.33-.35 1.661-.14.597-.125.595 1.442-.196.87-.44 2.022-1.185 2.56-1.657zM31.24 70.79c-.155-.841-.283-1.984-.283-2.54 0-1.263-.376-1.294-1.711-.14-.782.676-.966.994-.829 1.428.195.613 2.76 3.128 2.973 2.915.073-.073.006-.822-.15-1.663zM18.905 58.438c.496-.757.278-1.633-.542-2.17-1.007-.66-.826-1.866.375-2.499.831-.437.307-1.08-.88-1.08-.877 0-3.294 1.426-3.508 2.07-.107.32 3.544 4.28 3.947 4.28.118 0 .391-.27.608-.6zm48.042 13.416c-.01-1.66-.868-3.622-2.95-6.748-3.11-4.669-3.54-5.698-3.53-8.448.007-2.021.124-2.543 1.16-5.159.632-1.6 1.64-4.28 2.237-5.953 1.06-2.967 1.087-3.128 1.09-6.482.003-3.125-.06-3.591-.694-5.094-.383-.91-.608-1.653-.5-1.653.312 0 2.73 2.66 3.685 4.056 1.745 2.55 1.995 3.699 2.021 9.305.026 5.463.086 5.861 1.235 8.162l.772 1.547-1.36-.74c-.748-.407-1.914-1.257-2.592-1.888-1.148-1.069-1.257-1.115-1.589-.675-.639.85-.221 2.72 1.36 6.087 1.891 4.025 2.413 5.99 2.185 8.222-.194 1.893-.703 3.342-1.785 5.082l-.74 1.19zM54.79 63.46c-.043-5.476-1.979-11.098-4.294-12.47-1.14-.676-1.988-.519-3.172.586l-1.075 1.003 1.219.77c1.55.98 2.488 2.334 2.703 3.9.29 2.11.02 2.218-1.507.604-2.381-2.518-4.351-3.157-7.643-2.477-1.898.392-3.235.131-4.351-.849-1.26-1.105-1.734-2.285-1.927-4.793-.198-2.56-.694-3.274-2.473-3.559l-1.105-.177.853-.358c1.012-.426 2.999-.47 3.722-.083.282.15.976 1.193 1.54 2.315 1.24 2.464 1.753 2.96 3.365 3.262 1.935.362 3.062-.07 4.394-1.685 2.835-3.435 3.923-4.028 6.25-3.405.644.172 1.23.254 1.302.181.073-.072.239-1.832.37-3.911.13-2.079.423-4.349.65-5.044.874-2.678 2.543-3.644 5.42-3.138 1.717.303 3.446 1.066 2.457 1.085-.671.012-2.27 1.06-3.15 2.062-1.418 1.618-2.797 4.918-3.697 8.849l-.406 1.772.806 1.27c2.546 4.012 2.78 10.687.538 15.3l-.769 1.581-.02-2.59zm-28.998-.73c.754-2.503 2.604-4.918 4.886-6.378 3.033-1.939 6.421.293 4.903 3.23-.49.949-.573.957-1.231.12-1.144-1.455-4-.58-7.065 2.163-1.37 1.227-1.651 1.39-1.493.864zm-1.59-3.426c.846-3.195 4.13-7.454 6.021-7.809 1.029-.193 2.409.35 2.678 1.053.12.313-.038.407-.695.409-2.073.006-5.246 2.475-7.34 5.712-.532.822-.775 1.055-.664.635zm1.069-7.586c1.053-2.52 3.123-4.093 4.823-3.666.646.162.604.21-.697.813-.761.353-2.086 1.343-2.945 2.203-1.473 1.473-1.54 1.51-1.181.65zm-9.306-4.717c2.09-3.977 6.323-8.52 10.57-11.347 1.956-1.301 2.259-1.61 2.553-2.605 1.365-4.627 5.221-7.59 15.395-11.833l3.34-1.393.304-2.675c.167-1.471.425-2.796.573-2.944.428-.428 2.972 1.057 4.367 2.548 1.167 1.248 1.28 1.305 2.158 1.097.89-.21.952-.305 1.538-2.335 1.072-3.713 1.751-5.249 2.779-6.282 1.825-1.835 3.456-1.346 8.372 2.512 1.62 1.272 4.198 3.635 5.726 5.25 2.755 2.914 2.808 2.953 6.44 4.732 2.014.987 4.614 2.51 5.778 3.383 2.078 1.558 5.928 5.286 4.63 4.482-.765-.475-3.625-1.386-5.147-1.641l-1.046-.175 1.089 1.18c3.71 4.025 5.127 8.844 4.453 15.14-.211 1.969-.442 1.968-.92-.004-.968-3.987-4.4-8.042-9.647-11.396l-.768-.491.188.999c.573 3.054-1.85 4.203-5.329 2.526-1.259-.607-4.039-3.125-4.039-3.66 0-.154.327-.283.728-.285 1.419-.008 1.484-.189 1.136-3.178-.393-3.38-1.302-6.605-2.677-9.5-1.73-3.64-4.25-6.801-5.816-7.299-1.485-.471-2.92 1.71-4.185 6.363-.645 2.37-.935 3.028-1.605 3.626-.45.403-1.045.732-1.322.732-.481 0-.485-.049-.087-1.062.23-.583.337-1.14.24-1.238-.257-.257-3.929.644-6.388 1.568-1.164.437-4.498 1.96-7.408 3.386-7.082 3.469-8.632 4.889-10.19 9.335-.454 1.295-.604 1.443-2.686 2.643-3.22 1.856-6.662 4.569-10.598 8.354l-3.473 3.34zm23.624-1.58c-1.577-.561-1.673-.844-.338-.994 1.68-.19 3.451-1.126 4.933-2.608 1.285-1.285 3.178-4.622 3.178-5.603 0-.444-.184-.357-1.165.546-1.57 1.447-3.195 2.251-4.23 2.093-1.146-.174-1.548.105-2.754 1.911-.968 1.45-1.086 1.542-1.448 1.129-.972-1.108-.678-2.696.748-4.036.823-.773.816-1.147-.029-1.532-.881-.401-1.525-1.904-1.191-2.781.289-.76.808-1.16.808-.624 0 .499.857 1.247 1.429 1.247.254 0 .971-.299 1.594-.664 1.08-.633 1.227-.651 3.104-.39 2.157.3 3.907.074 4.19-.54 1.012-2.192 1.329-2.601 2.912-3.765 3.432-2.522 3.675-2.886 2.596-3.891-.724-.675-.331-.703 1.642-.117 1.805.536 3.298 1.923 3.027 2.812-.31 1.016-.802 1.382-4.337 3.229-1.879.98-3.611 2-3.85 2.264-.413.455-.379.49.64.662.771.13 1.076.31 1.076.637 0 .25-.804 1.586-1.786 2.967-1.635 2.3-2.607 4.085-3.598 6.606-.517 1.316-1.71 1.835-4.181 1.82-1.07-.006-2.406-.176-2.97-.377zm4.96-9.268l1.41-1.455h-2.725l.105.895c.116.996-.294 1.437-.884.948-.53-.44-.504.117.03.652.23.228.47.415.536.415.065 0 .753-.654 1.528-1.455zm-5.288-6.001c.562-.858 1.398-1.44 4.51-3.144 1.674-.917 2.777-1.703 3.042-2.17.352-.617.539-.706 1.21-.574.86.17 2.025.898 2.18 1.365.116.346-.84 1.293-1.826 1.81-.388.204-2.055.737-3.704 1.185-2.521.686-3.688 1.114-5.606 2.056-.124.061-.036-.177.194-.528zm26.178-2.21c-.898-.9-2.176-1.98-2.84-2.4-.665-.42-1.273-.934-1.353-1.142-.22-.573.35-2.968.935-3.93.285-.47.736-.853 1.002-.853 1.091 0 2.856 2.81 3.584 5.707.527 2.1.805 4.358.53 4.3-.124-.025-.96-.782-1.858-1.682zm220.434 80.512c.199-.475 2.214-4.962 4.479-9.971l4.116-9.108-11.135-24.626c-6.125-13.545-11.195-24.776-11.266-24.958-.103-.26 1.953-.33 9.754-.33h9.885l6.083 17.714c3.346 9.744 6.156 17.631 6.245 17.53.089-.103 2.827-8.074 6.086-17.712l5.926-17.526 9.856-.003c5.42-.002 9.85.086 9.845.195-.006.11-7.013 15.796-15.571 34.86l-15.561 34.66-9.552.069-9.552.07.362-.864zm-43.646-18.356c-9.334-1.342-13.287-2.779-16.826-6.116-2.048-1.931-3.279-4.063-3.82-6.615-1.016-4.798-.001-8.81 3.054-12.065 3.427-3.652 9.389-5.985 18.65-7.297 3.069-.435 10.2-1.082 11.925-1.082.393 0 .432-.245.321-1.975-.141-2.207-.708-3.321-2.212-4.352-1.74-1.192-3.12-1.45-7.785-1.45-4.78 0-7.443.367-12.7 1.75-1.673.44-3.255.816-3.514.834-.367.026-.942-1.04-2.599-4.82-1.17-2.67-2.086-4.895-2.036-4.945.448-.447 9.11-2.496 13.441-3.178 3.64-.574 13.402-.814 16.556-.407 11.556 1.492 16.906 6.307 17.83 16.046.151 1.598.274 9.492.274 17.625v14.732l-1.389.515c-1.944.72-5.775 1.584-9.838 2.217-2.737.426-5.026.554-10.997.617-4.148.044-7.898.029-8.335-.034zm12.436-10.623l.793-.232.071-6.313c.04-3.473-.02-6.392-.132-6.487-.287-.246-6.378.197-9.09.66-5.538.947-8.179 3.037-8.179 6.473 0 3.02 2.104 5.056 6.188 5.99 1.76.403 8.878.34 10.349-.09zm98.028 10.38c-3.594-.446-8.6-1.465-11.377-2.316l-1.985-.608-.067-35.112-.067-35.113H357.454v23.61l.596-.173c3.705-1.08 10.089-1.52 14.01-.966 5.73.81 10.67 2.976 14.203 6.228 2.379 2.189 4.627 5.757 5.675 9.005 1.22 3.779 1.54 9.064.835 13.747-.567 3.758-1.075 5.473-2.515 8.478-3.286 6.855-9.042 10.858-18.516 12.878-3.353.715-14.44.913-19.05.341zm13.636-11.647c5.764-1.5 8.812-6.845 8.52-14.935-.18-4.97-1.456-8.286-4.07-10.582-2.782-2.441-7.764-3.17-12.326-1.804l-.998.299v26.88l.992.166c.546.091 1.112.206 1.257.255.788.268 5.248.08 6.625-.279zm48.308 11.625c-12.573-1.707-18.925-7.036-18.87-15.831.065-10.5 9.363-15.49 31.604-16.958l2.58-.17v-1.706c0-4.021-2.479-5.84-8.334-6.114-3.739-.175-8.866.464-13.626 1.698-1.965.51-3.81.982-4.101 1.05-.463.109-.8-.498-2.69-4.852l-2.161-4.976.97-.344c2.082-.739 8.015-2.185 11.289-2.751 3.022-.523 4.356-.595 10.98-.595 6.675 0 7.83.064 10.056.554 8.028 1.768 12.535 5.635 14.224 12.202.412 1.6.459 3.524.459 18.823v17.041l-1.837.62c-2.514.848-7.76 1.866-12.054 2.338-4.545.5-14.708.485-18.49-.029zm14.388-10.352l.794-.238.07-6.481.071-6.48-1.658.089c-10.89.586-15.223 2.41-15.722 6.618-.137 1.158-.051 1.605.537 2.808.97 1.982 2.884 3.219 5.987 3.87 1.405.296 8.777.157 9.921-.186zM128.59 89.024c0-.098 2.143-15.046 4.762-33.218 2.62-18.171 4.763-33.153 4.763-33.291 0-.156 4.077-.252 10.65-.251h10.649l7.011 20.633c3.856 11.348 7.086 20.634 7.177 20.636.091.002 1.733-4.61 3.65-10.248 1.915-5.64 5.065-14.896 7-20.572l3.516-10.318 10.603-.07 10.603-.069.292 1.79c.58 3.556 9.282 64.183 9.282 64.663 0 .47-.386.493-8.569.493h-8.569l-.156-1.125c-.086-.618-1.298-10.709-2.693-22.423-1.394-11.714-2.623-21.523-2.73-21.797-.136-.348-2.508 6.025-7.827 21.034a9961.23 9961.23 0 0 1-8.142 22.922l-.51 1.389H167.853l-7.899-22.291c-4.345-12.26-8.003-22.576-8.13-22.923-.127-.348-.288-.575-.358-.505-.07.07-1.314 9.999-2.765 22.064-1.45 12.064-2.705 22.322-2.787 22.795l-.15.86h-8.587c-4.723 0-8.587-.08-8.587-.178zm325.702-23.47v-23.65l2.976-.832c7.321-2.049 13.901-2.934 21.815-2.934 7.785 0 12.897.782 17.41 2.666 4.822 2.012 7.987 5.44 9.123 9.882.51 1.995.534 2.9.534 20.302v18.214h-17.992l-.003-15.94c0-9.088-.112-16.619-.259-17.517-.571-3.488-2.792-5.34-6.794-5.665-2.463-.2-4.987.022-7.053.623l-1.503.437v38.062H454.29V65.554zm59.266-12.6V16.706h17.992v22.125c0 18.378.06 22.076.352 21.834.193-.161 3.974-4.993 8.4-10.738l8.05-10.446 10.293-.01c9.778-.01 10.274.013 9.898.453-.367.43-17.478 21.79-17.997 22.466-.208.27 6.484 9.313 17.832 24.1l2.081 2.712h-20.328l-9.055-12.305c-4.98-6.768-9.16-12.37-9.29-12.45-.137-.086-.236 5.07-.236 12.304v12.451h-17.992V52.954z" fill="#fff" stroke-width=".265"/></svg>