<svg xmlns="http://www.w3.org/2000/svg" width="2661.334" height="767.475" viewBox="0 0 704.144 203.061"><path d="M447.499 202.969c-.776-.076-3.237-.31-5.468-.52-15.117-1.427-29.752-5.92-40.7-12.495-15.872-9.533-25.7-23.053-29.623-40.75-.961-4.336-1.644-9.678-1.644-12.862v-1.954H427.539l.364 1.499c2.975 12.268 6.736 18.945 12.231 21.716 7.985 4.026 22.115 5.216 32.412 2.729 8.538-2.062 14.003-5.648 16.328-10.713.761-1.658.913-2.487.886-4.824-.06-5.188-1.827-8.971-6.049-12.955-5.697-5.374-13.877-8.7-32.861-13.362-5.53-1.358-13.626-3.35-17.992-4.428-9.667-2.385-20.862-6.028-26.867-8.741-20.122-9.092-29.753-22.286-30.535-41.83-.626-15.66 4.156-29.247 14.087-40.025 10.563-11.463 27.953-19.293 49.313-22.204 13.787-1.879 31.19-1.623 44.45.654 10.439 1.793 21.834 5.95 29.242 10.666 12.424 7.911 21.052 20.131 24.555 34.777.807 3.374 1.941 10.855 1.941 12.799v.864h-54.206l-.41-1.78c-.95-4.111-5.184-11.337-8.737-14.906-2.252-2.263-5.51-4.012-9.319-5.003-3.006-.782-13.494-1.124-18.022-.588-10.417 1.234-15.889 5.001-17.773 12.235-.78 2.994-.7 7.366.171 9.284 2.8 6.171 11.297 10.296 32.802 15.923 18.365 4.806 21.646 5.697 27.331 7.42 11.525 3.494 22.657 8.218 29.75 12.625 13.539 8.413 21.256 19.181 23.542 32.85.823 4.927.568 16.03-.5 21.722-3.032 16.153-11.116 28.61-24.208 37.299-11.762 7.807-25.63 12.192-45.508 14.392-3.472.384-23.704.756-26.458.486zM0 101.913V4.881l50.888.146c51.37.148 52.482.174 61.825 1.496 29.657 4.193 46.125 16.33 50.45 37.177 2.306 11.118.963 22.917-3.63 31.897-3.594 7.027-9.408 12.981-18.925 19.38l-3.174 2.135 4.572 1.46c15.946 5.088 26.371 14.462 30.614 27.525 1.85 5.697 2.183 8.218 2.163 16.404-.025 10.518-1.208 16.481-4.741 23.899-2.371 4.978-4.866 8.498-8.815 12.438-11.618 11.59-30.328 17.996-57.68 19.747-3.394.217-25.135.36-54.593.36H0zm104.246 53.36c9.612-2.66 14.078-8.055 14.543-17.57.46-9.433-2.701-14.521-10.486-16.877-4.554-1.377-8.552-1.594-29.545-1.601l-20.197-.007V156.3l21.431-.123c20.838-.12 21.51-.145 24.254-.904zm-3.206-74.084c8.518-2.372 12.338-8.32 11.167-17.39-.909-7.047-4.149-10.78-10.97-12.64-3.99-1.088-10.641-1.436-27.418-1.437L58.56 49.72v32.498l19.844-.126c19.173-.122 19.938-.152 22.635-.904zm71.188 117.318c.083-.244 15.618-43.897 34.523-97.008l34.373-96.565 32.31-.008 32.311-.008 33.968 94.809c18.683 52.145 34.338 95.802 34.79 97.016l.822 2.207-30.393-.09-30.394-.09-3.908-13.935c-2.15-7.664-4.032-14.133-4.184-14.376-.218-.348-7.318-.44-33.572-.44-26.256 0-33.354.092-33.57.44-.151.243-2.115 6.712-4.365 14.376l-4.09 13.934-29.385.09c-23.456.073-29.355.001-29.236-.352zm122.256-69.147c-.089-.242-4.985-16.196-10.881-35.454-5.896-19.257-10.807-35.013-10.912-35.013-.106 0-4.93 15.756-10.723 35.013-5.792 19.258-10.606 35.212-10.698 35.454-.133.35 4.333.441 21.604.441 17.267 0 21.738-.09 21.61-.44zm261.847-27.428V4.918h147.813v49.036h-89.252v38.453H693.56v45.156H614.892V198.946H556.33z" fill="#fff" stroke-width=".353"/></svg>