<svg id="Слой_1" data-name="Слой 1" xmlns="http://www.w3.org/2000/svg" viewBox="0 0 79.9 10.37"><defs><style>.cls-1{fill:#fff}</style></defs><path class="cls-1" d="M949.69 6347.09l1.36-1.36-1.36-1.36-1.37 1.36zm-1.37 1.38l-1.32-1.37-1.38 1.37-1.37-1.37 5.49-5.48 5.48 5.48-1.37 1.37-1.36-1.37-1.38 1.38 1.36 1.37-1.36 1.36-1.4-1.36-1.34 1.36-1.38-1.36zM983 6345.88v1.1h-.83v3.34h-1.67V6347h-.83v3.34H978V6347h-.83v3.34h-3.89l-.56-1.11V6347h-1.12v3.34h-1.66v-6.67h4.45v1.11h-2.79v1.12h2.79v3.33h1.1v-3.33H978v-1.12h1.67v1.12h.83v-1.12h1.67v1.12zm-13.61 1.1h-1.67v1.11h1.67zm20.56-3.33h-1.67v1.11h1.67zm0 6.67v-4.44h-1.67v4.45zm5-3.34v3.34h-1.66V6347h-.83v3.34h-1.67v-4.44h6.11l.55 1.1v3.34h-1.66V6347zm-27.78-3.33h-1.66v6.67h1.66zm17.5 3.33h1.12v2.23h-1.12zm2.79 3.34v-4.44h-3.89L983 6347v2.23l.56 1.11zm-24.45 0h1.66v-6.67h-3.05l-2.23 6.67H961l.83-2.22H963zm0-5.56v2.24h-.84zM1001.83 6349.21h1.17V6347h-1.13zm2.79-3.33v5l-.56 1.11h-3.89v-1.11h2.83v-.56h-2.23l-.56-1.11V6347l.55-1.11z" transform="translate(-944.2 -6341.62)"/><path class="cls-1" d="M63.48 7.03V5.37h-.83V8.7h-1.67V4.25h3.61l.56 1.11v1.67h-1.67z"/><path class="cls-1" d="M1010.48 6350.32h3.33l.56-1.11V6347l-.56-1.11h-3.33l-.56 1.11v2.22zm1.11-3.33h1.11v2.22h-1.11z" transform="translate(-944.2 -6341.62)"/><path class="cls-1" d="M71.28 8.7l-.56-1.11V4.25h1.67v3.34h.83V4.25h1.67V8.7h-3.61z"/><path class="cls-1" d="M1022.45 6347h-1.13v2.22h1.13zm1.09 3.33h-2.22v1.67h-1.67v-6.11h3.89l.56 1.11v2.22z" transform="translate(-944.2 -6341.62)"/></svg>