<svg id="Слой_1" data-name="Слой 1" xmlns="http://www.w3.org/2000/svg" viewBox="0 0 56.05 14.46"><defs><style>.cls-1{fill:#9a1648}</style></defs><path class="cls-1" d="M29.35 12.18h-.16V12h.16zm.49 0h-.17V12h.17zm.24 1.26a.54.54 0 0 1-.16.4.58.58 0 0 1-.41.15.55.55 0 0 1-.4-.15.54.54 0 0 1-.16-.4v-1.08h.17v1.07a.4.4 0 0 0 .11.29.35.35 0 0 0 .28.12.37.37 0 0 0 .29-.12.4.4 0 0 0 .11-.29v-1.07h.17zM31.24 13l-.12.12a.27.27 0 0 0-.19-.08.28.28 0 0 0-.2.08.32.32 0 0 0-.07.22V14h-.17v-1.14h.17V13a.34.34 0 0 1 .31-.15.37.37 0 0 1 .27.11M32.15 13.34a.78.78 0 0 0 0-.19.25.25 0 0 0-.26-.17.26.26 0 0 0-.26.17.78.78 0 0 0 0 .19zm.16.12h-.76a.44.44 0 0 0 .09.29.33.33 0 0 0 .24.1.43.43 0 0 0 .3-.13l.11.1a.68.68 0 0 1-.18.13.53.53 0 0 1-.23 0 .45.45 0 0 1-.35-.14.62.62 0 0 1-.14-.43.66.66 0 0 1 .12-.42.41.41 0 0 1 .34-.16.42.42 0 0 1 .34.15.61.61 0 0 1 .12.39zM33.09 14H33a.26.26 0 0 1-.21-.09.31.31 0 0 1-.07-.21V13h-.15v-.13h.15v-.35h.16v.35h.24V13h-.24v.68c0 .11 0 .17.15.17h.09zM34.11 13.34a.78.78 0 0 0 0-.19.25.25 0 0 0-.26-.17.26.26 0 0 0-.26.17.5.5 0 0 0 0 .19zm.16.12h-.75a.43.43 0 0 0 .08.29.34.34 0 0 0 .25.1.43.43 0 0 0 .29-.13l.11.1a.86.86 0 0 1-.17.13.61.61 0 0 1-.24 0 .45.45 0 0 1-.35-.14.62.62 0 0 1-.14-.43.66.66 0 0 1 .12-.42.41.41 0 0 1 .34-.16.41.41 0 0 1 .34.15.61.61 0 0 1 .12.39zM35.5 14h-.16v-.69c0-.2-.1-.3-.28-.3a.23.23 0 0 0-.2.08.29.29 0 0 0-.08.22V14h-.16v-1.14h.16V13a.42.42 0 0 1 .32-.14.38.38 0 0 1 .28.11.4.4 0 0 1 .12.31zM37.44 12.51h-.47v1.47h-.17v-1.47h-.47v-.15h1.11v.15zM38 12.61h-.16v-.21H38zm.48 0h-.18v-.21h.16zm.1 1.39h-.16v-.13a.4.4 0 0 1-.32.14.37.37 0 0 1-.28-.1.42.42 0 0 1-.12-.32v-.71h.17v.69c0 .2.09.29.27.29a.26.26 0 0 0 .2-.07.31.31 0 0 0 .08-.22v-.69h.16zM39.74 13l-.12.12a.27.27 0 0 0-.19-.08.28.28 0 0 0-.2.08.32.32 0 0 0-.07.22V14H39v-1.14h.17V13a.34.34 0 0 1 .31-.15.37.37 0 0 1 .27.11M39.95 12.36v1.62h.17v-.33l.22-.25.35.58h.2l-.44-.69.38-.43h-.21l-.5.58v-1.08h-.17zM41.17 14h.17v-1.14h-.17zm0-1.44h.19v-.19h-.19zM42.54 12.86L42 14.25a.74.74 0 0 1-.08.13.33.33 0 0 1-.22.08h-.07v-.15h.05a.21.21 0 0 0 .12 0 .36.36 0 0 0 .06-.11L42 14l-.4-1.09h.18l.3.9.31-.9zM43.46 13.34a.84.84 0 0 0 0-.19.28.28 0 0 0-.27-.17.27.27 0 0 0-.26.17.5.5 0 0 0 0 .19zm.16.12h-.75a.5.5 0 0 0 .08.29.34.34 0 0 0 .25.1.41.41 0 0 0 .29-.13l.11.1a.86.86 0 0 1-.17.13.61.61 0 0 1-.24 0 .45.45 0 0 1-.35-.14.62.62 0 0 1-.14-.43.66.66 0 0 1 .13-.42.38.38 0 0 1 .33-.16.41.41 0 0 1 .34.15.61.61 0 0 1 .12.39zM43.97 12.36v.37l.19-.18v-.19h-.19zM45.45 14h-.16v-.69c0-.2-.1-.3-.28-.3a.23.23 0 0 0-.2.08.29.29 0 0 0-.08.22V14h-.16v-1.14h.16V13a.42.42 0 0 1 .32-.14.38.38 0 0 1 .28.11.4.4 0 0 1 .12.31zM45.85 14H46v-1.14h-.16zm0-1.44H46v-.19h-.18zM47.31 14h-.17v-.69q0-.3-.27-.3a.25.25 0 0 0-.21.08.29.29 0 0 0-.07.22V14h-.17v-1.14h.17V13a.4.4 0 0 1 .31-.14.39.39 0 0 1 .41.42zM49.24 13.52a.26.26 0 0 0-.09-.21.32.32 0 0 0-.24-.08h-.44v.59h.44a.32.32 0 0 0 .24-.08.28.28 0 0 0 .09-.22m0-.73a.29.29 0 0 0-.08-.21.35.35 0 0 0-.23-.07h-.43v.56h.43a.35.35 0 0 0 .23-.07.29.29 0 0 0 .08-.21m.2.74a.42.42 0 0 1-.13.33.5.5 0 0 1-.35.12h-.66v-1.62h.61a.56.56 0 0 1 .35.11.44.44 0 0 1 .13.32.41.41 0 0 1-.07.22.31.31 0 0 1-.17.13.39.39 0 0 1 .26.39M50.43 13.58v-.12h-.32c-.17 0-.25.07-.25.2s.09.19.26.19a.36.36 0 0 0 .25-.08.24.24 0 0 0 .06-.19m.16.4h-.16v-.11a.45.45 0 0 1-.33.12.4.4 0 0 1-.31-.1.32.32 0 0 1-.09-.23.33.33 0 0 1 .1-.24.5.5 0 0 1 .29-.08h.34v-.11c0-.16-.1-.25-.29-.25a.33.33 0 0 0-.28.13l-.11-.1a.33.33 0 0 1 .16-.13.53.53 0 0 1 .23 0c.3 0 .45.13.45.38zM51.87 14h-.17v-.69q0-.3-.27-.3a.25.25 0 0 0-.21.08.34.34 0 0 0-.07.22V14H51v-1.14h.16V13a.42.42 0 0 1 .32-.14.38.38 0 0 1 .28.11.4.4 0 0 1 .12.31zM52.27 12.36v1.62h.16v-.33l.22-.25.35.58h.21l-.45-.69.38-.43h-.2l-.51.58v-1.08h-.16zM54.12 13.58v-.12h-.31c-.17 0-.25.07-.25.2s.08.19.25.19a.34.34 0 0 0 .25-.08.24.24 0 0 0 .06-.19m.17.4h-.17v-.11a.44.44 0 0 1-.32.12.42.42 0 0 1-.32-.1.36.36 0 0 1-.08-.23.3.3 0 0 1 .1-.24.47.47 0 0 1 .28-.08h.34v-.11c0-.16-.09-.25-.29-.25a.34.34 0 0 0-.28.13l-.11-.1a.41.41 0 0 1 .17-.13.5.5 0 0 1 .23 0c.3 0 .45.13.45.38zM55.49 13.65a.3.3 0 0 1-.12.25.58.58 0 0 1-.37.1.61.61 0 0 1-.46-.16l.11-.11a.42.42 0 0 0 .34.13c.2 0 .3-.07.3-.2s-.06-.15-.18-.16h-.19q-.33 0-.33-.3a.28.28 0 0 1 .11-.24.49.49 0 0 1 .3-.09.62.62 0 0 1 .4.12l-.11.11A.44.44 0 0 0 55 13c-.17 0-.25.06-.25.19s.06.15.19.16h.18q.33 0 .33.3M55.81 12.86h.16v1.12h-.16zM26.67 13.23l.88-.89-.88-.88h.5l.89.88-.89.89h-.5zM15 5.43v1.92c0 .35 0 .77-.05 1.15h1.49l-.09-1.2V4.72 3.38l.06-1.19h-1.49c0 .4 0 .79.05 1.18s0 .82 0 1.33h-2.75V3.37c0-.33 0-.78.06-1.18h-1.49c0 .4 0 .79.06 1.19s0 .83 0 1.34v2.63c0 .35 0 .77-.06 1.15h1.54V7.35 5.43H15M22.86 8.45H21.29L21 7.54q-.15-.46-.33-.93h-2.12c-.12.31-.23.62-.34.93s-.19.61-.28.91h-.88l.29-.66.4-.94c.14-.36.3-.73.46-1.13s.34-.82.5-1.23l.5-1.22.44-1.12H20.33c.2.51.4 1.07.62 1.66s.45 1.16.68 1.73.44 1.11.65 1.62.41.94.58 1.29m-3.22-4.54c-.16.36-.31.72-.44 1.08s-.28.71-.41 1.08h1.66c-.13-.37-.27-.73-.4-1.08s-.26-.72-.41-1.08M23.57 4.72v2.63c0 .35 0 .77-.06 1.15h3.52a.52.52 0 0 1 0-.14 1.42 1.42 0 0 1 0-.23 1.35 1.35 0 0 1 0-.22 1.37 1.37 0 0 1 0-.19c-.35 0-.7.08-1 .1h-1v-3.1-1.34-1.19h-1.49c0 .4 0 .79.06 1.19s0 .83 0 1.34M29.16 5.62c.31.47.61 1 .91 1.43s.6.94.91 1.4H32.66c-.12-.15-.28-.36-.49-.65s-.41-.61-.65-1l-.7-1c-.24-.36-.45-.69-.65-1l.51-.6.68-.78.69-.75.47-.5h-1.06a5.6 5.6 0 0 1-.38.52c-.17.23-.37.48-.59.75s-.45.55-.68.85l-.67.79v-.86-1.21a6.42 6.42 0 0 1 .07-.82h-1.5c0 .4.05.79.06 1.19s0 .83 0 1.34v2.63c0 .35 0 .77-.06 1.15h1.5a10.1 10.1 0 0 1-.07-1.13v-1.7M33.23 4.72v2.63c0 .35 0 .77-.05 1.15H35.44a4.15 4.15 0 0 0 .79-.08 1.88 1.88 0 0 0 .67-.31 1.66 1.66 0 0 0 .48-.57 1.8 1.8 0 0 0 .18-.84 1.27 1.27 0 0 0-.2-.7 1.62 1.62 0 0 0-.43-.47 1.68 1.68 0 0 0-.54-.26 1.42 1.42 0 0 0-.49-.1 2.6 2.6 0 0 0 .46-.17 2.12 2.12 0 0 0 .49-.27 1.52 1.52 0 0 0 .38-.45 1.33 1.33 0 0 0 .15-.65 1.36 1.36 0 0 0-.13-.63 1.08 1.08 0 0 0-.38-.44 1.62 1.62 0 0 0-.58-.25 2.83 2.83 0 0 0-.74-.09H33.16c0 .4 0 .79.05 1.19s0 .83 0 1.34M36 3.78a1.36 1.36 0 0 1-.09.51 1.13 1.13 0 0 1-.24.36 1.08 1.08 0 0 1-.34.21.94.94 0 0 1-.37.07h-.41V4v-.59-.68H34.99a1 1 0 0 1 .46.09.86.86 0 0 1 .3.23.72.72 0 0 1 .16.34 1.35 1.35 0 0 1 .06.41m.06 2.94a1.74 1.74 0 0 1-.08.53 1.47 1.47 0 0 1-.22.39.9.9 0 0 1-.32.23.85.85 0 0 1-.31.11h-.5v-.7-1.44-.4h.4a1.06 1.06 0 0 1 .83.32 1.37 1.37 0 0 1 .29 1M43.7 8.45H42.13l-.3-.91-.33-.93h-2.11c-.12.31-.24.62-.34.93s-.2.61-.28.91h-.89c.08-.16.17-.38.3-.66l.4-.94c.14-.36.3-.73.46-1.13s.34-.82.5-1.23.34-.82.49-1.22.32-.78.45-1.12H41.17c.2.51.4 1.07.62 1.66s.45 1.16.67 1.73l.66 1.62c.21.51.41.94.58 1.29m-3.22-4.54Q40.24 4.45 40 5c-.14.35-.27.71-.41 1.08h1.67c-.13-.37-.27-.73-.4-1.08s-.26-.72-.41-1.08M44.49 4v1.44c0 .5 0 1-.06 1.4s0 .78 0 1.08v.52h.85v-.27-.43V4.58v-.53c1.4 1.48 2.73 2.94 4 4.4h.73V6.13 4.95 3.7c0-.44 0-1 .07-1.51a2.53 2.53 0 0 1-.4.05 2.73 2.73 0 0 1-.42-.05 1.37 1.37 0 0 1 0 .36V6.53l-2-2.17-1.99-2.17a2.63 2.63 0 0 1-.41.05 2.63 2.63 0 0 1-.41-.05v1.82M52.53 5.62c.31.47.61 1 .91 1.43s.6.94.91 1.4H56.03c-.12-.15-.29-.36-.49-.65s-.41-.61-.65-1-.47-.69-.7-1-.45-.69-.65-1l.51-.6.68-.78.69-.75.47-.5h-1.06c-.08.12-.2.29-.38.52s-.37.48-.59.75-.45.55-.68.85l-.67.79v-.86-1.21a6.42 6.42 0 0 1 .07-.82h-1.5c0 .4 0 .79.06 1.19s0 .83 0 1.34v2.63c0 .35 0 .77-.06 1.15h1.5a10.1 10.1 0 0 1-.07-1.13v-1.7M3.91 7h1.36v.91H5v-.6H4v.6h-.29V7zm-.69-.6h2.66v2.46h-.32V6.74H3.4v2.12h-.31V6.43zm-.43-.62H6.5v4h-.31V6.12h-3.4v3.66h-.31v-4zm2.28-2.12H3.7v-.91H4v.6h1v-.6h.31v.91zm.68.6H3.1V1.83h.31V4h2.16V1.83h.32v2.43zm.44.62H2.48v-4h.31v3.69h3.4V.91h.31v4zm2.49-2.12H9V8h-.32zM8 1.85h.32v7H8zM7.43.93h.32V9.8h-.32zm-.62 9.79v-5.2H2.18v5.2h-.31V0h.31v5.2h4.63V0h.31v10.72zM.31 8H0V2.76h.31zm.69.87H.63v-7H1zm.61.92h-.37V.91h.32z"/></svg>