<svg id="Layer_1" data-name="Layer 1" xmlns="http://www.w3.org/2000/svg" viewBox="0 0 65.14 35.36"><defs><style>.cls-1{fill:#9cafbe}.cls-2{fill:#ec1f3a}</style></defs><path class="cls-1" d="M0 19.32h1.91v.5H.55v.51h1.19v.49H.55v.54h1.37v.49H0v-2.53zM2.31 20.59a1.28 1.28 0 0 1 1.31-1.31 1.32 1.32 0 0 1 1 .39l-.35.41a1 1 0 0 0-.65-.29.75.75 0 0 0-.73.79.75.75 0 0 0 .73.79.89.89 0 0 0 .66-.3l.36.36a1.29 1.29 0 0 1-1 .45 1.27 1.27 0 0 1-1.29-1.3M7 20.59a.77.77 0 0 0-.76-.8.76.76 0 0 0-.76.79.77.77 0 0 0 .76.79.75.75 0 0 0 .76-.78m-2.1 0a1.3 1.3 0 0 1 1.34-1.31 1.29 1.29 0 0 1 1.34 1.3 1.3 1.3 0 0 1-1.34 1.3 1.29 1.29 0 0 1-1.34-1.3M8.08 19.32h.51l1.18 1.56v-1.56h.55v2.53h-.47l-1.22-1.61v1.61h-.55v-2.53zM12.92 20.59a.77.77 0 0 0-.77-.8.76.76 0 0 0-.75.79.76.76 0 1 0 1.52 0m-2.1 0a1.34 1.34 0 0 1 2.68 0 1.31 1.31 0 0 1-1.35 1.3 1.29 1.29 0 0 1-1.33-1.3M13.99 19.32h.6l.67 1.07.66-1.07h.6v2.53h-.55V20.2l-.71 1.08h-.02l-.7-1.07v1.64h-.55v-2.53zM17.15 19.32h.56v2.53h-.56zM18.23 20.59a1.36 1.36 0 0 1 2.31-.92l-.35.41a1 1 0 0 0-.65-.29.75.75 0 0 0-.73.79.75.75 0 0 0 .73.79.93.93 0 0 0 .67-.3l.35.36a1.29 1.29 0 0 1-1 .45 1.27 1.27 0 0 1-1.29-1.3M23.07 21.35a.72.72 0 0 0 .76-.76.72.72 0 0 0-.76-.76h-.43v1.52zm-1-2h1a1.26 1.26 0 0 1 1.34 1.26 1.26 1.26 0 0 1-1.34 1.26h-1zM24.91 19.32h1.9v.5h-1.35v.51h1.19v.49h-1.19v.54h1.37v.49h-1.92v-2.53zM27.11 19.32h.61l.66 1.78.66-1.78h.6l-1.02 2.55h-.49l-1.02-2.55zM30.03 19.32h1.91v.5h-1.36v.51h1.19v.49h-1.19v.54h1.38v.49h-1.93v-2.53zM32.45 19.32h.56v2.02h1.26v.51h-1.82v-2.53zM36.53 20.59a.77.77 0 0 0-.76-.8.76.76 0 0 0-.76.79.77.77 0 0 0 .76.79.75.75 0 0 0 .76-.79m-2.1 0a1.34 1.34 0 0 1 2.68 0 1.34 1.34 0 0 1-2.68 0M38.6 20.6a.39.39 0 0 0 .44-.38c0-.25-.17-.38-.45-.38h-.43v.77zm-1-1.28h1a.87.87 0 0 1 1 .88c0 .59-.46.89-1 .89h-.42v.76h-.55zM40.02 19.32h.6l.66 1.07.67-1.07h.59v2.53h-.55V20.2l-.71 1.08h-.01l-.71-1.07v1.64h-.54v-2.53zM43.15 19.32h1.9v.5H43.7v.51h1.19v.49H43.7v.54h1.37v.49h-1.92v-2.53zM45.57 19.32h.51l1.18 1.56v-1.56h.55v2.53h-.47l-1.22-1.61v1.61h-.55v-2.53zM49.01 19.84h-.77v-.52h2.09v.52h-.77v2.01h-.55v-2.01zM53 21.36c.25 0 .39-.08.39-.27 0-.17-.12-.27-.41-.27h-.64v.55zm-.15-1c.25 0 .4-.07.4-.26 0-.17-.13-.26-.36-.26h-.55v.53zm-1-1H53a.88.88 0 0 1 .66.23.55.55 0 0 1 .18.43.6.6 0 0 1-.34.55.61.61 0 0 1 .48.62c0 .46-.38.69-1 .69h-1.2zM56.44 20.59a.77.77 0 0 0-.77-.8.76.76 0 0 0-.76.79.77.77 0 0 0 .77.79.75.75 0 0 0 .76-.79m-2.11 0a1.31 1.31 0 0 1 1.35-1.31A1.29 1.29 0 0 1 57 20.58a1.31 1.31 0 0 1-1.35 1.3 1.29 1.29 0 0 1-1.34-1.3M58.8 20.79l-.34-.79-.33.82zm-.58-1.49h.51l1.08 2.55h-.58l-.23-.57h-1.07l-.23.57h-.57zM61.32 20.55c.27 0 .43-.14.43-.36 0-.24-.17-.36-.44-.36h-.55v.72zm-1.12-1.23h1.16a1 1 0 0 1 .73.26.8.8 0 0 1 .22.58.79.79 0 0 1-.54.79l.61.9h-.65l-.54-.85h-.43v.81h-.56zM63.79 21.35a.73.73 0 0 0 .77-.76.73.73 0 0 0-.77-.76h-.42v1.52zm-1-2h1a1.27 1.27 0 0 1 1.35 1.26 1.27 1.27 0 0 1-1.35 1.26h-1zM4.8 33.41c1 0 1.58-.34 1.58-1.09 0-.68-.51-1.1-1.65-1.1H2.16v2.22zm-.59-4.07c1 0 1.6-.31 1.6-1.06 0-.67-.51-1-1.45-1h-2.2v2.13zM0 25.26h4.69a3.65 3.65 0 0 1 2.64.9A2.31 2.31 0 0 1 8 27.87a2.33 2.33 0 0 1-1.33 2.18 2.47 2.47 0 0 1 1.89 2.48c0 1.85-1.5 2.77-3.78 2.77H0zM15.67 31.13l-1.34-3.27L13 31.13zm-2.34-5.94h2.05l4.33 10.17h-2.32l-.93-2.26h-4.27l-.92 2.26H9zM20.72 25.26h2.22v4h4.1v-4h2.22v10.1h-2.22v-4.05h-4.1v4.05h-2.22v-10.1zM35.61 30.17c1.08 0 1.7-.58 1.7-1.43 0-.95-.66-1.44-1.75-1.44h-2.2v2.9zm-4.48-4.91h4.62a4 4 0 0 1 2.94 1 3.16 3.16 0 0 1 .87 2.31 3.13 3.13 0 0 1-2.16 3.13l2.46 3.61h-2.59l-2.17-3.18h-1.74v3.23h-2.23zM46.91 31.13l-1.34-3.27-1.34 3.27zm-2.34-5.94h2L51 35.36h-2.37l-.93-2.26h-4.27l-.92 2.26h-2.27zM51.97 25.26h2.22v10.1h-2.22zM56.16 25.26h2.05l4.74 6.22v-6.22h2.19v10.1h-1.89l-4.89-6.42v6.42h-2.2v-10.1z"/><path class="cls-2" d="M19.52 0h12.06v3.13h-8.56v3.24h7.54V9.5h-7.54v3.36h8.68v3.13H19.52V0zM40.49 12.81A4.55 4.55 0 0 0 45.31 8a4.59 4.59 0 0 0-4.82-4.81h-2.72v9.63zM34.26 0h6.23c5 0 8.5 3.45 8.5 8 0 4.5-3.47 8-8.5 8h-6.23zM59.15 12.91c1.56 0 2.49-.55 2.49-1.74v-.05c0-1.07-.8-1.73-2.6-1.73H55v3.52zm-.93-6.45c1.55 0 2.53-.5 2.53-1.69 0-1.05-.82-1.65-2.3-1.65H55v3.34zM51.55 0H59a5.74 5.74 0 0 1 4.18 1.42 3.66 3.66 0 0 1 1.1 2.71 3.73 3.73 0 0 1-2.1 3.45c1.85.71 3 1.78 3 3.93 0 2.93-2.38 4.39-6 4.39h-7.6zM0 0v16a8.81 8.81 0 0 0 5.12-8A8.81 8.81 0 0 0 0 0m16 0v16H5.64L4.4 13.81 10.17 15 5.8 11l5.87-.64L6.29 8l5.38-2.42-5.87-.64 4.37-4L4.4 2.17 5.64 0z"/></svg>