<svg xmlns="http://www.w3.org/2000/svg" width="2629.84" height="1695.892" viewBox="0 0 695.812 448.705"><path d="M133.62 448.592c-33.933-2.581-62.789-13.703-86.043-33.164-5.25-4.394-13.466-12.76-17.625-17.948C12.93 376.246 3.22 350.673.416 319.693c-.555-6.133-.555-22.442 0-28.575 1.899-20.977 6.555-38.171 14.809-54.68 19.713-39.432 58.398-66.049 105.592-72.652 9.278-1.298 13.753-1.593 23.916-1.579 10.067.014 15.538.43 23.277 1.77 20.995 3.635 39.446 12.25 56.339 26.304 4.425 3.682 14.505 13.635 17.901 17.676 1.549 1.843 1.661 2.093 1.188 2.646-.287.336-7.395 8.945-15.795 19.131-8.4 10.187-15.4 18.662-15.556 18.835-.156.173-2-1.356-4.097-3.396-14.995-14.588-31.25-23.704-48.545-27.224-5.855-1.192-10.188-1.62-16.4-1.62-23.625 0-44.796 8.465-60.537 24.206-12.917 12.917-20.99 29.296-24.292 49.287-.672 4.067-.768 6.01-.768 15.583 0 12.038.405 15.848 2.602 24.512 6.467 25.494 22.118 45.298 44.184 55.905 12.296 5.91 22.291 8.248 36.62 8.562 7.233.159 8.954.087 13.46-.567 19.398-2.812 36.799-11.862 53.678-27.918 3.727-3.545 3.831-3.614 4.457-2.958.352.37 7.565 9.06 16.027 19.31 14.45 17.504 15.356 18.682 14.884 19.356-.277.395-2.596 3.013-5.154 5.818-14.12 15.481-31.345 27.386-49.023 33.88-8.87 3.257-17.057 5.23-27.693 6.674-3.707.503-23.569.94-27.87.613zm352.778-1.362c-1.746-.246-3.572-.538-4.057-.65-7.151-1.655-10.437-2.79-15.692-5.419-16.688-8.349-28.343-24.237-33.002-44.987-2.033-9.057-1.886-2.506-2.093-93.591l-.19-83.608-23.9-.091-23.9-.09V166.944l23.9-.09 23.9-.092.091-28.25.09-28.252 27.474-14.7c15.11-8.084 27.571-14.699 27.69-14.699.119 0 .256 19.328.305 42.95l.09 42.951 28.84.09 28.839.091v51.85l-28.84.09-28.84.09-.101 73.908c-.069 49.585.02 75.43.27 78.535 1.357 16.88 8.764 24.843 23.95 25.75 12.675.759 27.538-3.813 43.792-13.469 2.037-1.21 3.733-2.174 3.768-2.141.035.033-2.996 12.007-6.737 26.61-5.253 20.506-6.954 26.663-7.472 27.045-1.473 1.083-9.01 4.826-12.72 6.317-7.26 2.917-15.997 4.99-24.614 5.841-5.073.502-16.84.422-20.84-.14zM276.32 305.052V166.587h56.797V443.518H276.32zm326.32 0V166.587h56.797V443.518h-56.798zM239.521 119.99c1.143-1.953 11.5-15.595 15.104-19.896 8.43-10.059 20.345-22.322 29.278-30.136 26.323-23.027 55.75-40.642 88.018-52.691C396.998 7.903 422.828 2.339 450.238.396c7.459-.53 26.692-.528 34.22.002 20.317 1.431 39.11 4.747 58.385 10.302 54.998 15.852 104.921 49.015 140.405 93.27 4.059 5.06 10.8 14.124 11.93 16.038l.634 1.07h-65.154l-1.75-1.803c-3.54-3.645-12.44-11.796-17.562-16.082C576.65 74.16 535.294 56.29 491.513 51.419c-12.991-1.445-32.82-1.616-44.979-.387-40.69 4.113-77.997 18.436-111.125 42.664-8.42 6.158-16.515 13.014-25.283 21.412l-6.234 5.97h-65.007z" fill="#fff" stroke-width=".353"/></svg>