<svg xmlns="http://www.w3.org/2000/svg" width="1600" height="1214.684" viewBox="0 0 423.333 321.385"><path d="M1.058 317.695v-3.69l1.147-.314c.63-.172 3.33-.849 5.997-1.502l4.85-1.189V220.84H0v-7.369l3.969-1.231a1905.85 1905.85 0 0 1 9.966-3.045c3.298-.999 8.555-2.597 11.682-3.552 5.417-1.655 5.877-1.736 9.79-1.736h4.104v5.291c0 2.91.088 5.292.194 5.292.107 0 2.082-1.117 4.388-2.481 10.51-6.22 16.218-8.027 24.17-7.653 13.982.657 24.559 11.186 28.27 28.14.934 4.272.933 15.81-.003 20.094-3.755 17.188-14.884 28.251-32.353 32.162-3.425.766-4.392.82-14.175.789l-10.5-.034.093 12.722.093 12.723 5.82 1.32c3.202.725 6.184 1.41 6.627 1.52.783.195.803.306.706 3.807l-.1 3.606-25.842.09-25.84.091zm50.448-42.733c7.717-1.938 12.976-6.961 15.714-15.012 2.088-6.14 2.495-17.015.88-23.545-2.593-10.489-10.388-16.216-20.99-15.42-1.754.13-4.142.436-5.306.678l-2.116.44-.092 26.443c-.05 14.545-.006 26.667.098 26.94.254.663 8.55.296 11.812-.524zm222.25 11.985c-8.806-.773-15.711-3.17-21.105-7.325-3.06-2.357-7.269-6.95-9.547-10.42-8.643-13.162-8.905-31.358-.655-45.39 2.486-4.23 8.674-10.472 13.027-13.143 12.718-7.801 31.37-9.597 44.738-4.307 3.16 1.25 6.828 3.737 9.107 6.173 5.027 5.374 6.251 12.458 3.158 18.276-1.355 2.55-3.227 4.258-6.224 5.678-2.198 1.041-2.578 1.107-6.394 1.107-4.471 0-5.929-.348-10.671-2.548l-2.734-1.268v-10.704c0-8.92-.082-10.704-.492-10.704-1.029 0-5.416 1.525-7.446 2.589-2.956 1.548-7.088 5.762-8.704 8.877-2.54 4.898-3.815 11.024-3.816 18.344-.002 16.677 7.844 28.008 20.626 29.786 6.04.84 13.301-1.058 23.43-6.125 1.67-.836 3.393-1.63 3.83-1.766l.794-.247v14.418l-1.852.798c-10.28 4.432-15.407 6.082-22.368 7.199-3.244.52-13.74.962-16.702.702zm-157.692-33.443v-32.246l-1.676-.216c-2.207-.284-12.716-1.261-13.562-1.261-.611 0-.653-.285-.56-3.78l.1-3.78 4.056-.938c24.438-5.647 24.26-5.614 29.968-5.614h5.31l.018 26.018c.018 24.572.052 25.97.618 25.171.33-.465 7.437-12.133 15.795-25.929l15.197-25.083 9.586-.094 9.586-.094v60.834l10.054-13.489 10.054-13.489v-31.302l1.307-1.147c.718-.63 2.272-1.599 3.452-2.151 7.604-3.558 15.836-.733 19.479 6.685.903 1.84.984 2.333.967 5.888-.036 7.37-1.259 9.413-19.99 33.409a5344.917 5344.917 0 0 0-16.856 21.766l-10.055 13.052-11.2.018-11.2.018-.012-24.96c-.01-19.694-.102-24.84-.441-24.394-.236.31-7.094 11.542-15.24 24.96l-14.81 24.394h-19.945zm74.436-105.69v-9.878H269.169l.001-57.59c0-31.676.106-62.712.234-68.969L269.636 0h78.189l.095 7.673.095 7.673 7.669.095 7.668.095.093 11.9.093 11.899 19.843.09 19.844.092v58.908h20.108v39.394l-45.037.235c-24.771.13-59.458.235-77.082.235H269.17v19.403H190.5z" fill="#fff" stroke-width=".353"/></svg>