<svg xmlns="http://www.w3.org/2000/svg" width="985.927" height="314.747" viewBox="0 0 260.86 83.277"><path d="M100.275 82.639c-3.662-1.307-6.209-3.915-7.127-7.301-.53-1.951-.482-5.744.094-7.66 1.022-3.394 4.052-6.414 7.436-7.411 2.365-.697 6.453-.51 8.488.39 3.894 1.722 6.107 5.153 6.438 9.984l.189 2.757h-7.812c-6.017 0-7.81.1-7.806.44.003.243.366 1.077.805 1.853 1.439 2.543 4.964 2.814 6.666.512.762-1.03.807-1.041 4.232-1.041 3.248 0 3.461.044 3.461.72 0 2.063-2.673 5.127-5.626 6.45-2.299 1.03-6.984 1.182-9.438.307zm7.656-14.807c0-1.692-2.503-3.182-4.578-2.726-1.096.24-2.83 1.987-2.83 2.85 0 .403.735.503 3.704.503 3.314 0 3.704-.066 3.704-.627zm16.507 14.949c-2.234-.602-4.43-2.179-5.603-4.025-2.883-4.538-2.042-12.68 1.644-15.916 3.659-3.212 9.604-3.96 14.119-1.774 2.521 1.22 4.705 4.436 4.722 6.952l.008 1.146h-3.49c-3.458 0-3.49-.008-3.718-.912-.66-2.633-3.923-3.533-5.843-1.613-1.253 1.253-1.9 3.564-1.657 5.925.255 2.493 1.088 3.955 2.618 4.594 2.276.951 4.331.07 4.87-2.085l.241-.97h7.314l-.196 1.147c-.4 2.333-2.014 4.973-3.757 6.143-2.704 1.816-7.491 2.405-11.272 1.388zM80.767 70.575V58.581h-8.82v-6.359l12.789.093 12.788.092v5.998l-4.498.098-4.498.099V82.57H80.767zM140.9 82.13c-.093-.243-.127-7.03-.077-15.082l.093-14.64 3.616-.1 3.616-.1v10.378l.793-.723c1.362-1.24 2.484-1.64 4.675-1.664 3.422-.038 5.836 1.325 7.264 4.102.607 1.18.673 2.136.673 9.79v8.48h-7.055l-.008-6.438c-.01-6.857-.287-8.97-1.275-9.692-.996-.729-2.804-.543-3.9.4l-.99.85-.114 7.44-.114 7.44h-3.513c-2.487 0-3.563-.13-3.683-.441zm23.122-10.483V60.698H170.725v2.15l1.343-1.08c1.953-1.569 4.599-2.052 7.157-1.306 2.423.707 3.63 1.624 4.651 3.532.738 1.38.79 1.97.895 10.021l.11 8.555H177.429v-7.36c0-6.913-.044-7.418-.731-8.291-1.187-1.509-3.24-1.268-4.983.583-.039.041-.158 3.409-.265 7.483l-.195 7.408-3.616.101-3.616.1zm23.166 10.689c-.13-.13-.235-5.051-.235-10.936V60.698h7.408V82.57h-3.469c-1.908 0-3.574-.106-3.704-.235zm9.643-14.935V52.23h7.055l.016 7.497.015 7.497 3.071-3.27 3.072-3.27 3.969.007c2.182.004 3.968.128 3.968.277 0 .149-1.666 1.932-3.704 3.962-2.037 2.03-3.704 3.81-3.704 3.954 0 .144 1.905 3.14 4.233 6.659 2.329 3.518 4.234 6.538 4.234 6.711 0 .174-1.824.315-4.053.315h-4.052l-.836-1.323c-4.752-7.517-4.82-7.602-5.547-6.946-.594.538-.682 1.11-.682 4.443v3.826h-7.055zm-9.804-12.082l.102-2.91 3.616-.101 3.616-.1v6.021h-7.436zM18.371 44.802C9.957 43.3 2.49 36.197.515 27.816c-.743-3.152-.676-7.727.163-11.005 1.02-3.988 2.592-6.673 5.828-9.95C8.749 4.59 9.946 3.7 12.328 2.533c6.743-3.3 13.428-3.376 19.932-.225 5.591 2.709 9.465 7.12 11.584 13.193.944 2.705 1.06 3.486 1.054 7.097-.006 3.506-.142 4.457-1.001 7.003-2.36 6.991-7.853 12.374-14.812 14.513-2.839.872-7.87 1.195-10.714.688zm8.737-2.638c7.258-1.711 13.518-8.055 15.042-15.242 1.478-6.978-.433-13.459-5.447-18.466-4.146-4.141-8.452-5.955-14.158-5.963-8.893-.012-16.215 5.221-19.127 13.67C-.35 27.09 6.024 39.008 17.258 42.041c2.857.771 6.883.821 9.85.122zm2.658-10.922c-5.978-1.766-9.137-3.192-15.699-7.087-4.105-2.437-9.354-5.085-10.078-5.085-.613 0-.84-.476-.495-1.035.231-.374.529-.39 1.44-.071.745.26 1.293.28 1.56.059.277-.23 1.885.297 4.974 1.632 2.51 1.085 4.712 2.109 4.893 2.275.657.604-.076.663-1.593.128-.853-.301-1.394-.398-1.202-.215.49.467 3.567 1.46 4.507 1.457 2.276-.01 5.612-2.517 6.875-5.165.517-1.085.65-1.142 3.22-1.39 2.53-.242 11.309.307 12.558.786.832.32.412 1.02-.564.941-4.959-.4-10.548-.514-10.548-.216 0 .206 1.803.44 4.322.56 4.828.23 6.284.561 5.466 1.24-.373.31-1.186.331-3.118.08-3.468-.45-7.728-.454-7.728-.008 0 .21 1.336.353 3.302.353 4.449 0 6.692.317 6.225.879-.262.316-1.702.384-5.47.256-4.254-.145-5.116-.09-5.116.325 0 .406.683.473 3.699.361 4.084-.15 5.82.092 5.186.725-.227.227-1.412.357-2.835.31-2.87-.092-6.101.437-8.778 1.439l-1.913.716.821.875c1.375 1.464 5.673 3.318 8.302 3.581l2.342.235-.854.95-.854.95zm146.095 6.79c-1.999-.528-4.628-3.243-4.943-5.104-.345-2.045.066-3.706 1.284-5.183 1.49-1.807 3.371-2.653 7.984-3.59 2.2-.447 4.227-1 4.502-1.228 1.275-1.058-.093-2.799-2.2-2.799-1.788 0-2.97.614-3.405 1.767l-.399 1.055h-6.548l.008-.97c.012-1.52 1.21-3.785 2.536-4.796 4.534-3.458 13.982-2.731 16.45 1.265 1.183 1.917 1.461 4.004 1.555 11.646l.09 7.32h-3.24c-2.895 0-3.263-.073-3.457-.684-.209-.658-.263-.652-1.476.171-2.27 1.54-5.573 1.967-8.74 1.13zm7.338-5.38c.613-.291 1.315-.85 1.56-1.243.554-.886.991-3.875.566-3.866-.929.018-5.579 1.423-6.323 1.91-1.139.746-1.183 2.41-.084 3.179.992.695 2.84.703 4.28.02zm40.306 5.45c-3.807-.955-6.247-3.333-6.77-6.597l-.239-1.5H223.587l.39 1.184c.464 1.405 1.566 1.992 3.738 1.992 1.101 0 1.783-.211 2.277-.706 1.543-1.543.334-2.525-4.159-3.377-4.092-.775-5.828-1.453-7.108-2.774-2.031-2.095-1.956-5.751.168-8.233 1.765-2.062 4.348-2.984 8.453-3.017 3.812-.03 5.762.48 7.431 1.946 1.493 1.312 2.17 2.534 2.482 4.482l.231 1.448h-3.572c-3.338 0-3.573-.046-3.573-.705 0-1.93-3.438-2.913-4.94-1.411-.387.388-.705.86-.705 1.05 0 .695 1.664 1.375 4.763 1.945 1.746.32 3.81.869 4.586 1.218 5.473 2.46 5.21 9.69-.445 12.279-1.603.733-2.631.928-5.356 1.014-1.854.058-3.989-.05-4.743-.238zm20.46-.065c-.827-.22-2.041-1.01-3.055-1.992-1.378-1.334-1.727-1.928-1.927-3.279-.444-3.004.956-5.572 3.848-7.059.756-.388 3.208-1.095 5.45-1.57 4.295-.91 4.994-1.227 4.994-2.268 0-1.78-3.949-2.41-5.484-.875-.476.476-.866 1.111-.866 1.411 0 .454-.568.545-3.398.545h-3.397l.188-1.4c.441-3.293 2.811-5.358 7.167-6.247 4.88-.995 9.844.29 11.686 3.026 1.286 1.91 1.476 3.273 1.585 11.413l.104 7.673h-3.24c-2.894 0-3.262-.073-3.456-.684-.209-.658-.263-.652-1.476.171-2.265 1.537-5.575 1.967-8.723 1.135zm7.394-5.373c1.356-.566 2.269-2.2 2.269-4.058 0-1.257.162-1.237-3.1-.39-3.333.866-4.308 1.508-4.308 2.836 0 1.939 2.49 2.72 5.139 1.612zm-150.964 4.94c-.75-.268-1.836-.936-2.413-1.485-2.14-2.033-2.2-2.337-2.337-11.67l-.125-8.554h7.433l.108 7.548c.097 6.84.17 7.619.78 8.29 1.007 1.113 3.348 1.025 4.47-.167.84-.894.857-1.042.974-8.29l.119-7.381h6.993v21.52h-3.35c-3.117 0-3.352-.05-3.352-.706 0-.764-.517-.945-.905-.316-.917 1.484-5.695 2.173-8.395 1.21zM74.417 22.42V7.428H82.178V31.417H94.525v5.997H74.417zm46.214 6.703v-8.29h-2.822v-4.94h1.41c1.364 0 1.412-.04 1.412-1.17 0-2.045.997-4.712 2.112-5.65 1.26-1.06 3.778-1.646 7.077-1.646h2.452v5.292h-1.562c-1.84 0-2.67.666-2.67 2.142 0 1.027.01 1.033 2.116 1.033h2.116v4.939H128.04v16.58h-7.408zm18.168 7.954c-1.084-.449-2.273-1.891-2.654-3.22-.19-.661-.345-3.862-.345-7.113v-5.911h-2.822v-4.94h2.822V9.193H143.21V15.895h3.88v4.939h-3.88l.005 5.203c.003 2.862.144 5.424.315 5.693.17.269 1.12.567 2.111.662l1.802.173v4.849l-3.97-.022c-2.182-.012-4.285-.154-4.674-.314zm9.786-14.569l.092-14.904 3.616-.101 3.616-.1V17.721l1.049-.884c2.877-2.42 7.881-2.057 10.495.763 1.721 1.857 1.861 2.726 1.861 11.566v8.247h-7.003l-.115-7.16c-.135-8.485-.32-9.067-2.883-9.067-1.175 0-1.71.205-2.373.91-.839.891-.857 1.048-.97 8.113l-.113 7.204h-7.364zm46.13 4.146v-10.76h6.702v2.19l1.23-1.08c3.166-2.78 9.046-2.114 11.276 1.278 1.334 2.03 1.587 3.903 1.596 11.811l.01 7.32H208.17l-.114-7.372c-.103-6.719-.174-7.44-.8-8.13-1.041-1.15-3.565-.902-4.57.447-.683.918-.75 1.543-.866 8.025l-.125 7.03h-6.981z" fill="#fff" stroke-width=".353"/></svg>