<svg xmlns="http://www.w3.org/2000/svg" width="1568" height="245.128" viewBox="0 0 414.867 64.857"><path d="M61.94 64.376c-5.448-1.211-8.972-5.336-8.956-10.484.024-7.745 7.467-12.624 20.693-13.564l3.121-.222-.144-5.854c-.16-6.51-.575-8.149-2.46-9.735-.848-.713-1.428-.88-3.054-.88-3.875 0-5.796 2.063-6.255 6.72l-.241 2.451H53.785l.21-.97c1.7-7.873 6.93-11.458 16.737-11.472 7.501-.011 11.37 1.726 13.588 6.104 1.426 2.815 1.581 4.93 1.581 21.573v15.81H76.73v-5.02l-2.27 2.123c-3.543 3.315-7.782 4.473-12.519 3.42zm9.408-5.3c3.647-1.523 5.381-5.324 5.381-11.796v-3.745l-2.645.252c-3.167.303-5.514 1.038-7.659 2.398-1.994 1.264-3.454 3.972-3.454 6.404 0 2.952 1.487 5.923 3.351 6.694 1.153.477 3.635.375 5.026-.206zm157.076 5.345c-3.808-.847-6.899-3.15-8.406-6.263-1.096-2.264-1.066-6.174.066-8.593 1.613-3.449 5.303-6.147 10.456-7.646 2.77-.805 8.368-1.697 10.672-1.7l1.676-.002v-5.098c0-6.595-.388-8.424-2.163-10.2-1.36-1.36-1.367-1.362-3.816-1.224-2.003.113-2.628.299-3.4 1.01-1.296 1.192-2.206 3.354-2.301 5.462-.044.968-.15 1.958-.235 2.2-.115.327-1.534.441-5.456.441h-5.3l.186-1.387c.263-1.961 1.724-4.982 3.199-6.614 2.776-3.073 6.983-4.438 13.641-4.426 8.73.016 12.6 2.419 14.347 8.908.542 2.01.617 4.21.63 18.336l.016 16.051h-9.172l-.177-2.378-.176-2.38L241 60.694c-2.035 2.108-4.258 3.309-7.098 3.834-2.492.46-2.97.451-5.477-.106zm9.45-5.475c1.771-.91 3.053-2.329 4.015-4.442.673-1.478.824-2.509.934-6.367l.13-4.602-2.414.232c-4.613.444-7.342 1.55-9.373 3.798-2.923 3.234-2.415 9.347.947 11.397 1.413.862 4.07.854 5.761-.016zm45.936 5.642c-2.088-.284-2.425-.39-5.117-1.609-1.901-.86-5.01-3.085-5.739-4.107a10.548 10.548 0 0 0-.905-1.087c-.654-.657-2.444-3.769-3.003-5.22-.98-2.546-1.514-5.595-1.697-9.703-.487-10.89 3.891-19.41 11.054-21.51 1.13-.33 2.42-.746 2.866-.923 1.232-.488 6.314-.383 8.89.183 3.432.754 4.57 1.155 6.05 2.135.739.489 1.445.89 1.569.89.123 0 .78.594 1.461 1.322 1.464 1.566 2.788 4.26 3.12 6.35l.238 1.5H291.218v-1.575c0-3.034-1.58-6.014-3.827-7.217-1.773-.948-5.349-.169-6.896 1.504-1.908 2.063-2.77 6.073-2.74 12.755.028 6.378.62 9.592 2.43 13.2 1.36 2.715 4.055 6.027 4.902 6.027.268 0 .487.14.487.311 0 .172.277.404.617.517.34.113 1.252.446 2.028.741 1.58.6 6.528.737 8.15.224.562-.177 1.777-.412 2.698-.522l1.676-.2v1.913c0 2.176 0 2.176-3.171 3.253-2.548.865-10.183 1.336-13.762.848zm46.453-.037c-5.406-.656-9.738-2.728-12.964-6.204-4.4-4.74-6.296-11.811-5.556-20.714.962-11.558 7.21-17.29 18.81-17.259 6.089.017 9.435 1.134 12.562 4.193 2.538 2.483 3.818 5.688 4.382 10.975l.235 2.205H321.5l.237 2.381c.97 9.754 4.221 15.535 10.322 18.355 3.36 1.553 9.79 1.503 13.927-.11.546-.212.617.004.617 1.886v2.126l-1.676.55c-4.614 1.511-10.329 2.141-14.665 1.616zm7.835-32.891c-.65-5.403-3.173-8.024-7.722-8.024-4.61 0-7.663 3.151-8.629 8.908l-.222 1.323h16.84zm-232.86 14.995c-.097-15.144-.18-17.353-.698-18.494-.763-1.68-1.817-2.339-4.5-2.811-2.057-.363-2.177-.438-2.075-1.294.106-.896.215-.928 7.516-2.232 4.074-.727 7.765-1.332 8.202-1.343.79-.02.793.004.82 5.713l.025 5.732.63-1.768c2.633-7.394 6.787-10.5 13.077-9.782l2.293.261.176 4.347.177 4.347-.882-.22c-.485-.122-2.152-.307-3.705-.413-2.337-.158-3.164-.062-4.812.56-2.529.953-4.829 3.344-5.98 6.214-.827 2.06-.845 2.338-.954 15.24l-.111 13.14h-9.09zm39.152-.177c-.095-15.942-.156-17.47-.738-18.536-.817-1.495-2.373-2.429-4.551-2.728-1.607-.221-1.726-.305-1.626-1.15.107-.899.204-.927 8.141-2.367 4.418-.801 8.11-1.38 8.202-1.288.093.093.174 2.485.179 5.314l.009 5.145 1.126-2.076c1.413-2.604 4.648-5.922 6.865-7.038 7.26-3.658 14.932-.483 16.707 6.914l.412 1.72 1.283-2.133c1.66-2.76 4.361-5.528 6.407-6.564 5.293-2.683 12.243-1.376 15.023 2.824 2.317 3.502 2.418 4.446 2.424 22.757l.005 16.404-4.382.1c-3.269.074-4.455-.016-4.67-.353-.157-.249-.289-7.29-.292-15.646-.006-16.68-.124-17.818-2.052-19.664-3.548-3.4-9.184-.922-11.907 5.235-1.705 3.855-1.92 5.957-1.92 18.71v11.795h-9.116l-.142-15.61c-.154-16.98-.27-18.026-2.201-20.096-1.78-1.906-5.196-1.962-7.963-.131-1.697 1.123-3.841 4.304-4.962 7.36-.773 2.11-.81 2.7-.934 15.336l-.13 13.14h-9.094zM362.4 35.895c-.091-25.953-.143-28.04-.722-29.098-.74-1.354-2.235-2.199-4.453-2.516-1.626-.233-2.325-1.078-1.54-1.862C355.985 2.12 369.384 0 370.974 0c.663 0 .677.685.677 31.926v31.927H362.5zm29.178 27.527c-.092-.248-.208-12.941-.258-28.207-.09-27.445-.099-27.766-.821-28.751-.954-1.3-2.818-2.23-4.473-2.23-1.23 0-1.323-.074-1.323-1.043 0-.901.155-1.069 1.147-1.235C388.398 1.526 399.656 0 400.274 0c.643 0 .66.9.572 31.838l-.09 31.838-4.505.1c-3.411.074-4.546-.012-4.672-.354zM13.69 41.811C7.536 39.44 2.83 34.57.847 28.514.136 26.344 0 25.221 0 21.52c0-3.715.13-4.788.831-6.817C2.555 9.71 6.782 4.833 11.408 2.499c2.43-1.227 5.45-2.154 6.912-2.123.849.018.663.133-.858.53C11.518 2.462 6.431 6.625 3.624 12.232c-1.895 3.785-2.565 7.055-2.297 11.218.51 7.935 5.88 15.221 13.537 18.37 2.676 1.1 1.688 1.093-1.174-.008zm.253-2.388c-.228-.63-.49-2.417-.582-3.969-.292-4.936-.293-4.94-2.348-6.105-1.012-.574-2.587-1.704-3.499-2.511L5.856 25.37l-.389 1.444c-.402 1.494-1.183 2.128-1.828 1.483-.258-.258-.248-1.07.033-2.688.37-2.126.342-2.44-.35-3.796-.85-1.667-1.295-5.173-.774-6.105.274-.49.392-.265.579 1.099.248 1.815 1.231 4.715 1.595 4.706.12-.003.614-.818 1.099-1.812.485-.993 1.874-2.88 3.087-4.192 1.68-1.82 2.204-2.636 2.204-3.44 0-.581.31-1.43.69-1.889l.688-.832-.206 1.323c-.113.727-.133 1.322-.045 1.322.088 0 1.37-.626 2.85-1.391 1.479-.766 3.238-1.495 3.91-1.62.753-.142 1.285-.474 1.387-.867.134-.51-.21-.756-1.714-1.23-1.035-.325-2.96-.698-4.28-.828-2.259-.223-2.398-.288-2.398-1.12 0-.816.117-.877 1.588-.832 2.443.075 3.77.463 7.206 2.11.568.272 1.31.407 1.65.299.579-.184.573-.303-.105-1.933-.687-1.654-.681-2.818.014-2.818.177 0 .683.992 1.125 2.205 1.035 2.843 1.214 3.02 2.188 2.166 1.205-1.055 2.394-1.522 4.15-1.629l1.587-.096-2.116-1.162c-2.228-1.223-1.435-1.296 1.29-.12 3.535 1.526 6.858 4.76 8.774 8.542 2.764 5.454 2.837 13.046.175 18.298-2.26 4.46-7.28 8.518-12.497 10.101-2.473.75-2.923.56-.741-.312 3.377-1.352 4.913-2.333 7.479-4.78 2.387-2.277 2.511-2.476 2.796-4.48.3-2.115.082-5.924-.39-6.811-.184-.346-.464-.142-1.006.736-1.039 1.68-4.228 4.631-5.961 5.515-1.405.717-1.45.797-1.855 3.302-.63 3.902-1.028 5.178-1.871 6.022-.672.672-.786.695-.885.181-.063-.324.23-2.197.651-4.162.42-1.964.704-3.633.629-3.708-.075-.075-.767.01-1.537.19-1.846.427-5.251.412-7.18-.033-.85-.196-1.637-.266-1.746-.156-.11.11-.013 1.877.216 3.928.427 3.822.235 5.068-.783 5.068-.265 0-.669-.515-.896-1.146zm10.222-9.912l1.94-.407.235-2.47c.129-1.357.15-3.27.048-4.249l-.186-1.78-3.047.016c-1.676.01-3.693-.112-4.484-.269l-1.437-.285-.467 1.52c-.681 2.22-1.395 5.611-1.409 6.697-.011.862.147.972 1.84 1.28 2.485.454 4.63.437 6.967-.053zM13.415 26.9c.119-.727.604-2.727 1.079-4.443l.862-3.12-1.922-1.891-1.922-1.892-1.023 1.165c-1.361 1.55-3.492 5.09-3.798 6.307-.2.8-.069 1.119.721 1.764 1.197.976 5.142 3.433 5.512 3.433.15 0 .37-.595.49-1.323zm16.778.245c1.846-1.184 4.357-3.744 4.95-5.047.296-.65.246-1.096-.227-2.028-.964-1.901-2.437-4.167-2.718-4.181-.141-.007-.91.695-1.708 1.561-.798.866-1.75 1.67-2.118 1.786-.612.194-.66.567-.584 4.596.045 2.411.226 4.386.403 4.388.177.002 1.078-.482 2.002-1.075zm9.513-3.315c.956-5.556-.646-11.153-4.536-15.848-.717-.865-1.718-1.898-2.225-2.295-.817-.64-.916-.653-.873-.117.077.962 1.24 2.898 1.74 2.898.562 0 3.406 2.394 3.406 2.866 0 .189-.703-.141-1.563-.733-1.923-1.323-2.224-1.337-2.189-.105.015.534-.088 1.534-.23 2.224-.208 1.013-.115 1.406.487 2.052.41.44 1.279 1.61 1.931 2.6.762 1.158 1.248 1.622 1.358 1.3.094-.277.37-1.217.614-2.09.36-1.29.464-1.423.556-.706.062.485-.106 1.715-.374 2.734-.41 1.564-.412 2.139-.01 3.693.264 1.012.491 2.798.507 3.969.028 2.081.04 2.104.504 1.07.261-.583.665-2.163.897-3.512zm-13.747-5.02c.325-.326-.872-6.756-1.336-7.179-.155-.14-.837-.348-1.516-.461-1.153-.192-1.297-.107-2.164 1.28-1.58 2.527-2.832 5.239-2.643 5.73.387 1.01 6.755 1.533 7.66.63zm3.453-2.397c.8-.869 1.456-1.747 1.456-1.951 0-.42-2.054-2.315-3.563-3.288-1.139-.734-1.903-.517-1.412.402.175.328.599 1.906.943 3.506.343 1.601.736 2.91.872 2.91s.903-.71 1.704-1.579zm-11.961-1.154c.598-1.116 1.64-2.662 2.314-3.436 1.425-1.637 1.537-2.088.432-1.746-2.265.7-6.966 3.574-6.967 4.259 0 .363 2.611 2.951 2.978 2.951.085 0 .644-.913 1.243-2.028zm14.475-4.63c0-1.645-.048-1.73-1.102-1.94-1.633-.328-3.837-.268-3.837.103 0 .178.522.646 1.159 1.04s1.63 1.12 2.205 1.616c.575.494 1.165.9 1.31.9.146 0 .265-.774.265-1.72zm-.352-3.066c0-.11-.165-.507-.366-.882-.44-.824-2.303-.91-3.305-.152-.77.583-.482.766 1.554.987.679.073 1.433.159 1.676.19.242.03.44-.034.44-.143zm376.414 3.318c-2.298-.656-4.234-3.18-4.234-5.522 0-1.56 1.443-3.962 2.826-4.703 1.456-.781 4.223-.86 5.57-.16.524.273 1.35.921 1.835 1.44.775.83.882 1.258.882 3.533s-.107 2.704-.882 3.533c-1.66 1.776-3.9 2.478-5.997 1.88zm3.452-1.351c3.195-1.45 3.413-6.3.361-7.993-1.151-.64-3.677-.584-4.726.104-2.911 1.907-2.33 7.008.925 8.13 1.621.558 1.69.553 3.44-.241zm-4.158-4.06V2.116h1.685c.955 0 2.026.238 2.47.549.996.697 1.011 2.074.03 2.76l-.752.528.753 1.276c.894 1.516.905 1.59.234 1.59-.285 0-.88-.634-1.323-1.409-1.088-1.906-2.039-1.908-2.039-.003 0 1.02-.147 1.411-.529 1.411-.433 0-.53-.607-.53-3.351zm3.623-.971c.298-.856-.184-1.323-1.368-1.323-1.041 0-1.197.114-1.197.882 0 .769.155.882 1.206.882.663 0 1.274-.199 1.359-.441z" fill="#fff" stroke-width=".353"/></svg>