<svg xmlns="http://www.w3.org/2000/svg" width="500.673" height="98.823" viewBox="0 0 132.47 26.147"><path d="M82.32 25.496c-.752-.751-.82-1.905-.303-5.171l.314-1.984 1.294-.083c.711-.045 1.392.016 1.511.136.12.12.046 1.284-.165 2.586-.386 2.384-.277 3 .482 2.71.246-.095.492-.917.703-2.35.487-3.316.368-3.132 2.014-3.132 1.655 0 1.58-.23 1.032 3.147-.638 3.934-1.438 4.79-4.476 4.79-1.513 0-1.848-.09-2.407-.649zm8.081.566c0-.046.121-.79.269-1.654.609-3.555.619-3.29-.125-3.29-.584 0-.673-.113-.67-.86.01-2.053.004-2.05 3.187-2.05 1.575 0 2.915.09 2.978.199.063.109.04.734-.05 1.389-.152 1.098-.229 1.197-.993 1.271l-.827.08-.331 2.5-.331 2.499h-1.554c-.854 0-1.553-.038-1.553-.084zm5.143-.511c.069-.328.314-1.846.546-3.374.658-4.349.454-3.969 2.121-3.969.798 0 1.453.09 1.456.199.003.109-.257 1.895-.577 3.969l-.582 3.77h-1.545c-1.463 0-1.538-.032-1.42-.595zm4.123 0c.008-.857 1.005-6.786 1.191-7.088.087-.14.762-.255 1.501-.255h1.344l-.164 1.39c-.09.763-.242 1.954-.337 2.645l-.173 1.257h2.258l-.164.992c-.09.546-.165 1.141-.167 1.323-.002.242-.71.33-2.649.33-2.569 0-2.645-.016-2.64-.594zm5.953-.794c.097-.764.374-2.52.615-3.903l.438-2.513 1.294-.083c.711-.045 1.378.015 1.48.133.134.152-.665 6.057-1.04 7.689-.007.036-.678.066-1.489.066h-1.474zm4.89 1.04c0-.354.436-3 .673-4.083.113-.516.022-.595-.68-.595-.79 0-.807-.025-.644-.992.35-2.076.109-1.944 3.383-1.861 2.441.062 2.948.144 2.913.471-.226 2.074-.371 2.382-1.123 2.382-.727 0-.754.053-1.064 2.05-.485 3.13-.381 2.977-2.021 2.977-1.012 0-1.438-.103-1.438-.348zm5.044.031c.01-.189.278-1.951.596-3.916l.577-3.571 1.294-.083c.711-.045 1.389.015 1.506.133.117.118-.052 1.881-.375 3.918l-.587 3.704-1.514.08c-1.114.058-1.51-.012-1.497-.265zm4.058-.41c.081-.4.336-1.978.566-3.506.616-4.088.268-3.704 3.347-3.704h2.66l-.164.827c-.091.455-.166.99-.166 1.19 0 .256-.357.365-1.19.365-.655 0-1.191.119-1.191.264 0 .146.417.265.926.265.87 0 .926.052.922.86-.006 1.202-.247 1.466-1.455 1.589-1.018.104-1.01.11.235.152l1.29.045-.165.826c-.091.455-.166.99-.166 1.191 0 .286-.6.364-2.799.364h-2.799zm6.566.452l-.604-.242.57-1.13c.314-.622.599-1.164.634-1.205.035-.04.417.129.849.376.495.285.972.376 1.292.25.422-.168.306-.278-.683-.649-1.547-.58-2.031-1.473-1.495-2.756.72-1.725 2.68-2.63 4.644-2.144.706.174.975.393 1.039.846.117.826-.693 2.064-1.09 1.666-.344-.343-1.873-.4-1.663-.062.078.127.498.301.933.389 2.089.417 2.434 2.465.688 4.077-.865.799-1.058.859-2.721.843-.984-.009-2.061-.126-2.393-.26zm-30.485-9.915c-2.46-.822-4.633-3.031-5.283-5.373C88.805 4.805 93.48-.488 99.724.036c5.591.469 9.089 5.062 7.77 10.206-.678 2.65-1.781 3.985-4.401 5.327-1.533.785-5.575.996-7.4.386zm4.92-5.298c.799-.497 1.26-1.785 1.046-2.924-.414-2.207-3.079-3.036-4.664-1.451-.618.618-.773 1.005-.773 1.925 0 2.463 2.303 3.748 4.391 2.45zM.043 15.497c.077-.328.616-3.573 1.199-7.21.582-3.639 1.126-6.943 1.21-7.343l.15-.727h6.022l.364 1.256c.2.692.644 2.36.987 3.707.342 1.348.7 2.36.793 2.25.094-.111.437-1.154.762-2.319.326-1.164.77-2.741.989-3.505l.397-1.39h6.005l.153.728c.083.4.628 3.704 1.21 7.342.582 3.638 1.12 6.883 1.197 7.21.137.59.11.596-2.743.596h-2.882l-.152-.993c-.083-.545-.234-2.153-.334-3.571-.1-1.42-.261-2.58-.356-2.58-.096 0-.7 1.607-1.342 3.572l-1.169 3.572H8.94l-.924-2.977c-.509-1.637-1.006-3.31-1.105-3.716-.1-.407-.224-.697-.277-.644-.053.053-.221 1.339-.373 2.857-.152 1.518-.338 3.147-.413 3.62l-.137.86H2.807c-2.876 0-2.902-.006-2.764-.596zm23.465.25c.047-.189 1.276-3.764 2.732-7.944l2.645-7.6 3.277.073L35.44.35l2.743 7.664c1.508 4.215 2.742 7.757 2.742 7.871 0 .114-1.416.208-3.146.208h-3.145l-.174-.926-.174-.926H30.1l-.174.926-.173.926h-3.165c-2.466 0-3.146-.076-3.08-.345zm9.235-7.313c-.238-1.01-.493-1.898-.568-1.973-.074-.075-.316.752-.537 1.837l-.402 1.973h1.938zm10.033-.28V.217h6.085v10.562l2.316.077 2.315.076.075 2.58.076 2.58H42.776zm13.392 6.821c.87-2.406 4.66-13.337 4.842-13.965.19-.654.226-.662 3.504-.735l3.313-.074 2.681 7.509a1801.78 1801.78 0 0 0 2.849 7.945c.15.391-.166.437-3.028.437h-3.196l-.223-.86-.223-.86h-4.194l-.137.794-.138.793-3.23.075-3.23.074zM65.4 9.543c-.103-.4-.33-1.416-.504-2.257l-.316-1.53-.337 1.662c-.185.914-.401 1.93-.48 2.257-.13.537-.046.596.84.596.942 0 .976-.031.797-.728zm9.919-1.389V.217H81.193l-.19 3.042c-.105 1.674-.127 3.043-.048 3.043.078 0 .87-1.37 1.762-3.043l1.62-3.042h6.59l-1.232 1.918c-.678 1.055-1.797 2.801-2.487 3.88l-1.254 1.963 2.62 3.918c1.442 2.155 2.62 3.98 2.62 4.057 0 .076-1.517.138-3.373.138l-3.373-.001-1.809-3.108-1.809-3.108.175 3.109.174 3.109h-5.86zm34.131 0V.217h10.848V4.979h-2.381c-2.364 0-2.382.005-2.382.662 0 .65.036.661 2.117.661h2.117V10.8h-4.234v5.292h-6.085zm12.7 0V.217H132.47V4.979h-2.25c-2.222 0-2.248.008-2.248.662 0 .65.035.661 2.117.661h2.116V10.8H127.972v5.292h-5.821z" fill="#fff" stroke-width=".265"/></svg>