<svg xmlns="http://www.w3.org/2000/svg" width="450.076" height="171.814" viewBox="0 0 119.083 45.459"><path d="M17.737 45.066c-3.69-.803-7.976-3.048-10.723-5.618C4.195 36.812 1.77 32.79.634 28.866c-.793-2.74-.855-9.285-.113-11.982C1.755 12.401 4.903 7.595 8.399 4.86c2.14-1.675 5.877-3.588 8.306-4.252 2.419-.662 8.007-.818 10.536-.295C36.013 2.127 42.96 8.85 45.18 17.678c.485 1.929.485 8.125 0 10.054-2.157 8.578-8.573 15.018-17.143 17.21-1.113.284-2.48.517-3.039.517h-1.016V27.768l.596-.188c1.795-.568 3.378-2.805 3.367-4.76-.01-1.961-1.51-4.203-3.252-4.86-.41-.155-1.369-.282-2.131-.282-3.695 0-6.114 4.05-4.412 7.386.552 1.082 1.785 2.259 2.656 2.535.517.164.53.393.53 9.014v8.846l-.992-.02c-.545-.013-1.718-.18-2.606-.373zm35.745-1.817c-3.081-1.43-2.766-5.334.504-6.25 3.152-.882 5.937 2.022 4.537 4.73-.21.408-.692.944-1.07 1.191-.943.618-2.984.787-3.97.33zm2.514-2.288c.291-.29.53-.648.53-.793 0-.366-.99-1.323-1.37-1.323-1.055 0-1.693 1.847-.814 2.36.688.4 1.066.344 1.654-.244zm25.377 2.043c-.493-.332-1.044-.898-1.226-1.257-.897-1.772.046-4.07 1.94-4.73.941-.329 1.17-.323 1.909.045l.84.42v-4.194h2.38v10.055h-1.19c-.66 0-1.19-.125-1.19-.28 0-.157-.259-.099-.588.132-.827.58-1.83.513-2.875-.191zm2.95-1.787c.672-.36.654-1.369-.035-1.992-.5-.452-.609-.46-1.256-.098-.843.471-1.04 1.335-.44 1.934.496.497 1.009.543 1.732.156zm8.987 2.063c-.895-.469-1.86-1.971-1.86-2.896 0-1.919 1.392-3.519 3.003-3.451.458.019 1.637.036 2.62.038h1.785v6.4l-1.52-.024c-.838-.013-1.939.043-2.448.124-.533.085-1.204 0-1.58-.195zm2.655-2.063c.628-.336.663-1.238.074-1.889-.828-.915-1.943-.433-1.943.84 0 1.173.8 1.621 1.87 1.049zm-36 .01c0-1.706-.077-2.117-.397-2.117-.287 0-.397-.294-.397-1.058 0-.765.11-1.059.397-1.059.283 0 .397-.287.397-1 0-1.245.593-2.118 1.774-2.611 1.36-.569 1.93-.278 1.93.983 0 .934-.068 1.04-.662 1.04-.558 0-.661.124-.661.794s.103.794.661.794c.596 0 .662.106.662 1.059 0 .952-.066 1.058-.662 1.058-.65 0-.661.035-.661 2.117v2.116H59.965zm8.526-2.448l.073-4.564h2.38l.073 4.564.073 4.564H68.419zm3.702 1.455l.075-3.109 1.587-.014c.873-.01 1.847-.102 2.164-.21.842-.286 2.416.455 2.733 1.287.144.38.263 1.703.263 2.938v2.246l-1.257-.08-1.257-.082-.032-1.77c-.04-2.233-.2-2.656-.959-2.548-.556.08-.602.231-.673 2.268l-.077 2.183h-2.641l.074-3.11zm16.082-.066v-3.175H90.656v6.35h-2.38zm.416-4.384c-.923-.923-.05-2.626 1.18-2.305.917.24 1.122 1.772.32 2.39-.573.44-.998.417-1.5-.085zm-36.333-6.858c-.975-.424-1.028-.63-.445-1.757.304-.589.533-.752.86-.616 1.498.627 1.866.72 2.258.57.51-.195.589-1.215.105-1.354-2.186-.626-2.918-1.058-3.284-1.934-.326-.78-.332-1.09-.04-1.995.48-1.483 1.463-2.15 3.128-2.126.73.011 1.68.166 2.11.344l.78.323-.536 1.05c-.429.84-.608.99-.9.746-.52-.43-1.831-.224-1.931.304-.06.318.281.558 1.25.88.734.244 1.574.748 1.867 1.12 1.025 1.303.47 3.654-1.046 4.438-.965.499-3.036.503-4.176.01zm12.395.072c-1.578-.84-2.25-2.913-1.474-4.549.673-1.418 1.446-1.711 4.373-1.657l2.5.046.074 3.126.075 3.126-1.53-.024c-.842-.013-1.947.042-2.456.123-.531.084-1.197 0-1.562-.192zm2.733-2.21c.866-.865.326-1.965-.965-1.965-1.05 0-1.56 1.087-.869 1.85.577.638 1.269.68 1.834.115zm9.787 2.157c-1.7-.74-2.415-2.631-1.704-4.502.395-1.04 1.757-1.735 3.406-1.736 1.258 0 1.516.1 2.315.899.69.69.9 1.122.9 1.852v.952H79.93c-2.176 0-2.248.02-1.975.53.297.554 1.433.73 1.72.264.191-.309 2.514-.363 2.514-.059 0 .44-.862 1.403-1.59 1.78-.938.485-2.241.493-3.327.02zm2.47-4.188c-.061-.182-.448-.33-.86-.33-.413 0-.8.148-.86.33-.075.224.2.33.86.33.658 0 .934-.106.86-.33zm16.784 4.218c-1.022-.587-1.634-1.78-1.636-3.186-.002-1.105.122-1.407.887-2.171l.888-.888 2.75.055 2.75.054.074 3.123.075 3.123-1.53-.01c-.841 0-2.006.05-2.588.12-.627.077-1.307-.014-1.67-.222zm3.006-2.414c.572-.874.127-1.738-.895-1.738-1.851 0-1.835 2.34.016 2.373.251 0 .647-.281.879-.635zm-40.362.379c0-1.235-.11-2.117-.265-2.117-.145 0-.264-.476-.264-1.058 0-.582.119-1.059.264-1.059.146 0 .265-.357.265-.793 0-.765.044-.794 1.19-.794 1.147 0 1.191.029 1.191.794 0 .67.103.793.662.793.595 0 .661.106.661 1.059 0 .952-.066 1.058-.661 1.058-.65 0-.662.035-.662 2.117v2.116H59.171zm12.435 0c0-1.705-.077-2.117-.396-2.117-.278 0-.397-.28-.397-.934 0-.587.147-.991.397-1.087.226-.087.396-.481.396-.918 0-.73.054-.765 1.191-.765 1.14 0 1.19.033 1.19.775 0 .603.133.794.596.86.478.068.611.28.677 1.077.076.91.026.992-.595.992-.67 0-.677.022-.677 2.117v2.116H71.607zm15.61-2.382V20.06h2.464c2.114 0 2.546.077 3.043.54.614.572.807 2.395.333 3.144-.168.265-.057.519.371.856.795.625 1.032 1.638.652 2.789-.421 1.275-1.474 1.667-4.472 1.667h-2.39zm4.36 2.091c.42-.411-.226-1.156-1.079-1.243-.714-.073-.764-.018-.72.794.024.48.054.915.065.967.037.17 1.469-.258 1.734-.518zm-.655-3.546c.263-.316.263-.477 0-.794-.55-.663-1.058-.473-1.058.397s.507 1.06 1.058.397zm12.435 2.778v-3.175h1.191c.75 0 1.19.118 1.19.318 0 .247.071.247.318 0 .175-.175.88-.318 1.568-.318 1.037 0 1.345.12 1.8.697.466.593.548 1.07.548 3.175v2.478H107.59v-2.125c0-1.723-.082-2.156-.433-2.29-.925-.356-1.283.273-1.364 2.393l-.078 2.022h-2.359zm7.938-1.852v-5.027h2.363l.075 2.795.075 2.795 1.1-.943c.95-.813 1.287-.943 2.448-.943.741 0 1.347.108 1.347.24s-.595.776-1.323 1.43c-.727.654-1.323 1.287-1.323 1.406s.681.904 1.513 1.745l1.514 1.53h-1.57c-1.487 0-1.628-.059-2.703-1.114l-1.135-1.114V29.056H111.294z" fill="#fff" stroke-width=".265"/></svg>