<svg width="170" height="24" viewBox="0 0 170 24" xmlns="http://www.w3.org/2000/svg"><g fill="#fff" fill-rule="evenodd"><path d="M73.59 21.916l-.005-8.594c0-1.384.782-1.485.782-1.485l.081-.076h-4.192l.077.076s.785.1.785 1.485c0 1.382.006 3.373.006 3.373h-5.768v-3.373c0-1.384.787-1.48.787-1.48l.077-.08h-4.19l.082.08s.782.096.782 1.48v8.594c0 1.385-.782 1.504-.782 1.504l-.081.078h4.189l-.077-.078s-.787-.119-.787-1.504v-4.07h5.768v4.07c0 1.385-.782 1.504-.782 1.504l-.081.078h4.194l-.081-.078s-.784-.119-.784-1.504zM51.587 11.762c-1.383 0-1.577-.132-1.577-.132l-.006 2.336.08-.06s.632-1.012 2.01-1.012h1.968v9.022c0 1.385-.78 1.504-.78 1.504l-.08.078h4.19l-.078-.078s-.785-.119-.785-1.504l.01-9.022h1.922a2.521 2.521 0 0 1 2.046 1.012l.081.06.005-2.336s-.195.132-1.579.132h-7.427zm27.74 7.256l1.812-3.808 1.65 3.808h-3.461zm7.505 2.892l-5.158-10.738-5.122 10.738c-.767 1.47-1.612 1.5-1.612 1.5l-.08.082h3.504l-.076-.082s-.98-.193-.36-1.5l.918-1.895h4.395l.89 1.895c.624 1.307-.357 1.5-.357 1.5l-.08.082h4.83l-.082-.082s-.89-.006-1.61-1.5zm8.274-10.148l.081.08s1.037.291.256 1.508c-.384.59-1.536 2.245-2.588 3.842-1.056-1.597-2.192-3.26-2.574-3.852-.78-1.218.26-1.498.26-1.498l.078-.08H85.79l.078.08s.7.116 1.616 1.498c.384.585 2.344 3.327 3.4 4.927v3.649c0 1.385-.784 1.504-.784 1.504l-.078.078h4.19l-.08-.078s-.78-.119-.78-1.504c0-.584-.008-2.05-.008-3.649 1.056-1.6 3.02-4.332 3.407-4.917.91-1.381 1.952-1.508 1.952-1.508l.082-.08h-3.679zM33.49 22.382c-2.522 0-4.261-1.654-4.261-4.674 0-3.017 1.691-4.99 4.353-4.99 2.762 0 3.757 2.151 3.757 2.151l.065.057v-2.54s-1.654-.81-4.01-.81c-4.256 0-6.925 2.624-6.925 6.148 0 2.835 2.204 5.964 6.751 5.964 1.716 0 3.716-.681 3.716-.681l.92-3.145-.102.066s-1.49 2.454-4.264 2.454zm8.914-3.364l1.81-3.808 1.65 3.808h-3.46zm7.504 2.892L44.75 11.172 39.626 21.91c-.766 1.47-1.614 1.5-1.614 1.5l-.076.082h3.508l-.084-.082s-.98-.193-.356-1.5l.918-1.895h4.392l.891 1.895c.62 1.307-.359 1.5-.359 1.5l-.076.082h4.83l-.084-.082s-.89-.006-1.61-1.5zM115.113 19.018l1.808-3.808 1.653 3.808h-3.46zm7.5 2.892l-5.154-10.738-5.122 10.738c-.768 1.47-1.611 1.5-1.611 1.5l-.081.082h3.503l-.074-.082s-.984-.193-.363-1.5l.924-1.895h4.388l.893 1.895c.622 1.307-.36 1.5-.36 1.5l-.077.082h4.828l-.081-.082s-.89-.006-1.612-1.5zM156.864 11.837l.078-.076h-4.19l.077.076s.784.118.784 1.5v8.595c0 1.382-.784 1.497-.784 1.497l-.077.082h4.19l-.078-.082s-.784-.115-.784-1.497v-8.595c0-1.382.784-1.5.784-1.5M130.74 22.382c-2.521 0-4.26-1.654-4.26-4.674 0-3.017 1.69-4.99 4.356-4.99 2.757 0 3.754 2.151 3.754 2.151l.065.057v-2.54s-1.655-.81-4.01-.81c-4.256 0-6.925 2.624-6.925 6.148 0 2.835 2.204 5.964 6.75 5.964 1.719 0 3.717-.681 3.717-.681l.918-3.145-.1.066s-1.492 2.454-4.266 2.454M142.99 11.761l.075.081s.783.116.783 1.498v8.592c0 1.382-.783 1.497-.783 1.497l-.075.082h4.187l-.08-.082s-.781-.115-.781-1.497v-4.158h2.473c1.38 0 1.495.606 1.495.606l.082.082v-2.523l-.082.081s-.115.603-1.495.603h-2.473V12.87h2.973c1.383 0 1.957.794 1.957.794l.082.062v-2.097s-.2.133-1.583.133h-6.755zM140.735 11.837l.078-.076h-4.193l.08.076s.784.118.784 1.5v8.595c0 1.382-.783 1.497-.783 1.497l-.081.082h4.193l-.078-.082s-.787-.115-.787-1.497v-8.595c0-1.382.787-1.5.787-1.5M169.414 19.928s-1.486 2.454-4.266 2.454c-2.516 0-4.262-1.654-4.262-4.674 0-3.017 1.693-4.99 4.356-4.99 2.764 0 3.757 2.151 3.757 2.151l.069.057v-2.54s-1.662-.813-4.013-.813c-4.253 0-6.926 2.627-6.926 6.15 0 2.836 2.204 5.965 6.755 5.965 1.714 0 3.712-.68 3.712-.68l.921-3.146-.103.066zM106.214 13.337v-.453h.55c.674 0 1.373 0 1.792.138 1.105.328 1.664 1.172 1.664 2.5 0 1.085-.69 2.699-2.595 2.699-.55 0-1.124-.22-1.411-.35v-4.534zm2.23 6.01c2.585 0 4.127-1.961 4.127-3.853 0-1.047-.387-2.91-3-3.57-.585-.15-1.234-.158-2.086-.158l-4.6-.005.078.076s.784.118.784 1.5v8.595c0 1.382-.784 1.497-.784 1.497l-.078.082h4.187l-.078-.082s-.78-.115-.78-1.497v-2.995c.365.162 1.102.41 2.23.41zM7.216 11.394c-.077.01-.164-.102-.2-.154-.012-.016-.054-.106-.043-.12.016-.013.104.017.127.036.058.046.104.11.131.22.002.011-.009.017-.015.018M5.35 10.358c-.053.019-.182-.128-.218-.182-.067-.1-.132-.211-.203-.308-.065-.088-.137-.15-.154-.302-.002-.018-.013-.064-.002-.063.072.006.14.13.175.18.026.034.056.07.08.106.034.053.049.118.085.167.045.062.1.119.147.18.025.033.06.062.076.106.007.023.03.109.014.116m-.534-.02c-.04-.004-.057-.029-.082-.047a.293.293 0 0 1-.121-.24c-.001-.012.003-.015.01-.015.078 0 .158.12.188.176a.219.219 0 0 1 .026.094c0 .021-.01.03-.021.031m-1.776.36c-.003.008-.01.02-.022.02-.085-.002-.11-.13-.148-.187-.03-.047-.056-.1-.087-.148-.023-.033-.05-.069-.07-.107-.022-.05-.032-.1-.06-.144-.016-.023-.04-.044-.056-.065a.852.852 0 0 1-.117-.206l-.022-.084c-.017-.047-.038-.098-.054-.148-.008-.025-.013-.077-.008-.094.003-.008.006-.013.012-.012.065.01.127.168.16.225.034.061.089.111.12.175.026.057.035.13.066.187.024.042.065.077.09.118.036.054.06.123.087.183.03.066.075.118.1.182a.194.194 0 0 1 .009.105m-.33-2.424a.782.782 0 0 1-.046-.095c-.013-.036-.014-.07-.03-.103a37.13 37.13 0 0 0-.155-.342c-.022-.046-.05-.132-.03-.19.003-.009.02-.003.027.004.017.015.029.025.043.042.011.016.014.033.025.05.024.037.056.075.075.117.042.09.053.19.094.278.027.058.072.108.1.168.015.03.024.065.034.098.007.026.005.06.007.08.001.03-.002.049-.014.05-.078-.005-.1-.1-.13-.157m16.88 7.486c-.1-.362-1.16-.207-2.031-.287a12.371 12.371 0 0 1-3.034-.64c-1.144-.397-2.252-.852-3.217-1.375l-.432-.229c-.08-.049-.143-.084-.222-.133a1.735 1.735 0 0 0-.173-.095c-.067-.028-.113-.064-.171-.1-.06-.037-.14-.076-.2-.113-.09-.055-.145-.098-.228-.158-.053-.038-.078-.049-.148-.091-.041-.025-.117-.066-.154-.09-.078-.052-.127-.095-.204-.149-.048-.033-.083-.054-.14-.089-.056-.034-.109-.078-.158-.114-.027-.02-.068-.044-.093-.07a2.643 2.643 0 0 0-.171-.152c-.056-.04-.106-.09-.16-.13-.034-.025-.092-.075-.126-.1-.087-.062-.142-.11-.229-.173-.056-.041-.103-.096-.159-.137-.063-.047-.12-.1-.184-.146a.935.935 0 0 1-.121-.1c-.042-.049-.082-.083-.125-.133-.031-.035-.094-.073-.129-.11a1.154 1.154 0 0 0-.2-.195c-.043-.04-.056-.057-.072-.078a1.314 1.314 0 0 0-.124-.134 2.391 2.391 0 0 1-.08-.077c-.016-.015-.04-.05-.064-.083-.022-.03-.043-.058-.057-.074l-.1-.107a6.071 6.071 0 0 1-.072-.076.462.462 0 0 1-.044-.06.458.458 0 0 0-.042-.057c-.026-.028-.045-.018-.05-.015-.016.01-.021.04-.003.077.02.041.054.089.073.117l.011.014a.54.54 0 0 1 .023.04c.012.02.024.041.038.061.032.044.067.08.101.115a.579.579 0 0 1 .092.111c.02.027.039.055.064.082a.284.284 0 0 1 .03.039c.012.015.023.03.036.043.02.018.039.039.058.058.032.034.065.068.097.095.025.02.05.047.075.072.066.076.136.154.194.227.033.043.094.074.131.103.042.03.075.085.108.127.025.03.08.08.107.11a.88.88 0 0 0 .194.192.635.635 0 0 1 .132.124c.023.03.097.102.124.136.071.09.103.173.093.175-.048.013-.166-.09-.234-.135-.058-.039-.067-.054-.12-.094-.012-.01-.098-.071-.128-.108a1.56 1.56 0 0 1-.107-.115c-.097-.124-.13-.131-.242-.24-.081-.08-.182-.152-.262-.223l-.07-.076c-.027-.026-.06-.05-.082-.076-.037-.047-.087-.139-.131-.172-.047-.035-.081-.068-.128-.103-.016-.012-.032-.033-.048-.046-.023-.017-.05-.036-.067-.058l-.162-.21c-.026-.033-.062-.06-.087-.095-.054-.074-.097-.15-.151-.221-.075-.098-.183-.168-.256-.268-.074-.101-.119-.22-.19-.327-.03-.046-.077-.079-.11-.123-.02-.026-.03-.055-.048-.083-.037-.057-.081-.113-.12-.168-.05-.073-.083-.152-.132-.229-.009-.01-.026-.062-.057-.1-.03-.039-.056-.082-.09-.136-.034-.054-.05-.09-.075-.127-.025-.038-.04-.073-.058-.1l-.064-.094c-.045-.07-.057-.103-.106-.167-.029-.04-.06-.073-.086-.063-.02.014-.013.039-.009.057.022.057.022.047.044.088.037.07.05.102.091.165.019.03.051.099.078.136.026.039.052.083.07.115.02.033.048.12.076.157.02.027.05.08.068.12.04.077.09.138.13.2l.08.152c.054.081.118.158.172.24l.097.176c.032.047.076.088.107.137.038.058.06.122.097.18.03.044.07.087.1.132.05.077.097.152.151.225.03.04.07.075.099.115.041.055.074.121.116.168.05.047.065.075.105.122.06.07.206.28.181.28-.086.012-.252-.177-.323-.245-.054-.054-.114-.093-.153-.144-.055-.075-.095-.159-.151-.232-.02-.026-.05-.047-.07-.073-.04-.05-.075-.102-.12-.145-.018-.018-.038-.033-.055-.053-.067-.088-.124-.18-.19-.271-.028-.037-.065-.07-.092-.107-.02-.029-.032-.06-.052-.091-.027-.042-.06-.082-.087-.122-.02-.03-.033-.061-.053-.092-.036-.054-.084-.101-.119-.157-.029-.044-.037-.103-.066-.147-.073-.114-.155-.23-.228-.343-.019-.03-.026-.063-.044-.092-.06-.092-.115-.194-.173-.286-.022-.034-.031-.073-.053-.106-.027-.042-.068-.074-.095-.115-.02-.032-.029-.066-.045-.102-.023-.048-.052-.096-.077-.142-.016-.028-.024-.056-.04-.083a3.075 3.075 0 0 1-.187-.35c-.03-.064-.075-.124-.105-.188-.034-.07-.067-.143-.099-.212l-.05-.14c-.035-.075-.087-.138-.12-.214-.024-.052-.036-.101-.058-.144-.012-.027-.038-.049-.057-.037-.018.011-.021.035-.01.076.023.077.066.166.086.21.04.089.06.18.1.27.022.05.055.098.077.146.04.083.077.17.115.25.022.048.04.093.065.138.014.023.033.05.045.075.025.057.033.118.058.172.027.056.071.104.097.16.135.286.27.56.434.815.045.07.068.157.114.228.047.073.111.13.158.202.04.06.048.142.083.206.053.096.122.177.18.267.016.025.02.054.037.08.021.034.049.068.072.102.03.047.044.102.077.145.034.047.083.086.118.134.043.059.072.127.116.186.031.042.079.07.11.111l.27.355c.076.096.21.238.274.365.019.039.087.131.072.15-.036.024-.205-.161-.234-.189-.071-.068-.132-.161-.194-.24-.014-.017-.177-.177-.19-.194a1.233 1.233 0 0 1-.048-.065c-.045-.067-.073-.149-.122-.213-.02-.026-.05-.047-.07-.073-.038-.049-.064-.106-.1-.157-.059-.079-.133-.15-.19-.228-.064-.087-.108-.189-.173-.275-.032-.042-.072-.08-.103-.125-.013-.021-.018-.04-.032-.062-.023-.035-.054-.075-.072-.114-.017-.036-.028-.07-.049-.103-.067-.104-.134-.215-.2-.32-.03-.047-.048-.098-.078-.144-.05-.078-.112-.147-.163-.226-.06-.092-.091-.203-.15-.296-.04-.06-.085-.119-.123-.18-.043-.066-.065-.143-.103-.213-.033-.06-.08-.117-.108-.179-.032-.066-.055-.132-.087-.201-.017-.037-.044-.073-.06-.11-.021-.048-.026-.096-.047-.141-.059-.128-.146-.25-.206-.377a3.444 3.444 0 0 1-.116-.282c-.02-.053-.028-.103-.052-.152-.053-.117-.119-.241-.17-.358a14.055 14.055 0 0 0-.068-.186c-.004-.018-.006-.035-.012-.054-.025-.054-.057-.108-.079-.163l-.06-.19c-.082-.206-.156-.44-.234-.654-.01-.04-.013-.088-.027-.13l-.121-.33c-.022-.056-.076-.037-.064.02.017.076.027.094.04.154l.018.091c.008.036.027.075.037.11.021.066.023.131.045.194.032.09.064.175.093.266l.027.137c.013.043.03.087.046.125.046.113.089.22.129.332l.048.19c.016.035.04.071.057.106.014.03.017.06.03.091.028.072.055.145.087.217.027.06.058.12.082.183.01.03.01.057.022.087.069.189.144.387.224.563.02.045.026.092.046.137.017.038.04.078.057.114l.025.072c.026.053.068.097.093.15.07.146.132.285.218.41.081.116.116.27.178.407.028.066.068.122.105.18.017.03.03.063.044.095.04.072.062.135.109.198.037.052.034.064.066.137.01.022.045.16.038.16-.012.008-.08-.033-.103-.058-.03-.035-.08-.081-.112-.156-.017-.037-.051-.102-.069-.138-.042-.091-.114-.168-.167-.251-.031-.049-.048-.103-.074-.156-.045-.096-.096-.194-.143-.294-.02-.04-.049-.08-.072-.118-.024-.038-.036-.08-.061-.118a2.538 2.538 0 0 1-.157-.27c-.032-.067-.048-.136-.08-.202-.009-.02-.027-.042-.04-.06-.021-.035-.03-.073-.048-.111-.024-.051-.06-.1-.085-.152-.047-.104-.076-.213-.125-.316-.022-.048-.061-.09-.084-.137-.035-.074-.038-.166-.073-.244-.09-.203-.194-.413-.272-.627-.012-.036-.015-.076-.026-.114-.033-.093-.08-.18-.112-.27-.015-.042-.02-.08-.034-.122-.023-.062-.052-.128-.075-.19-.006-.022-.008-.044-.017-.065-.027-.058-.044-.128-.071-.19-.015-.032-.037-.065-.05-.099-.021-.061-.015-.138-.037-.197-.03-.088-.068-.18-.1-.267-.018-.049-.021-.098-.039-.148l-.063-.179c-.022-.06-.02-.123-.04-.186-.015-.047-.035-.096-.051-.14-.03-.084-.042-.173-.073-.251l-.015-.043c-.009-.022-.023-.043-.044-.037-.025.007-.024.039-.023.059.005.062.027.119.045.168.02.053.03.11.044.16.008.032.007.068.015.103.01.048.029.096.043.144.011.048.005.095.016.133.031.104.066.222.101.323.015.052.018.11.033.156l.058.16c.016.044.02.087.039.129.02.044.042.09.058.14.02.066.019.13.04.19.036.1.082.194.117.29.01.034.014.07.026.106.03.083.05.172.08.255.044.118.1.233.141.35.042.115.048.253.096.36.025.054.076.086.1.138.015.033.01.071.022.11.014.044.035.088.05.129l.031.11c.015.044.046.088.065.13.032.069.047.14.087.201.03.046.067.09.092.142.027.057.036.118.063.178.039.088.085.172.118.263.03.082.042.17.081.243.04.072.089.137.128.21l.074.16c.021.043.06.081.084.125.03.055.06.113.085.168.02.042.027.082.05.118.036.056.062.102.099.158.032.05.068.113.09.173a.621.621 0 0 0 .061.13c.028.038.064.072.088.114.023.041.056.177.043.184-.029.01-.112-.07-.134-.097-.066-.08-.098-.186-.158-.27-.062-.091-.104-.143-.152-.247-.029-.06-.079-.169-.114-.222-.033-.051-.077-.096-.103-.153-.02-.047-.031-.102-.051-.148-.032-.067-.096-.11-.128-.18-.036-.076-.053-.156-.09-.228-.02-.035-.045-.074-.061-.11-.023-.046-.033-.091-.055-.137-.043-.093-.11-.173-.153-.267-.045-.096-.07-.2-.116-.296-.025-.052-.068-.096-.092-.15-.034-.069-.05-.141-.084-.212-.02-.043-.049-.084-.069-.126-.028-.06-.039-.127-.066-.19l-.194-.434c-.024-.054-.03-.112-.055-.167a39.651 39.651 0 0 1-.073-.145c-.056-.125-.075-.272-.131-.399-.029-.064-.065-.125-.09-.194-.04-.108-.055-.22-.095-.33-.06-.17-.11-.346-.17-.514-.018-.05-.02-.1-.038-.152l-.055-.148c-.013-.04-.02-.097-.032-.148-.044-.143-.09-.285-.136-.43-.01-.034-.012-.096-.024-.14-.007-.025-.02-.054-.029-.076-.012-.033-.011-.061-.022-.095-.033-.105-.062-.226-.095-.33-.01-.034-.012-.081-.023-.119-.047-.149-.07-.331-.129-.47-.011-.026-.028-.055-.054-.049-.027.007-.021.037-.018.062.008.069.033.127.044.183.005.025.004.06.007.09.003.026.006.058.014.085l.086.28c.008.043.001.108.012.156.039.142.067.31.118.438.047.115.056.254.089.38.01.053.014.108.02.162.009.053.038.09.054.134.013.032.012.06.023.095.028.09.049.179.082.27.022.062.055.121.078.182.01.028.006.053.014.084.015.062.026.125.044.186.044.123.086.257.13.38.025.069.033.136.057.202l.293.794.047.175c.022.06.057.11.082.164.031.068.041.14.067.213.031.085.071.15.103.24.016.042.03.088.05.129.015.03.042.06.057.091.025.053.03.119.054.172.026.052.07.095.101.144.028.046.031.104.054.156.037.081.084.155.119.24.014.036.021.068.037.102.018.04.048.078.066.118 0 0 .002 0 .003.005a.104.104 0 0 1 .006.021l.015.053a.46.46 0 0 0 .044.08l.04.047a.16.16 0 0 1 .02.025c.035.055.04.133.068.194.028.06.079.106.107.168.023.047.035.162.007.167-.12 0-.128-.168-.168-.256-.032-.068-.081-.125-.117-.19a.348.348 0 0 1-.027-.067.623.623 0 0 0-.026-.066c-.016-.033-.016-.028-.026-.05-.012-.023-.044-.065-.056-.085v-.004c-.046-.074-.077-.18-.11-.229-.018-.028-.042-.056-.06-.084-.03-.047-.045-.104-.07-.156-.022-.047-.058-.095-.08-.145-.027-.059-.028-.133-.056-.193-.014-.032-.041-.065-.056-.096-.034-.068-.053-.141-.087-.209-.016-.032-.044-.062-.06-.095-.027-.057-.04-.118-.07-.171a4.338 4.338 0 0 1-.184-.358c-.03-.07-.04-.141-.071-.21-.026-.06-.063-.118-.09-.174-.017-.039-.022-.076-.037-.118-.025-.067-.055-.135-.08-.202-.014-.046-.026-.146-.04-.186-.018-.05-.045-.104-.066-.152-.033-.074-.043-.151-.076-.224-.025-.057-.053-.117-.074-.175-.018-.05-.023-.095-.043-.141-.015-.035-.036-.075-.05-.11-.015-.044-.026-.114-.04-.171-.02-.064-.047-.124-.067-.187-.01-.046-.012-.153-.024-.182-.066-.194-.127-.4-.188-.593-.028-.09-.04-.179-.066-.266-.009-.035-.01-.079-.019-.114-.017-.056-.041-.113-.059-.171-.01-.038-.016-.079-.023-.118-.01-.04-.03-.081-.046-.121-.037-.117-.057-.24-.092-.354-.012-.047-.011-.108-.024-.152-.044-.14-.054-.304-.096-.452-.01-.043-.016-.086-.026-.125-.073-.276-.105-.585-.185-.851-.015-.05.004-.116-.01-.17a2.48 2.48 0 0 0-.05-.172c-.008-.028-.009-.05-.015-.076C.87.96.85.924.824.93.795.94.801.965.802 1.004a.771.771 0 0 0 .021.163c.01.041.004.076.016.114.025.086.033.207.047.285.006.032.002.075.008.113.008.04.038.091.047.134.008.057.007.132.017.193.011.052.026.102.04.152.011.042.003.083.015.122.013.04.035.08.043.125.006.049 0 .12.009.163.062.243.08.53.152.763.009.033.01.07.018.103.06.204.104.422.166.623.007.032.006.065.014.1.02.07.038.147.053.22.008.031.007.062.015.094.022.075.048.147.072.22.01.036.013.072.02.107.005.028.02.06.029.087.012.043.008.083.023.122.008.023.026.048.033.072.009.043.014.087.027.13.016.05.044.1.065.152.016.042.015.085.031.125.03.072.06.156.088.232.023.063.026.126.048.19.015.042.035.085.05.126.009.033.014.065.026.098.01.031.043.08.065.119.018.044.01.104.024.151.015.05.042.088.058.133.016.046.015.094.027.14.013.036.038.071.053.104l.042.118c.012.025.033.05.045.076.021.045.038.094.058.14.026.067.028.149.049.225.005.021.005.073-.009.08-.03.005-.065-.043-.086-.073a.943.943 0 0 1-.096-.168c-.009-.024-.015-.046-.022-.068-.02-.051-.035-.108-.059-.16-.013-.031-.033-.066-.044-.1-.017-.048-.01-.105-.028-.147-.017-.036-.045-.064-.061-.1-.012-.031-.017-.066-.032-.098-.017-.039-.04-.074-.062-.11-.016-.036-.014-.072-.027-.115a.937.937 0 0 0-.05-.144c-.021-.046-.048-.093-.069-.14-.01-.027-.014-.054-.022-.08-.013-.036-.031-.075-.046-.111-.008-.026-.014-.055-.025-.08-.018-.039-.038-.082-.054-.126-.012-.035-.014-.072-.026-.106-.022-.06-.043-.13-.063-.19-.014-.046-.019-.094-.032-.14-.017-.055-.042-.11-.062-.164-.015-.044-.019-.092-.032-.137-.02-.058-.05-.113-.07-.175-.011-.048-.013-.097-.024-.144-.034-.114-.07-.24-.107-.357-.041-.131-.044-.279-.083-.41-.026-.095-.06-.186-.089-.278-.01-.048-.012-.093-.024-.14a6.225 6.225 0 0 0-.098-.35C.896 2.949.9 2.89.884 2.828c-.016-.061-.017-.135-.037-.2-.013-.042-.028-.071-.038-.123C.8 2.454.8 2.392.792 2.353.784 2.315.717 2.084.71 2.042c-.008-.043-.008-.12-.013-.148-.003-.019-.038-.118-.043-.144C.65 1.724.65 1.694.64 1.643.63 1.593.6 1.48.594 1.446c-.005-.033-.005-.1-.012-.133C.576 1.28.553 1.204.538 1.15.521 1.084.535 1.014.516.952A1.902 1.902 0 0 0 .471.818.979.979 0 0 1 .444.705L.438.57C.437.533.42.471.417.417A1.133 1.133 0 0 0 .385.219C.378.192.381.16.375.136.356.062.339-.004.302 0 .275.005.266.026.277.074.29.13.297.174.31.23.317.26.319.334.32.36c.002.04.004.049.009.087a.685.685 0 0 0 .013.068.374.374 0 0 1 .014.081 2.252 2.252 0 0 0-.002.09c0 .019.002.025.009.058.007.032.01.038.013.066.002.023-.001.045 0 .065C.378.9.38.924.388.947c.015.048.047.115.034.186-.014.076.009.147.026.213.008.042 0 .089.008.13.015.055.029.115.044.174.012.048.004.09.016.136.018.064.061.15.067.18.005.028.004.105.013.155.009.049.02.105.023.136.004.032 0 .046.002.069.004.023.036.134.04.163.006.029.005.044.01.074.007.03.032.15.037.188.006.039.004.061.011.1.012.059.035.11.048.166.008.042.006.068.01.103.013.053.03.1.04.152.008.038.009.078.016.118.018.085.03.172.054.258.015.05.044.096.059.144.012.045.015.093.027.137.012.038.039.073.049.114.006.035.005.07.011.106.01.04.027.08.035.122.006.031.003.062.011.095.012.036.03.067.038.102.008.044.008.089.019.133.013.051.034.101.05.148.015.045.008.093.021.14.029.105.063.22.098.316.015.053.013.107.032.164.013.038.03.063.045.095.012.034.001.071.011.11.017.062.027.147.05.209.024.07.064.127.09.194.024.071.025.143.049.216.022.063.054.121.078.18.02.05.013.117.032.17.022.059.063.104.085.164.026.069.043.136.064.205L1.858 7c.025.089.073.162.104.247.012.04.015.073.026.11.022.06.047.124.075.183.024.051.057.103.081.156.022.048.026.098.047.148.02.048.043.101.062.152.011.031.012.059.026.088.06.135.134.271.196.403.033.073.049.151.083.225.027.057.06.113.086.175.016.039.02.077.037.114.034.072.081.145.114.217.009.018.034.095.024.124-.001.004-.003.01-.007.012-.023.007-.068-.032-.093-.057-.087-.084-.1-.244-.16-.354-.018-.031-.038-.066-.054-.099-.008-.023-.013-.045-.024-.068-.037-.071-.084-.135-.117-.21-.024-.054-.027-.116-.052-.167-.098-.212-.21-.416-.305-.628-.044-.097-.053-.207-.09-.312-.023-.062-.06-.114-.086-.171-.022-.046-.027-.094-.047-.141-.027-.06-.066-.117-.09-.183-.014-.042-.02-.086-.036-.128-.02-.046-.05-.085-.071-.13-.03-.067-.034-.133-.056-.21-.012-.04-.03-.084-.043-.121-.01-.036-.015-.072-.026-.106-.03-.08-.077-.15-.107-.232-.02-.056-.016-.126-.04-.18-.02-.043-.055-.08-.072-.125-.02-.048-.002-.106-.017-.163-.015-.054-.037-.105-.055-.156-.01-.032-.013-.064-.022-.095a31.679 31.679 0 0 0-.072-.198c-.012-.033-.012-.064-.026-.095-.017-.039-.046-.075-.06-.118-.017-.064-.022-.13-.038-.193-.025-.084-.056-.152-.08-.233-.007-.025-.007-.05-.014-.079-.02-.072-.03-.153-.05-.224-.007-.035-.005-.065-.014-.099-.02-.068-.043-.137-.064-.202-.01-.041-.013-.084-.023-.125-.033-.106-.063-.23-.095-.334-.008-.03-.006-.057-.015-.091-.025-.081-.058-.18-.077-.263-.009-.048-.01-.095-.02-.14-.012-.057-.032-.11-.043-.167-.004-.026 0-.046-.003-.068-.005-.037-.008-.074-.015-.11-.036-.147-.094-.328-.126-.475-.01-.053-.011-.107-.017-.16-.006-.036-.008-.08-.019-.118-.011-.038-.029-.078-.035-.118-.008-.063-.008-.125-.018-.186l-.002-.014c-.014-.075-.051-.23-.06-.29A16.64 16.64 0 0 1 .135 1C.134.952.125.903.12.853.109.777.091.711.082.633.076.58.08.532.073.488.069.461.068.413.033.413s-.03.04-.032.073c-.005.079.01.182.016.23C.028.807.02.895.03.987c.005.051.022.103.028.152.012.087.02.175.032.259v.004c.003.04.008.078.015.115l.002.01.001.006.001.006a.513.513 0 0 0 .013.051c.01.034.005.06.014.095.027.1.022.21.05.307.04.146.06.308.102.452.011.043 0 .084.012.13l.035.136c.01.056.002.111.017.167.013.05.029.103.043.153.015.059.016.12.033.185.019.065.04.136.052.202.014.074.021.16.035.239.013.066.049.145.064.216.004.025.002.048.007.073.009.051.024.102.035.152.006.023.004.043.01.068.025.095.054.214.084.307.007.026.01.053.017.08.019.067.039.117.046.153.006.031.01.068.019.103.014.051.03.095.04.14.007.035.012.067.022.102.012.042.029.081.046.122.028.086.032.176.062.258.018.05.042.097.058.15.013.047.016.105.032.158.027.082.059.176.089.259.035.097.056.204.09.296.013.038.01.074.022.114l.09.29c.016.05.016.096.035.144.032.078.078.144.107.224.024.07.03.138.056.201.034.086.074.173.107.263.023.062.03.124.056.182.022.051.051.102.073.153l.046.133c.013.034.048.091.073.137.028.06.033.128.056.194.037.1.085.203.128.296.017.037.02.071.034.11.025.068.069.118.097.18.027.059.034.121.06.178.038.084.067.127.066.247 0 .011-.003.02-.016.023-.021.01-.047-.028-.062-.042-.063-.063-.073-.123-.113-.21-.061-.131-.14-.255-.199-.384-.031-.067-.044-.14-.076-.21-.018-.041-.045-.084-.064-.125-.029-.06-.043-.123-.074-.179-.045-.079-.08-.173-.115-.263-.014-.033-.016-.066-.03-.098-.016-.034-.041-.066-.057-.1-.023-.054-.037-.122-.06-.178-.048-.106-.102-.219-.144-.331-.037-.103-.056-.202-.093-.308-.015-.043-.036-.09-.05-.133-.014-.04-.014-.073-.027-.11-.035-.095-.08-.195-.12-.285-.02-.045-.025-.09-.042-.137L.933 6.09c-.028-.075-.029-.164-.058-.243-.062-.17-.14-.348-.193-.529-.01-.04-.007-.083-.019-.125l-.086-.285c-.03-.107-.027-.22-.06-.323-.042-.134-.09-.275-.132-.407-.012-.04-.007-.082-.02-.125a4.644 4.644 0 0 0-.097-.32C.25 3.687.25 3.635.233 3.59.21 3.535.156 3.555.16 3.616c.004.055.023.127.029.156.006.038.006.076.015.117.016.072.04.132.06.197.02.068.02.132.04.202.01.034.024.074.035.106.022.07.022.145.044.209.019.049.032.11.048.163.01.036.008.065.02.1l.059.19c.01.036.005.068.014.102.014.05.025.102.04.148.012.045.011.108.027.155.028.088.06.18.09.263.032.092.036.188.07.281.059.165.114.354.173.52.016.044.01.087.024.134.02.071.035.142.06.213.012.034.034.068.049.099.019.04.024.084.042.125.015.034.037.068.05.103.018.053.011.118.032.167.015.04.038.084.053.126.017.045.016.094.035.136.017.038.044.074.06.111.017.035.02.071.035.11.014.04.036.081.053.118.019.042.02.09.04.133.016.038.041.074.056.114.014.043.016.09.03.133.026.065.066.122.094.183.021.046.023.098.044.145.023.054.056.106.08.16.033.07.057.145.087.212.054.12.072.252.127.37.04.087.095.17.134.254.022.048.028.099.05.145.025.052.068.096.092.148.019.052.034.106.056.156.03.067.074.126.104.19.017.038.025.074.042.11.033.072.088.132.12.203.018.047.034.094.05.14.036.076.093.14.13.218.027.056.044.116.078.167.052.081.085.134.135.216.033.053.075.13.102.188.026.057.07.104.097.16.026.055.06.114.089.166.033.06.067.103.104.158.06.09.097.187.156.279.04.063.088.128.133.19.12.164.29.458.364.557.06.08.111.175.167.26.043.064.098.128.144.19.039.05.07.103.107.155l.03.04c1.532 1.95 3.107 3.241 4.44 4.088.702.44 1.08.569 1.08.569.09.037.03.101-.016.13l-7.907 5.062c-.025.016-.086.061-.061.111.018.039.1.017.12.01 6.345-2.23 10.95-4.064 13.765-5.401 2.853-1.356 3.813-2.131 3.708-2.517"/></g></svg>