<svg xmlns="http://www.w3.org/2000/svg" width="2630.674" height="477.504" viewBox="0 0 696.033 126.34"><path d="M103.293 126.072c-5.282-.728-9.09-4.54-10.157-10.17-.195-1.031-.355-7.33-.355-13.997V89.782h9.852l.1 12.612c.096 11.929.141 12.688.828 14.023 1.093 2.125 3.155 3.074 6.361 2.928 3.175-.145 4.964-1.215 6.187-3.699.824-1.673.838-1.881.938-13.781l.102-12.083H127v35.278H117.475l-.042-1.5c-.023-.824-.15-1.975-.284-2.557-.222-.974-.263-.998-.5-.302-.14.416-1.013 1.465-1.938 2.33-2.746 2.569-6.873 3.668-11.418 3.041zm301.739.022c-3.955-.7-6.809-2.651-8.434-5.765-.823-1.576-.937-2.205-.937-5.147 0-2.938.115-3.572.932-5.138 1.765-3.38 5.19-5.66 10.042-6.684 1.326-.28 4.752-.616 7.614-.748l5.204-.238v-1.812c0-2.3-1.175-4.706-2.736-5.602-.632-.363-2.1-.745-3.261-.85-3.887-.353-6.54 1.37-6.963 4.518l-.189 1.404-4.626-.098-4.627-.098.108-1.235c.38-4.347 2.795-7.206 7.48-8.854 3.1-1.09 11.346-1.2 14.622-.195 4.565 1.4 7.063 3.16 8.455 5.952l.909 1.825v27.753l-4.145-.1-4.145-.099-.177-2.47-.176-2.469-.843 1.357c-2.285 3.675-8.5 5.787-14.107 4.793zm9.068-6.517c3.632-1.078 5.353-4.06 5.353-9.275v-2.634l-3.827.232c-4.939.3-7.249.988-8.919 2.659-2.205 2.205-2.221 5.835-.034 7.872 1.82 1.696 4.292 2.077 7.427 1.146zm-351.536 6.04c-4.244-1.03-8.16-3.97-10.147-7.621-2.075-3.813-2.955-11.103-1.924-15.938 2.015-9.445 10.133-14.717 20.526-13.329 8.901 1.19 14.353 7.976 14.353 17.866v2.943H59.52l.227 2.174c.293 2.798 1.581 5.598 3.094 6.722 4.536 3.371 11.196 1.49 12.22-3.451l.289-1.389 4.691-.098 4.692-.099-.251 1.51c-.983 5.903-4.728 9.44-11.334 10.703-3.187.61-8.084.613-10.583.007zm12.578-23.771c0-2.53-1.415-5.127-3.441-6.314-1.274-.746-2.058-.942-3.759-.937-3.817.01-6.26 1.964-7.465 5.969-.964 3.205-1.507 2.976 7.08 2.976h7.585zm71.161 23.887c-1.864-.439-3.11-1.138-4.429-2.488-1.982-2.028-2.174-3.397-2.174-15.535V96.838H131.939v-7.056H139.7v-5.588l4.448-2.321c2.446-1.277 4.51-2.322 4.586-2.322.076 0 .138 2.302.138 5.116v5.115h9.172v7.056h-9.172v8.84c0 9.53.245 11.417 1.65 12.738.789.742 1.203.823 4.198.823h3.323v3.023l.002 3.024-3.127.416c-3.572.475-6.68.487-8.615.031zm27.264.002c-3.983-.767-7.25-2.667-8.61-5.008-.88-1.517-1.828-5.63-1.44-6.257.122-.199 2.235-.346 4.955-.346h4.742v.916c0 2.954 2.427 4.782 6.334 4.77 4.186-.014 6.719-1.614 6.719-4.244 0-2.59-1.705-3.757-7.232-4.95-9.014-1.947-12.369-3.747-14.164-7.602-2.795-6.003 1.299-11.848 9.663-13.796 3.197-.745 10.447-.54 12.967.368 3.923 1.411 6.166 4.096 6.723 8.045l.237 1.676h-9.174l-.221-1.178c-.407-2.168-2.436-3.44-5.51-3.455-3.859-.019-5.99 1.332-5.99 3.799 0 2.268 1.282 2.96 9.04 4.883 5.94 1.472 8.224 2.389 10.136 4.067 1.846 1.621 2.77 3.61 2.97 6.389.425 5.911-3.517 10.253-10.686 11.772-2.664.564-8.887.646-11.46.151zm40.746.024c-6.004-1.197-10.389-5.108-12.193-10.877-1.03-3.295-1.286-9.27-.546-12.753 1.2-5.646 4.17-9.655 8.759-11.82 7.517-3.547 18.089-1.804 21.94 3.618 1.388 1.953 2.29 4.436 2.31 6.35l.014 1.5-4.321-.006c-2.377-.003-4.496-.122-4.71-.264-.213-.143-.48-.96-.591-1.816-.611-4.674-6.151-6.667-10.734-3.861-3.542 2.17-4.747 12.697-2.224 19.44 1.157 3.093 3.62 4.851 6.796 4.851 3.4 0 5.977-2.422 6.475-6.085l.228-1.676h9.166l-.15 2.029c-.281 3.827-2.557 7.374-6.043 9.417-3.275 1.919-9.824 2.822-14.176 1.954zm82.764.001c-5.867-1.243-10.38-5.552-12.19-11.637-.819-2.758-1.085-8.112-.558-11.235.868-5.138 4.39-10.316 8.415-12.37 4.051-2.066 11.246-2.582 15.584-1.118 6.984 2.358 10.842 8.265 11.042 16.904l.07 3.057-12.997.093-12.997.092.233 1.848c.53 4.197 1.864 6.506 4.526 7.833 4.503 2.243 9.754.19 10.873-4.252l.392-1.557h9.184l-.222 1.62c-.677 4.94-3.797 8.41-9.046 10.063-2.618.825-9.732 1.206-12.309.66zm12.3-23.014c-.017-1.573-.748-3.994-1.596-5.284-1.21-1.842-3.34-2.86-5.98-2.862-4.256-.002-6.81 2.575-7.72 7.794l-.2 1.146H309.387l-.008-.794zM0 99.482V73.843L11.906 74c10.793.142 12.187.229 14.905.929 4.77 1.228 7.873 2.934 10.943 6.016 3.048 3.06 4.149 4.936 5.5 9.375.895 2.936.965 3.617.962 9.34-.003 5.213-.122 6.605-.76 8.94-2.282 8.34-7.133 13.085-15.806 15.465-2.544.698-3.83.775-15.215.91L0 125.121zm23.108 17.11c5.73-1.465 8.751-4.49 10.302-10.318.737-2.773.816-9.871.14-12.612-2.068-8.374-7.823-11.994-19.071-11.994H10.23v35.63h5.058c3.905 0 5.689-.16 7.82-.705zm219.25-17.109V73.907H251.883V95.214l1.806-2.025c2.185-2.451 4.413-3.644 7.674-4.106 5.697-.808 11.04 1.702 13.65 6.413l1.036 1.87.103 13.847.104 13.847h-9.522l-.105-12.436-.105-12.435-.882-1.588c-1.262-2.27-3.317-3.28-6.24-3.066-3.714.271-5.979 2.241-6.975 6.065-.432 1.66-.544 4.284-.544 12.774v10.686H242.358zm106.892-.005v-25.64l12.26.156c11.13.14 12.512.224 15.018.908 3.62.988 5.958 2.296 7.833 4.382 1.928 2.144 2.8 4.608 2.791 7.888-.005 2.107-.189 2.876-1.156 4.841-1.271 2.581-2.925 4.144-6.043 5.71l-1.93.968 2.156.662c4.263 1.309 7.356 4.229 8.445 7.973.834 2.87.543 6.843-.686 9.355-1.114 2.276-4.19 5.317-6.342 6.269-3.993 1.766-4.954 1.868-19.029 2.023l-13.317.145zm25.412 17.252c2.946-1.355 4.467-4.158 4.134-7.622-.237-2.472-1.641-4.366-4.083-5.51-1.92-.9-2.29-.944-8.97-1.06l-6.968-.12v15.296l7.144-.124c6.334-.11 7.325-.207 8.743-.86zm-.884-22.724c5.245-2.666 4.024-10.331-1.909-11.98-.702-.194-3.935-.355-7.185-.356l-5.909-.002V95.15l6.624-.127c6.257-.119 6.722-.175 8.379-1.017zm64.372 13.415V89.78h9.878v5.349l1.75-1.913c2.125-2.327 5.013-3.729 8.61-4.18 5.944-.747 10.883 1.662 13.062 6.371.71 1.534.748 2.236.85 15.629l.107 14.023h-9.915l-.008-12.26c-.007-11.17-.066-12.386-.662-13.697-2.281-5.024-10.055-4.796-12.717.373l-.901 1.75-.106 11.917-.105 11.917h-9.843zm43.744-7.938V73.907H491.42V125.06H481.894zm17.34 15.486l-7.414-10.09 6.744-7.549 6.745-7.548h5.579c3.068 0 5.579.087 5.579.194 0 .106-3.03 3.368-6.735 7.247-4.137 4.334-6.662 7.243-6.547 7.543.103.268 3.69 4.868 7.97 10.222 4.28 5.353 7.781 9.81 7.781 9.903 0 .093-2.765.169-6.144.169h-6.145zm72-52.44L571.324 0h124.53l.09 62.53.089 62.53H571.145zm107.424 0l-.09-45.243H588.61l-.09 45.244-.09 45.244H678.748zm-79.88 32.052c.103-.27 11.02-15.034 24.26-32.808l24.071-32.316h10.917c8.899 0 10.883.086 10.737.466-.098.256-11.066 15.02-24.374 32.808l-24.195 32.343h-10.803c-9.097 0-10.773-.078-10.614-.493z" fill="#fff" stroke-width=".353"/></svg>