<svg xmlns="http://www.w3.org/2000/svg" width="470.118" height="794.986" viewBox="0 0 124.385 210.34"><path d="M.553 210.117c-.142-4.003.092-16.895.315-17.386.481-1.056 1.472-1.2 8.212-1.2 6.927 0 7.539.113 8.116 1.508.215.52.285 3.187.236 8.942l-.07 8.202h-4.234l-.075-2.687-.075-2.687-1.607-.186c-.884-.103-2.726-.103-4.092 0l-2.485.186v5.507H2.677c-1.164 0-2.12-.09-2.124-.199zm12.443-11.939v-2.083l-3.903-.127c-2.146-.07-3.992-.078-4.101-.018-.11.06-.198 1.055-.198 2.21v2.102h8.202v-2.084zm7.937 3.01v-9.327c.001-.11 3.442-.198 7.646-.198 6.917 0 7.694.044 8.158.464.653.591.624.395.774 5.26.08 2.606.019 4.541-.166 5.227-.486 1.807-.82 1.903-6.797 1.962l-5.25.051-.074 2.844-.075 2.845h-4.216zm12.171-3.025c0-1.777-.071-2.118-.463-2.22-.255-.065-2.01-.103-3.903-.083l-3.44.036-.076 2.183-.077 2.183h7.96zM40.575 201l.07-9.337H44.768l.025 9.26.025 9.26-2.156.077-2.156.077.069-9.337zm8.22 8.677l-.742-.638v-8.085c0-8.06.002-8.088.602-8.689.59-.59.731-.604 7.353-.681l6.751-.08-.077 2.196-.077 2.196-4.99.052c-2.745.028-5.026.087-5.069.132-.164.171-.19 1.023-.159 5.438l.032 4.564H62.738v4.234h-6.6c-6.595 0-6.6 0-7.343-.639zm18.205.27c-1.27-.704-1.333-1.122-1.343-8.86-.009-6.936.015-7.284.553-8.156.31-.5.853-1.02 1.208-1.155.873-.332 14.148-.317 15.026.017 1.311.499 1.46 1.425 1.46 9.082 0 7.591-.123 8.423-1.338 9.052-1.043.539-14.598.556-15.566.02zm12.406-8.854v-4.99l-4.3-.14c-2.42-.079-4.501-.033-4.762.104-.414.219-.463.738-.463 4.954 0 2.59.08 4.788.176 4.885.097.097 2.24.176 4.763.176h4.586zm8.202-.17v-9.416l7.564.078 7.564.078.638.742c.626.728.638.838.638 5.767 0 4.981-.006 5.03-.65 5.674-.562.562-1.633.84-2.605.676-.221-.038.615 1.496 2.12 3.89.486.773.814 1.517.73 1.654-.086.137-1.197.25-2.47.25H98.82l-1.66-2.753c-.914-1.515-1.859-2.8-2.101-2.857-.242-.058-1.061-.057-1.82 0l-1.38.103-.076 2.687-.075 2.687-2.05.078-2.05.077zm12.171-2.778v-2.117H91.842v4.234H99.779zm7.525 11.827c-.078-.2-.106-4.403-.063-9.337l.079-8.972 7.011-.08c4.314-.048 7.376.027 7.96.196 1.48.43 1.622 1.023 1.589 6.63l-.03 4.895-.673.596c-.643.568-.88.595-5.256.595-2.52 0-4.95.073-5.4.163l-.818.164-.075 2.68-.075 2.681-2.055.078c-1.559.058-2.088-.011-2.195-.289zm12.263-11.893l-.076-2.183-.728.016c-.4.01-2.156.04-3.903.067l-3.175.05v4.232h7.96zm-93.342-26.392c0-1.71.093-2.392.33-2.42.182-.02 1.641-.05 3.242-.065l2.91-.029.132-7.408.133-7.409h4.762l.07 8.574c.067 8.175.045 8.626-.471 9.692-.68 1.404-.87 1.446-6.643 1.446h-4.465zm16.196-.067l.076-2.447 1.984.057c1.092.032 2.73-.008 3.64-.087 1.639-.143 1.656-.153 1.598-.917l-.059-.773h-3.408c-5.282 0-5.585-.398-5.432-7.153.137-6.068-.03-5.944 8.027-5.944h5.556l.064 3.572c.036 1.965.127 3.837.202 4.16l.137.588 13.557-.013c7.456-.007 13.821-.118 14.145-.246.518-.205.574-.383.475-1.5a135.85 135.85 0 0 1-.125-1.467c-.007-.11-5.136-.199-11.398-.199H60.074l.075-2.808.075-2.808 2.381-1.643c8.343-5.755 14.083-9.749 14.465-10.063 1.344-1.106 1.432-1.073 2.859 1.04l1.337 1.983-1.905 1.395c-1.9 1.39-3.357 2.408-8.407 5.867-1.467 1.005-2.629 1.865-2.582 1.912.046.046 3.921.094 8.61.105 8.02.02 8.58.053 9.42.549.492.29.983.73 1.092.978.108.248.268 1.867.354 3.597l.157 3.147 2.72.121c4.318.193 4 .522 4.086-4.235l.073-4.032 2.25.06c1.236.032 2.308.061 2.38.065.073.004.097 1.787.053 3.962l-.079 3.954.873.16c.48.087 2.6.123 4.71.08 2.895-.06 3.82-.16 3.77-.41-.037-.181.049-.33.19-.33.155 0 .233-1.47.198-3.742l-.057-3.741 2.182.018c1.201.01 2.31.027 2.467.038.195.013.257 1.793.198 5.702l-.085 5.683-.733.733-.734.733-28.966.07-28.966.07v2.258c0 2.53-.362 3.538-1.448 4.033-.46.21-2.386.316-5.718.316h-5.025zm7.22-10.649v-1.588h-3.705l-.078 1.5c-.09 1.708-.1 1.702 2.327 1.685l1.455-.01v-1.587zM9.29 171.29v-2.514h5.292V173.803H9.292zm75.992.066l.076-2.448 2.58-.075 2.58-.076v5.046h-5.312zm6.776.052c-.047-1.327-.036-2.463.025-2.523.06-.06 1.286-.109 2.722-.109h2.612l-.076 2.448-.077 2.447-2.56.075-2.56.076zm9.684 2.041c-.075-.195-.1-1.296-.058-2.447l.078-2.094 2.58-.075 2.58-.076v5.046H104.4c-1.862 0-2.557-.092-2.658-.354zM1.027 166.682l-.864-.772-.081-5.324L0 155.262l2.463.076 2.463.077.004 3.572.004 3.571 6.345.075c3.49.041 6.62.007 6.955-.075.593-.145.608-.228.58-3.117a205.861 205.861 0 0 1-.014-3.563c.015-.572.108-.596 2.397-.596h2.381v5.053c0 5.478-.164 6.217-1.511 6.831-.417.19-3.94.287-10.404.287H1.891zm117.537-12.326V141.26H123.326v26.194H118.565zm-83.2-25.183c-.431-.233-3.143-1.836-6.027-3.561-2.884-1.726-5.36-3.138-5.5-3.138-.142 0-.258-.092-.258-.204 0-.113-.445-.44-.99-.728-.543-.288-2.21-1.267-3.704-2.177-1.493-.91-2.762-1.653-2.82-1.653-.057 0-2.279-1.318-4.937-2.927-2.658-1.61-5.26-3.16-5.782-3.443A25.616 25.616 0 0 1 4 110.566a99.442 99.442 0 0 0-2.117-1.284l-1.72-1.022V63.64L4 61.408c2.11-1.228 4.73-2.737 5.82-3.353a494.261 494.261 0 0 0 5.292-3.059 253.74 253.74 0 0 1 4.763-2.731c.8-.437 1.515-.863 1.587-.945.073-.083.668-.438 1.323-.79 1.379-.739 7.754-4.402 8.732-5.017.363-.229 2.506-1.473 4.762-2.766a786.09 786.09 0 0 0 5.027-2.898c.51-.302 1.521-.889 2.25-1.305.727-.416 1.5-.862 1.719-.992.817-.487 3.605-2.09 4.498-2.587a630.43 630.43 0 0 0 5.746-3.338l4.82-2.823 6.028 3.48c3.315 1.915 6.92 3.982 8.012 4.595l1.984 1.113.078 2.054.078 2.053-1.798-.995a153.78 153.78 0 0 1-3.65-2.102 133.687 133.687 0 0 0-3.307-1.909 254.88 254.88 0 0 1-4.232-2.425c-1.527-.893-2.956-1.623-3.175-1.622-.219 0-.815.257-1.324.57-1 .614-8.374 4.891-10.319 5.985a464.28 464.28 0 0 0-3.571 2.047c-1.31.758-2.858 1.65-3.44 1.982a65.42 65.42 0 0 0-1.984 1.188c-.51.321-2.355 1.39-4.101 2.377-4.222 2.384-3.06 1.713-26.723 15.433a571.101 571.101 0 0 1-4.414 2.54l-.974.546-.084 19.583c-.047 10.77-.046 19.88.003 20.244.065.498.522.916 1.852 1.694.97.568 2.182 1.299 2.69 1.624 1.237.789 12.204 7.265 12.305 7.265.043 0 .705.422 1.471.938.767.515 1.559.874 1.76.796.202-.077.304-.037.226.089-.13.211 2.961 2.122 11.122 6.874 1.342.781 1.598.848 2.074.546.3-.19 1.437-.845 2.528-1.456 2.517-1.41 6.929-3.999 7.278-4.272.146-.114.742-.464 1.323-.777a67.523 67.523 0 0 0 1.983-1.118 87.74 87.74 0 0 1 2.38-1.337 65.89 65.89 0 0 0 2.527-1.444l1.072-.658 1.667.94c1.388.782 1.607.998 1.31 1.287-.303.294-2.313 1.474-8.56 5.024-.582.331-3.957 2.28-7.5 4.332-3.544 2.051-6.52 3.725-6.615 3.72-.094-.007-.524-.202-.955-.435zm48.925-1.114c-.721-.402-2.8-1.599-4.618-2.66a508.08 508.08 0 0 0-4.498-2.601c-.655-.37-2.262-1.29-3.572-2.049-1.31-.757-3.87-2.234-5.689-3.28a332.96 332.96 0 0 1-3.704-2.15 54.94 54.94 0 0 0-1.587-.91 98.573 98.573 0 0 1-2.514-1.46 98.554 98.554 0 0 0-2.513-1.46c-.655-.364-1.37-.78-1.588-.924-.526-.348-7.282-4.27-9.79-5.684a1624.14 1624.14 0 0 1-8.697-4.992c-3.692-2.13-6.817-3.873-6.945-3.873-.128 0-.232-.09-.232-.2 0-.11-.328-.347-.728-.527-.4-.18-1.115-.564-1.588-.854l-.86-.528V75.159l1.354-.833c.745-.458 1.522-.768 1.726-.69.311.12.37 1.64.353 9.185l-.02 9.041 1.27.709c.7.39 2.759 1.584 4.578 2.655 1.819 1.07 3.724 2.173 4.233 2.45.51.277 1.522.847 2.25 1.268.727.42 1.62.914 1.984 1.096.363.182.72.4.793.484.073.084.668.456 1.323.826a1521.03 1521.03 0 0 1 13.23 7.623c6.41 3.76 11.872 6.886 12.029 6.886.09 0 .307.125.483.277.286.247 2.683 1.645 9.712 5.663 1.237.707 2.487 1.416 2.777 1.576.29.16.812.498 1.16.753.348.254.834.463 1.08.463.36 0 3.689-1.749 5.567-2.924a96.45 96.45 0 0 1 2.3-1.304c1.046-.58 2.355-1.315 2.91-1.633.554-.318 1.781-1.014 2.727-1.547 5.602-3.155 12.473-7.058 15.308-8.695 1.798-1.039 3.31-1.889 3.36-1.889.05 0 .772-.41 1.605-.912l1.513-.911.12-19.156.12-19.155-.801-.57c-.44-.314-.857-.57-.925-.57-.068 0-1.185-.638-2.483-1.416a194.716 194.716 0 0 0-3.54-2.08c-.649-.364-1.672-.948-2.272-1.296-.601-.348-3.068-1.764-5.483-3.146l-4.389-2.514-.008-1.742c-.004-.958.063-1.813.15-1.9.16-.16 1.33.275 1.826.678.264.213 7.209 4.256 10.98 6.392 1.092.618 3.473 1.995 5.292 3.06 1.82 1.064 3.694 2.118 4.167 2.342l.86.408v11.147c0 15.63-.302 31.87-.592 31.87-.133 0-1.334.64-2.67 1.423-3.966 2.326-32.403 18.529-35.38 20.159-.079.043-.733-.25-1.454-.651zm-51.053-6.651c-1.455-.868-2.943-1.754-3.307-1.97-.364-.216-5.99-3.576-12.502-7.467l-11.84-7.074v-37.94l1.786-.986c1.968-1.087 3.558-2.008 6.946-4.02a197.07 197.07 0 0 1 3.175-1.854c.509-.284 2.83-1.62 5.159-2.967 2.328-1.347 4.71-2.722 5.292-3.054 3.352-1.915 6.553-3.76 10.186-5.871C51.3 40.552 59.735 35.71 60.23 35.52c.252-.097 4.657 2.36 12.827 7.156.655.385 1.697.959 2.315 1.275l1.125.576v4.189l-.596-.39c-.327-.213-1.845-1.104-3.373-1.977a2447.8 2447.8 0 0 1-7.468-4.3l-4.69-2.71-5.364 3.108c-2.95 1.708-5.808 3.388-6.351 3.731-.543.344-1.043.625-1.112.625-.069 0-1.768.967-3.776 2.149a519.866 519.866 0 0 1-4.841 2.823c-4.306 2.437-6.23 3.594-6.306 3.794-.049.127-.214.23-.367.23-.266 0-5.094 2.73-13.832 7.82a1192.06 1192.06 0 0 1-6.615 3.823L9.16 68.955l-.068 16.952-.068 16.951 12.239 7.338c6.731 4.036 12.472 7.468 12.758 7.625.285.158.68.436.878.618.998.917 1.458.743 7.919-2.99 3.462-2 6.6-3.816 6.974-4.037.642-.38.764-.352 2.177.494 1.425.852 2.096 1.572 1.464 1.572-.258 0-4.466 2.373-11.994 6.762-3.776 2.201-4.84 2.764-5.21 2.754-.19-.005-1.537-.718-2.992-1.586zm50.933.102a134.243 134.243 0 0 1-2.775-1.643c-.872-.53-1.884-1.12-2.25-1.31-.365-.19-1.26-.694-1.987-1.119a46.952 46.952 0 0 0-1.984-1.105c-.364-.182-.721-.4-.794-.484-.139-.16-3.645-2.163-4.101-2.342-.146-.057-.57-.318-.945-.58-.572-.4-3.156-1.898-7.32-4.245-.72-.406-8.894-5.133-11.976-6.926-.509-.296-1.365-.786-1.902-1.089-.812-.457-6.152-3.543-13.423-7.755-.811-.47-2.041-1.174-2.732-1.564l-1.257-.708V71.945l1.036-.654c.57-.36 1.342-.73 1.716-.825l.68-.17.07 9.199.07 9.2.926.512c1.658.918 13.305 7.643 15.478 8.937 1.164.694 2.652 1.55 3.307 1.905.655.354 3.096 1.752 5.424 3.107a875.599 875.599 0 0 0 5.112 2.96c.484.272 2.686 1.543 4.895 2.824a706.68 706.68 0 0 0 5.207 2.996c.654.368 3.036 1.74 5.291 3.051 6.074 3.53 5.701 3.37 6.558 2.79a14.115 14.115 0 0 1 1.38-.814c.364-.18 1.257-.675 1.984-1.103.728-.427 1.606-.902 1.953-1.056a9.867 9.867 0 0 0 1.323-.762c.381-.266 1.526-.935 2.545-1.488 1.858-1.009 11.716-6.578 16.669-9.416l2.646-1.517.162-8.293c.09-4.56.18-11.762.199-16.002l.035-7.71-2.447-1.465a469.842 469.842 0 0 0-7.078-4.096l-4.63-2.63-.077-1.887c-.09-2.15.012-2.227 1.665-1.263.582.34 3.737 2.166 7.011 4.06 3.274 1.892 6.638 3.841 7.475 4.33l1.521.887v7.154c0 3.935-.08 12.056-.175 18.046l-.175 10.891-2.008 1.128a762.25 762.25 0 0 0-5.447 3.109 370.969 370.969 0 0 1-4.895 2.777c-.8.438-1.812 1.008-2.249 1.265-.436.257-1.627.934-2.646 1.503-1.018.57-4.923 2.78-8.676 4.91-3.753 2.131-6.909 3.87-7.011 3.863-.103-.006-.723-.316-1.378-.688zm-48.42-5.13c-2.848-1.732-7.503-4.49-7.579-4.49-.054 0-.59-.356-1.193-.793-.603-.437-1.247-.794-1.431-.794-.185 0-.375-.104-.424-.23-.048-.128-.683-.548-1.41-.934-.728-.386-2.38-1.354-3.673-2.15-1.293-.797-2.402-1.448-2.467-1.448-.064 0-.278-.15-.476-.331-.198-.182-1.614-1.045-3.146-1.918l-2.786-1.588-.01-15.644c-.008-12.206.062-15.703.32-15.912.346-.28 5.153-3.062 10.782-6.241 1.82-1.028 3.347-1.962 3.396-2.078a.38.38 0 0 1 .324-.21c.13 0 1.46-.734 2.955-1.633s3.135-1.855 3.644-2.125a79.14 79.14 0 0 0 1.984-1.102c.582-.336 1.594-.909 2.25-1.273.654-.364 2.261-1.294 3.571-2.065 1.31-.772 5.417-3.156 9.128-5.298 3.711-2.142 7.592-4.387 8.626-4.989 1.033-.601 2.067-1.093 2.297-1.093.23 0 .993.341 1.693.759 1.345.8 3.089 1.817 10.072 5.872l4.299 2.497v1.918c0 1.055-.062 1.918-.139 1.918-.156 0-6.66-3.71-9.57-5.458-2.573-1.547-6.186-3.538-6.42-3.538-.17 0-14.382 8.107-16.679 9.514-.218.134-1.706.985-3.307 1.89-1.6.907-4.28 2.45-5.953 3.43-1.674.98-5.126 2.987-7.673 4.46a769.907 769.907 0 0 0-5.027 2.922c-.443.272-4.615 2.68-6.15 3.55l-.99.56-.001 13.648-.002 13.647.727.365c.4.2.906.505 1.125.679.218.173.813.548 1.323.832.509.285 2.83 1.686 5.159 3.113 2.328 1.427 4.53 2.764 4.895 2.97.84.476 2.776 1.64 5.957 3.585l2.508 1.533 3.11-1.778c1.71-.977 3.17-1.846 3.243-1.93.074-.083.596-.399 1.16-.701l1.027-.55 1.552.92c.853.507 1.551 1.012 1.551 1.123 0 .112-1.308.957-2.906 1.879-1.6.922-4.177 2.42-5.73 3.33-3.032 1.775-2.943 1.74-3.535 1.38zm45.763-2.922a498.526 498.526 0 0 1-4.487-2.606 403.61 403.61 0 0 0-5.447-3.153c-.278-.155-2.031-1.18-3.895-2.278-1.864-1.098-3.437-1.997-3.497-1.997-.059 0-.974-.517-2.035-1.148-5.769-3.438-12.574-7.319-12.832-7.319-.163 0-.336-.103-.384-.23-.049-.127-1.398-.977-2.999-1.89l-6.217-3.546-3.308-1.887v-18.74l1.456-.875c.8-.481 1.544-.876 1.653-.876.11 0 .2 4.136.201 9.193l.003 9.194 1.916 1.097c1.053.604 3.404 1.961 5.223 3.017 6.524 3.788 13.917 8.028 15.345 8.8.8.434 2.071 1.188 2.823 1.676.753.489 1.449.888 1.547.888.098 0 .495.22.881.489s1.357.849 2.158 1.289c2.203 1.211 9.42 5.39 11.47 6.64.997.61 1.89 1.108 1.984 1.108.095 0 .702.353 1.35.783.694.46 1.29.69 1.454.559.153-.122.933-.576 1.733-1.009 3.626-1.96 8.343-4.697 8.423-4.887.048-.115.21-.21.36-.21.151 0 2.314-1.148 4.808-2.552l5.994-3.374c.803-.45 1.654-.94 1.892-1.085.386-.237.44-1.563.523-12.832.05-6.912 0-12.709-.111-12.882-.112-.172-.528-.483-.926-.69-1.403-.732-6.697-3.844-7.08-4.162-.394-.327-.576-3.422-.223-3.775.171-.171.67.087 4.729 2.448 1.31.762 3.424 1.977 4.698 2.7l2.318 1.316-.069 14.85-.068 14.85-1.72 1.017a129.11 129.11 0 0 1-3.175 1.809 564.753 564.753 0 0 0-9.151 5.119 1586.471 1586.471 0 0 1-4.937 2.8c-.691.389-1.168.805-1.059.925.11.12.057.137-.115.038-.173-.099-1.304.397-2.514 1.102-1.21.705-2.74 1.59-3.402 1.969l-1.201.686-4.09-2.359zm-47.017-4.304c-.763-.46-2.072-1.263-2.91-1.786a906.486 906.486 0 0 0-6.418-3.917 1792.825 1792.825 0 0 1-5.292-3.213c-.218-.137-.831-.483-1.362-.771-1.949-1.058-1.814-.05-1.81-13.458.003-6.647.092-12.219.2-12.381.106-.163 3.885-2.41 8.396-4.996 4.511-2.584 8.5-4.887 8.863-5.117.364-.23 3.579-2.096 7.144-4.147 3.565-2.052 8.09-4.663 10.054-5.804a624.582 624.582 0 0 1 4.708-2.712 124.6 124.6 0 0 0 2.646-1.55c.83-.5 1.587-.91 1.68-.91.094 0 1.82.965 3.837 2.146 5.725 3.354 6.929 4.053 9.619 5.588l2.513 1.434.078 1.898c.054 1.31-.017 1.897-.23 1.897-.17 0-.994-.416-1.832-.926-.838-.509-1.658-.926-1.82-.926-.163 0-.297-.1-.297-.222s-.327-.37-.727-.55c-.4-.182-3.08-1.696-5.956-3.365l-5.228-3.036-1.519.898c-.835.495-2.55 1.511-3.81 2.26-1.26.748-2.986 1.74-3.836 2.206-.85.464-2.292 1.3-3.204 1.856-.912.556-1.775 1.012-1.918 1.012-.143 0-.26.093-.26.206 0 .114-.327.35-.728.525-.4.175-1.203.598-1.786.939a1828.416 1828.416 0 0 1-12.17 7.061 3504.31 3504.31 0 0 0-8.335 4.815l-2.513 1.461v20.768l2.91 1.82c1.6 1 3.327 2.06 3.837 2.354.509.295 1.938 1.166 3.175 1.936 4.78 2.976 5.885 3.623 6.178 3.622.167 0 .83-.35 1.472-.776l1.168-.775 1.213.622c.667.343 1.43.786 1.694.984.464.35.464.375 0 .768-.763.646-5.337 3.15-5.704 3.122-.183-.013-.957-.4-1.72-.86zm50.07-.42c-.436-.26-1.21-.71-1.72-1-.509-.289-1.58-.91-2.38-1.38-.8-.47-1.634-.958-1.853-1.084a5861.18 5861.18 0 0 0-5.953-3.442c-4.57-2.631-7.454-4.316-7.673-4.48-.145-.108-.92-.555-1.72-.99-.8-.437-2.883-1.625-4.63-2.64-5.793-3.372-8.19-4.757-9.392-5.429-3.39-1.894-6.52-3.741-6.822-4.027-.263-.248-.344-2.41-.359-9.563l-.02-9.243 1.418-.85c.78-.467 1.506-.853 1.615-.86.11-.005.199 4.093.199 9.108v9.117l1.257.72c.69.396 1.974 1.145 2.852 1.665a59.57 59.57 0 0 0 2.91 1.606c.724.363 1.375.731 1.448.817.164.193 4.734 2.887 4.898 2.887.065 0 .897.476 1.848 1.058.951.582 1.846 1.058 1.99 1.058.142 0 .26.106.26.234 0 .129.208.302.462.385.255.084.94.437 1.522.786.978.586 11.508 6.68 17.763 10.28 1.475.85 2.893 1.545 3.15 1.545.256 0 1.37-.52 2.476-1.153a240.557 240.557 0 0 1 3.598-2.02c.873-.476 3.016-1.673 4.763-2.66a537.86 537.86 0 0 1 5.291-2.95l2.117-1.157.074-9.516.075-9.516-1.464-.875-1.463-.875V72.6c0-.928.123-1.764.273-1.857.15-.093 1.378.49 2.728 1.296 1.35.806 2.657 1.543 2.902 1.637.41.157.447 1.128.447 11.756v11.585l-5.226 2.924c-2.874 1.609-5.344 3.026-5.49 3.151a2.706 2.706 0 0 1-.661.378c-.218.084-2.647 1.417-5.397 2.964-2.75 1.546-5.072 2.802-5.16 2.792-.087-.01-.516-.231-.952-.492zm-2.38-7.765c-2.566-1.49-2.608-1.53-2.018-1.944.48-.336 4.308-2.56 13.052-7.587 1.267-.728 2.338-1.505 2.381-1.727.043-.222.047-15.079.01-33.015l-.068-32.61-1.52-.87c-.835-.478-1.578-.866-1.65-.863-.074.003-.364-.21-.646-.472-.282-.263-.608-.478-.723-.478-.116 0-.987-.475-1.937-1.057-.95-.58-5.803-3.395-10.786-6.253-4.983-2.859-10.13-5.836-11.44-6.617-1.308-.78-2.519-1.419-2.69-1.419-.17 0-.35-.094-.398-.209-.048-.115-.756-.583-1.571-1.039-1.46-.817-1.495-.822-2.25-.367-.42.255-2.73 1.545-5.13 2.866a926.002 926.002 0 0 0-7.277 4.05c-1.6.904-3.41 1.914-4.02 2.244-.61.33-1.056.672-.992.76.065.09.038.103-.059.03-.096-.072-.662.152-1.256.5a142.3 142.3 0 0 1-2.14 1.218c-.95.53-7.792 4.385-10.649 6.002l-1.124.636V45.633l-1.48.85c-.813.467-1.587.85-1.72.85-.14 0-.24-5.503-.24-13.342v-13.34l3.241-1.778c1.783-.977 3.777-2.102 4.432-2.5a81.695 81.695 0 0 1 2.646-1.52c.8-.438 2.348-1.298 3.44-1.91a654.1 654.1 0 0 1 3.703-2.06 72.614 72.614 0 0 0 2.707-1.563c.543-.34 1.038-.617 1.1-.617.061 0 .867-.433 1.79-.962.924-.53 4.405-2.488 7.737-4.352L60.697 0l2.013 1.087c1.106.598 2.2 1.247 2.43 1.441.23.195.488.354.575.354.087 0 1.208.614 2.493 1.365 1.284.75 3.109 1.807 4.055 2.349 2.205 1.263 7.654 4.424 10.715 6.215 3.185 1.864 10.82 6.256 13.693 7.877l2.315 1.306-.002 35.093-.002 35.092-1.784.995c-.982.547-2.26 1.273-2.843 1.613-5.088 2.973-11.34 6.517-11.476 6.505-.09-.01-.404-.154-.695-.323zm-6.55-3.791c-.836-.517-1.52-1.02-1.52-1.117 0-.098.625-.524 1.389-.947 1.62-.899 6.941-3.965 11.377-6.558l3.108-1.817V56.982c0-26.275-.046-29.758-.396-29.758-.219 0-.397-.092-.397-.204 0-.113-.447-.44-.993-.727a100.26 100.26 0 0 1-2.918-1.647c-1.059-.62-2.041-1.126-2.182-1.126-.142 0-.257-.1-.257-.222s-.328-.368-.728-.547c-.4-.178-1.501-.776-2.447-1.328-.946-.552-2.851-1.655-4.234-2.452-6.998-4.033-8.572-4.947-11.4-6.62-2.204-1.303-3.208-1.76-3.572-1.625-.449.167-12.072 6.617-13.073 7.256-.219.14-1.528.862-2.91 1.607-4.62 2.486-5.423 2.928-5.69 3.128-.145.11-1.217.71-2.38 1.334-1.165.625-2.445 1.364-2.845 1.643l-.728.508v16.246l-1.588.873c-1.185.651-1.623.784-1.723.523-.074-.192-.104-4.747-.065-10.12l.07-9.77 1.19-.698c.655-.383 1.964-1.122 2.91-1.64a741.3 741.3 0 0 0 4.895-2.726c3.991-2.241 7.289-4.085 8.996-5.03a286.97 286.97 0 0 0 3.043-1.717c.945-.542 2.255-1.28 2.91-1.638.655-.36 2.511-1.388 4.126-2.286 1.614-.898 3.032-1.632 3.15-1.632.119 0 1.417.7 2.886 1.557a338.1 338.1 0 0 0 3.602 2.079c.513.286 2.378 1.362 4.144 2.39 1.767 1.028 3.282 1.8 3.368 1.714.085-.086.155-.032.155.12s.804.713 1.786 1.246a83.71 83.71 0 0 1 2.58 1.452c1.35.82 8.908 5.184 10.583 6.11a67.459 67.459 0 0 1 2.58 1.501l.994.624-.067 31.762-.067 31.762-3.572 2.098c-1.965 1.154-3.75 2.179-3.969 2.278-.572.26-7.178 4.065-7.798 4.492-.675.466-.56.496-2.322-.594zm-5.688-3.287c-.764-.438-1.389-.902-1.389-1.032s1.518-1.099 3.374-2.154a326.006 326.006 0 0 0 5.172-3c.99-.595 2.54-1.499 3.446-2.008.905-.51 2.149-1.224 2.764-1.588l1.117-.661-.065-26.435-.065-26.434-5.16-2.966c-2.837-1.632-6.23-3.594-7.54-4.361A163.613 163.613 0 0 0 67.5 20.93c-.946-.51-1.898-1.07-2.117-1.247-.218-.176-1.36-.856-2.538-1.51l-2.14-1.19-1.035.577a5072.651 5072.651 0 0 1-16.049 8.86l-4.96 2.726-.005 4.793c-.002 2.637-.091 4.92-.198 5.076-.322.467-3.143 1.972-3.336 1.78-.232-.232-.18-13.125.054-13.482.097-.148 5.297-3.1 11.554-6.559 6.258-3.459 11.875-6.574 12.483-6.921.608-.348 1.306-.633 1.55-.633.245 0 1.415.578 2.6 1.283 1.184.706 3.284 1.92 4.666 2.696a293.86 293.86 0 0 1 5.027 2.905c1.383.821 3.519 2.064 4.748 2.762 1.228.697 2.597 1.477 3.042 1.732 5.56 3.187 6.658 3.844 6.824 4.085.107.154.197 12.975.199 28.492.003 22.25-.066 28.27-.327 28.486-.182.15-1.76 1.096-3.506 2.101a2171.473 2171.473 0 0 0-6.444 3.727c-1.798 1.045-3.31 1.9-3.362 1.9-.05 0-.53.298-1.067.661-1.24.842-1.526.83-3.216-.14zm-5.605-3.258c-.791-.459-1.446-.936-1.455-1.06-.01-.124.485-.494 1.1-.823.615-.329 1.031-.693.926-.81-.105-.116-.037-.122.151-.014.188.109.486.079.661-.067.282-.233 1.975-1.222 10.903-6.371l2.117-1.221.048-23.148.048-23.148-2.562-1.488c-1.409-.818-4.169-2.414-6.133-3.546a636 636 0 0 1-6.422-3.754c-2.712-1.614-2.885-1.679-3.572-1.331-2.054 1.04-7.111 3.748-7.373 3.95-.165.127-.82.504-1.455.838-4.595 2.416-6.49 3.444-6.777 3.675-.199.16-.331.91-.333 1.887l-.002 1.621-1.717.976-1.718.977V30.24l1.257-.562a26.334 26.334 0 0 0 2.183-1.11c1.693-1.001 9.085-5.07 12.17-6.698 1.674-.883 3.116-1.717 3.205-1.852.09-.136.208-.23.265-.208.056.022.286-.03.51-.117.512-.196.067-.443 19.386 10.766 1.186.688 2.24 1.461 2.343 1.72.102.258.192 11.622.198 25.254l.012 24.784-2.177 1.274c-1.198.7-2.475 1.421-2.84 1.602-.736.367-1.649.928-1.851 1.139-.073.075-.43.283-.794.46-.364.179-.84.438-1.058.576-1.501.954-7.41 4.245-7.588 4.225-.12-.013-.865-.4-1.656-.86z" fill="#fff" stroke-width=".265"/></svg>