<svg xmlns="http://www.w3.org/2000/svg" width="1301.809" height="151.894" viewBox="0 0 344.437 40.189"><g fill="#fff" stroke-width=".353"><path d="M18.619-125.664v-5.402l1.044-.772c.574-.424 1.13-.772 1.234-.772.105 0 .19 2.779.19 6.174v6.174H18.62zm4.233-1.588v-6.989l1.044-.772c.574-.424 1.13-.772 1.235-.772.105 0 .19 3.493.19 7.762v7.76H22.852zm4.233-1.587v-8.577l1.044-.772c.574-.424 1.13-.772 1.235-.772.105 0 .19 4.207.19 9.35v9.348H27.086zm4.234-4.878c0-14.595-.12-13.638 1.852-14.786.583-.34.617.42.617 13.94v14.3H31.319zm4.233-1.555v-15.01l.97-.854c.534-.47 1.09-.86 1.235-.865.145-.01.264 7.132.264 15.864v15.875H35.552zm4.233-1.68v-16.691l1.044-.772c.574-.425 1.13-.772 1.235-.772.105 0 .19 7.858.19 17.462v17.463H39.786zm10.936 10.143v-6.547l1.5.109 1.499.108.096 6.439.096 6.438H50.72zm6.703.197v-6.35h1.398c1.36 0 1.475.1 4.145 3.616l2.747 3.616.1-3.616.101-3.616h2.798v12.7h-1.208c-1.118 0-1.426-.282-4.145-3.793l-2.937-3.792-.1 3.792-.1 3.793h-2.799zm16.4.44c-1.302-3.25-2.447-6.107-2.543-6.35-.125-.316.31-.44 1.54-.44l1.713.002 1.026 2.91c.565 1.6 1.255 3.458 1.535 4.13l.509 1.22 1.489-4.043 1.489-4.043 1.686-.109c.942-.06 1.632.036 1.563.22-.07.18-1.227 3.048-2.574 6.37l-2.448 6.043h-2.615zm12.528-.43v-6.36H95.877v2.443l-3.263.101-3.264.102-.11 1.146-.11 1.147h6.041v2.44l-2.91.103-2.91.102-.11 1.134-.11 1.133 3.461.102 3.461.1V-120.438l-4.85.098-4.851.098zm13.89 5.663c-1.91-.867-2.088-1.238-1.198-2.487l.742-1.042 1.132.69c1.376.84 3.961.94 4.258.165.254-.661-.85-1.396-2.917-1.94-2.02-.533-3.56-2.056-3.56-3.52 0-2.457 1.934-4.242 4.598-4.242 1.192 0 4.574 1.321 4.574 1.788 0 .159-.366.715-.813 1.235-.803.934-.83.938-1.964.352-1.529-.791-3.01-.614-3.151.377-.093.652.226.855 2.358 1.503 2.869.87 3.923 1.915 3.923 3.886 0 2.406-1.872 3.918-4.833 3.904-.931 0-2.348-.305-3.15-.669zm13.627-4.262v-4.94H109.988V-132.961h10.583v2.822h-3.88v9.878h-2.822zm12.17 4.456c-4.175-1.947-5.174-7.626-1.88-10.701 3.695-3.451 9.939-1.72 11.241 3.115.675 2.505-.474 5.465-2.719 7.002-1.533 1.051-4.988 1.355-6.642.584zm4.553-2.741c1.163-.53 2.089-2.504 1.797-3.832-.72-3.275-4.656-4.222-6.412-1.542-2.074 3.166 1.17 6.943 4.615 5.374zm7.97-3.136v-6.4l4.264.118 4.263.118 1.029 1.152c1.628 1.825 1.315 4.996-.619 6.263l-.833.546 1.417 2.085c.779 1.148 1.416 2.183 1.416 2.301 0 .119-.752.167-1.672.108-1.599-.103-1.733-.197-3.064-2.136-1.004-1.463-1.615-2.029-2.191-2.029-.725 0-.809.188-.905 2.029l-.105 2.028-1.5.109-1.5.108zm6.843-.801c.417-.305.587-.807.508-1.5-.114-1.004-.19-1.044-2.147-1.146l-2.028-.106v3.21h1.52c.836 0 1.802-.206 2.147-.458zm8.057 6.462c-1.869-.848-2.176-1.551-1.153-2.64l.783-.833 1.181.697c1.564.923 3.87.795 3.87-.215 0-.488-.414-.835-1.412-1.184-3.01-1.054-3.458-1.267-4.1-1.956-.91-.977-.884-3.376.049-4.562 1.429-1.817 4.87-2.092 7.345-.586l1.154.702-.764 1.074c-.535.75-.94 1.001-1.343.832-1.994-.836-2.491-.944-3.36-.726-1.637.41-1.02 1.362 1.4 2.158 3.006.99 3.952 1.7 4.229 3.178.712 3.795-3.585 6.01-7.879 4.061zm-102.74-21.517v-6.422l3.848.12c3.685.114 3.907.165 5.204 1.203 3.559 2.846 3.417 7.831-.292 10.286-1.302.861-1.843.978-5.108 1.099l-3.653.135zm7.644 2.318c1.22-1.417 1.13-3.485-.21-4.824-.854-.855-1.322-1.031-2.733-1.031H53.72v7.128l1.912-.158c1.53-.127 2.076-.35 2.734-1.115zm9.171 3.788c-.13-.13-.235-2.352-.235-4.94v-4.703h-3.528v-2.822H74.4l-.11 1.323-.109 1.323-1.852.106-1.852.107v9.84h-1.352c-.744 0-1.459-.105-1.588-.234zm8.584-.936c0-.963.558-1.823 3.147-4.85l3.147-3.68-2.97-.103-2.971-.102v-2.794h10.231l-.011 1.146c-.01.928-.618 1.853-3.197 4.85l-3.186 3.705 3.197.102 3.197.1V-136.136H76.12zM14.55 39.66c-5.02-1.35-9.796-5.12-12.143-9.586C.631 26.694 0 24.083 0 20.108 0 14.105 1.728 9.88 5.882 5.724 9.873 1.732 14.232 0 20.289 0c5.213 0 9.898 1.651 13.537 4.771l1.505 1.29-.937 1.114c-.515.614-1.544 1.807-2.287 2.652l-1.35 1.536-1.5-1.284c-7.03-6.017-16.896-4.124-20.69 3.97-.846 1.804-.94 2.404-.94 6.06 0 3.856.057 4.171 1.141 6.387 1.906 3.895 5.112 6.322 9.228 6.984 3.933.634 8.025-.572 11.218-3.305.801-.686 1.595-1.247 1.764-1.247.447 0 4.343 4.006 4.343 4.465 0 .614-3.859 3.627-6.082 4.75-1.114.562-3.019 1.256-4.233 1.543-2.779.655-7.972.642-10.455-.025zm83.213.172c-4.25-.824-8.495-3.966-10.247-7.586-1.74-3.593-1.838-4.498-2.007-18.4L85.35.707h7.474v12.46c0 14.575.095 15.19 2.76 17.843 1.903 1.895 3.55 2.505 6.765 2.505 4.256 0 6.96-1.594 8.504-5.012.834-1.845.846-2.024.949-14.832l.104-12.964h7.023l-.01 12.611c-.01 13.961-.175 15.452-2.18 19.213-2.69 5.048-7.957 7.755-14.884 7.648-1.38-.021-3.224-.177-4.097-.346zm130.604-.104c-6.505-1.655-11.834-6.519-14.016-12.793-3.908-11.238 2.626-23.468 14.102-26.398 2.458-.628 7.122-.7 9.786-.152 2.901.596 7.286 2.86 9.32 4.81 10.924 10.477 7.24 28.675-6.858 33.88-2.914 1.077-9.335 1.417-12.334.653zm7.286-6.231c5.613-.911 9.601-5.045 10.644-11.033 1.009-5.793-1.99-12.143-6.862-14.526-5.272-2.58-11.243-1.55-15.132 2.607-7.225 7.725-3.076 21.254 7.039 22.952.941.158 1.79.304 1.887.326.097.02 1.188-.126 2.424-.326zm89.828 6.154c-2.76-.568-8.185-3.117-10.021-4.71l-1.201-1.04.898-1.164a67.3 67.3 0 0 1 2.11-2.55l1.21-1.386 1.695 1.294c3.492 2.666 7.834 4.032 11.572 3.642 3.64-.38 5.555-1.978 5.555-4.633 0-2.924-1.577-3.998-8.726-5.939-5.699-1.547-8.229-2.706-10.196-4.674-2.8-2.799-3.388-7.858-1.39-11.942 2.858-5.84 11.145-8.107 19.448-5.32 2.477.832 6.148 2.842 6.639 3.635.176.286-3.089 5.367-3.449 5.367-.068 0-1.037-.55-2.153-1.222-2.98-1.795-5.24-2.468-8.287-2.468-3.068 0-4.582.635-5.679 2.384-.505.806-.66 1.518-.542 2.487.309 2.528 2.136 3.655 8.69 5.358 9.257 2.406 12.746 5.51 12.783 11.375.03 4.784-2.072 8.28-6.187 10.293-3.718 1.819-7.897 2.216-12.77 1.213zM47.668 20.108V.706h7.056V33.16h20.46v6.35H47.669zm95.165 3.264l-.092-16.14-6.085-.097-6.085-.097V.705h31.75v6.35H149.974V39.51H142.924zm42.066-.076V7.056H172.55V.704h31.75v6.35h-11.987l-.092 16.14-.092 16.14-3.616.1-3.616.1zm82.55-3.2V.68l3.437.1 3.438.102 10.056 12.983 10.056 12.984.092-13.072.092-13.072H301.667v38.806l-3.087-.018-3.086-.018-9.525-12.357c-5.24-6.796-9.955-12.86-10.481-13.475l-.956-1.12-.014 13.495-.014 13.493h-7.055z"/></g></svg>