<svg xmlns="http://www.w3.org/2000/svg" width="2389.796" height="393.979" viewBox="0 0 632.3 104.24" version="1.1" id="svg8"><defs id="defs2"><style id="style10"></style></defs><g id="layer1" transform="translate(151.102 -76.766)"><path d="M109.645 180.833c-14.708-.82-33.046-5.111-50.27-11.765-5.653-2.183-7.776-3.11-8.202-3.58-.39-.433-.2-.56 2.966-1.993 13.19-5.966 32.639-11.509 42.728-12.176 1.018-.068 1.938-.176 2.044-.242.107-.066 2.12-.304 4.476-.529 4.982-.475 18.436-.556 23.414-.14 6.593.551 14.604 1.764 15.13 2.29.213.212.964.352 1.894.352.848 0 1.958.124 2.467.275.508.15 1.46.39 2.114.53 6.042 1.295 9.434 2.244 16.947 4.741 5.517 1.834 16.126 6.256 16.126 6.723 0 .408-7.63 4.135-12.567 6.139-10.457 4.243-22.332 7.301-33.825 8.71-6.082.745-18.273 1.064-25.442.665zm224.618-16c-.356-.851-.366-1.148-.069-2.069.338-1.046.391-1.084 2.022-1.413.921-.187 2.648-.812 3.836-1.39 7.026-3.414 8.528-10.074 4.274-18.95-.628-1.31-1.383-2.637-1.679-2.95l-.537-.568 2.521-2.033c2.454-1.978 2.535-2.02 3.044-1.559.791.717 2.738 3.983 3.528 5.92.386.946.859 2.077 1.051 2.513.192.437.507 1.24.698 1.786l.348.993h16.105l-.138-1.786c-.157-2.04-.823-3.733-2.344-5.962l-1.06-1.553.993-1.236a77.56 77.56 0 0 1 1.86-2.223l.869-.986 1.321 1.634c1.418 1.751 2.935 4.624 3.463 6.555.179.655.4 2.118.49 3.251l.163 2.06 3.353.084c3.8.095 3.648.189 3.655-2.239.005-1.788-.653-3.409-2.127-5.238l-1.313-1.63 1.788-2.234 1.787-2.234 1.01.981c2.575 2.506 3.611 5.039 3.848 9.406l.17 3.132 4.1-.002 4.102-.002-.012-1.808c-.012-1.913-.184-3.317-.514-4.189-.714-1.889-2.365-4.912-3.132-5.733l-.906-.97 1.544-1.364a72.185 72.185 0 0 1 2.231-1.905l.688-.542.64.601c.72.677 2.448 3.55 3.098 5.15 1.173 2.894 1.772 5.984 1.782 9.195l.005 1.786h6.32c7.464 0 8.345-.18 10.319-2.099 1.662-1.617 2.414-2.661 3.72-5.17.603-1.159 1.24-2.199 1.415-2.31.175-.111.222-.204.103-.206-.118-.002.05-.476.374-1.052.323-.576.707-.975.851-.885.145.09.18.029.079-.136-.534-.864 2.213-3.695 4.265-4.394 1.734-.59 4.148-.54 5.505.118 1.242.6 2.847 2.207 3.968 3.97.738 1.162 3.827 7.26 3.827 7.557 0 .083.493 1.213 1.096 2.511l1.097 2.36h19l-.187-15.57-.187-15.572 2.18-.833c1.2-.458 2.277-.833 2.394-.833.21 0 .282 1.991.8 21.828.144 5.53.331 11.513.416 13.296l.154 3.24h-43.593l-1.393-.693c-.766-.382-1.532-.918-1.703-1.19-.342-.549-.976-.673-.976-.192 0 .169-.304.704-.675 1.191l-.675.885h-65.989l-.616 1.786c-1.462 4.241-3.65 7.837-5.806 9.545-2.024 1.603-6.472 3.07-10.308 3.398l-1.916.165-.415-.994zm52.45-19.505c-.085-.212-.148-.149-.16.16-.012.278.05.435.138.347.088-.088.098-.316.021-.507zm48.965-.11c1.864-.146 1.918-.17 1.918-.856 0-.754-.755-2.909-1.595-4.556-.283-.555-1.278-1.807-2.212-2.783-1.69-1.766-1.704-1.774-2.902-1.639-1.347.152-2.412.913-3.738 2.672-1.21 1.603-2.518 3.996-2.518 4.605 0 .918 3.514 2.184 7.012 2.526 1.763.172 2.193.176 4.035.031zm-10.681-4.75c.09-.235.046-.341-.104-.248-.144.089-.262.273-.262.41 0 .38.19.297.366-.161zm-3.272-1.242c.003-.22.09-.199.26.066.142.218.257.278.257.132 0-.145-.091-.409-.203-.585-.147-.23-.294-.175-.528.199-.194.31-.217.518-.057.518.147 0 .269-.148.271-.33zM35.826 156.433c0-5.343-.052-6.148-.397-6.065-.218.053-1.409.153-2.645.224-4.5.255-8.35-1.153-11.369-4.157-2.655-2.641-3.785-5.38-3.775-9.144.018-6.534 3.363-10.9 9.308-12.151 3.668-.772 9.429-.762 13.31.024l.728.147v36.078l-2.183.521c-1.2.287-2.362.558-2.58.603-.344.07-.397-.743-.397-6.08zm-.09-10.728c.127-.126.199-3.854.16-8.283l-.07-8.052-1.984-.157c-4.65-.369-6.904.42-8.662 3.034-1.133 1.686-1.491 3.035-1.482 5.59.007 1.75.131 2.368.72 3.571 1.181 2.415 2.341 3.43 4.886 4.274 1.168.388 2.01.47 3.848.375 1.295-.067 2.457-.225 2.584-.352zm136.35 6.232c-3.236-.364-10.947-1.941-15.095-3.088-2.095-.579-5.732-1.889-8.334-3.002-2.539-1.086-5.033-2.133-5.542-2.326-2.938-1.114-9.509-4.882-13.494-7.735-5.404-3.87-11.429-9.196-13.361-11.812-.437-.59-.988-1.077-1.225-1.08-.237-.003-.579-.364-.76-.8-.18-.437-.449-.794-.596-.794-.348 0-1.196-.982-1.398-1.619-.087-.274-.326-.498-.53-.498-.205 0-.552-.347-.772-.772-.22-.426-.759-1.029-1.198-1.341-.438-.313-.797-.71-.797-.881 0-.172-.4-.631-.888-1.02-.488-.39-1.35-1.386-1.918-2.214a137.304 137.304 0 0 0-2.818-3.978c-1.876-2.567-4.199-6.253-4.04-6.41.272-.272 4.344-.173 7.957.193 6.427.65 11.165 1.431 18.59 3.062 5.79 1.273 14.933 4.657 21.084 7.805 3.78 1.935 10.095 5.59 11.51 6.663.363.276 2.03 1.527 3.704 2.78 5.477 4.104 9.423 7.66 13.45 12.12 4.2 4.655 6.801 7.765 8.74 10.452l2.007 2.778c1.702 2.353 2.261 3.219 2.261 3.505 0 .258-1.587.322-7.21.29-3.965-.022-8.162-.148-9.326-.278zm65.75-.992c-.219-.148-1.29-.272-2.382-.276-2.733-.011-2.878-.139-2.15-1.896.665-1.603 1.411-2.765 3.404-5.3.766-.974 1.392-1.843 1.392-1.93 0-.43 5.627-5.162 6.14-5.162.121 0 .692-.297 1.269-.661.576-.364 1.199-.662 1.383-.663.185-.001.694-.188 1.13-.416 1.712-.894 5.545-1.435 10.15-1.432 2.421 0 5.027.077 5.791.169 1.683.202 1.732.446.614 3.068-1.706 3.998-5.472 8.482-9.147 10.89-1.878 1.231-5.161 2.532-7.937 3.144-2.692.594-9.015.898-9.657.465zm64.161.09c-.873-.05-2.708-.225-4.077-.386-3.38-.399-7.08-1.596-6.722-2.176.091-.147.038-.188-.118-.092-.29.18-1.578-.772-2.633-1.945-.937-1.043-2.196-4.593-2.465-6.952-.304-2.666.2-6.598 1.027-7.997.086-.146.18-.418.208-.605.12-.791 2.691-5.123 3.244-5.464.234-.145 2.03 1.06 2.948 1.978.48.48.493.594.148 1.262-1.636 3.162-2.64 8.336-2.043 10.528.915 3.361 3.53 4.637 11.41 5.566 6.067.716 17.268.168 20.324-.994.422-.16.588-.407.53-.788-.073-.475-.576-.677-3.541-1.421-4.143-1.04-6.29-2.028-7.369-3.392-1.659-2.095-1.112-5.797 1.424-9.635 1.878-2.84 2.654-3.445 5.549-4.325 3.62-1.1 6.018-.161 8.082 3.164.398.641.746 1.296.773 1.455.027.16.189.542.359.851.617 1.121 1.643 5.197 1.809 7.189.318 3.81-.847 7.08-3.371 9.464-2.63 2.485-4.738 3.345-10.41 4.249-2.547.406-11.449.681-15.086.467zm23.68-14.18c0-.745-1.26-3.504-2.125-4.65-1.196-1.588-2.663-2.428-4.25-2.434-1.367-.005-1.825.35-2.484 1.93-.475 1.135-.352 1.483.966 2.749 1.141 1.095 2.96 1.886 5.333 2.32 2.494.457 2.56.459 2.56.085zm-401.123 13.541c-.954-.111-2.704-.464-3.888-.784l-2.154-.58 1.095-2.209 1.096-2.208 1.657.927c1.46.816 1.904.933 3.72.976 1.762.043 2.232-.046 3.241-.612 1.561-.874 2.47-2.214 2.234-3.29-.379-1.725-.437-1.766-6.546-4.65-3.78-1.785-5.565-3.907-5.581-6.64-.02-3.023 2.193-5.834 5.3-6.738 2.417-.703 10.65-.505 11.428.274.159.158-.768 3.897-1.046 4.223-.126.148-1.46.053-3.373-.24-2.786-.428-3.283-.441-4.146-.113-2.49.948-2.847 4.029-.586 5.068.48.22 1.498.604 2.264.852.766.248 1.57.628 1.786.845.216.216.393.322.393.236 0-.216 1.223.564 2.597 1.656 1.505 1.197 2.422 2.627 2.841 4.43.545 2.344.045 3.91-1.852 5.807-1.715 1.715-3.227 2.482-5.465 2.772-2.195.285-2.563.285-5.015-.002zm551.042-3.63a779.29 779.29 0 0 1-.3-9.194c-.076-2.91-.194-6.959-.262-8.996-.067-2.037-.198-6.16-.29-9.162l-.169-5.457 1.685-.288c.927-.16 2.191-.368 2.81-.464l1.124-.175.011 1.82c.006 1.001.064 2.713.129 3.804.23 3.894.971 30.992.851 31.112-.118.118-4.517.889-5.128.898-.204.003-.352-1.249-.46-3.898zm-578.259 3.11c-2.908-.784-4.076-1.719-5.234-4.184-.573-1.22-.647-1.69-.562-3.572.083-1.83.211-2.334.825-3.245 1.174-1.742 2.547-2.326 8.655-3.681 2.412-.535 3.334-.875 4.449-1.64 1.634-1.121 2.67-2.782 2.137-3.425-.961-1.158-3.122-1.468-7.644-1.098-1.82.15-3.542.287-3.829.305-.689.045-2.722-3.514-2.195-3.843.184-.114 1.407-.468 2.716-.785 2.831-.686 8.252-.825 10.187-.263 3.034.883 5.234 2.665 5.8 4.699.16.576.359 5.167.457 10.56l.174 9.539-3.282.48c-1.805.265-4.948.527-6.986.583-3.098.085-4.025.015-5.668-.43zm8.686-4.376l1.565-.703.033-3.922c.021-2.455-.069-3.985-.24-4.09-.151-.094-.275-.063-.275.068 0 .416-2.44 1.572-4.566 2.162-4.033 1.12-4.957 1.82-5.155 3.906-.096 1.015-.007 1.409.452 1.99 1.292 1.637 5.22 1.92 8.186.589zm37.517 4.737c-.102-.102-.186-8.62-.186-18.927V112.57h5.269l-.054 6.35c-.03 3.492.025 6.35.122 6.35.098 0 1.17-.23 2.382-.51 4.694-1.084 8.366-.877 10.912.615 1.34.785 3.255 2.805 3.46 3.65.082.336.116 5.254.076 10.93l-.074 10.318-2.434.076-2.435.076-.079-9.093-.079-9.093-.713-.934c-.983-1.289-2.364-1.892-4.615-2.017-2.251-.124-4.448.433-5.631 1.429l-.808.68-.07 9.438-.07 9.438-2.393.075c-1.317.042-2.478-.008-2.58-.11zm29.12-9.59c-.084-12.714-.084-12.747.142-13.589.44-1.639 4.21-2.573 11.1-2.751 3.219-.083 4.696-.033 4.696.16 0 .224-2.167 4.028-2.557 4.488-.053.062-1.627.139-3.498.17-2.706.044-3.543.149-4.097.511l-.696.456v20.26l-2.513-.008-2.514-.01-.064-9.688zm25.185 9.153c-3.73-1.272-6.515-4.374-7.86-8.76-.638-2.077-.545-6.213.188-8.363 1.955-5.74 6.713-9.12 12.145-8.628 2.423.22 3.447.497 5.044 1.366 1.803.981 3.052 2.403 4.143 4.715.936 1.985 1.7 5.549 1.7 7.94v1.354l-8.996-.073-8.996-.073.006.867c.014 2.161 2.135 4.64 4.594 5.37.724.215 2.04.389 2.922.385 1.447-.006 5.203-.7 6.252-1.155.3-.13.688.22 1.413 1.272.55.798.92 1.578.825 1.734-.341.552-2.812 1.61-4.964 2.126-3.004.72-6.163.69-8.416-.077zm-.516-14.878c.8-.008 3.406-.04 5.789-.071l4.333-.057-.177-1.11c-.245-1.533-1.32-3.404-2.368-4.12-.483-.331-1.525-.737-2.318-.903-1.831-.384-3.845.183-5.39 1.519-.58.5-.962.91-.851.91.111 0 .012.368-.221.819-.544 1.05-.951 3.47-.542 3.211.16-.1.945-.19 1.745-.198zm-148.43 2.669v-11.49l1.52-.576c5.214-1.975 11.435-2.068 16.307-.245 1.418.53 1.568.54 2.394.148 1.587-.753 4.188-1.276 6.49-1.304 2.337-.028 5.147.49 4.891.903-.08.13.029.17.241.088.464-.178 2.155.86 3.108 1.91 1.498 1.65 1.56 2.155 1.56 12.557v9.54l-2.711-.1-2.712-.1-.133-9.154c-.15-10.42-.047-9.97-2.428-10.542-1.562-.374-4.912-.212-6.435.311l-1.058.364-.07 9.6-.07 9.598-2.84-.075-2.841-.075-.07-9.543-.07-9.544-1.65-.561c-2.509-.854-3.651-.951-5.53-.47-.918.235-1.939.604-2.268.82l-.599.392v19.038H-151.102zm1.238-11.313c-.084-.212-.147-.149-.16.16-.011.278.051.435.14.347.087-.088.097-.316.02-.507zm343.646 15.306c-2.175-1.194-3.52-2.056-4.238-2.717-.332-.306-.778-.623-.991-.705-.72-.277-5.874-4.548-7.736-6.413-3.323-3.327-8.187-9.186-7.88-9.492.096-.096-.086-.358-.406-.582-.692-.485-1.458-1.872-1.234-2.235.087-.141-.018-.257-.234-.257-.475 0-2.645-3.734-4.076-7.011-3.804-8.716-5.356-17.163-5.325-28.978.007-2.695-.073-5.244-.179-5.664l-.191-.764 1.235.902c.68.496 2.078 1.497 3.107 2.225 6.21 4.39 12.1 9.816 16.339 15.054 1.401 1.732 2.786 3.54 3.077 4.018.291.478 1.366 2.217 2.39 3.863 4.848 7.805 7.764 16.672 8.609 26.185.32 3.612.223 12.085-.15 12.99-.247.603-.259.6-2.117-.42zm28.89-1.562c-.185-1.385.235-7.919.622-9.647 2.441-10.925 8.03-18.041 17.848-22.73 2.833-1.352 8.262-3.278 9.242-3.278.452 0 .475.187.316 2.58-.693 10.449-3.783 18.274-9.677 24.505-3.137 3.317-9.143 6.876-14.975 8.872-3.129 1.071-3.192 1.066-3.375-.302zm-12.955-.542c-1.099-1.373-2.574-3.349-2.574-3.448 0-.059-.623-1.225-1.384-2.59-.762-1.367-1.577-3.02-1.812-3.675-.234-.655-.731-2.024-1.104-3.043-2.933-8.022-2.997-17.358-.175-25.45.956-2.742 3.011-6.992 4.717-9.756 1.185-1.92 5.57-7.74 5.855-7.772.24-.028 3.587 6.84 4.568 9.376 2.475 6.396 3.358 11.024 3.358 17.597 0 7.579-1.147 12.6-4.39 19.225-2.176 4.444-5.812 10.17-6.433 10.132-.086-.005-.368-.274-.626-.596zm173.56-19.429l-2.06-2.019-1.418 1.401c-.78.77-1.541 1.325-1.691 1.233-.15-.093-.358-.029-.464.141-.12.194-.076.24.114.121.168-.103.306-.06.306.098 0 .157-.29.418-.646.58-.593.27-.822.136-2.778-1.631-1.173-1.059-2.132-1.956-2.132-1.993 0-.126 4.005-3.958 4.218-4.035.117-.042 1.188.84 2.38 1.962l2.166 2.038 2.076-2.063 2.075-2.063.752.544c1.143.827 3.994 3.858 3.45 3.668-.262-.091-.416-.069-.342.05.121.197-.941 1.3-3.152 3.276l-.796.712zm.473-1.394c.093-.15-.013-.194-.249-.104-.458.176-.542.366-.161.366.137 0 .322-.118.41-.262zm-68.748-1.284l-2.063-2.075 2.046-2.175 2.047-2.175 2.045 2.032c1.124 1.118 2.168 1.99 2.32 1.936.151-.054.968-.754 1.814-1.555 2.434-2.303 2.312-2.244 3.25-1.55.456.336.757.76.68.959-.074.195-.025.287.11.204.275-.17 2.46 1.926 2.34 2.244-.043.112-.95 1.127-2.016 2.257l-1.938 2.054-2.037-2.025c-1.12-1.114-2.15-2.025-2.29-2.025-.138 0-1.15.893-2.248 1.985l-1.997 1.984zm64.668-4.124l-1.683-1.698.808-1.012a21.39 21.39 0 0 1 1.633-1.797l.825-.784 1.618 1.618 1.618 1.618-.55.886c-.303.487-1.008 1.331-1.568 1.876l-1.019.99z" id="path108" fill="#fff" stroke-width=".265"/></g></svg>