<svg xmlns="http://www.w3.org/2000/svg" width="520.667" height="437.1" viewBox="0 0 137.76 115.65"><g transform="translate(-482.148 -442.703)"><image y="436.644" x="476.68" preserveAspectRatio="none" height="127.706" width="148.519"/><path d="M485.261 557.838c-3.13-1.362-3.322-6.14-.32-8.004.86-.534 1.62-.654 3.644-.576l2.556.099v1.398l.002 1.397-.993-1.188c-1.764-2.114-4.43-1.305-4.882 1.481-.653 4.023 1.946 6.553 4.593 4.471.715-.563.93-.613.93-.217 0 .654-2.087 1.658-3.406 1.64-.552-.008-1.509-.233-2.125-.501zm26.873-3.105l-2.822-3.587-.107 2.45c-.128 2.96.086 3.948.9 4.16.34.09-.176.168-1.146.175-.97.007-1.526-.077-1.235-.188.913-.348 1.047-.888 1.053-4.22.005-2.956-.064-3.293-.779-3.793-.757-.531-.73-.55.85-.55 1.614 0 1.663.035 3.783 2.692l2.149 2.691v-2.32c0-1.84-.129-2.397-.618-2.681-.485-.283-.277-.36.97-.36 1.247 0 1.456.077.97.36-.533.31-.617.932-.617 4.575 0 2.319-.119 4.208-.264 4.199-.146-.01-1.535-1.63-3.087-3.603zm20.637 3.39c-2.256-.744-3.175-2.009-3.175-4.373 0-3.165 1.889-4.671 5.647-4.503l2.464.11.002 1.35.002 1.35-.878-1.043c-1.084-1.289-1.886-1.52-3.267-.939-1.347.567-2.02 2.396-1.692 4.59.4 2.666 2.637 3.76 4.573 2.236.951-.748 1.557-.718 1.08.053-.596.965-3.333 1.637-4.755 1.169zm8.625-.318c-.592-.292-1.346-.987-1.675-1.545-.76-1.285-.786-4.187-.05-5.24 1.875-2.675 6.725-2.38 8.088.491 1.98 4.173-2.228 8.335-6.363 6.294zm3.89-1.199c.31-.599.538-1.953.538-3.19 0-1.813-.136-2.287-.866-3.017-1.097-1.097-1.623-1.09-2.682.038-.707.752-.85 1.27-.855 3.1-.008 2.749.749 4.11 2.286 4.11.796 0 1.167-.245 1.579-1.04zm16.794.142c.015-.96.115-1.509.221-1.217.652 1.783 3.012 2.759 3.947 1.632.612-.738.098-1.587-1.432-2.368-2.042-1.041-2.764-1.907-2.764-3.313 0-1.67 1.085-2.363 3.485-2.227l1.804.102-.004 1.411c-.004 1.36-.02 1.379-.445.54-.243-.48-.871-1.113-1.397-1.408-.865-.486-1.011-.48-1.542.05-.762.762-.428 1.574.96 2.33.609.333 1.564.976 2.122 1.43 2.519 2.05-.108 5.54-3.267 4.34-.643-.245-1.041-.231-1.319.046-.295.295-.39-.053-.37-1.348zm28.572.811c-.938-2.397-2.96-6.898-3.406-7.585-.515-.792-.511-.793 1.52-.766 1.12.016 1.839.108 1.596.206-.65.263-.552.848.591 3.524l1.033 2.416 1.084-2.414c1.266-2.818 1.278-2.906.467-3.378-.487-.284-.288-.362.944-.37l1.56-.011-.704.793c-.387.437-1.472 2.5-2.412 4.586-.94 2.086-1.765 3.793-1.835 3.793-.07 0-.268-.357-.438-.794zm13.486.22c-2.144-1.056-2.966-3.375-2.027-5.72.875-2.188 2.35-2.951 5.438-2.813l2.477.11.002 1.35.002 1.35-.877-1.042c-1.085-1.289-1.886-1.52-3.268-.939-2.09.88-2.483 5.175-.62 6.778 1.156.994 2.28 1.01 3.502.048.95-.748 1.556-.718 1.08.053-.368.595-2.451 1.4-3.598 1.39-.54-.003-1.49-.258-2.11-.564zm-111.495-.022c.54-.141.617-.64.617-3.999 0-3.282-.09-3.889-.617-4.196-.46-.269.01-.357 1.852-.348 1.872.009 2.273.09 1.656.338-.714.286-.8.53-.705 2.006l.107 1.68h2.822l.108-1.68c.095-1.476.01-1.72-.705-2.006-.617-.248-.216-.33 1.656-.338 1.842-.01 2.312.08 1.852.348-.528.307-.617.914-.617 4.196 0 3.358.077 3.858.617 3.999.34.088-.415.175-1.676.191-1.715.023-2.137-.06-1.675-.33.456-.265.617-.814.617-2.105v-1.746h-3.175v1.746c0 1.291.16 1.84.617 2.106.462.269.04.352-1.675.33-1.262-.017-2.016-.103-1.676-.192zm10.23 0c.54-.141.618-.64.618-3.999 0-3.282-.09-3.889-.618-4.196-.46-.268.013-.356 1.852-.343 1.359.01 2.232.108 1.94.219-.917.349-1.047.89-1.052 4.4-.005 2.89.09 3.477.612 3.78.462.27.04.353-1.676.33-1.261-.016-2.015-.102-1.676-.191zm14.474-.198c.321-.243 1.317-2.108 2.213-4.145.895-2.037 1.748-3.83 1.895-3.982.146-.153 1.106 1.626 2.132 3.954 1.026 2.328 2.044 4.306 2.262 4.395.218.09-.557.173-1.72.186-1.407.015-1.946-.086-1.608-.3.412-.26.43-.495.096-1.23-.344-.753-.652-.906-1.82-.906-1.03 0-1.504.182-1.772.682-.518.97-.455 1.359.253 1.544.34.088-.088.18-.95.202-1.325.035-1.476-.027-.981-.4zm4.488-2.717c0-.533-.794-2.134-1.058-2.134s-1.058 1.6-1.058 2.134c0 .184.476.336 1.058.336.582 0 1.058-.152 1.058-.336zm27.569 2.922c.777-.207.996-1.176 1.001-4.438.004-2.268-.115-2.855-.7-3.44l-.706-.705h1.784c1.972 0 1.708-.317 3.68 4.41l.588 1.41 1.138-2.822 1.138-2.822 1.921-.107c1.765-.099 1.864-.065 1.216.412-.624.46-.705.928-.705 4.09 0 2.788.116 3.641.529 3.903.37.233-.092.336-1.525.34-1.866.005-2.003-.045-1.499-.55.423-.422.555-1.317.555-3.774 0-1.824-.132-3.075-.304-2.885-.167.184-.907 1.81-1.644 3.612-.736 1.802-1.45 3.346-1.587 3.43-.136.084-.977-1.55-1.87-3.63l-1.623-3.783-.014 3.422c-.012 2.897.08 3.478.603 3.782.482.28.268.353-.97.33-.873-.017-1.326-.1-1.006-.185zm20.144-.145c.522-.304.617-.891.612-3.782-.006-3.508-.135-4.05-1.053-4.4-.29-.11 1.178-.213 3.264-.229l3.792-.028-.028 1.5c-.015.824-.115 1.261-.222.97-.414-1.125-1.302-1.764-2.45-1.764h-1.18v1.764c0 2.045.43 2.232 1.414.617l.7-1.146-.013 2.47c-.012 2.341-.04 2.42-.518 1.54-.277-.51-.755-1.024-1.062-1.142-.473-.182-.542.068-.452 1.63.084 1.458.242 1.87.752 1.968 1.016.193 2.684-.655 3.27-1.664l.535-.922-.192.882c-.105.485-.194 1.16-.196 1.5-.004.55-.419.616-3.798.606-2.748-.008-3.622-.11-3.175-.37zm8.643.017c.748-.3.794-.518.789-3.77-.006-3.531-.13-4.06-1.053-4.452-.291-.125 1.01-.181 2.89-.126 2.746.08 3.563.23 4.145.756 1.209 1.094.786 3.291-.73 3.796-.441.147 1.879 3.631 2.618 3.932.234.095-.289.18-1.162.187-1.521.015-1.639-.06-2.822-1.799-1.475-2.167-2.119-2.503-2.112-1.1.008 1.562.368 2.536 1.001 2.704.32.085-.53.162-1.888.173-1.808.013-2.257-.067-1.676-.3zm4.94-4.661c1.125-.901.18-3.089-1.336-3.089-1.015 0-1.046.05-1.046 1.705 0 .938.108 1.813.24 1.944.275.276 1.495-.043 2.141-.56zm13.997 4.47c.424-.424.553-1.313.549-3.792-.006-3.328-.14-3.868-1.053-4.215-.29-.111.582-.21 1.94-.219 1.84-.013 2.312.075 1.852.343-.528.307-.617.914-.617 4.196 0 3.358.077 3.858.617 3.999.34.089-.386.18-1.612.202-2.028.037-2.18-.009-1.676-.513zm14.401.318c.54-.146.617-.65.617-4.005 0-3.282-.089-3.889-.617-4.196-.448-.261.426-.363 3.175-.37l3.792-.011v1.432c0 .864-.14 1.345-.352 1.213-.194-.12-.353-.44-.353-.714 0-.664-1.12-1.226-2.446-1.226-1.04 0-1.082.058-1.082 1.529 0 .84.1 1.629.223 1.751.396.397 1.487-.433 1.645-1.25.084-.438.164.316.178 1.674.02 1.96-.046 2.29-.322 1.598-.381-.955-1.003-1.473-1.443-1.2-.487.3-.307 2.846.234 3.294.757.629 2.527.117 3.39-.98l.738-.94-.116 1.231-.117 1.23-3.88.054c-2.135.03-3.604-.021-3.264-.114zm-69.585-13.892c-4.131-1.642-6.632-2.2-8.644-1.932-4.262.57-4.597.577-5.222.112-.958-.712-.413-1.59 1.741-2.805 1.24-.7 1.894-1.298 1.894-1.732 0-.566-.132-.613-.905-.32-1.366.52-1.917.419-1.917-.352 0-.417.424-.916 1.058-1.243 1.417-.733 1.336-1.235-.2-1.235-1.16 0-1.25-.074-1.146-.956.125-1.077.917-1.421 3.398-1.478l1.523-.036-.122 3.44c-.067 1.892-.254 3.717-.414 4.057-.253.534-.101.617 1.118.617 1.684 0 1.837-.36 1.879-4.416.02-1.9-.137-2.913-.546-3.537-.553-.845-.542-.887.343-1.223.504-.192 1.223-.349 1.598-.349.793 0 .924-.89.174-1.178-.28-.107-1.07-.104-1.757.007-1.728.28-2.135-.711-.772-1.883.876-.754 1.278-.825 4.557-.806 1.978.01 4.23.132 5.004.27 1.671.296 2.027 1.161.723 1.756-1.082.492-1.175 1.474-.164 1.739.646.168.71.383.539 1.819-.107.895-.297 3.182-.423 5.082-.244 3.692-.707 4.297-1.4 1.83-.21-.75-.554-1.42-.764-1.49-.53-.177-1.506 1.307-1.506 2.29 0 1.138 1.198 1.5 4.962 1.5 1.965 0 3.152.14 3.152.37 0 .716-1.073 2.435-1.745 2.795-1.17.626-3.274.377-6.016-.713zm-2.117-4.568c0-1.237-.1-1.411-.812-1.411-1.646 0-2.306 1.878-.864 2.458 1.443.58 1.676.434 1.676-1.047zm0-3.88c0-.787-.417-.886-1.434-.341-1.01.54-.829 1.046.376 1.046.823 0 1.058-.157 1.058-.706zm3.88-.177c0-.57-1.581-.757-1.91-.226-.278.451.159.755 1.087.755.497 0 .823-.21.823-.53zm-4.438-2.155c.592-.227.782-1.197.234-1.197-.724 0-1.44.458-1.44.92 0 .534.337.611 1.206.277zm4.438-.678c0-.652-.843-1.03-1.627-.729-.46.177-.486.319-.133.744.57.686 1.76.676 1.76-.015zm-1.497-3.253c.102-.31-.336-.44-1.472-.44-1.522 0-1.945.26-1.365.84.405.404 2.678.084 2.837-.4zm-51.818 14.64c-.026-.436-.065-2.327-.088-4.202-.023-1.874-.13-3.497-.238-3.605-.108-.109-1.84.275-3.848.853-2.01.579-3.69 1.01-3.737.96-.047-.05-.14-2.154-.21-4.677l-.123-4.586 1.234-.094c3.466-.265 6.073-.897 7.032-1.704 1.266-1.065 1.567-1.06 2.285.034.501.766.844.885 2.598.903 2.225.023 5.256.451 5.595.79.12.12.012 2.06-.24 4.313-.43 3.865-.497 4.085-1.19 3.919-1.033-.247-6.551-.695-6.572-.534-.009.074-.141 1.68-.294 3.57-.205 2.544-.443 3.619-.92 4.145-.835.923-1.227.898-1.284-.084zm-.247-10.766c.19-.19.293-.88.23-1.536-.111-1.17-.142-1.19-1.7-1.135-.874.03-2.025.225-2.559.432-.852.33-.97.563-.97 1.917v1.541l2.327-.437c1.28-.24 2.482-.592 2.672-.782zm7.734-.342c.487-1.283.384-2.462-.238-2.7-.307-.118-1.287-.214-2.177-.214-1.992 0-2.91.732-2.91 2.322 0 1.34.351 1.504 3.12 1.463 1.65-.024 1.924-.133 2.205-.871zm77.437 11.643c-.464-.464-.158-1.892.88-4.11 1.35-2.886 1.696-6.605.945-10.169-.448-2.122-.442-2.39.055-2.586 1.061-.419 5.566-.607 6.188-.26.431.242 1.164.191 2.378-.165 2.035-.597 7.072-.493 7.724.159.622.622-.358 1.927-2.94 3.91-4.053 3.116-4.001 3.056-3.538 4.072.497 1.092 2.122 2.236 2.539 1.788.162-.174.403-.674.535-1.11.211-.701.115-.795-.822-.795-2.208 0-1.433-1.471 1.118-2.124a43.997 43.997 0 0 0 1.925-.528c.713-.239.513 1.121-.441 3.005-.485.957-.882 2.047-.882 2.421 0 .906 1.972 2.596 4.003 3.432.901.37 1.64.771 1.64.89 0 .12-.417.635-.929 1.147-.644.644-1.303.93-2.143.93-1.206 0-1.509-.23-3.231-2.46l-.674-.873-1.062 1.137c-.584.626-1.384 1.137-1.778 1.137-.393 0-.972.257-1.286.572-.314.314-.656.486-.76.381-.492-.491-.548-3.572-.14-7.686.636-6.428.08-9.177-1.405-6.937-.413.623-.526 2.05-.526 6.63 0 5.095-.083 5.964-.656 6.838-.884 1.35-1.271.689-1.278-2.179-.005-2.128-.037-2.205-.908-2.205-.742 0-1.025.296-1.6 1.676-1.51 3.62-2.291 4.702-2.931 4.062zm12.09-4.1c.681-.727.727-.952.357-1.765-.612-1.342-1.592-1.208-1.866.256-.225 1.199.006 2.34.473 2.34.14 0 .605-.374 1.035-.832zm-6.369-4.901c.1-.872.002-.97-.97-.97s-1.082.11-1.082 1.082c0 .972.099 1.07.97.97.762-.088.994-.32 1.082-1.082zm0-4.233c.096-.833-.015-.97-.781-.97-.522 0-1.045.283-1.258.682-.62 1.159-.434 1.486.781 1.368.955-.092 1.165-.272 1.258-1.08zm8.064-1.021c.868-.72.476-1.017-1.032-.782-1.573.246-2.014.601-2.023 1.631-.005.58.083.585 1.29.08.713-.297 1.507-.715 1.765-.93zm13.593 14.145c-1.143-.459-.54-1.437 1.405-2.28 1.858-.804 2.756-1.525 2.756-2.213 0-.406-.3-.472-1.37-.3-.978.156-1.491.073-1.793-.291-.806-.971-.07-1.896 2.159-2.709 1.172-.427 2.305-1.055 2.518-1.396.36-.577.456-.561 1.403.236.963.81 2.383 1.165 2.366.591-.013-.46-1.191-1.741-2.17-2.36-.867-.548-1.03-.551-2.024-.037-.595.308-1.847 1.239-2.782 2.069-2.11 1.874-3.802 2.917-5.214 3.215-1.024.216-1.11.15-1.5-1.149-.599-2-.567-2.062 1.18-2.301 1.836-.252 3.312-.943 5.224-2.446 1.19-.935 1.287-1.12.826-1.582-.44-.44-.8-.455-2.298-.096-3.133.752-4.546-.428-2.248-1.877 1.171-.738 7.412-3.402 7.971-3.402.122 0 .221.305.221.677 0 .393-.518.997-1.235 1.44-.679.42-1.234.985-1.234 1.257 0 .671 1.41.976 2.537.548 1.203-.457 1.46-.917.81-1.456-1.01-.838-.502-1.055 2.473-1.055 2.277 0 3 .115 3 .475 0 .64-.914 1.4-2.823 2.35-2.07 1.03-2.013.921-1.03 1.974 1.033 1.108 3.324 2.304 6.057 3.16 1.834.576 2.028.731 2.028 1.623 0 1.915-3.633 3.032-5.212 1.602-.942-.852-1.404-.23-1.894 2.55-.452 2.566-1.167 3.544-1.989 2.722-.469-.469-.46-.733.072-2.361.702-2.147.55-2.806-.643-2.806-.596 0-.944.25-1.107.794-.491 1.637-2.34 4.094-3.495 4.642-1.328.63-1.78.66-2.945.192zm-97.387-8.338l.124-8.458 6.35-.37c5.91-.344 9.5-.214 11.944.431.957.253.995.339.769 1.718-.534 3.248-.883 7.659-.889 11.226l-.006 3.776-1.499-.538c-2.405-.864-7.322-1.006-11.823-.343-2.185.322-4.225.682-4.533.8-.505.194-.548-.628-.437-8.242zm11.658 4.303c4.183.005 4.493-.041 4.7-.705.123-.391.311-2.719.419-5.173.193-4.426.189-4.464-.644-4.913-1.836-.99-11.9-.743-13.644.334-.487.301-1.286 9.46-.91 10.438.185.484.6.525 2.909.29 1.48-.152 4.707-.274 7.17-.27zm-9.179-1.63c.11-1.14.19-1.203 1.874-1.442 2.543-.361 3.356-.605 3.356-1.005 0-.21-.96-.315-2.381-.258l-2.382.096v-1.058c0-1.043.032-1.06 2.188-1.235 1.203-.097 2.38-.37 2.616-.605.726-.726-.598-.951-2.754-.469-2.164.484-2.71.248-2.52-1.09.11-.777.324-.853 3.116-1.108 1.65-.15 4.745-.23 6.88-.176l3.88.097v2.117h-2.788c-2.055 0-2.832.128-2.955.486-.136.397.25.443 2.082.248 1.73-.184 2.412-.118 2.955.286 1.031.768.308 1.77-1.38 1.913-2.093.177-1.452.914 1.468 1.69.243.064.441.496.441.959 0 .838-.02.843-5.203 1.082-2.862.132-5.97.336-6.905.453l-1.702.212zm8.758-2.982c0-.28-.16-.509-.353-.509-.194 0-.353.327-.353.727 0 .4.159.628.353.508.194-.12.353-.447.353-.726zm42.552 5.922c.095-2.43.187-2.734.914-3.038.824-.344 9.623-.538 9.888-.218.08.097.079 1.367-.004 2.823l-.15 2.646h-4.287c-2.358 0-4.778.11-5.378.244l-1.09.245.106-2.702zm7.852-.4c.933-.59-.015-1.092-2.066-1.092-2.162 0-3.183.23-3.183.718 0 .629 4.356.94 5.249.375zm-12.153 1.918c-.533-.813-.582-1.511-.381-5.473.196-3.867.147-4.624-.325-5.096-.305-.305-.702-.555-.882-.555-.626 0-1.738-1.415-1.738-2.212 0-.647.29-.879 1.499-1.197a35.283 35.283 0 0 0 2.91-.929c.775-.294 1.506-.475 1.624-.402.118.073-.091 1.038-.465 2.144-.492 1.457-.767 3.71-.998 8.174-.175 3.39-.39 6.234-.476 6.32-.087.087-.432-.261-.768-.774zm3.087-5.92c.192-1.354 2.313-2.093 6.582-2.293 2.964-.139 4.048-.056 5.115.392 2.35.986 1.488 1.44-3.146 1.658-2.312.109-4.652.386-5.198.617-.546.23-1.55.42-2.23.42-1.08 0-1.221-.1-1.123-.794zm1.571-3.01c-.124-.202-.127-.624-.006-.94.923-2.404 10.013-2.598 10.013-.213 0 .398-.199.74-.441.762-.243.021-1.552.072-2.91.112-1.359.04-3.361.202-4.45.359-1.289.185-2.06.157-2.206-.08zm10.36-2.944c-1.407-.563-6.266-.75-9.525-.366-1.65.194-3.055.296-3.123.227-.07-.069.02-.564.2-1.1.29-.872.586-1.024 2.77-1.423 1.891-.346 2.634-.663 3.276-1.402.748-.86.906-.907 1.588-.474 1.83 1.16 2.949 1.52 5.217 1.682 2.714.195 3.026.624 1.688 2.324-.808 1.028-.835 1.035-2.091.532zm-40.945-1.25c-.52-1.366-.275-2.042.783-2.165 1.203-.14 3.418.788 3.712 1.555.333.87-.814 1.552-2.608 1.552-1.332 0-1.575-.121-1.887-.942zm-8.05-24.585c-.29-.35-.373-8.87-.308-31.485l.09-31.006 31.2-.09c24.725-.071 31.256.002 31.48.353.154.243.283 14.262.286 31.152.004 23.42-.095 30.81-.418 31.133-.663.663-61.779.608-62.33-.057zm33.238-7.358c.845-.434 1.751-2.63 1.5-3.633-.164-.653.456-1.396 3.62-4.338l3.816-3.55 3.201 3.242c2.9 2.936 3.17 3.321 2.868 4.101-.462 1.194-.075 2.626.999 3.7.702.702 1.262.908 2.474.908 2.17 0 3.629-1.42 3.629-3.528 0-1.15-.222-1.688-1.031-2.497-.962-.962-1.612-1.168-3.379-1.07-.435.024-1.99-1.168-4.057-3.11l-3.351-3.15 3.698-3.73c2.487-2.508 3.954-3.73 4.481-3.73 3.645 0 5.014-4.968 1.879-6.82-.547-.323-1.45-.588-2.005-.588-.81 0-1.706-.698-4.525-3.527l-3.514-3.527 3.106-3.121 3.107-3.122 1.673.161c2.209.212 3.516-.816 3.809-2.996.248-1.85-.488-3.114-2.242-3.846-2.625-1.097-4.867.68-4.876 3.862-.005 1.741-.013 1.752-3.078 4.56l-3.072 2.814-3.54-3.302c-2.85-2.659-3.54-3.494-3.542-4.29-.006-2.424-2.363-4.44-4.615-3.944-1.373.301-2.795 2.06-2.795 3.454 0 .937-.545 1.66-3.433 4.559-1.889 1.895-3.599 3.446-3.8 3.446-.203 0-1.706-1.345-3.342-2.99-2.9-2.916-2.972-3.027-2.88-4.531.178-2.88-2.51-4.78-5.053-3.574-3.611 1.713-2.242 7.063 1.746 6.818 1.465-.09 1.628.011 4.788 2.986l3.27 3.079-3.673 3.498c-2.586 2.462-3.936 3.504-4.557 3.517-2.398.051-4.322 2.688-3.514 4.816.59 1.55 1.384 2.245 2.825 2.476 1.041.166 2.084.94 5.103 3.787l3.794 3.578-3.246 3.175c-3.074 3.008-3.33 3.178-4.866 3.239-2.264.09-3.72 1.526-3.72 3.671 0 3.204 3.864 4.722 6.164 2.422.97-.97 1.059-1.24.91-2.795l-.166-1.72 3.215-3.203 3.216-3.202 3.609 3.622c3.204 3.215 3.61 3.761 3.61 4.86 0 2.923 2.974 4.514 5.762 3.083zm-8.08-9.826l-3.363-3.375 3.81-3.68c3.753-3.623 3.837-3.68 5.492-3.68 1.668 0 1.712.03 5.464 3.794l3.783 3.795-3.239 3.238-3.238 3.238-2.673.023-2.673.023zm-8.474-8.144c-3.063-3.019-3.366-3.431-3.01-4.097.525-.982.506-3.358-.033-3.897-.336-.336.289-1.149 2.904-3.774 1.832-1.84 3.497-3.346 3.698-3.346.202 0 1.935 1.573 3.85 3.497l3.485 3.497.055 2.14.055 2.14-1.958 1.861a1749.254 1749.254 0 0 1-3.8 3.599l-1.84 1.737zm21.545-.304l-3.522-3.535-.015-2.1-.015-2.102 3.607-3.594 3.606-3.594 3.404 3.125c2.86 2.626 3.371 3.255 3.2 3.938-.113.447-.3 1.2-.418 1.673-.119.479.017 1.321.308 1.903l.52 1.044-3.4 3.388c-1.87 1.864-3.48 3.388-3.577 3.388-.098 0-1.762-1.59-3.698-3.534zM546.4 466.749l-3.782-3.63 3.426-3.295 3.425-3.294 1.36.362c.987.264 1.667.246 2.491-.065l1.133-.427 3.394 3.38 3.394 3.382-3.678 3.578-3.678 3.578-1.851.03-1.852.03-3.782-3.63z" fill="#fff" stroke-width=".353"/></g></svg>