<svg xmlns="http://www.w3.org/2000/svg" width="762.792" height="298.001" viewBox="0 0 201.822 78.846"><path d="M22.378 74.228c-.842-2.54-1.472-4.677-1.4-4.749.072-.072 6.497.042 14.277.252l62.698 1.703c26.703.725 57.528 1.562 68.499 1.858 10.97.297 19.99.496 20.044.443.054-.054.067-5.802.03-12.773l-.07-12.676-3.814 10.32a5356.32 5356.32 0 0 0-4.313 11.693l-.499 1.375-1.243-.135c-.684-.075-2.364-.217-3.735-.317l-2.492-.181-3.521-11.217c-1.937-6.17-3.584-11.279-3.66-11.355-.076-.076-.138 4.882-.138 11.018v11.157l-3.241-.001c-1.783-.001-4.402-.078-5.821-.172l-2.58-.171V9.603l4.3-.18c2.364-.098 5.02-.25 5.903-.334l1.603-.156 5.247 13.195a16755.7 16755.7 0 0 1 5.91 14.877c.51 1.292.719 1.584.9 1.261.247-.441 5.451-14.514 9.234-24.97 2.176-6.015 2.242-6.153 3.019-6.272.436-.067 3.532-.194 6.879-.284 3.347-.089 6.334-.221 6.638-.294.543-.13.556-.035.721 5.244.093 2.957.092 19.277 0 36.266l-.17 30.89H23.909zm110.302-4.84l-2.448-.087-.021-11.169-.022-11.168-1.191 2.513c-.655 1.383-2.804 6.145-4.775 10.583-1.971 4.439-3.677 8.173-3.792 8.3-.114.125-1.655.141-3.424.035l-3.216-.193-.366-.83c-.202-.456-1.83-5.149-3.62-10.428l-3.253-9.6-.172 1.397c-.095.769-.184 5.475-.199 10.46l-.026 9.062-4.564-.002c-2.51-.001-5.338-.075-6.284-.165l-1.72-.162.054-27.154.054-27.154 6.693-.58c8.95-.774 8.337-.791 8.632.25.379 1.334 8.775 25.42 8.909 25.553.064.065.228-.166.363-.514 1.032-2.657 10.19-25.674 10.467-26.307l.353-.803 5.124-.328c2.818-.18 5.928-.4 6.91-.488l1.786-.159v59.335l-3.902-.055c-2.147-.03-5.004-.094-6.35-.142zM68.055 67.06c-12.007-.575-14.311-.783-15.756-1.422-1.925-.852-3.365-2.18-4.37-4.034l-.908-1.676V22.875l.87-1.766c1.052-2.138 2.702-3.675 4.778-4.452 1.257-.47 3.015-.66 11.151-1.2 5.313-.352 10.994-.651 12.625-.664 2.676-.022 3.117.044 4.498.676 1.729.792 2.523 1.447 3.375 2.787 1.234 1.94 1.227 1.815 1.266 22.67.034 18.205 0 19.906-.426 21.164-1.028 3.04-3.84 4.972-7.578 5.206-1.091.069-5.377-.038-9.525-.236zm3.96-11.432c.504-.254 1.16-.88 1.455-1.388.52-.896.538-1.337.538-13.362 0-11.906-.022-12.48-.529-13.494-.907-1.815-1.651-2.024-6.879-1.93-4.09.072-4.612.136-5.758.7-.901.443-1.462.964-1.967 1.825l-.706 1.205.019 11.423c.019 11.04.038 11.459.572 12.505.958 1.88 2.083 2.437 5.459 2.709 4.532.364 6.804.308 7.796-.193zm-48.41 9.656c-2.546-.137-4.66-.278-4.698-.313-.038-.035-.3-.946-.583-2.024-.284-1.078-2.79-9.7-5.57-19.158C6.685 23.15.433 1.733.181.728L0 0h11.852l3.647 13.295a30372.86 30372.86 0 0 1 6.737 24.603c1.699 6.22 3.152 11.31 3.229 11.311.13.003 9.814-28.435 14.484-42.528L41.987.529H201.14v.91c0 .872-.047.916-1.125 1.048-.618.076-3.386.267-6.151.425-2.765.157-14.195.875-25.4 1.595-11.205.72-29.184 1.847-39.952 2.503-10.769.657-23.032 1.43-27.253 1.718L83.93 9.91c-5.311.362-13.11.845-17.33 1.074-4.22.229-8.506.588-9.525.8-3.63.751-6.981 3.049-8.669 5.943-.603 1.035-17.022 43.337-17.92 46.17-.45 1.422-.734 1.727-1.555 1.678-.383-.023-2.78-.154-5.326-.291z" fill="#fff" stroke-width=".265"/></svg>