<svg xmlns="http://www.w3.org/2000/svg" width="1599.01" height="330.669" viewBox="0 0 423.071 87.489"><path d="M305.862 86.396c-.62-.737-.913-1.502-.913-2.381 0-.713-.228-2.487-.506-3.942-.956-5.002-.954-9.361.012-21.046.23-2.776.205-2.911-.676-3.793-.807-.806-1.2-.914-3.341-.914-1.335 0-3.312-.178-4.394-.395-1.591-.32-2.565-.286-5.086.177-5.557 1.02-8.527.66-10.216-1.236-.955-1.072-1.15-1.945-1.516-6.769-.353-4.653-1.09-6.555-4.086-10.536-1.067-1.42-1.94-2.884-1.94-3.254 0-.37.66-1.302 1.466-2.07 1.387-1.319 1.566-1.387 3.263-1.242 2.51.213 4.06 1.058 5.67 3.09.835 1.056 1.766 1.833 2.345 1.96 1.045.23 1.72 1.574 1.72 3.427 0 1.54 1.37 7.986 1.926 9.061.805 1.556 2.044 2.01 3.999 1.465.912-.255 2.611-.671 3.775-.926 3.891-.85 7.051-1.918 7.523-2.541.76-1.006.435-9.17-.417-10.47-.623-.949-.754-.989-2.646-.803-1.094.108-3.015.606-4.268 1.106-3.587 1.434-5.607.729-5.922-2.068-.267-2.361.389-3.661 1.977-3.923.706-.117 1.68-.356 2.166-.532.485-.176 2.204-.545 3.82-.82 3.397-.577 4.476-1.338 4.825-3.403.2-1.184-.613-7.223-1.942-14.424-.549-2.971-.427-4.674.404-5.674.673-.809.973-.882 3.611-.882h2.878l3.344 2.04c4.235 2.583 4.824 3.084 5.486 4.668.51 1.22.489 1.44-.403 4.063-1.077 3.17-1.011 4.682.33 7.576.964 2.078 1.415 2.34 6.03 3.514 5.04 1.282 7.827 1.208 12.716-.338 5.667-1.791 6.073-1.741 9.03 1.113l2.435 2.35v2.007c0 2.918-.47 3.845-2.926 5.759-2.767 2.157-11.098 10.35-11.716 11.522-.255.485-.965 1.358-1.577 1.94-1.04.988-1.272 1.052-3.582.982-4.134-.125-7.106.417-10.168 1.854-1.54.722-2.901 1.57-3.026 1.885-.569 1.438-.772 7.109-.463 12.92.185 3.492.324 6.904.308 7.583-.04 1.674-1.003 4.939-1.457 4.939-.202 0-1.147 1.652-2.1 3.67-.952 2.02-1.984 3.925-2.293 4.234-.929.93-2.449.7-3.479-.523zM321.625 42.1c3.556-2.215 7.147-6.11 11.295-12.254l.984-1.456-1.617-.108c-.89-.06-2.84.138-4.335.44s-4.227.702-6.072.89c-4.428.452-5.495.846-5.97 2.208-.448 1.286-.473 6.147-.043 8.375.555 2.878 2.934 3.665 5.758 1.905zm61.562 44.446c-1.037-.43-1.504-.949-2.224-2.47-.5-1.058-1.18-2.019-1.509-2.135-.965-.34-2.185-1.59-2.185-2.24 0-.893.635-1.229 3.175-1.68 1.26-.224 2.473-.654 2.694-.956 1.048-1.43.95-12.53-.127-14.24-.506-.803-.655-.832-3.225-.623-3.33.27-13.244 2.129-17.51 3.283-1.747.472-4.445 1.518-5.998 2.323-1.552.806-3.574 1.85-4.493 2.321-4.017 2.058-6.2 1.253-8.436-3.11-1.503-2.93-1.55-3.136-.917-3.983.36-.482 1.25-.616 4.85-.73 2.426-.077 5.839-.387 7.585-.689 1.746-.301 6.033-.964 9.525-1.471 8.978-1.306 16.972-2.85 17.273-3.336.097-.157-.07-1.01-.37-1.893-.5-1.466-.498-1.682.029-2.486.405-.618 1.016-.944 2.053-1.097a34.35 34.35 0 0 0 2.922-.587c2.094-.536 5.17.722 6.655 2.723 1.25 1.686.138 1.675 11.244.112 4.043-.569 8.365-1.289 9.605-1.6 2.83-.711 4.205-.464 6.29 1.128 2.802 2.14 3.858 5.24 2.163 6.352-.788.516-1.44.529-6.615.132-6.378-.49-19.554-.262-20.714.359-1.128.604-1.408 2.6-1.34 9.536.109 11.158-.918 13.835-6.342 16.543-2.514 1.255-2.33 1.231-4.058.514zm25.39-4.033c-.97-.566-1.71-2.33-1.62-3.863.086-1.46-1.632-5.346-2.996-6.779-.822-.863-1.645-2.815-1.645-3.902 0-1.801 3.32-1.898 8.297-.242 1.851.616 2.573 1.093 3.835 2.537 3.196 3.652 3.35 7.382.422 10.243-2.207 2.157-4.68 2.945-6.292 2.006zm-48.453-1.279c-1.72-1.571-4.022-4.69-4.022-5.45 0-1.328 1.312-3.052 3.33-4.373.981-.644 3.924-1.408 6.684-1.738 2.336-.278 2.672-.05 2.68 1.821.008 1.57-.532 2.82-1.738 4.026-.835.835-1 1.251-.859 2.175.118.772-.09 1.656-.64 2.73-.785 1.53-.877 1.59-2.585 1.69-1.525.09-1.921-.032-2.85-.881zm-326.46-5.763C15.948 73.062 4.487 64.516.798 50.97c-.641-2.355-.773-3.816-.796-8.82-.024-5.194.08-6.39.774-8.934 3.226-11.818 13.455-20.464 27.63-23.352 9.43-1.922 20.8-1.768 30.48.41 4.477 1.009 4.41.891 4.41 7.695 0 4.93-.073 5.616-.646 6.135-.873.79-1.288.75-4.964-.482-11.172-3.743-24.134-2.145-30.74 3.789-2.374 2.133-4.374 5.21-5.32 8.187-1.132 3.568-1.056 9.155.177 12.959 3.787 11.678 18.285 16.588 35.907 12.16 3.837-.964 3.9-.968 4.737-.31.836.658.848.756.848 6.578 0 7.374.199 7.093-5.644 7.993-4.6.708-20.075 1.028-23.989.495zm189.088-.147c-17.967-2.568-29.815-12.344-32.303-26.654-.77-4.426-.538-11.717.496-15.59 2.495-9.347 9.912-17.12 20.078-21.04 6.476-2.496 11.898-3.366 21.078-3.38 7.286-.01 10.992.345 16.757 1.606 4.624 1.012 4.568.919 4.578 7.55.01 7.323-.288 7.687-4.933 6.011-4.472-1.613-7.53-2.086-13.404-2.07-4.432.01-6.002.155-8.29.765-4.425 1.18-7.763 2.99-10.446 5.664-3.938 3.927-5.42 7.775-5.378 13.962.029 4.214.709 6.942 2.506 10.054 2.35 4.071 7.867 7.788 13.698 9.23 6.004 1.483 16.562.883 22.729-1.293 1.361-.48 1.606-.48 2.341.001 1.134.743 1.224 1.36 1.11 7.547-.1 5.334-.117 5.442-.984 6.07-.524.38-2.385.877-4.586 1.226-5.045.8-20.38 1.008-25.047.341zm-151.96-1.588l-1.146-.71V10.24l.805-.527c1.233-.808 17.575-.837 18.802-.033l.854.56v31.322c0 26.479-.077 31.427-.5 32.006-.468.64-1.055.691-9.084.782-8.075.09-8.652.054-9.73-.612zm26.744-.245c-.736-.936-.737-.964-.643-31.887l.094-30.95.882-.733c.855-.712 1.25-.734 13.31-.746 13.101-.012 14.221.107 16.095 1.719 1.721 1.48 1.91 2.011 11.674 32.93.983 3.111 1.824 5.203 2.092 5.203.282 0 2.53-6.57 6.064-17.723 6.057-19.116 6.38-19.863 9.156-21.259 1.315-.66 2.221-.712 14.245-.806 12.828-.1 12.84-.1 13.67.679l.83.78V73.33l-.784.55c-.654.457-2.12.548-8.836.548h-8.051l-.922-.921-.921-.922.248-20.421c.166-13.607.131-20.422-.105-20.422-.369 0-1.044 2.058-8.158 24.871-2.36 7.567-4.6 14.266-4.98 14.887-.378.621-1.275 1.494-1.993 1.94-1.24.771-1.688.818-8.96.925-7.008.103-7.789.053-9.235-.586-.997-.442-1.912-1.201-2.481-2.061-.563-.85-3.157-8.565-6.905-20.532-3.302-10.543-6.003-19.231-6.003-19.307 0-.075-.18-.137-.401-.137-.297 0-.366 5.369-.265 20.6.132 19.865.112 20.626-.536 21.343-.647.716-.976.743-9.058.743h-8.386zm266.999-17.29c-1.264-.784-1.736-1.653-1.97-3.624-.17-1.435-.048-1.947.814-3.413l1.013-1.724v-25.4l-1.482-.108c-.837-.06-2.526.224-3.88.654-3.948 1.254-4.716 1.389-4.918.862-.273-.712.778-2.194 3.626-5.112 2.792-2.862 7.062-8.074 8.505-10.382.494-.79 1.488-2.15 2.21-3.024.722-.873 1.421-1.938 1.555-2.366.408-1.307 2.22-2.574 3.672-2.565 1.866.011 3.995 1.1 5.24 2.679 3.632 4.604 3.48 6.336-.736 8.422-1.377.681-3.455 2.092-4.62 3.136l-2.116 1.897.592 1.609c.538 1.46.562 2.762.264 14.018-.283 10.707-.255 12.623.202 13.968.291.858.53 1.817.53 2.132 0 .512.063.516.617.037.353-.306 2.048-.717 3.968-.962 4.59-.586 6.592-1.053 7.089-1.651.494-.595.222-5.668-.333-6.223-.229-.228-1.272-.142-3.041.251-2.477.551-2.763.554-3.557.034-1.046-.685-1.046-.698-.129-2.183.648-1.049.911-1.188 2.24-1.188 3.48 0 4.77-1.242 5.061-4.874.183-2.283.18-2.29-.662-2.057-.466.13-1.914.423-3.218.654-2.066.366-2.531.343-3.616-.174-.685-.326-1.245-.852-1.245-1.169 0-.97 2.473-2.963 3.685-2.97.593-.004 1.872-.213 2.842-.464l1.764-.458V20.277h-3.735c-4.126 0-4.908-.307-4.908-1.929 0-1.586 1.041-2.178 4.433-2.522 1.678-.17 3.463-.508 3.968-.751 1.162-.56 1.764-2.524 2.068-6.745l.225-3.128 1.715-1.859c1.285-1.393 2.105-1.957 3.274-2.252 1.964-.494 2.907-.157 4.973 1.78 1.394 1.306 1.569 1.641 1.569 3.017 0 2.106-.697 3.293-2.77 4.717-3.49 2.4-2.959 3.281.83 1.374 1.163-.586 2.75-1.466 3.527-1.955 1.176-.74 1.748-.868 3.435-.764 3.42.212 4.81 2.386 3.006 4.708-1.478 1.902-2.09 2.228-4.21 2.24-1.102.006-3.245.178-4.763.38-2.23.298-2.912.538-3.553 1.255-.927 1.034-1.026 2.328-.24 3.114.752.752 1.126.703 2.476-.327 1.66-1.266 3.577-1.046 5.348.614 1.025.96 1.003 1.73-.088 3.026-.818.972-1.082 1.057-3.676 1.175-1.537.07-2.926.258-3.087.42-.16.16-.292 1.461-.292 2.89 0 3.046.206 3.207 3.351 2.61 1.482-.282 2.44-.254 4.057.118 1.958.45 2.123.565 2.202 1.52.055.663-.215 1.395-.753 2.045-.795.96-1.008 1.02-4.124 1.145-3.96.16-4.42.286-4.69 1.294-.344 1.28-.248 5.186.145 5.92.592 1.105 4.153.93 6.995-.342 1.234-.553 2.504-.933 2.822-.845.318.088 1.434.921 2.48 1.852 1.61 1.432 1.867 1.827 1.68 2.575-.464 1.847-1.575 2.156-9.05 2.516-3.784.183-8.308.305-10.054.272-2.326-.044-4.678.235-8.796 1.046-4.36.858-5.764 1.017-6.257.709-.35-.219-.712-.398-.804-.398-.372 0-1.557 1.533-2.298 2.973-.796 1.547-1.33 1.95-3.506 2.643-1.549.493-1.793.476-2.891-.206z" fill="#fff" stroke-width=".353"/></svg>