<svg xmlns="http://www.w3.org/2000/svg" width="7079.963" height="1449.763" viewBox="0 0 1873.24 383.583"><path d="M227.37 383.42c-1.597-.696-2.4-3.506-2.105-7.37.202-2.657.435-3.962 1.512-8.476.427-1.79.882-3.755 1.012-4.366.13-.61.487-2.182.794-3.492 1.204-5.154 1.595-7.64 1.59-10.14-.004-2.257-.081-2.685-.658-3.618-.36-.582-.725-1.248-.81-1.48-.085-.23-.622-.626-1.193-.878-.571-.252-1.039-.569-1.039-.704s-.258-.245-.574-.245c-.316 0-.805-.209-1.086-.463-.485-.44-6.113-.47-108.103-.596-106.642-.13-107.602-.137-108.716-.657-.619-.29-1.125-.617-1.125-.728 0-.111-.16-.202-.354-.202-.47 0-2.6-2.098-2.422-2.385.076-.122-.084-.293-.356-.38-1.03-.327-2.71-4.294-3.366-7.95-.44-2.448-.502-8.352-.116-10.93.146-.974.567-3.973.934-6.666.785-5.747 1.83-12.912 2.372-16.271.212-1.31.623-3.93.915-5.821.291-1.892 1.007-6.357 1.59-9.922 1.002-6.119 1.427-8.794 2.646-16.669.512-3.305.896-5.655 1.861-11.377.283-1.673.874-5.305 1.314-8.07.44-2.765.915-5.622 1.054-6.35.139-.727.617-3.644 1.063-6.482.446-2.838.981-6.112 1.19-7.276.209-1.164.452-2.653.54-3.307a73.3 73.3 0 0 1 .558-3.228c.218-1.12.496-2.847.619-3.837.122-.99 1.117-7.157 2.21-13.705a7239.407 7239.407 0 0 0 2.114-12.7c.548-3.453 4.218-25.39 4.404-26.326.266-1.337.589-3.187 1.2-6.88.23-1.382.9-5.37 1.49-8.863.59-3.492 1.166-6.945 1.281-7.673.57-3.601 3.243-19.578 3.587-21.431.216-1.164.98-5.63 1.7-9.922 1.406-8.385 1.732-10.326 2.802-16.669.381-2.255.8-4.815.93-5.688.743-4.952 2.053-8.955 4.069-12.436.337-.582.92-1.62 1.298-2.306.84-1.533 3.024-4.772 4.803-7.126a90.772 90.772 0 0 0 1.727-2.345c.435-.64 1.71-2.115 3.22-3.724.534-.57.925-1.035.869-1.035-.057 0 .885-1.013 2.092-2.25 1.207-1.238 2.136-2.31 2.064-2.381-.072-.073.006-.132.174-.132.169 0 1.368-1.041 2.667-2.315 1.298-1.273 3.055-2.91 3.905-3.638 1.489-1.274 2.018-1.754 5.05-4.582 1.831-1.708 2.854-2.555 6.02-4.984 1.455-1.117 2.686-2.13 2.734-2.251.049-.122.316-.221.595-.221.28 0 .507-.12.507-.265 0-.145.239-.264.53-.264.29 0 .529-.096.529-.212 0-.263 2.253-1.376 2.785-1.376.214 0 .39-.119.39-.265 0-.145.29-.264.646-.264.355 0 .707-.099.781-.22.075-.12 1.005-.372 2.067-.558 1.061-.186 2.309-.451 2.772-.589 1-.297 6.652-.254 7.24.054.852.448 17.407.604 60.18.566 73.734-.066 135.657-.402 136.26-.74.292-.163 1.406-.38 2.476-.482 2.157-.205 7.225-1.74 7.867-2.382.226-.227.594-.412.817-.412.651 0 3.082-2.791 3.628-4.165.275-.692.653-1.616.84-2.052.188-.437 1.086-2.58 1.997-4.763 1.749-4.192 3.81-8.37 4.635-9.4 3.664-4.567 6.389-4.85 11.83-1.233 1.545 1.028 4.416 3.769 5.67 5.413.621.814.645.951.347 1.989-.43 1.495-3.73 11.823-3.991 12.492-.657 1.681-3.147 9.695-3.295 10.605-.097.594-.405 1.428-.685 1.852l-.845 1.286c-1.354 2.084-4.233 3.612-7.742 4.108-1.196.17-40.878.273-111.92.294-60.536.017-109.768.127-109.404.243.535.172.418.217-.618.238-1.406.03-4.7.87-6.457 1.647-.617.273-1.242.496-1.39.496-.146 0-.267.111-.267.247s-.224.318-.5.405c-1.181.376-2.94 2.98-2.94 4.355 0 .816-2.731 17-3.04 18.012-.066.218-.3 1.528-.52 2.91-.61 3.842-1.509 8.893-3.718 20.903-2.063 11.21-3.814 20.848-4.519 24.87-.216 1.237-.62 3.38-.897 4.763a488.435 488.435 0 0 0-1.462 7.937 672.226 672.226 0 0 1-1.319 7.276 638.89 638.89 0 0 0-.919 4.895c-.308 1.674-.793 4.293-1.078 5.821-.285 1.528-.926 5.04-1.425 7.805a2391.13 2391.13 0 0 1-2.269 12.303 2296.43 2296.43 0 0 0-1.598 8.6c-.25 1.398-1.157 6.24-1.587 8.466-.14.728-.368 1.978-.507 2.778a813.123 813.123 0 0 1-1.869 10.187l-.78 4.1c-.124.656-.407 2.203-.629 3.44a1710.951 1710.951 0 0 1-2.427 12.965c-.146.732-1.075 5.81-2.249 12.303a554.515 554.515 0 0 1-1.183 6.35c-.362 1.839-.825 4.32-2.646 14.155-.202 1.092-.56 2.997-.796 4.234a196.36 196.36 0 0 0-.649 3.571c-.196 1.181-2.685 14.546-3.597 19.315a323.355 323.355 0 0 0-.77 4.233c-.228 1.31-.52 2.62-.648 2.91-.452 1.028-1.573 5.316-1.87 7.153-.512 3.173-.39 6.282.32 8.194.418 1.123 1.596 2.765 1.988 2.772.182.003.33.123.33.267 0 .144.507.59 1.125.992l1.124.731 98.029.18c53.915.098 99.129.255 100.475.349 1.346.093 2.447.28 2.447.416 0 .135.53.246 1.176.246.646 0 1.248.119 1.338.264.09.146.415.265.723.265.674 0 2.568.839 2.578 1.141.004.119.356.51.782.869.427.36.918 1.083 1.092 1.609.412 1.248.186 3.618-.488 5.116-.986 2.19-4.564 11.944-6.017 16.4-.356 1.092-.751 2.223-.879 2.514-.237.543-.363.944-1.365 4.365-.32 1.092-.758 2.52-.974 3.175-.216.655-.458 1.816-.539 2.58-.14 1.337-.122 1.39.5 1.39.558 0 2.338-1.438 2.338-1.889 0-.078.961-1.144 2.136-2.368a173.69 173.69 0 0 0 2.844-3.02c1-1.121 5.63-6.224 6.265-6.905.546-.586 1.166-1.28 4.1-4.598a137.833 137.833 0 0 1 2.911-3.187c1.362-1.422 2.419-2.64 2.291-2.64-.047 0 .578-.69 1.391-1.534a117.97 117.97 0 0 0 3.065-3.345 87.338 87.338 0 0 1 2.58-2.82c.546-.557.992-1.135.992-1.287 0-.15.149-.28.33-.287.183-.007.838-.632 1.456-1.39 1.965-2.404 4.052-4.78 6.68-7.607.51-.547 1.522-1.672 2.25-2.499.727-.827 1.68-1.89 2.116-2.363a515.914 515.914 0 0 0 5.557-6.1 521.93 521.93 0 0 1 3.091-3.424c1.273-1.391 1.581-1.742 3.477-3.954a61.701 61.701 0 0 1 2.229-2.44c.618-.634 1.124-1.21 1.124-1.281 0-.071.447-.586.993-1.144a38.716 38.716 0 0 0 1.75-1.929c.416-.503 1.547-1.752 2.513-2.776a115.14 115.14 0 0 0 3.211-3.572c.8-.94 1.813-2.08 2.25-2.534.436-.453 1.507-1.639 2.38-2.634.874-.995 1.945-2.186 2.382-2.646 1.043-1.1 3.931-4.301 4.637-5.14.942-1.119 3.763-4.255 5.072-5.638 1.437-1.518 3.594-5.68 3.661-7.062.088-1.832-.02-2.31-.737-3.252-.455-.597-1.246-1.169-2.113-1.527-.763-.315-1.333-.66-1.267-.767.067-.107-1.52-.273-3.524-.369-2.005-.095-47.69-.172-101.525-.17h-98.598c-.817-.002-2.415-1.279-2.99-2.39-1.749-3.383-1.845-7.664-.368-16.397.625-3.701 1.358-6.152 2.569-8.595.918-1.854 2.732-3.84 3.505-3.84.226 0 .523-.108.662-.24.424-.405 2.264-.878 4.484-1.153 1.352-.167 41.117-.295 110.067-.354 67.331-.058 108.15-.188 108.48-.344.29-.139 1.094-.32 1.785-.403 2.875-.347 3.638-.497 3.638-.715 0-.127.268-.236.595-.242.953-.019 3.142-.661 2.94-.863-.1-.101.17-.184.601-.184.432 0 .899-.095 1.037-.211.138-.116.906-.431 1.706-.7.8-.268 1.634-.623 1.852-.789.219-.165 1.02-.594 1.782-.954.762-.359 1.387-.742 1.39-.852.002-.109.236-.198.52-.198.283 0 .61-.152.727-.337.116-.185.56-.559.984-.83 1.144-.728 5.2-4.87 6.113-6.241.435-.655 1.19-2.024 1.677-3.043.487-1.019.992-2.059 1.123-2.312a2.62 2.62 0 0 0 .236-1.01c0-.302.108-.75.24-.996.131-.246.492-2.054.8-4.018.31-1.964.676-4.225.816-5.025.14-.8.568-3.36.95-5.689.835-5.084 2.056-11.076 2.48-12.17.276-.713.335-.745.576-.315.201.359.455.438 1.015.315.42-.093.822-.042.92.116.094.154.402.28.683.28.47 0 .803.213 2.074 1.323 1.43 1.249 2.601 3.576 3.332 6.615 1.126 4.688 1.202 12.614.153 15.936-.858 2.715-3.654 8.376-5.621 11.38a83.647 83.647 0 0 0-1.935 3.11c-.437.752-.927 1.513-1.09 1.69-.163.176-.49.696-.728 1.154-.237.458-.818 1.388-1.29 2.065-.474.677-.98 1.427-1.126 1.667-.145.24-.324.496-.397.568-.073.073-.49.668-.925 1.323-.436.655-.853 1.25-.926 1.323-.073.073-.728 1.024-1.456 2.114-2.472 3.704-5.46 7.807-5.84 8.02-.208.116-.377.32-.377.454 0 .36-2.165 3.494-2.779 4.02-.29.251-.435.46-.32.465.115.005-.032.266-.325.582-.294.315-.864 1.059-1.267 1.653-.402.595-.804 1.14-.892 1.213-.088.073-.894 1.144-1.792 2.381-1.848 2.546-3.047 4.15-3.615 4.832-.213.256-.388.557-.388.669 0 .111-.208.403-.463.649-.842.812-1.312 1.384-1.615 1.966-.165.316-.452.732-.64.926-.49.508-2.636 3.218-3.102 3.92-.219.328-.516.731-.662.896-1.04 1.173-2.249 2.816-2.249 3.054 0 .157-.093.286-.207.286-.114 0-.404.328-.643.728-.24.4-1.01 1.353-1.71 2.118-.702.765-1.57 1.869-1.929 2.453-.358.585-1.102 1.532-1.653 2.105-.55.573-1.002 1.156-1.002 1.295a.392.392 0 0 1-.217.341c-.119.049-.506.516-.86 1.04a30.3 30.3 0 0 1-1.503 1.984c-.473.568-1.281 1.569-1.796 2.224-.515.655-1.318 1.65-1.786 2.21-.467.562-.952 1.2-1.077 1.42-.126.219-.423.602-.662.85-.238.249-.75.86-1.138 1.36a56.542 56.542 0 0 1-1.19 1.48c-.267.316-.724.904-1.015 1.307-.481.665-1.607 2.072-4.32 5.396a36.83 36.83 0 0 1-1.7 1.938c-.4.412-.727.828-.727.926 0 .168-.56.884-1.897 2.427-.315.364-1.402 1.733-2.416 3.043s-2.07 2.62-2.348 2.91c-.278.291-1.152 1.357-1.944 2.368-.792 1.012-1.62 1.94-1.841 2.064-.221.124-.402.347-.402.497 0 .385-3.154 4.2-3.472 4.2-.145 0-.196.108-.114.242.082.133.06.281-.05.33-.11.05-.899.952-1.752 2.007-.853 1.055-1.657 1.918-1.786 1.918s-.234.137-.234.304c0 .33-1.47 2.199-2.845 3.617-.473.488-.86.943-.86 1.011 0 .282-2.96 3.763-3.317 3.9-.213.081-.389.3-.39.487-.004.186-.37.755-.817 1.265-1.77 2.019-2.9 3.35-3.603 4.245-1.054 1.344-1.437 1.799-2.257 2.684-.4.431-.728.851-.728.933 0 .15-2.76 3.424-3.298 3.912-.16.145-.844.979-1.518 1.852-.674.873-1.563 1.96-1.975 2.417a45.1 45.1 0 0 0-1.543 1.831c-.437.551-1.3 1.533-1.919 2.182-.618.65-1.124 1.256-1.124 1.349 0 .187-1.844 2.387-2.977 3.552-.4.411-.727.819-.727.906 0 .22-2.623 3.276-3.288 3.83-.302.252-.454.46-.338.463.115.003-.063.283-.397.62-.334.338-1.024 1.133-1.534 1.766-.509.633-1.173 1.398-1.475 1.7-.302.303-.956 1.086-1.454 1.741a40.005 40.005 0 0 1-1.613 1.985 87.012 87.012 0 0 0-2.601 3.036 25.412 25.412 0 0 1-1.786 1.93c-.473.444-.86.918-.86 1.053 0 .255-.703 1.097-2.514 3.008-.582.615-1.177 1.287-1.323 1.495-.927 1.324-2.895 3.621-3.204 3.74-.202.077-.367.27-.367.428 0 .158-.36.668-.799 1.133a17.633 17.633 0 0 0-1.387 1.695c-.324.467-.852.99-1.173 1.162-.322.172-.56.402-.531.511.056.209-2.046 2.782-2.725 3.335l-1.241 1.013c-.465.38-1.493 1.55-2.286 2.598-.793 1.05-1.931 2.42-2.53 3.044-.597.625-1.087 1.31-1.087 1.521 0 .212-.127.386-.283.386-.332 0-.444.113-2.361 2.381-.8.946-1.573 1.805-1.72 1.908-.146.104-.489.342-.761.53-.273.187-.63.46-.794.605-1.033.916-2.984 1.53-5.16 1.623-1.255.054-2.534-.011-2.841-.145zm226.485-112.096c.088-.23.16-35.622.16-78.648v-78.228l46.354.068c26.94.04 46.415.168 46.5.305.11.176.138 17.92.032 19.139-.01.108-16.001.227-35.537.264l-35.52.067-.068 21.63-.068 21.63h50.803v18.52h-50.802l.067 28.245.067 28.244 35.52.067c19.537.037 35.522.156 35.523.265.003.108.031 4.394.066 9.524l.064 9.327h-46.661c-42.44 0-46.647-.038-46.5-.42zM565.14 193.18c0-73.157.03-78.568.442-78.648.243-.047 5.124-.053 10.847-.013l10.406.072.067 68.984.066 68.984 31.023.067 31.022.067v19.048H565.14V193.18zm115.623-.018v-78.58l46.302-.068c25.466-.037 46.421-.028 46.567.02.17.057.264 3.582.264 9.857v9.767h-35.558c-32.18 0-35.573.04-35.718.419-.089.23-.161 9.993-.161 21.695v21.278h50.8l.02 8.4c.011 4.62.062 8.622.113 8.892.243 1.286 1.512 1.221-25.495 1.293l-25.306.068v56.356l35.653.067 35.652.067v19.048H680.763v-78.58zm157.295 78.134a34.367 34.367 0 0 0-2.91-.572c-.765-.105-1.3-.309-1.266-.482.036-.189-.654-.37-1.852-.488-1.05-.104-2.029-.278-2.174-.389-.146-.11-.741-.343-1.323-.518-1.193-.358-1.42-.45-3.874-1.585-.967-.447-1.89-.812-2.05-.812-.162 0-.294-.12-.294-.265 0-.145-.185-.264-.412-.264-.227 0-.34-.12-.25-.265.09-.146-.069-.265-.354-.265-1.047 0-7.318-3.805-7.032-4.268.078-.126-.021-.23-.22-.23-.2 0-.594-.214-.876-.476-.282-.262-.721-.556-.976-.653-.255-.097-.463-.3-.463-.45 0-.15-.155-.273-.345-.273-.418 0-2.827-2.296-2.622-2.5.08-.08.025-.145-.122-.145-.337 0-2.467-2.074-2.467-2.402 0-.134-.179-.244-.397-.244-.219 0-.397-.113-.397-.25 0-.138-.625-.926-1.39-1.753-.763-.826-1.772-2.053-2.24-2.726a63.183 63.183 0 0 0-1.06-1.489c-.687-.88-2.719-4.045-2.719-4.236 0-.125-.221-.474-.492-.774-.27-.3-1.074-1.677-1.786-3.06-.711-1.382-1.355-2.573-1.431-2.646-.368-.353-3.03-6.947-4.071-10.085-3.152-9.501-4.613-18.076-5.144-30.206-.646-14.738 1.484-29.816 5.84-41.333.819-2.163 1.048-2.716 2.083-5.027.326-.727.605-1.382.621-1.455.068-.314 1.803-3.595 2.023-3.823.132-.138.24-.456.24-.706 0-.25.092-.494.203-.542.216-.094 2.444-3.591 2.444-3.836 0-.08.327-.58.727-1.11.4-.53.847-1.156.992-1.39 1.18-1.895 3.515-4.968 4.45-5.857.421-.4.7-.728.62-.728-.08 0 .801-.952 1.957-2.115 1.156-1.164 2.102-2.236 2.102-2.382 0-.146.115-.265.257-.265.142 0 .767-.47 1.39-1.045 2.25-2.078 3.251-2.923 3.461-2.924.118 0 .14-.119.051-.264-.09-.146.022-.265.249-.265s.412-.093.412-.207c0-.115.387-.433.86-.707.473-.275.955-.658 1.072-.851.116-.193.384-.352.595-.352.211 0 .384-.099.384-.22 0-.12.327-.388.727-.595.4-.206 1.119-.634 1.596-.951.819-.543 4.471-2.359 6.805-3.383.582-.256 1.404-.63 1.827-.833.422-.202.928-.368 1.124-.368.196 0 .356-.119.356-.264 0-.146.29-.265.646-.265.355 0 .72-.119.81-.264.09-.146.573-.265 1.073-.265.501 0 .91-.119.91-.265 0-.145.293-.264.65-.264.356 0 1.338-.192 2.182-.427 4.584-1.275 8.096-1.564 18.07-1.487 9.895.076 13.77.243 14.143.609.138.136.726.247 1.307.247 1.569 0 8.847 1.4 9.749 1.874.253.133.825.242 1.272.242.475 0 .745.11.65.265-.093.15.124.264.498.264.363 0 .735.12.825.265.09.145.447.265.793.265.347 0 .704.119.794.264.09.146.454.265.81.265.355 0 .645.119.645.264 0 .146.231.265.514.265.282 0 .587.119.677.264.09.146.454.265.81.265.355 0 .646.09.646.198 0 .11.889.607 1.974 1.105s2.032 1.061 2.105 1.25c.072.19-.26 1.33-.737 2.534a586.164 586.164 0 0 0-1.736 4.438c-1.785 4.628-3.244 8.36-3.571 9.128a73.97 73.97 0 0 0-.674 1.654c-.418 1.07-.924 1.087-1.9.066-.417-.437-.924-.794-1.128-.794-.427 0-2.512-1.043-2.996-1.5-.18-.17-.716-.392-1.19-.493-.475-.102-.983-.268-1.128-.37-.31-.22-2.178-.817-2.837-.91-.25-.034-.538-.146-.64-.247-.1-.101-.527-.184-.948-.184-.443 0-.697-.111-.602-.265.098-.158-.24-.264-.844-.264-.555 0-1.842-.165-2.86-.366-3.828-.757-8.312-1.09-14.685-1.09-6.52 0-7.324.084-11.672 1.208a9.11 9.11 0 0 1-1.852.252c-.676.003-.798.067-.499.26.323.209.289.258-.182.261-.32.002-.644.107-.721.232-.078.126-.68.38-1.339.564-.658.184-1.197.439-1.197.565 0 .127-.268.233-.595.236-.328.004-.893.24-1.257.524-.364.284-.81.52-.992.523-.182.003-.331.101-.331.217 0 .117-.425.365-.944.553-.519.188-1.338.688-1.82 1.111-.483.424-.955.77-1.05.77-.095 0-.556.366-1.024.812l-1.39 1.323c-.295.281-.682.512-.86.512-.176 0-.32.119-.32.264 0 .146-.18.265-.397.265-.219 0-.399.149-.4.33-.003.301-1.09 1.598-3.184 3.799-.43.452-.782.902-.782 1 0 .098-.477.8-1.06 1.56-.584.759-1.15 1.5-1.259 1.645-1.209 1.618-4.866 8.712-6.014 11.666a79.088 79.088 0 0 1-1.07 2.633 13.25 13.25 0 0 0-.616 1.852c-.141.576-.556 2.119-.921 3.428-1.014 3.633-1.976 8.753-2.608 13.89-.461 3.743-.456 17.961.008 21.829.382 3.19 2.04 11.857 2.428 12.7.134.291.436 1.244.672 2.117.235.873.657 2.092.936 2.709.28.617.508 1.234.508 1.372 0 .278 2.68 6.159 2.903 6.37.134.127.572.86 1.183 1.984.266.489 1.862 2.907 2.793 4.232.219.311.653.956.966 1.433.56.858 4.49 5.222 5.517 6.127.29.257 1.065.9 1.72 1.431l1.656 1.345c.257.21.561.381.678.381.116 0 .448.208.738.463s.758.593 1.042.753l1.177.661c.364.205.721.432.794.505.073.073.49.307.926.52.437.212 1.11.599 1.496.859.386.26.952.472 1.257.472.305 0 .554.12.554.265 0 .145.334.265.741.265.408 0 .854.103.992.23.486.445 4.198 1.401 6.314 1.626 1.177.125 2.523.364 2.991.531 1.057.377 8.646.207 11.32-.255 5.713-.985 7.873-1.502 9.052-2.164.487-.274 1.21-.5 1.605-.503.396-.003 1.017-.24 1.381-.524.364-.284.787-.52.94-.523.444-.01 1.702-.648 1.704-.866 0-.109.222-.198.49-.198.269 0 .694-.228.945-.505.252-.278.806-.65 1.232-.826.426-.177.775-.426.775-.553 0-.128.156-.233.346-.233.191 0 .603-.238.915-.53.313-.29.61-.528.662-.528.32 0 3.157-2.753 5.85-5.676l1.207-1.31.669.628c.368.346.67.74.67.876 0 .135.267.577.595.98 1.8 2.221 3.638 4.748 3.638 5 0 .127.174.375.387.552.213.177.803.936 1.31 1.686.507.75 1.472 2.139 2.144 3.085.672.945 1.538 2.181 1.923 2.746l.701 1.026-1.423 1.289c-.783.709-1.583 1.289-1.778 1.289-.195 0-.324.138-.288.306.094.436-4.254 3.875-5.148 4.071-.409.09-.692.247-.628.35.302.49-5.461 3.817-7.22 4.169-.465.093-.783.233-.705.31.236.237-3.002 1.734-5.812 2.688-1.455.493-2.705.98-2.778 1.081-.073.102-1.052.27-2.175.373-1.307.121-2.023.298-1.985.492.036.184-.56.374-1.529.486-.873.1-2.171.371-2.886.601-1.854.597-24.837.574-27.276-.027zm115.955-68.875l.067-69.321h-21.272c-20.014 0-21.282-.028-21.45-.463-.19-.494-.161-17.033.032-17.926.114-.527.304-.529 53.35-.47l53.235.06.07 9.399.069 9.4h-42.87v138.641h-21.299zm86.318 69.056V110.214l13.56.067c42.389.207 50.757.294 52.586.55 1.091.152 2.996.397 4.233.544 1.237.148 2.785.404 3.44.57a22.33 22.33 0 0 0 2.315.436c.619.075 1.125.243 1.125.373 0 .131.235.238.522.238.288 0 .913.238 1.39.529.476.29 1.07.528 1.32.529.43 0 1.423.497 3.25 1.623.436.27 1.193.697 1.68.95 2.074 1.079 6.86 6.396 8.877 9.863 2.61 4.486 5.12 11.158 5.97 15.875.17.946.424 2.231.563 2.856.14.626.371 2.987.515 5.25.389 6.11-.181 13.207-1.431 17.823-.777 2.871-1.243 4.373-1.497 4.825-.141.253-.257.576-.257.717 0 .407-2.587 5.674-3.31 6.739-.359.53-.825 1.296-1.036 1.703-.21.407-.736 1.118-1.167 1.58-.432.462-.736.84-.677.84.06 0-.22.381-.621.846-1.842 2.134-2.801 3.123-3.03 3.123-.137 0-.65.387-1.14.86-1.348 1.303-1.957 1.786-2.248 1.786a.265.265 0 0 0-.265.265c0 .145-.127.264-.283.264-.156 0-.802.357-1.437.794-.634.437-1.322.794-1.528.794-.206 0-.59.238-.853.529-.264.29-.592.53-.73.53-.14 0-.984.333-1.878.741-3.147 1.437-5.346 2.11-8.372 2.56-1.237.185-2.07.36-1.852.39.218.028.003.196-.482.37l-.879.319 2.55 1.69c1.403.93 2.947 2.087 3.432 2.572.485.485.983.892 1.107.903.124.012 1.03.934 2.015 2.05 1.767 2.002 2.064 2.36 3.37 4.046.363.47.78.985.925 1.144.146.16.49.704.765 1.21.275.507.76 1.22 1.078 1.583.318.364.975 1.317 1.459 2.117 1.399 2.311 2.239 3.565 2.453 3.66.109.048.198.31.198.58 0 .27.107.557.237.638.13.08.502.653.824 1.272.323.62 1.069 2.019 1.658 3.11 1.002 1.857 6.446 12.722 10.274 20.506.93 1.891 1.78 3.479 1.89 3.527.11.049.198.201.198.34 0 .366 3.802 8.023 4.035 8.127a.37.37 0 0 1 .199.312c0 .344 1.426 3.341 2.628 5.523.592 1.076 1.076 2.107 1.076 2.293 0 .186.09.378.2.427.154.067 1.765 3.44 2.402 5.028.048.12-4.744.22-10.65.22-9.36 0-10.737-.051-10.737-.397 0-.495-21.05-42.668-21.461-42.995-.167-.133-1.649-2.927-1.684-3.175-.025-.177-2.21-3.925-2.775-4.763-.246-.364-.91-1.495-1.474-2.513-.565-1.019-1.658-2.745-2.428-3.835-.77-1.09-1.4-2.122-1.4-2.293 0-.17-.09-.35-.203-.399-.112-.048-.737-.742-1.389-1.542s-1.394-1.61-1.648-1.801c-.255-.19-.463-.519-.463-.729 0-.21-.1-.382-.222-.382-.259 0-2.78-1.89-2.91-2.182-.048-.11-.23-.199-.406-.199-.175 0-.731-.352-1.235-.783-.504-.43-1.095-.79-1.313-.798-.318-.011-.327-.059-.045-.238.24-.152.031-.276-.661-.39-.558-.092-1.355-.347-1.772-.566-.416-.22-1.049-.4-1.405-.4-.357 0-.894-.13-1.193-.291-.377-.202-4.598-.287-13.675-.277l-13.13.015v70.932h-8.533c-5.512 0-8.533-.093-8.534-.264zm61.384-90.172c2.473-.389 4.265-.808 4.602-1.075.161-.128.859-.314 1.55-.414.691-.1 1.257-.294 1.257-.43 0-.137.228-.249.507-.249.538 0 3.837-1.653 4.54-2.276.23-.203.508-.37.617-.37.11 0 1.074-.898 2.144-1.996 1.94-1.99 4.111-5.297 4.808-7.32.202-.586.525-1.38.717-1.762.192-.382.635-1.827.983-3.21.567-2.251.63-3.063.614-7.804-.018-4.925-.069-5.466-.735-7.806-.8-2.807-1.38-4.307-2.05-5.296-.25-.366-.494-.902-.544-1.19-.05-.289-.16-.585-.244-.657-.083-.073-.857-1.085-1.72-2.25-.862-1.163-1.631-2.147-1.71-2.185-.077-.038-.851-.602-1.72-1.254-.867-.651-2.4-1.602-3.405-2.113-1.005-.511-1.72-.936-1.587-.945.533-.034-3.613-1.06-5.713-1.415-4.015-.678-7.242-.771-27.385-.795l-19.844-.024-.067 26.668-.067 26.667 21.366-.114c12.647-.068 22.068-.225 23.086-.385zm111.551 89.897c-.856-.285-2.088-.538-2.737-.562-.669-.025-1.234-.19-1.307-.379-.076-.197-.852-.403-1.893-.502-.97-.093-2.003-.264-2.294-.38l-1.19-.476a26.515 26.515 0 0 0-1.72-.582 21.244 21.244 0 0 1-1.588-.54 202.67 202.67 0 0 0-2.732-1.08c-1.498-.582-2.091-.928-1.852-1.079.251-.16.184-.224-.235-.227-.885-.006-3.23-1-4.417-1.874-.58-.426-1.21-.775-1.4-.775-.189 0-.344-.12-.344-.265 0-.146-.184-.265-.408-.265-.224 0-.664-.238-.977-.53-.313-.292-1.082-.778-1.709-1.082-.627-.303-1.14-.66-1.14-.792 0-.133-.151-.241-.336-.241-.185 0-.75-.337-1.257-.749a16.954 16.954 0 0 0-1.78-1.247c-.473-.275-.86-.653-.86-.84 0-.187-.14-.34-.31-.34-.449 0-3.106-2.354-6.304-5.584-3.586-3.623-6.35-6.944-6.35-7.629 0-.154-.107-.28-.238-.28-.13 0-.902-1.042-1.715-2.315-.813-1.274-1.599-2.46-1.747-2.635a1.317 1.317 0 0 1-.27-.728c0-.224-.116-.408-.26-.408-.3 0-3.972-7.452-3.972-8.061 0-.223-.1-.405-.22-.405-.122 0-.35-.387-.508-.86a138.21 138.21 0 0 0-1.129-3.109c-2.796-7.48-4.359-14.237-5.29-22.886-.388-3.59-.306-15.528.14-20.506.363-4.051.532-5.4 1.159-9.26.382-2.353 2.102-9.482 2.84-11.774 1.274-3.954 4.09-10.944 4.744-11.774.172-.218.742-1.278 1.267-2.355.525-1.076 1.117-2.148 1.315-2.38.198-.234.82-1.198 1.384-2.144.563-.946 1.125-1.84 1.248-1.985.123-.145.88-1.157 1.682-2.249 1.57-2.136 4.621-5.593 6.289-7.123 2.372-2.178 3.728-3.574 3.665-3.775-.036-.118.095-.214.29-.214.197 0 .6-.208.898-.463.875-.749 1.79-1.454 3.339-2.57.8-.577 1.396-1.142 1.326-1.257-.071-.114.116-.208.416-.208s.544-.119.544-.265c0-.145.135-.264.3-.264.165 0 .492-.211.728-.47.235-.257.725-.617 1.09-.799.363-.181 1.375-.748 2.248-1.26 1.517-.888 3.502-1.874 5.358-2.662.473-.201 1.306-.556 1.852-.79 1.765-.753 2.035-.857 3.039-1.164.544-.166 1.057-.412 1.14-.547.084-.135.383-.246.665-.246.283 0 .514-.119.514-.264 0-.146.476-.265 1.058-.265.582 0 1.058-.106 1.058-.235 0-.13.387-.303.86-.384 2.364-.408 3.87-.71 4.829-.971 1.645-.447 5.847-1.03 10.931-1.519 2.508-.24 15.017.066 17.776.436 2.645.355 5.16.757 6.615 1.058.655.135 1.637.332 2.183.436.545.105.992.281.992.392 0 .111.446.268.992.348 2.712.396 2.763.41 5.157 1.471.69.306 1.375.556 1.525.556.149 0 .477.109.73.242s.906.431 1.452.662c2.345.99 3.042 1.308 4.167 1.898.655.343 1.607.835 2.116 1.094.51.258.966.559 1.015.668.048.109.262.198.474.198.212 0 .53.122.705.27.502.424 3.627 2.376 3.804 2.376.087 0 .35.221.586.491.235.27.672.569.97.663.298.094 1.037.617 1.642 1.162a33.946 33.946 0 0 0 2.037 1.685c.851.63 5.1 4.42 5.805 5.177.16.173.828.927 1.483 1.675.655.749 1.518 1.713 1.919 2.142.4.43.727.855.727.944 0 .089.444.704.987 1.366 1.816 2.217 4.305 5.98 4.305 6.51 0 .226.123.41.273.41.15 0 .358.21.463.467.104.257.687 1.358 1.295 2.447 1.458 2.611 4.116 8.894 5.372 12.696 2.376 7.193 3.87 14.912 4.518 23.344.446 5.798.187 16.845-.516 22.033-.741 5.465-2.412 13.507-3.189 15.345-.123.291-.61 1.66-1.084 3.043a112.339 112.339 0 0 1-1.886 5.027c-1.27 3.11-4.755 10.054-5.045 10.054-.118 0-.325.291-.46.647-.135.355-.757 1.376-1.383 2.268-.625.892-1.266 1.85-1.424 2.13-.159.28-.486.726-.728.994-.242.267-.44.57-.44.675 0 .104-.267.47-.595.812a35.277 35.277 0 0 0-1.521 1.77c-1.468 1.823-7.025 7.373-7.381 7.373-.178 0-.256.109-.174.242.082.133-.208.4-.646.594-.437.193-.795.442-.795.552 0 .11-.135.2-.3.2-.332 0-1.288 1.011-1.288 1.363 0 .123-.166.224-.368.224-.203 0-.746.352-1.207.782-.46.43-1.247.93-1.748 1.112-.5.18-.91.413-.91.515 0 .102-.357.31-.794.462-.436.152-.793.402-.793.555 0 .153-.114.278-.253.278-.14 0-.859.357-1.6.794-.74.437-1.51.794-1.709.794-.2 0-.403.089-.451.198-.049.11-.684.48-1.411.823-.728.343-1.53.73-1.783.86-.252.13-.719.235-1.036.235-.317 0-.5.078-.404.173.171.172-.99.886-1.44.886-.131 0-.802.25-1.492.555-.69.306-1.492.657-1.783.78-.802.342-2.804.962-3.77 1.169-.473.1-.86.278-.86.393 0 .115-.95.292-2.11.394-1.403.122-2.091.289-2.051.497.038.198-.52.375-1.528.482-1.86.198-2.243.286-2.778.632-.24.156-5.657.279-13.758.312-12.638.053-13.446.028-14.92-.462zm24.048-17.708c1.019-.182 2.03-.398 2.25-.478.608-.225.582-.219 1.917-.44.692-.115 1.257-.315 1.257-.444s.298-.234.662-.234c1.376 0 7.045-2.19 9.26-3.577a22.146 22.146 0 0 1 2.05-1.119c.546-.25.993-.547.993-.658 0-.112.166-.203.369-.203.203 0 .65-.295.992-.656.343-.362.772-.66.954-.662.182-.003.33-.116.33-.251 0-.136.254-.327.563-.426.6-.19 1.391-.868 4.92-4.217 1.224-1.162 2.307-2.174 2.408-2.25.403-.302 2.957-3.397 2.957-3.583 0-.11.195-.341.432-.515 1.035-.757 4.995-7.863 6.822-12.243 5.586-13.39 6.814-34.993 2.921-51.397-1.127-4.748-2.195-7.89-4.431-13.03-.174-.4-.407-.728-.517-.728-.11 0-.2-.168-.2-.373 0-.359-1.718-3.55-2.649-4.919-.819-1.204-1.438-2.246-1.445-2.432-.004-.1-.245-.422-.536-.715-1.279-1.285-3.038-3.648-2.853-3.833.082-.082-.14-.258-.491-.392-.352-.134-1.007-.673-1.456-1.198-.448-.525-.897-.955-.997-.955-.29 0-1.461-1.422-1.47-1.786-.004-.181-.187-.33-.406-.33-.218 0-.397-.12-.397-.265 0-.145-.148-.265-.33-.266-.182 0-.688-.328-1.125-.727-.436-.4-1.12-.896-1.521-1.102-.4-.207-.728-.474-.728-.595s-.157-.22-.349-.22c-.192 0-.75-.357-1.238-.794-.49-.437-1.055-.794-1.257-.794-.202 0-.887-.357-1.521-.794-.635-.436-1.252-.793-1.37-.793-.206.001-1.406-.55-3.561-1.633-.53-.266-1.184-.486-1.455-.488-.416-.003-.43-.045-.097-.26.318-.206.273-.258-.228-.261-.344-.002-2.427-.464-4.63-1.026-5.406-1.379-7.555-1.624-14.205-1.622-6.82.003-12.098.648-14.936 1.824-.835.347-2.984.82-3.723.82-.37 0-.61.104-.53.23.078.127-.421.442-1.11.7-.688.258-2.084.868-3.102 1.357-1.018.488-1.953.888-2.076.888-.124 0-.54.22-.927.49-.386.27-1.022.568-1.412.663-.39.094-.786.409-.878.7-.092.29-.316.528-.497.528s-.585.238-.897.53c-.313.29-.662.53-.778.533-.115.002-.583.334-1.04.737-.457.403-1.319.966-1.915 1.252-.597.286-1.086.67-1.088.853-.003.184-.453.654-1.004 1.046-.55.392-1.354 1.155-1.786 1.696-.431.541-1.057 1.056-1.39 1.145-.334.089-.546.26-.472.38.074.12-.154.49-.507.82-.353.332-.974 1.094-1.38 1.692-.407.599-.94 1.268-1.183 1.486-.244.219-.665.815-.935 1.324-.27.51-.83 1.453-1.244 2.098-.413.645-.917 1.538-1.12 1.984-.201.447-.466.991-.588 1.21-.123.218-.447.873-.722 1.455-.274.582-.62 1.146-.766 1.252-.147.107-.176.197-.065.199.111.002.01.45-.223.996-.483 1.127-2.444 7.068-2.598 7.872-.056.29-.35 1.72-.654 3.175-1.704 8.162-2.286 15.32-2.07 25.434.145 6.792.44 10.026 1.339 14.65.352 1.81 1.24 5.377 1.582 6.35l1.112 3.175c1.816 5.184 5.071 11.14 8.171 14.949a51.26 51.26 0 0 0 1.211 1.455c.074.073.431.578.794 1.123.362.544.728.99.812.992.083 0 1.1.924 2.26 2.052 3.703 3.604 6.006 5.364 9.229 7.052.582.305 1.117.624 1.19.709.073.084.52.321.992.527.473.206.86.45.86.542 0 .092.387.314.86.491a55.01 55.01 0 0 1 2.844 1.144c2.333 1.004 2.971 1.22 4.13 1.393.682.103 1.55.348 1.929.546.378.197.992.36 1.363.36.371.002.788.112.926.246.138.133.847.313 1.574.4.728.085 2.038.258 2.91.383 2.33.334 14.736.17 16.934-.224zm107.818 17.966c-.655-.12-1.488-.299-1.852-.397-.364-.099-1.23-.254-1.926-.346-.695-.091-1.256-.285-1.245-.43.021-.298-1.482-.624-2.98-.647-.547-.008-.993-.108-.993-.222s-.566-.36-1.257-.548c-1.985-.54-7.554-2.958-7.329-3.183.07-.07-.38-.298-1-.508-.62-.209-1.606-.694-2.19-1.076-.586-.383-1.301-.827-1.59-.988-1.015-.564-.912-1.009 1.785-7.645.296-.728.637-1.562.76-1.853.121-.29.474-1.184.783-1.984.31-.8.76-1.937 1-2.527.242-.59.915-2.284 1.497-3.765 1.184-3.012 1.534-3.255 2.936-2.035.423.368 1.066.83 1.43 1.026 3.484 1.879 5.938 3.068 6.335 3.068.264 0 .62.169.792.376.171.207.78.455 1.352.552.573.097 1.513.404 2.09.682.576.279 1.271.506 1.545.506s.58.082.68.182c.281.282 2.094.868 2.697.873.299.002.661.122.806.267.144.144.615.285 1.045.312.43.028.912.146 1.07.264.16.118 1.437.333 2.84.479 1.402.145 3.058.381 3.68.525 1.464.338 6.346.327 7.876-.018a55.134 55.134 0 0 1 2.693-.511c1.617-.262 4.689-1.233 5.1-1.611.138-.128.465-.232.727-.232.262 0 .476-.12.476-.265 0-.146.223-.265.495-.265.51 0 4.595-2.53 4.753-2.943.048-.127.227-.231.397-.23.32 0 4.41-4.207 4.41-4.538 0-.104.148-.346.33-.538.486-.513 1.956-3.562 2.548-5.283 1.278-3.717 1.431-10.233.335-14.249-.56-2.052-2.026-5.823-2.362-6.074-.104-.08-.339-.411-.52-.739-.822-1.478-1.022-1.791-1.456-2.285-.255-.29-.463-.683-.463-.874 0-.19-.119-.347-.263-.347-.145 0-.804-.532-1.464-1.183-.66-.651-1.643-1.514-2.184-1.918a26.86 26.86 0 0 1-1.496-1.198c-.283-.254-.848-.61-1.257-.792-.41-.181-.745-.42-.745-.53 0-.11-.178-.2-.396-.2-.219 0-.398-.089-.4-.198 0-.109-.268-.33-.595-.49-1.59-.78-2.842-1.548-2.842-1.742 0-.118-.268-.217-.595-.22-.482-.002-.52-.052-.199-.26.328-.212.303-.257-.142-.26-.297-.002-1.007-.243-1.577-.534-.571-.29-1.182-.529-1.357-.529-.176 0-.359-.097-.407-.216-.049-.12-1.308-.814-2.8-1.545-1.49-.73-2.645-1.393-2.566-1.472.078-.078-.294-.225-.828-.325s-1.165-.288-1.401-.418c-.237-.13-1.264-.607-2.283-1.061-1.019-.454-2.03-.936-2.249-1.07-.47-.291-1.144-.607-2.296-1.073-.462-.187-.797-.411-.743-.498.053-.087-.449-.304-1.116-.482-.667-.179-1.542-.559-1.943-.845-.402-.286-.863-.52-1.024-.52-.364 0-1.374-.559-1.736-.96-.149-.165-.577-.37-.952-.457-.375-.087-.981-.428-1.347-.76-.365-.33-1.13-.839-1.699-1.13-1.649-.843-5.4-3.485-5.4-3.804 0-.1-.387-.41-.86-.686-.473-.277-2.05-1.724-3.506-3.216-3.022-3.1-2.997-3.069-3.698-4.399-.288-.545-.596-.992-.686-.992-.09 0-.39-.446-.666-.992a21.04 21.04 0 0 0-.941-1.657c-.768-1.166-2.586-5.798-3.258-8.296-1.16-4.32-1.513-6.976-1.657-12.482-.176-6.732.382-11.096 2.015-15.757.712-2.032 2.127-5.092 2.447-5.29.15-.092.255-.247.235-.345-.054-.26 1.717-3.107 2.36-3.793.304-.325.564-.682.577-.794.08-.663 3.25-4.013 6.07-6.414.935-.796 1.938-1.704 2.23-2.017.492-.531 1.64-1.235 4.233-2.594.582-.306 1.117-.615 1.19-.688.327-.327 3.615-1.859 3.982-1.856.226.003.523-.107.662-.244.318-.314 4.934-1.62 6.336-1.792.582-.072 1.172-.237 1.31-.368.138-.13.935-.238 1.77-.238.836 0 1.593-.119 1.683-.264.212-.343 15.842-.354 17.926-.012.837.137 2.471.272 3.63.3 1.16.028 2.046.153 1.969.278-.077.125.24.228.704.228 1.618 0 5.728.794 6.992 1.352.29.128.925.26 1.409.292.484.032.937.152 1.008.265.07.114.478.207.906.207.428 0 .778.09.778.2 0 .11.387.37.86.576 2.328 1.016 4.456 2.1 5.953 3.032 1.923 1.198 1.99 1.454 1.02 3.952-.722 1.864-3.224 9.344-4.439 13.275-.45 1.455-.915 2.752-1.033 2.882-.303.334-1.656-.276-2.329-1.05-.307-.353-.71-.642-.897-.642-.187 0-1.05-.353-1.92-.785-.87-.432-1.707-.79-1.862-.794-.154-.005-.774-.246-1.376-.537-.603-.291-1.208-.53-1.347-.53-.567 0-2.96-1.276-2.636-1.406.192-.077-.033-.149-.499-.16-.465-.012-1.537-.212-2.38-.446a40.55 40.55 0 0 0-2.593-.626c-.582-.11-1.237-.272-1.456-.36-.421-.168-.66-.203-5.82-.85-3.446-.431-7.848-.382-10.055.113-.654.147-1.547.343-1.984.435a10.56 10.56 0 0 0-1.19.319 6.64 6.64 0 0 1-.906.248c-.28.054-.637.197-.794.319-.157.121-.843.38-1.525.577-.682.195-1.18.45-1.109.567.072.117-.042.212-.254.212s-.773.327-1.246.728c-2.27 1.92-3.86 3.396-4.22 3.92l-.92 1.338c-.288.419-.588.82-.666.893-.268.248-1.79 3.569-2.224 4.85-1.765 5.217-.97 14.106 1.671 18.69.38.659.928 1.663 1.216 2.231.662 1.302 5.175 5.98 5.77 5.98.244 0 .444.118.444.264 0 .145.186.264.412.264.227 0 .345.11.261.246-.083.135.118.33.448.435.33.104.967.47 1.417.813.45.343 1.016.623 1.257.623.241 0 .438.109.438.242s1.042.756 2.315 1.386c1.274.63 2.355 1.235 2.404 1.346.048.11.286.204.529.207.242.003.738.239 1.102.523.364.285.812.52.996.524.317.006 1.365.513 1.65.8.073.073.43.264.794.426.364.161 1.53.726 2.592 1.256 1.063.53 2.104.963 2.316.963.21 0 .383.123.383.273 0 .15.209.345.464.433.63.219 3.67 1.59 4.92 2.22.559.283 1.243.514 1.52.514.278 0 .505.119.505.264 0 .146.238.265.529.265.291 0 .53.119.53.264 0 .146.178.265.396.265.218 0 .397.119.397.264 0 .146.13.265.289.265.159 0 .592.238.962.53.37.29.86.528 1.088.528.229 0 1.513.655 2.855 1.456 1.34.8 2.566 1.455 2.723 1.455.157 0 .285.105.285.233 0 .129.784.744 1.741 1.368.958.624 2.178 1.528 2.712 2.01.534.48 1.053.877 1.153.88.251.009 2.86 2.724 2.86 2.977 0 .112.11.205.245.205.279 0 1.926 1.585 1.654 1.591-.098.002-.041.092.126.199.168.107.911.968 1.652 1.914.74.946 1.44 1.839 1.556 1.984.371.47 2.372 4.701 3.252 6.88.902 2.23 1.492 4.476 2.437 9.26.506 2.564.575 3.79.577 10.319.003 7.16-.021 7.5-.704 10.186-.893 3.514-1.283 4.59-2.738 7.565-.648 1.322-1.177 2.492-1.177 2.598 0 .107-.149.35-.33.54-.183.19-.51.612-.729.939a10.81 10.81 0 0 1-.661.894c-.145.165-.562.731-.926 1.258-1.554 2.252-6.448 7.375-7.673 8.032-.364.195-.836.603-1.05.906-.215.303-.52.551-.678.551-.159 0-.558.251-.888.558-.865.807-4.04 2.617-4.59 2.617-.257 0-.467.1-.467.22 0 .342-3.904 2.295-5.887 2.943-.982.322-1.786.679-1.786.794 0 .114-.95.291-2.11.393-1.403.122-2.091.289-2.051.497.036.188-.36.345-.998.394-.582.045-1.815.313-2.74.595-1.566.48-2.5.512-13.626.483-6.57-.017-12.48-.13-13.135-.25zm127.199-68.973l-.067-69.255-21.365-.068-21.365-.067.004-9.193c.003-5.056.091-9.312.198-9.457.129-.175 18.201-.265 53.296-.265 46.99 0 53.111.046 53.182.397.043.218.045 4.475.003 9.459l-.077 9.062h-42.53l-.17 2.183c-.093 1.2-.133 32.394-.09 69.32l.08 67.138h-21.033zm84.831 68.428c.091-.455.166-35.847.166-78.648v-77.82l46.352.065c35.742.05 46.397.138 46.548.383.24.389.316 18.21.08 18.825-.155.405-2.865.438-35.726.438h-35.558v43.392h50.8v18.52h-50.8V252.693h35.558c32.93 0 35.57.033 35.727.44.093.243.157 4.53.142 9.526l-.028 9.084h-93.426zm121.08-77.469c0-43.062.061-78.453.135-78.647.112-.292 8.088-.341 46.501-.286l46.365.067.07 9.789.069 9.79h-.599l-35.655.067-35.058.064V177.418l25.466.068 25.467.067v18.518h-25.114c-13.813 0-25.302.073-25.532.161-.378.145-.419 2.849-.419 27.892 0 15.252.072 27.92.16 28.15.146.379 3.539.418 35.713.418h35.551l.073 9.262c.04 5.094.033 9.38-.015 9.525-.058.173-15.975.263-46.633.263h-46.545v-78.295zm111.39-.352v-78.647l10.782.062 10.781.063.133 68.994.132 68.993 30.89.067 30.89.068V271.742h-83.608zM144.585 134.027c-.146-.05-1.112-.343-2.149-.652-2.446-.73-3.869-1.917-4.472-3.734-.533-1.602-.424-6.486.22-9.902.406-2.15.688-4.146 1.374-9.722.21-1.71.564-3.46.786-3.89.223-.43.405-.94.405-1.134 0-.788 2.613-3.518 4.365-4.56.582-.347 1.504-.712 2.048-.811.545-.1.934-.272.866-.382-.068-.11.423-.275 1.09-.367.668-.091 47.606-.168 104.307-.17 85.614-.002 103.159.058 103.488.351.405.36 3.57 3.826 4.423 4.844.26.31.948 1.142 1.53 1.85.582.707 1.324 1.558 1.648 1.89.324.332.721.85.883 1.152.161.302 1.085 1.58 2.052 2.839a1576.016 1576.016 0 0 1 3.17 4.142c.555.727 1.09 1.501 1.188 1.72.098.218.714 1.11 1.37 1.984 1.538 2.05 2.89 4.078 3.463 5.197.25.488.534.948.63 1.02.422.322 1.374 3.164 1.517 4.533.183 1.758.025 2.561-.665 3.356l-.501.578-116.386-.02c-64.012-.012-116.505-.062-116.65-.112z" fill="#fff" stroke-width=".265"/></svg>