<svg xmlns="http://www.w3.org/2000/svg" width="1570.549" height="369.11" viewBox="0 0 415.541 97.66"><g transform="translate(-244.969 -465.992)"><image y="464.581" x="242.115" preserveAspectRatio="none" height="100.542" width="423.333"/><path d="M269.58 563.388c-2.227-.72-5.515-2.817-7.53-4.801-2.117-2.087-5.118-6.103-5.118-6.85 0-.231 1.173-.382 3.087-.398 1.697-.013 10.627-.301 19.843-.64 9.217-.339 16.956-.549 17.198-.467.243.082.441.274.441.426 0 .695-13.054 9.112-17.586 11.339-2.81 1.38-3.301 1.507-6.226 1.596-1.746.053-3.595-.039-4.108-.205zm72.342-.483c-3.447-1.454-8.323-4.333-15.201-8.978-3.907-2.638-4.512-3.193-3.9-3.572.352-.218 39.979.992 40.26 1.229.076.064-.506 1.099-1.295 2.299-2.194 3.338-5.768 6.755-8.668 8.288-2.325 1.23-2.787 1.343-5.875 1.449-2.887.099-3.624 0-5.32-.715zm119.141-15.616c-5.269-1.047-9.756-4.184-11.223-7.846-.792-1.977-.81-2.306-.925-17.977l-.117-15.963h9.521l.131 14.552c.117 12.931.202 14.74.764 16.23 1.235 3.275 4.124 4.68 9.56 4.649 4.86-.028 7.289-1.084 8.74-3.799.768-1.437.79-1.804.962-16.463l.177-14.993 4.85-.098 4.851-.098-.003 14.21c-.003 14.746-.201 17.498-1.476 20.46-1.4 3.258-5.685 6.047-10.942 7.126-3.357.688-11.429.694-14.87.01zm-195.135-.024l-2.646-.529c-4.427-.883-10.017-4.347-12.858-7.967-4.554-5.802-6.39-12.954-5.001-19.47.305-1.434.635-2.687.732-2.784.352-.352 26.105 14.051 38.646 21.615 8.891 5.362 12.877 8.042 12.877 8.66 0 .446-2.13.524-15.523.566-8.537.027-15.84-.014-16.227-.091zm56.15-.017c-.13-.129-.235-.344-.235-.477 0-.719 21.435-13.749 35.101-21.337 10.354-5.748 16.376-8.995 16.685-8.995 1.203 0 1.65 9.086.643 13.053-2.401 9.452-10.281 16.353-20.15 17.646-2.818.37-31.686.469-32.044.11zm78.787-20.755v-20.99H410.39v16.933h21.167v-16.933H441.082v41.98H431.557v-17.285H410.39v17.286H400.865zm89.27 20.726c.008-.145 4.277-9.551 9.485-20.902l9.47-20.638h10.368l9.495 20.598c5.223 11.328 9.496 20.734 9.496 20.902 0 .167-2.366.305-5.256.305h-5.256l-1.669-3.97c-.918-2.182-1.823-4.407-2.012-4.943l-.344-.976-9.878.094-9.877.093-1.94 4.85-1.941 4.852h-5.08c-2.793 0-5.07-.12-5.062-.265zm30.322-17.519c0-.166-6.387-15.149-6.525-15.305-.05-.057-.654 1.292-1.34 2.999a987.407 987.407 0 0 1-3.19 7.776l-1.941 4.675h6.498c3.574 0 6.498-.065 6.498-.145zm26.885 16.813c-.413-1.154-5.336-14.8-10.688-29.628-2.117-5.867-3.85-10.828-3.85-11.024 0-.225 1.889-.358 5.099-.358h5.099l1.097 3.44c.603 1.891 2.934 9.068 5.179 15.949l4.082 12.509 4.168-15.155a4331.99 4331.99 0 0 0 4.372-15.958c.201-.798.23-.802 5.913-.705l5.71.096 4.93 15.616c2.711 8.588 5.043 15.494 5.182 15.346.139-.149 2.358-7.215 4.93-15.704l4.68-15.434h4.88c2.685 0 4.882.12 4.882.265 0 .145-3.109 9.59-6.909 20.99l-6.908 20.726h-11.823l-4.731-15.306c-2.602-8.419-4.828-15.126-4.947-14.905-.12.22-2.024 7.108-4.233 15.306l-4.016 14.905h-11.75zm72.432.594c-7.23-1.208-12.611-6.466-14.18-13.855-.678-3.197-.464-11.424.377-14.46 1.46-5.274 4.365-8.926 8.74-10.99 3.99-1.884 7.271-2.299 18.152-2.299h9.302v7.408l-8.378.007c-9.322.008-11.922.355-14.127 1.883-1.653 1.146-3.165 3.762-3.474 6.01l-.222 1.625h26.201v7.408H615.963l.178 2.216c.212 2.637 1.236 4.816 2.84 6.04 2.169 1.654 4.488 1.975 14.262 1.975h8.922v7.408l-10.319-.041c-5.675-.023-11.108-.174-12.072-.335zm30.858-20.614v-20.99h9.878v41.98h-9.878zm-354.189 14.07c-19.649-10.433-30.347-17.375-36.703-23.817-4.928-4.996-6.591-12.073-4.431-18.851 1.328-4.167 5.584-10.866 8.823-13.887.826-.77.963-.8 1.357-.294 12.4 15.934 22.713 32.147 31.55 49.6 3.86 7.62 4.482 9.239 3.55 9.223-.243-.004-2.109-.892-4.146-1.974zm22.421 1.661c-.5-.81 9.943-20.508 16.382-30.9 6.203-10.012 15.925-23.871 19.675-28.046.285-.318 3.989 3.996 5.93 6.909 6.487 9.73 6.372 18.795-.332 26.127-5.8 6.344-19.23 15.095-37.466 24.415-3.82 1.953-3.89 1.978-4.189 1.495zm-13.82-4.043c-1.42-1.729-8.675-13.205-11.961-18.92-3.473-6.039-7.848-14.766-9.462-18.873-2.387-6.075-3.13-9.167-3.316-13.793-.261-6.5.94-9.87 5.086-14.266 2.88-3.051 5.868-4.601 10.854-5.627 1.898-.39 3.682-.71 3.964-.71.836 0 3.147 5.449 4.49 10.591 2.649 10.133 3.558 20.543 3.28 37.563-.187 11.561-1.022 24.376-1.627 24.981-.16.16-.75-.265-1.308-.946zm8.496.816c-.397-.643-1.194-10.577-1.597-19.912-.937-21.71 1.419-40.794 6.287-50.921.498-1.037 1.094-1.958 1.323-2.046.823-.316 8.29 1.63 10.46 2.724 4.552 2.298 8.563 7.717 9.512 12.849 1.59 8.609-3.33 22.193-15.142 41.804-3.225 5.353-9.792 15.384-10.264 15.675-.188.116-.448.038-.579-.173z" fill="#fff" stroke-width=".353"/></g></svg>