<svg data-name="Слой 1" xmlns="http://www.w3.org/2000/svg" viewBox="0 0 55.3 7.25"><path d="M26.35 6.8a1.46 1.46 0 0 0 1.06.45h1.24v-.07a1.53 1.53 0 0 1-.48-.18 2.84 2.84 0 0 1-1-1 2.22 2.22 0 0 1-.87.73M3.44 4L5.77.48H4.2a10.93 10.93 0 0 1-1 1.64c-.15.25-.25.56-.4.81A8.38 8.38 0 0 0 2 1.34C1.87 1 1.79.77 1.61.48H0a1 1 0 0 0 .19.37L2 4v.12c0 .89-.1 1.77-.18 2.62h1.52c0-.93 0-1.84.1-2.74m4.92-.66h-1.5c.31-.61.58-1.26.84-1.9zm1.16 3.4h1.42a2.67 2.67 0 0 0-.21-.62L9.15 1.85 8.67.48H7l-3 6-.09.27h1.4a20.92 20.92 0 0 1 1.1-2.4H8.7c.28.78.61 1.57.82 2.37m6.34-3.58a2.09 2.09 0 0 0 .06-2A1.45 1.45 0 0 0 14.7.48h-3.35L11.24 3l-.19 3.77h1.45v-.45l.2-4.72v-.14H14a.8.8 0 0 1 .7.41 1.2 1.2 0 0 1-.06.75c-.38.71-1.21.65-1.94.59a1.31 1.31 0 0 0 1 .78 2.15 2.15 0 0 0 2.1-.86m2-1.78l.05-.88h-1.31v.07l-.15 4.32-.14 1.86h1.41V5.09zm7.92 3v.06zM29.3.42V.35H28a1.64 1.64 0 0 0-1 .3l-2.48 2.08-.94.8.61.72.76.89a.55.55 0 0 0 .41.17.57.57 0 0 0 .57-.56.52.52 0 0 0-.11-.33l-.63-.76 1-.87L27.7 1.5l1-.82a1.25 1.25 0 0 1 .6-.26m2 .16V.51h-1.54a1.76 1.76 0 0 0-1.11.57l-3 2.55-.07.07c.12.17.3.34.43.52a.83.83 0 0 1 .2.55.85.85 0 0 1-.86.85.88.88 0 0 1-.7-.35L23.62 4l-.46-.55L25 1.9 26.72.45a1.35 1.35 0 0 1 .59-.21V.17h-1.56a1.54 1.54 0 0 0-.75.26L22.44 2.6 20.64.53a1.45 1.45 0 0 0-1-.53H18.2v.07a1.16 1.16 0 0 1 .94.48L20.41 2l3.29 3.9a2.06 2.06 0 0 0 1.66.84 2 2 0 0 0 2-2 2.27 2.27 0 0 0-.2-.89l3.49-3a1.3 1.3 0 0 1 .66-.28m3.21 2.95c.89-1 1.81-2 2.72-3h-1.7a32.82 32.82 0 0 1-2.6 3 30.29 30.29 0 0 1 .17-3h-1.38v.77l-.15 3.92-.13 1.55h1.41c0-1.06 0-2.07.1-3.11.85 1 1.66 2.07 2.46 3.11h1.72l-2.61-3.17zm7.48-.2a2 2 0 0 0 .24-1.91 1.52 1.52 0 0 0-1.39-.93h-3.3c-.06 2.07-.08 4.22-.22 6.24h1.43v-.4l.12-4.68v-.07h1.56a.74.74 0 0 1 .4.26.93.93 0 0 1 0 .83c-.35.77-1.22.66-1.92.64l1.72 3.45h1.56L40.72 4A2.1 2.1 0 0 0 42 3.32m5.2-1.68a6.4 6.4 0 0 0 .03-1.16h-4.46c0 2.07-.08 4.18-.23 6.22H47a6.32 6.32 0 0 0 0-1.15c-1 .11-2 0-3 .06h-.06V4.14h2.71L46.74 3H44a12 12 0 0 1 .06-1.35c1 0 2.07-.06 3.06 0M51.76 5a1.81 1.81 0 0 1-1.53.63h-1.41l.19-4h1.61a1.52 1.52 0 0 1 1.38.71A2.88 2.88 0 0 1 51.76 5m1.15.76a4.35 4.35 0 0 0 .31-4A2.3 2.3 0 0 0 51.36.48h-3.7l-.2 4.92-.11 1.28h3a2.85 2.85 0 0 0 2.51-1m2.34-3.62h-1.26c0 1.47-.08 3.1-.21 4.61h1.32zm0-1.63H54v1.23h1.27z" fill="#9a1648"/></svg>