<svg xmlns="http://www.w3.org/2000/svg" width="1315.785" height="232.58" viewBox="0 0 348.135 61.537"><path d="M83.728 61.377c-.388-.087-1.579-.33-2.646-.541-1.067-.21-3.837-1.175-6.155-2.143-4.573-1.91-5.632-1.997-7.14-.58-.443.416-.905 1.287-1.026 1.935-.158.842-.412 1.178-.888 1.178-.638 0-.666-.44-.666-10.407 0-9.786.038-10.407.635-10.407.494 0 .735.484 1.087 2.187.602 2.918 2.042 5.976 4.082 8.669 3.148 4.157 6.704 5.848 12.364 5.88 3.164.02 3.71-.075 5.292-.917 4.563-2.429 6.829-7.606 5.463-12.485-.731-2.61-2.762-4.466-10.555-9.645-3.99-2.652-8.15-5.483-9.244-6.292-7.13-5.273-9.525-9.651-8.452-15.443 1.215-6.553 6.465-11.229 13.7-12.2 3.782-.509 7.105.136 11.32 2.197 3.573 1.748 5.232 1.928 6.528.71.474-.445.956-1.275 1.07-1.844.12-.6.431-1.033.744-1.033.47 0 .538 1.263.538 9.903 0 9.045-.05 9.894-.587 9.79-.405-.079-.721-.768-1.023-2.23C96.17 7.984 90.275 2.86 82.563 4.092c-5.871.938-8.88 3.866-8.887 8.645-.003 1.956 1.504 4.839 3.294 6.303.806.659 4.72 3.375 8.698 6.035 8.414 5.626 12.537 8.763 14.079 10.71 2.61 3.296 3.966 8.204 3.236 11.72-.47 2.267-2.066 5.793-3.432 7.583-1.403 1.839-5.102 4.336-7.81 5.27-2.299.794-6.58 1.337-8.013 1.018zm98.425-.384c-5.526-1.181-11.024-4.27-15.315-8.604-2.056-2.076-2.877-3.257-4.261-6.128-3.696-7.663-4.375-15.572-2.116-24.648 1.915-7.693 7.065-13.863 14.636-17.534 4.572-2.217 7.665-2.902 13.053-2.893 5.07.01 8.244.738 12.473 2.865 3.387 1.703 4.964 1.847 6.24.57.476-.476.866-1.27.866-1.763 0-.64.188-.898.655-.898.754 0 .92 1.696 1.334 13.67.235 6.788.235 6.79-.524 6.79-.58 0-.76-.213-.76-.907 0-1.189-1.545-5.77-2.45-7.266-.391-.646-1.694-2.162-2.895-3.368-7.547-7.579-19.504-7.702-26.935-.276-4.848 4.844-7.511 13.289-7.12 22.577.306 7.3 2.295 12.66 6.273 16.914 2.576 2.753 5.15 4.389 8.966 5.696 2.362.809 3.42.967 6.523.972 6.794.012 11.946-2.152 16.843-7.075 1.6-1.609 3.037-2.925 3.193-2.925.156 0 .466.183.69.406.782.783-4.929 7.087-8.89 9.813-2.232 1.535-6.316 3.413-8.824 4.058-2.655.682-8.356.66-11.655-.046zM.009 59.903c.094-.496.602-.653 2.583-.798 2.853-.21 3.825-.662 4.777-2.223.662-1.085.685-1.99.685-26.171 0-24.18-.023-25.086-.685-26.171-.952-1.561-1.924-2.013-4.777-2.223C.611 2.172.103 2.015.01 1.519-.101.94.67.9 12.264.9c11.9 0 12.373.026 12.373.667 0 .583-.333.684-2.646.8-2.513.128-2.714.202-3.97 1.456L16.7 5.145l-.101 12.342-.102 12.342h28.601v-11.73c0-10.463-.067-11.862-.618-12.957-.98-1.952-2.61-2.83-5.254-2.83-2.011 0-2.241-.073-2.241-.71 0-.7.178-.709 12.259-.617 10.62.08 12.259.163 12.259.622 0 .403-.59.57-2.488.705-2.689.191-3.975.8-5.004 2.37-.577.881-.629 2.739-.715 25.66-.086 23.017-.05 24.794.53 25.92 1 1.948 2.263 2.647 5.143 2.848 1.939.134 2.534.3 2.534.705 0 .459-1.642.542-12.286.622-11.573.087-12.279.057-12.168-.53.096-.5.596-.656 2.585-.802 2.83-.208 3.708-.67 4.732-2.493.698-1.24.733-1.823.733-12.279V33.357H16.524v10.97c0 9.287.085 11.153.56 12.15.834 1.761 2.078 2.428 4.904 2.632 1.984.142 2.49.298 2.584.794.11.579-.664.618-12.282.618S-.1 60.48.01 59.903zm106.186 0c.095-.503.608-.65 2.76-.793 2.88-.193 4.199-.819 4.88-2.315.296-.649.408-7.768.408-25.958 0-22.449-.06-25.165-.57-26.03-.888-1.503-1.865-1.946-4.718-2.14-2.193-.148-2.664-.288-2.765-.82-.117-.614.511-.636 14.46-.51 13.639.125 14.762.183 17.335.897 5.773 1.603 10.147 4.77 12.1 8.763 1.297 2.65 1.6 7.19.67 10.062-1.229 3.803-3.852 6.865-7.141 8.338l-1.457.652 2.661 1.317c2.935 1.452 6.068 4.183 7.393 6.445 1.364 2.327 2.008 6.099 1.554 9.101-1.014 6.704-5.278 10.867-13.208 12.895-2.598.664-3.886.714-18.635.714-14.9 0-15.838-.037-15.727-.618zm28.673-2.393c6.053-1.576 9.648-5.837 9.996-11.845.125-2.16-.004-3.182-.647-5.122-.689-2.08-1.157-2.776-3.306-4.911-3.267-3.247-4.604-3.711-11.388-3.95-2.753-.097-5.414-.074-5.914.051l-.908.228.092 12.604.093 12.604 1.94.407c2.82.592 7.64.56 10.042-.066zm.453-29.531c4.989-1.786 8.528-7.324 8.062-12.614-.657-7.454-6.916-11.819-16.023-11.173-1.685.12-3.42.32-3.857.445l-.793.227V28.37l.793.174c1.73.38 10.329-.031 11.818-.564zm108.83 17.635L229.25 30.708l14.906-14.903L259.06.9h59.62l14.727 14.73c8.1 8.102 14.727 14.889 14.727 15.083 0 .194-6.629 6.98-14.73 15.08l-14.73 14.727h-59.62zm44.264-14.805c-.042-.14-6.625-6.82-14.628-14.845l-14.552-14.59.003 29.485.003 29.485 14.625-14.64c8.044-8.052 14.591-14.755 14.55-14.895zm30.086-.138V1.174l-4.28 4.362a4194.087 4194.087 0 0 1-14.726 14.856l-10.447 10.496 14.637 14.64c8.05 8.052 14.677 14.64 14.727 14.64.049 0 .09-13.274.09-29.497z" fill="#fff" stroke-width=".353"/></svg>