<svg xmlns="http://www.w3.org/2000/svg" width="2941.473" height="1304.722" viewBox="0 0 778.265 345.208"><path d="M514.873 345.141c-4.183-.58-8.052-4.752-11.233-12.115-2.131-4.933-6.489-19.263-8.529-28.045a845.15 845.15 0 0 0-1.747-7.232c-.69-2.814-1.502-6.306-1.803-7.762-.3-1.455-.767-3.518-1.036-4.586-.269-1.067-.965-4.242-1.547-7.055-2.942-14.226-4.227-19.119-5.788-22.04-1.307-2.448-2.944-3.715-4.794-3.71-1.525.006-4.53.874-5.302 1.533a4.58 4.58 0 0 1-1.194.701c-.372.132-.534.4-.387.637.156.252.1.315-.147.163-.374-.231-1.785.307-2.178.831-.097.13-.97.77-1.94 1.424-.97.653-1.844 1.29-1.94 1.414-.363.464-4.562 3.172-4.92 3.172a.364.364 0 0 0-.372.353c0 .194-.238.352-.53.352-.29 0-.529.127-.529.283 0 .155-.674.638-1.499 1.073-2.712 1.43-3.264 1.814-3.166 2.198.053.209-.053.287-.235.174-.183-.113-1.98.63-3.996 1.65-2.015 1.02-4.56 2.241-5.654 2.714-1.095.472-1.912.987-1.816 1.142.096.156-.073.188-.377.071-.303-.116-.748-.063-.988.117-.24.181-1.151.537-2.024.791s-2.223.674-2.999.932c-.776.26-2.443.706-3.704.993-1.261.287-3.087.722-4.057.966-1.385.348-22.231.485-97.19.637-52.485.107-95.57.082-95.747-.055-.271-.212 1.445-10.944 2.64-16.508.187-.873.55-2.699.804-4.057l.463-2.47 91.517-.182c68.794-.137 91.822-.285 92.75-.597.68-.228 2.267-.678 3.528-.999 1.262-.321 2.85-.819 3.528-1.107 2.591-1.097 8.648-4.153 8.76-4.42.066-.153.27-.279.454-.279.341 0 5.257-3.484 7.19-5.096l2.445-2.038c.763-.636 2.747-2.35 4.41-3.808 1.663-1.458 3.658-3.124 4.434-3.702.776-.578 1.49-1.146 1.588-1.262.31-.37 5.472-3.708 6.122-3.957.36-.138.518-.414.372-.65-.144-.234-.1-.315.102-.19.418.258 2.576-.491 2.576-.894 0-.151.286-.275.635-.275.35 0 .786-.131.97-.292.184-.16 1.05-.506 1.923-.769.873-.262 1.746-.586 1.94-.719 1.063-.728 11.465-1.288 11.465-.617 0 .154.24.28.534.28.294 0 .81.143 1.147.317.337.175 1.366.69 2.288 1.146.922.456 1.676.948 1.676 1.094 0 .146.202.265.45.265.476 0 3.375 2.723 4.82 4.528.474.592.963 1.012 1.088.935.125-.077.23.052.234.286.004.234.47 1.219 1.038 2.189.881 1.507 1.552 2.827 2.972 5.846 1.854 3.94 3.847 10.292 6.025 19.201.767 3.135 4.795 22.278 5.27 25.047l.635 3.704c.563 3.295 2.154 11.4 2.493 12.7.177.68.519 2.15.759 3.268.482 2.247.998 2.898 2.036 2.569.925-.294.936-.33 2.751-9.012a4122.87 4122.87 0 0 1 4.692-22.225l1.399-6.526c1.518-7.097 4.758-21.588 5.324-23.812.173-.68.964-4.172 1.757-7.762a2267.014 2267.014 0 0 1 4.285-19.05c.381-1.649.836-3.633 1.01-4.41.173-.775.636-2.76 1.029-4.409.703-2.955 1.154-4.897 3.725-16.051.715-3.105 1.898-8.185 2.63-11.29.73-3.104 1.527-6.596 1.77-7.76.244-1.165.569-2.435.722-2.823.154-.388.468-1.658.697-2.822.229-1.164 1.023-4.656 1.764-7.76 1.206-5.055 4.858-20.427 6.223-26.2.288-1.215.435-2.352.327-2.527-.108-.175-.073-.371.078-.436s.622-1.547 1.046-3.293c.424-1.747 1.03-4.207 1.347-5.469.816-3.252 1.193-4.931 1.425-6.35.11-.679.342-1.552.514-1.94.171-.388.548-1.817.836-3.175.289-1.358.767-3.422 1.064-4.586.296-1.164 1.494-6.085 2.661-10.936 3.47-14.416 12.169-49.952 14.293-58.385 3.035-12.046 6.014-20.122 9.296-25.204.508-.787 1.086-1.687 1.284-2.001 2.46-3.9 6.04-7.191 9.46-8.697 1.566-.689 5.091-.543 6.792.28 1.649.798 4.054 3.014 4.989 4.596.338.572.739 1.04.89 1.04.153 0 .278.209.278.463 0 .255.377 1.247.839 2.205 2.93 6.079 4.388 14.667 5.147 30.317.91 18.748 1.08 22.436 1.422 30.868.201 4.948.518 12.726.705 17.286.187 4.56.503 13.132.702 19.05a3096.7 3096.7 0 0 0 .54 15.17c.207 5.09.766 22.697 1.048 32.984.107 3.88.267 9.04.357 11.465.09 2.426.25 7.823.355 11.995.105 4.172.343 12.823.529 19.226.186 6.403.508 18.944.717 27.87.208 8.925.447 16.566.53 16.98.169.826 1.192 1.252 1.969.818.273-.153 1.605-1.883 2.96-3.845 1.355-1.962 3.37-4.872 4.477-6.467 1.106-1.595 2.853-4.13 3.88-5.634 1.914-2.8 12-16.45 13.265-17.951.387-.46 1.626-1.946 2.754-3.304 3.055-3.679 7.023-7.812 9.544-9.939 1.624-1.37 2.098-1.74 3.293-2.573.679-.473 1.314-.953 1.411-1.068.565-.666 5.526-2.458 7.84-2.831 2.477-.4 3.014-.37 6.056.333 2.965.685 5.078 1.442 7.001 2.509.337.187.84.34 1.117.34.278 0 .558.13.623.289.064.159 1.149.981 2.41 1.827 1.261.847 2.346 1.67 2.41 1.828.066.16.33.29.589.29.259 0 .523.127.588.284.064.157.911.822 1.881 1.478s3.272 2.4 5.116 3.877c1.843 1.476 3.907 3.066 4.586 3.532.679.467 1.314.936 1.41 1.043.515.566 4.58 3.455 8.467 6.019 4.391 2.894 9.872 5.752 13.23 6.897 2.775.947 8.831 2.055 9.607 1.757.246-.094.447-.03.447.142 0 .507 4.295.72 18.807.933l13.692.2-.233 1.059a76.808 76.808 0 0 0-.55 2.97c-.433 2.594-.856 4.904-1.74 9.496-.41 2.134-.84 4.513-.955 5.286-.376 2.534-.456 2.558-9.137 2.798-6.22.172-19.671-.467-25-1.188-7.733-1.045-9.86-1.605-20.108-5.295-2.745-.988-14.03-6.533-15.938-7.83-.811-.552-1.57-1.003-1.688-1.003-.268 0-7.711-4.966-7.95-5.304-.38-.537-5.9-3.955-8.092-5.01-2.077-.999-2.64-1.112-5.471-1.101-2.074.008-3.203.152-3.293.422-.075.225-.295.41-.489.41-.682 0-3.313 2.454-4.986 4.653-3.242 4.261-5.539 7.467-5.539 7.73 0 .146-.205.476-.455.732-.413.422-3.778 5.289-9.192 13.292-1.097 1.621-1.994 3.11-1.994 3.31 0 .2-.282.619-.627.933-.92.837-10.78 15.617-10.78 16.16 0 .254-.172.462-.382.462-.21 0-.817.69-1.35 1.532-1.174 1.86-5.212 6.092-7.146 7.493-.776.561-1.65 1.274-1.94 1.583-.291.31-.847.656-1.235.771-.388.115-1.716.632-2.951 1.148-1.84.77-2.784.938-5.222.93-2.73-.007-3.163-.11-5.217-1.24-1.233-.677-2.336-1.136-2.451-1.02-.116.115-.21.01-.21-.231 0-.243-.547-1.108-1.215-1.923-1.426-1.74-3.245-5.282-3.898-7.59-.65-2.295-1.687-9.997-2.285-16.976-.208-2.425-.532-6.156-.72-8.29-.323-3.666-.59-7.933-1.402-22.401-.561-9.99-1.615-33.6-1.968-44.098-.114-3.395-.353-10.38-.53-15.522-.308-8.936-.593-18.99-1.391-49.036-.198-7.47-.461-20.21-.584-28.31-.122-8.1-.353-14.729-.512-14.729-.16 0-.203-.225-.098-.501.312-.81-.516-1.968-1.407-1.968-1.674 0-1.84.462-4.796 13.405-.598 2.62-1.233 5.319-1.411 5.998-.326 1.243-.867 3.602-2.832 12.347-.588 2.62-1.54 6.747-2.114 9.172-.575 2.425-1.528 6.553-2.12 9.172-.59 2.62-1.229 5.25-1.418 5.846-.19.596-.344 1.477-.344 1.958 0 .481-.132 1.025-.293 1.21-.16.184-.493 1.446-.739 2.804-.245 1.359-.593 2.946-.772 3.528-.18.582-.965 3.837-1.746 7.232a5690.17 5690.17 0 0 1-4.947 21.343c-1.82 7.788-2.016 8.648-2.21 9.701-.09.486-.404 1.835-.699 3a509.336 509.336 0 0 0-1.604 6.702c-.588 2.522-1.72 7.285-2.517 10.583-.797 3.299-1.692 7.188-1.988 8.643-.581 2.849-.74 3.529-1.887 8.114-.413 1.65-.901 3.713-1.086 4.586-.184.873-.719 3.175-1.188 5.116-.469 1.94-1.579 6.623-2.466 10.406-.887 3.784-2.177 9.26-2.866 12.171-.69 2.91-1.554 6.562-1.921 8.114-1.578 6.672-3.568 14.913-3.887 16.093-.19.701-.345 1.693-.345 2.204 0 .511-.124.93-.276.93-.152 0-.485 1.15-.74 2.557-.413 2.275-1.143 5.342-2.162 9.084-.185.68-.744 2.981-1.244 5.116-.943 4.032-7.27 29.364-8.106 32.455-1.095 4.047-2.384 8.194-2.907 9.349-.308.679-.931 2.183-1.386 3.342-.92 2.341-2.93 5.83-3.362 5.83-.153 0-.278.304-.278.676 0 .372-.12.73-.265.794-.145.065-.729.802-1.297 1.638-2.115 3.113-6.302 6.635-9.198 7.736-1.26.48-4.166.77-5.644.565zM236.53 220.254c-5.162-1.853-8.41-4.81-9.661-8.796-1.282-4.083-1.235-4.58 2.204-23.423l3.604-19.756c1.22-6.69 3.75-21.135 4.385-25.047.173-1.067.633-3.687 1.022-5.82.39-2.135 1.267-7.136 1.95-11.113 1.493-8.683 1.887-10.911 2.344-13.23.303-1.542 1.791-9.993 4.615-26.208.727-4.178.9-4.709 1.583-4.88 1.755-.441 11.268.276 11.767.886.097.12.89.596 1.763 1.06 2.336 1.24 3.662 2.642 4.897 5.174.935 1.917 1.1 2.658 1.1 4.911 0 1.46.13 2.653.288 2.653.223 0 2.237-2.16 3.593-3.855 1.294-1.617 9.393-7.434 10.35-7.434.29 0 .58-.119.645-.264.357-.803 6.156-3 10.348-3.92 8.787-1.928 14.15-1.941 21.681-.054 4.44 1.113 10.479 4.617 14.599 8.471 1.236 1.156 2.363 1.987 2.504 1.845.141-.141.219-.098.172.096-.155.64.445 1.588.857 1.352.222-.127.292-.106.155.045-.137.152.45 1.275 1.302 2.495 6.24 8.927 9.01 21.16 7.824 34.56-.275 3.105-.43 5.764-.346 5.91.085.145.02.264-.143.264-.164 0-.501 1.151-.75 2.558-.248 1.407-.758 3.51-1.133 4.674-.374 1.164-.716 2.554-.76 3.087-.043.534-.19.97-.327.97-.136 0-.44.596-.673 1.323-.432 1.347-4.519 9.644-4.908 9.966-.117.097-.763 1.05-1.435 2.117-1.532 2.433-3.638 4.97-6.869 8.275-2.79 2.856-8.846 7.242-11.994 8.69-.97.446-1.843.9-1.94 1.009-.097.109-.812.406-1.588.66s-1.808.632-2.293.84c-1.731.738-2.307.937-3.351 1.153-.583.12-1.694.38-2.47.577-3.508.893-5.343 1.096-11.289 1.249-5.398.138-6.869.057-9.812-.542-1.905-.388-3.717-.607-4.027-.488-.318.122-.473.068-.355-.123.116-.186-.613-.624-1.617-.973-1.005-.349-3.058-1.25-4.562-2.001-1.503-.752-2.734-1.301-2.734-1.221 0 .08-.595-.402-1.323-1.07-.727-.668-1.456-1.216-1.619-1.217-.163 0-1.67-1.413-3.351-3.138-3.361-3.45-3.933-4.106-3.945-4.522-.004-.153-.288-.643-.63-1.087l-.622-.808-.428 2.043c-.554 2.639-2.06 10.56-2.569 13.508l-.7 4.057c-.166.97-.636 3.51-1.044 5.644a852.906 852.906 0 0 0-1.06 5.645l-1.022 5.644c-.386 2.134-1.199 6.5-1.806 9.701-.607 3.202-1.191 6.417-1.298 7.144l-.195 1.323-3.746-.041c-2.263-.025-4.305-.242-5.157-.548zm55.345-53.409c4.033-1.043 6.19-1.969 9.037-3.878 4.38-2.938 9.456-9.087 11.925-14.443 2.847-6.176 3.577-8.67 5.006-17.087.89-5.244-.094-15.258-1.908-19.431-2.816-6.476-4.189-8.327-8.173-11.023-3.872-2.62-9.123-3.834-13.978-3.23-3.3.41-6.26 1.067-6.49 1.441-.1.162-.495.293-.878.293s-.787.238-.898.528c-.111.29-.33.448-.486.351-.464-.286-1.421.223-1.173.624.14.226.057.264-.212.098-.258-.16-.861.038-1.452.475-.555.41-1.14.747-1.297.747-.66 0-6.239 5.557-8.223 8.19-2.939 3.9-6.688 11.505-6.688 13.566 0 .452-.141.821-.314.821-.173 0-.4.516-.504 1.147-.104.63-.37 1.86-.591 2.734-1.204 4.762-1.326 16.157-.213 19.932.286.97.667 2.244.847 2.83.787 2.567 3.206 6.76 5.079 8.804 4.418 4.821 9.065 6.774 16.293 6.848 2.111.021 4.493-.13 5.291-.337zm-135.33 16.406c-.108-.11-1.182-.337-2.386-.508-2.59-.366-5.2-1.108-8.822-2.508-1.455-.563-2.844-1.023-3.087-1.022-.242.001-.44-.131-.44-.294 0-.164-.774-.718-1.72-1.232-.944-.515-1.916-1.175-2.16-1.468-.242-.292-.643-.532-.891-.532-.429 0-6.519-5.852-6.519-6.263 0-.108-.38-.696-.846-1.306-1.065-1.396-3.168-5.564-3.746-7.424-.241-.776-.555-1.57-.697-1.763-1.147-1.567-1.173-13.92-.042-20.109.98-5.367 2.836-15.842 3.094-17.462.107-.68.586-3.378 1.064-5.998 1.499-8.224 2.255-12.455 2.602-14.552 1.09-6.592 1.113-6.728 2.415-13.985.397-2.21.648-4.139.558-4.284-.314-.507.97-.692 4.794-.692 5.038 0 8.528.882 11.32 2.863.515.365 1.199.664 1.52.664.321 0 .493.146.383.325-.11.178.045.569.344.868.3.3 1.015 1.44 1.59 2.534.896 1.703 1.047 2.379 1.047 4.688 0 1.484-.227 3.888-.505 5.344-.718 3.768-3.922 22.467-4.805 28.046-.215 1.358-.462 2.786-.55 3.175-.087.388-.463 2.451-.834 4.586-.372 2.134-.941 5.309-1.266 7.055-.743 3.992-.846 10.477-.193 12.171.97 2.52 1.444 3.423 2.493 4.742.59.744 1.074 1.246 1.074 1.115 0-.13.458.284 1.018.922 1.188 1.354 4.685 3.16 7.449 3.847 3.255.81 11.174.61 14.993-.378 10.136-2.623 15.43-9.137 17.648-21.713.308-1.746.703-3.969.876-4.94.353-1.967.918-5.218 3.496-20.107.974-5.627 2.1-12.057 2.502-14.288.402-2.231 1.36-7.706 2.13-12.167.77-4.46 1.488-8.39 1.597-8.731.174-.547.696-.621 4.39-.621 4.683 0 7.286.525 9.819 1.98a72.091 72.091 0 0 0 2.345 1.3c.747.38 2.074 2.275 3.31 4.731 1.057 2.103.974 5.457-.315 12.678-.584 3.27-1.542 8.644-2.128 11.943-.587 3.298-1.215 6.711-1.396 7.584-.18.873-.98 5.16-1.776 9.525-2.316 12.709-3.128 16.548-4.242 20.04-1.292 4.047-4.33 10.26-6.557 13.407-1.817 2.567-8.403 9.24-9.12 9.24-.245 0-.655.254-.914.565-.258.312-.843.708-1.299.882-.456.173-.742.456-.636.629.107.172-.002.295-.243.273-.24-.021-1.31.382-2.377.897-4.99 2.407-9.202 3.79-14.288 4.692-1.746.31-4.035.714-5.086.898-2.027.356-15.649.473-15.984.138zm230.445-.497c-2.978-.622-5.772-1.462-6.963-2.093a160.35 160.35 0 0 0-2.562-1.288c-3.504-1.733-6.123-3.712-9.613-7.265-1.892-1.926-3.44-3.643-3.44-3.816 0-.174-.199-.525-.441-.781-.97-1.026-2.402-3.417-3.447-5.758-.606-1.358-1.253-2.751-1.438-3.096-.658-1.229-2.377-8.607-2.807-12.048-.464-3.721-.234-13.917.36-15.9.174-.583.505-2.17.735-3.528.793-4.68 3.473-13.276 4.215-13.523.195-.065.354-.4.354-.745 0-1.045 4.215-8.982 5.912-11.132.154-.194 1.066-1.385 2.027-2.646.961-1.261 2.069-2.643 2.46-3.07.392-.427.888-.983 1.101-1.235.214-.252.852-.855 1.418-1.34L378 90.802c3.955-3.385 9.52-6.514 14.634-8.23 1.261-.424 2.61-.907 2.999-1.075.388-.168 1.182-.38 1.764-.47.582-.091 2.487-.417 4.233-.724 3.678-.647 11.197-.745 14.6-.19 5.17.843 11.33 2.899 13.853 4.623.515.352 1.11.64 1.323.64.213 0 .386.16.386.353 0 .194.201.353.447.353.245 0 1.417.786 2.604 1.746s2.282 1.636 2.433 1.5c.15-.136.171-.067.045.154-.126.22.032.617.35.881.32.265 1.328 1.469 2.242 2.675.914 1.207 1.77 2.085 1.904 1.952.134-.134.148.005.032.307-.116.302.007.731.275.953.398.33.56-.022.908-1.972a839.29 839.29 0 0 1 1.382-7.402l.96-5.027h21.773l-.196.793c-.108.437-.529 2.7-.936 5.027-.407 2.329-1.041 5.9-1.409 7.938-.368 2.037-1.246 7.197-1.951 11.465-.706 4.269-1.417 8.317-1.58 8.996-.163.68-.564 2.822-.89 4.763-.325 1.94-.815 4.647-1.086 6.014-.272 1.368-.72 3.908-.995 5.645a488.69 488.69 0 0 1-1.254 7.39 602.042 602.042 0 0 0-1.07 6.174 440.784 440.784 0 0 1-1.04 5.91l-1.445 7.937a429.74 429.74 0 0 0-1.723 10.054c-.182 1.115-.59 3.457-.908 5.203-.318 1.747-.69 3.81-.826 4.586l-.249 1.412-4.448.098c-4.984.11-6.886-.362-10.071-2.503-3.456-2.323-5.777-7.044-5.236-10.65.192-1.278.136-1.586-.289-1.586-.29 0-.63.325-.756.722-.126.396-1.748 2.262-3.605 4.145-1.856 1.883-3.347 3.554-3.313 3.714.033.16-.071.21-.234.109-.162-.1-1.079.408-2.037 1.13-.958.72-2.655 1.755-3.77 2.298-1.116.543-2.029 1.143-2.029 1.335 0 .19-.147.256-.326.145-.18-.11-.775-.02-1.323.2-.548.22-1.314.53-1.702.687-1.039.422-4.87 1.303-8.29 1.906-4.08.72-11.344.648-15.17-.152zm20.05-18.015c.065-.19.24-.27.39-.177.433.268 4.696-.906 5.665-1.56.485-.327 1.462-.861 2.17-1.187 7.021-3.225 15.091-14.505 17.714-24.757 1.367-5.344 1.635-7.497 1.627-13.052-.006-4.266-.17-6.334-.671-8.467-1.307-5.56-3.53-10.28-6.049-12.841-4.553-4.629-9.754-6.738-16.611-6.738-1.979 0-4.085.145-4.681.323-6.904 2.06-9.437 3.423-13.204 7.106-2.237 2.188-3.6 3.89-3.389 4.233.113.183-.004.337-.256.343-.524.013-1.002.64-2.904 3.802-.736 1.224-1.245 2.32-1.13 2.435.115.115-.018.383-.295.596-.904.694-3.214 7.414-4.287 12.472-1.561 7.36-1.025 18.623 1.141 23.994 1.626 4.028 2.462 5.393 5.065 8.273 2.346 2.595 7.105 5.112 10.767 5.694 1.718.273 8.81-.118 8.938-.492zM0 181.067c.008-.306.689-4.175 1.756-9.966 1.382-7.507 2.15-11.786 3.229-17.991 1.546-8.895 1.647-9.48 2.03-11.818.191-1.165.843-4.736 1.45-7.938a988.362 988.362 0 0 0 2.46-13.758c.746-4.366 1.442-8.335 1.546-8.82.17-.794.668-3.587 2.173-12.17.272-1.553.892-4.966 1.377-7.585.486-2.62 1.135-6.27 1.443-8.114.308-1.843.877-5.098 1.264-7.232.387-2.134.846-4.754 1.021-5.82.303-1.852.552-3.243 2.618-14.641a807.195 807.195 0 0 0 1.458-8.29c.31-1.844.711-3.72.893-4.171l.33-.82 28.836.147c30.234.154 29.241.107 36.068 1.692.873.203 1.905.4 2.293.437.388.038.785.171.882.296.31.4 4.664 2.059 4.946 1.885.15-.092.35.035.445.283.095.248.933.842 1.862 1.32 3.96 2.037 9.258 8.4 11.106 13.339 2.127 5.684 2.765 14.122 1.551 20.519-.845 4.454-3.505 10.64-4.829 11.228-.145.064-.265.277-.265.473 0 1.272-5.727 6.903-9.877 9.71-1.976 1.337-6.353 3.634-6.925 3.634-.235 0-.876.232-1.425.515-.55.283-1.435.604-1.969.712-1.496.304-1.162.764 1.058 1.457 1.996.623 5.588 2.34 6.244 2.984.185.18.552.329.817.329.646 0 6.772 6.159 7.912 7.955 2.453 3.865 3.813 7.699 4.543 12.811.668 4.68-.277 11.469-2.389 17.158-3.34 8.998-9.144 16.284-17.344 21.772-1.078.72-2.442 1.5-3.032 1.733-.59.233-1.31.615-1.601.85-.291.235-2.196 1.078-4.234 1.874-10.115 3.952-13.566 4.24-51.24 4.266-15.668.01-28.485-.1-28.481-.245zm59.084-16.46c5.07-.948 8.14-2.213 12.523-5.162 3.213-2.161 7.71-6.972 7.236-7.74-.128-.207-.062-.333.147-.28.565.145 2.148-2.787 3.415-6.325.982-2.742 1.122-12.883.17-12.294-.153.094-.29-.283-.306-.838-.03-1.017-1.552-4.372-2.345-5.165-.235-.234-.82-.88-1.3-1.436-1.089-1.256-3.673-3.302-4.174-3.302-.205 0-.373-.14-.373-.311 0-.172-.278-.396-.618-.499-.34-.102-1.57-.538-2.734-.968-4.152-1.534-6.58-1.735-21.007-1.743l-13.6-.007-.783 4.322a863.04 863.04 0 0 0-1.146 6.438c-.198 1.164-.516 2.91-.706 3.88-.859 4.395-2.57 14.055-5.282 29.81-.184 1.068-.335 2.084-.336 2.26-.004.547 27.93-.026 31.219-.64zm-3.528-62.792c12.259-.156 12.365-.164 14.817-1.078 8.233-3.07 13.26-8.095 16.197-16.194 1.818-5.011 1.934-10.576.324-15.534-.57-1.754-2.014-4.196-2.308-3.902-.088.088-.161-.06-.161-.33 0-1.19-3.474-4.249-6.214-5.471-4.081-1.821-6.93-2.125-20.09-2.14l-11.195-.012-.16.794a50.95 50.95 0 0 0-.345 2.028c-.101.68-.518 3.06-.927 5.292-.408 2.231-1.2 6.676-1.761 9.878a3881.475 3881.475 0 0 1-2.664 15.081c-.304 1.698-.689 3.96-.855 5.027a82.214 82.214 0 0 1-.678 3.704c-.294 1.38-.322 2.92-.058 3.204.014.016.86-.02 1.879-.08 1.018-.06 7.408-.18 14.199-.267z" fill="#fff" stroke-width=".353"/></svg>