<svg id="Слой_1" data-name="Слой 1" xmlns="http://www.w3.org/2000/svg" viewBox="0 0 58.36 12.42"><defs><style>.cls-1{fill:#9a1648}</style></defs><path class="cls-1" d="M5.43 5.09a.46.46 0 0 1-.24.41l-.53.41-.77.61v-1l.77-.61.46-.35c.16-.13.31-.1.31.07zm0 3.16c0 .2-.07.28-.24.41l-.53.42-.77.6v-1l.77-.61.46-.35c.16-.13.31-.1.31.07zm-.77-5.5l-.9.71-.6.47v2.16l.31-.24v1l-.31.24v2.17L3.47 9v1l-.31.25v2.16l.6-.47.9-.71 1.2-.94V6.68a.55.55 0 0 0-.23-.39.59.59 0 0 0 .23-.5v-4zM4.36 2.35v-.77l-.6.48-.18.14v-.81l.18-.14.6-.48V0l-.6.48-.6.48v2.36l.6-.48.6-.49zM1.5 0v.77l.39.31v.85l-.15-.12v.77l.36.3.37.29V2.4l-.16-.13v-.85l.39.31V.96L2.1.48 1.5 0zM0 1.81v2.16l2.1 1.66.25.19-.25.25-.31.31L0 4.98v2.16l.57.44-.57.56v2.16l2.1 1.65.6.47v-2.16l-.6-.47L.35 8.41l.57-.56 1.18.94.6.47V7.1l-.57-.45.57-.56V3.93l-.6-.47L0 1.81zM9.28 2.87l-.31 1.11h2.73L8.72 8.87v1.05h4.17l.43-1.05h-2.99l3-4.91V2.87H9.28zM14.4 4.39a.69.69 0 1 0-.69-.69.69.69 0 0 0 .69.69M13.86 4.78h1.11v5.14h-1.11zM57.54 4.78h.83v5.14h-.83zM16 9.91V4.8h.92v.58a1.73 1.73 0 0 1 .76-.47 1.86 1.86 0 0 1 .83 0v1h-.72c-.29 0-.83.4-.83.79v3.21zM22.23 9.92V6.39a1.53 1.53 0 0 0-1.57-1.75 6.52 6.52 0 0 0-1.38.18l-.25 1a6.51 6.51 0 0 1 1.35-.24.65.65 0 0 1 .69.6v.52a5.74 5.74 0 0 0-1.55.17 1.67 1.67 0 0 0-1.31 1.78c0 1.15 1 1.37 1.66 1.37a1.81 1.81 0 0 0 1.06-.34h.19v.24zM21 8.6c0 .2-.28.53-.89.53a.75.75 0 0 1-.83-.72.93.93 0 0 1 .88-.93H21zM26.57 9.92V6.39A1.53 1.53 0 0 0 25 4.64a6.52 6.52 0 0 0-1.38.18l-.25 1a6.51 6.51 0 0 1 1.35-.24.65.65 0 0 1 .69.6v.52a5.74 5.74 0 0 0-1.55.17 1.67 1.67 0 0 0-1.31 1.78c0 1.15 1 1.37 1.66 1.37a1.81 1.81 0 0 0 1.06-.34h.19v.24zM25.38 8.6c0 .2-.28.53-.89.53a.75.75 0 0 1-.83-.72.93.93 0 0 1 .88-.93h.84zM27.46 3.43h1.07v1.39h1.23l-.27.79h-.94v3c0 .38.07.6.43.6h.64v.75h-1.14a1 1 0 0 1-1.05-1V5.59h-.52V4.8h.55zM35.83 4.51c0-1-1-1.6-2.12-1.6H31.5v7h3a2 2 0 0 0 1.65-2 1.83 1.83 0 0 0-1.27-1.75 2.25 2.25 0 0 0 1-1.65M32.4 6.67h1.77A1.2 1.2 0 0 1 35.28 8 1.18 1.18 0 0 1 34 9.11h-1.6zm2.6-1.9a1.08 1.08 0 0 1-1.1 1.09h-1.47V3.7h1.34A1.11 1.11 0 0 1 35 4.77M40.19 10V6.16a1.51 1.51 0 0 0-1.56-1.5A4.62 4.62 0 0 0 37 5l-.09.78a4.59 4.59 0 0 1 1.27-.43c.76-.15 1.17.29 1.17.63v.72h-1.18a1.72 1.72 0 0 0-1.79 1.79 1.59 1.59 0 0 0 1.8 1.51 2.52 2.52 0 0 0 1.24-.4v.4zm-.85-1.93a1.19 1.19 0 0 1-1.21 1.34c-.94 0-1-.6-1-1.05a1.17 1.17 0 0 1 1.37-1.13h.84zM53 10V6.16a1.51 1.51 0 0 0-1.56-1.5 4.62 4.62 0 0 0-1.66.34l-.09.78A4.59 4.59 0 0 1 51 5.39c.76-.15 1.17.29 1.17.63v.68h-1.23a1.72 1.72 0 0 0-1.79 1.79A1.59 1.59 0 0 0 51 10a2.52 2.52 0 0 0 1.24-.4v.4zm-.85-1.93a1.19 1.19 0 0 1-1.25 1.34c-.94 0-1-.6-1-1.05a1.17 1.17 0 0 1 1.34-1.13h.84zM40.73 9.94h.87V6.42c0-.32.6-.83 1.28-.83s.69.45.69.69v3.66h.92V6A1.52 1.52 0 0 0 43 4.64a2 2 0 0 0-1.47.66v-.68l-.83.18z"/><path class="cls-1" d="M45.06 2.9h.99v3.78h.2l1.69-2.15h1.24l-2.2 2.42 2.43 2.93h-1.34l-1.82-2.67h-.22v2.72h-.97V2.9zM56.57 5.69l.18-.61a3.39 3.39 0 0 0-1.47-.37 1.5 1.5 0 0 0-1.62 1.37 1.6 1.6 0 0 0 1.46 1.61c.92.22 1.1.5 1.1.77s-.27.76-1 .76a2.8 2.8 0 0 1-1.39-.4l-.25.68a3.66 3.66 0 0 0 1.74.45 1.78 1.78 0 0 0 1.78-1.6c0-.76-.82-1.28-1.51-1.42s-1-.44-1-.86.5-.63 1-.63a3.51 3.51 0 0 1 1.07.25"/></svg>