<svg xmlns="http://www.w3.org/2000/svg" width="1706.667" height="248.079" viewBox="0 0 451.556 65.638"><path d="M0 63.168v-2.47h27.537c21.934 0 27.485.09 27.278.441-.142.243-.955 1.354-1.805 2.47l-1.546 2.028H0zm59.32 2.135c.068-.204 6.606-9.34 14.529-20.302l14.405-19.933 18.756.005c19.81.005 20.397.051 20.623 1.612.067.462-1.605 3.132-4.674 7.468-5.08 7.176-5.557 8.275-3.874 8.915.558.212 10.586.344 26.106.344 13.86 0 25.2.132 25.2.292 0 .596-5.596 7.006-7.787 8.92-7.256 6.342-15.606 10.532-24.629 12.362-2.697.547-78.835.853-78.655.316zm109.014-.01c.064-.188 3.607-5.189 7.873-11.112l7.756-10.769h20.769c17.858 0 20.741.071 20.575.505-.233.608-14.135 19.798-15.16 20.927l-.72.793h-20.605c-13.222 0-20.564-.123-20.488-.343zm59.913.072c0-.15 3.536-5.11 7.857-11.024l7.857-10.752 20.757-.091c17.185-.076 20.726-.01 20.576.38-.18.468-11.316 15.874-14.263 19.731l-1.55 2.029h-20.617c-11.34 0-20.617-.123-20.617-.273zm77.272-.14c-4.054-.58-8.064-2.183-10.64-4.254-.314-.253-.989-1.075-1.499-1.827-.754-1.111-.926-1.768-.92-3.522.01-2.544.727-4.069 4.226-8.98l2.293-3.218 47.184-.006c25.951-.003 47.18.113 47.173.259-.006.145-3.547 5.106-7.87 11.024l-7.858 10.76-34.905.045c-19.781.026-35.892-.095-37.184-.28zm79.714.033c0-.209.724-1.32 1.608-2.47l1.609-2.09h63.106v4.94h-33.162c-23.432 0-33.16-.112-33.16-.38zM0 54.525v-2.646h30.515c21.454 0 30.516.112 30.516.378 0 .208-.729 1.398-1.619 2.646l-1.618 2.268H0zm391.23 2.44c0-.112.755-1.297 1.676-2.634l1.676-2.43 28.487-.01 28.487-.012v5.292h-30.163c-16.59 0-30.162-.092-30.162-.205zM0 45.883v-2.47h33.69c18.53 0 33.69.097 33.69.215s-.744 1.23-1.655 2.47l-1.656 2.254H0zm397.58 2.296c0-.096.744-1.207 1.652-2.47l1.652-2.296h50.672v4.94h-26.988c-14.843 0-26.987-.079-26.987-.174zm-258.494-9.599c-1.152-.224-1.878-1.41-1.49-2.432.173-.456 1.729-2.778 3.456-5.16 3.409-4.702 6.056-8.69 6.056-9.124 0-.15-.25-.522-.554-.827-.498-.497-4.698-.554-40.96-.554-33.307 0-40.374-.082-40.227-.465.098-.256 3.322-4.865 7.164-10.241L79.516 0l44.291.103c44.188.102 44.298.104 46.979.866 4.376 1.243 7.269 2.836 9.9 5.453 2.52 2.507 3.746 4.556 4.71 7.873.777 2.672.565 6.401-.501 8.833-.425.97-3.03 4.86-5.786 8.643l-5.013 6.879-17.11.042c-9.41.023-17.465-.028-17.9-.113zm48.298-.038c.064-.157 6.37-8.888 14.011-19.403L215.29.021h20.787c16.53 0 20.735.09 20.532.44-.14.243-3.642 5.153-7.782 10.91-4.14 5.758-7.527 10.56-7.527 10.672 0 .112 4.033.203 8.963.203h8.963l7.995-11.113L275.216.021h20.789c11.434 0 20.79.095 20.79.212 0 .117-6.231 8.848-13.847 19.401L289.1 38.822l-50.917.002c-28.005.001-50.865-.126-50.8-.283zm115.192-.191c.156-.266 6.47-8.998 14.031-19.406L330.355.021h21.971c12.084 0 21.968.119 21.964.264-.004.146-6.244 8.837-13.865 19.315l-13.858 19.05-22.137.09c-18.636.077-22.093.015-21.854-.39z" fill="#fff" stroke-width=".353"/></svg>