<svg xmlns="http://www.w3.org/2000/svg" width="1955.274" height="270" viewBox="0 0 517.333 71.437"><path d="M0 35.719V0h74.613V71.437H0zm58.603 11.254c7.915-10.042 8.713-11.143 8.346-11.522-.224-.23-4.157-5.2-8.74-11.044l-8.335-10.626-19.661-.011c-15.664-.01-19.62.056-19.457.319.113.182 3.94 5.072 8.504 10.867 4.564 5.795 8.24 10.677 8.167 10.848-.073.171-4.011 5.221-8.752 11.221-4.742 6-8.62 10.972-8.62 11.048 0 .076 8.953.108 19.897.07l19.898-.067zm58.21 13.34c-8.655-1.344-16.323-6.998-19.854-14.64-1.546-3.347-2.074-5.902-2.058-9.954.017-4.19.529-6.51 2.214-10.035 1.418-2.966 2.935-5.042 5.391-7.374 2.32-2.204 4.113-3.417 7.15-4.838 3.427-1.604 5.808-2.137 10.2-2.282 4.527-.15 7.497.341 11.215 1.857 2.264.924 6.878 3.758 6.724 4.131-.044.107-1.57 1.631-3.393 3.388l-3.314 3.195-.684-.499c-2.482-1.808-6.018-2.881-9.49-2.881-4.668 0-8.007 1.369-11.252 4.614-2.386 2.386-3.617 4.568-4.243 7.523-1.654 7.804 2.813 15.49 10.469 18.006 4.507 1.483 9.834.756 14.158-1.93l1.061-.66 3.429 3.243 3.428 3.243-1.699 1.25c-2.308 1.7-5.642 3.246-8.704 4.039-2.868.742-8.005 1.031-10.747.605zm30.56-24.462V12.435h9.79v46.832h-9.79zm40.216 9.523l-8.334-13.892-.068 13.76-.069 13.76h-9.785V12.171h9.427l8.582 14.946c4.72 8.22 8.656 14.947 8.747 14.949.09.002 3.996-6.724 8.678-14.946l8.512-14.95h9.5v46.832h-9.785l-.068-13.813-.069-13.812-8.314 13.945c-4.573 7.67-8.384 13.945-8.468 13.945-.084 0-3.903-6.252-8.486-13.893zm46.832-9.506V12.435l11.178.005c8.736.004 11.574.089 12.988.388 6.597 1.398 10.502 6.06 10.529 12.572.015 3.617-1.42 6.708-4.037 8.7-.692.526-1.266 1.017-1.274 1.09-.008.073.512.465 1.155.871 3.127 1.976 4.91 5.455 4.908 9.58-.003 6.484-3.59 11.191-9.915 13.008-1.371.393-3.218.469-13.56.554l-11.972.098zm21.883 14.534c4.335-1.288 5.124-7.39 1.266-9.788l-1.278-.794-6.04-.084-6.042-.084V50.8h5.376c4.018 0 5.715-.1 6.718-.398zm-.981-19.466c1.572-.36 2.752-1.195 3.454-2.443.83-1.477.663-4.221-.337-5.532-1.339-1.755-2.02-1.917-8.475-2.007l-5.755-.08V31.22l4.961-.006c2.729-.004 5.497-.13 6.152-.279zm50.403 27.896c-8.969-1.411-16.1-6.642-19.155-14.053-1.457-3.532-1.741-5.119-1.741-9.722 0-5.14.34-6.675 2.415-10.914 2.79-5.7 7.638-9.783 13.994-11.787 8.322-2.624 18.546-.98 24.1 3.875l1.163 1.017-1.787 1.66-1.788 1.661-1.178-1.037c-1.431-1.26-4.825-2.96-7.16-3.587-2.384-.64-8.19-.623-10.567.03-3.732 1.028-6.715 2.826-9.152 5.516-5.625 6.209-6.619 16.254-2.368 23.93 1.516 2.737 4.754 5.82 7.553 7.193 3.504 1.718 5.014 2.026 9.772 1.998 3.52-.021 4.457-.12 6.615-.702 1.382-.372 3.317-1.041 4.3-1.486l1.785-.808V36.248H311.15V32.015h16.14V54.48l-1.919.907c-2.402 1.137-6.262 2.377-9.194 2.955-2.182.43-8.845.743-10.45.49zm96.308-.011c-9.223-1.184-16.893-7.168-19.757-15.417-1.315-3.787-1.698-9.62-.884-13.487 2.038-9.69 9.427-16.63 19.592-18.402 9.905-1.727 20.055 2.24 25.216 9.856 2.84 4.19 4.04 8.26 4.04 13.686 0 7.024-2.253 12.53-7.04 17.198-3.372 3.289-8.62 5.813-13.447 6.467-1.968.266-6.01.318-7.72.099zm9.79-4.951c4.995-1.617 8.617-4.643 10.97-9.168 1.67-3.209 2.206-5.551 2.206-9.645 0-4.106-.53-6.413-2.238-9.733-1.618-3.145-4.827-6.324-7.895-7.82-3.354-1.636-5.072-2.008-9.26-2.008-4.186 0-5.903.371-9.261 2.005-1.823.887-2.683 1.53-4.54 3.399-1.904 1.917-2.493 2.724-3.496 4.791-1.668 3.439-2.114 5.456-2.097 9.499.016 3.961.578 6.385 2.205 9.512 2.264 4.351 5.917 7.49 10.51 9.028 2.554.855 3.893 1.02 7.472.919 2.66-.076 3.722-.228 5.424-.78zm39.555 4.739c-2.548-.574-3.898-1.135-5.908-2.456-2.117-1.393-3.62-3.177-4.839-5.75-1.851-3.906-1.794-3.255-1.89-21.63l-.085-16.602h4.785l.004 15.412c.005 16.874.053 17.518 1.56 20.74 1.95 4.164 5.875 6.446 11.093 6.446 4.707 0 8.8-2.338 10.683-6.103 1.641-3.28 1.628-3.119 1.73-20.554l.095-15.941H473.368l-.089 16.47-.089 16.47-.736 2.376c-.98 3.166-1.826 4.664-3.846 6.814-1.807 1.923-4.123 3.284-6.91 4.063-2.11.59-8.148.733-10.32.245zM340.52 34.898V11.852l10.65.121c8.84.1 10.91.196 12.191.559 6.749 1.913 10.398 7.405 9.437 14.204-.685 4.852-3.667 8.258-8.664 9.893-.764.25-1.39.523-1.39.605 0 .083 2.471 4.677 5.49 10.21 3.02 5.532 5.532 10.162 5.582 10.288.05.126-1.258.196-2.907.154l-3-.075-5.396-10.12-5.397-10.12H345.546V57.944H340.519V34.898zm19.55-1.83c3.341-.434 5.717-1.914 6.977-4.347.771-1.49.955-5.137.35-6.959-.622-1.872-1.982-3.33-4.061-4.355l-1.769-.87-8.01-.084-8.01-.084v8.308c0 4.57.08 8.387.176 8.484.271.27 12.135.193 14.346-.094zm124.912 1.83V11.85l10.385.122c11.2.132 11.783.198 14.915 1.68 1.746.826 4.37 3.194 5.302 4.785 1.597 2.725 2.196 7.239 1.398 10.534-.865 3.568-3.449 6.76-6.755 8.343-2.935 1.405-4.26 1.57-12.61 1.575l-7.608.004v19.05H484.981V34.898zm21.807-1.011c1.907-.756 3.667-2.325 4.61-4.11.639-1.212.703-1.602.703-4.263 0-2.738-.052-3.032-.798-4.49-.889-1.738-2.468-3.11-4.55-3.953-1.13-.458-2.095-.523-9.006-.608l-7.739-.095v18.335l7.607-.098c7.237-.093 7.683-.128 9.173-.718z" fill="#fff" stroke-width=".265"/></svg>