<svg xmlns="http://www.w3.org/2000/svg" width="8552.335" height="3259.51" viewBox="0 0 2262.805 862.412"><path d="M2225.592 861.213c-5.327-4.465-26.709-19.077-38.452-26.277-20.17-12.367-50.538-28.361-77.082-40.598a1542.832 1542.832 0 0 1-7.585-3.523c-9.54-4.476-23.25-10.658-37.924-17.1-3.201-1.407-28.68-12.68-56.62-25.053-27.94-12.373-52.706-23.328-55.034-24.345-2.328-1.017-14.71-6.493-27.517-12.168a16263.43 16263.43 0 0 0-29.104-12.874 8339.436 8339.436 0 0 1-18.168-8.023c-6.79-3.008-22.666-10.034-35.278-15.614-29.709-13.145-39.786-18.101-52.916-26.024-15.485-9.344-27.018-18.265-37.573-29.063-6.067-6.208-10.296-11.308-14.452-17.428-16.153-23.79-22.224-50.154-19.209-83.419 3.03-33.426 16.268-59.683 41.071-81.462 9.802-8.606 18.092-14.47 37.972-26.862l4.634-2.889 22.177 9.783c12.197 5.38 34.877 15.38 50.4 22.223 15.521 6.842 33.698 14.86 40.392 17.816 6.694 2.957 22.373 9.876 34.842 15.375 17.732 7.82 22.574 10.089 22.225 10.416-.245.23-3.145 1.97-6.443 3.87l-13.759 7.915c-28.426 16.349-30.764 17.86-35.834 23.155-4.029 4.208-5.445 7.55-5.197 12.255.221 4.179 1.606 6.837 5.747 11.029 5.735 5.805 11.436 9.055 30.875 17.6 6.5 2.857 15.945 7.018 20.99 9.245 5.045 2.228 17.824 7.862 28.399 12.52 22.897 10.084 51.794 22.82 64.029 28.22 26.015 11.478 42.085 18.56 45.86 20.208a22374.37 22374.37 0 0 1 40.041 17.635c1.455.645 4.71 2.076 7.232 3.18 15.2 6.648 26.762 12.706 37.395 19.59 11.085 7.177 18.429 13 27.114 21.497 20.943 20.49 32.73 43.885 36.091 71.627.848 7.003.846 22.425 0 29.704-2.668 22.853-9.91 44.15-20.489 60.254-2.787 4.244-6.429 8.825-6.998 8.804-.24-.009-1.072-.548-1.848-1.199zm-425.724-6.912c-20.953-1.754-40.856-9.78-57.581-23.219-3.604-2.895-11.465-10.649-14.717-14.515-12.268-14.585-20.44-32.147-23.553-50.625-.952-5.652-1.437-11.52-.996-12.065.19-.234 1.084-.854 1.99-1.378.905-.524 9.027-5.351 18.05-10.728 21.566-12.851 64.151-38.213 73.73-43.91 4.171-2.481 9.15-5.448 11.063-6.593l3.479-2.081 19.099 8.534c10.504 4.694 20.052 8.967 21.216 9.494 1.164.528 20.135 9.01 42.157 18.851 22.022 9.841 46.152 20.627 53.622 23.969 7.47 3.342 17.828 7.97 23.018 10.287 5.19 2.315 9.437 4.31 9.437 4.43 0 .284-1.617 1.317-53.269 33.999a15212.202 15212.202 0 0 0-21.696 13.748c-35.9 22.844-38.486 24.398-49.292 29.626-13.34 6.453-24.477 10.033-36.239 11.65-5.032.692-14.494.947-19.518.526zm-1690.59-85.719c-24.859-1.827-45.666-9.31-63.397-22.8-4.584-3.488-13.764-12.576-17.548-17.374-15.076-19.11-24.328-43.686-27.352-72.65C-.175 644.693-.336 626.611.64 617.6c2.422-22.358 7.115-39.124 15.697-56.092 20.408-40.344 57.861-62.441 105.836-62.441 42.149 0 76.65 17.698 94.262 48.356 5.46 9.502 9.462 20.807 11.359 32.077.31 1.843.652 3.788.76 4.322l.195.97H191.75l-.975-4.145c-5.99-25.475-24.374-42.962-50.684-48.212-6.751-1.347-10.809-1.72-18.643-1.713-10.71.01-18.833 1.232-27.858 4.192-22.192 7.28-38.25 23.258-47.98 47.747-7.99 20.107-10.65 45.862-7.398 71.628 3.225 25.558 12.03 45.974 26.072 60.455 6.438 6.64 11.508 10.366 19.498 14.33 11.653 5.782 24.787 8.392 40.312 8.01 16.101-.396 28.192-4.19 40.073-12.577 12.965-9.15 22.468-23.98 26.915-41.996 1.243-5.038 2.68-13.757 2.684-16.287.004-2.617-1.62-2.41 18.937-2.41 17.457 0 18.497.035 18.332.617-.096.34-.278 1.65-.404 2.91-1.755 17.547-7.242 35.77-14.977 49.742-16.577 29.943-44.319 47.163-82.388 51.14-4.973.52-18.955.73-23.989.36zm394.053-1.642c-18.838-1.185-33.487-7.037-43.215-17.265-9.742-10.242-13.853-23.115-12.998-40.705.733-15.082 6.637-27.518 17.014-35.835 12.556-10.065 30.482-15.566 68.303-20.96 21.3-3.038 29.23-5.41 34.211-10.234 2.108-2.042 3.363-4.204 4.097-7.063.81-3.153.52-10.697-.557-14.45-2.89-10.074-10.945-16.28-24.001-18.492-8.212-1.391-20.702-1.393-28.874-.005-16.895 2.87-26.542 11.495-29.125 26.042-.279 1.57-.61 3.927-.735 5.237l-.227 2.381H454.119v-2.39c0-5.206 1.438-13.492 3.362-19.364 7.865-24.009 28.622-38.307 60.843-41.91 17.997-2.012 39.259-.308 52.864 4.236 16.607 5.547 27.498 16.248 31.228 30.684 1.843 7.13 1.74 3.706 1.978 65.61.194 50.12.292 57.757.763 59.484 1.178 4.312 3.096 5.454 8.68 5.17 2.422-.123 4.253-.45 6.183-1.106 1.508-.512 2.897-.93 3.087-.93.219 0 .345 4.765.345 13.028v13.03l-1.023.728c-1.55 1.104-5.33 2.715-8.216 3.501-4.515 1.23-7.72 1.601-13.692 1.582-4.817-.015-6.307-.15-8.643-.78-9.817-2.65-15.56-8.778-17.825-19.016-.374-1.693-.684-3.646-.688-4.342-.004-.695-.108-1.365-.232-1.488-.123-.123-1.75 1.22-3.616 2.985-6.162 5.832-12.952 10.527-20.671 14.293-12.85 6.27-29.619 9.343-45.515 8.343zm22.906-30.281c10.412-1.218 19.646-4.45 26.997-9.45 1.464-.995 4.268-3.403 6.233-5.35 5.893-5.842 9.333-11.944 10.91-19.35.402-1.893.511-5.704.511-17.904 0-8.525-.085-15.5-.188-15.5-.104 0-.937.38-1.852.843-2.344 1.186-7.317 2.897-11.315 3.893-4.815 1.199-10.156 2.076-23.696 3.89-21.475 2.877-28.674 4.573-36.497 8.598-9.09 4.677-13.863 11.512-15.012 21.502-1.332 11.59 3.192 20.424 12.886 25.159 3.713 1.813 8.596 3.242 12.951 3.788 4.126.517 13.137.458 18.072-.12zm431.825 30.3c-27.966-1.818-49.936-13.118-64.031-32.933-12.674-17.816-19.616-43.453-18.947-69.966.567-22.468 7.368-42.954 19.741-59.461 3.066-4.09 10.305-11.616 14.2-14.763 18.185-14.69 42.383-21.177 66.676-17.875 17.393 2.365 31.264 8.89 42.99 20.227 4.476 4.326 7.346 7.78 10.928 13.152 12.1 18.143 18.97 43.516 18.51 68.352l-.109 5.82-68.931.09-68.931.089.206 5.202c.704 17.763 8.017 32.897 20.294 42 5.743 4.258 14.16 7.752 22.288 9.249 5.281.973 14.716 1.306 20.158.713 16.737-1.826 28.69-9.888 35.225-23.756.933-1.98 2.045-4.751 2.472-6.158l.775-2.557h16.546c15.798 0 16.547.029 16.547.645 0 1.266-2.481 9.668-4.008 13.572-7.306 18.686-18.8 31.498-35.68 39.771-8.686 4.258-16.84 6.65-26.987 7.917-4.38.548-15.88.934-19.932.67zm54.359-119.285c-2.047-20.087-15.808-37.76-34.251-43.989-5.62-1.898-8.418-2.364-15.364-2.561-7.914-.225-12.244.332-18.373 2.364-7.594 2.517-12.69 5.655-18.314 11.276-8.48 8.476-13.988 20.218-15.687 33.44l-.238 1.852h102.469zm252.4 119.14c-19.39-1.52-36.327-7.911-48.998-18.489-19.162-15.996-30.216-41.858-32.125-75.162-.95-16.592 2.254-34.842 8.705-49.566 12.626-28.815 36.55-47.31 66.93-51.739 5.15-.75 18.712-.853 23.813-.18 17.865 2.36 31.806 8.776 43.866 20.19 14.847 14.05 25.262 36.83 28.621 62.597.78 5.985 1.394 18.48 1.087 22.137l-.26 3.087h-137.872v2.66c0 11.347 3.642 23.737 9.616 32.713 2.66 3.998 8.966 10.427 12.612 12.86 9.884 6.596 21.817 9.642 35.914 9.168 9.23-.31 15.64-1.815 22.35-5.245 9.912-5.068 16.635-13.222 20.389-24.728l.777-2.38h16.354c9.057 0 16.44.138 16.547.31.106.171-.347 2.275-1.005 4.675-8.141 29.674-28.02 48.896-57.026 55.141-8.55 1.841-21.256 2.66-30.296 1.95zm56.425-117.77c0-1.85-1.057-7.228-2.193-11.16-1.413-4.888-5.146-12.38-8.172-16.403-4.536-6.029-11.743-12.09-18.308-15.396-2.761-1.39-8.443-3.363-12.088-4.195-1.53-.35-4.98-.635-9.157-.756-5.762-.167-7.296-.092-10.936.533-5.397.927-8.9 2.065-13.758 4.47-11.571 5.727-20.552 16.59-25.038 30.283-1.169 3.569-2.375 8.867-2.763 12.136l-.178 1.5H1321.246zM1456.89 766.8c-16.292-1.248-31.269-6.62-43.134-15.469-3.784-2.822-10.663-9.465-13.73-13.258-11.25-13.918-18.247-31.473-21.163-53.093-.922-6.843-.92-26.249.004-33.338 4.047-31.049 16.932-53.798 38.41-67.82 17.864-11.662 43.585-15.722 66.073-10.432 14.921 3.511 28.403 11.312 36.474 21.104l2.505 3.04.09-46.147.089-46.148 16.669-.091 16.669-.092v257.894l-16.67-.091-16.668-.092-.093-10.896-.094-10.896-1.82 2.606c-2.4 3.434-7.47 8.41-11.407 11.196-6.21 4.395-16.024 8.521-24.333 10.232-8.316 1.712-19.514 2.432-27.87 1.791zm24.166-30.789c22.601-4.887 36.797-22.467 41.351-51.208.677-4.27.784-6.349.793-15.346.01-11.447-.44-15.671-2.618-24.56-5.194-21.19-16.84-35.332-33.766-41-6.558-2.195-10.278-2.703-19.695-2.69-7.386.01-8.922.112-12.031.79-10.062 2.195-16.778 5.75-23.446 12.41-9.074 9.062-14.478 21.291-17.154 38.823-.851 5.575-.945 7.165-.967 16.404-.016 6.805.129 11.175.433 13.053 2.898 17.881 8.084 29.478 17.594 39.34 8.456 8.769 17.22 12.999 30.985 14.955.582.082 4.075.095 7.761.028 5.496-.1 7.434-.28 10.76-.999zm-657.345 28.51c-16.511-1.997-28.272-8.614-35.696-20.085-3.15-4.867-5.191-9.926-6.674-16.54-2.042-9.104-1.96-4.479-1.96-110.383v-97.28h33.16v55.033H858.402V604.9h-45.86l.009 52.123c.005 30 .15 53.545.342 55.474.926 9.322 4.652 15.583 11.008 18.496 4.324 1.983 4.916 2.047 20.303 2.217l14.199.157v31.694l-15.434-.038c-10.321-.026-16.701-.191-19.258-.5zM262.56 633.828V504.71h33.161v94.352l1.263-1.917c8.799-13.36 24.458-22.171 44.951-25.293 5.55-.846 18.549-.835 24.518.02 9.115 1.304 15.546 3.138 21.752 6.2 16.622 8.204 25.479 22.272 29.106 46.23.564 3.726.623 9.545.73 71.349l.115 67.292h-33.522l-.101-67.116-.101-67.116-.762-2.822c-2.61-9.673-7.652-16.296-15.691-20.615-5.617-3.018-11.358-4.256-19.694-4.248-16.102.016-28.438 4.717-37.862 14.43-7.51 7.738-11.613 16.617-13.87 30.012-.576 3.416-.633 8.136-.741 60.59l-.117 56.885H262.56V633.828zm389.467 35.278v-93.84H683.77l.092 17.446.091 17.444 2.567-4.303c3.77-6.324 7.787-11.523 12.59-16.299 4.915-4.887 9.268-8.1 15.01-11.078 9.516-4.936 18.058-6.95 31.128-7.338l6.968-.207v35.276l-6.615.214c-18.608.602-32.342 5.71-42.412 15.773-10.029 10.022-15.635 24.71-17.284 45.287-.225 2.813-.364 21.899-.364 50.006v45.458h-33.514zm428.272 0v-93.84h31.744l.091 17.446.092 17.444 2.597-4.363c12.662-21.272 29.722-32.413 52.688-34.408 2.578-.224 6.512-.355 8.744-.291l4.057.116v34.925l-6.35.236c-34.868 1.3-53.893 18.378-58.884 52.857-1.157 7.996-1.265 12.961-1.265 58.26v45.457h-33.514zm1095.552-35.456c-.97-.454-16.607-7.409-34.749-15.455-18.142-8.046-53.622-23.787-78.846-34.979-25.223-11.192-47.528-21.078-49.565-21.97-2.037-.891-3.84-1.736-4.004-1.878-.35-.301-1.39.307 17.762-10.387 17.493-9.768 21.372-12.044 26.635-15.627 13.419-9.134 17.824-15.87 16.01-24.48-.664-3.155-2.063-5.56-4.898-8.42-4.395-4.433-9.4-7.344-22.4-13.03a3821.756 3821.756 0 0 1-11.643-5.114c-13.694-6.06-20.228-8.943-23.988-10.584a5113.815 5113.815 0 0 1-14.817-6.522 5558.603 5558.603 0 0 0-14.817-6.525c-2.328-1.017-17.648-7.761-34.043-14.988a188183.17 188183.17 0 0 0-47.449-20.906 33027.49 33027.49 0 0 1-26.81-11.818c-5.045-2.229-15.602-6.877-23.46-10.328-20.943-9.2-26.068-11.566-35.455-16.363-31.56-16.13-53.018-33.632-67.085-54.719-10.765-16.138-16.727-33.92-18.494-55.155-.528-6.355-.216-23.18.546-29.335 2.802-22.652 9.414-41.174 20.844-58.385 13.286-20.006 30.569-35.545 58.369-52.477 3.007-1.832 12.69-7.747 21.52-13.145a27284.956 27284.956 0 0 1 36.512-22.293c3.492-2.13 12.779-7.81 20.637-12.625a8864.257 8864.257 0 0 1 19.05-11.646c7.32-4.445 16.124-9.825 31.75-19.398a8859.816 8859.816 0 0 1 19.05-11.647c7.32-4.445 16.124-9.824 31.75-19.398a8857.946 8857.946 0 0 1 19.05-11.646c7.55-4.585 17.473-10.643 18.94-11.564l1.345-.843 3.135 1.885c13.176 7.92 26.785 21.25 34.765 34.05 10.212 16.378 14.945 32.805 14.925 51.793-.01 7.89-.35 12.191-1.512 19.05-4.887 28.833-21.272 52.243-50.17 71.676-3.323 2.234-12.068 7.573-56.53 34.516a167089.57 167089.57 0 0 0-26.634 16.143c-12.079 7.324-13.734 8.488-17.648 12.41-3.743 3.751-5.595 6.78-6.504 10.636-.718 3.043-.677 5.102.154 7.776 2.852 9.176 15.07 17.456 45.517 30.845a170408.693 170408.693 0 0 1 113.948 50.24c95.887 42.28 89.21 39.302 98.033 43.719 52.797 26.429 80.846 60.792 86.985 106.567 3.094 23.074.345 48.053-7.475 67.91-9.318 23.66-25.947 43.249-51.072 60.161-5.4 3.635-24.341 15.156-24.87 15.127-.291-.016-1.324-.4-2.294-.854zM224.637 409.57c-11.11-.475-25.034-2.847-35.102-5.978-32.51-10.112-53.65-31.128-60.807-60.453-1.82-7.46-3.031-17.182-3.042-24.43l-.003-2.028H160.96v2.483c0 1.366.168 4.025.373 5.91 2.185 20.033 12.564 34.956 30.567 43.952 13.219 6.605 30.93 9.773 48.605 8.693 21.797-1.33 36.244-6.542 45.728-16.496 5.311-5.574 8.294-11.613 9.685-19.608.668-3.839.762-11.473.181-14.704-2.793-15.55-14.923-25.46-40.333-32.954-6.949-2.05-15.88-4.178-32.568-7.763-18.105-3.89-28.239-6.452-37.544-9.494-34.004-11.117-49.64-27.792-51.9-55.35-.636-7.761.183-17.128 2.173-24.847 6.724-26.081 28.123-45.054 59.78-53.005 24.316-6.107 54.812-4.755 76.184 3.378 11.81 4.494 20.815 10.208 28.883 18.328 8.632 8.688 14.769 19.48 18.557 32.636 1.922 6.673 3.553 17.37 3.553 23.3v2.407h-34.869l-.185-.97c-.103-.533-.286-1.843-.409-2.91-.122-1.067-.62-3.748-1.105-5.956-5.27-23.979-20.893-37.785-47.216-41.723-4.291-.642-21.431-.645-25.753-.005-14.388 2.132-25.055 6.712-32.27 13.856-2.767 2.74-5.725 6.981-7.234 10.371-2.508 5.637-3.831 14.494-3.069 20.534.805 6.367 2.736 10.413 7.226 15.134 4.191 4.409 9.396 7.722 17.002 10.823 9.189 3.746 17.136 5.873 44.98 12.04 30.531 6.762 41.703 10.143 54.857 16.597 8.576 4.209 14.454 8.206 20.24 13.766 12.347 11.863 18.389 27.173 18.389 46.601 0 6.535-.417 11.09-1.466 16.02-3.167 14.882-11.042 27.915-22.846 37.81-19.982 16.749-50.693 25.482-84.52 24.035zm708.907-1.564c-16.252-1.877-30.53-7.662-42.185-17.09-24.484-19.808-36.746-55.695-32.755-95.862 2.485-25.011 11.792-46.02 26.846-60.605 12.364-11.978 28.151-19.172 47.212-21.513 4.628-.569 16.355-.575 20.814-.011 12.727 1.61 24.96 6.002 34.584 12.42 3.736 2.49 10.946 9.159 13.315 12.314l.927 1.234.017-46.302.016-46.302h33.514v257.88h-33.514v-22.035l-.94 1.404c-8.878 13.254-25.173 21.957-45.583 24.345-4.863.568-17.791.64-22.268.123zm27.204-30.612c15.083-3.273 26.115-11.812 33.773-26.141 3.79-7.093 6.415-15.892 8.048-26.988.965-6.56.868-21.539-.184-28.398-2.682-17.481-8.33-30.178-17.501-39.344-9.785-9.779-21.661-14.265-37.758-14.265-19.365 0-32.684 6.798-42.31 21.595-6.476 9.954-10.356 23.714-11.513 40.833-1.583 23.411 5.004 45.086 17.753 58.423 7.79 8.148 16.967 12.92 28.439 14.786 4.628.753 16.796.466 21.253-.501zm161.003 30.787c-19.915-2.006-35.18-9.677-43.936-22.079-6.683-9.466-9.789-22.14-8.803-35.927 1.537-21.511 11.094-35.118 30.907-44.003 11.548-5.18 28.034-9.003 55.875-12.958 20.33-2.889 28.014-5.268 32.952-10.207 3.41-3.41 4.644-7.279 4.334-13.598-.389-7.948-2.476-13.177-7.117-17.83-4.431-4.442-9.738-6.851-18.704-8.49-4.45-.815-21.126-.946-25.93-.205-10.431 1.609-17.748 4.776-22.938 9.928-5.299 5.26-8.167 12.162-8.987 21.624l-.237 2.734h-16.727c-13.148 0-16.726-.095-16.724-.441.025-3.703 1.146-12.167 2.16-16.316 2.788-11.405 7.37-19.718 15.072-27.35 7.473-7.406 15.498-12.061 27.215-15.79 17.297-5.505 43.046-6.46 63.423-2.352 9.22 1.859 19.18 5.985 25.06 10.38 9.327 6.974 14.633 16.236 16.883 29.47.54 3.18.62 9.12.802 60.675.19 53.597.241 57.248.828 58.727 1.308 3.3 2.996 4.247 7.557 4.238 2.894-.006 6.407-.673 9.03-1.716.547-.217 1.142-.395 1.323-.395.2 0 .33 5.267.33 13.251v13.25l-3.616 1.72c-5.868 2.79-11.3 3.882-19.309 3.882-7.228 0-11.403-.987-16.014-3.786-5.956-3.616-10.01-10.637-11.165-19.34l-.425-3.196-2.87 2.807c-12.536 12.264-27.809 19.772-46.084 22.656-3.552.56-20.492 1.007-24.165.637zm25.854-30.139c20.557-2.247 36.07-12.263 42.582-27.495 2.44-5.704 2.422-5.535 2.56-23.724.07-9.07.033-16.492-.08-16.492-.115 0-.986.394-1.938.876-6.201 3.143-15.427 5.27-32.113 7.406-22.126 2.832-30.123 4.575-37.804 8.241-8.594 4.102-13.88 10.184-15.88 18.274-1.112 4.494-1.099 11.161.03 15.203 2.638 9.444 10.91 15.511 23.903 17.533 3.8.59 14.072.689 18.74.178zm305.228 29.855c-10.484-1.328-19.508-4.048-28.228-8.508-15.062-7.705-27.09-20.328-35.28-37.024-5.492-11.198-8.896-23.17-10.632-37.394-.74-6.075-.631-25.835.178-32.103 3.566-27.605 14.119-48.52 31.75-62.926 19.188-15.677 47.965-21.446 74.159-14.866 14.217 3.572 26.98 11.067 34.88 20.483l2.67 3.182v-92.452h33.514v257.888l-16.67-.092-16.668-.092-.176-10.664-.177-10.663-2.095 2.837c-1.153 1.56-3.558 4.235-5.346 5.944-8.675 8.293-20.541 13.66-35.598 16.102-4.82.782-21.148.998-26.281.348zm25.272-30.025c10.716-1.59 19.305-5.88 26.774-13.368 7.312-7.332 12.29-16.37 15.321-27.818 2.506-9.465 3.356-17.372 3.09-28.739-.61-25.993-9.159-45.85-24.42-56.715-5.298-3.772-11.9-6.507-19.322-8.004-3.442-.695-5.049-.8-12.252-.803-9.122-.004-11.613.322-17.978 2.357-6.93 2.216-12.518 5.667-17.838 11.016-10.086 10.14-15.917 25.125-17.788 45.713-.462 5.09-.468 14.996-.01 19.403 1.422 13.72 5.332 25.465 11.573 34.767 8.385 12.5 19.826 19.875 34.457 22.215 4.053.648 13.955.635 18.393-.024zm-957.28 29.796c-27.15-2.08-45.584-14.56-52.205-35.346-1.966-6.17-2.332-9.044-2.321-18.247.008-7.17.116-8.826.804-12.26 3.307-16.503 11.912-27.495 27.409-35.01 12.233-5.935 26.695-9.532 54.661-13.596 6.026-.876 12.78-1.914 15.012-2.307 20.213-3.56 27.16-9.523 26.303-22.581-.994-15.163-9.3-23.229-26.739-25.97-4.911-.771-19.509-.877-24.435-.176-19.278 2.742-29.522 11.486-32.112 27.41-.284 1.746-.517 4.008-.518 5.027v1.852h-33.61l.253-3.792c1.932-28.861 17.107-47.843 45.01-56.3 4.656-1.41 11.383-2.821 17.275-3.623 5.51-.75 23.914-1.06 30.485-.513 20.672 1.719 35.077 7.064 44.703 16.589 5.817 5.756 9.548 12.851 11.657 22.169l.774 3.421.222 57.503c.172 44.632.323 57.974.672 59.608.57 2.66 1.501 4.499 2.668 5.263 2.75 1.802 8.836 1.386 15.097-1.033.588-.227.617.484.53 13.117l-.093 13.356-3.38 1.681c-4.184 2.081-8.782 3.274-14.672 3.807-18.166 1.642-29.382-6.51-31.57-22.948l-.415-3.116-3.38 3.131c-4.32 4.003-7.476 6.524-11.67 9.326-15.487 10.345-35.519 15.16-56.413 13.558zm26.033-30.513c13.288-1.808 23.446-6.393 31.565-14.247 5.922-5.73 9.706-12.338 11.194-19.548.59-2.86.665-4.92.67-18.477.003-8.392-.08-15.258-.184-15.258s-.986.405-1.962.899c-6.595 3.342-16.1 5.469-35.421 7.926-16.354 2.08-25.103 3.866-31.642 6.457-9.969 3.951-15.91 9.82-18.638 18.408-1.107 3.485-1.386 11.329-.539 15.135.926 4.162 2.7 7.36 5.811 10.472 4.017 4.019 9.071 6.491 16.19 7.92 6.257 1.257 15.135 1.378 22.956.313zM408.7 405.73c-12.558-1.521-22.018-5.625-29.424-12.764-8.617-8.306-13.184-19.743-14.404-36.069-.227-3.033-.357-39.372-.357-100.1v-95.338h33.514v55.028l22.842.09 22.842.091v29.634l-22.85.09-22.85.091.098 54.943.096 54.942.787 2.767c1.83 6.438 5.101 10.699 10.02 13.052 4.382 2.096 6.722 2.35 21.686 2.35h13.19V406.285l-15.61-.037c-10.78-.027-16.839-.187-19.579-.519zm262.73-95.4v-93.838h31.398v26.584l1.797-2.608c9.2-13.356 22.106-22.184 37.89-25.919 6.648-1.573 11.404-2.062 19.932-2.051 11.59.015 19.418 1.155 27.82 4.053 20.61 7.106 32.262 22.7 35.856 47.988 1.12 7.883 1.27 17.97 1.164 78.953l-.105 60.501-16.659.092-16.659.091-.111-66.06-.111-66.062-.792-3.458c-2.94-12.843-10.64-21.225-22.716-24.725-9.177-2.659-21.72-2.125-32.256 1.374-7.21 2.395-13.025 5.954-18.142 11.108-8.02 8.077-12.904 19.336-14.418 33.238-.247 2.261-.373 22.322-.373 59.002v55.577H671.43zm602.357 93.402c-.093-.244-.128-42.434-.079-93.754l.09-93.31h31.398l.092 17.615.091 17.615 1.865-3.15c12.59-21.272 27.96-32.375 49.281-35.604 2.037-.308 6.76-.658 10.495-.777l6.791-.216V247.536l-3.968.004c-4.906.005-12.35.774-17.224 1.78-23.562 4.86-38.108 20.093-43.173 45.213-2.173 10.781-2.072 8.093-2.288 60.954l-.198 48.506-16.502.092c-13.014.072-16.538-.004-16.671-.353zm893.774-48.566a154366.616 154366.616 0 0 0-103.54-45.72 64793.726 64793.726 0 0 0-31.926-14.096c-28.418-12.54-31.773-14.065-31.503-14.33.309-.302.812-.607 32.032-19.382 11.836-7.118 31.759-19.102 44.273-26.63 12.515-7.53 32.835-19.752 45.156-27.16 12.32-7.41 34.577-20.799 49.458-29.754 14.881-8.956 27.226-16.283 27.432-16.283 1.03 0 9.024 5.434 14.916 10.14 15.08 12.04 27.519 29.542 33.256 46.79 3.763 11.31 4.941 19.706 4.674 33.297-.255 13.001-2.002 23.03-5.944 34.127-1.963 5.527-6.849 15.182-10.266 20.287-8.26 12.338-20.062 23.632-34.452 32.967-5.85 3.796-29.337 17.14-30.103 17.104-.255-.012-1.813-.623-3.463-1.357z" fill="#fff" stroke-width=".353"/></svg>