<svg xmlns="http://www.w3.org/2000/svg" width="509" height="196.146" viewBox="0 0 134.673 51.897"><path d="M.265 48.554v-3.307h2.249c1.822 0 2.248.075 2.248.397 0 .315-.382.397-1.852.397H1.058v2.116h1.72c1.352 0 1.72.085 1.72.397s-.368.397-1.72.397h-1.72v2.117h1.985c1.587 0 1.984.08 1.984.397 0 .323-.44.396-2.381.396H.265zm6.085.022c0-2.644.075-3.33.363-3.33.2 0 1.063 1.07 1.918 2.378.856 1.307 1.645 2.379 1.754 2.381.109.002.198-1.067.198-2.377 0-1.94.074-2.381.397-2.381.332 0 .397.544.397 3.307 0 2.749-.066 3.307-.393 3.307-.216 0-1.168-1.16-2.117-2.577-.948-1.418-1.73-2.46-1.737-2.315-.008.144-.038 1.264-.067 2.489-.035 1.506-.158 2.262-.382 2.337-.253.084-.331-.673-.331-3.219zm8.005 3.013c-.804-.323-1.653-1.784-1.654-2.845-.002-2.041 1.319-3.497 3.174-3.497 1.519 0 3.092 1.247 2.42 1.918-.147.148-.39.031-.62-.296-.943-1.347-3.353-1.121-3.918.367-.992 2.608.878 4.732 3.281 3.728.742-.31.954-.548.954-1.073 0-.611-.1-.675-1.059-.675-.582 0-1.058-.12-1.058-.265 0-.145.655-.265 1.455-.265h1.455v1.063c0 .914-.12 1.135-.86 1.586-.904.552-2.54.668-3.57.254zm5.811-2.947c.053-2.286.17-3.251.405-3.33.253-.083.331.674.331 3.22 0 2.813-.063 3.33-.405 3.33-.345 0-.394-.474-.33-3.22zm2.382-.022c.059-2.589.15-3.24.45-3.24.206 0 1.076 1.011 1.932 2.248.857 1.237 1.67 2.289 1.807 2.337.146.051.25-.928.25-2.337 0-1.823.083-2.398.331-2.315.24.08.331.975.331 3.26 0 4.04-.232 4.13-2.381.917-.873-1.304-1.677-2.376-1.786-2.382-.11-.005-.199 1.063-.199 2.372 0 1.962-.071 2.381-.405 2.381-.345 0-.394-.475-.33-3.24zm6.67 2.894c-.073-.192-.099-1.65-.057-3.241l.076-2.894 2.315-.076c1.94-.064 2.315-.01 2.315.33 0 .331-.376.408-2 .408h-2.001l.082.992.082.992 1.786.078c1.35.06 1.786.172 1.786.463 0 .3-.408.385-1.852.385h-1.852v2.094l2.03.078c1.33.05 2.066.191 2.138.408.16.486-4.66.47-4.847-.017zm6.236-2.96v-3.307h2.25c1.792 0 2.248.078 2.248.385 0 .295-.449.404-1.9.463l-1.902.078v1.852l1.769.078c1.335.06 1.769.173 1.769.463 0 .299-.401.385-1.793.385h-1.793l.1 1.058.102 1.059h1.956c1.563 0 1.957.08 1.957.397 0 .323-.441.396-2.382.396h-2.38zm6.086 0v-3.307h1.39c1.615 0 3.11.374 3.416.855.574.905-.112 2.584-1.057 2.584-.439 0-.39.15.285.886.328.357.81 1.018 1.074 1.47.463.793.462.82-.013.82-.299 0-.846-.542-1.404-1.39-.8-1.217-1.036-1.399-1.905-1.47l-.993-.083v1.471c0 1.132-.091 1.471-.397 1.471-.331 0-.396-.543-.396-3.307zm4.072-.992c.533-.85-.111-1.38-1.785-1.468l-1.494-.08v2.17l1.494-.08c1.075-.057 1.576-.209 1.785-.542zm2.975 3.751c-.384-.302-.697-.778-.697-1.058 0-.696.382-.64.886.128.565.861 1.847 1.126 2.712.56 1.057-.693.763-1.52-.688-1.937-2.104-.604-2.506-.904-2.593-1.938-.098-1.16.349-1.578 1.866-1.747.88-.098 1.282 0 1.851.448.756.597.974 1.33.395 1.33-.183 0-.482-.238-.664-.53-.393-.63-2.201-.741-2.68-.165-.529.638-.01 1.214 1.483 1.648 2.414.702 3.089 1.88 1.81 3.16-.852.852-2.664.901-3.681.101zm8.303-.168c-.685-.87-.537-1.821.405-2.602.395-.328.56-.64.416-.794-.565-.604-.583-1.421-.045-1.96.672-.672 1.642-.698 2.221-.058.582.643.553 1.253-.091 1.897-.668.668-.663.858.039 1.48.408.363.6.412.683.174.113-.322.865-.48.865-.181 0 .082-.128.39-.285.683-.221.413-.191.639.132.996.426.47.562 1.081.24 1.081-.097 0-.395-.197-.661-.437-.45-.408-.518-.408-.968 0-.783.708-2.287.566-2.951-.279zm2.492-.164c.544-.398.346-1.001-.615-1.871-.443-.4-.624-.434-.94-.172-.655.544-.765 1.33-.263 1.884.54.597 1.146.65 1.818.159zm-.168-3.67c.45-.45.393-1.258-.1-1.447-.23-.088-.599.02-.82.242-.318.318-.339.52-.102.962.342.64.57.694 1.022.243zm6.934 3.8c-2.055-2.056-.768-5.864 1.982-5.864 1.191 0 2.514.916 2.514 1.741 0 .354-.79.02-1.116-.472-.287-.432-.633-.576-1.338-.556-1.226.035-1.487.213-1.956 1.337-.526 1.26-.246 2.815.632 3.505.959.754 1.85.668 2.72-.263.973-1.043 1.467-1.047.93-.008-.517.998-1.146 1.33-2.521 1.33-.851 0-1.264-.167-1.847-.75zm6.97.24c-1.001-.61-1.53-2.005-1.29-3.398.593-3.436 5.063-3.655 5.968-.293.287 1.064.208 1.712-.347 2.835-.66 1.337-2.836 1.768-4.33.857zm2.68-.282c1.387-.527 1.801-3.082.703-4.331-1.216-1.385-3.226-.933-3.759.846-.384 1.282-.17 2.26.679 3.11.69.69 1.297.786 2.378.375zm3.37-2.427c.052-2.213.174-3.253.392-3.325.175-.058 1.068 1.03 1.985 2.42.916 1.388 1.756 2.527 1.865 2.53.109.004.198-1.124.198-2.507 0-1.499.107-2.513.265-2.513.162 0 .265 1.279.265 3.307 0 2.626-.075 3.307-.363 3.307-.2 0-1.063-1.07-1.919-2.377-.855-1.307-1.644-2.379-1.753-2.38-.11-.003-.199 1.067-.199 2.376 0 1.962-.071 2.381-.405 2.381-.345 0-.394-.473-.33-3.22zm8.352.375l-.075-2.844-1.141-.082c-.738-.053-1.104-.194-1.037-.397.071-.213.901-.315 2.575-.315 1.673 0 2.503.102 2.574.315.068.203-.3.344-1.036.397l-1.141.082-.076 2.844c-.04 1.565-.186 2.844-.321 2.844-.136 0-.28-1.28-.322-2.844zm3.876 2.497c-.074-.192-.1-1.65-.058-3.241l.076-2.894 1.058-.086c1.88-.153 3.275.188 3.753.917.653.998.211 1.98-1.192 2.649-.046.022.341.597.86 1.277 1.021 1.337 1.15 1.725.575 1.725-.203 0-.744-.584-1.203-1.299-.896-1.396-1.219-1.611-2.418-1.611-.76 0-.772.024-.772 1.455 0 1.35-.36 1.938-.68 1.108zm4.222-3.952c.55-.876-.108-1.38-1.917-1.468l-1.626-.079v2.168l1.626-.08c1.202-.057 1.702-.199 1.917-.541zm1.815 3.969c1.85-4.988 2.442-6.298 2.814-6.227.245.047.921 1.307 1.675 3.12 1.402 3.37 1.42 3.437.897 3.437-.202 0-.558-.476-.791-1.058-.417-1.04-.446-1.058-1.77-1.058-1.325 0-1.353.017-1.762 1.058-.229.582-.59 1.058-.8 1.058-.213 0-.33-.148-.263-.33zm3.756-2.888c-.1-.314-.359-.996-.575-1.515l-.394-.943-.5 1.317c-.276.724-.5 1.406-.501 1.515 0 .11.484.199 1.076.199.983 0 1.06-.05.894-.573zm4.049 2.933c-.747-.436-1.257-1.707-1.257-3.137 0-1.832.945-2.92 2.708-3.119 1.135-.128 1.307-.067 2.108.744.773.783.815.896.37.987a.737.737 0 0 1-.75-.336c-.64-1.144-2.774-.967-3.34.277-.46 1.007-.373 2.873.161 3.516.255.307.845.632 1.312.722.714.138.981.033 1.674-.66.454-.454.935-.825 1.07-.825.465 0 .24.574-.53 1.343-.62.62-1 .772-1.918.765-.63-.004-1.353-.129-1.608-.277zm7.21-2.625v-2.91h-1.058c-.765 0-1.059-.11-1.059-.397 0-.325.456-.397 2.514-.397s2.513.072 2.513.397c0 .286-.294.397-1.058.397h-1.058v2.91c0 2.41-.069 2.91-.397 2.91-.329 0-.397-.5-.397-2.91zm4.705 2.314c-2.572-2.124-.94-6.363 2.283-5.931 2.2.295 3.218 2.585 2.233 5.019-.61 1.506-3.17 2.023-4.516.912zm2.949-.32c.905-.468 1.077-.866 1.077-2.499 0-.966-.137-1.378-.595-1.79-.882-.795-1.453-.916-2.417-.513-1.65.69-1.972 3.361-.554 4.594.797.693 1.447.747 2.489.208zm3.252-2.325l.074-3.24 2.086.014c1.849.013 2.142.084 2.58.624.271.336.494.835.494 1.11 0 .516-.738 1.407-1.328 1.604-.227.076-.023.548.628 1.454 1.063 1.48 1.134 1.675.604 1.675-.197 0-.825-.625-1.393-1.389-.884-1.187-1.178-1.4-2.022-1.47l-.987-.083v1.471c0 1.145-.09 1.471-.405 1.471-.346 0-.395-.475-.331-3.24zm4.166-.974c.354-.662.35-.698-.142-1.19-.276-.275-.9-.415-1.852-.415h-1.436v2.116h1.578c1.29 0 1.628-.093 1.852-.511zm2.775 3.566c-.357-.357-.65-.833-.65-1.058 0-.581.727-.508.918.092.364 1.148 2.764 1.325 3.342.245.392-.734-.063-1.172-1.721-1.654-2.265-.658-2.943-1.967-1.576-3.042 1.209-.95 3.37-.551 3.83.709.283.774-.415.83-.823.066-.357-.667-2.141-.74-2.665-.11-.527.636-.016 1.197 1.488 1.632 1.638.473 2.235.997 2.235 1.958 0 1.185-.828 1.812-2.393 1.812-1.065 0-1.467-.132-1.985-.65zM0 21.036V0l21.1.068 21.101.067.068 20.969.067 20.968H0zm41.804 8.468V17.201H29.633V33.87H.265V41.807h41.54zm-29.369-12.7V8.47h29.369V.265L21.101.332.397.4.328 12.77.26 25.138h12.176zm36.032 16.563c-1.842-.636-3.133-1.907-3.626-3.57-.214-.72-.36-1.332-.324-1.361.036-.029.502-.131 1.035-.227.919-.166.978-.133 1.147.632.58 2.64 4.672 3.998 7.555 2.508 1.067-.552 1.722-1.927 1.391-2.92-.376-1.128-1.253-1.608-4.573-2.502-3.381-.911-4.585-1.532-5.325-2.745-.56-.92-.666-2.79-.206-3.683 1.037-2.02 3.15-2.964 6.191-2.769 1.46.094 2.216.295 3.142.838 1.294.758 2.276 2.25 2.276 3.459 0 .583-.115.672-.867.672-.761 0-.93-.137-1.389-1.124-.65-1.4-1.845-2.05-3.772-2.05-1.96-.001-3.162.56-3.638 1.699-.31.74-.324 1.063-.071 1.617.417.915 1.145 1.26 4.397 2.082 3.138.793 3.851 1.12 4.93 2.255.66.692.798 1.082.884 2.47.086 1.4.007 1.79-.523 2.57-1.65 2.427-5.24 3.321-8.634 2.149zm59.042.249c-2.312-.55-4.1-2.307-4.996-4.906-.538-1.56-.627-5.05-.169-6.64.412-1.428 1.559-3.104 2.7-3.947 2.086-1.54 5.833-1.864 8.114-.7 1.203.614 2.57 2.117 2.971 3.266.237.68.198.756-.454.898-.393.086-.866.204-1.053.261-.186.058-.462-.22-.613-.617-.342-.903-1.211-1.85-2.143-2.335-1.128-.587-3.597-.469-4.834.232-1.932 1.094-2.783 2.972-2.783 6.143 0 3.264.88 5.131 2.9 6.151 2.322 1.174 5.123.547 6.48-1.45.37-.544.673-1.109.675-1.257.011-.73.42-.917 1.41-.644 1.133.313 1.134.586.008 2.549-1.474 2.568-4.846 3.798-8.214 2.996zm16.635-.231c-2.02-.721-3.226-1.811-4.287-3.876-.847-1.647-.926-1.996-.925-4.078 0-3.11.598-4.763 2.362-6.527 1.757-1.757 3.41-2.347 6.089-2.175 3.31.212 5.64 1.918 6.79 4.97.454 1.202.531 1.893.444 3.969-.124 2.937-.67 4.413-2.202 5.944-2.026 2.026-5.485 2.767-8.271 1.773zm5.155-1.882c1.285-.584 2.594-2.24 3.023-3.826.434-1.607.17-4.834-.504-6.143-1.109-2.155-2.994-3.148-5.616-2.958-3.298.238-5.073 2.557-5.086 6.647-.008 2.411.432 3.799 1.599 5.042 1.587 1.693 4.412 2.224 6.584 1.238zm-67.916-6.232v-8.335H63.5v16.669h-2.117zm6.086 0v-8.335h3.106l1.99 5.887a817.7 817.7 0 0 1 2.304 6.88c.173.545.41.992.527.992.118 0 .902-1.994 1.743-4.432.841-2.437 1.91-5.503 2.373-6.813l.845-2.381 1.493-.08 1.494-.079v16.695h-2.117v-6.482c0-3.565-.103-6.482-.228-6.482s-1.23 2.887-2.454 6.416l-2.226 6.416h-2.06l-2.226-6.68c-1.225-3.675-2.336-6.682-2.47-6.682-.14 0-.242 2.835-.242 6.747v6.747h-1.852zm19.579 0v-8.335h11.906V18.79h-9.789v5.291h9.26v1.852h-9.26v5.821H99.484v1.852H87.047z" fill="#fff" stroke-width=".265"/></svg>