<svg xmlns="http://www.w3.org/2000/svg" width="511.96" height="90.891" viewBox="0 0 135.456 24.048"><path d="M97.925 23.255c-.158-.453-.173-.793-.035-.793.382 0 2.112-1.608 2.112-1.964 0-.25-1.486-4.051-2.834-7.247-.11-.263.132-.328.99-.265l1.135.083.851 2.46c.469 1.352.905 2.512.971 2.578.066.066.458-1.07.872-2.525l.751-2.645h1.013c.558 0 1.013.111 1.013.247 0 .607-2.916 7.806-3.55 8.763-.675 1.02-2.065 2.1-2.708 2.101-.167 0-.429-.356-.581-.792zm-52.007-2.662c-2.575-.64-3.864-2.366-3.854-5.16.013-3.598 1.94-5.411 5.74-5.403 2.207.005 2.514.172 2.298 1.253-.15.748-.226.801-.815.578-1.877-.714-3.833.005-4.598 1.689-.9 1.98-.45 3.963 1.124 4.954.726.458 1.18.532 2.661.438l1.786-.114v.743c0 .409-.103.806-.229.884-.478.296-3.121.384-4.113.138zm6.591-.085c-1.18-.515-1.498-1.04-1.405-2.318.115-1.58 1.236-2.343 3.447-2.343 1.502 0 1.558-.024 1.38-.595-.102-.328-.319-.683-.48-.79-.532-.35-2.414-.212-3.033.222-.602.421-.605.418-.522-.58.075-.9.18-1.03 1.01-1.244 1.555-.403 3.39-.093 4.19.707.672.67.709.849.793 3.873l.088 3.17h-.948c-.782 0-.948-.096-.948-.548 0-.51-.03-.518-.438-.11-.462.462-1.5.93-2.027.912-.172-.006-.67-.166-1.107-.356zm2.747-1.684c.306-.255.587-.761.624-1.125.064-.617 0-.656-.974-.577-1.32.106-2 .467-2 1.063 0 1.093 1.36 1.463 2.35.639zm6.834 1.55c-.776-.396-.982-.424-.982-.133 0 .245-.311.369-.926.369h-.926V9.2l.992.082.992.082.078 2.051.077 2.052.77-.398c1.18-.61 2.482-.503 3.413.28 2.031 1.71 1.644 6.193-.616 7.137-1.214.507-1.69.489-2.872-.113zm1.489-1.335c1.812-.69 1.378-4.78-.508-4.78-1.59 0-2.33 3.096-1.049 4.378.743.743.692.73 1.557.402zm9.996 1.57c-.492-.116-1.258-.575-1.702-1.019-.674-.673-.826-1.063-.919-2.35-.218-3.015 1.213-4.69 3.842-4.495 2.059.152 3.245 1.525 3.245 3.755v.935h-2.645c-1.665 0-2.646.102-2.646.276 0 .152.292.57.65.926.75.75 1.822.84 3.195.266l.917-.383v.881c0 .822-.079.901-1.175 1.177-1.31.33-1.487.332-2.762.03zm2.879-4.968c0-.666-.891-1.381-1.72-1.381s-1.72.715-1.72 1.381c0 .114.774.206 1.72.206s1.72-.092 1.72-.206zm5.128 4.827c-1.583-.806-1.822-2.297-.59-3.7.626-.714.757-1.023.528-1.252-.457-.457-.365-1.916.162-2.567.288-.355.887-.631 1.568-.723.94-.126 1.201-.047 1.783.534.91.91.859 1.64-.19 2.688l-.87.87.745.835c.864.968 1.174.882 1.412-.39.14-.741.293-.916.804-.916.806 0 .843.798.105 2.246l-.528 1.035.71.741.71.74h-.924c-.507 0-1.068-.145-1.246-.323-.254-.254-.436-.255-.835-.005-.888.554-2.45.642-3.344.187zm2.714-1.12c.202-.129-.034-.583-.71-1.365-.866-1.005-1.07-1.123-1.425-.828-.479.397-.535 1.149-.141 1.885.28.523 1.654.71 2.276.309zm-.276-4.693c.35-.534.37-.74.106-1.058-.753-.908-1.87-.036-1.367 1.067.378.83.713.827 1.26-.009zm7.184 5.901c-1.005-.267-1.102-.433-.836-1.427.145-.538.19-.543 1.546-.165 1.851.515 2.886.1 3.012-1.21.08-.83.014-.898-1.587-1.626-2.701-1.228-3.566-2.583-2.749-4.305.683-1.438 1.987-1.967 4.517-1.831 1.167.062 1.555.395 1.361 1.166-.159.635-.228.655-1.829.526-1.32-.106-1.737-.046-2.016.292-.668.805-.151 1.599 1.579 2.426 2.026.968 2.89 1.942 2.89 3.259 0 2.388-2.734 3.733-5.888 2.895zm14.27.005c-.495-.18-.695-.403-.595-.662.082-.215.15-.489.15-.609s.696-.154 1.546-.077c1.341.121 1.572.074 1.736-.354.2-.521-.628-1.424-1.307-1.424-.19 0-.713-.308-1.161-.685-1.827-1.538-.521-3.817 2.183-3.81 1.648.006 2.06.225 1.86.99-.134.51-.28.559-1.258.425-.83-.114-1.194-.045-1.459.273-.462.557-.043 1.084 1.184 1.49 1.618.533 2.395 2.14 1.682 3.473-.581 1.086-2.893 1.578-4.56.97zm7.88.062c-1.047-.425-1.288-1.043-1.4-3.598-.1-2.282-.151-2.478-.672-2.552-.819-.117-.793-1.371.03-1.488.536-.076.596-.233.596-1.538V9.994l.992.083.992.082.08 1.373c.077 1.332.105 1.376.926 1.455.705.068.847.193.847.744 0 .552-.142.675-.86.744l-.86.083v4.477l.794.16c.601.12.793.303.793.758 0 .862-1.03 1.167-2.258.67zm5.566.006c-1.952-.473-2.779-1.633-2.778-3.896.002-2.55 1.352-4.062 3.624-4.06 2.019.003 3.52 1.635 3.52 3.828v.934h-2.647c-1.664 0-2.645.103-2.645.277 0 .152.292.569.649.926.75.75 1.823.84 3.196.266l.917-.383v.88c0 .822-.079.902-1.175 1.178-1.296.326-1.503.33-2.661.05zm2.596-5.244c-.302-.846-.669-1.125-1.483-1.125-.856 0-1.775.638-1.775 1.232 0 .261.454.356 1.712.356 1.516 0 1.692-.053 1.546-.463zM2.62 20.359C.885 19.832-.021 18.623 0 16.865c.006-.487.754-3.922 1.661-7.632l1.65-6.747 3.122-.075c2.891-.07 3.112-.04 2.98.397-.355 1.17-3.074 12.618-3.074 12.941 0 .3 1.641.36 9.592.347 5.275-.009 10.176-.112 10.891-.23 1.446-.237 2.073-.838 1.952-1.87-.075-.645-.149-.667-2.79-.842-3.534-.235-5.37-.777-6.52-1.926-1.8-1.801-1.498-4.374.784-6.67 2.007-2.019 2.853-2.205 10.04-2.205 3.224 0 5.926.065 6.005.145.08.079-.057.942-.303 1.918l-.447 1.774-4.614.142c-4.816.148-5.378.253-5.826 1.09-.78 1.455.6 2.07 4.652 2.075 1.455.002 3.085.125 3.621.274 1.39.386 2.332 1.6 2.332 3.006 0 1.631-.66 3.588-1.59 4.712-1.07 1.295-3.629 2.52-5.95 2.848-2.406.34-11.164.354-11.372.018-.086-.14.026-.962.25-1.825.57-2.205.514-2.382-.373-1.158-.862 1.19-2.577 2.46-3.957 2.931-1.01.344-9 .388-10.096.056zm65.367-5.438V9.233h1.852V20.61h-1.852zm56.092 1.852v-3.836h.926c.662 0 .926.117.926.412 0 .372.056.372.588 0 .866-.607 2.56-.53 3.282.148l.597.561.713-.56c.473-.373 1.092-.561 1.844-.561.938 0 1.248.138 1.816.814.65.772.685.97.685 3.836v3.023h-1.852v-2.531c0-2.936-.23-3.555-1.317-3.555-1.247 0-1.593.79-1.593 3.631v2.455H128.84v-2.596c0-2.978-.257-3.585-1.462-3.446-1.104.126-1.44.992-1.444 3.727l-.004 2.315h-1.852zM38.514 2.636c.164-1.028.155-1.042-.857-1.305-.562-.146-2.094-.482-3.404-.746l-2.381-.48L35.23.03c1.846-.041 4.942-.041 6.879 0l3.521.073-3.502 1.786c-1.926.983-3.565 1.786-3.641 1.786-.077 0-.064-.468.027-1.04z" fill="#00679a" stroke-width=".265"/></svg>