<svg xmlns="http://www.w3.org/2000/svg" viewBox="0 0 256.2 283.5"><path fill="#fff" class="logo-shape" d="M102.5 276.3c2.2 0 6-.7 9-5.5-1.7-3.8-2.9-11.4-3.1-14.2-.9-14.3 4.6-27.7 10.6-28 4.4-.3 7.9 3.9 8.3 10.7 1.1 17.8-4.8 25.2-7.8 31.6.5 2.5 4.7 6.7 8.7 6.7 1.5 0 3.2-.7 3.7-1.3-.3-1-.6-2.3-.6-4.3 0-10.3 6.6-19 12.4-19 4.6 0 7.2 6 7.2 10 0 4.7-4 8.5-9.8 12.2 1 1 2.9 1.8 4.6 1.8 8.4 0 12.8-10.1 16-19.4.6-1.8 1.6-4.3 3.7-4.3 3.5 0 5 23.2 10.9 23.2 2.5 0 4.6-5.1 4.6-9.1 0-2.9-1-3.2-1-7.5 0-4.7 2.5-8.7 5.9-8.7 2.1 0 2.8 2 2.8 4.5 0 9.4-6.8 26.9-16.8 26.9-7.5 0-6.9-12.9-9.6-12.9-3 0-7.1 13.1-21.6 13.1-2.4 0-4.9-1.2-6.9-3.5-3.5 2.4-6.5 3.4-9.9 3.4-5.4 0-7.8-5.6-10-5.6-2.6 0-5.6 5.7-14.4 5.7-7.1 0-8.2-9.4-10.7-9.4-2.2 0-5.6 9.4-9.3 9.4-6.2 0-7.5-16.3-12.9-16.3-4.3 0-17.7 16.6-21.4 16.2-1.5-.2-2.1-1.3-1.9-2.7.2-2 2-7.5 2.7-10.1 1.2-4.5 2.3-9.4 2.9-10.9.6-1.6 2.2-2.7 3.5-2.6.7.1.9 1.3 1.1 2.3.7 3.6 1.8 7.3 2.9 7.3 2.1 0 8.9-13.1 12.9-13.1 4.9 0 5.4 20.6 12.1 20.6 2.2 0 3.8-2.6 5.3-5.9.1-5.4 1.6-13.2 6-13.2 3.1 0 4.6 6.9 2.3 12.9-.2 7.2 4.5 9 7.6 9zm117.6-17.7c-1.8 7.6-7.3 18.7-15.6 18.7-1.9 0-5.3-.7-5.3-2.7 0-2.1 12.9-2.3 12.9-12.2 0-3.7-3.4-8.8-8.4-8.8-6.6 0-13.1 7.2-13.1 17.2 0 9 5.6 11.9 11.1 11.9 9.7 0 15.6-7.9 18.7-14.6 1.5 4.4 2.3 14.6 6 14.6 1.5 0 2.5-.7 4.3-4.7 4.4-9.9 8.7-21.2 14.6-21.2 2.2 0 .9 4 6.2 4 2.5 0 4.3-2.1 4.3-4.4 0-3.4-3.1-6-7.8-6-13.8 0-16.8 20.7-19 20.7-3.7 0-2.5-16.6-5.1-16.6-2.4 0-3.5 2.8-3.8 4.1zm-97.6-15.4c-.3-4.1-1.2-6-3.5-5.8-2.9.2-4.3 9.4-3.7 19.1.4 6.3 1.3 7.3 2.2 7.2 1.7-.1 5.6-11.4 5-20.5zm-23.9-8.7c-.2-2.4-2.1-4-4.6-4-2.8 0-5.4 2.9-5.1 6.6.2 2.4 1.6 4.4 4.4 4.4 3.3.1 5.6-3.6 5.3-7zm45.8 30c0-2.5-1.3-4.6-2.9-4.6-1.3 0-4.4 1.5-4.4 6.2 0 3.7 1.3 5.4 1.9 6.2 4.2-1.3 5.4-4.8 5.4-7.8zm57.4-5c3.1 0 4 3.7 3.2 5.9-.7 2.2-3.4 4.7-7.5 5.4-.8-2.2-1.3-11.3 4.3-11.3zM32.5 249.1c-.4-1.3-1.6-4.3-2-6.6-.7-4.9 1.8-8.1 4.2-8.9 2.6-.7 3.7.6 4.7 3.7 1.3 4.7 1.5 10.9 1 19.7-.6 12.1-6.6 26.6-21.6 26.3C5.9 283 .1 274.6-.5 261.8c-.3-6 .1-12.1 2.6-20.6 1.3-4.6 2.5-6.2 6.6-7.1 3.2-.6 2.9 2.8 2.2 6.8-1.6 8.8-2.4 13.1-1.8 23.1.6 10.6 5.4 14.7 10.7 14.7 7.9.2 11.5-6.5 12.9-16 1.5-7.6.6-11.3-.2-13.6zM205.9 57.8c1 7.4 12.2 17.4 15.3 17.2 2-.2 2.8-9.7 2.8-17.2 0-4.3.2-7.6-2-8.4-3.6 7.3-13 8.7-16.1 8.4zm.7-3.2c8.1 0 15.5-6.5 15.5-12.2 0-2.7-1.3-4.8-4.5-5.2.5.7.8 1.2.8 2.5 0 4.3-6.5 9.1-13.6 9.1-2.6 0-3.4 1.8-3.4 2.7 0 2.1 2.1 3.1 5.2 3.1zm-1.7-8.9c-1.1 0-2.7 0-3.5-1.7-.7-1.4-.5-3.7-1.8-4.7 1.3.4 2.7.4 3.8.4 3.5 0 6.9-2.4 9.5-2.4 1.7 0 2.2 1.1 2.2 2.2 0 3.4-7 6.2-10.2 6.2zM30.4 106.9c2.6 0 2.1-16.2 6.4-16.2 1 0 1.3 1 1.3 2.3 0 3.7-1.8 9.1-1.8 12 0 1.5.4 2 1.1 2 1.9 0 5.1-17.9 8.3-17.9 1 0 1.5 1 1.5 2 0 3.7-4.8 14.5-4.8 17.5 0 .5.2.9.5.9 2 0 5.9-8.4 7.1-12.6.7-2.2 1.6-3.4 2.5-3.4.8 0 1.5.9 1.5 2.7 0 4.2-3.9 14.1-7.3 20.8-2.6 5-6.7 12.4-6.7 16.6 0 2.1.4 4.3 3.4 6.9-5-.3-7-.8-8.9-4.7-8.3 16.6 15.4 15 7.3 29.7-1.5-2.6-13.2-5.4-13.2-20.8 0-13.3 11.7-21.1 11.7-26.7 0-1.1-.4-2-1.4-2.9-2.6-2.2-2.7-4-4.7-4-1.5 0-3.3 3.4-1.4 6.5.6 1 1.2 1.6 1.2 2.6 0 2.2-3.4 8-5.8 8s-4.3-6-4.3-15.7c0-8.6 1.9-17.2 4.4-17.2.7 0 .9.5.9 1.1 0 1-.3 3-.3 6.5-.1 3.7.7 4 1.5 4z"/><path fill="#fff" class="logo-shape" d="M50.2 129.8c3.3 0 6-2.4 6-7.8v-8c0-3 .2-6.5 2.3-8.9-.2 1-.2 2.1-.2 3.1 0 6.7 3.7 11.3 3.7 17.8 0 2.4-.7 3.7-2.6 3.7-1.8 0-1.6-1.6-2-1.6-.3 0-.8 1-.8 2.1 0 1.6 1.2 4.2 4.4 4.2 2.8 0 5.1-2.6 5.1-5.5 0-7-5.5-14.8-5.5-22.3 0-3.3.9-5.5 1.6-7.2 0 15.5 13.2 26.8 13.2 33.3 0 1.5-1.1 2.7-2.7 2.7-1.8 0-2.7-1.4-2.7-2.5 0-.5-.1-.7-.3-.7-.5 0-1.9 1.6-1.9 3.6 0 2.6 2.1 5.7 6 5.7 4.4 0 6.9-3.7 6.9-7.1 0-8.2-16-20.6-16-33.9 0-2.3.4-5.9 2-8.7-10.3 6.6-13.5 15.4-13.5 23.2 0 6.7-.2 10.1-3.7 10.1-1.8 0-2.3-1.6-2.9-1.6-.5 0-.7 1.4-.7 1.8.1 2.8 2.2 4.5 4.3 4.5zM185.4 51.8c3.4 0 6-1.6 6-2.5 0-.3-.5-.5-1.5-.5s-3-.1-6.9-.7c-3.3-.5-5.8-1.8-6.7-1.8-.3 0-.5.2-.5.4.1 2 3.9 5.1 9.6 5.1zm-17-9.9c1-.7 5.4.4 11.1-2.4.7-.4 1.4-.5 2-.5 2.7 0 2 3.1 4.5 3.1 1.9 0 4.4-1.6 5.9-1.6 2.3 0 5.7 7.3 5.7 10.8 0 4-6 6.4-13.1 6.4-10.4 0-16.6-9-16.6-14.9.1-.6.3-.7.5-.9zM51.9 159.2c-2.6.6-6.7 4.7-6.7 11.1 0 7.6 8.2 19.4 21.7 19.4 11.4 0 14.2-7.9 14.2-13.2 0-11.8-7.2-20.1-16.7-20.1-5.1 0-9.8 3.7-9.8 9.3 0 5.2 3.9 12.9 13.2 12.9 4.4 0 6.9-3.1 6.9-6.7 0-3.5-3.2-8.3-7.9-8.3-1.4 0-2.4.9-2.4 2.4 0 1.9 2.6 3.7 5.8 3.7.8 0 1.4-.2 1.7-.3.2.2.2.6.2.9 0 1.8-1.7 2.9-4.4 2.9-4 0-7.8-3-7.8-7.7 0-2.8 2.4-4.8 5.9-4.8 6.9 0 11.1 6.2 11.1 12.3 0 5.5-3 8.7-9.3 8.7-12.4.1-18.4-11.1-15.7-22.5zM134.9 189.3c0 1.7 1.4 3.1 3.1 3.1 1.7 0 3.1-1.4 3.1-3.1s-1.4-3.1-3.1-3.1c-1.7 0-3.1 1.4-3.1 3.1zm6 15.6c3.7 0 3.5-.3 4.7-.3s1.2.7 1.2 1.2c0 1.7-3.8 3.8-10.6 3.8-4 0-6.4-2.1-7.1-4.5-3.9 2.5-9.8 4.8-15.7 4.8-16 0-20-6.9-25-9.2-3.8-1.7-9.7 1.6-17.9-7.5 1.1.2 2.6.3 3.7.3 7.2 0 11-3.5 11-9.1 0-.7-.1-1.5-.2-2.2 2.2.9 7.2 4.6 8.4 11.2.2.8 3.4 1.5 5.4 1.5 2.8 0 6.4-1.2 6.9-5.8 9.4-.8 15.7-6.3 17-13.3 3.3 1.1 7.2 4.1 8.1 5.7 1.3-.5 2.9-.7 4.7-.7 2.5 0 5.3.5 8.7 1.5.2-1 .3-2.3 1.9-2.3 2.3 0 1.7 2.6 2.5 4.1.4.8 2.3 1.2 2.3 2.8 0 1.5-1.3 2-2 2-.3 0-.7-.1-.9-.2-1.6.5-1.6 11.8-8.2 11.8-4.8 0-9.3-4-11.2-9-.5-1.5-1.7-2.4-2.8-2.4-1.2 0-1.9.2-3.4 1.9-4.2 4.6-11.2 8.6-19.9 8.6-2.7 0-4.8-.2-5.3-.2-.3 0-.3.1-.3.2 0 .5 2.7 2.7 8.4 2.7 13.7 0 17.1-7.7 19.3-7.7.3 0 1.2 0 1.8 1.2 3.2 7.4 10.2 9.1 14.5 9.1zM188.2 155.2c-1.6 0-10.7 12.1-16.5 12.1-1.4 0-2.6-2.7-2.6-4.7 0-1.1.7-1.9 3.2-2.4 13.4-3 10.4-13.1 21.9-13.1 6.3 0 13.3 4.3 13.3 14 0 10.3-14.7 23.1-16.8 23.1-1.8 0-3.7-2.6-3.7-4.3 0-.5.2-1.2 1.8-1.9 7.5-3 11.8-9.8 11.8-13.3 0-.8-.4-1.6-1.4-1.6-1.3 0-7 12.9-13.3 12.9-4.4 0-8.8-4-8.8-5.8 0-3.1 12.6-8.9 12.6-13.3-.1-1.6-.8-1.7-1.5-1.7zm8.5-4.8c-1.1 0-2.3.9-2.3 3 0 2.3 1.8 3.8 2.8 4.3.5.3 1.4.6 2.3.6 2.3 0 4.1-.6 4.1-2.5-.1-2.5-3.6-5.4-6.9-5.4zM50.9 60c0 1.7 1.4 3.1 3.1 3.1 1.7 0 3.1-1.4 3.1-3.1s-1.4-3.1-3.1-3.1c-1.6 0-3.1 1.4-3.1 3.1zm-4-7c0 1.7 1.4 3.1 3.1 3.1 1.7 0 3.1-1.4 3.1-3.1s-1.4-3.1-3.1-3.1c-1.7 0-3.1 1.4-3.1 3.1zm-2.8 21.4c-1.8.5-5.5 2.7-5.5 6.6 0 2.8 2.2 4.6 4.9 4.6 1.4 0 2.4-.3 3-.8-2.2-2.1-3-4.4-3-6.8 0-1.7.3-2.7.6-3.6zM25 75.5c-.1.4-.1.8-.1 1.2 0 3.7 1.9 5.7 4.5 5.7 1.9 0 4.2-1.2 6.2-3.7-.9.2-1.9.2-2.8.2-2.8-.1-6-.9-7.8-3.4zm-2.8 6.9c0 5.9 1.8 8.7 5 8.7 2.5 0 5.8-1.8 9.8-5.2-3 .7-5.4 1.2-7.5 1.2-2.7 0-4.9-1.1-7.3-4.7zm20.2-31.2c.4-1.2.7-2.8.7-4.5 0-3.7-1.7-9.4-7-9.4-3 0-5.2 2.4-5.2 5.3 0 6.1 6.2 8.6 11.5 8.6zm-6.6 19.7c-2.6 0-5.4-3.2-5.4-6.1 0-1.6 1.2-3.5 2-3.5.3 0 .5.2.5.8.5 3.8 3 6 5.3 7.1.2.2.4.2.4.4.1.5-1.4 1.3-2.8 1.3zm7.2-9.6c.5.7 2 1.6 2 2.2 0 1.1-.6 2.5-1.9 2.5-2.7 0-4.9-4.1-4.9-6.5 0-1.5.9-1.6 2-1.6.5 0 .8.1 1.2.3.7.4.7 2 1.6 3.1zM24.7 71c-.1.2-.2.5-.2.9 0 .7.8 1.5 1.5 1.5.6 0 1-.2 1.3-.2 1.9 0 4 1.3 7 1.3 1.8 0 3.9-.5 6.6-1.9 5.6-2.8 7.8-9.8 7.8-10.9 0-1.5-1.2-1.3-2.2-2.7-1-1.4-.6-2.6-1.2-3.2-.4-.4-1.5-.4-2.9-.5-.5-.1-1.1-.1-1.7-.1-2.6 0-5.6.3-9 2.5-6.9 4.4-6 11.5-7 13.3zm25.9-3.1c-1.7 2-3.5 5.5-3.5 9 0 4.2 2.6 7.7 6.6 7.7 3.8 0 5.6-3.3 5.6-6.6-.1-5.3-4.8-8.9-8.7-10.1zm-16.7-15s-2.3 1.7-5.1 1.7c-3.4 0-6-2.5-6-6 0-2.4 1.2-4.9 4.1-6.2-.1.5-.1.9-.1 1.3 0 4.5 2.5 7.9 7.1 9.2zM171.4 78.8c0 1.8 1.5 3.3 3.3 3.3s3.3-1.5 3.3-3.3c0-1.8-1.5-3.3-3.3-3.3s-3.3 1.5-3.3 3.3zm.2 9.8c0 2 1.6 3.7 3.7 3.7 2 0 3.7-1.6 3.7-3.7 0-2-1.6-3.7-3.7-3.7-2 .1-3.7 1.7-3.7 3.7zm-11.2 6.7c0 3 2.4 5.4 5.4 5.4s5.4-2.4 5.4-5.4-2.4-5.4-5.4-5.4-5.4 2.4-5.4 5.4zm2.9-11c0 1.7 1.4 3.1 3.1 3.1s3.1-1.4 3.1-3.1c0-1.7-1.4-3.1-3.1-3.1-1.7 0-3.1 1.4-3.1 3.1zm-10.2 6.2c0 1.7 1.4 3.1 3.1 3.1s3.1-1.4 3.1-3.1-1.4-3.1-3.1-3.1-3.1 1.4-3.1 3.1zm8-18.2c0 2.7 2.3 5 5 5s5-2.3 5-5-2.3-5-5-5-5 2.2-5 5zm5.8-9.6c0 1.6 1.3 3 3 3 1.6 0 3-1.3 3-3 0-1.6-1.3-3-3-3-1.6 0-3 1.3-3 3zm-14.1 7.5c0 1.6 1.3 3 2.9 3s3-1.3 3-3c0-1.6-1.3-3-3-3-1.5 0-2.9 1.3-2.9 3zm-.4 10.1c0 2.7 2.1 4.8 4.7 4.8 2.7 0 4.8-2.1 4.8-4.8 0-2.7-2.1-4.8-4.8-4.8-2.6 0-4.7 2.1-4.7 4.8zm-9.8 5c0 2.4 2 4.4 4.4 4.4s4.4-2 4.4-4.4-2-4.4-4.4-4.4c-2.4-.1-4.4 2-4.4 4.4zm2.7-11c0 1.7 1.4 3.1 3.1 3.1s3.1-1.4 3.1-3.1c0-1.7-1.4-3.1-3.1-3.1-1.7 0-3.1 1.4-3.1 3.1zm27.3 24c0-1.6 1.4-2.9 2.9-2.9 1.7 0 3 1.3 3 2.9 0 1.8-1.3 3-3 3-1.4.1-2.9-1.2-2.9-3zM174.7 188c.4 0 .9.2.9 1.6 0 1.7-.8 4-3.6 5.8-2 1.3-4.6 2.4-8.5 2.5.6-1.9 1.1-3.8 1.1-5.7 0-.6-.1-1.1-.2-1.8h1c6.2.1 8.8-2.4 9.3-2.4zm.6-7.7c.6-.5.8-1.4.8-2.3v-1.8c0-2.3-3.4-3.6-8.1-3.6-5.7 0-8.7 2.6-8.7 3.7v3.6c0 1.5 3.4 3 7.7 3 3.2 0 6.3-.9 8.3-2.6zm4 .9c-2 1.6-6.8 5.1-14.7 5.1-4.2 0-6.1-1.3-6.7-1.3-.8 0-1.6.8-2.5 1.8-1.9 2.2-4.3 6.2-4.3 10.7 0 3.1 2.4 6.2 6.9 6.2 14.6 0 25.5-9.1 25.5-16.5.1-4.3-2.4-6-4.2-6zM182.1 115.6c0 1.9.6 4.2 2.6 4.2 1.6 0 3-2.5 3-5.2 0-3.1-.5-5.5-.5-6.8 0-.5.2-.8.5-.8 1.2.1 2.3 3.3 3.5 3.3 1.4 0 3.5-2.6 4.4-2.6.2 0 .3.3.3.4 0 1.2-1.8 3.8-1.8 4.8 0 .9 4.5 1 4.5 1.8 0 1.2-4.7 1.2-7 2.2-2.2.9-3.5 2.1-3.5 3.7s1.6 1.9 3.8 1.9c5.2 0 8.9-2.8 10-2.8.2 0 .4.2.4.4 0 .8-2.7 3.4-2.7 4.5 0 1.3 4.8 2.9 4.8 3.7-.1.2-.4.3-.9.3-.9 0-2.2-.2-3.2-.2-.6 0-1.2.1-1.4.4-.5.6.2 4.8-.9 4.8-1 0-3.7-9.2-9.7-9.2-.9 0-1.5.7-1.5 1.9 0 3.1 3 6.7 5.9 8.4 1.3.9 3.5 1.7 3.5 2.2 0 .9-5 .1-5 1.6 0 1.4.6 3.5.6 4.8 0 .4-.1.9-.5.9-.9 0-3.2-4.3-4.3-4.3-.9 0-3 2.6-3.8 2.6-.2 0-.4-.2-.4-.5 0-1.8 2.9-5.9 2.9-9.8 0-1.9-.2-5.9-2.5-5.9-1.9 0-4 3-4.9 5.9-.5 1.7-.2 8.3-1.4 8.3s-.9-4.4-2.4-4.4c-1.2 0-3.6 2.1-4.5 2.1-.2 0-.3-.1-.3-.2 0-.9 2.3-4 2.3-4.6 0-1.2-5.2-1.3-5.2-2.3 0-.5 2-.9 3.9-1.2 4-.7 9.8-3.6 9.8-7.6 0-4.5-4.4-6.5-7.2-8.3-1.5-.9-3.1-1.7-3.1-2.3s1.9-.6 2.7-.6c1.2 0 2.3-.1 2.3-1 0-.7-.2-2.1-.2-3.2 0-.8.1-1.4.4-1.4 1.2 0 2.8 3.8 3.6 3.8 1.2 0 3-3.1 4.1-3.1.4 0 .5.2.5.9 0 2.4-1.5 5.6-1.5 8.5zm-37.2-22.9c.9 6.6 9.8 3.3 9.8 11.3 0 1.2-.3 2.9-.3 4.4 0 1.7.2 3.2 1.5 3.2s1.6-.9 1.6-2.2c0-1.2-.3-2.8-.3-3.7 0-2.7 2-3.4 3.1-3.4 3 0 5.2 3 9.7 3-1 5-11.3 3.7-11.3 9.1 0 2.7 2.7 3.4 4.5 3.4 1.6 0 2.2-.2 2.2-1.6 0-.8-.2-1.6-.2-2.2 0-.3.2-.6.6-.6 1.7 0 10.1 6.4 10.1 8.4 0 1.8-8.9 3.6-11.5 3.6-.8 0-.9-.5-.9-.9 0-.5 1.3-2.2 1.3-3.1 0-.7-1.2-1.2-4.3-1.2-1.5 0-2.6.2-2.6 1.3 0 2.1 3.4 4.7 3.4 6.6 0 1.6-.9 2.5-3.4 2.5-2.1 0-5.3-1.6-5.3-4.4 0-2.2 2.2-4.4 2.2-5.7 0-.4-.3-1-1.2-1-2.9 0-3.7 7.6-13.9 8.5 1.6-1.5 3-3.1 3-6.5 0-1.6-.4-3-.4-4.8 0-2.3 1.1-3.5 2.7-3.5 2.9 0 4.3 4.1 6.2 4.1 1 0 2.1-.9 2.1-2.3 0-5.9-11.4-5.1-11.4-13.4.1-2.2.9-5 3-8.9z"/><path fill="#fff" class="logo-shape" d="M159.7 143.4c0 1.1.8 1.9 1.9 1.9 1.2 0 2-1.1 2-2.3 0-1.6-1.5-3.9-2.9-3.9-.6 0-.4.9-.5 2-.1.7-.5 1.7-.5 2.3zm-4.1-10.4c8.2 1.6 12.6 7.7 12.6 13.5 0 4-2.5 7.6-6.9 7.6-4 0-6.9-2.7-6.9-7.1 0-3.3 2.6-6.7 2.6-10.1.1-1.2-.3-2.5-1.4-3.9zm-10.3 13.3c.8.8 1 1.6 1 2.3 0 1.2-.5 2.4-.5 3.7 0 1.9 1.4 3.5 3.4 3.5 2.2 0 3.7-1.7 3.7-3.7-.1-2.9-3.1-5.8-7.6-5.8zm25.8-5c.5.9.8 1.7.8 2.5 0 2.2-1.5 4.2-1.5 6.5 0 2.6 2 4.7 4.9 4.7 3.2 0 5.4-2.6 5.4-5.6 0-4.2-3.8-7.7-9.6-8.1zm-24-4.1c3.6.5 4.5 1.7 4.5 2.7 0 1.7-1.6 2.3-3.1 2.3-1.1 0-2.3-.2-3.7-.2-1.7 0-3.4.4-4.8 2 1 .2 2.5.9 2.5 2.4 0 4.5-12.6.8-12.6 12.4 0 6.2 6.4 12.9 16.1 12.9 5 0 8.2-1.6 8.2-3.5 0-1.5-2.7-.5-2.7-1.7 0-.5.9-1.6.9-2.4 0-.4-.3-1.1-.9-1.1-1.4 0-4.1 2.3-9.4 2.3-4.2 0-8.3-2.4-8.3-5.7 0-.7.3-1.1.8-1.1s1.1.3 1.6.3.5-.3.5-1.2c0-.9 0-3.3 1.5-3.3s4.3 5.5 15.1 5.5c3.6 0 10.5-.7 13.1-3-.1 8.6-6.8 19.9-20.8 19.9-14.6 0-22.4-11.7-22.4-22.5 0-11.9 9.7-22.8 23.1-22.8 3.4 0 6.3 1.2 6.3 2.6 0 2-5.1.7-5.5 3.2zM96.7 48.1c5.1 0 7.5 4.4 7.5 9.4 0 2.2-.6 5.4-1.6 5.4s-.9-1.8-1-3.4c-.2-2.1-.5-2.6-1.2-2.6-1.3 0-2.2 3.1-2.2 6 0 1.8.3 3.8 1.7 3.8.8 0 1.5-.4 2-.9-.3 3.6-3 6.7-6.7 6.7-6.9 0-9.4-8-10.2-12.7-4.1 4.4-8 7.6-14.8 7.6-6.4 0-9.3-4.7-9.3-9.1 0-1.3.5-4.8 2.1-4.8 1.9 0 .2 6.4 4.1 6.4.9 0 2.7-.8 3.6-3.4.5-1.6.9-3.2.9-4.6 0-2.1-.5-3.4-2-3.4-1.3 0-3 1-3.5 1.6 1.9-5.6 6.4-8.5 11.4-8.5 6.2 0 9.4 5.5 9.4 11.5 0 .9-.1 1.8-.2 2.7 2.3-4.4 6-7.7 10-7.7zm-6 9.2c0-1.3-.3-1.6-.6-1.6-.8 0-1.6.9-2.9 3 .2 2.8.6 4.1 1.4 4.1.8-.1 2.1-2.8 2.1-5.5zM80 60.5c.9 0 2-.9 4-3.2.2-1 .2-2 .2-3.1 0-1.6-.6-3.3-1.6-3.3-2.3 0-3.5 6.2-3.5 7.9-.1.9.4 1.7.9 1.7zm12.7 6.9c1.9 0 4.1-7.5 4.1-12.2 0-1-.2-2.1-.6-2.1-1.6 0-4.4 7.7-4.4 11.9 0 1.7.4 2.4.9 2.4zm-19.1-4.3c2.7 0 5.7-14.4 5.7-16.8 0-.6-.2-1.1-.8-1.1-2.4 0-5.8 13.7-5.8 16.7 0 .6.2 1.2.9 1.2z"/><path fill="#fff" class="logo-shape" d="M82.1 69.1c-3.4 0-3.5 4.1-3.5 12.2-2.5-5.4-6.6-11.2-11.5-11.2-3.3 0-4.5 2.2-4.5 6 0 .8.1 2 .2 2.7.4-1.3 1.6-1.9 3.2-1.9 3.4 0 7.4 2.6 10.1 6.1-3-.5-6-1.1-8.5-1.1-1.6 0-3 .2-4.1.7-2.3 1-5.3 4.4-5.3 9.4 0 .8.1 1.6.2 2.6 2.7-6.1 10-8.8 14.7-8.8.9 0 1.6.1 2.2.2-2.4 2.2-3 6-3.1 8.6-.1 1.2-.5 1.3-1.4 1.3 0 2.6 2 6.4 2 8.3 0 .7-.4 1.3-.8 1.5 0 3.4 3.4 5.9 3.4 8.1 0 .5-.2 1-.4 1.2.2 1.4 4 3.8 4.5 4.9.6 1.4 1.3 1.7 1.7 1.7 1.3 0 3.4-1.6 3.4-3 0-.5-.4-1-.7-1.2-1.5-1.1-2.3-3.4-2.9-5-.5 0-1.3-.2-1.5-1.1-.4-1.6-.4-4.6-1.1-6.4-1-.2-1.5-.6-1.5-2.7 0-1 .6-5 .6-6.4-.5 0-1.1-.3-1.1-1.2 0-2.5 2.5-4.4 3.2-7.6 4.4 3.3 5.5 6.6 5.5 9.6 0 1.6-.2 3-.5 4.4 3.3-1.6 8.2-4.1 8.2-9 0-2.9-1.3-6.1-10.1-7.3 2.7-1 6.2-1.6 9-1.6 5 0 7.9 1.6 8.5 5.1 1-1.6 1.8-3.4 1.8-5 0-3.8-3.2-6.3-7.3-6.3-4.8 0-9 2.5-13.5 5.5 2-4.2 3.4-6.7 5.9-6.7.4 0 .8.1 1.2.2-.8-3.5-4.4-6.8-6.2-6.8zM213.5 125.3c3.9 0 7 5.1 7 11 0 6.3-3 13.2-8.3 17.9-.1-10.5-13-7.2-13-14.8 0-3.3 2.3-5.5 5.2-5.5 2.5 0 4.4.7 5.9 2.1-1.4-1.3-2.1-3.2-2.1-5 0-3 1.9-5.7 5.3-5.7zM155.6 45.5c-.6-1-3-1.6-4-1.6-3.4 0-5.8 2.4-6.2 4.6-.3-.8-.5-1.7-.5-2.7 0-3.4 2.3-7.6 8-7.6 5 0 6.9 2.6 7.6 2.6.8 0 1.6-.8 2.2-.8.9 0 .9 1.3.9 2.3 0 3.1-1.4 8.5-4.9 10.5-.6-1.3-1.9-2.8-3.9-3.7-.5-.2-.8-.7-.8-1.2-.1-.8.7-1.9 1.6-2.4zm-11.7 5.7c2 2 3.8 2.8 6 2.8.9 0 1.9-.2 2.4-.2.7 0 1.2.3 1.2.9 0 .9-.8 2.3-1.7 3 .9.4 2 .5 3 .5 4.4 0 9.5-2.8 9.5-9.8.9 1.2 1.5 3.8 1.5 5 0 8.5-6.2 11.8-12 11.8-3.8 0-5.6-1.2-6.1-1.2-1.5 0-1.4 3-2.4 2.9-1.8-.3-3.4-4.3-3.4-8.5-.1-2.6.6-5.2 2-7.2zM77.1 1.6c0-.5-2.3-.9-5.5-.9-5.1 0-4.4 4.2-8.3 4.2-4.1 0-3-4.4-8.2-4.4-3.1 0-6 .5-6 1.2 0 .9 3.7.5 3.7 3.1 0 2.7-7.9 3.5-7.9 5.1 0 .5.6.8 1.4.8 1.7 0 4.4-.8 6.4-.8 1.1 0 2.1.2 2.1 1.2 0 2-4.2 5.5-4.2 7 0 .5.4.6.8.6 1.6 0 4.2-4 6.7-4 4.1 0 1.4 8.8 3.7 8.8s1.3-8.7 4.7-8.7c2.7 0 4.8 6 6.6 6 .5 0 .9-.4.9-.9 0-1.6-2.3-5-2.3-7.2 0-1.3.9-2 2.2-2 1.8 0 4.2 1.1 5.5 1.1.5 0 .9-.2.9-.7 0-1.9-6.9-3.9-6.9-6.3-.1-2.1 3.7-2.1 3.7-3.2zm18.3 7.9c0 1.4 4.9 4.4 7.2 4.4 1.3 0 1.7-1.8 1.7-3.7 0-2.3-1-2.4-3-2.4-2.6.1-5.9.8-5.9 1.7zm8.1 15.5c0-4.7-12.7-13.2-12.8-16.8 0-.3.2-.7.5-1 2.2-2.3 11.2-4 11.2-5.9 0-1-1.9-1-2.8-1C92.3.3 81.7 3 81.7 5.5c0 2.7 9.5 9.1 9.5 12.3 0 .9-.5 1.2-1.4 1.2-2.6 0-8.4-3.2-11.2-3.2-1.2 0-1.7.9-1.7 2.1 0 3.7 4.4 10.8 4.4 12.9 0 .2-.1.5-.4.5-1.4 0-8-7.8-10.4-7.8-.9 0-.9 1.2-.9 2.9v2.7c0 1.8-.1 2.9-.9 2.9-2 0-3-5.7-4.9-5.7-2 0-2.4 10.1-4.4 10.1-2.3 0-.3-11.2-2.5-11.2-2.4 0-5.1 7.4-6.9 7.4-.6 0-.8-.6-.8-1.2 0-2.3 1.3-5.9 1.3-8.1 0-1.1-.3-1.7-1.2-1.7-2.4 0-7.7 3.9-9.8 3.9-.3 0-.7-.2-.7-.5 0-1.9 8.5-7.8 8.5-10.5 0-2.6-11.7-.9-11.7-3.8 0-2.5 8.4-5.1 8.4-7.6C44 .8 34.1-.2 30.3-.2c-4.6 0-7.1.5-7.1 1.9 0 2 10.5 2.7 10.5 4.4 0 1.7-10.8 6.3-10.8 9 0 2.3 15.3.2 15.3 2.6 0 2.7-13.3 14.1-13.3 17.9 0 .9.6 1.2 1.5 1.2 4.1 0 14.6-7.7 17.5-7.7 1 0 1.1 1.2 1.1 2.3 0 2-.7 5.1-.7 7.4 0 1.8.5 3 2 3 2.9 0 5.5-4.9 7.5-4.9 2.5 0 1 14.4 4.8 14.4 3.2 0 4.5-15.6 6.5-15.6s3.7 4.5 5.5 4.5c2.3 0 1.2-7.9 3.7-7.9 2.7 0 10.5 9.4 14 9.4 1.1 0 1.5-.9 1.5-2 0-4.1-5.8-13.5-5.8-16.5 0-.8.2-1 1.1-1 3 0 11.9 4.2 16.1 4.2 1.5.4 2.3-.4 2.3-1.4zm-71.2-4.5c0 1.6-5.9 6.8-8 6.8-.8 0-1-.9-1-1.8 0-1.6.7-3.7 1.6-4.4 1-.9 3.4-1.4 5.1-1.4 1.1-.1 2.3.1 2.3.8zm57.3 8c0 2.7 9.8 16.1 11.6 16.1 1.6 0 2.7-2.7 2.7-5.1 0-.6-.2-1.2-.5-1.7-1.4-2-11.3-9.8-13.5-9.8-.1 0-.3.3-.3.5zM214.9 4.9c0 1.1.9 1.9 2 1.9s2-.9 2-1.9c0-1.1-.9-2-2-2s-2 .9-2 2zm-12.7 17.2c0-5.5-13.3-6.9-13.3-8.2 0-1 7.4-2.7 11.2-2.8-5.9-7.5-14.2-6.7-14.2-8 0-.8 6.2-2.3 12-2.3 4.8 0 9.4 1.1 9.4 4.8 0 2-1.6 4.1-1.6 7.3 0 1.7.9 3.2 3.1 3.2 2.4 0 3-2.6 3-5.3 0-2.3-.4-4-.4-5.1 0-3.3 2.2-5.5 5.4-5.5 2.7 0 3.3 1.2 7.2 1.2-2.1 1.3-2.9 3.5-2.9 4.6 0 3.3 2.1 5.5 2.1 12.2 0 12.3-11.5 16.7-25.7 16.7-3.9 0-8-.3-12.1-.9-.6-.1-.8-.2-.8-.6 0-1 5.5-1.6 5.5-6.6 0-2-.6-3.8-.6-4.5 0-.4.3-.6.6-.6 1.2 0 3.5 4.5 7.9 4.5 1.3-.1 4.2-.5 4.2-4.1zm13.2-7.9c0 6.9-5.1 12.2-14.2 13.7 1 .1 2 .1 2.9.1 10.7 0 14.6-4.8 14.6-8.9 0-2.2-1.3-4.2-3.3-4.9zM210 114.8c1.2-3.9 2.8-6.6 5.4-10.8-2.6-1.3-9.4-4.1-9.4-8.7 0-5.4 6.7-9.6 8.1-9.6.6 0 .8.5.8 1.6 0 2.8-1.3 7.3-1.3 9.8 0 2.2 1.4 4.3 2.7 4.3 1.3 0 5-4.7 5-9.3 0-8.3-7.3-10.8-9.5-10.8-2.1 0-5.9 3.4-14.9 3.4-16.8 0-20.6-16.6-20.6-23.9 0-.3.1-.4.2-.4.4 0 2 2 7.3 2 2.7 0 5.2-.7 9.2-.7 9.3 0 13.5 6.5 19.3 14.7 3.5 2.2 11.9 5.7 11.9 15.6 0 8.7-9.3 13.6-11.5 22.9 3.6-.4 5.7-6.8 9.4-6.8 1.9 0 2.7 1.5 2.7 3.8 0 3.4-2 8.6-5.7 11.8.1-.3.1-.7.1-1.2 0-2.2-.9-5.3-3.4-5.3-3.9 0-5.1 4.2-7.3 7.7-2.3-8-5.3-15.1-10.8-19.5-5.5-4.4-15.1-2-15.1-10.1 0-2.2 1.4-5.3 1.4-7.8 0-.9-.2-1.6-.6-2.3 7.5 2.8 4.8 7.8 9.5 12.9 2.9 3.3 10.8 6.4 15.4 19.9.1-.4.2-1.4.2-2.1 0-11.5-15.3-22.9-16.6-27.5 8.9 1 10.4 3.2 14.7 14.9.6 2.5 3.4 8.5 3.4 11.5zm-2-37.9c0-1.6-4.1-1.8-4.5-6.4-.1-.7-.3-1.9-1.2-1.9-1.4 0-.3 4.3-1.9 4.3-3.6 0-4.8-7-6.1-7-.3 0-.7.2-.7 1.2 0 .9.2 1.4.2 2.4s-.2 1.7-1.2 1.7c-2.1 0-4-4.9-5.8-4.9-.4 0-.8.2-.8.6 0 .9 1.6 2.7 1.6 3.5 0 1.9-5.1.9-5.1 2.4 0 .7.7.9 1.6.9 1.6 0 4.2-.7 5.5-.7.8 0 2 .2 2 1.2 0 1.1-2.8 2.5-2.8 3.5 0 .5.5.7.9.7 2.1 0 5.8-3.7 8.5-3.7.5 0 1.6.2 1.6.9 0 1-2.6 2.8-2.6 4.3 0 .4.2.9.7.9 1.4 0 3.3-3.7 5.9-3.7 1 0 2.5.4 3.3.4.6.1.9-.3.9-.6z"/><path fill="#fff" class="logo-shape" d="M149.9 30.2c1.3 0 1.5 3 1.7 4.8.2.9.3 1 .7 1 .9 0 2.4-3.6 3.4-3.6 1.5 0 5.5 4.1 12.1 4.1 9.4 0 18.3-6.6 18.3-18.3 0-11.3-8-17.9-19-17.9-5.2 0-9.1 2.6-11.1 2.6-1.2.1-3.1-3-4-3-.4 0-.8.8-.8 2.1 0 .9 0 3.6-.9 3.6-1.9 0-9.1-5.4-9.1-3.4 0 1.8 4.8 7.3 4.8 8.7 0 1.4-4.8 2.7-4.8 3.7 0 1.7 5.1 2 5.1 4.2s-5.3 3.9-5.3 5.5c0 1.3 5.3.4 5.3 2s-3.9 7.1-3.9 8.7c0 .4.1.4.4.4 1.5-.1 6-5.2 7.1-5.2zm2.2-12.8c0-.9-3-2.5-3-3.4 0-.2.2-.2.4-.2.9 0 2.3.3 3.5.3 1 0 1.2-4.4 1.9-4.4.5 0 1.5 4.1 2.3 4.1 1 0 2.9-1.2 3.7-1.2.2 0 .3.1.3.2 0 .5-2 2.6-2 3.3 0 .7 4.4 1.6 4.4 2.2 0 .8-4.5.7-4.5 1.4 0 .5 1.6 2.7 1.6 3.4 0 .2-.1.2-.2.2-.6 0-3-1.1-3.7-1.1-.9 0-2.2 3.2-3 3.2-.2 0-.4-.3-.4-.7l-.2-3.1c0-.3-.2-.6-.5-.6-.9 0-2.7-.1-3.3-.1-.4 0-.5-.1-.5-.2.1-.5 3.2-2.7 3.2-3.3zm15.2 14.8c-5.5 0-9.1-2.7-9.1-4.1 0-.7.5-1.2 1.1-1.2 1.7 0 5.5 2.6 6.7 2.6.3 0 .5-.2.5-.6 0-1.4-1.3-3.7-1.3-4.9 0-.3.2-.5.7-.5 2.1 0 5.2.9 6.9.9.5 0 .7-.3.7-.6 0-1.7-5.1-5.1-5.1-6.1 0-.9 6.3-2.3 6.3-3.8 0-1.6-8.6-.5-8.6-2 0-1.1 1.6-3 1.6-3.8 0-.4-.3-.5-.9-.5-.7 0-4.5 1.5-6 1.5-.8 0-1.7-.2-1.7-1.2 0-1.8 3-3.7 7.8-3.7 7.7 0 12.3 5.3 12.3 14.2.2 11-7.6 13.8-11.9 13.8zM114.5 167.2c0 .7-.2 1.5-.9 2.3-.9-1.6-3.3-2.3-4.4-2.3-8 0-5 11.6-13.6 11.6-3.6 0-3.9-.5-5.2-.5-.5 0-.9.2-.9.7 0 2 2.9 7 10.9 7s15.8-4.9 15.8-11c0-1-.2-2.1-.7-3.2.3-.5 1.1-.8 1.8-.8 1.2 0 1.9 1.4 3.1 1.4 1.2 0 2.2-.9 2.2-2.2 0-1-.5-1.7-1.5-2.2.6-.5 1.1-1.2 1.1-2.1 0-1.3-.9-2.6-2.5-2.6-.7 0-1.2.2-1.7.8-.2-1.4-.9-2.7-2.4-2.7-1.2 0-2 .9-2 2.2.1 1.3.9 2.3.9 3.6z"/><path fill="#fff" class="logo-shape" d="M93.5 170.2c-2.3 0-5.9-2.5-5.9-3.9 0-1.2 1.1-1.8 1.9-1.8 2 0 5.5 2.4 5.5 4.4.1.6-.3 1.3-1.5 1.3zm-21.7-17.5c6.2 1.6 9.4 4.9 10 8.9.6 3.8 1.4 6.9 2.9 8.5 2 2.2 5.8 4.1 9.1 4.1 2.8 0 5.1-.9 5.1-3.5 0-2.8-3.8-9.1-9.4-9.1-.5 0-1.2.1-2 .1-.7 0-1.7-.2-2.3-.7-1.2-1.1-1.6-6.9-4-10.5-2.6-3.9-5.4-5-9.2-5-2.7 0-5.8 1.5-5.8 3.7-.1 1.3.6 2.2 5.6 3.5z"/><path fill="#fff" class="logo-shape" d="M110.9 143.2c0-3.5-7.3-3.6-7.3-8.9 0-1.3.9-3.6 2.6-6 .7 4.1 2.3 6.2 5.9 7.5 6.9 2.6 7.9 6.5 7.9 10.6 0 7-4.9 15.8-17.6 15.8-10.1 0-17.4-9-17.4-16.7 0-2.1.5-4.4 1.9-4.4 1.2 0 1.6.9 2.5 1.9 3.5 3.5 7.3 4.4 12.9 4.4 5-.1 8.6-2.1 8.6-4.2zm.3 5.6c-2.7 1.2-3.7 1-3.7 3.7 0 1-.2 2.3-.2 3 0 .9.2 1.5 1.2 1.5 2.8 0 7.3-4.8 7.3-8.8 0-1.1-.6-1.6-1.3-1.6-.7.1-1.4 1.3-3.3 2.2zm-24.8-39.4c0-5 11.9-7.6 11.9-13.8 0-1-.4-2.8-1.1-4.1 4.1 2.3 7.2 6.1 7.2 9.2 0 5.4-5.6 7.9-5.6 11.2 0 3.9 6 4.5 6 9.4 0 4-5.7 8.6-5.7 13.7 0 4 2.8 7.3 7.1 7.8-1.4.3-2.7.5-4 .5-7.9 0-16-6.5-16-14.2 0-3.8 1.6-7.2 4.1-9.6 2.2 1.9 4.4 3.1 5.8 3.1 1.2 0 1.8-.6 1.8-1.6-.1-2.8-11.5-5.4-11.5-11.6zM41.1 147.9c.3 2.7 2.8 4.7 5.6 4.4 1-.1 2-.4 2.6-.8.6 2.5 2.7 4.1 5.5 3.7 2.9-.4 4.8-2.6 4.5-5.5-.1-.8-.2-1.2-.5-1.8 0 0 .4 0 .7-.1 2.8-.5 4.7-2.8 4.5-5.5-.3-2.8-2.8-4.9-5.5-4.6-1 .1-2 .5-2.6 1.1-.7-2.3-2.9-4.4-5.9-3.9-2.7.4-4.5 2.8-4.2 5.7 0 .5.2 1 .4 1.6 0 0-.5.1-.8.1-2.2.3-4.7 2.6-4.3 5.6zm14.6-3c.2 1.6-1 3.1-2.6 3.3s-3.1-1-3.3-2.6c-.2-1.6 1-3.1 2.6-3.3s3.1.9 3.3 2.6z"/></svg>