<svg xmlns="http://www.w3.org/2000/svg" width="1222.667" height="1020.293" viewBox="0 0 323.497 269.952"><path d="M1.94 211.567v-58.384h66.49l.83 1.323a84.603 84.603 0 0 1 1.992 3.44 166.74 166.74 0 0 0 2.312 4.056c.633 1.067 3.22 5.512 5.748 9.878l4.597 7.937-23.345.177-23.346.176-.094 9.437-.094 9.437h42.345V223.915H37.218v18.894H95.603v27.143H1.94v-58.384zm118.004 35.23V223.64l-5.714-9.917c-3.142-5.454-6.873-11.877-8.29-14.274-1.417-2.396-2.576-4.413-2.576-4.482 0-.07-.496-.966-1.103-1.993a1520.116 1520.116 0 0 1-7-12.076c-.335-.594-3.234-5.605-6.442-11.135-8.852-15.256-9.46-16.33-9.324-16.466.145-.144 38.753-.177 38.861-.033.04.053 1.498 2.873 3.24 6.269 9.37 18.25 16.082 31.044 16.286 31.04.127-.004.956-1.393 1.842-3.088 2.712-5.184 12.475-23.948 15.234-29.279l2.604-5.03 19.027-.008c10.464-.005 19.07.078 19.122.183.13.263-.695 1.827-3.26 6.182-2.278 3.864-3.834 6.55-10.423 17.992a1179.7 1179.7 0 0 1-5.638 9.701 230.034 230.034 0 0 0-2.559 4.41c-.769 1.384-6.554 11.414-10.02 17.374-2.197 3.777-3.53 6.073-6.063 10.445l-2.526 4.359V269.952h-35.278zM0 118.23c0-.464 2.534-1.53 10.407-4.383 7.72-2.796 11.972-4.36 13.935-5.125 1.067-.416 2.416-.89 2.998-1.054 1.077-.303 2.352-.77 5.821-2.132 1.067-.42 3.645-1.351 5.729-2.071 2.084-.72 3.896-1.417 4.027-1.549.132-.131.5-.239.82-.239.32 0 1.206-.301 1.97-.67.764-.368 2.58-1.063 4.035-1.543 2.96-.977 7.263-2.607 8.197-3.105.337-.18.79-.326 1.005-.326.216 0 .893-.213 1.504-.472.611-.26 1.826-.724 2.7-1.032 4.199-1.482 9.347-3.361 10.406-3.799.388-.16 2.373-.882 4.41-1.603l7.585-2.688c2.134-.756 4.436-1.592 5.115-1.859.679-.266 3.854-1.435 7.055-2.597a5066.91 5066.91 0 0 0 7.938-2.888 845.38 845.38 0 0 1 5.82-2.09c4.858-1.725 9.44-3.477 10.76-4.113.583-.281 1.52-.594 2.084-.696.563-.102 1.278-.317 1.587-.478.31-.161 2.071-.812 3.914-1.446 1.844-.634 3.502-1.289 3.687-1.454.184-.166.674-.302 1.087-.302.414 0 .856-.103.981-.228.253-.253 2.738-1.163 6.24-2.286 1.26-.404 2.451-.85 2.646-.99.389-.283 4.44-1.794 9.877-3.685 1.94-.674 4.401-1.569 5.468-1.988 1.068-.42 3.846-1.442 6.174-2.272 2.328-.831 6.297-2.26 8.82-3.174 2.522-.915 5.697-2.06 7.055-2.544 1.358-.484 2.62-1.026 2.805-1.205.184-.179.615-.325.958-.325.342 0 1.144-.222 1.781-.494 1.593-.678 3.508-1.403 6.627-2.507 1.455-.515 2.963-1.067 3.351-1.226 1.43-.588 4.612-1.73 5.468-1.96.485-.132 1.835-.605 2.999-1.052 1.164-.446 4.18-1.56 6.703-2.474 2.522-.914 5.062-1.871 5.644-2.127 1.06-.466 3.586-1.358 9.512-3.359 1.739-.587 3.644-1.283 4.233-1.546.59-.264 2.024-.798 3.188-1.188a58.25 58.25 0 0 0 3.881-1.474c.97-.421 2.796-1.084 4.057-1.474 1.261-.389 2.788-1.01 3.393-1.379s1.4-.67 1.769-.67c.66 0 1.255-.203 7.185-2.443 4.875-1.842 5.79-2.2 6.392-2.507.313-.16 1.266-.47 2.116-.69 1.323-.342 4.751-1.525 7.19-2.482.389-.152 1.58-.598 2.647-.992a572.93 572.93 0 0 0 5.115-1.929c1.746-.668 3.81-1.404 4.586-1.637.776-.232 1.729-.567 2.117-.744.388-.177 2.769-1.061 5.291-1.965a987.794 987.794 0 0 0 7.409-2.686c1.552-.573 4.401-1.59 6.331-2.259 1.93-.669 3.677-1.344 3.881-1.5.204-.156 1.244-.548 2.311-.871 1.067-.324 2.576-.882 3.352-1.241 2.071-.959 6.88-2.588 8.202-2.778L323.497 0v61.429l-1.323.215c-.727.119-3.065.534-5.194.924-3.407.623-10.583 1.888-20.823 3.67-3.536.616-5.306.935-9.701 1.752-1.65.306-3.872.698-4.94.87-1.066.172-3.845.654-6.173 1.07-2.328.417-5.662.987-7.408 1.265-1.747.28-5.318.902-7.938 1.384-2.62.482-6.191 1.126-7.937 1.432-1.747.305-4.287.782-5.645 1.061-1.358.278-4.454.834-6.879 1.234-4.277.705-5.162.854-10.407 1.749-1.358.232-4.93.876-7.937 1.433a559.115 559.115 0 0 1-8.643 1.532c-4.481.736-6.53 1.097-10.76 1.897a252.53 252.53 0 0 1-6.174 1.09c-1.358.213-3.74.633-5.291.933-1.553.3-3.696.686-4.763.857-1.067.171-4.321.735-7.232 1.254-2.91.518-6.244 1.085-7.408 1.261-1.164.176-4.26.715-6.88 1.198-2.619.484-6.19 1.129-7.937 1.434-1.746.305-4.286.783-5.644 1.061-1.358.279-4.454.832-6.88 1.23-7.684 1.26-8.586 1.419-8.817 1.562-.124.076-1.485.307-3.024.513-1.54.206-4.069.615-5.62.909a1444.15 1444.15 0 0 1-9.526 1.74c-3.686.664-8.052 1.457-9.701 1.763-3.036.564-5.711 1-9.878 1.61a67.015 67.015 0 0 0-4.586.873c-2.27.531-6.088 1.196-21.343 3.715-1.358.225-3.581.626-4.94.893-3.269.643-13.471 2.475-16.58 2.978-1.358.22-3.66.62-5.115.888-1.455.269-4.075.73-5.82 1.026a927.274 927.274 0 0 0-8.997 1.599c-3.201.583-7.725 1.385-10.054 1.781-2.328.396-7.686 1.32-11.906 2.054-4.22.734-7.673 1.225-7.673 1.09z" fill="#fff" stroke-width=".353"/></svg>