<svg xmlns="http://www.w3.org/2000/svg" width="2666.036" height="753.068" viewBox="0 0 705.389 199.249"><path d="M88.733 199.033c-.68-.072-3.14-.447-5.468-.833-29.863-4.947-55.714-23.163-70.84-49.916C6.63 138.032 2.609 125.854.665 112.67c-.956-6.481-.865-20.155.18-26.988 3.364-21.998 12.932-41.1 28.273-56.44C59.524-1.163 106.143-8.693 144.574 10.596c26.436 13.268 45.875 38.076 52.478 66.973 1.851 8.104 2.254 12.027 2.266 22.049.011 9.639-.234 12.372-1.819 20.285-5.651 28.219-23.992 53.065-49.741 67.384-10.268 5.71-22.998 9.853-35.183 11.45-3.81.5-20.044.701-23.842.296zm-.79-40.346l-.092-18.147-9.349-.203c-8.356-.182-9.565-.284-11.386-.955-6.047-2.228-10.373-5.933-12.856-11.013-.807-1.649-1.645-3.95-1.863-5.115-.275-1.472-.36-9.202-.28-25.4.115-23.104.122-23.3.908-25.478 2.363-6.542 7.006-10.996 13.176-12.639 1.154-.307 3.617-.506 6.304-.51 2.425-.002 6.91-.108 9.966-.235l5.556-.23V22.536l-.97.003c-1.556.005-8.172 1.603-12.135 2.931-32.049 10.739-53.57 40.598-53.57 74.324 0 33.926 22.075 64.295 54.177 74.531 5.472 1.745 11.754 3.15 12.237 2.738.147-.126.226-8.395.176-18.376zm28.603 17.655c7.67-1.57 17.387-5.49 24.366-9.828 12.696-7.891 22.555-18.825 29.147-32.324 5.528-11.318 7.926-21.726 7.926-34.396 0-12.668-2.397-23.073-7.925-34.395-6.285-12.874-15.367-23.195-27.368-31.1-9.045-5.958-19.644-10.115-30.415-11.926l-1.326-.223.092 18.45.091 18.449 9.349.185c9.048.18 9.437.216 12.11 1.153 6.355 2.227 10.773 6.41 13.22 12.517l.952 2.372.1 23.405c.111 26.026.158 25.402-2.262 30.35-1.714 3.506-5.07 6.916-8.51 8.645-4.385 2.204-5.596 2.402-15.875 2.596l-9.26.174v5.722c0 3.147.105 11.46.233 18.472.232 12.684.237 12.75.97 12.6l4.385-.898zm8.486-57.993c.736-.666.742-.827.742-18.394 0-16.923-.03-17.759-.674-18.554l-.675-.833H74.912l-.674.833c-.644.795-.675 1.627-.675 18.28 0 11.67.125 17.678.376 18.148.207.386.723.85 1.147 1.03.455.194 10.663.294 24.987.245 23.256-.08 24.246-.11 24.959-.755zm408.377 72.826c-3.18-.367-5.389-1.244-8.014-3.18-4.18-3.085-5.893-6.804-6.177-13.412-.278-6.467 1.202-10.683 5.133-14.62 3.697-3.703 7.56-5.264 12.939-5.231 3.405.021 4.787.37 8.942 2.26l2.593 1.178.643-.794c.353-.437.722-.99.82-1.23.422-1.038.89.768 1.113 4.299.385 6.09.379 6.82-.06 6.976-.226.08-1.014-1.002-1.752-2.406-1.686-3.21-4.277-5.876-7.008-7.212-1.913-.935-2.456-1.035-5.644-1.033-3.86.004-4.726.291-7.432 2.482-4.07 3.295-5.654 11.328-3.543 17.977 1.104 3.48 2.362 5.504 4.755 7.654 2.416 2.17 5.05 3.157 8.542 3.197 2.3.026 3.008-.125 5.049-1.08 1.476-.691 3.21-1.915 4.587-3.236 2.306-2.215 3.387-2.66 3.387-1.397 0 1.018-4.897 5.763-7.1 6.88-2.17 1.099-6.658 2.287-8.39 2.221-.697-.026-2.22-.158-3.383-.293zM350.645 178.61c-6.389-6.904-12.264-13.283-13.056-14.174-.792-.89-1.532-1.471-1.644-1.29-.34.55-.735 17.836-.466 20.354.357 3.334 1.212 4.483 3.983 5.354 1.206.38 2.27.895 2.367 1.147.14.365-1.216.457-6.722.457-4.212 0-6.851-.13-6.78-.336.066-.184.991-.943 2.058-1.687 1.34-.932 2.071-1.73 2.362-2.574.49-1.425.583-16.25.14-22.395-.382-5.29-1.126-6.605-4.087-7.214-.6-.124-1.106-.479-1.172-.821-.105-.546.351-.603 4.807-.603h4.924l11.418 12.586c6.28 6.923 11.617 12.651 11.86 12.73.345.112.44-2.144.44-10.497v-10.64l-.985-.985c-.564-.565-1.854-1.238-3.022-1.577-3.577-1.04-2.44-1.43 4.477-1.537 4.938-.077 6.233 0 6.233.363 0 .253-.667.694-1.483.979-1.029.36-1.703.896-2.205 1.753-.694 1.187-.726 1.853-.83 17.198-.085 12.575-.202 15.963-.554 15.963-.245 0-5.673-5.65-12.063-12.554zm91.776 12.204c-6.183-1.119-10.616-4.772-12.559-10.349-.955-2.743-1.331-9.02-.717-11.972.66-3.172 2.549-6.577 4.883-8.804 3.725-3.553 7.407-4.864 13.642-4.857 7.195.008 10.97 1.794 14.287 6.76 2.056 3.08 2.895 6.053 2.918 10.345.05 8.999-4.054 15.173-12.013 18.075-2.642.963-7.49 1.336-10.441.802zm9.193-2.265c5.237-2.439 7.174-6.59 7.18-15.39 0-6.075-1.466-10.321-4.691-13.546-2.16-2.16-4.33-3.021-7.606-3.021-6.107 0-10.037 3.332-11.32 9.596-.598 2.917-.518 8.875.153 11.394 1.563 5.872 5.013 10.275 9 11.488 1.964.598 5.41.35 7.284-.521zm132.933 2.239c-.288-.466-.159-.597 1.31-1.33.645-.323 1.398-1.06 1.672-1.636.674-1.42 1.014-12.768.415-13.887-.413-.77-.464-.774-9.307-.68l-8.892.093-.096 6.28c-.126 8.186.38 9.405 4.168 10.052.835.143 1.583.455 1.663.695.112.338-1.727.436-8.175.436-4.575 0-8.32-.128-8.32-.285 0-.157.704-.78 1.564-1.387 2.95-2.08 2.83-1.438 2.972-15.774.144-14.514.033-15.464-1.899-16.271-.661-.276-1.664-.502-2.229-.502-.564 0-1.219-.232-1.453-.515-.35-.422-.28-.551.397-.717 1.438-.354 14.944-.035 14.85.35-.048.194-.554.473-1.125.621-.57.148-1.365.686-1.765 1.194-.667.849-.728 1.402-.728 6.656 0 4.236.118 5.828.453 6.106.285.236 3.514.411 8.686.47l8.231.095.664-.82c.577-.712.66-1.424.643-5.454-.01-2.61-.203-5.174-.44-5.87-.483-1.415-2.205-2.468-4.038-2.469-.783 0-1.146-.168-1.146-.53 0-.453 1.078-.529 7.585-.529 6.506 0 7.584.076 7.584.53 0 .324-.33.529-.85.529-.517 0-1.21.426-1.764 1.085l-.913 1.086v28.466l.89 1.06c.49.582 1.553 1.279 2.36 1.548 2.225.742 2.012 1.194-.68 1.449-3.931.37-12.026.275-12.286-.145zm63.474-13.064c-6.768-7.391-12.485-13.665-12.703-13.94-.217-.276-.654-.403-.97-.282-.51.196-.574 1.297-.574 10.043 0 5.837.158 10.56.39 11.64.517 2.411 1.802 3.811 4.014 4.373.954.242 1.795.623 1.87.847.099.297-1.713.406-6.762.406-5.884 0-6.87-.075-6.701-.512.108-.282.73-.688 1.382-.904 1.873-.618 3.245-2.447 3.49-4.65.114-1.03.087-7.139-.06-13.576-.308-13.428-.248-13.184-3.461-14.203-1.093-.346-1.783-.78-1.857-1.168-.107-.564.302-.618 4.683-.618h4.8l2.764 2.91c1.52 1.602 5.825 6.324 9.567 10.496 3.743 4.172 7.627 8.498 8.633 9.613 1.006 1.116 2.01 2.029 2.232 2.029.716 0 .805-1.426.698-11.197l-.105-9.605-1.105-1.105c-.608-.607-1.958-1.393-2.999-1.745-1.041-.353-1.893-.771-1.893-.93 0-.16 2.897-.332 6.438-.385 3.541-.053 6.438.03 6.438.185s-.667.595-1.482.978-1.807 1.145-2.205 1.692c-.7.964-.726 1.514-.824 17.022-.097 15.247-.133 16.026-.746 16.026-.398 0-5.362-5.152-12.951-13.44zm19.267 13.145c0-.442.411-.82 2.084-1.916 1.333-.875 1.254-.711 10.695-21.954 4.971-11.186 6.006-13.26 6.415-12.851.088.088 3.257 7.266 7.041 15.95 3.785 8.684 7.25 16.461 7.698 17.281.57 1.042 1.268 1.702 2.315 2.188.825.383 1.5.823 1.5.977 0 .47-14.914.156-15.071-.317-.075-.224.405-.586 1.066-.804 1.843-.608 2.853-1.87 2.62-3.272-.278-1.68-1.569-4.966-2.484-6.323-1.023-1.519-2.514-1.802-8.502-1.617-4.177.13-4.608.206-5.184.917-.907 1.12-2.14 4.532-2.346 6.49-.218 2.075.28 2.722 2.952 3.83 1.045.433 1.901.917 1.901 1.075 0 .158-2.361.288-5.247.288-2.887 0-5.744.1-6.35.22-.693.14-1.103.079-1.103-.162zm21.431-14.744c.437-.117.794-.445.794-.728 0-.516-4.298-10.402-4.955-11.397-.303-.459-.418-.44-.86.14-.828 1.083-4.121 9.095-4.32 10.508-.18 1.286-.17 1.3 1.184 1.44 2.314.238 7.32.261 8.157.037zm-400.667 14.347c0-.425.567-.928 2.01-1.782 1.304-.772 1.037-.23 9.875-20.104 5.696-12.81 6.888-15.23 7.293-14.796.08.086 3.357 7.538 7.282 16.56 3.925 9.022 7.39 16.84 7.7 17.374.331.569 1.19 1.209 2.076 1.547.831.318 1.511.69 1.511.828 0 .28-7.31.708-12.112.71-1.793 0-3.066-.139-2.998-.33.064-.182.658-.698 1.32-1.146.66-.448 1.52-1.244 1.908-1.769.692-.934.694-1.001.085-3.25-.342-1.263-1.122-3.136-1.734-4.162l-1.113-1.865-4.232-.241c-5.875-.335-8.18-.074-8.888 1.006-.94 1.436-2.222 5.37-2.222 6.822 0 1.696.843 2.575 3.231 3.368 3.385 1.124 1.757 1.569-5.744 1.569-3.12 0-5.248-.137-5.248-.339zm21.822-14.792c.32-.203.392-.58.215-1.14-.584-1.853-4.462-10.397-4.934-10.872-.44-.442-.685-.119-1.873 2.47-2.08 4.528-3.235 7.588-3.235 8.57 0 .697.208.918.97 1.034 1.873.283 8.383.238 8.857-.062zm93.4 14.798l-3.488-.196-5.426-7.408c-2.985-4.075-5.707-7.79-6.05-8.256-.542-.738-.724-.792-1.415-.422-.436.233-1.264 1.074-1.84 1.87-1.022 1.41-1.047 1.546-1.027 5.538.01 2.25.209 4.647.44 5.326.433 1.268 1.84 2.23 3.861 2.64.534.108.97.352.97.542 0 .216-2.861.346-7.584.346-4.172 0-7.585-.128-7.585-.285 0-.156.652-.572 1.45-.924 1.116-.493 1.607-.995 2.132-2.183.643-1.453.677-2.331.579-14.923l-.104-13.379-.865-.92c-.475-.506-1.587-1.13-2.47-1.388-.913-.266-1.604-.68-1.604-.96 0-.405 1.293-.492 7.32-.492 7.571 0 8.697.235 5.914 1.235-.81.29-1.658.846-1.885 1.235-.26.446-.456 3.142-.534 7.34-.124 6.736.01 8.358.69 8.358.568 0 13.36-12.374 13.93-13.476.272-.524.494-1.422.494-1.995 0-.908-.186-1.104-1.445-1.517-2.768-.908-1.738-1.177 4.885-1.276 6.238-.093 6.438-.074 6.438.61 0 .487-.303.771-.97.912-2.875.606-5.514 2.538-11.952 8.746l-4.526 4.365.92 1.375c.506.756 2.53 3.438 4.496 5.96 1.966 2.523 4.475 5.91 5.575 7.528 2.093 3.08 3.62 4.512 5.287 4.957.547.147 1.045.532 1.108.858.09.468-.131.578-1.059.524-.645-.038-2.742-.157-4.66-.265zm67.87.066c0-.146.766-.618 1.702-1.047.968-.444 1.87-1.148 2.09-1.631.254-.557.42-5.509.481-14.386.114-16.38.31-15.61-4.27-16.776-.721-.183-1.282-.567-1.35-.923-.11-.57.758-.603 13.403-.517l13.52.093.101 3.673c.063 2.292-.042 3.817-.279 4.054-.482.483-1.043-.322-1.051-1.505-.01-1.203-1.363-3.439-2.36-3.893-1.242-.566-10.924-.521-11.295.052-.37.573-.602 9.389-.3 11.408l.234 1.557h3.604c4.226 0 4.555-.161 6.054-2.96.583-1.087 1.233-1.977 1.447-1.978.503 0 1.036 12.298.554 12.78-.415.415-.76-.102-1.467-2.19-.844-2.498-2.175-3.183-6.187-3.183-2.184 0-3.37.145-3.604.441-.476.604-.837 10.69-.445 12.437.385 1.715 1.647 2.874 3.736 3.433.856.229 1.557.621 1.557.872 0 .36-1.683.456-7.938.456-4.365 0-7.937-.12-7.937-.267zm134.927-.07c.114-.184.831-.686 1.594-1.114.852-.48 1.527-1.185 1.753-1.833.23-.662.367-6.23.367-14.972V158.64l-1.054-.985c-.63-.59-1.7-1.106-2.663-1.288-.886-.167-1.602-.462-1.593-.656.023-.474 15.188-.674 15.188-.2 0 .189-.708.656-1.574 1.04-1.144.506-1.65.968-1.852 1.692-.153.547-.278 7.294-.278 14.992 0 13.647.018 14.022.738 14.994.536.723 1.283 1.127 2.734 1.477 1.098.265 1.996.622 1.996.794 0 .172-3.502.312-7.782.312-4.84 0-7.703-.127-7.574-.336zm-351.886-.462c0-.246.792-.727 1.759-1.07.98-.35 1.955-.971 2.204-1.407.332-.579.476-4.021.56-13.305.06-6.888.011-13.2-.112-14.03-.312-2.11-1.455-3.32-3.383-3.577-1.29-.172-1.577-.35-1.674-1.032l-.116-.825 10.876.136c10.294.129 10.985.179 12.894.934 5.336 2.11 7.04 8.06 3.47 12.116-.74.84-1.761 1.75-2.27 2.022-1.239.663-1.168.897.415 1.371 2.106.631 4.434 2.366 5.342 3.98.96 1.71 1.138 5.2.386 7.562-.739 2.32-2.458 4.706-4.072 5.652-2.711 1.589-5.421 1.906-16.313 1.913-7.805.005-9.966-.09-9.966-.44zm19.082-1.357c2.253-.483 4.524-2.573 5.179-4.764.575-1.925.55-4.825-.053-6.232-1.2-2.795-4.754-4.839-8.607-4.949-3.077-.087-4.252.259-4.677 1.377-.55 1.446-.428 10.893.16 12.297.934 2.238 4.04 3.12 7.998 2.27zm1.248-18.752c1.393-.738 2.248-2.79 2.248-5.392 0-4.73-3.195-7.895-7.986-7.912-1.615-.006-2.378.164-3 .666-.815.66-.832.798-.832 6.604v5.93l.882.467c1.254.665 7.216.416 8.688-.363zm11.137-46.292c-1.666-1.402-2.163-2.957-3.07-9.614-.47-3.446-1.175-7.885-1.567-9.865-.791-3.995-1.981-15.181-2.338-21.977-.252-4.779-.667-5.997-2.044-5.997-1.208 0-1.986 1.071-1.986 2.733 0 2.145-.262 2.559-1.616 2.559-2.515 0-9.806-3.242-12.924-5.748-3.178-2.554-6.09-7.494-9.191-15.595-2.529-6.606-3.08-8.909-3.124-13.06-.031-2.961.087-3.81.693-5 1.225-2.4 1.76-2.32 3.929.587.778 1.043 3.26 3.777 5.515 6.078l4.102 4.182 1.226-.935c.674-.514 2.997-2.15 5.161-3.634 5.629-3.862 12.47-8.83 12.943-9.399.227-.273.46-2.15.533-4.293.167-4.942.77-11.496 1.403-15.272.337-2.006.431-4.13.285-6.42-.204-3.203-.16-3.538.703-5.29 1.47-2.99 2.908-4.518 4.251-4.518 1.711 0 4.757 2.426 9.125 7.267 6.622 7.339 7.541 8.875 7.993 13.37.195 1.932.29 2.126 1.1 2.221.489.057 1.958-.382 3.266-.975 3.914-1.774 6.068-2.117 13.31-2.117 3.59 0 6.747.14 7.017.312.645.408.318 2.967-.8 6.25-1.13 3.322-2.354 5.645-4.37 8.293-.94 1.235-2.592 3.594-3.672 5.243-1.08 1.65-3.163 4.386-4.63 6.082-4.947 5.724-5.224 6.618-2.054 6.618 2.04 0 2.324 1.423.769 3.85-.571.89-1.192 2.304-1.38 3.143-.46 2.057-1.226 2.8-3.554 3.452-2.064.579-3.201 1.522-3.201 2.656 0 .371-.325 1.584-.721 2.695-.397 1.11-.862 3.21-1.033 4.665-.176 1.485-.806 3.878-1.437 5.454-.619 1.544-1.43 4.401-1.803 6.35-.373 1.948-.987 4.256-1.364 5.13-.377.873-.834 2.619-1.014 3.88-.18 1.261-.668 3.484-1.083 4.939-.614 2.15-.744 3.472-.692 7.056.125 8.697.095 8.845-1.932 9.513-.663.22-1.294.629-1.403.91-.108.282-.638.515-1.177.517-.73.003-1.185.319-1.778 1.235-1.268 1.957-1.296 1.937-4.618-3.293-.286-.45-.495-1.451-.465-2.225.03-.774-.16-1.835-.423-2.357-.447-.886-.7-3.457-1.152-11.709-.239-4.35-.547-5.79-1.27-5.928-1.296-.25-1.669 3.821-.8 8.75.29 1.65.528 3.98.528 5.18 0 2.688.898 7.11 1.6 7.886.286.316.78 1.336 1.096 2.265.389 1.14.904 1.877 1.584 2.264 1.174.668 1.26 1.122.367 1.93-.89.806-1.593.732-2.813-.294zm7.885-7.969c.129-.209-.044-1.11-.385-2.001-.534-1.4-.563-1.915-.21-3.766.551-2.9.323-14.087-.303-14.842-.409-.493-.525-.485-1.15.078-.597.539-.67.946-.512 2.912.149 1.871.048 2.543-.557 3.704-.682 1.31-.975 4.049-1.027 9.595-.013 1.328 1.162 3.9 1.955 4.284 1.01.489 1.9.504 2.189.036zm-16.882-45.796c2.823-2.045 2.911-2.29 2.909-8.128-.001-2.858.1-5.464.226-5.79.125-.328.12-1.466-.014-2.53-.293-2.345-.782-2.469-3.116-.788-.876.63-2.955 2.1-4.622 3.264-3.005 2.1-3.665 2.982-3.427 4.586.057.388.303.943.546 1.234.242.291.924 1.581 1.515 2.866.59 1.285 1.62 2.952 2.289 3.704.668.752 1.316 1.646 1.44 1.985.304.84.616.784 2.254-.403zM310.702 46.9c5.706-6.519 10.158-13.195 10.158-15.23 0-1.552-.683-1.804-4.54-1.67-3.317.115-3.589.184-5.04 1.267-.842.63-2.738 2.006-4.212 3.057l-2.679 1.91-.222 2.875c-.144 1.872-.055 3.697.255 5.234.263 1.297.488 3.198.5 4.224.03 2.418.33 3.319 1.056 3.179.32-.061 2.445-2.242 4.724-4.846zm357.806 73.052c-1.342-.818-1.91-1.68-3.296-5.013-1.482-3.56-3.303-5.264-11.021-10.32-6.38-4.178-7.717-5.359-7.717-6.812 0-1.317 1.255-1.04 3.197.706 1.81 1.628 4.799 2.785 12.863 4.982 3.27.89 3.63.924 4.766.449.883-.37 1.525-1.05 2.284-2.42l1.056-1.905.082-10.76c.118-15.59.255-22.682.451-23.283.29-.892-2.095-.578-4.43.582-1.155.574-4.243 2.207-6.863 3.629a767 767 0 0 1-7.4 3.967c-1.451.76-2.888 1.609-3.193 1.885-.482.436-.751.404-2.067-.247-1.714-.848-2.357-1.912-2.004-3.317.428-1.707 2.008-2.783 5.376-3.665 2.31-.604 5.394-1.98 11.934-5.325 10.887-5.568 21.038-9.205 30.515-10.936 2.038-.372 4.816-.928 6.174-1.235 2.86-.646 6.174-.431 6.174.4 0 .278-1.21 1.654-2.687 3.057-3.735 3.548-3.782 3.576-5.265 3.086-1.066-.352-2.157-.212-8.034 1.032-8.535 1.805-14.424 3.725-14.852 4.843-.105.272.379.982 1.107 1.628 4.041 3.582 3.807 3.287 3.368 4.251-.673 1.478-1.253 6.51-1.267 11.005-.011 3.324.262 5.826 1.27 11.642 2.802 16.16 3.03 18.615 1.938 20.814-.52 1.047-6.297 6.85-7.399 7.433-1.33.704-3.776.63-5.06-.153zm-253.294-9.025c-1.96-2.075-2.662-2.515-8.685-5.438-3.604-1.75-7.522-3.432-8.707-3.739-2.85-.739-8.268-1.47-14.344-1.939-9.167-.705-12.694-1.136-13.888-1.695-.853-.4-1.35-.456-1.764-.197-.684.428-.964 2.783-.41 3.45.213.258.43 1.001.481 1.653.057.727.462 1.553 1.046 2.138.672.671.954 1.317.954 2.183 0 1.518-.238 1.67-2.948 1.88-2.058.161-2.25.107-3.798-1.082-.896-.69-2.103-1.968-2.682-2.841-.934-1.41-1.08-2-1.297-5.223-.134-1.998-.638-6.832-1.119-10.741-.48-3.91-.864-7.958-.85-8.996a47.926 47.926 0 0 0-.042-2.77c-.155-2.111.482-13.98.781-14.538.182-.34.24-.979.128-1.421-.274-1.094 1.833-17.379 2.478-19.142.283-.776.894-3.095 1.358-5.152.857-3.802 2.92-8.266 4.016-8.687 1.32-.506 1.548 3.2.454 7.376-.593 2.266-1.382 6.517-1.985 10.696-.084.582-.314 2.09-.511 3.352-.513 3.27-.644 6.094-.899 19.294-.27 14.008-.043 16.043 1.469 13.12.319-.616.701-.964.872-.793.167.168.451 3.122.632 6.566.319 6.105.587 7.321 1.613 7.321.223 0 .694-.535 1.046-1.189l.64-1.188 3.073.175c2.548.145 3.293.062 4.358-.487 2.08-1.072 10.67-8.919 17.006-15.538 5.009-5.23 5.868-6.286 5.774-7.097-.176-1.521-1.11-1.314-3.334.74-2.75 2.542-9.04 6.508-14.731 9.289-5.008 2.446-6.45 2.717-6.302 1.184.047-.485.092-1.546.101-2.357.012-1.03.534-2.518 1.734-4.939 1.878-3.79 4.708-7.677 9.81-13.475 1.402-1.593 1.972-3.218 1.129-3.218-.737 0-2.645 1.139-3.388 2.021-.479.57-.967.823-1.323.687-1.12-.43-.459-6.31.797-7.086.172-.106.401-.633.51-1.17.108-.539 1.072-1.988 2.142-3.223 2.144-2.472 2.784-4.141 1.85-4.824-.314-.23-.57-.786-.57-1.236 0-1.34-.807-3.16-1.4-3.16-.305 0-1.154.408-1.888.906-1.716 1.167-3.463 1.474-4.088.72-.701-.844-.245-1.984 1.904-4.766 1.436-1.859 1.944-2.814 1.945-3.657 0-1.268-.757-4.81-1.819-8.501-.688-2.392-.673-3.4.05-3.4.517 0 3.424 4.575 4.323 6.802.409 1.013.894 2.04 1.078 2.282.515.68 1.77.526 3.476-.427 2.31-1.291 6.288-2.71 6.981-2.49.334.106 1.04.854 1.57 1.663.905 1.381.932 1.536.451 2.553-.281.595-.965 2.104-1.52 3.352-.909 2.044-1.803 3.383-3.997 5.988-1.249 1.482-.945 2.864 1.22 5.56 2.689 3.348 4.29 5.147 6.432 7.23 1.013.985 1.929 2.067 2.036 2.404.107.337.054 1.867-.117 3.4-.274 2.449-.491 3.044-1.786 4.892-1.556 2.22-1.769 3.534-.574 3.534.806 0 5.977-6.967 10.211-13.758 1.452-2.328 3.018-4.696 3.481-5.26.94-1.147 1.664-.998 1.664.342 0 .473.159.86.353.86.452 0 .46 3.202.01 4.384-.377.99-7.787 10.484-11.45 14.667-1.273 1.455-2.316 2.886-2.317 3.18 0 1.167 2.499 4.232 4.327 5.3 3.503 2.046 5.668.877 8.191-4.423 1.796-3.772 3.062-8.141 2.786-9.614-.18-.96-.124-1.2.251-1.076 1.103.368 1.095 2.871-.025 7.93-1.294 5.847-1.404 6.15-3.636 10.08-1.363 2.4-1.924 3.087-2.522 3.087-2.214 0-6.977-3.703-9.776-7.601-1.636-2.278-2.175-2.314-4.166-.283-.922.94-3.153 2.98-4.958 4.532-1.805 1.553-4.09 3.597-5.08 4.543-.989.945-2.353 2.129-3.033 2.63-.679.5-2.242 1.925-3.473 3.166-2.58 2.601-2.538 3.198.182 2.6a49.64 49.64 0 0 1 3.468-.606c.97-.127 2.081-.407 2.47-.622.387-.216 1.578-.504 2.645-.64 5.063-.652 6.716-.985 7.462-1.508.445-.312 1.225-.567 1.734-.567.508 0 1.862-.323 3.008-.719 1.146-.395 3.354-1.04 4.906-1.434 1.552-.393 3.386-1.101 4.076-1.574.69-.472 1.721-.863 2.293-.867.571-.005 1.674-.156 2.45-.336 1.613-.374 2.767.155 3.407 1.56.766 1.68-2.65 8.414-4.504 8.88-.487.122-1.55.094-2.364-.062-1.6-.308-7.595-.337-11.003-.054-3.304.274-6.178 1.146-6.448 1.957-.278.834 2.518 1.544 7.324 1.861 2.623.173 5.324.456 6.004.629 3.116.793 5.328 1.43 5.642 1.624.189.116 1.413.435 2.72.709 3.582.75 4.692.346 8.09-2.942 2.626-2.54 2.844-2.867 3.566-5.351.482-1.657.917-4.625 1.164-7.938.218-2.91.465-5.926.55-6.702.904-8.188.914-24.816.02-32.103-1.655-13.497-3.72-23.764-5.48-27.253-2.224-4.404-7.141-9.742-10.267-11.144-1.284-.577-2.355-.72-5.477-.73-6.164-.02-13.323 1.818-20.487 5.264-3.455 1.661-4.195 2.187-6.39 4.536-2.965 3.176-4.238 5.97-3.84 8.431.666 4.12.663 4.727-.022 5.008-3.342 1.374-4.29.92-5.727-2.734l-1.125-2.861 1.229-1.782c2.765-4.01 6.61-8.455 8.882-10.265 4.06-3.235 15.423-8.274 18.659-8.274 1.379 0 5.816-.718 7.94-1.285 1.263-.337 3.05-.472 5.119-.388 2.793.115 3.448.274 5.398 1.313 3.521 1.877 7.008 6.148 9.943 12.178 3.167 6.506 6.17 18.736 7.1 28.906.72 7.885-.092 37.171-1.304 47.078-.587 4.795-.962 5.981-2.448 7.744-1.515 1.796-15.394 13.474-15.99 13.454-.129-.004-1.193-1.024-2.365-2.266zm-27.647-42.238c1.244-.616 2.738-1.465 3.32-1.887.582-.422 1.786-1.11 2.675-1.53.89-.418 1.967-1.132 2.394-1.587l.776-.826-.907-2.434c-.5-1.339-1.196-2.812-1.548-3.274l-.64-.84-1.375 1.21c-.756.664-1.8 1.474-2.318 1.8-.518.324-1.391 1.426-1.94 2.448-.549 1.021-1.508 2.177-2.132 2.567-.624.391-1.064.914-.977 1.163.087.248-.342.898-.953 1.444-1.237 1.105-1.187 1.964.146 2.5 1.125.451.985.482 3.48-.754zm11.852-8.819c1.032-.97 1.025-1.585-.045-3.897-1.268-2.74-1.743-3.238-2.633-2.762-1.12.6-1.325 2.017-.43 2.97.413.439.75 1.08.75 1.427 0 .706 1.028 3.029 1.34 3.029.11 0 .569-.345 1.018-.767zm-4.921-25.35c.443-.839.72-1.8.613-2.134-.18-.568-.294-.572-1.68-.05-2.592.978-2.756 1.289-1.839 3.485.504 1.205.567 1.24 1.314.745.432-.287 1.148-1.208 1.592-2.046zm88.72 77.534c-.51-.626-1.134-3.055-1.136-4.427 0-1.645.745-2.888 2.548-4.236.859-.641 2.397-2.115 3.418-3.276 2.071-2.353 2.03-3.142-.168-3.142-.642 0-1.615-.18-2.161-.401-.965-.39-.933-.414 1.123-.814 3.73-.725 4.364-1.378 4.206-4.334-.114-2.129-.31-2.565-1.15-2.565-.904 0-4.636 3.832-5.412 5.556-.438.973-.902 1.5-1.321 1.5-.356 0-1.523.998-2.594 2.218-3.603 4.105-5.47 4.402-7.177 1.142-1.242-2.375-1.125-2.631 2.106-4.6 1.292-.786 3.26-2.325 4.376-3.418 1.115-1.094 3.297-2.998 4.85-4.233 3.093-2.46 3.666-3.633 1.772-3.633-1.011 0-1.094-.126-2.2-3.351-1.407-4.101-1.456-5.687-.243-7.973 1.087-2.05 3.94-5.965 5.226-7.17.502-.47.913-1.14.913-1.487 0-.348-.635-1.615-1.411-2.816-2.272-3.515-2.042-4.006 3.677-7.848 4.912-3.3 5.835-3.366 7.282-.53.372.729 1.233 1.867 1.914 2.528 1.017.988 1.238 1.459 1.238 2.645 0 1.402-.06 1.474-2.108 2.566-1.432.763-2.556 1.717-3.503 2.972-1.324 1.753-1.4 1.992-1.477 4.63-.071 2.43 0 2.797.55 2.904.35.068 1.018-.291 1.494-.805.473-.51 1.484-1.34 2.246-1.845 1.157-.766 1.387-1.114 1.387-2.106 0-1.43.606-1.575.907-.217.119.533.528 1.91.91 3.06 1.15 3.465.695 4.745-2.674 7.52-.99.815-1.116 2.148-.18 1.893.279-.076 2.254-.212 4.388-.302l3.88-.163 1.323 1.33c.728.733 1.323 1.607 1.323 1.945 0 1.186-5.308 7.048-11.377 12.562-4.538 4.124-4.85 4.491-4.856 5.7-.01 1.724-.387 2.23-1.8 2.394-1.802.21-2.394.468-2.797 1.222-.46.859-.163 1.38.787 1.38 1.079 0 7.183-3.294 10.003-5.398 3.257-2.43 12.841-12.105 13.462-13.59.269-.643.728-3.66 1.02-6.702.291-3.042 1.083-8.706 1.76-12.587 3.716-21.323 4.324-23.617 8.642-32.591 1.344-2.792 2.443-5.352 2.443-5.69 0-.338.235-.81.523-1.049.422-.35.766-.29 1.784.31.693.41 1.384.744 1.535.744.151 0 1.69-1.391 3.42-3.092 1.73-1.7 4.89-4.265 7.025-5.7 2.134-1.433 4.912-3.506 6.174-4.605 2.72-2.37 3.209-2.591 4.192-1.902 1.26.882 1.03 3.778-.607 7.671-2.01 4.778-5.784 18.2-6.375 22.67-.215 1.625-1.003 3.64-3.158 8.07-1.58 3.248-2.872 6.114-2.872 6.368 0 .255.65 1.214 1.444 2.132.795.918 1.858 2.51 2.363 3.54.875 1.786.892 1.927.363 3.028-.473.984-1.406 1.58-6.33 4.038-3.178 1.586-6.883 3.599-8.234 4.472-1.352.874-2.603 1.498-2.782 1.388-.189-.117-.221-1.817-.078-4.092.25-3.942.57-5 2.155-7.12.435-.583 1.516-2.409 2.402-4.058.886-1.649 2.015-3.545 2.508-4.213 1.83-2.479.493-3.995-1.572-1.784-.69.738-1.322 1.058-2.087 1.058-.858 0-1.25.248-1.787 1.133-.379.622-.79 1.615-.915 2.204-.125.59-.535 1.41-.913 1.822-.482.526-.777 1.577-.99 3.528-.165 1.528-.724 4.128-1.241 5.777-1.07 3.41-1.59 8.562-.907 8.983.245.152.778-.068 1.255-.516.771-.725 1.05-.764 3.943-.553 3.93.286 4.145.285 12.638-.05l7.055-.28 3.72-1.795c3.005-1.45 4.413-2.415 7.31-5.01 3.599-3.221 4.777-3.833 6.827-3.543 1.13.16 1.292 1.614.318 2.851-.402.512-1.59 1.422-2.64 2.023-1.05.6-2.658 1.84-3.572 2.755-1.504 1.504-7.906 10.735-7.906 11.4 0 .152.357.667.794 1.145.547.599 2.327 1.372 5.733 2.49 2.716.89 5.222 1.62 5.567 1.62.346 0 .716.228.823.507.12.313.96.6 2.194.751 1.1.134 2.554.519 3.233.855.68.336 2.784 1.123 4.677 1.748 2.257.746 3.939 1.552 4.884 2.342.793.663 1.586 1.205 1.762 1.205.175 0 .32.232.32.515 0 .616-3.188 1.66-8.072 2.643-5.186 1.044-7.314 1.183-11.155.724-4.943-.59-7.878-1.63-12.269-4.35-2.09-1.295-4.137-2.354-4.547-2.354-.49 0-1.96 1.28-4.273 3.722-1.94 2.047-4.168 4.049-4.952 4.448-.783.4-2.23 1.477-3.214 2.394-2.002 1.865-4.204 3.417-6.509 4.587-1.52.772-1.591.775-4.553.226-4.44-.824-6.975-2.577-8.21-5.677-.231-.582-.47-3.16-.53-5.729-.11-4.628-.234-5.382-.888-5.382-.186 0-2.28 1.915-4.653 4.255-5.779 5.698-9.463 8.355-13.007 9.382-1.497.433-3.488 1.174-4.424 1.646-1.933.973-6.624 2.708-7.324 2.708-.256 0-.627-.198-.824-.44zm47.338-9.212a1192.24 1192.24 0 0 1 7.025-4.106c4.148-2.402 5.933-4.279 5.244-5.51-.696-1.244-8.545-5.38-12.767-6.728-2.232-.713-4.721-1.743-5.532-2.29-.811-.546-1.56-.993-1.666-.993-.105 0-.472.913-.815 2.028-.504 1.637-.626 3.323-.628 8.732 0 6.437.031 6.761.847 8.184.917 1.601 2.424 2.554 4.059 2.567.62.005 2.3-.743 4.233-1.884zM500.71 86.676c2.95-3.125 3.96-4.424 3.88-4.99a.998.998 0 0 0-.873-.874c-.885-.126-5.324 1.68-7.261 2.953-1.322.869-1.323.873-1.323 3.358 0 2.553.403 3.88 1.159 3.814.235-.02 2.223-1.938 4.418-4.261zm50.66-3.888c2.434-3.558 2.116-4.103-1.298-2.226-1.242.682-2.582 1.24-2.979 1.24-.895 0-1.61.817-1.454 1.66.136.733 3.092 2.27 3.703 1.925.226-.128 1.138-1.297 2.028-2.599zm-61.019-7.906c.759-.291 1.302-1.363 1.038-2.05-.313-.817-.915-.647-1.836.52-1.07 1.354-.682 2.098.798 1.53zm46.114-10.353c3.353-1.445 4.071-1.931 4.19-2.835.142-1.081-.035-2.662-.356-3.168-.277-.439-.493-.368-1.336.44-1.202 1.152-1.538 1.188-2.384.253l-.643-.71-.804.755c-.443.415-.904 1.21-1.026 1.765-.122.556-.37 1.101-.55 1.213-1.11.686-1.645 3.686-.658 3.686.178 0 1.783-.63 3.567-1.399zm-.861-19.635c1.703-1.285 3.895-3.111 4.872-4.057.976-.946 1.949-1.72 2.161-1.72.762 0 1.203-1.042 3.286-7.758 2.231-7.197 2.976-10.305 2.777-11.597-.113-.73-.382-.61-3.772 1.693-4.476 3.04-5.753 4.141-7.916 6.826-2.293 2.845-3.112 4.55-3.65 7.6-.25 1.421-.858 3.464-1.35 4.54-1.031 2.252-1.18 4.836-.347 6.025.302.432.615.784.696.784.08 0 1.54-1.051 3.243-2.336zm95.958 64.122c-.82-.748-2.127-1.767-2.903-2.263-.776-.497-2.07-1.519-2.876-2.271-1.285-1.2-1.496-1.62-1.72-3.416-.337-2.688.01-5.9 1.106-10.424 1.07-4.393.953-6.017-.435-6.017-1.278 0-8.452 3.757-9.858 5.163-.79.79-1.4 1.92-1.834 3.39l-.65 2.207-2.097.086c-1.153.047-2.256.105-2.45.128-.194.023-1.4-.442-2.678-1.034-4.616-2.138-6.765-6.164-5.576-10.446.407-1.464 3.796-5.285 13.94-15.716 2.738-2.817 5.263-5.677 5.61-6.356.347-.679.95-1.665 1.338-2.19.573-.775.624-1.055.27-1.481-.667-.804-2.772-1.37-4.226-1.138-1.03.165-1.574.025-2.59-.666-.786-.534-1.787-.875-2.568-.875-.979 0-1.772-.378-3.368-1.606-1.148-.884-2.23-1.876-2.405-2.205-.203-.382-.126-1.383.213-2.763.506-2.066.69-2.313 4.067-5.448 3.144-2.92 11.719-12.277 15.654-17.082.795-.97 4.062-5.256 7.26-9.525 3.198-4.269 6.356-8.417 7.018-9.22.661-.802 1.463-1.936 1.782-2.52.319-.585 1.35-1.515 2.293-2.068 1.396-.82 2.128-1.006 3.95-1.007 2.737-.001 2.828.092 5.746 5.91 1.727 3.445 2.229 4.881 2.958 8.467.503 2.475.877 5.525.877 7.146 0 2.437-.122 3.01-.882 4.127-.485.714-.881 1.484-.881 1.71 0 .228-.535 1.149-1.189 2.048-.653.9-1.517 2.387-1.918 3.306-.829 1.896-1.595 2.346-5.537 3.247-1.527.35-3.613 1.22-5.468 2.283-1.649.945-3.95 2.198-5.115 2.784-2.093 1.054-8.37 6.37-8.57 7.259-.175.777.757 1.245 3.543 1.778 3.167.606 5.643 1.616 7.91 3.229 1.889 1.342 3.644 3.74 3.644 4.976 0 .555-.991 1.942-2.925 4.092-1.61 1.79-3.273 3.823-3.699 4.52-.425.697-2.919 3.355-5.541 5.908-2.623 2.552-4.769 4.775-4.769 4.94 0 .392.936 1.137 2.47 1.966 2.046 1.106 5.87 4.328 6.668 5.619 1.036 1.677 2.04 5.828 2.342 9.694.244 3.121.201 3.416-1.093 7.564-1.904 6.108-2.332 6.478-4.838 4.19zM466.983 82.692c-1.487-1.252-1.964-2.637-1.682-4.89.36-2.885 1.164-4.203 2.844-4.666 1.238-.34 1.626-.732 3.153-3.18.958-1.537 3.551-6.604 5.763-11.26 2.212-4.657 4.708-9.896 5.547-11.642.838-1.746 2.318-5.16 3.289-7.585 2.499-6.244 3.512-8.413 6.786-14.531 2.911-5.44 7.852-13.305 10.09-16.061l1.208-1.488 1.661 1.17c.914.643 1.94 1.268 2.279 1.389.34.12.617.375.617.567 0 .403 1.167 2.17 2.766 4.19 2.43 3.066.794 5.47-4.463 6.561-2.91.604-4.794 1.795-7.685 4.861-2.195 2.329-3.799 4.692-7.618 11.226-4.733 8.097-7.162 12.62-9.301 17.322-1.094 2.405-3.98 8.482-6.415 13.504-3.815 7.873-4.478 9.5-4.817 11.818-.216 1.478-.52 2.886-.677 3.129-.47.729-2.234.5-3.345-.434zm190.831-33.184c-.388-.494-.936-1.909-1.218-3.145-.726-3.18-.104-6.025 1.505-6.886.97-.519 1.311-.454 2.105.397 1.052 1.13 4.324.741 7.991-.95 8.033-3.706 11.052-4.814 17.323-6.354 6.09-1.496 11.049-2.305 11.049-1.802 0 .121-.637 1.057-1.416 2.08-.804 1.055-1.51 2.436-1.635 3.195-.293 1.787-1.214 2.368-3.753 2.368-1.332 0-2.69.27-3.837.764-1.56.671-1.924.71-2.996.322-.972-.35-1.595-.352-3.053-.007-4.02.953-11.963 4.439-15.241 6.688-.778.534-2.125 1.704-2.993 2.6-1.801 1.858-2.795 2.048-3.831.73zm-154.92-9.358c0-.208.404-1.068.898-1.911 1.38-2.357 1.609-3.513 1.021-5.178-.676-1.917-.665-5.026.02-5.712.62-.62 3.99-1.115 5.316-.782 1.272.32 2.537 1.765 3.728 4.26 1.09 2.284 1.278 3.748.555 4.348-.25.208-1.209.547-2.13.753-2.342.525-4.376 1.544-6.368 3.19-1.637 1.352-3.04 1.829-3.04 1.032zm-96.212-1.122c-.307-.34-.75-.617-.985-.617-.882 0-2.567-4.285-2.832-7.207-.14-1.538-.37-3.205-.51-3.704-.284-1.012.451-2.838 1.153-2.862.237-.008 1.508-.094 2.823-.19 2.364-.174 2.433-.153 6.084 1.805 2.031 1.09 3.932 2.322 4.223 2.738.615.877.7 3.632.157 5.076-.205.546-.99 1.628-1.745 2.404-.755.776-1.518 1.808-1.696 2.293-.309.843-.452.882-3.218.882-2.31 0-3.008-.125-3.454-.618z" fill="#fff" stroke-width=".353"/></svg>