<svg xmlns="http://www.w3.org/2000/svg" width="1322.667" height="753.811" viewBox="0 0 349.956 199.446"><path d="M121.565 198.896c-1.234-.39-2.313-1.13-3.76-2.578-2.415-2.414-3.154-4.403-3.149-8.475.006-4.551 2.138-7.751 6.523-9.792 1.85-.86 2.54-.985 5.468-.985 2.862 0 3.636.133 5.294.908 4.118 1.924 6.127 5.256 6.147 10.197.01 2.515-.136 3.312-.907 4.94-1.174 2.478-2.798 4.106-5.242 5.256-1.598.751-2.532.927-5.292.994-2.254.055-3.918-.097-5.082-.465zm7.18-2.425c1.716-.887 2.624-3.327 2.782-7.474.204-5.362-1.004-8.42-3.674-9.302-4.263-1.407-7.157 2.69-6.782 9.598.197 3.614 1.144 5.961 2.818 6.982 1.38.84 3.448.924 4.856.196zm70.574 2.509c-2.701-.807-3.47-1.215-5.08-2.701-2.403-2.214-3.17-4.12-3.19-7.931-.016-2.78.099-3.398.924-4.961 1.129-2.142 3.274-4.16 5.523-5.197 2.253-1.039 9.118-1.13 10.923-.144l1.161.634-.103 2.541c-.128 3.157-.727 3.351-2.15.697-.83-1.55-1.209-1.902-2.38-2.218-1.889-.508-3.772.038-5.167 1.497-1.698 1.777-2.315 3.575-2.342 6.827-.031 3.74 1.147 6.39 3.438 7.733 2.414 1.414 5.735 1.04 7.406-.834 1.013-1.137 1.268-.93 1.268 1.03v1.783l-1.676.746c-2.08.925-6.3 1.171-8.555.498zm23.353-.047c-3.608-1.015-5.631-2.592-7.104-5.54-.938-1.877-1.079-2.532-1.076-5.013.003-2.26.178-3.23.842-4.654 1.09-2.342 3.02-4.24 5.474-5.385 2.528-1.178 7.1-1.46 10.003-.615l1.92.558.236 2.536c.141 1.522.097 2.676-.11 2.883-.478.477-1.352-.305-2.081-1.86-1.16-2.474-4.232-3.06-6.838-1.304-3.507 2.364-4.128 10.39-1.084 14.007 2.28 2.71 6.37 2.8 9.207.205l.815-.745-.11 1.932c-.105 1.87-.155 1.954-1.508 2.59-1.889.887-6.157 1.088-8.586.405zm21.825-.246c-2.87-1.102-5.071-3.472-5.991-6.45-2.481-8.034 2.09-14.612 10.609-15.264 4.908-.377 9.177 1.86 11.125 5.828.887 1.804.992 2.394.992 5.547 0 3.292-.073 3.657-1.093 5.468-1.303 2.312-3.851 4.386-6.291 5.12-2.557.77-7.005.652-9.35-.249zm8.26-2.897c1.49-1.58 2.125-3.91 2.125-7.795 0-3.661-.676-5.86-2.273-7.389-2.211-2.118-5.737-1.307-7.19 1.654-.981 2.002-1.387 5.666-.943 8.532.67 4.338 2.279 6.172 5.425 6.19 1.508.008 1.864-.14 2.856-1.192zM98.425 187.2v-11.73H96.18c-2.402 0-3.835.712-4.284 2.127-.122.383-.53.862-.908 1.064-.977.523-1.162-.198-.864-3.375l.247-2.638h22.426l.218 1.323c.12.728.22 2.077.223 2.999.003 1.442-.095 1.675-.702 1.675-.388 0-.705-.147-.705-.327 0-.18-.535-.895-1.189-1.588-1.13-1.198-1.302-1.26-3.527-1.26h-2.34v23.46h-6.35zm45.436 2.408l-.104-9.562-1.225-1.141-1.225-1.142 1.754-.113c.965-.062 4.532-.061 7.928.001 5.553.104 6.32.193 7.624.89 3.332 1.778 3.31 5.69-.044 7.713l-1.238.747 1.385.624c3.017 1.36 4.45 3.875 3.827 6.718-.363 1.663-1.321 2.784-3.264 3.821-1.275.68-2.08.765-8.362.88l-6.951.125-.105-9.562zm11.388 5.998c.799-.799 1.032-1.352 1.032-2.453 0-2.874-1.552-4.277-4.728-4.277h-1.622v3.457c0 2.219.151 3.61.423 3.88.233.234 1.197.424 2.144.424 1.43 0 1.894-.173 2.751-1.031zm-1.26-9.994c.622-.534.989-1.278 1.123-2.276.177-1.318.078-1.603-.897-2.577-.939-.939-1.313-1.08-2.602-.988l-1.506.11-.101 3.262-.102 3.264h1.581c1.131 0 1.844-.226 2.505-.795zm11.464 13.207c0-.18 1.642-4.13 3.65-8.776 2.007-4.646 3.755-8.867 3.884-9.38.192-.768.046-1.072-.828-1.718-.584-.432-1.062-.914-1.062-1.071 0-.373 7.446-.364 8.034.01.437.277 8.547 19.88 8.547 20.658 0 .254-1.096.389-3.162.389h-3.161l-1.099-2.91-1.098-2.911h-8.328l-1.25 2.91-1.252 2.91-1.438.109c-.79.06-1.437-.04-1.437-.22zm12.307-9.502a633.3 633.3 0 0 1-2.153-5.733c-.298-.8-.472-.546-1.89 2.767-.859 2.007-1.561 3.714-1.561 3.793 0 .079 1.345.143 2.99.143h2.99zm-71.397-29.609c-.389-.087-1.46-.398-2.382-.693l-1.675-.535v-5.333l1.51 1.623c2.937 3.153 6.902 3.63 8.007.964.706-1.705-.48-3.439-3.344-4.886-5.083-2.568-6.931-6.037-5.116-9.596 1.426-2.795 5.922-4.315 10.488-3.545 1.324.223 2.589.518 2.81.655.22.136.515 1.398.653 2.803.241 2.444.22 2.555-.492 2.555-.51 0-.966-.435-1.452-1.387-.924-1.812-1.95-2.493-3.755-2.493-1.95 0-3.081.91-3.037 2.447.043 1.507.694 2.175 3.957 4.057 1.49.86 3.204 2.127 3.81 2.816 3.259 3.712 1.55 8.74-3.479 10.233-1.752.52-4.906.673-6.503.315zm185.031-.23c-2.642-.615-4.566-1.678-6.09-3.364-1.993-2.206-2.483-3.436-2.66-6.67-.28-5.138 1.55-8.27 6.162-10.549 2.471-1.221 2.913-1.323 5.735-1.323 2.059 0 3.586.201 4.67.616 1.576.601 1.618.658 1.834 2.457.38 3.165.325 3.491-.565 3.365-.501-.072-1.006-.567-1.373-1.348-.959-2.038-1.889-2.648-4.009-2.628-2.334.023-3.97 1.16-5.167 3.589-.687 1.395-.829 2.23-.823 4.86.006 2.848.114 3.375 1.058 5.115 1.972 3.637 5.828 4.545 9.203 2.166.864-.609 1.654-1.107 1.756-1.107.102 0 .137.754.078 1.675-.102 1.6-.18 1.712-1.695 2.457-2.003.986-5.545 1.286-8.114.689zM2.82 148.966c0-6.258-.153-11.256-.365-12.02-.215-.774-.79-1.612-1.41-2.053-.574-.41-1.045-.972-1.045-1.25 0-.42 1.086-.505 6.438-.503 9.407.003 12.219.642 13.935 3.168 1.88 2.767-.048 7.52-3.392 8.36-.82.205-.764.263.675.685 3.109.914 5.612 3.962 5.612 6.835 0 1.583-1.025 3.793-2.326 5.013-1.905 1.787-3.547 2.127-11.152 2.31l-6.968.168zm10.685 7.68c1.833-.775 2.486-1.776 2.651-4.062.258-3.568-1.217-5.191-5.083-5.59l-1.9-.196v4.794c0 4.194.077 4.84.617 5.154.867.505 2.382.465 3.715-.1zm-.195-13.122c1.407-.922 1.95-3.532 1.163-5.6-.461-1.213-2.352-2.314-3.978-2.315l-1.323-.001v8.915l1.653-.226c.909-.125 2.027-.472 2.485-.772zm15.192 6.478l-.103-9.418-1.205-1.242c-1.037-1.07-1.12-1.275-.6-1.475.333-.128 3.748-.163 7.59-.079 6.68.147 7.066.194 8.892 1.087 1.115.546 2.164 1.367 2.523 1.975.755 1.277.792 3.27.086 4.635-.565 1.093-2.344 2.603-3.626 3.077-.73.27-.543.565 2.886 4.529 3.297 3.812 4.711 5 6.649 5.59.34.103.617.369.617.59 0 .284-1.157.363-3.969.27-4.779-.159-6.251-.81-8.649-3.825-2.92-3.672-4.355-5.292-4.688-5.292-.191 0-.333 1.911-.333 4.498l-.001 4.498h-5.965l-.104-9.418zm10.38-2.673c1.548-1.547 1.45-5.462-.165-6.593-.434-.304-1.514-.542-2.46-.542h-1.685v3.633c0 2.43.146 3.784.441 4.086.612.628 3.021.264 3.87-.584zm16.857 4.291c0-9.657-.14-10.813-1.462-12.06-1.718-1.622-1.407-1.836 2.668-1.836 2.021 0 3.926.097 4.233.214.492.19.558 1.477.558 10.848v10.634h-5.998zm17.638-1.857v-9.657l-1.998.166c-1.59.132-2.128.34-2.628 1.014-1.185 1.598-1.794 2.153-2.035 1.853-.133-.165-.184-1.45-.113-2.857l.13-2.558h18.904l.22 1.103c.381 1.904.261 4.189-.22 4.189-.243 0-.925-.576-1.515-1.28-.921-1.096-1.336-1.304-2.905-1.455l-1.83-.176-.094 9.592-.094 9.592-2.911.066-2.91.065zm17.64.949c0-9.158-.135-10.123-1.608-11.503-.474-.444-.862-.965-.862-1.157 0-.217 1.575-.312 4.145-.25l4.146.099.093 10.76.093 10.76h-6.007zm32.594 8.355c-.068-.194-.167-4.432-.22-9.418l-.095-9.065-1.205-1.242c-1.523-1.57-1.284-1.675 3.522-1.543l3.68.102.1 4.321.098 4.322h8.445v-8.82h5.997v21.696h-5.997v-10.407h-8.466v10.407h-2.868c-1.593 0-2.922-.157-2.99-.353zm37.49.265c-.089-.146 1.58-4.392 3.709-9.437 4.193-9.938 5.229-12.639 5.229-13.627 0-.351-.476-.991-1.058-1.422-1.92-1.419-1.448-1.708 2.783-1.708 3.137 0 3.98.113 4.593.617.496.407 2.314 4.761 5.331 12.77 2.518 6.682 4.579 12.318 4.579 12.523 0 .237-1.172.356-3.236.327l-3.235-.046-1.306-3.658-1.306-3.66-4.947-.097-4.947-.098-1.134 2.744-1.607 3.89c-.42 1.023-.623 1.146-1.88 1.146-.774 0-1.48-.119-1.568-.264zm14.813-10.835c-.11-.283-.88-2.425-1.714-4.76-.833-2.333-1.606-4.244-1.716-4.246-.186-.003-3.856 8.868-3.856 9.32 0 .111 1.684.202 3.742.202 3.138 0 3.71-.083 3.544-.516zm13.175 10.507c0-.325.794-4.123 1.764-8.438s1.764-8.305 1.764-8.867c0-.673-.36-1.365-1.059-2.035-1.776-1.701-1.482-1.94 2.382-1.934 1.891.003 3.617.122 3.835.264.217.143 1.466 2.64 2.775 5.551 1.309 2.91 2.495 5.418 2.636 5.572.14.154 1.377-2.148 2.747-5.116 1.735-3.758 2.742-5.527 3.319-5.83.455-.24 1.78-.439 2.944-.441l2.116-.005.035 2.557c.02 1.407.702 6.05 1.518 10.319.815 4.268 1.514 7.972 1.553 8.23.053.359-.638.472-2.93.479l-2.998.01-1.393-7.094c-.766-3.901-1.48-7.088-1.587-7.081-.107.006-1.684 3.26-3.505 7.232-1.82 3.97-3.42 7.22-3.556 7.22-.136 0-1.658-3.294-3.383-7.32l-3.136-7.32-.418 1.94c-.23 1.067-.933 4.361-1.561 7.32l-1.142 5.38h-1.36c-1.038 0-1.36-.14-1.36-.592zm34.66.359c-.334-.135-.442-2.11-.445-8.174-.005-9.477-.115-10.362-1.456-11.628-1.9-1.793-1.724-1.837 7.281-1.837h8.29l.005.794a7.16 7.16 0 0 0 .195 1.5c.183.682.047.701-4.062.58l-4.251-.126v6.072H236.757l-.11 1.323-.11 1.322-3.615.101-3.616.1v7.384h3.21c3.111 0 3.24-.032 4.198-1.058 1.561-1.671 2.126-1.432 1.875.794-.368 3.268.076 3.09-7.62 3.059-3.728-.016-6.977-.108-7.22-.206zm19.948-9.41l-.104-9.465-1.186-1.06c-.822-.734-1.074-1.172-.82-1.427.24-.24 2.85-.314 7.567-.215 6.92.145 7.273.187 9.112 1.087 2.196 1.075 3.143 2.393 3.141 4.374-.002 1.809-1.076 3.474-2.991 4.636-.864.525-1.576 1.049-1.583 1.165-.006.116 1.555 2.02 3.468 4.233 3.116 3.603 4.488 4.742 6.487 5.388.34.11.618.363.618.564 0 .475-6.097.479-7.803.005-1.995-.555-3.489-1.747-5.525-4.412-2.299-3.008-3.562-4.402-3.988-4.402-.179 0-.323 2.012-.323 4.498v4.498H243.8zm10.38-2.624c1.547-1.547 1.449-5.462-.166-6.593-.434-.304-1.514-.542-2.459-.542h-1.685v3.633c0 2.43.146 3.784.44 4.086.613.628 3.022.264 3.87-.584zm16.852 3.977c-.005-9.568-.116-10.473-1.457-11.813-1.666-1.666-1.416-1.801 3.137-1.692l4.145.1.093 10.76.094 10.76h-6.008l-.004-8.115zm33.518 7.94c0-.192 1.65-4.2 3.667-8.907s3.77-8.905 3.897-9.329c.178-.596-.014-.951-.844-1.565-1.902-1.406-1.457-1.72 2.433-1.72 3.135 0 3.604.084 4.41.793.633.556 2.066 3.7 4.783 10.49 2.133 5.332 3.88 9.856 3.88 10.053 0 .217-1.252.359-3.155.359h-3.154l-1.152-3.087-1.153-3.087h-8.22l-1.316 3.175-1.316 3.175h-1.38c-.759 0-1.38-.157-1.38-.35zm11.763-10.85a147.543 147.543 0 0 1-1.267-3.44c-.199-.582-.463-1.173-.586-1.313-.197-.224-3.207 6.237-3.207 6.884 0 .137 1.342.25 2.983.25h2.983zm14.93 10.965c-.129-.13-.234-4.386-.234-9.459v-9.224l-1.059-1.014c-1.76-1.686-1.47-1.94 2.205-1.934 1.795.003 3.432.122 3.638.264.205.143 2.649 3.038 5.43 6.433 2.78 3.395 5.285 6.412 5.565 6.703.445.462.495-.345.391-6.35l-.12-6.88 1.5-.108 1.5-.108v22.003l-1.477-.237c-2.89-.462-3.658-1.123-9.002-7.752-2.833-3.514-5.246-6.5-5.362-6.637-.116-.136-.157 3.08-.092 7.144l.12 7.391h-1.384c-.76 0-1.489-.105-1.618-.235zM138.643 114.56c-10.45-1.022-18.901-3.798-28.046-9.213-9.014-5.337-18.43-14.602-24.81-24.413-5.437-8.362-11.138-22.162-12.954-31.36l-.235-1.192 3.83.24c32.867 2.058 57.36 9.856 69.928 22.26l3.324 3.282-.217-3.057c-.492-6.943.906-18.037 3.437-27.265 3.175-11.577 9.509-25.248 16.406-35.41 1.845-2.718 4.697-6.597 5.644-7.675.819-.933.88-.946 1.537-.353 1.219 1.103 5.633 7.214 8.216 11.376 6.068 9.778 10.918 20.452 13.864 30.518 2.745 9.375 3.704 15.773 3.732 24.87l.02 6.88 2.999-2.999c12.382-12.381 37.504-20.452 69.761-22.413 4.63-.282 4.398-.562 3.253 3.914-4.193 16.387-12.65 31.59-23.436 42.135-4 3.91-3.4 3.394-7.698 6.63-10.121 7.62-21.016 11.95-33.01 13.122-4.425.432-4.284.43-4.284.041 0-.173 1.23-1.018 2.734-1.877s6.544-3.764 11.2-6.455c4.657-2.692 9.3-5.351 10.32-5.91 1.018-.56 1.851-1.081 1.851-1.159 0-.157-.243-.069-18.697 6.824-7.276 2.718-13.626 5.054-14.111 5.191-.781.221-.822.19-.353-.273.291-.288 7.832-6.606 16.757-14.04 8.925-7.435 16.942-14.115 17.815-14.844.874-.73 4.684-3.894 8.467-7.032 11.106-9.212 12.142-9.878-19.256 12.374a6514.86 6514.86 0 0 1-16.147 11.421c-.804.558-4.581 3.217-8.393 5.91-3.813 2.691-7.04 4.894-7.172 4.894-.132 0 1.498-3.373 3.622-7.497 9.353-18.157 13.138-25.767 12.327-24.782-.48.582-3.295 4.313-6.254 8.29-2.96 3.978-5.957 7.983-6.66 8.902-.704.918-3.343 4.449-5.866 7.846-2.522 3.397-4.633 5.958-4.692 5.691-.058-.266 1.58-8.933 3.64-19.258 2.06-10.326 3.692-18.827 3.628-18.891-.065-.065-.922 1.975-1.905 4.533-12.034 31.316-13.013 33.759-13.219 32.98-.118-.447-.316-3.511-.44-6.81-.462-12.24-3.079-70.865-3.168-70.955-.051-.051-.457 8.432-.902 18.85a28241.12 28241.12 0 0 1-1.661 38.17c-.47 10.575-.854 19.774-.856 20.444-.005 1.754-.387 1.107-2.279-3.863-.923-2.425-2.518-6.553-3.544-9.172-1.026-2.62-3.504-9.029-5.506-14.242-2.001-5.214-3.691-9.323-3.755-9.131-.064.191 1.554 8.732 3.597 18.98 2.042 10.247 3.624 18.72 3.515 18.829-.11.109-.335-.039-.501-.328-.465-.808-22.91-30.816-23.35-31.218-.362-.331 5.483 11.27 13.03 25.863 1.837 3.553 3.27 6.532 3.182 6.619-.087.087-2.366-1.4-5.064-3.304-15.619-11.025-26.675-18.848-33.953-24.026-9.155-6.512-12.469-8.842-16.53-11.624l-2.753-1.885 1.785 1.595c.982.877 12.464 10.496 25.515 21.376s23.582 19.782 23.402 19.782c-.18 0-1.422-.409-2.76-.908-1.338-.5-2.83-1.038-3.315-1.197-.485-.16-6.597-2.436-13.582-5.06a3579.316 3579.316 0 0 0-13.406-5.018c-.691-.243 10.419 6.298 20.724 12.202 2.86 1.639 5.202 3.099 5.203 3.244.002.26-1.085.27-3.525.031zM98.425 68.447c0-.074-.278-.351-.617-.618-.56-.439-.572-.426-.134.133.461.588.751.775.751.485z" fill="#fff" stroke-width=".353"/></svg>