<svg id="Слой_1" data-name="Слой 1" xmlns="http://www.w3.org/2000/svg" viewBox="0 0 37.08 41.16"><defs><style>.cls-1{fill:#9a1648}</style></defs><path class="cls-1" d="M18.45 21.86H6.11L0 32.59h12.37l6.08-10.73zM24.72 10.84L18.55 0l-6.18 10.84 6.18 10.86 6.17-10.86zM24.71 32.59h12.37l-6.11-10.73H18.63l6.08 10.73zM24.16 36.07h.92V41h-.92zM34.52 36.07h.92V41h-.92zM6.8 36.07h.92V41H6.8zM11.25 36.07H8.4v.84h.95V41h.95v-4.09h.95v-.84zM32.67 37.95h-2.08v-1.88h-.92V41h.92v-2.22h2.08V41h.93v-4.93h-.93v1.88zM3.82 38.28l-.87-2.21H1.88V41h.93v-3.05l1.01 2.45.98-2.48V41h.92v-4.93H4.68l-.86 2.21zM19.08 36.07h-.91v3.52a.83.83 0 0 1-1.63 0v-3.52h-.93v3.48a1.73 1.73 0 0 0 3.46 0zM21.91 40.17h-1v-3.26h1a.47.47 0 0 1 .47.47c0 .26-.1.56-.45.56h-.4v.84h.43a.67.67 0 0 1 .6.75.63.63 0 0 1-.6.64m.73-1.84a1.16 1.16 0 0 0 .62-1 1.22 1.22 0 0 0-1.15-1.27H20V41h1.89c.75 0 1.56-.36 1.56-1.31a1.38 1.38 0 0 0-.78-1.36M11.62 39.4a1.64 1.64 0 0 0 0 .2 1.5 1.5 0 0 0 1.54 1.5 1.44 1.44 0 0 0 1.54-1.42 1.42 1.42 0 0 0-.48-1.08 11.14 11.14 0 0 0-1.22-.74c-.26-.16-.39-.28-.39-.51a.54.54 0 0 1 .56-.58.61.61 0 0 1 .61.61 2.11 2.11 0 0 1 0 .23h.82v-.23A1.34 1.34 0 0 0 13.17 36a1.37 1.37 0 0 0-1.44 1.42 1.23 1.23 0 0 0 .63 1.06c.48.32 1.08.56 1.28.76a.64.64 0 0 1-.47 1.11.77.77 0 0 1-.72-.63 1.42 1.42 0 0 1 0-.28zM27.22 37.86c-.26-.16-.38-.28-.39-.51a.55.55 0 0 1 .57-.58.61.61 0 0 1 .61.61v.23h.82v-.23A1.35 1.35 0 0 0 27.4 36a1.37 1.37 0 0 0-1.4 1.38 1.23 1.23 0 0 0 .63 1.06c.48.32 1.08.56 1.28.76a.68.68 0 0 1 .2.48.64.64 0 0 1-.67.63.75.75 0 0 1-.72-.63v-.28h-.8a1.31 1.31 0 0 0 0 .2 1.5 1.5 0 0 0 1.55 1.5 1.44 1.44 0 0 0 1.54-1.42 1.42 1.42 0 0 0-.48-1.08 10.4 10.4 0 0 0-1.24-.74"/></svg>