<svg xmlns="http://www.w3.org/2000/svg" width="1598" height="88.915" viewBox="0 0 422.804 23.525"><path d="M7.296 23.116c-2.711-.862-5.555-3.291-6.754-5.77-.47-.972-.542-1.63-.542-5.013 0-3.606.048-3.988.647-5.17C2.882 2.75 7.947.16 12.643 1.022c.977.18 2.283.55 2.901.822l1.125.497v3.95L14.67 5.258c-1.784-.923-2.203-1.034-3.902-1.032-2.456.003-4.12.749-5.77 2.585-3.556 3.955-2.434 10.28 2.248 12.673 2.551 1.303 5.481 1.087 8.034-.593l1.389-.914v4.2l-1.522.59c-1.998.774-5.96.95-7.851.35zm184.994.159c-2.024-.61-3.624-2.33-4.322-4.648-.208-.692-.378-1.342-.378-1.444 0-.158 2.567-.788 3.209-.788.115 0 .345.506.51 1.124.164.618.496 1.345.736 1.615 2.135 2.389 6.128 1.003 6.128-2.127 0-1.953-.518-2.585-3.113-3.799-3.743-1.75-4.035-1.925-4.992-2.979-1.137-1.251-1.42-1.979-1.42-3.652 0-4.304 5.33-7.14 9.459-5.033 1.123.573 3.062 2.555 2.919 2.984-.05.148-.638.58-1.308.96l-1.219.691-.922-.978c-.847-.898-1.04-.977-2.384-.977-1.248 0-1.582.112-2.284.767-.973.91-1.082 2.005-.298 3.002.309.393 1.6 1.12 3.148 1.773 4.45 1.878 5.854 3.54 5.854 6.931 0 3.02-1.335 5.093-4.084 6.341-1.14.518-3.892.642-5.24.237zm51.485-.12c-1.252-.544-3.026-2.261-3.569-3.453-1.258-2.763-.26-5.91 2.532-7.975l1.654-1.224-.875-1.3c-2.63-3.908-.465-8.207 4.133-8.207 3.45 0 5.772 2.57 5.179 5.73-.122.648-.678 1.48-1.772 2.65-1.106 1.182-1.527 1.815-1.376 2.067.12.2.932 1.226 1.805 2.282l1.588 1.92 1.25-1.411 1.251-1.411 1.12 1.118 1.122 1.119-.52.646-1.276 1.59-.756.944 1.881 2.312c1.035 1.271 1.881 2.404 1.881 2.517 0 .112-.886.205-1.969.205h-1.968l-1.111-1.318-1.111-1.318-.938.824c-1.6 1.405-3.37 2.072-5.47 2.063-1.02-.004-2.227-.17-2.685-.37zm5.396-3.771c.764-.516 1.39-1.06 1.39-1.21 0-.15-.905-1.385-2.01-2.745l-2.01-2.474-.77.548c-1.455 1.036-2.583 2.26-2.77 3.005-.306 1.218.707 2.979 2.073 3.603 1.414.646 2.292.49 4.097-.727zm-.946-11.522c1.695-1.234 1.79-3.315.177-3.878-1.601-.558-3.17.686-2.723 2.158.184.607 1.363 2.315 1.598 2.315.072 0 .498-.268.948-.595zm-213.83 4.432V1.314h3.44V9.78h9.26V1.313h3.44v21.96h-3.44V12.956h-9.26V23.274h-3.44zM66.19 23.017C66.493 22.138 76.886-.006 76.994 0c.148.008 10.137 22.259 10.272 22.88.07.319-.26.394-1.732.394h-1.818l-1.086-2.58-1.086-2.58-4.672-.072-4.672-.072-1.22 2.652-1.222 2.652H67.93c-1.064 0-1.791-.107-1.74-.257zm13.714-8.408c0-.23-2.778-6.638-2.954-6.813-.119-.119-3.138 6.445-3.134 6.813.001.109 1.372.198 3.045.198 1.674 0 3.043-.09 3.043-.198zm23.145 8.346c-.073-.189-.101-5.106-.063-10.927l.07-10.582h3.703c3.514 0 3.782.037 5.2.734 1.581.776 2.583 1.859 3.09 3.34.46 1.336.37 3.704-.184 4.921-.557 1.223-2.362 2.953-3.336 3.197-.368.093-.669.253-.669.356 0 .104 1.426 2.145 3.168 4.536 1.742 2.39 3.17 4.441 3.175 4.556.004.116-.902.175-2.014.133l-2.022-.078-3.072-4.35c-1.689-2.392-3.185-4.356-3.324-4.365-.149-.009-.272 1.774-.3 4.35l-.05 4.365-1.62.08c-1.145.055-1.66-.023-1.752-.266zm7.289-12.252c1.155-.598 1.58-1.4 1.58-2.978 0-1.132-.123-1.533-.63-2.04-.747-.746-2.455-1.259-3.819-1.145-.937.077-.976.121-1.026 1.139-.029.582.02 2.114.106 3.405l.159 2.347 1.437-.17c.791-.092 1.778-.344 2.193-.558zm23.194 12.4c-.1-.1-.182-5.044-.182-10.986V1.313h3.704v18.504l3.109.075 3.109.074v3.175l-4.779.072c-2.628.04-4.86-.01-4.96-.11zm25.747-10.81V1.314h12.171v3.175h-8.731V9.515h8.466v3.44h-8.466v6.88h8.731v3.439h-12.171zm137.319 0V1.314h3.44l.007 4.3.007 4.3 4.16-4.309 4.16-4.308 2.183.01c1.2.004 2.183.096 2.183.204 0 .107-2.15 2.347-4.777 4.977l-4.776 4.782 4.76 5.736c2.618 3.155 4.834 5.857 4.924 6.003.105.17-.646.266-2.091.266h-2.256L304.65 18.5c-2.13-2.627-4.009-4.73-4.176-4.675-.21.07-.326 1.548-.376 4.776l-.072 4.674h-3.428zm32.28 0V1.314h12.17v3.175h-8.731v5.014l4.167.073 4.167.073v3.175l-4.167.073-4.167.073v6.852l4.3.073 4.299.073.078 1.653.08 1.654h-12.197zm29.368 0V1.314h3.44v21.96h-3.44zm24.301 10.782c-.022-.109-.068-.317-.102-.463-.034-.145-.075-4.283-.092-9.194l-.03-8.93h-5.028V1.313h13.494v3.175h-5.013v8.665c0 4.766 0 8.993-.01 9.393 0 .713-.037.728-1.592.728-.873 0-1.605-.09-1.627-.199zm24.118-10.781V1.314h3.44V9.78h9.26V1.313h3.44v21.96h-3.44V12.956h-9.26V23.274h-3.44z" fill="#fff" stroke-width=".265"/></svg>