<svg xmlns="http://www.w3.org/2000/svg" width="3418.119" height="570.373" viewBox="0 0 904.377 150.911"><path d="M436.506 150.638c-3.525-.056-6.333-.251-6.583-.458-.298-.248-.508-.245-.664.009-.126.203-.387.37-.581.37-.194 0-.234-.199-.088-.442.204-.34.149-.348-.244-.034-.519.414-16.796.373-25.732-.066-2.232-.11-11.36-.343-20.285-.52s-16.617-.405-17.092-.506c-.476-.1-3.413-.265-6.527-.366-3.114-.1-7.884-.357-10.6-.57-2.717-.212-6.21-.427-7.762-.477-1.552-.05-2.822-.124-2.822-.165 0-.085-1.852-.18-10.583-.542-9.267-.384-10.37-.454-13.582-.862-1.65-.21-4.269-.457-5.82-.549a211.021 211.021 0 0 1-4.763-.337c-1.068-.094-3.836-.268-6.153-.387-2.317-.12-4.334-.291-4.481-.382-.147-.091-2.458-.253-5.136-.36-2.677-.108-6.768-.42-9.09-.696-2.323-.275-5.052-.5-6.065-.5-1.013 0-1.929-.14-2.034-.312-.106-.17-1.108-.32-2.226-.33-1.952-.019-4.524-.233-7.149-.595-1.337-.184-4.437-.44-8.189-.674-1.302-.082-2.501-.23-2.664-.332-.163-.1-2.035-.285-4.159-.41-2.124-.125-3.911-.365-3.972-.532-.061-.167-.365-.206-.676-.087-.31.119-.474.07-.365-.108.115-.19-1.225-.325-3.205-.325-1.873 0-3.722-.113-4.11-.251-.388-.139-2.531-.402-4.763-.587-2.23-.184-4.453-.429-4.938-.544a25.864 25.864 0 0 0-2.117-.37 606.57 606.57 0 0 1-3.704-.507 54.407 54.407 0 0 0-4.763-.417c-1.26-.04-2.452-.187-2.646-.326-.194-.14-.59-.265-.882-.28-3.148-.155-6.985-.502-7.408-.67-.7-.28-1.277-.395-3.175-.635-7.188-.91-8.556-1.159-8.845-1.616-.254-.402-.317-.375-.322.139-.003.35-.148.55-.322.442-.317-.196-3.649-.672-7.616-1.09-1.162-.121-2.194-.342-2.294-.49-.099-.147-.656-.29-1.238-.319-.582-.028-3.281-.368-5.998-.757-2.716-.388-6.01-.811-7.32-.94-1.31-.128-2.381-.359-2.381-.512 0-.154-.278-.284-.617-.288-2.462-.032-10.502-1.224-10.755-1.595-.165-.243-.263-.19-.27.148-.007.351-.098.396-.27.133-.142-.219-1.925-.59-3.96-.824-2.037-.235-3.798-.581-3.914-.769-.116-.188-.355-.305-.531-.261-.552.137-4.517-.422-5.324-.75-.43-.176-.82-.18-.882-.01-.061.168-.743.086-1.515-.18-.772-.268-2.44-.588-3.705-.712-1.265-.124-2.459-.392-2.653-.595-.242-.253-.187-.28.177-.084.29.156.405.149.254-.018-.52-.57-1.274-.474-1.06.136.166.474.115.5-.271.142-.262-.243-.77-.441-1.131-.441s-.558-.16-.438-.353c.12-.194.063-.353-.126-.353-.19 0-.425.198-.523.441-.107.266-.189.285-.205.049-.016-.225-.405-.32-.91-.224-.54.103-.882.006-.882-.249 0-.265-.274-.33-.75-.18-.412.131-.665.102-.563-.064.103-.166-.71-.323-1.808-.349-1.98-.046-3.979-.344-4.993-.743-.488-.192-.8-.24-2.558-.392-.34-.029-.617-.251-.618-.494 0-.305-.782-.464-2.531-.515-1.392-.04-2.78-.177-3.086-.302-.306-.126-1.111-.277-1.79-.336-1.483-.13-3.505-.5-4.234-.774-.29-.11-1.053-.164-1.693-.122-.64.043-1.355-.077-1.587-.267-.233-.19-1.218-.443-2.188-.564-2.723-.34-3.725-.592-3.541-.89.093-.15-.224-.198-.705-.106-.48.092-1.07.02-1.312-.158-.241-.178-.995-.37-1.674-.428-.679-.057-1.408-.245-1.62-.42-.211-.173-.482-.218-.6-.1-.12.12-.819.099-1.556-.045-1.13-.22-1.229-.305-.633-.546l.705-.286-.705-.048a64.547 64.547 0 0 1-1.764-.154l-3.616-.367c-1.407-.142-2.558-.368-2.558-.503s-.59-.285-1.312-.333c-.722-.049-1.396-.203-1.5-.343-.102-.14-.795-.283-1.539-.318-.743-.034-1.576-.249-1.85-.476-.274-.227-.816-.33-1.205-.228-.389.101-.796.04-.905-.135-.108-.176-.615-.32-1.125-.32-1.419 0-5.028-.81-5.028-1.129 0-.155-.168-.282-.373-.282-.206 0-.273.198-.15.441.122.243.013.197-.244-.101-.257-.298-.745-.485-1.085-.415-.34.07-.617-.025-.617-.21 0-.186-1.19-.45-2.644-.585-1.454-.137-2.717-.367-2.807-.513-.09-.146-.765-.288-1.5-.316-.734-.027-1.389-.212-1.455-.41-.066-.198-.741-.36-1.501-.36-.76 0-1.382-.133-1.382-.294 0-.162-.357-.26-.794-.218-.436.041-1.111-.113-1.5-.344-.387-.23-1.254-.454-1.926-.498-.671-.044-1.306-.2-1.41-.345-.105-.146-.43-.272-.72-.28-1.048-.029-4.135-.617-4.939-.942a7.392 7.392 0 0 0-1.235-.335c-.407-.071-.685-.376-.657-.723.027-.336-.114-.5-.32-.372-.52.321-3.174.18-3.412-.183-.108-.164-1.07-.399-2.137-.52-2.485-.284-2.85-.366-3.706-.839-.39-.214-1.5-.345-2.47-.29-.969.054-1.455.022-1.081-.072.374-.094.89-.382 1.148-.639.375-.375 4.817-.489 22.603-.579 47.489-.24 840.36-.097 840.609.152.38.381.05.605-1.028.694-.518.043-.942.197-.942.342 0 .146-.264.164-.587.04-.392-.15-.503-.09-.334.183.165.268.062.336-.3.197-.303-.116-.792-.012-1.085.231-.293.243-.634.342-.757.219-.123-.123-.417-.063-.654.134-.237.197-1.544.394-2.905.438-1.36.044-2.409.188-2.33.32.231.386-.494.687-1.724.717-.628.015-1.235.171-1.35.347-.114.175-.789.35-1.499.39-.71.038-1.291.242-1.291.452 0 .21-.199.39-.441.4-2.472.095-7.972 1.004-7.917 1.308.037.209-.647.475-1.52.591-.873.116-1.429.258-1.235.314.306.09-.917.317-4.41.82-.485.07-1.125.237-1.423.37-.298.133-1.012.278-1.587.322-.576.043-1.149.22-1.274.393-.125.172-.68.345-1.235.384-.554.04-1.404.236-1.889.437-.485.201-1.24.303-1.676.226-.436-.077-.793.008-.793.189 0 .18-.675.452-1.5.603-.824.151-1.578.297-1.675.325-.097.027-1.328.176-2.734.33-1.407.155-2.558.42-2.558.59 0 .168-.556.306-1.235.306s-1.235.171-1.235.38c0 .208-.436.34-.97.29-.533-.048-1.525.05-2.205.219-.679.168-1.472.329-1.763.357-.291.027-.81.173-1.152.324-.343.15-.938.191-1.324.09-.438-.114-.614-.043-.47.19.156.252-.25.31-1.234.178-.806-.108-1.383-.064-1.283.098.1.162-.004.41-.23.55-.25.154-.32.103-.177-.127.13-.211.085-.477-.1-.592-.185-.114-.466 0-.623.253-.4.642-3.385 1.369-7.228 1.759-.52.053-1.062.213-1.206.357-.143.143-.72.26-1.283.26s-1.33.165-1.705.366c-.376.2-1.437.446-2.358.546-2.43.263-2.687.314-3.175.618-.243.152-.6.178-.794.058-.194-.12-.353-.05-.353.155a.375.375 0 0 1-.373.374c-.206 0-.285-.145-.175-.322.206-.333-.295-.3-1.216.081-.29.12-.926.28-1.41.352-.486.073-1.163.255-1.506.404-.343.149-1.018.195-1.5.103-.481-.092-.875-.05-.875.095 0 .145-.392.338-.872.43-.479.091-.787.03-.684-.136.102-.166.018-.301-.187-.301-.206 0-.385.277-.399.617-.021.533-.062.523-.295-.073-.239-.611-.306-.625-.592-.122-.178.313-.878.614-1.558.67-.679.057-1.39.184-1.582.283-.191.099-.866.135-1.5.08-.648-.055-1.15.067-1.15.281 0 .52-1.164.48-1.746-.06-.32-.298-.399-.306-.241-.025.342.61-.115.772-2.504.89-1.179.057-2.07.223-1.98.369.089.145-.007.264-.212.264s-.373-.153-.373-.341c0-.395-1.126-.049-1.46.45-.205.304-1.08.427-3.941.553-.605.027-.9.19-.758.42.128.207.018.339-.244.292-.792-.141-5.366.414-6.121.743-.388.169-1.817.413-3.175.543-1.358.13-2.552.369-2.654.53-.1.163-1.252.33-2.557.373-1.306.042-2.374.184-2.374.315 0 .13-.198.249-.44.262-2.21.12-5.769.603-5.91.802-.265.373-3.512.66-3.717.33-.228-.37-1.498-.13-2.14.403-.506.42-.894.483-5.432.878-1.455.126-2.725.346-2.822.487-.247.36-7.64 1.19-8.095.91-.204-.127-.372-.043-.372.185 0 .252-.345.348-.881.246-.486-.093-.882-.032-.882.135s-.12.285-.265.262a1.074 1.074 0 0 0-.441.023c-.097.035-1.288.145-2.646.244l-2.91.213c-.243.018-.441.13-.441.247 0 .119-.635.207-1.411.197-.776-.01-1.411.104-1.411.255 0 .15-1.257.274-2.793.274-1.536 0-2.846.146-2.91.324-.099.27-2.895.582-3.47.387-.865-.293-1.507-.212-1.967.249-.306.305-1.35.602-2.376.675a176.4 176.4 0 0 0-3.947.337 74.564 74.564 0 0 1-3.616.265c-.824.03-1.5.149-1.5.262 0 .113-.198.223-.44.244-.243.021-1.076.125-1.852.23-.776.106-2.41.269-3.63.362-1.22.092-2.371.262-2.558.378-.186.115-.339.06-.339-.121 0-.461-2.147-.233-2.452.26-.14.228-1.552.48-3.22.578-1.634.095-3.764.264-4.735.375-2.607.299-3.488.393-6.254.671-1.38.139-2.932.373-3.448.522-.517.148-1.205.121-1.528-.06-.367-.205-.588-.203-.588.006 0 .184-.714.392-1.587.461-.873.07-1.588.026-1.588-.097 0-.358-2.18-.073-2.424.316-.28.447-2.548.741-6.464.838-1.687.042-3.002.182-2.922.312.08.13-.96.184-2.312.12-1.352-.064-2.458.013-2.458.17 0 .317-.127.336-2.646.4-.97.025-2.955.19-4.41.368s-4.002.41-5.659.515c-1.657.105-3.404.276-3.88.38-1.34.293-3.361.436-7.34.52-2.007.042-3.478.182-3.27.312.21.129-1.204.227-3.14.218-1.937-.01-3.522.077-3.522.192s-1.071.242-2.381.282c-1.31.04-3.493.232-4.85.425-1.359.194-4.058.432-5.998.53-1.94.1-4.322.247-5.292.33-3.039.256-8.993.517-11.964.522-1.569.003-2.652.133-2.408.288.248.157-.451.266-1.588.247-1.117-.02-2.776.06-3.687.176-.91.116-1.597.116-1.525 0 .071-.117-.164-.212-.524-.212s-.576.125-.482.277c.094.152.004.277-.202.277-.206 0-.376-.198-.38-.44-.003-.312-.08-.326-.264-.047-.17.26-1.737.38-4.58.353-2.377-.023-4.365.09-4.419.25-.054.16-2.316.375-5.027.476-5.63.211-7.014.27-14.808.638-3.104.146-5.741.321-5.86.39-.119.069-4.603.144-9.966.167-5.363.024-9.751.147-9.752.274-.004.297-18.229.585-37.04.585-9.352 0-14.734.127-14.9.353-.152.207-.263.135-.27-.177-.01-.47-.048-.47-.352 0s-.343.47-.353 0c-.01-.47-.049-.47-.353 0s-.343.47-.353 0c-.01-.47-.048-.47-.352 0s-.344.47-.353 0c-.01-.47-.049-.47-.353 0s-.343.47-.353 0c-.01-.47-.049-.47-.353 0s-.343.47-.352 0c-.01-.47-.05-.47-.353 0-.304.47-.343.47-.353 0-.01-.47-.049-.47-.353 0s-.343.47-.352 0c-.01-.47-.05-.47-.353 0-.304.47-.343.47-.353 0-.01-.47-.049-.47-.353 0s-.343.47-.353 0c-.01-.47-.048-.47-.352 0s-.343.47-.353 0c-.01-.47-.049-.47-.353 0s-.343.47-.353 0c-.01-.47-.048-.47-.352 0s-.344.47-.353 0c-.01-.47-.049-.47-.353 0s-.343.47-.353 0c-.01-.47-.049-.47-.353 0s-.343.47-.352 0c-.01-.47-.05-.47-.353 0-.304.47-.343.47-.353 0-.01-.47-.049-.47-.353 0s-.343.47-.352 0c-.01-.47-.05-.47-.353 0-.304.47-.343.47-.353 0-.01-.47-.049-.47-.353 0s-.343.47-.353 0c-.01-.47-.048-.47-.352 0s-.343.47-.353 0c-.01-.47-.049-.47-.353 0s-.343.47-.353 0c-.01-.47-.048-.47-.352 0-.249.385-.344.403-.348.068-.003-.254-.151-.372-.33-.261-.53.328-1.995.375-8.469.273zM169.075 69.184c-9.297-.28-19.342-1.615-25.168-3.345-6.39-1.899-10.139-4.315-11.725-7.558l-.975-1.992.624-12.75c.64-13.062.767-13.94 2.272-15.664 2.48-2.842 8.517-2.91 11.22-.126 1.566 1.612 2.126 3.761 2.403 9.215.351 6.902.865 12.418 1.272 13.664.798 2.446 4.332 4.478 9.846 5.664 4.009.862 24.372.842 31.342-.03 24.326-3.047 42.471-10.185 45.733-17.991 1.585-3.794-.372-8.75-4.784-12.114-9.338-7.12-27.885-11.228-57.827-12.807-13.222-.697-41.68.156-53.423 1.601-8.686 1.069-11.488.073-11.488-4.082 0-4.093 6.19-6.564 22.049-8.806C141.49.502 148.346.115 165.018.111c15.582-.003 20.558.217 32.455 1.435 21.517 2.204 40.522 6.79 52.564 12.687 12.27 6.007 18.637 13.535 18.648 22.045.005 3.92-1.34 6.615-5.175 10.367-4.624 4.524-11.329 8.041-22.29 11.693-11.538 3.844-30.311 7.961-43.923 9.632-6.878.845-20.72 1.44-28.222 1.214zm584.553.028c-.68-.081-2.823-.317-4.763-.524-6.832-.73-13.945-2.681-19.813-5.438-10.717-5.034-17.57-12.83-19.914-22.652-.896-3.755-.987-9.657-.205-13.342 2.905-13.693 14.211-23.076 31.465-26.11 4.52-.796 12.92-1.045 18.168-.54 21.264 2.046 35.362 10.48 37.417 22.382 1.694 9.81-5.28 17.035-15.72 16.286-1.359-.098-4.613-.259-7.233-.358-16.93-.641-23.196-1.014-24.245-1.444-3.172-1.298-3.43-6.758-.405-8.597 1.442-.878 1.798-.914 18.89-1.941 7.794-.468 14.49-1.023 14.88-1.231 1.716-.918 1.37-3.398-.823-5.905-2.677-3.06-8.297-5.57-15.705-7.012-4.434-.864-14.27-1.093-17.815-.415-7.322 1.4-12.898 5.208-15.838 10.816-1.722 3.285-2.338 6.03-2.355 10.496-.023 6.35 1.741 10.693 6.083 14.98 1.909 1.884 3.18 2.744 6.406 4.33 6.963 3.425 13.21 4.615 24.048 4.583 7.731-.023 11.366-.437 21.661-2.468 3.377-.666 6.768-1.211 7.537-1.211 1.795 0 3.91 1.192 4.693 2.644.797 1.481.513 3.805-.613 5.004-2.638 2.81-12.711 5.67-24.635 6.995-4.663.518-18.724.965-21.166.672zm-712.082-.516c-15.09-1.256-26.064-5.394-33.161-12.501C2.479 50.28.008 44.249 0 35.729-.005 31 .71 27.547 2.476 23.775c1.656-3.539 2.969-5.373 6.165-8.616C18.857 4.793 38.027-.565 62.712.047 77.768.42 86.046 2.113 88.413 5.303c1.547 2.085.512 4.725-2.48 6.324-2.475 1.323-3.77 1.436-8.63.75-6.71-.948-22.302-.855-27.82.165-17.758 3.283-27.517 11.506-27.517 23.187 0 10.164 7.74 18.06 20.278 20.687 8.907 1.866 25.478.82 35.058-2.212 3.92-1.24 8.188-3.402 9.827-4.975 2.337-2.246 2.643-4.573.736-5.606-.474-.257-3.747-.621-7.867-.877l-10.583-.655c-12.92-.796-14.535-1.067-16.315-2.74-.956-.898-1.609-3.067-1.297-4.309.328-1.307 2.113-2.883 3.794-3.35 2.437-.677 14.414-1.057 28.988-.92 18.247.171 20.44.52 22.952 3.662.902 1.128 1.052 1.64 1.159 3.965.225 4.89-2.063 9.797-6.825 14.637-7.977 8.106-20.546 13.129-37.89 15.14-5.71.663-17.45.935-22.435.52zm245.073-2.042c-3.427-1.221-4.952-3.481-6.11-9.053-1.393-6.71-1.145-18.047.58-26.46 2.48-12.094 11.405-20.866 25.96-25.515 8.514-2.72 17.727-4.174 32.947-5.2 5.447-.368 25.632-.257 33.69.185 13.913.762 15.987 1.116 17.932 3.061 1.084 1.084 1.188 1.357 1.015 2.65-.237 1.766-1.549 3.227-3.395 3.78-.792.237-3.945.404-7.656.404-6.054 0-20.975.52-24.653.858-.97.089-2.955.26-4.41.38-1.455.121-5.184.535-8.286.921-22.741 2.83-35.8 8.704-37.339 16.798-.444 2.338-.56 2.305 7.312 2.066l12.737-.386c3.104-.095 8.595-.266 12.201-.382 7.58-.243 8.932 0 10.609 1.91.972 1.107 1.065 1.415.929 3.059-.297 3.575-2.09 4.898-7.373 5.44-6.37.652-7.354.714-16.941 1.077-14.278.54-18.812 1.112-22.102 2.791-3.188 1.627-3.598 3.095-2.986 10.688.519 6.432.416 7.024-1.516 8.72-2.83 2.485-9.312 3.574-13.145 2.208zm321.488-.445c-11.664-1.216-23.613-6.282-33.84-14.348-3.841-3.03-10.98-10.394-14.445-14.901-4.154-5.404-7.473-10.718-10.576-16.934-3.083-6.175-4.28-9.656-4.01-11.667.459-3.419 3.306-5.533 6.975-5.18 2.403.23 3.227.929 5.66 4.794 6.884 10.94 16.926 20.958 27.276 27.21 15.578 9.409 32.393 11.925 49.835 7.456 18.486-4.736 38.67-16.595 59.203-34.785 4.698-4.162 5.61-4.754 7.331-4.756 4.09-.004 6.52 3.406 4.865 6.825-1.68 3.471-17.297 19.518-26.684 27.419-21.212 17.854-40.465 27.08-60.301 28.899-4.388.402-7.202.394-11.29-.032zm-117.652-.206c-24.931-.953-51.144-3.661-56.108-5.797-2.512-1.08-3.511-2.392-3.511-4.608 0-1.535.156-1.927 1.168-2.94 1.769-1.769 3.256-2.023 9.325-1.596 10.717.755 21.557 1.064 37.502 1.067 25.533.006 33.282-.894 36.052-4.186 1.779-2.114 1.588-5.163-.43-6.86-.55-.464-5.819-3.595-11.706-6.957-30.327-17.318-33.811-19.92-33.811-25.243 0-3.014 2.25-5.255 6.174-6.148 5.78-1.315 12.082-1.828 23.812-1.94 11.986-.113 16.283.067 26.106 1.093 5.626.588 7.347 1.05 8.72 2.34 1.597 1.5 1.33 4.83-.502 6.27-1.378 1.085-2.793 1.321-11.57 1.936-15.279 1.07-16.74 1.22-18.095 1.855-1.422.667-2.19 2.06-2.19 3.977 0 3.386 1.165 4.351 14.288 11.837 24.167 13.785 28.259 16.306 30.757 18.947 2.999 3.171 3.629 6.359 1.916 9.699-1.476 2.878-3.681 3.994-9.895 5.008-12.785 2.085-30.511 2.915-48.002 2.246zm328.914-.462c-3.754-.557-7.402-3.336-9.198-7.008-.713-1.458-.973-2.607-1.09-4.826-.135-2.595-.049-3.138.792-4.978 1.055-2.305 2.14-3.586 4.321-5.099.812-.563 10.798-5.24 22.191-10.392 23.856-10.789 23.283-10.513 23.79-11.46.648-1.21.28-3.182-.735-3.936-.928-.69-2.46-.902-30.318-4.182-5.912-.696-9.802-1.317-10.583-1.687-3.27-1.551-3.292-7.35-.033-9.035.933-.483 5.146-.546 36.087-.543l35.03.003 1.779.828c2.08.969 3.38 2.389 4.233 4.622 1.15 3.013.177 7.204-2.187 9.416-.551.516-2.51 1.649-4.354 2.516-3.636 1.712-17.1 8.16-25.576 12.247-2.91 1.404-6.72 3.229-8.467 4.055-1.746.827-6.65 3.189-10.896 5.25-4.246 2.06-7.83 3.745-7.964 3.745-.684 0-1.822 1.766-1.716 2.663.239 2.016.89 2.172 13.168 3.16 47.305 3.802 53.08 4.335 54.228 5.006 3.454 2.017 3.309 7.201-.253 9.069-1.407.738-1.528.74-40.922.788-21.731.026-40.328-.074-41.327-.222z" fill="#fff" stroke-width=".353"/></svg>