<svg id="Слой_1" data-name="Слой 1" xmlns="http://www.w3.org/2000/svg" viewBox="0 0 61.14 7.39"><defs><style>.cls-1{fill:#9a1648}</style></defs><path class="cls-1" d="M8 .92S7.33 1 6.27 2.37C5.76 3 3.92 5.23 3.55 5.66A3.35 3.35 0 0 1 1 6.44s.62-2.93.82-3.75A2 2 0 0 1 4.25 1a1.45 1.45 0 0 0-.86.53 17.94 17.94 0 0 0-1 3.75C3.47 4 5 2.36 5.22 2.05A3.38 3.38 0 0 1 8 .92m.33-.77h-5A2.3 2.3 0 0 0 1 2L0 7.32h7.08c2.08 0 3.28-.48 3.5-2A1.7 1.7 0 0 0 9.1 3.51c.74-.14 1.64-.39 1.82-1.45.15-.8-.59-1.91-2.59-1.91M57.24 4.5L58 .15h-1.34l-1.35 7.16h1.38l.49-2.62 1.62 2.62h1.61l-1.9-2.78 2.63-2.36h-1.46zM55 3.65c.15-.83-.33-1.58-2.22-1.58a7.25 7.25 0 0 0-2.5.4l-.91 4.85h1.38l.8-4.32a2.72 2.72 0 0 1 1-.18c.9 0 1.12.43 1.05.85l-.69 3.66h1.35zm-6 .2C49.26 2.52 48.23 2 47 2a4.22 4.22 0 0 0-1.76.3l-.4.79a4.85 4.85 0 0 1 1.77-.32c.74 0 1.24.21 1.12.88l-.06.27c-2 .12-3.65.58-3.86 1.86-.15.93.83 1.59 2.44 1.59.84 0 1.57 0 2.13-.08zm-1.46.65l-.42 2.25a5.69 5.69 0 0 1-.86 0c-.67 0-1.25-.28-1.14-1 .14-.93 1-1.2 2.42-1.3M43.73 2c.14-.82-.65-2-2.71-2-1 0-2.42.24-2.57 1l-1.17 6.3a18.14 18.14 0 0 0 2.48.08c2.15 0 3.39-.5 3.62-2a1.77 1.77 0 0 0-1.53-1.87c.76-.14 1.69-.4 1.88-1.5m-4.34 1.81h.42c1.7-.06 2.2.63 2 1.54s-.94 1.23-2 1.23h-1zM42.27 2c-.14.74-.72 1.18-2.23 1.14a2.74 2.74 0 0 1-.54 0l.42-2.25a2.41 2.41 0 0 1 .95-.17c1 0 1.56.44 1.4 1.31M38.1.36a1.19 1.19 0 0 1 .44-.24c-1.6-.37-3.34.14-3.62 1.42l-.11.62h-.89l-.14.74h.89l-.83 4.41h1.37L36 2.9h1l.14-.74h-1l.08-.39c.15-.66.38-1.28 1.68-1.07a.68.68 0 0 1 .2-.34m-5.94 7l1-5.15h-1.3l-1 5.15zm-3.75-2.84L31 2.16h-1.42l-2.47 2.35.82-4.36h-1.37l-1.35 7.17h1.37l.5-2.66 1.64 2.65h1.61zm-3.65-.67C25 2.52 24 2 22.74 2a4.19 4.19 0 0 0-1.76.3l-.4.79a4.59 4.59 0 0 1 1.77-.32c.74 0 1.23.21 1.11.88l-.05.27c-2 .11-3.65.58-3.87 1.86-.15.93.83 1.59 2.45 1.59.84 0 1.56 0 2.12-.09zm-1.46.65l-.42 2.25a5.69 5.69 0 0 1-.86 0c-.67 0-1.25-.28-1.14-1 .14-.93 1-1.2 2.42-1.3m-6.07 2.87L21.15.15h-1.37L16.9 5.77 16.16.15h-1.55l1.33 7.17z"/></svg>