<svg xmlns="http://www.w3.org/2000/svg" xmlns:xlink="http://www.w3.org/1999/xlink" width="55" height="54" viewBox="0 0 55 54"><defs><path id="a" d="M0 .058v22.097h53.965V.058z"/><path id="c" d="M43.702 6.398V.04H.344v6.358h43.358z"/></defs><g fill="none" fill-rule="evenodd"><path fill="#fff" d="M.008 0v53.95h53.949V0z"/><g transform="translate(0 16.675)"><mask id="b" fill="#fff"><use xlink:href="#a"/></mask><path fill="#fff" d="M47.353 9.485h4.051V.058h-4.323v1.507L46.118.058H42.35v1.906L41.505.058h-6.23c-.3 0-.592.022-.875.066-.241.038-.476.091-.702.162a4.06 4.06 0 0 0-1.076.509V.058H12.289l-.554 1.644-.563-1.644H6.44v1.926L5.586.058h-3.86L0 4.09v5.395h2.734l.508-1.353h.963l.518 1.353h21.034V8.114l1.053 1.371h5.813V8.799a3.877 3.877 0 0 0 .95.446c.203.066.41.116.615.153.335.061.67.087.987.087h3.478l.508-1.353h.963l.518 1.353h5.83V8.086l.881 1.399zm6.612 12.09v-8.846H20.488l-.853 1.208-.844-1.208H9.163v9.426h9.59l.836-1.226.863 1.226h6.003v-2.034h-.063c.746 0 1.425-.135 2.026-.358v2.392h4.186v-1.37l1.054 1.37H51.82c.523 0 1.013-.089 1.453-.248.247-.09.478-.201.69-.332z" mask="url(#b)"/><g transform="translate(10.3 14.223)"><mask id="d" fill="#fff"><use xlink:href="#c"/></mask><path fill="#ee2f48" d="M41.559 5.126h-3.261v1.272h3.214c1.373 0 2.19-.836 2.19-2.026 0-1.135-.736-1.798-1.97-1.798H40.26c-.364 0-.618-.236-.618-.608 0-.382.254-.636.618-.636h2.76l.564-1.29h-3.28c-1.37 0-2.188.836-2.188 1.98 0 1.172.773 1.844 1.98 1.844h1.463c.362 0 .626.236.626.618 0 .39-.264.644-.626.644zm-6.05 0h-3.26v1.272h3.215c1.372 0 2.19-.836 2.19-2.026 0-1.135-.736-1.798-1.972-1.798h-1.47c-.364 0-.618-.236-.618-.608 0-.382.254-.636.617-.636h2.76l.564-1.29h-3.279c-1.371 0-2.189.836-2.189 1.98 0 1.172.773 1.844 1.98 1.844h1.463c.363 0 .626.236.626.618 0 .39-.263.644-.626.644zM31.324 1.33V.04h-5.086v6.358h5.086V5.117h-3.56v-1.28h3.478V2.565h-3.478V1.33h3.56zm-8.519.009c.545 0 .836.354.836.79 0 .436-.29.78-.836.78h-1.789V1.34h1.79zm-1.789 2.77h.718l1.898 2.289h1.898l-2.116-2.343c1.08-.2 1.725-.981 1.725-1.998 0-1.19-.844-2.017-2.197-2.017h-3.452v6.358h1.526V4.109zm-3.887-1.935c0 .428-.272.782-.809.782h-1.825V1.394h1.825c.537 0 .809.345.809.78zM12.968.04v6.358h1.526V4.299h1.916c1.39 0 2.252-.907 2.252-2.134 0-1.262-.844-2.125-2.197-2.125h-3.497zm-2.243 6.358h1.907L10.08 3.192 12.614.04h-1.852L9.199 2.057 7.646.04H5.74L8.282 3.22 5.748 6.398H7.6l1.562-2.044 1.562 2.044zM5.43 1.33V.04H.344v6.358H5.43V5.117H1.87v-1.28H5.35V2.565H1.87V1.33h3.56z" mask="url(#d)"/></g><path fill="#ee2f48" d="M45.237 4.145l-.018-.527.318.527 2.434 3.805h1.78V1.592h-1.49v3.679l.02.472-.282-.472-2.38-3.679h-1.87V7.95h1.488V4.145zm-6.084-.182l.463-1.19.462 1.19.564 1.408H38.6l.554-1.408zm2.524 3.987h1.716L40.68 1.592H38.67L35.947 7.95h1.625l.536-1.362h3.024l.545 1.362zm-6.657 0h.082l.626-1.353h-.463c-1.044 0-1.662-.654-1.662-1.78v-.09c0-1.009.554-1.763 1.644-1.763H36.9V1.592h-1.78c-1.961 0-3.033 1.318-3.033 3.125v.109c0 1.89 1.099 3.115 2.933 3.124zm-5.422 0h1.526V1.592h-1.526V7.95zm-3.206-5.058c.545 0 .836.354.836.79 0 .436-.29.78-.836.78h-1.789v-1.57h1.79zm-1.789 2.77h.718l1.898 2.288h1.898l-2.116-2.343c1.08-.2 1.726-.981 1.726-1.998 0-1.19-.845-2.017-2.198-2.017h-3.452V7.95h1.526V5.662zm-2.642-2.78v-1.29h-5.086V7.95h5.086V6.651H18.4V5.39h3.478V4.118H18.4V2.882h3.56zM9.309 3.61l-.036-1.716 1.762 6.057h1.38l1.762-6.021-.036 1.67V7.95h1.48V1.592h-2.688l-1.208 4.505-1.217-4.505h-2.68V7.95H9.31V3.61zm-6.076.354l.464-1.19.463 1.19.563 1.408H2.679l.554-1.408zM5.758 7.95h1.717L4.759 1.592H2.752L.027 7.95h1.626l.536-1.362h3.024l.545 1.362z"/></g></g></svg>