<svg xmlns="http://www.w3.org/2000/svg" width="744.28" height="392.29" viewBox="0 0 744.28 392.29"><path fill="#fff" d="M506.284 297.717c-1.333-.682-11.847-6.906-27.456-6.906-21.098 0-35.735 14.69-35.735 34.496 0 19.217 14.007 34.527 35.735 34.527 15.34 0 26.02-6.09 27.456-6.865v34.713c-4.094 1.148-15.247 4.6-29.74 4.6-36.708 0-68.93-25.305-68.93-66.975 0-38.619 29.152-66.943 68.93-66.943 15.3 0 26.649 3.73 29.74 4.641v34.712zM165.638 297.717c-1.312-.682-11.805-6.906-27.414-6.906-21.14 0-35.768 14.69-35.768 34.496 0 19.217 14.018 34.527 35.768 34.527 15.34 0 26.009-6.09 27.414-6.865v34.713c-4.052 1.148-15.186 4.6-29.761 4.6-36.688 0-68.867-25.305-68.867-66.975 0-38.619 29.15-66.943 68.867-66.943 15.36 0 26.69 3.73 29.76 4.641v34.712zM608.95 291.295c-19.362 0-33.74 15.238-33.74 34.01 0 18.814 14.378 34.041 33.74 34.041 19.341 0 33.762-15.227 33.762-34.04 0-18.773-14.42-34.01-33.762-34.01m68.34 34.008c0 36.998-28.563 66.975-68.34 66.975-39.778 0-68.299-29.977-68.299-66.975 0-36.936 28.521-66.943 68.3-66.943 39.776 0 68.34 30.008 68.34 66.943M366.902 290.054c-.485-.154-14.224-3.949-25.512-3.949-13.077 0-20.189 4.383-20.189 10.596 0 7.877 9.594 10.627 14.958 12.322l9.004 2.863C366.345 318.626 376 333.13 376 348.884c0 32.49-28.573 43.406-53.548 43.406-17.356 0-33.616-3.195-35.219-3.535v-29.762c2.874.723 16.561 4.807 30.815 4.807 16.24 0 23.703-4.744 23.703-12.074 0-6.553-6.46-10.338-14.555-12.88-1.975-.66-4.94-1.593-6.968-2.253-18.173-5.748-33.327-16.426-33.327-37.836 0-24.189 18.111-40.428 48.192-40.428 15.89 0 30.836 3.855 31.808 4.113v27.612zM32.405 121.67c0-8.912-7.278-16.138-16.199-16.138S-.003 112.758-.003 121.67v33.948c0 8.962 7.288 16.198 16.209 16.198s16.199-7.236 16.199-16.198V121.67zM121.401 77.11c0-8.91-7.277-16.156-16.198-16.156-8.932 0-16.209 7.247-16.209 16.157v78.512c0 8.962 7.277 16.188 16.21 16.188 8.92 0 16.197-7.226 16.197-16.188V77.11zM210.4 16.146C210.4 7.236 203.123 0 194.202 0c-8.932 0-16.21 7.236-16.21 16.147V187.88c0 8.962 7.278 16.198 16.21 16.198 8.92 0 16.198-7.236 16.198-16.198V16.146zM299.397 77.11c0-8.91-7.277-16.156-16.199-16.156-8.93 0-16.209 7.247-16.209 16.157v78.512c0 8.962 7.278 16.188 16.21 16.188 8.921 0 16.198-7.226 16.198-16.188V77.11zM388.294 121.67c0-8.912-7.226-16.138-16.105-16.138-8.922 0-16.2 7.226-16.2 16.137v33.948c0 8.962 7.278 16.198 16.2 16.198 8.88 0 16.105-7.236 16.105-16.198V121.67zM477.332 77.11c0-8.91-7.226-16.156-16.146-16.156-8.911 0-16.157 7.247-16.157 16.157v78.512c0 8.962 7.246 16.188 16.157 16.188 8.921 0 16.146-7.226 16.146-16.188V77.11zM566.39 16.146C566.39 7.236 559.162 0 550.241 0c-8.93 0-16.157 7.236-16.157 16.147V187.88c0 8.962 7.227 16.198 16.157 16.198 8.922 0 16.147-7.236 16.147-16.198V16.146zM655.428 77.11c0-8.91-7.226-16.156-16.354-16.156-8.921 0-16.147 7.247-16.147 16.157v78.512c0 8.962 7.225 16.188 16.146 16.188 9.128 0 16.354-7.226 16.354-16.188V77.11zM744.283 121.67c0-8.912-7.246-16.138-16.156-16.138-8.922 0-16.168 7.226-16.168 16.137v33.948c0 8.962 7.246 16.198 16.168 16.198 8.91 0 16.156-7.236 16.156-16.198V121.67zM725.609 372.953v2.027h-5.77v15h-2.366v-15h-5.8v-2.027h13.936zM726.819 372.953h3.712l5.096 13.967h.083l4.93-13.967h3.64v17.027h-2.43v-13.957h-.082l-5.17 13.957h-2.242l-5.044-13.957h-.114v13.957h-2.378v-17.027zM243.141 390.988h-32.635v-129.33h32.635v129.33z"/></svg>