<svg xmlns="http://www.w3.org/2000/svg" width="2891.199" height="580.037" viewBox="0 0 764.963 153.468" version="1.1" id="svg8"><defs id="defs2"><style id="style10"></style></defs><g id="layer1" transform="translate(519.896 155.014)"><path d="M-515.577-1.76l-4.32-.073.177-.801c.096-.44.76-1.99 1.474-3.442.715-1.453 1.3-2.816 1.3-3.03 0-.213.118-.387.264-.387.145 0 .265-.181.265-.403 0-.221.476-1.35 1.058-2.507.582-1.158 1.058-2.287 1.058-2.508 0-.222.12-.403.265-.403.145 0 .264-.238.264-.53 0-.29.12-.528.265-.528.145 0 .265-.182.265-.404 0-.222.41-1.22.913-2.217.502-.998.84-1.888.75-1.978-.09-.09-.025-.164.145-.164.17 0 .308-.18.308-.402 0-.221.53-1.457 1.178-2.747.648-1.29 1.104-2.418 1.014-2.508-.09-.09-.024-.164.145-.164.17 0 .309-.238.309-.529 0-.29.12-.529.265-.529.145 0 .264-.177.264-.394 0-.217.704-1.854 1.565-3.638 3.086-6.4 4.256-8.969 4.256-9.344 0-.21.139-.382.309-.382.17 0 .24-.068.157-.152-.083-.083.452-1.363 1.19-2.844.738-1.48 1.342-2.842 1.342-3.023 0-.182.1-.331.221-.331s.197-.09.168-.199c-.095-.36.348-1.389.6-1.389.135 0 .246-.181.246-.403 0-.222.411-1.22.914-2.218.502-.997.84-1.887.75-1.977-.09-.09-.044-.164.104-.164s.47-.447.716-.992l.447-.993 5.745.037 5.744.036.851 1.684c1.048 2.073 3.89 8.058 5.76 12.134a694.182 694.182 0 0 0 2.645 5.689c.688 1.455 2.146 4.55 3.242 6.879 1.095 2.328 2.974 6.317 4.175 8.863a725.379 725.379 0 0 1 2.844 6.086c.363.8 1.337 2.884 2.164 4.63.828 1.746 2.053 4.335 2.723 5.753.67 1.419 1.167 2.631 1.103 2.695-.063.063-2.257.143-4.874.177l-4.758.061-.71-1.295c-.391-.712-.665-1.342-.608-1.398.056-.057-.072-.277-.284-.49-.213-.212-.32-.496-.237-.63.083-.133.024-.243-.13-.243s-.28-.238-.28-.53c0-.29-.119-.528-.264-.528-.146 0-.265-.181-.265-.402 0-.22-.597-1.591-1.326-3.045l-1.327-2.643-16.05.068-16.05.069-1.696 3.704a451.71 451.71 0 0 0-2.443 5.416c-.553 1.266-.909 1.749-1.367 1.852-.34.077-2.563.107-4.938.067zm39.376-17.888c0-.358-1.127-2.953-1.34-3.085-.16-.1-.275-.286-.254-.416.04-.242-1.033-2.743-2.37-5.526-2.078-4.327-2.386-5.015-2.386-5.339 0-.192-.126-.35-.28-.35-.154 0-.213-.11-.13-.243.083-.134-.03-.423-.249-.643-.22-.22-.4-.529-.4-.688 0-.158-.59-1.477-1.312-2.929-.722-1.452-1.261-2.64-1.199-2.64.063 0-.448-1.161-1.136-2.58-.688-1.42-1.37-2.933-1.516-3.364-.254-.749-.357-.583-2.22 3.571-1.074 2.396-2.277 5.071-2.674 5.944-.397.873-1.824 4.029-3.172 7.012-1.347 2.983-2.72 6.019-3.052 6.747-1.02 2.24-1.974 4.426-1.974 4.528 0 .053 5.506.127 12.237.165 10.563.06 13.427.025 13.427-.164zm30.827 17.608c-.074-.194-.135-12.424-.135-27.177 0-25.291.026-26.836.463-27.032.255-.114 2.397-.172 4.76-.129l4.299.079.068 23.47.067 23.468 16.893.133 16.893.132v3.524c0 1.938-.056 3.58-.123 3.647-.068.068-9.782.149-21.587.18-17.668.047-21.487-.005-21.598-.295zm85.487.068c-.097-.253-.17-10.71-.161-23.239.008-12.528.012-22.986.008-23.239-.007-.428-.748-.465-10.658-.53l-10.65-.068v-3.704c0-3.364.043-3.702.464-3.672.254.019 12.012.048 26.127.067l25.665.033v7.408H-350.523V-1.82l-4.035.004c-2.22.002-4.287.071-4.594.153-.381.103-.615.004-.735-.309zm32.937-.063c-.315-.26-.339-.383-.092-.485a.575.575 0 0 0 .33-.486c0-.191.637-1.64 1.416-3.22.778-1.578 1.492-3.19 1.588-3.58.095-.39.351-.887.569-1.105.218-.218.397-.583.397-.812 0-.229.119-.416.264-.416.146 0 .265-.182.265-.404 0-.223.357-1.112.793-1.977.437-.865.794-1.704.794-1.864 0-.16.179-.469.397-.687.218-.218.473-.716.567-1.106.094-.39.565-1.498 1.046-2.463.482-.965.802-1.828.712-1.918-.09-.09-.025-.164.144-.164.17 0 .31-.238.31-.53 0-.29.118-.529.264-.529.145 0 .264-.238.264-.529 0-.29.12-.529.265-.529.145 0 .265-.163.265-.362 0-.198.595-1.572 1.322-3.052.728-1.48 1.323-2.864 1.323-3.078 0-.213.12-.387.265-.387.145 0 .265-.181.265-.403 0-.221.476-1.35 1.058-2.507.582-1.158 1.058-2.236 1.058-2.395 0-.159.18-.469.4-.688.22-.22.331-.51.248-.643-.082-.134-.017-.243.146-.243.163 0 .236-.096.164-.214-.073-.117.158-.724.513-1.349.355-.624.578-1.243.497-1.374-.08-.13-.014-.238.149-.238s.222-.12.132-.265c-.09-.145-.055-.264.077-.264s.45-.506.706-1.125c.257-.618.99-2.229 1.628-3.579.639-1.35 1.161-2.578 1.161-2.73 0-.153.18-.457.4-.676.219-.22.331-.51.248-.643-.082-.134-.024-.243.13-.243s.28-.238.28-.53c0-.29.09-.529.2-.529.175 0 .541-.873.884-2.106.059-.212.2-.51.314-.661.115-.152.353-.481.53-.733.286-.408.934-.46 5.977-.482 3.11-.014 5.76.079 5.887.206.127.127 1.464 2.844 2.97 6.039 1.506 3.194 3.22 6.82 3.808 8.056.588 1.237 1.38 2.938 1.76 3.78.38.84 1.41 3.043 2.289 4.894 2.472 5.201 2.842 5.988 4.889 10.376 1.052 2.256 2.701 5.75 3.665 7.764.964 2.014 1.752 3.7 1.752 3.746 0 .047.958 2.08 2.128 4.52 1.17 2.439 2.092 4.608 2.05 4.82-.063.318-.908.39-4.898.417l-4.822.032-.16-.727c-.088-.4-.27-.728-.404-.728s-.244-.181-.244-.402c0-.221-.53-1.458-1.177-2.747-.648-1.29-1.104-2.419-1.015-2.508.09-.09.025-.164-.145-.164-.17 0-.308-.238-.308-.529 0-.291-.127-.53-.28-.53-.155 0-.213-.109-.13-.242.082-.134-.03-.423-.25-.643-.22-.22-.399-.586-.399-.815 0-.229-.119-.416-.264-.416-.146 0-.265-.175-.265-.389 0-.338-2.081-.39-15.844-.4-8.714-.006-16.037.062-16.272.152-.235.09-.428.26-.428.375 0 .115-.463 1.204-1.03 2.419a427.107 427.107 0 0 0-2.272 4.987c-.683 1.528-1.32 2.86-1.417 2.959-.097.1-2.248.218-4.78.264-3.512.064-4.706.001-5.027-.263zm43.705-17.676c.09-.09-.426-1.337-1.146-2.773-.72-1.435-1.31-2.79-1.31-3.012 0-.22-.126-.401-.28-.401-.154 0-.213-.11-.13-.243.083-.134-.03-.423-.249-.643-.22-.22-.4-.586-.4-.815 0-.229-.118-.416-.264-.416-.145 0-.264-.182-.264-.406 0-.223-.298-.993-.662-1.71-.364-.719-.661-1.422-.661-1.564 0-.142-.641-1.605-1.425-3.25-.783-1.646-1.572-3.379-1.752-3.852-.18-.473-.432-.86-.56-.86-.127 0-.232-.184-.232-.41 0-.225-.238-.902-.53-1.504-.29-.603-.528-1.252-.528-1.443 0-.19-.09-.347-.2-.347-.11 0-.357-.387-.548-.86-.968-2.39-1.492-3.376-1.748-3.291-.244.08-2.995 5.912-5.827 12.353-.48 1.092-1.2 2.7-1.598 3.572-.4.873-1.258 2.778-1.908 4.234-.65 1.455-1.544 3.42-1.987 4.365-.442.946-.969 2.107-1.17 2.58l-.367.86h12.791c7.036 0 12.866-.074 12.955-.164zm30.953 17.814c-.443-.199-.468-1.633-.468-27.183 0-20.47.075-27.003.312-27.094.242-.093 12.615-.24 14.026-.167.173.01 1.228 1.822 2.344 4.029 1.115 2.206 2.235 4.379 2.487 4.828.252.45 2.04 3.913 3.974 7.696 1.933 3.784 4.141 8.07 4.906 9.525a1313.51 1313.51 0 0 1 6.902 13.336c1.295 2.532 2.394 4.408 2.44 4.167.048-.24.196-.437.331-.437s.246-.187.246-.416c0-.229.184-.6.41-.826.225-.225.478-.752.562-1.171.083-.42.256-.762.384-.762.127 0 .231-.238.231-.53 0-.29.12-.529.265-.529.145 0 .264-.238.264-.529 0-.29.09-.529.2-.529.212 0 1.014-1.647.887-1.822-.04-.057.043-.176.185-.265.142-.089 1.593-2.781 3.224-5.983 1.631-3.201 3.716-7.249 4.634-8.995.918-1.746 1.62-3.253 1.56-3.35-.06-.098-.01-.217.111-.266.122-.049.852-1.339 1.623-2.867s1.506-2.818 1.633-2.866c.127-.049.23-.259.23-.467 0-.374.515-1.438.82-1.694.087-.073.236-.451.331-.841.095-.39.352-.888.57-1.106.218-.218.396-.529.396-.691 0-.162.132-.438.293-.614.16-.176.964-1.616 1.786-3.201l1.493-2.882 7.143.05c3.928.026 7.232.139 7.343.25.11.11.17 12.338.134 27.174l-.068 26.973-4.233.075c-2.328.042-4.471.017-4.763-.054-.524-.13-.528-.329-.477-22.433.048-21.026.025-22.267-.397-21.666-.247.35-1.705 3.088-3.24 6.085a1685.718 1685.718 0 0 1-4.795 9.285c-1.102 2.11-3.046 5.86-4.32 8.335-1.275 2.473-2.884 5.569-3.576 6.879a814.55 814.55 0 0 0-3.952 7.668c-1.482 2.907-2.816 5.432-2.963 5.61-.187.224-1.587.347-4.572.402l-4.304.078-1.006-2.05c-.553-1.128-1.127-2.051-1.274-2.051-.148 0-.195-.074-.105-.164.182-.182-1.588-3.846-1.98-4.096-.136-.087-.287-.325-.335-.529-.235-.993-.49-1.561-.702-1.561-.129 0-.234-.228-.234-.507s-.095-.547-.21-.595c-.116-.049-.79-1.22-1.497-2.602-.707-1.383-1.386-2.553-1.51-2.602-.122-.048-.222-.263-.222-.476 0-.48-.735-1.928-1.228-2.42-.2-.201-.297-.475-.214-.609.082-.134.017-.243-.146-.243-.163 0-.222-.12-.132-.265.09-.145.061-.264-.064-.264s-.691-.953-1.26-2.117c-.567-1.164-1.146-2.117-1.287-2.117-.14 0-.181-.074-.091-.164.155-.155-1.013-2.724-1.368-3.01-.09-.073-.202-.312-.25-.53-.047-.218-.196-.436-.33-.485-.135-.048-.245-.316-.245-.595 0-.28-.12-.507-.265-.507-.145 0-.264-.229-.264-.507 0-.28-.105-.547-.233-.596-.128-.048-.857-1.338-1.62-2.866-.762-1.528-1.491-2.818-1.62-2.867-.13-.049-.167-.198-.085-.33.082-.134.023-.243-.13-.243-.155 0-.28-.238-.28-.529 0-.29-.101-.529-.224-.529-.122 0-.688-.957-1.257-2.127-1.53-3.149-1.539-3.165-1.762-3.165-.113 0-.2 9.898-.193 21.996.007 12.098-.036 22.045-.097 22.106-.21.21-8.364.216-8.832.007zm122.518-.055c-.302-.222-.35-4.694-.29-27.253l.07-26.987 7.012-.132c3.856-.073 7.162-.09 7.345-.037.184.053 1.594 2.612 3.135 5.689 1.54 3.076 2.99 5.741 3.222 5.923.232.182.336.331.23.331-.167 0 7.793 15.85 8.305 16.536.109.146 1.837 3.48 3.84 7.409s3.802 7.378 3.996 7.665c.31.456.354.465.354.066 0-.25.119-.455.265-.455.145 0 .264-.176.264-.39 0-.532 1.113-2.785 1.376-2.785.116 0 .212-.238.212-.53 0-.29.119-.529.264-.529.146 0 .265-.238.265-.529 0-.29.104-.529.232-.529s.376-.387.551-.86c.175-.473.427-1.038.56-1.257.81-1.334 2.07-3.969 1.901-3.972-.11-.002-.067-.092.097-.199.164-.107 1.28-2.159 2.478-4.56 1.2-2.4 2.285-4.405 2.414-4.454.128-.048.233-.316.233-.595 0-.279.1-.507.22-.507.243 0 1.418-2.376 1.36-2.749-.02-.129.065-.307.19-.397.405-.288 1.93-3.386 1.753-3.562-.094-.094-.012-.171.182-.171s.279-.074.189-.164c-.09-.09.01-.338.223-.55.212-.213.319-.497.236-.63-.083-.134-.039-.244.098-.244.136 0 .396-.357.577-.794.18-.436.433-.793.56-.793.129 0 .233-.18.233-.4 0-.462.537-1.493.926-1.779.146-.107.168-.196.05-.198-.24-.005 1.158-2.732 1.472-2.87.109-.05.198-.317.198-.596 0-.28.126-.507.28-.507.154 0 .213-.11.13-.244-.083-.133.03-.422.25-.642.219-.22.398-.577.398-.793 0-.217.11-.434.245-.482.135-.049.284-.262.33-.475.048-.212.184-.51.302-.661.118-.151.415-.614.661-1.03l.447-.753 7.133.038c3.924.021 7.17.074 7.214.118.044.045.08 12.273.08 27.175v27.094l-4.17.075c-2.295.042-4.41.017-4.7-.055-.525-.129-.53-.333-.49-22.366.022-12.23-.037-22.236-.132-22.234-.095.002-1.22 2.055-2.5 4.564s-3.344 6.526-4.588 8.927a3341.423 3341.423 0 0 0-5.044 9.79c-1.53 2.983-2.87 5.543-2.978 5.688-.108.146-1.714 3.229-3.57 6.852-1.855 3.623-3.647 7.076-3.982 7.673l-.61 1.085-4.386.073-4.386.072-1.36-2.718c-.748-1.495-1.466-2.758-1.595-2.807-.129-.049-.167-.198-.085-.33.083-.134.024-.243-.13-.243s-.28-.238-.28-.529c0-.29-.127-.529-.28-.529-.155 0-.213-.11-.13-.243.082-.134-.012-.405-.209-.602-.197-.197-1.225-2.082-2.284-4.189-1.058-2.106-2.04-3.902-2.18-3.991-.14-.09-.238-.268-.218-.397.059-.373-1.116-2.749-1.36-2.749-.12 0-.219-.238-.219-.529 0-.291-.094-.53-.21-.53-.115 0-.735-1.07-1.377-2.38-.642-1.31-1.269-2.382-1.393-2.382-.124 0-.158-.11-.076-.243.083-.134 0-.404-.182-.602-.184-.197-.373-.533-.42-.746-.049-.213-.228-.477-.398-.585-.17-.108-.217-.199-.104-.2.25-.006-.529-1.557-1.036-2.064-.2-.2-.303-.464-.228-.586.075-.12.038-.26-.082-.309-.12-.049-.971-1.577-1.893-3.396-.92-1.819-1.786-3.38-1.923-3.47-.136-.088-.253-.267-.259-.396-.017-.365-.283-1.014-.475-1.161-.096-.073-.747-1.293-1.447-2.712-.7-1.419-1.377-2.58-1.503-2.58-.127 0-.225 9.794-.22 21.999.005 12.099-.039 22.046-.098 22.105-.245.245-8.74.197-9.078-.05zm155.355.132c-.29-.125-1.206-.236-2.034-.246-.829-.01-1.58-.138-1.67-.283-.09-.146-.625-.265-1.19-.265s-1.101-.119-1.191-.264c-.09-.146-.45-.265-.801-.265-.351 0-1.062-.238-1.58-.53-.518-.29-1.117-.528-1.331-.528-.214 0-.389-.091-.389-.203 0-.11-.477-.497-1.06-.857-.584-.36-1.128-.865-1.21-1.121-.08-.256-.239-.465-.35-.465-.203 0-1.633-2.738-1.717-3.286a1.852 1.852 0 0 0-.2-.55c-.18-.307-.698-3.055-.967-5.134-.266-2.061.142-8.35.636-9.79.23-.669.465-1.454.524-1.745.058-.29.226-.568.373-.617.147-.049.267-.262.267-.473 0-.43 1.414-1.885 2.398-2.466 1.22-.72 2.604-1.34 2.997-1.34.217 0 .468-.118.558-.264.09-.145.447-.264.794-.264.346 0 .704-.12.793-.265.09-.145.693-.265 1.339-.265s1.175-.065 1.175-.144c0-.08-.598-.743-1.328-1.473-1.805-1.805-2.821-3.889-3.026-6.205-.267-3.01.59-7.756 1.6-8.873.25-.276.374-.502.275-.502-.1 0 .355-.536 1.01-1.191s1.32-1.19 1.478-1.19c.158 0 .213-.12.123-.265-.09-.146.024-.265.253-.265s.623-.105.875-.234c2.075-1.055 5.305-1.746 9.456-2.023a138.63 138.63 0 0 0 3.44-.266c1.418-.144 9.388.338 11.376.688 3.991.703 5.657 1.385 7.57 3.104 1.498 1.344 2.471 3.204 3.01 5.747.483 2.278.537 7.558.083 8.012-.221.221-1.628.318-4.625.318-5.04 0-4.527.452-4.663-4.101-.098-3.25-.23-3.946-.922-4.874-1.095-1.466-2.559-1.723-9.825-1.723-8.179 0-10.114.466-11.03 2.659-.435 1.039-.478 3.53-.086 4.94.271.977 2.502 3.628 3.053 3.628.148 0 .5.213.783.474.546.505 2.92 2.172 3.092 2.172.057 0 4.857 3.151 10.668 7.003l10.565 7.003.066-2.439c.109-4.03-.407-3.654 4.902-3.57l4.557.073v4.365c0 2.401-.086 5.096-.19 5.988l-.192 1.622 2.131 1.357c1.172.746 2.26 1.277 2.415 1.181.156-.096.208-.053.116.096-.093.15 1.49 1.371 3.545 2.734l3.713 2.463-2.721 2.73c-1.497 1.503-2.79 2.732-2.875 2.732-.084 0-.409-.239-.721-.53-.313-.29-.752-.529-.976-.529-.225 0-.408-.099-.408-.22 0-.12-.328-.389-.728-.595a7.059 7.059 0 0 1-1.24-.838c-.283-.255-.615-.463-.74-.463-.123 0-.48-.239-.793-.53-.312-.29-.724-.529-.915-.529-.19 0-.347-.119-.347-.264 0-.146-.178-.265-.397-.265-.218 0-.397-.12-.397-.265a.271.271 0 0 0-.275-.264c-.152 0-.533-.24-.847-.532l-.571-.532-1.072 1.023c-2.413 2.306-5.446 3.75-9.538 4.54a135.7 135.7 0 0 0-2.697.55c-1.395.305-21.457.286-22.174-.022zm19.712-6.907c.946-.15 2.085-.384 2.532-.52.447-.135 1.013-.246 1.257-.246s.444-.12.444-.265c0-.145.275-.264.612-.264.336 0 .867-.238 1.18-.53.312-.29.67-.529.795-.529.126 0 .491-.302.813-.672.723-.832.687-.876-1.931-2.345a7.153 7.153 0 0 1-.997-.71c-.264-.232-.806-.589-1.204-.794-.398-.205-.782-.441-.855-.525-.316-.364-3.437-2.362-3.69-2.362a.273.273 0 0 1-.279-.264c0-.146-.179-.265-.397-.265-.218 0-.397-.12-.397-.265 0-.145-.156-.264-.347-.264-.19 0-.602-.238-.915-.53-.312-.29-.692-.529-.843-.529a.271.271 0 0 1-.276-.264c0-.146-.179-.265-.397-.265-.218 0-.397-.119-.397-.264 0-.146-.178-.265-.397-.265-.218 0-.396-.119-.396-.264 0-.146-.212-.265-.471-.265-.26 0-.643-.238-.852-.53-.21-.29-.534-.528-.72-.528-.186 0-.339-.12-.339-.265 0-.145-.238-.265-.529-.265-.291 0-.53-.119-.53-.264 0-.146-.168-.265-.374-.265s-.414-.096-.463-.214c-.127-.309-2.513-1.902-2.848-1.902-.155 0-.283-.12-.283-.265 0-.145-.178-.265-.397-.265-.218 0-.397-.119-.397-.264 0-.146-.178-.265-.396-.265-.219 0-.397-.119-.397-.264 0-.146-.179-.265-.397-.265-.218 0-.397-.119-.397-.264 0-.454-2.148-.276-4.56.376-4.341 1.175-5.233 2.002-5.725 5.312-.529 3.554-.204 8.403.722 10.768.394 1.008 1.855 2.329 2.575 2.329.334 0 .67.102.747.227.55.89 17.334 1.3 22.116.54zm77.92 6.915c-.291-.13-.997-.244-1.569-.254-.572-.01-1.405-.13-1.852-.265a62.69 62.69 0 0 0-2.003-.555c-.655-.17-1.398-.416-1.65-.547-.253-.132-.64-.24-.86-.24-.22 0-.4-.104-.4-.233 0-.128-.209-.3-.464-.38-.764-.243-1.968-1.054-2.88-1.941-.962-.936-2.74-4.275-2.931-5.506-.07-.441-.215-.922-.326-1.067-.11-.146-.33-.98-.49-1.852-.849-4.628-.979-6.87-.963-16.537.017-9.909.25-13.356 1.058-15.653.187-.532.27-1.038.184-1.124-.086-.086-.01-.156.168-.156.179 0 .255-.112.17-.25-.084-.137.258-.66.76-1.164.504-.503.844-.986.757-1.073-.087-.088-.004-.159.185-.159s.536-.216.772-.48c1.125-1.261 5.24-3.447 7.307-3.88.436-.092 1.33-.283 1.984-.425 5.84-1.27 23.173-1.665 28.707-.652 5.808 1.062 8.623 2.632 10.324 5.758 1.195 2.196 1.753 4.712 1.909 8.609.131 3.301.11 3.506-.358 3.518-.274.007-2.318.037-4.544.066-4.657.062-4.18.402-4.384-3.121-.067-1.164-.19-2.415-.272-2.778-.377-1.67-.827-2.91-1.057-2.91-.138 0-.177-.075-.087-.165.2-.2-.459-.894-.85-.894-.156 0-.284-.107-.284-.236 0-1.707-19.233-2.064-26.987-.501-.8.16-1.569.393-1.707.515-.138.122-.436.221-.661.22-.655-.003-2.028 1.787-2.509 3.27-.862 2.659-1.025 5.308-.857 13.93.089 4.584.339 9.958.556 11.944.778 7.134 1.434 8.4 4.885 9.43 3.608 1.075 5.15 1.209 13.62 1.18 12.368-.042 14.825-.605 16.456-3.769.444-.86.579-2.664.639-8.533.004-.423.403-.463 4.617-.463 5.438 0 4.863-.645 4.603 5.16-.252 5.612-1.246 8.557-3.716 11.008-1.341 1.33-3.997 2.238-8.542 2.92-2.323.347-25.738.556-26.458.235zm67.802.105c-.083-.083-1.026-.255-2.094-.382-1.07-.128-2.539-.362-3.267-.522-.727-.16-1.651-.36-2.053-.442-.402-.083-.796-.256-.876-.385-.08-.129-.425-.234-.768-.234s-.664-.09-.712-.199c-.049-.109-.684-.493-1.411-.853-.728-.36-1.595-.936-1.927-1.28-.99-1.024-2.752-4.763-3.123-6.63-.04-.2-.19-.914-.333-1.587-.902-4.238-.967-5.336-.967-16.306 0-6.112.082-11.53.182-12.039.453-2.303 1.801-6.115 2.372-6.706.196-.203.884-.98 1.529-1.726.645-.747 1.33-1.358 1.521-1.358.192 0 .349-.106.349-.236 0-.287 3.237-1.88 3.82-1.88.227 0 .413-.12.413-.265 0-.145.333-.264.74-.264.408 0 .855-.107.993-.238.138-.13.728-.306 1.31-.389 1.173-.168 3.8-.587 5.027-.801 1.86-.325 14.554-.447 18.52-.178 7.389.5 10.236 1.075 14.115 2.85 3.846 1.759 5.752 5.844 6.889 14.763.13 1.019.253 5.007.275 8.863.061 10.914-.842 17.426-3.024 21.794-1.844 3.694-5.31 5.33-13.756 6.493-2.17.3-23.459.422-23.744.137zm22.288-7.016c.51-.131 1.425-.239 2.035-.24.61 0 1.183-.12 1.273-.265.09-.146.506-.265.926-.265.42 0 .836-.12.926-.265.09-.145.34-.264.557-.264.699 0 1.568-1.153 2.066-2.742.992-3.159 1.398-8.457 1.394-18.16-.006-11.278-.424-14.026-2.44-16.041-1.295-1.296-2.354-1.67-7.064-2.49-2.43-.424-18.716-.436-21.368-.017-4.819.762-6.642 1.445-7.312 2.741-2.014 3.895-2.632 23.802-.992 31.946.868 4.307 1.632 4.96 6.848 5.865 3.728.646 20.832.791 23.151.197zm-371.292 6.732c-.1-.1-.183-12.292-.183-27.093 0-21.22.07-26.964.331-27.16.195-.147 2.148-.188 4.767-.099l4.436.151v54.24l-4.584.072c-2.521.04-4.666-.01-4.766-.11zm120.338-.689c-.084-.473-.12-12.707-.078-27.186l.075-26.326h9.26l.068 27.186.067 27.186h-9.239zm275.244.42c-.387-.106-.46-.598-.529-3.612-.044-1.919-.006-3.727.086-4.018.158-.502.362-.525 4.041-.45l3.876.08-.073 4.022-.073 4.021-3.44.04c-1.891.02-3.641-.017-3.888-.084zm-661.406-76.908c0-1.964-.073-3.76-.16-3.99-.142-.368.247-.418 3.24-.419 7.994 0 14.926-.69 14.202-1.415-.095-.094.006-.172.223-.172.523 0 2.408-4.251 2.046-4.614-.071-.07-.719.058-1.44.286-3.47 1.1-5.588 1.401-11.419 1.628-5.33.206-15.06-.045-17.937-.465-1.019-.148-2.48-.345-3.246-.438-.767-.092-1.458-.272-1.537-.399-.079-.127-.427-.231-.773-.231-.347 0-.704-.12-.794-.265-.09-.145-.447-.264-.794-.264-.346 0-.704-.12-.794-.265-.09-.145-.394-.265-.677-.265-.282 0-.513-.119-.513-.264 0-.146-.174-.265-.386-.265-.392 0-1.86-1.338-3.047-2.778-.757-.919-2.366-5.414-2.698-7.54-.69-4.418-.951-9.577-.882-17.463.065-7.507.184-9.358.794-12.424.311-1.562 2.22-5.022 3.447-6.249.644-.644 1.238-1.17 1.32-1.17.083 0 .407-.239.719-.53.312-.29.724-.53.915-.53.19 0 .347-.118.347-.264 0-.145.214-.264.476-.264s.59-.099.728-.219.787-.38 1.442-.577c.655-.197 1.31-.442 1.455-.545.145-.103.74-.255 1.323-.339a121.87 121.87 0 0 0 2.646-.424c4.823-.827 15.378-1.215 21.034-.773 13.641 1.067 17.806 3.266 19.95 10.533 1.761 5.972 2.163 17.1 1.069 29.662-.53 6.097-.551 6.04 2.397 6.647 5.044 1.036 11.837 1.403 26.061 1.407 13.085.004 18.487-.164 22.225-.69 2.636-.371 3.195-.608 3.912-1.657.507-.741.613-1.267.65-3.236.047-2.431-.198-4.138-.617-4.291-.132-.048-.24-.262-.24-.475 0-.501-1.185-1.686-1.686-1.686-.213 0-.427-.114-.475-.253-.055-.156-5.853-.3-15.038-.373-14.582-.117-17.462-.236-17.462-.723 0-.131-.29-.238-.646-.238-.355 0-.72-.12-.81-.265-.09-.145-.394-.264-.676-.264-.283 0-.514-.12-.514-.265 0-.145-.245-.265-.545-.265-.3 0-.47-.119-.38-.264.089-.146.035-.265-.12-.265s-.656-.357-1.113-.793c-.457-.437-.952-.794-1.1-.794-.148 0-.196-.074-.106-.164.09-.09.02-.324-.154-.52-.773-.865-.983-1.19-1.717-2.656-.429-.855-1.054-2.705-1.39-4.11-.57-2.387-.589-2.706-.273-4.83.186-1.252.445-2.341.576-2.422.13-.08.237-.377.237-.66 0-.282.119-.513.264-.513.146 0 .265-.187.265-.416 0-.229.149-.571.33-.761.182-.19.51-.616.728-.946.748-1.13 3.502-3.698 3.967-3.698.146 0 .267-.12.267-.265 0-.145.178-.264.396-.264.219 0 .397-.12.397-.265 0-.145.179-.264.397-.264.218 0 .397-.12.397-.265 0-.145.175-.265.389-.265.214 0 .813-.238 1.33-.529.519-.29 1.118-.529 1.332-.529.214 0 .389-.119.389-.264 0-.146.24-.265.532-.265.293 0 .77-.12 1.059-.265l1.05-.529c.29-.145.766-.264 1.06-.264.292 0 .532-.12.532-.265 0-.145.274-.265.608-.265.335 0 .722-.094.86-.21.139-.116.728-.362 1.31-.547 1.107-.351 2.065-.731 2.84-1.126.253-.128.642-.233.864-.233.222 0 .611-.105.864-.234.618-.314 1.588-.704 2.708-1.09 1.12-.384 2.09-.774 2.708-1.088.253-.129.642-.234.864-.234.222 0 .64-.12.93-.265l1.05-.529c.29-.145.708-.264.93-.264.223 0 .611-.106.864-.234.253-.129.816-.38 1.253-.56.437-.18 1-.432 1.253-.56.253-.129.641-.234.864-.234.222 0 .61-.105.863-.234.835-.424 1.766-.792 3.105-1.227 1.322-.429 2.768-1.014 3.635-1.472.253-.133.641-.242.863-.242.223 0 .641-.119.93-.264l1.051-.53c.29-.145.758-.264 1.043-.264.284 0 .59-.12.68-.265.09-.145.376-.264.636-.264.345 0 .91.924 2.1 3.436.897 1.89 1.63 3.491 1.63 3.559 0 .168-1.39.78-3.307 1.455-.873.307-1.885.69-2.25.852a24.446 24.446 0 0 1-2.91 1.11c-.654.212-1.726.587-2.38.834l-3.308 1.24c-1.164.436-2.355.89-2.646 1.007-.509.205-2.013.759-4.96 1.826-.765.277-2.402.884-3.639 1.35-1.237.465-2.844 1.06-3.572 1.322-.727.262-2.275.837-3.44 1.276-1.163.44-2.79 1.041-3.613 1.337-6.039 2.166-9.606 5.39-9.087 8.212.419 2.277 1.74 4.302 3.433 5.259.726.41 2.151.457 15.13.502 7.881.028 14.787.122 15.346.21 5.495.869 9.416 4.47 10.841 9.959.586 2.255.587 6.462.003 8.68-.898 3.412-3.251 6.82-5.417 7.848-2.927 1.39-7.41 1.55-32.985 1.181-19.103-.275-22.01-.383-22.477-.83-.138-.133-.577-.242-.976-.242-.4 0-.8-.12-.89-.265-.089-.145-.394-.264-.676-.264-.283 0-.514-.12-.514-.265 0-.145-.107-.264-.238-.264-.13 0-.375.625-.542 1.389-1.552 7.104-2.854 9.875-5.11 10.875-3.196 1.415-5.914 1.745-15.872 1.927l-7.606.139zm13.361-16.003c2.738-.392 4.792-.93 5.16-1.35.072-.084.37-.283.661-.443.89-.488 1.68-3.413 2.242-8.308.216-1.878.287-6.123.22-13.097-.091-9.34-.149-10.457-.61-11.774-.279-.8-.603-1.495-.718-1.544-.116-.049-.153-.182-.083-.297.07-.114-.107-.48-.395-.811-.288-.332-.524-.705-.524-.828s-.238-.224-.529-.224c-.291 0-.53-.09-.531-.199-.003-.265-1.308-.86-1.887-.86-.254 0-.525-.103-.604-.23-.616-.998-21.463-1.358-26.479-.458-2.392.43-4.564 1.114-5.037 1.587-1.008 1.008-1.818 4.085-2.232 8.474-.35 3.732-.35 16.417 0 20.149.353 3.743.995 6.793 1.38 6.555.188-.117.23-.02.116.274-.096.25.01.736.236 1.08.756 1.154 2.633 1.768 7.654 2.502 2.071.303 19.563.145 21.96-.198zm84.71 19.356c-.24-.241-.216-7.563.027-7.894.107-.145.73-.298 1.385-.34 1.235-.08 2.646-.567 2.646-.915 0-.11.17-.2.379-.2.208 0 .454-.237.546-.527a2.8 2.8 0 0 1 .587-.947c.23-.23.543-.916.696-1.523.179-.713.33-10.66.427-28.091.083-14.844.179-27.018.213-27.054.167-.177 7.383-.03 7.676.156.272.173.323 5.6.26 27.58-.07 25.181-.114 27.49-.541 28.95-.854 2.917-2.012 4.911-4.004 6.894-1.732 1.725-2.34 2.128-4.718 3.125-1.638.686-5.179 1.185-5.578.786zm217.528.015c-.069-.13-.153-1.932-.187-4.006l-.062-3.77 2.2-.002c4.146-.003 12.517-.526 13.576-.847 1.435-.437 2.412-1.598 3.048-3.623.292-.932.481-1.744.42-1.805-.06-.061-.688.09-1.393.336-4.055 1.415-6.97 1.723-16.363 1.726-10.04.003-13.175-.319-18.917-1.939-.51-.144-1.133-.366-1.386-.493-.253-.128-.64-.232-.86-.232-.22 0-.4-.12-.4-.265 0-.146-.238-.265-.53-.265-.29 0-.529-.119-.529-.264 0-.146-.135-.265-.3-.265-.307 0-.85-.558-1.552-1.595a8.776 8.776 0 0 0-.727-.932c-.182-.19-.331-.524-.331-.742 0-.219-.155-.554-.343-.747-.704-.717-1.74-5.057-2.293-9.61-.573-4.71-.481-21.806.132-24.606.851-3.888 1.725-5.55 4.401-8.37.535-.562 1.15-1.023 1.367-1.023.218 0 .436-.09.484-.198.084-.189 2.126-1.225 3.263-1.657 4.602-1.748 16.194-2.73 25.268-2.14 12.517.812 17.701 2.681 19.994 7.206.934 1.843 1.884 5.35 2.407 8.89.568 3.837.65 18.44.138 24.412-.872 10.156-2.505 18.49-4.298 21.93-1.354 2.598-4.592 3.845-11.759 4.527-3.966.378-14.322.642-14.468.369zm13.675-19.387c.873-.153 2.035-.355 2.582-.448.547-.094 1.06-.277 1.14-.406.08-.13.388-.235.685-.235.474 0 2.04-1.357 2.095-1.814.077-.645.25-1.283.477-1.747 1.169-2.396 1.654-28.508.556-29.91-.114-.145-.343-.77-.508-1.388-.317-1.186-1.777-2.896-2.926-3.428-.364-.168-1.257-.427-1.985-.576-.727-.149-2.037-.425-2.91-.614-2.265-.49-19.828-.48-22.754.013-4.224.712-5.952 1.475-6.592 2.912-1.332 2.992-1.85 9.121-1.668 19.725.18 10.519.8 14.725 2.374 16.092 1.073.933 3.05 1.51 6.944 2.023 2.423.32 20.44.16 22.49-.199zm62.975 19.224c-.064-.185-.15-1.975-.193-3.976l-.076-3.638h8.348l-.073 3.903-.073 3.903-3.908.073c-2.986.056-3.936-.007-4.025-.265zm12.93.01c-.107-.172-.203-1.958-.214-3.968l-.02-3.655h4.1l4.102-.001-.08 3.969-.08 3.969h-3.807c-2.65 0-3.866-.095-4.001-.314zm120.812-3.655v-3.968h4.035l4.035-.001-.08 3.969-.079 3.97h-7.911v-3.97zm12.86 3.55c-.087-.23-.16-2.016-.16-3.968v-3.55h4.168l4.167-.001-.08 3.969-.08 3.97h-3.926c-3.337 0-3.952-.064-4.088-.42zm-402.326-11.487c-.219-.141-.726-.258-1.128-.26-.403-.003-.968-.124-1.257-.27l-1.051-.528c-.29-.146-.706-.265-.926-.265-.22 0-.4-.12-.4-.265 0-.145-.15-.264-.332-.265-.44 0-2.618-1.833-3.55-2.988-.585-.724-1.865-3.493-2.41-5.213-.678-2.142-.648-.625-.615-31.684l.027-25.73h7.923l.075 27.317c.069 25.51.105 27.397.547 28.51.557 1.403 1.05 2.03 2.292 2.907.812.573 1.184.645 3.293.632 1.559-.01 2.413-.12 2.48-.322a.471.471 0 0 1 .413-.307c.356 0 2.005-1.723 2.098-2.19.034-.172.211-.473.395-.67.183-.197.271-.457.196-.579-.075-.121.014-.27.196-.331.263-.087.35-4.622.41-21.498.043-11.763.14-21.487.215-21.608.156-.252 6.987-.304 7.629-.058.384.148.422 2.14.407 21.208-.016 19.064.025 21.18.43 22.469.445 1.415 1.606 2.944 2.619 3.45 1.544.77 4.999.639 5.926-.225.294-.274.63-.498.747-.498.337 0 1.217-1.282 1.793-2.614.513-1.183.532-1.883.595-21.992.036-11.423.129-21.04.205-21.372.139-.597.172-.602 4.036-.53l3.896.074.135 21.431c.093 14.781.226 21.683.43 22.24.727 1.996 1.388 2.83 2.746 3.47 1.607.757 4.883.636 5.794-.213.291-.271.628-.494.747-.494.12 0 .392-.249.606-.553.215-.305.596-.797.847-1.093.252-.296.394-.642.315-.769-.078-.127-.033-.23.101-.23.508 0 .611-4.147.59-23.583-.021-18.166.016-20.026.403-20.175.55-.21 6.823-.213 7.372-.003.377.145.419 2.206.419 20.602 0 12.72.101 20.975.268 21.856.402 2.119 1.19 3.528 2.432 4.35.938.62 1.38.727 3.1.748 1.888.023 3.725-.445 3.725-.95 0-.11.151-.2.337-.2.185 0 .57-.446.857-.992.286-.546.593-1.052.682-1.124.687-.563.77-1.72.772-10.765.003-9.821.35-18.905.775-20.309.135-.445.394-1.344.575-2 .357-1.287 1.173-3.069 1.655-3.611.773-.871.97-1.15.808-1.15-.095 0 .406-.535 1.114-1.189.709-.653 1.427-1.189 1.597-1.19.17-.002.348-.092.397-.201.127-.286 2.318-1.39 2.759-1.39.205 0 .372-.119.372-.264 0-.146.41-.265.91-.265.501 0 .984-.119 1.074-.264.09-.146.55-.265 1.021-.265.472 0 .97-.108 1.11-.24.137-.132.846-.3 1.573-.374 6.836-.694 9.203-.833 14.023-.823 8.141.017 13.239.512 17.992 1.745 2.186.567 5.38 2.327 6.314 3.478 3.05 3.76 4.393 10.487 4.399 22.035.005 9.829-.954 16.786-2.88 20.9-1.08 2.308-2.66 3.757-5.218 4.785-2.738 1.1-3.955 1.372-9.902 2.209-2.002.282-20.979.4-21.41.134-.126-.078-1.222-.258-2.435-.4-1.213-.143-2.8-.388-3.528-.545-.728-.157-1.77-.35-2.316-.429-.545-.079-.992-.25-.992-.38s-.227-.236-.504-.236c-.496 0-2.67-1.016-2.941-1.374-.076-.1-.488-.364-.915-.586-.764-.396-.792-.386-1.853.712-.592.614-1.43 1.294-1.863 1.512-.433.218-.847.463-.92.544-.072.081-.549.302-1.058.49-.51.188-1.164.436-1.455.551-.96.379-3.328.796-4.514.796-1.453 0-5.601-.926-5.937-1.325-.073-.087-.582-.367-1.131-.622-.55-.256-1.41-.875-1.91-1.376-.5-.5-.998-.91-1.105-.91-.107 0-.557.35-1 .776-1.833 1.765-6.401 3.457-9.331 3.457-.726 0-1.664-.104-2.086-.231a44.435 44.435 0 0 0-2.223-.566c-.8-.183-1.77-.555-2.157-.826-.386-.271-.833-.493-.992-.493-.16 0-.29-.12-.29-.265 0-.145-.179-.264-.397-.264-.218 0-.397-.12-.397-.265 0-.146-.135-.265-.3-.265-.164 0-.511-.244-.77-.542-.47-.542-.472-.542-1.864.511-2.127 1.61-3.517 2.234-6.326 2.837-2.206.474-3.15.465-5.424-.05-1.019-.232-2.18-.484-2.58-.56-.4-.077-.728-.245-.728-.374s-.127-.234-.283-.234c-.374 0-2.635-1.547-3.218-2.202-.4-.448-.52-.468-.926-.149a6.7 6.7 0 0 0-.6.516c-.38.432-2.655 1.8-3.616 2.176-2.747 1.074-7.065 1.603-8.025.982zm110.199-7.568c4.453-.643 4.625-.676 4.78-.928.08-.13.36-.235.623-.235.684 0 1.873-1.283 1.873-2.02 0-.345.106-.626.235-.626.13 0 .296-.387.37-.86.073-.473.198-1.158.278-1.521.613-2.777.777-6.07.77-15.479-.006-10.799-.166-12.805-1.17-14.773-.855-1.676-1.93-2.821-2.65-2.821-.263 0-.48-.12-.48-.265 0-.145-.333-.265-.74-.265s-.854-.106-.992-.237c-1.071-1.012-20.942-1.434-25.822-.548-3.795.688-5.255 1.26-6.042 2.366-1.463 2.054-2.289 10.502-2.032 20.777.246 9.846.868 13.822 2.4 15.346 1.014 1.01 1.68 1.298 3.86 1.671 4.03.69 5.307.767 13.362.802 6.49.027 9.145-.062 11.377-.384zm207.698 7.382c-1.02-.204-2.18-.438-2.58-.52-.4-.081-.728-.253-.728-.382 0-.13-.238-.235-.529-.235-.291 0-.53-.09-.53-.2 0-.11-.334-.348-.743-.53-.41-.18-1-.567-1.312-.858-.312-.29-.638-.529-.723-.529-.086 0-.453-.297-.817-.661-.364-.364-.588-.662-.498-.662.09 0 .006-.174-.187-.387-1.172-1.3-1.69-2.236-2.512-4.534l-.748-2.09-.14-15.214c-.078-8.367-.22-15.451-.317-15.742-.096-.291-.29-.91-.432-1.377-.142-.466-.388-1.002-.549-1.19-.16-.19-.497-.583-.75-.875-.86-.998-1.877-1.317-4.085-1.285-1.886.028-2.215.113-3.206.823-1.263.907-2.152 2.094-2.6 3.476-.206.638-.378 5.233-.514 13.79-.112 7.057-.277 13.248-.365 13.757-.089.51-.288 1.7-.442 2.646-.653 4.003-1.877 6.986-3.369 8.216-1.81 1.492-4.813 2.69-8.63 3.445-4.28.846-7.652 1.064-16.354 1.058-4.92-.004-9.047-.07-9.171-.146-.125-.077-1.22-.257-2.432-.4-1.214-.142-2.802-.387-3.53-.544-.727-.157-1.769-.35-2.314-.429-.546-.078-.992-.25-.992-.38s-.18-.236-.4-.236c-.5 0-2.877-1.092-2.996-1.377-.048-.116-.316-.21-.595-.21-.28 0-.507-.115-.507-.253 0-.14-.289-.542-.642-.895-.667-.667-2.158-3.428-2.595-4.806-1.06-3.337-1.629-8.07-1.942-16.14-.177-4.573.246-15.112.659-16.404.14-.436.4-1.33.579-1.984.325-1.192 1.195-3.045 1.692-3.606.145-.164.443-.564.661-.889.66-.982 1.782-2.12 2.09-2.12.16 0 .291-.119.291-.264 0-.146.17-.265.375-.265.206 0 .415-.09.463-.198.123-.278 2.258-1.29 3.528-1.673a26.258 26.258 0 0 0 1.588-.529c.524-.208 1.022-.309 3.836-.776 2.638-.438 7.49-.843 10.583-.884l3.043-.04v6.879l-5.027.177c-8.21.29-11.818 1.08-13.137 2.877-1.2 1.634-1.785 6.067-1.988 15.07-.228 10.08.417 17.458 1.77 20.252.768 1.589 1.868 2.073 6.344 2.798 2.653.43 18.687.609 21.828.244 2.969-.345 5.066-.746 5.75-1.098.253-.13.614-.236.802-.236.188 0 .514-.238.724-.53.21-.29.507-.529.66-.529.155 0 .504-.744.776-1.653.95-3.168 1.191-6.93 1.2-18.72.008-8.793.093-11.62.39-12.964.812-3.657 1.332-5.085 2.2-6.028.181-.198.33-.463.33-.588 0-.259 2.525-2.91 2.772-2.91.088 0 .416-.237.728-.528.313-.291.725-.53.915-.53.191 0 .347-.119.347-.264 0-.146.215-.265.477-.265s.589-.101.727-.225c.291-.261 1.931-.693 4.275-1.124 1.25-.23 2.072-.227 3.44.015 2.803.494 3.928.936 6.175 2.425 2.6 1.723 4.336 4.38 5.312 8.129.486 1.867.537 3.127.648 16.18.066 7.786.178 14.682.25 15.325.138 1.244 1.187 3.277 2.094 4.057 1.032.888 2.294 1.256 4.309 1.256 1.615 0 2.13-.108 2.812-.587 1.145-.805 1.367-1.04 1.826-1.94.92-1.8.998-3.328.832-16.342-.143-11.278-.112-12.963.273-14.601.24-1.019.502-2.15.583-2.514.354-1.588 2.02-4.618 3.068-5.583.253-.233.383-.5.289-.595-.094-.094.027-.172.27-.172.242 0 .44-.119.44-.264 0-.146.179-.265.397-.265.219 0 .397-.119.397-.264 0-.146.169-.265.375-.265s.415-.09.463-.198c.144-.325 2.348-1.39 2.876-1.39.268 0 .562-.118.652-.264.09-.145.447-.265.794-.265.346 0 .696-.106.776-.236.08-.13.594-.305 1.14-.39a608.88 608.88 0 0 0 2.714-.426c5.415-.864 14.347-1.242 19.654-.832 7.877.607 11.012 1.144 14.556 2.492 5.047 1.919 7.267 6.573 8.115 17.013.35 4.306.34 9.512-.025 14.526-.406 5.566-.367 7.707.167 9.251 1.004 2.902 2.72 4.11 5.832 4.11 1.863 0 3.294-.362 3.294-.835 0-.123.179-.223.397-.223.219 0 .397-.11.397-.245s.185-.43.411-.657c.226-.226.463-.622.526-.879s.295-1.118.515-1.914c.341-1.233.4-4.454.404-21.828.003-11.21.1-20.534.219-20.72.162-.255 1.155-.32 4.03-.265l3.817.074.132 21.431.133 21.432.619 1.19c.75 1.442 1.746 2.534 2.788 3.053.897.448 5.192.549 5.192.122 0-.145.245-.264.544-.264.3 0 .472-.12.382-.265-.09-.145-.03-.264.135-.264s.454-.155.643-.344c.49-.49 1.259-2.037 1.014-2.042-.112-.002-.08-.091.07-.198.508-.358.804-4.384.648-8.794-.335-9.51-.285-19.638.107-21.43.437-1.998 1.247-4.572 1.5-4.763.096-.073.363-.49.593-.926.23-.437.723-1.14 1.095-1.563.372-.423.677-.87.677-.992 0-.123.152-.223.338-.223.187 0 .51-.239.72-.53.21-.29.534-.529.72-.529.186 0 .339-.119.339-.264 0-.146.238-.265.529-.265.29 0 .529-.12.529-.265 0-.145.238-.264.53-.264.29 0 .528-.12.528-.265 0-.145.24-.264.533-.264.293 0 .74-.108.992-.24 2.189-1.137 12.13-2.419 18.716-2.413 3.234.003 11.336.507 12.964.806.728.134 2.157.382 3.175.55 3.366.56 6.637 1.92 8.338 3.47 2.757 2.509 4.277 8.05 4.77 17.385.241 4.594.188 6.599-.438 16.293-.29 4.512.449 6.613 2.912 8.268 1.175.79 1.45.86 3.37.86 1.184 0 2.343-.144 2.675-.33.99-.56 2.077-1.838 2.235-2.625.082-.412.237-.75.344-.75.455 0 .562-4.664.54-23.582-.02-18.166.017-20.026.404-20.175.614-.235 7.07-.194 7.45.048.245.156.338 5.164.397 21.362l.076 21.157.615 1.358c1.13 2.496 2.859 3.537 5.876 3.537 1.23 0 2.108-.11 2.108-.265 0-.145.228-.264.506-.264s.816-.387 1.195-.86c2.006-2.504 1.852-.09 1.942-30.56l.08-27.318h7.92l.045 25.863c.025 14.225.01 26.691-.032 27.703-.043 1.013-.293 2.618-.557 3.569-.263.95-.435 1.772-.38 1.826.053.053-.017.234-.156.4-.14.167-.707 1.017-1.26 1.89-1.69 2.672-3.935 4.427-7.318 5.721-.476.182-3.36.594-4.366.623-.859.025-5.355-.915-5.556-1.161-.073-.09-.728-.457-1.455-.816-.728-.36-1.516-.864-1.751-1.121-.235-.257-.563-.468-.728-.468-.165 0-.3-.119-.3-.264 0-.484-.693-.274-1.329.403-.746.795-2.232 1.652-4.227 2.438-1.556.614-5.728 1.141-6.528.826-.266-.105-.923-.199-1.46-.21-.537-.01-1.05-.137-1.14-.282-.09-.146-.513-.265-.941-.265-.428 0-.779-.119-.779-.264 0-.146-.238-.265-.529-.265-.29 0-.529-.12-.529-.265 0-.145-.178-.264-.397-.264-.218 0-.397-.12-.397-.265 0-.145-.178-.264-.396-.264-.219 0-.397-.12-.397-.265 0-.145-.127-.264-.282-.264-.155 0-.882-.616-1.614-1.368l-1.333-1.368-.7.458c-.386.252-.91.524-1.165.605-.254.08-.463.252-.463.38 0 .129-.156.234-.347.234-.19 0-.816.223-1.389.496-2.523 1.2-6.093 2.15-11.069 2.944-2.298.367-17.669.368-18.943.001-.508-.146-1.43-.266-2.047-.266-2.856 0-9.302-2.02-10.453-3.276-.449-.49-.487-.477-1.488.495-2.752 2.67-7.352 4.042-11.56 3.444-1.156-.165-2.34-.392-2.632-.506-1.404-.55-3.836-1.849-3.836-2.049 0-.123-.153-.225-.339-.225-.186 0-.51-.238-.72-.529-.21-.29-.471-.529-.581-.529-.11 0-1.007.578-1.993 1.285-2.334 1.674-3.658 2.186-6.554 2.535-1.801.218-2.8.209-4.1-.036-2.56-.483-3.169-.648-3.328-.905-.079-.128-.375-.233-.657-.233-.283 0-.514-.097-.514-.215 0-.119-.416-.379-.926-.579-.509-.2-.926-.46-.926-.578 0-.119-.118-.216-.262-.216-.278 0-1.46-1.173-2.111-2.094-.37-.523-1.329-.777-1.333-.353 0 .11-.269.332-.595.495-.327.164-1.177.603-1.89.977-1.499.785-6.497 2.404-8.625 2.793-4.104.751-5.618.853-12.666.85-7.1-.004-10.792-.23-13.466-.828-.62-.139-1.386-.252-1.7-.252-.607 0-2.152-.437-2.923-.826-.252-.128-.758-.232-1.124-.232-.366 0-.665-.091-.665-.203 0-.11-.46-.401-1.024-.645-.563-.244-1.225-.645-1.472-.892-.421-.421-.499-.4-1.291.343-2.313 2.17-4.818 3.315-7.987 3.652-.873.093-1.766.201-1.984.24-.219.04-1.23-.095-2.25-.3zm48.815-7.364c.8-.094 1.568-.28 1.707-.412.138-.132.696-.24 1.24-.24.545 0 1.064-.12 1.154-.265.09-.145.402-.264.693-.264.29 0 .455-.12.366-.265-.09-.145.019-.265.242-.265.762 0 1.558-1.703 2.04-4.365.912-5.045 1.31-22.097.617-26.459-.445-2.805-1.236-5.159-1.733-5.159-.113 0-.28-.238-.373-.53-.092-.29-.338-.528-.547-.528-.208 0-.379-.12-.379-.265 0-.145-.23-.264-.513-.264-.283 0-.587-.12-.677-.265-.09-.145-.43-.265-.757-.265-.326 0-.706-.108-.844-.24-1.078-1.03-21.497-1.374-26.313-.443-5.67 1.096-6.126 1.584-7.08 7.56-.582 3.65-.657 20.773-.107 24.477.757 5.096 1.637 6.886 3.672 7.474 2.348.677 3.245.862 4.34.891.637.017 1.517.126 1.953.242.904.24 19.082.112 21.3-.15zm89.826-.067c1.019-.142 2.15-.338 2.514-.436 1.947-.525 2.646-.785 2.646-.985 0-.123.127-.223.283-.223.422 0 1.04-.696 1.04-1.171 0-.229.106-.416.235-.416.13 0 .3-.387.38-.86.079-.473.335-1.931.57-3.241.805-4.49.838-24.469.045-27.252-.665-2.333-1.76-4.101-2.541-4.101-.153 0-.277-.09-.277-.2 0-.382-2.147-1.072-5.292-1.7-2.683-.534-20.565-.442-23.548.123-4.31.816-5.329 1.318-6.101 3.007-2.12 4.634-2.298 26.909-.27 33.661.715 2.381 2.263 3.152 7.959 3.961 2.173.31 19.88.176 22.357-.167zm-665.295 7.317c-2.837-.092-6.111-.3-7.276-.463l-3.175-.444c-.582-.082-1.296-.244-1.587-.36-1.066-.427-2.43-.814-2.863-.814-.244 0-.444-.12-.444-.265 0-.145-.18-.265-.4-.265-.689 0-2.166-.98-3.144-2.085-.306-.347-.69-.77-.854-.94-.433-.45-1.097-1.797-1.53-3.106-1.058-3.194-1.35-4.57-1.815-8.553-.378-3.24-.38-21.805-.002-24.077.316-1.9 1.36-5.16 1.651-5.16.115 0 .355-.354.534-.786.18-.433.521-1.018.76-1.299.238-.28.609-.76.823-1.065.214-.304.541-.554.727-.554.186 0 .339-.09.339-.202 0-.11.476-.496 1.058-.856.582-.36 1.058-.745 1.058-.856 0-.111.24-.202.533-.202.293 0 .74-.105.992-.234 1.12-.57 1.975-.842 5.024-1.6 1.342-.335 4.753-.736 9.062-1.067 8.8-.677 19.932.159 25.267 1.896 6.018 1.96 7.864 4.64 9.444 13.705.474 2.718.48 20.398.01 23.548-1.047 6.994-2.663 10.77-5.404 12.634-.627.427-2.33 1.143-3.785 1.593-5.775 1.784-12.447 2.285-25.003 1.877zm17.463-7.34c3.31-.534 3.71-.622 3.854-.856.08-.13.377-.235.66-.235.282 0 .513-.12.513-.265 0-.145.155-.265.344-.265.45 0 1.528-2.19 1.823-3.704.64-3.277.853-7.442.85-16.668-.001-9.52-.162-12.126-.855-13.825-.163-.4-.426-.728-.584-.728-.157 0-.207-.128-.11-.284.097-.157-.075-.519-.382-.804-.306-.286-.557-.612-.557-.725 0-.321-2.1-1.362-2.75-1.362-.321 0-.697-.107-.835-.238-.679-.646-10.207-1.144-18.11-.947-6.05.15-7.712.302-10.055.916a36.61 36.61 0 0 1-1.604.381c-2.654.54-3.709 4.537-4.088 15.499-.197 5.705.179 14.274.777 17.7.495 2.835 1.32 4.484 2.556 5.11 1.254.634 3.701 1.26 5.084 1.298.611.017 1.469.126 1.905.241 1.13.298 19.498.095 21.564-.239zm715.509 7.177c-.115-.255-.177-15.435-.14-33.735l.068-33.27h8.198V-87.546h-3.96c-3.514 0-3.982-.052-4.166-.463zm-499.61-58.76c0-.221-1.114-.308-3.94-.308-3.349 0-3.964-.063-4.1-.419-.089-.23-.161-2.016-.161-3.969v-3.55h8.176l.08 4.167c.043 2.292.048 4.217.012 4.278-.036.06-.066-.029-.066-.199zm12.7 0c0-.221-1.114-.308-3.94-.308-3.349 0-3.964-.063-4.1-.419-.089-.23-.161-2.016-.161-3.969v-3.55h8.176l.08 4.167c.043 2.292.048 4.217.012 4.278-.036.06-.066-.029-.066-.199zm12.7 0c0-.221-1.114-.308-3.94-.308-3.349 0-3.964-.063-4.1-.419-.089-.23-.161-2.016-.161-3.969v-3.55h8.176l.08 4.167c.043 2.292.048 4.217.012 4.278-.036.06-.066-.029-.066-.199zm429.133-.418c-.06-.06-.074-1.846-.03-3.969l.08-3.859h8.174v7.938h-4.057c-2.231 0-4.106-.05-4.167-.11zm13.163-.067c-.097-.097-.176-1.883-.176-3.969v-3.792H212.775v7.938h-3.793c-2.086 0-3.872-.08-3.969-.177z" id="path80" fill="#fff" stroke-width=".265"/></g></svg>