<svg xmlns="http://www.w3.org/2000/svg" width="671.547" height="264.031" viewBox="0 0 177.68 69.858"><path d="M72.315 68.307l.565-1.551-1.105-2.51c-.607-1.38-1.18-2.706-1.272-2.947-.139-.361.016-.437.895-.437h1.064l.727 1.854c.4 1.02.758 1.823.796 1.785.038-.039.358-.843.71-1.788.622-1.665.673-1.721 1.644-1.803.745-.062.967.005.866.265-.075.192-.892 2.224-1.816 4.516l-1.68 4.167H71.75zM8.6 67.092a2.122 2.122 0 0 1-.39-2.515c.322-.602 1.614-1.069 2.955-1.069 1.026 0 1.154-.135.859-.904-.206-.537-1.583-.554-1.787-.022-.193.501-2.021.554-2.021.06 0-1.823 3.644-2.674 5.197-1.215.577.542.623.79.623 3.318v2.732h-.926c-.509 0-.926-.126-.926-.28 0-.156-.258-.098-.588.133-.897.628-2.236.522-2.996-.238zm3.267-1.255c.59-.591.353-1.006-.576-1.006-.926 0-1.66.565-1.363 1.047.233.377 1.548.349 1.939-.041zm22.546 1.325c-1.142-.776-1.582-1.614-1.587-3.02-.006-1.478.9-2.777 2.266-3.253 3.012-1.05 5.642 1.571 4.582 4.567-.477 1.35-1.466 2.065-3.062 2.214-1.032.096-1.453-.001-2.199-.508zm3.024-1.596c.877-1.252.222-3.38-1.04-3.38-.957 0-1.458.68-1.458 1.984 0 1.303.5 1.984 1.459 1.984.348 0 .81-.261 1.039-.588zm20.02 1.721c-1.169-.575-2.008-2.358-1.752-3.721.206-1.098 1.571-2.589 2.609-2.85 1.187-.297 2.586.125 3.527 1.067.78.78.879 1.04.879 2.324 0 1.066-.146 1.631-.553 2.149-1.15 1.463-3.008 1.87-4.71 1.031zm2.765-1.509c.381-.278.513-.693.513-1.608 0-1.301-.518-1.985-1.505-1.985-.766 0-1.537.966-1.537 1.926 0 1.708 1.3 2.566 2.529 1.667zm19.247 1.446c-1.35-.823-1.751-1.649-1.613-3.318.134-1.618.649-2.381 1.987-2.948 1.786-.756 3.748-.115 4.618 1.508 1.705 3.179-1.919 6.632-4.992 4.758zm2.947-1.658c.877-1.252.222-3.38-1.04-3.38-.957 0-1.458.68-1.458 1.984 0 1.303.5 1.984 1.459 1.984.348 0 .81-.261 1.04-.588zm24.588 1.921c-.751-.312-1.157-1.581-1.157-3.621 0-1.318-.086-1.68-.397-1.68-.247 0-.397-.25-.397-.662 0-.398.151-.662.38-.662.216 0 .414-.31.462-.727.073-.632.215-.739 1.076-.81.949-.078.992-.046.992.728 0 .687.1.81.662.81.53 0 .661.132.661.66 0 .533-.131.662-.673.662-.666 0-.672.02-.595 1.918.073 1.811.112 1.917.687 1.896.524-.02.597.09.529.794-.068.698-.195.824-.874.872-.436.03-1.046-.05-1.356-.178zm4.664.082c-.718-.288-1.588-1.234-1.588-1.726 0-.372.205-.483.898-.483.554 0 .956.152 1.05.397.233.606 1.756.528 1.756-.09 0-.375-.336-.562-1.453-.812-2.227-.499-2.892-1.895-1.612-3.383.56-.65.823-.742 2.14-.742 1.316 0 1.579.091 2.139.742.351.409.638.915.638 1.125 0 .515-1.421.504-1.852-.015-.385-.464-1.475-.528-1.738-.103-.24.388.255.671 1.528.875 1.233.197 2.327 1.19 2.327 2.112 0 .362-.275.978-.61 1.369-.48.556-.895.73-1.92.801-.718.05-1.485.02-1.703-.067zm5.91-.46c-.703-.603-.74-.756-.84-3.439l-.103-2.808h2.176v2.329c0 2.389.212 2.963 1.093 2.963.983 0 1.289-.725 1.289-3.062v-2.23h1.852v6.615h-.926c-.51 0-.926-.112-.926-.249s-.328-.078-.728.13c-1.062.555-2.054.47-2.888-.248zm9.759.22c-.33-.23-.588-.288-.588-.132 0 .154-.476.28-1.058.28h-1.059v-9.822l.992.082.993.083.077 1.76.078 1.76.797-.398c1.112-.555 2.424-.256 3.265.743.575.684.677 1.066.677 2.531 0 1.61-.06 1.787-.9 2.626-1.013 1.013-2.259 1.199-3.274.488zm1.676-1.55c.382-.28.514-.694.514-1.61 0-1.75-1.149-2.52-2.397-1.608-.381.279-.513.693-.513 1.609 0 1.278.517 1.984 1.455 1.984.235 0 .659-.169.941-.376zm8.15 1.7c-.624-.251-1.418-1.25-1.418-1.78 0-.504 1.772-.435 2.06.08.275.49 1.676.424 1.844-.088.117-.356-.01-.42-1.71-.854-1.432-.367-1.93-.884-1.93-2.01 0-1.12.703-1.874 1.968-2.111 1.69-.317 3.324.535 3.324 1.734 0 .413-.176.529-.802.529-.469 0-.865-.165-.954-.397-.223-.58-1.75-.537-1.637.046.058.297.56.55 1.525.767.792.179 1.595.538 1.786.799.368.502.455 1.633.182 2.345-.38.99-2.79 1.525-4.239.94zm21.672-.13c-.47-.204-1.097-.765-1.392-1.246-.48-.78-.53-1.248-.469-4.315l.07-3.44.965-.08.965-.08.093 3.413c.104 3.811.291 4.288 1.68 4.288 1.373 0 1.573-.49 1.72-4.207l.133-3.333h1.852l.07 3.44c.061 3.067.01 3.534-.47 4.315-.922 1.501-3.315 2.072-5.217 1.245zm14.547.217c-.182-.073-.331-.516-.331-.984 0-.807.045-.846.875-.749.536.063.993-.04 1.182-.269.19-.228.336-1.687.382-3.793l.075-3.422h2.116l-.003 3.44c-.002 1.891-.094 3.77-.205 4.175-.353 1.28-2.654 2.182-4.091 1.602zM.072 62.913l.073-4.564 1.058-.088c2.116-.176 4.397.227 5.064.895.771.77.83 2.187.129 3.054-.49.604-.488.62.132 1.107.467.367.628.756.628 1.512 0 2.211-.74 2.648-4.49 2.648H0zm4.65 2.659c.486-.486.378-1.484-.194-1.79-.282-.15-.877-.274-1.323-.274-.785 0-.811.039-.811 1.19v1.191h1.005c.553 0 1.148-.142 1.323-.317zm-.608-3.651c.555-.212.68-.412.612-.993-.074-.65-.202-.736-1.208-.808l-1.124-.082v1.074c0 1.177.335 1.335 1.72.808zm11.509 2.249v-3.308h.926c.51 0 .926.122.926.272 0 .155.333.099.78-.133 1.11-.573 1.987-.5 2.843.235.713.613.746.748.833 3.44l.09 2.8h-2.165v-2.371c0-1.992-.074-2.41-.463-2.61-.254-.131-.641-.181-.86-.111-.813.26-1.058.961-1.058 3.027v2.066h-1.852zm7.673-1.604v-4.91l.992.081.992.083.076 2.737.076 2.738.928-1.217c.833-1.09 1.039-1.216 1.996-1.216h1.068l-1.197 1.51-1.197 1.508 1.176 1.647c.646.907 1.175 1.716 1.175 1.799 0 .083-.47.15-1.045.15-.949 0-1.127-.116-1.919-1.256l-.872-1.257-.08 1.257-.081 1.257h-2.088zm17.992 2.265c0-2.175-.071-2.646-.397-2.646-.247 0-.397-.25-.397-.661 0-.412.15-.662.397-.662.245 0 .397-.248.397-.649 0-1.55 1.026-2.526 2.658-2.526.687 0 .781.093.781.776 0 .602-.133.794-.595.86-.426.06-.62.29-.68.812-.071.626.011.727.596.727.548 0 .68.128.68.662 0 .529-.133.661-.662.661h-.662v5.292h-2.116zm9.26-1.058v-3.704h-2.68l.083-.86.083-.86 3.506-.074 3.506-.074v.934c0 .93-.005.934-1.19.934h-1.191v7.408h-2.117zm13.29-1.125l.071-4.828.993-.082.992-.083.003 2.86.003 2.86.724-.91c.399-.5.849-1.074 1-1.275.173-.231.648-.335 1.284-.28l1.01.085-1.086 1.36c-.598.749-1.086 1.442-1.086 1.54 0 .1.546.945 1.214 1.88l1.213 1.702h-1.186c-1.141 0-1.22-.052-2.074-1.387l-.887-1.387-.08 1.387-.08 1.387h-2.1zm26.986.265l.073-4.564 1.243-.08c1.436-.093 1.457-.066 2.733 3.487l.75 2.084.876-2.349c1.207-3.234 1.13-3.142 2.629-3.142h1.294l.072 4.564.073 4.564h-2.394l-.015-2.712-.015-2.712-1.087 2.712c-.793 1.979-1.211 2.712-1.546 2.712-.336 0-.744-.726-1.527-2.712l-1.068-2.712-.017 2.712-.017 2.712h-2.129zm11.318 1.257v-3.308h2.116v6.615h-2.116zm30.691 0v-3.308h1.852v6.615h-1.852zm9.79-1.604v-4.91l.992.082.992.082.079 1.792c.078 1.782.081 1.79.654 1.389 1.082-.758 2.812-.329 3.34.829.16.355.293 1.77.293 3.146v2.5h-1.852l-.004-1.917c-.006-3.004-.358-3.609-1.792-3.078-.545.201-.586.381-.586 2.606v2.39h-2.116v-4.91zm7.937 1.604v-3.308h1.852v6.615h-1.852zm15.875-1.323v-4.63h5.821v1.852h-3.704v2.38h1.455c1.44 0 1.455.009 1.455.795 0 .785-.014.793-1.455.793h-1.455v3.44h-2.117zM85.84 64.45c-.08-.21-.105-.597-.054-.86.077-.398.358-.479 1.676-.479h1.584l.083.86.083.86h-1.613c-1.16 0-1.654-.107-1.759-.381zm16.59-4.751c-.18-.217-.29-.67-.241-1.005.067-.476.254-.61.85-.61.944 0 1.485.71 1.06 1.39-.38.605-1.255.724-1.67.225zm30.457.052c-.174-.175-.317-.508-.317-.74 0-1.048 1.615-1.467 2.107-.547.354.662.35.697-.142 1.189-.495.495-1.208.537-1.648.098zm17.63-.336c-.228-.5-.219-.749.038-1.058.47-.566 1.522-.506 1.85.107.353.662.35.697-.143 1.189-.616.616-1.405.509-1.745-.238zM16.564 40.745C1.3 36.877-4.341 18.087 6.307 6.585 9.082 3.59 12.562 1.549 16.667.51c3.19-.807 8.244-.637 11.193.377l2.05.705 2.05-.724c1.906-.672 2.352-.723 6.285-.725 3.736-.002 4.45.07 6.085.616 3.59 1.198 5.892 2.611 8.467 5.194 4.3 4.315 6.202 8.786 6.213 14.61.02 10.133-7.16 18.721-17.105 20.465-2.832.496-7.107.21-9.812-.656l-2.183-.7-2.182.707c-3.045.984-8.074 1.15-11.164.366zm18.222-2.231C45.913 35.509 51.596 23 46.569 12.576c-2.274-4.715-5.98-7.939-11.102-9.657-2.658-.89-6.916-1.022-9.795-.3-2.908.728-5.537 2.04-7.602 3.791-6.658 5.649-8.5 14.533-4.651 22.438 1.022 2.1 1.599 2.888 3.5 4.79 1.9 1.9 2.69 2.477 4.79 3.5 1.382.672 3.346 1.402 4.365 1.622 2.253.485 6.443.367 8.712-.246zm-6.798-9.41c-2.592-.65-4.827-2.515-5.967-4.98-.549-1.187-.692-1.904-.697-3.491-.005-1.729.111-2.234.862-3.76.947-1.924 2.285-3.247 4.249-4.203 1.711-.832 5.176-.853 6.961-.042 1.753.796 3.527 2.534 4.366 4.276.592 1.229.722 1.867.733 3.61.016 2.4-.669 4.261-2.218 6.025-1.763 2.009-5.68 3.22-8.289 2.566zm134.96 5.537c-7.217-.941-12.123-6.571-12.123-13.912 0-6.357 3.945-11.788 9.91-13.646 2.415-.752 6.884-.795 9.272-.089 1.74.515 4.08 1.693 5.242 2.64l.744.606-1.627 1.962c-.895 1.079-1.775 2.116-1.956 2.304-.268.28-.59.168-1.724-.596-3.844-2.586-8.957-2.162-11.42.946-1.44 1.82-1.94 3.307-1.944 5.79-.003 1.865.113 2.497.676 3.704.916 1.962 1.775 2.918 3.455 3.848 1.3.72 1.619.782 4.056.78 2.212-.002 2.874-.105 4.035-.628l1.39-.626v-3.621l-2.977-.075-2.977-.075-.075-2.712-.076-2.712h12.19V30.39l-1.29.947c-3.558 2.612-8.431 3.871-12.78 3.304zm-54.715-.397c-2.724-.732-5.145-2.632-6.3-4.945-1.258-2.519-1.379-3.684-1.379-13.34V6.888h6.054l.082 9.062c.08 8.757.101 9.099.666 10.154 1.254 2.345 3.749 3.397 6.563 2.767 1.768-.396 2.934-1.323 3.675-2.924.523-1.13.56-1.717.64-10.129l.085-8.93h6.048l-.004 8.798c-.004 9.506-.15 10.86-1.45 13.423-1.327 2.619-3.153 4.097-6.252 5.062-1.968.613-6.284.65-8.428.074zM69.07 20.654V6.887l3.24.004 3.242.004 3.534 5.685c1.943 3.127 3.563 5.685 3.599 5.685.036 0 1.648-2.56 3.583-5.689l3.517-5.688h6.537v27.516h-6.086l-.006-8.797-.006-8.797-3.713 5.639c-2.043 3.102-3.834 5.6-3.981 5.55-.148-.049-1.865-2.527-3.816-5.507l-3.549-5.418-.071 8.6-.072 8.598-2.976.075-2.977.075zm59.531-.009V6.887h21.167v5.556h-15.081v6.086h11.924l-.075 2.712-.076 2.712-5.887.07-5.887.072V34.404H128.6z" fill="#9a1648" stroke-width=".265"/></svg>