<svg xmlns="http://www.w3.org/2000/svg" width="2872.536" height="783.119" viewBox="0 0 760.025 207.2"><path d="M19.367 207.02C4.273 206.948.052 206.83.05 206.49c-.163-33.506.1-120.128.37-122.5 1.218-10.632 5.318-22.853 11.246-33.513a451.899 451.899 0 0 0 2.138-3.88c1.74-3.241 7.014-10.532 10.973-15.17 3.898-4.567 11.973-12.173 13.23-12.461.425-.098.508 13.36.585 94.103l.09 94.132c0-.046-8.692-.127-19.315-.18zm31.482-.528c-.09-12.24.063-72.409.185-72.531.097-.096.764.527 1.483 1.385 6.135 7.32 16.914 14.519 26.126 17.448 11.616 3.693 23.392 3.766 35.533.22 4.272-1.249 10.401-4.04 13.118-5.975.606-.431 1.225-.784 1.376-.784.35 0 5.258-3.68 6.747-5.06.623-.577 1.035-1.207.916-1.4-.12-.194-.056-.252.14-.13.336.206 3.936-3.23 5.846-5.581 2.855-3.514 8.37-12.853 8.37-14.173 0-.213.237-.841.527-1.397.29-.556.528-1.257.529-1.557 0-.301.135-.698.298-.882.464-.525 1.746-5.29 2.416-8.978.94-5.176.844-15.177-.195-20.462-2.624-13.341-9.842-25.653-19.98-34.08-13.477-11.202-31.445-15.746-48.683-12.31-6.376 1.272-13.663 3.93-17.733 6.47-2.91 1.814-5.99 3.867-6.779 4.516-3.83 3.153-5.292 4.571-5.134 4.982.108.282.024.376-.208.233-.37-.23-4.189 3.56-4.189 4.157 0 .154-.159.28-.353.28-.232 0-.353-8.452-.353-24.65v-24.65l3.3-1.606C77.005-1.143 102.601-3.03 126.7 4.63c7.03 2.234 15.855 6.38 22.154 10.41 1.805 1.154 3.34 2.098 3.41 2.098.07 0 .5.31.952.69.453.38 2.478 1.99 4.5 3.578 4.438 3.487 11.75 10.756 14.976 14.888 1.295 1.659 2.47 3.068 2.611 3.13.141.064.495.546.786 1.073.29.526 1.67 2.749 3.064 4.939 13.583 21.335 18.11 47.467 12.608 72.773-3.04 13.983-10.298 28.9-19.308 39.688-4.07 4.873-13.172 14.11-13.903 14.11-.081 0-1.05.736-2.153 1.635-2.795 2.28-10.239 7.13-13.822 9.007-6.962 3.647-14.532 6.557-21.974 8.447-12.38 3.145-28.302 3.664-40.997 1.338-4.035-.739-12.209-2.862-14.2-3.687l-1.146-.476v18.661h-6.703c-5.125 0-6.703-.103-6.706-.44zm204.967-13.127c-7.387-1.201-14.213-5.205-18.702-10.97-1.38-1.77-3.52-6.623-4.235-9.602-.689-2.87-.763-3.91-.604-8.467.203-5.817.819-8.544 2.89-12.798.674-1.386 1.212-2.624 1.195-2.75-.082-.626.086-1.103.36-1.024.168.049 1.227-.943 2.352-2.205 5.11-5.728 10.9-8.95 18.751-10.434 2.404-.455 4.228-.542 8.048-.384 4.4.183 10.788 1.186 11.892 1.868.257.16.316 1.755.183 4.93-.206 4.91-.377 5.711-1.094 5.117-.231-.192-1.844-.775-3.584-1.296-3.7-1.107-9.263-1.352-12.513-.551-9.436 2.325-14.933 10.4-14.38 21.128.16 3.11 1.254 7.644 1.978 8.197.127.097.53.765.896 1.484 2.606 5.127 11.062 8.91 18.36 8.216 3.994-.38 10.17-1.934 10.626-2.672.11-.179.485-.325.833-.325.539 0 .666.432.86 2.91.124 1.601.227 3.896.228 5.1l.002 2.19-2.91.928c-1.601.51-4.419 1.147-6.262 1.415-4.043.588-11.54.586-15.17-.005zm39.159-28.213c0-27.05.036-28.739.617-28.923.34-.108 2.999-.61 5.91-1.114 7.087-1.23 16.839-1.551 21.632-.714 3.04.53 8.826 2.197 9.235 2.66.097.11.812.635 1.588 1.166 2.437 1.667 5 4.306 6.135 6.318 3.067 5.434 3.33 13.74.649 20.407-.43 1.067-.872 2.02-.983 2.117-.112.097-.692.894-1.289 1.772-4.055 5.964-11.41 9.31-21.463 9.764-4.437.2-4.739.172-4.94-.458-.117-.37-.505-1.386-.862-2.259-1.606-3.93-2.903-7.444-2.78-7.533.073-.054 1.403-.005 2.955.108 3.471.254 7.188-.082 9.525-.86 1.834-.612 5.113-2.611 5.114-3.119 0-.16.454-.744 1.007-1.298 1.613-1.613 2.645-5.361 2.452-8.905-.173-3.175-.66-4.427-2.485-6.402-2.62-2.834-8.278-4.118-14.97-3.398-2.08.224-3.909.486-4.064.582-.156.096-.283 11.12-.283 24.496v24.32h-12.7zm61.383-.553v-29.28h13.053v58.56h-13.053zm50.747 28.73c-11.442-2.072-19.887-9.406-22.518-19.557-2.124-8.197-.91-17.658 3.125-24.373 4.13-6.872 10.717-11.628 19.093-13.785 3.326-.857 10.172-1.203 14.118-.713 3.22.399 7.673 1.334 8.335 1.75.293.185.332 1.548.143 4.933-.143 2.573-.343 4.761-.444 4.862-.101.1-1.436-.219-2.966-.711-4.515-1.452-8.534-1.83-12.236-1.15-2.982.547-8.008 2.514-8.008 3.133 0 .166-.186.3-.413.3-.227 0-1.281.914-2.342 2.03-5.579 5.865-7.009 16.928-3.131 24.225 1.28 2.41 3.943 5.46 5.408 6.195.554.278 1.245.697 1.536.93 1.805 1.452 8.66 2.808 12.325 2.439 2.968-.3 7.461-1.343 9.871-2.293 1.037-.408 1.95-.678 2.028-.6.201.202.754 9.53.583 9.838-.266.48-5.715 2.014-9.08 2.555-4.122.664-11.736.66-15.427-.009zM89.159 141.972c.077-.124-.603-.337-1.51-.473-4.699-.704-13.043-4.45-17.511-7.86-15.522-11.845-21.907-30.66-16.623-48.984.865-2.999 4.615-11.231 5.557-12.2 1.096-1.125 2.34-3.013 2.127-3.226-.129-.128.031-.233.354-.233.324 0 .588-.123.588-.272 0-.149 1.105-1.405 2.456-2.79 7.725-7.927 17.11-12.36 28.6-13.509 7.293-.729 15.818.778 22.313 3.944 1.51.736 2.821 1.338 2.914 1.338.713 0 6.895 4.605 9.419 7.017 5.116 4.89 8.443 9.795 11.012 16.238 1.189 2.981 2.89 9.088 2.61 9.368-.181.183-20.044.322-20.2.142-.063-.073-.376-.927-.696-1.897-1.29-3.92-5.087-9.088-8.51-11.585-9.163-6.684-21.848-6.623-30.536.148-2.384 1.857-3.173 2.657-2.897 2.932.117.118-.028.214-.323.214-.714 0-3.204 3.593-4.514 6.512-2.433 5.423-2.792 12.838-.888 18.337 1.337 3.859 4.423 8.917 5.162 8.46.169-.104.315.098.327.45.056 1.768 8.01 6.582 12.68 7.675 3.18.744 8.74.693 11.827-.11 6.255-1.625 11.675-5.453 15.054-10.632 1.103-1.691 1.632-2.809 3.13-6.614l.312-.794h20.214l-.239 1.49c-.485 3.033-2.064 7.954-3.588 11.184-6.602 13.988-19.766 23.766-34.714 25.784-3.02.408-14.165.364-13.907-.054zm288.987-42.895l-.092-14.03-20.029-.091-20.028-.091.096-6.083.097-6.082 19.932-.177 19.932-.176V31.779l-17.286-.084c-9.508-.046-17.485-.085-17.727-.088-.558-.006-.645-11.167-.089-11.353.194-.064 19.324-.076 42.51-.026l42.157.09v11.277l-17.727.092-17.727.091-.091 20.373-.091 20.373h39.869v12.348H391.997l-.093 14.022-.092 14.023-6.787.096-6.787.096zm120.734 3.962V92.985h-27.516V81.697h27.531l-.096-7.32-.095-7.32-11.818-.177-11.818-.177-.177-5.24c-.097-2.88-.089-5.379.018-5.55.107-.172 5.505-.354 11.995-.405l11.8-.093.096-6.439.096-6.438H472.775V31.25h5.33c4.93 0 5.31-.046 5.09-.617-.63-1.627-4.07-11.403-4.07-11.563 0-.1 2.954-.14 6.564-.086l6.565.096 1.506 4.233c.828 2.328 1.824 5.027 2.213 5.997l.707 1.764 9.172.094c8.509.087 9.184.049 9.353-.53.1-.342 1.07-2.924 2.155-5.738 1.085-2.813 1.975-5.307 1.977-5.54.004-.314 1.735-.454 6.565-.53 3.608-.057 6.62-.007 6.692.11.072.117-.247 1.228-.71 2.47a419.593 419.593 0 0 0-1.962 5.43c-.617 1.747-1.267 3.453-1.444 3.793-.301.575.041.617 4.971.617h5.295v11.28l-12.964.093-12.965.093v12.7l11.818.065 11.818.065.097 5.667.097 5.668h-24.02l.095 7.32.095 7.32 14.537.177 14.536.176-.072 5.468-.073 5.468-14.552.092-14.552.092v20.1H498.88zm69.784 8.754c.255-.101.559-.089.676.028.118.117-.09.2-.463.186-.41-.017-.494-.101-.213-.214zm-121.907-.4c-.436-.062-.793-.174-.793-.248 0-.075.692-2.008 1.539-4.297.846-2.29 2.05-5.83 2.675-7.866a2850.95 2850.95 0 0 1 1.628-5.292c.882-2.847 3.947-15.284 4.39-17.815.239-1.358.49-2.668.558-2.91.093-.334 1.768-.442 6.837-.442 3.693 0 6.714.093 6.714.207 0 1.248-4.326 19.454-5.85 24.619-1.082 3.666-4.561 13.573-4.88 13.89-.155.157-11.816.296-12.818.154zm164.274-.083c-.175-.109-.354-8.386-.405-18.697-.092-18.488-.092-18.502-.832-18.608-.686-.098-.755.106-.955 2.822-.258 3.499-1.447 8.191-3.267 12.893-3.912 10.109-11.555 18.774-18.446 20.913-1.233.383-2.464.696-2.734.696-.402 0-.492-1.1-.492-5.973v-5.974l1.146-.787c2.049-1.407 6.443-6.37 6.017-6.796-.124-.124-.051-.226.162-.226.516 0 3.101-4.725 3.977-7.272.717-2.081 2.103-8.487 2.103-9.713 0-.65-.299-.68-6.262-.653-3.444.016-6.46.022-6.702.014-.334-.011-.441-1.386-.441-5.659v-5.644l12.788-.041c7.033-.022 13.066-.012 13.405.022.545.056.618-.292.618-2.958v-3.02h-20.109V20.312h55.295l.237 2.734c.283 3.275-.37 18.023-.885 20.02-1.068 4.136-2.231 6.346-4.571 8.69-3.315 3.318-6.552 4.558-12.681 4.855l-4.41.214v5.644l13.494.093 13.494.092v11.28h-13.503l.218 1.853c.806 6.826 5.224 16.866 8.717 19.805.55.463.908.934.795 1.048-.113.113.213.365.725.56.512.194.931.507.931.695 0 .188.476.623 1.058.966l1.059.626v11.898l-1.147-.238c-1.372-.285-6.016-2.45-7.043-3.283-2.021-1.641-4.858-4.256-5.81-5.354-5.559-6.419-10.118-17.247-10.901-25.887-.243-2.676-.264-2.724-1.167-2.619l-.92.107-.043 18.52-.044 18.522-6.077.176c-3.343.097-6.22.088-6.392-.019zm18.024-66.547c2.956-1.852 3.958-4.19 4.165-9.726l.156-4.149-15.301.092-15.302.092-.096 6.869c-.053 3.778-.014 7.08.085 7.34.148.385 2.483.452 12.62.364 12.095-.106 12.473-.13 13.673-.882zm-397.58 60.17V98.45l2.205-1.187c4.197-2.26 7.122-4.048 7.913-4.84.438-.436 1.1-.89 1.474-1.01 1.462-.463 10.462-9.876 10.199-10.666-.053-.157.03-.285.184-.285.483 0 3.718-5.35 5.505-9.103 2.41-5.059 3.593-8.366 5.33-14.886.413-1.552.83-3.099.927-3.436.164-.577-.857-.62-16.693-.706l-16.868-.091-.097-5.553-.097-5.553 18.084-.092 18.085-.091.241-1.687c.276-1.927.883-10.099 1.206-16.217l.219-4.145h6.138c4.13 0 6.14-.124 6.14-.378 0-.208.262-.115.583.206.518.518.557 1.29.352 6.816-.127 3.428-.464 8.2-.75 10.605-.284 2.405-.433 4.508-.33 4.674.102.166 10.019.302 22.037.302h21.852v11.289H293.26l.891 3.263c1.56 5.714 4.186 12.55 6.157 16.026.365.645.996 1.767 1.403 2.495 2.731 4.893 7.139 10.442 11.474 14.448 3.531 3.263 5.448 4.7 9.395 7.046l2.734 1.625v14.093l-.97-.224a81.243 81.243 0 0 1-1.323-.314c-.968-.249-7.974-4.23-10.065-5.718-6.135-4.368-12.37-10.408-17.665-17.11-5.928-7.503-12.195-21.172-14.557-31.75-.682-3.053-.941-3.704-1.473-3.704-.533 0-.84.775-1.754 4.41-1.176 4.685-3.458 11.856-4.305 13.532-.607 1.201-.408 2.199.683 3.42.443.496.995 1.21 1.228 1.588 2.128 3.458 3.45 5.747 4.877 8.448.923 1.746 1.775 3.254 1.894 3.351.118.097.256.381.307.631.051.25.865 2.314 1.807 4.586 2.085 5.023 3.054 7.763 2.826 7.99-.094.094-3.326.19-7.181.213l-7.01.043-1.166-3.263c-.64-1.795-1.508-3.99-1.928-4.88-.42-.888-1.047-2.272-1.393-3.075-.345-.803-1.048-2.125-1.562-2.938l-.933-1.478-2.36 3.29c-1.297 1.81-3.63 4.622-5.182 6.25-3.653 3.83-10.36 9.164-13.581 10.8-.68.345-1.315.726-1.412.846-.363.452-9.406 4.615-10.501 4.834l-1.14.228zM566.26 84.047v-27.3l-3.806 2.514c-4.383 2.895-8.689 5.237-9.02 4.907-.125-.126-.222-3.178-.217-6.784l.011-6.555 2.449-1.764c1.346-.97 2.453-1.888 2.459-2.04.006-.152.31-.39.674-.53.606-.23 4.98-4.11 4.98-4.417 0-.072.63-.793 1.4-1.603 3.728-3.917 7.205-10.988 9.178-18.662l.386-1.5h13.106l-.242 1.676c-.133.922-.548 2.893-.922 4.38-.374 1.488-.586 2.996-.47 3.352.136.421.101.498-.1.221-.208-.285-.52.177-.95 1.411-.942 2.701-2.869 6.742-4.743 9.95l-1.65 2.823.177 32.334c.097 17.783.044 32.251-.119 32.15-.162-.1-.242.432-.177 1.181l.118 1.363-6.261.096-6.261.096v-27.3zM669.006 65.91l.09-45.42 16.282-.092 16.283-.092.257 3.422c.782 10.439-.756 18.464-4.993 26.042l-1.972 3.528.923 1.686c1.269 2.316 3.143 7.9 3.935 11.72.482 2.329.66 4.725.67 8.995.013 6.603-.748 11.166-2.768 16.576l-1.12 3.003-6.429.097c-3.536.053-6.428-.01-6.428-.138 0-.13.625-2.085 1.39-4.347 2.207-6.534 2.97-10.93 2.97-17.13 0-3.79-.179-6.094-.63-8.115-.97-4.35-3.141-9.677-4.695-11.517-.43-.51-.313-.813.95-2.47 2.953-3.87 5.048-9.687 5.687-15.787.224-2.144.33-4.1.235-4.348-.2-.52-5.444-.826-7.688-.447l-1.394.235v80.019h-11.645zm28.135 39.775v-5.644h35.545l.783-2.094c.43-1.152.679-2.263.551-2.47-.144-.234-1.984-.375-4.904-.375h-4.672l-.446-4.987c-.454-5.071-1.979-14.91-3.054-19.707a145.778 145.778 0 0 1-.773-3.616l-.18-.97h11.26l1.271 6.614c1.432 7.451 1.816 10.036 2.408 16.236.227 2.381.453 4.286.502 4.233.048-.053 1.124-3.192 2.39-6.975 2.185-6.532 4.872-15.917 5.378-18.786l.234-1.322h5.605c3.083 0 5.605.062 5.605.138 0 .63-1.385 6.637-2.505 10.863-1.324 4.993-4.38 13.879-6.64 19.298-1.766 4.238-2.292 3.92 6.482 3.92 6.176 0 7.619.092 7.85.502.154.276.233 2.816.175 5.644l-.106 5.143H697.14zm11.847-11.024c-.068-.242-.304-2.617-.523-5.276-.219-2.66-.718-6.707-1.108-8.996-.82-4.802-2.397-13.045-2.67-13.95-.17-.57.25-.617 5.477-.617 5.586 0 5.663.01 5.83.793.907 4.266 2.415 12.926 2.859 16.408.623 4.897 1.138 11.69.904 11.923-.085.086-2.515.156-5.4.156-3.893 0-5.276-.113-5.369-.44zm-352.076-27.87c-2.218-3.385-6.012-13.682-7.766-21.078-.53-2.231-1.047-4.295-1.15-4.586-.102-.29-.24-1.059-.308-1.706-.067-.647-.218-1.48-.335-1.852-.207-.65.05-.675 6.776-.675l6.992.001 1.497 6.163c1.698 6.986 3.58 12.763 6.31 19.372 1.032 2.5 1.792 4.683 1.688 4.85-.104.168-3.112.306-6.686.306-6.35 0-6.51-.018-7.018-.795zm42.132.63c0-.09.228-.686.507-1.323L400.908 63c2.838-6.482 5.262-14.09 7.083-22.225l.83-3.704 6.93-.096c5.968-.082 6.93-.022 6.93.434 0 .291-.628 3.2-1.394 6.466-2.034 8.665-4.695 16.392-7.83 22.739l-.478.967-6.967.003c-3.833 0-6.968-.071-6.968-.162zm57.439-.894c-1.622-4.306-9.299-18.746-10.527-19.8-.367-.315-.569-.672-.448-.794.121-.12 3.255-.22 6.963-.22 6.023 0 6.788.066 7.17.618 3.426 4.942 11.126 20.205 10.507 20.824-.11.11-3.154.211-6.766.227l-6.567.027-.332-.882zm301.147-4.465c-1.896-1.003-6.983-4.195-8.06-5.057-5.22-4.177-9.355-8.681-12.724-13.86-1.982-3.046-4.625-8.33-5.465-10.926l-.428-1.322-3.941.007-3.941.007-1.177 3.785c-2.207 7.106-6.709 15.34-11.1 20.304-2.345 2.651-6.968 6.589-7.736 6.589-.295 0-1.207-1.77-2.303-4.47l-1.814-4.469 1.504-1.324c3.195-2.812 7.906-11.232 10.255-18.328.755-2.28 2.224-8.644 2.502-10.836l.235-1.857 13.236.093 13.236.092.987 3.44c1.148 4.004 3.403 9.607 4.096 10.183.264.219.48.577.48.796 0 .782 3.698 5.876 4.142 5.706.262-.101.444.108.444.51 0 .904 4.13 5.294 4.98 5.294.365 0 .664.219.664.486 0 .365 2.544 2.357 4.175 3.27.245.137.021 12.298-.231 12.55-.145.146-1.052-.153-2.016-.662zm-41.925-2.168c-.15-.243-.31-6.357-.24-9.154l.02-.793h25.773l-.098 5.027-.098 5.027-12.588.092c-6.924.051-12.67-.038-12.769-.199zm-259.73-19.56c-1.468-3.358-7.264-14.602-8.907-17.28-.802-1.307-1.457-2.458-1.457-2.558 0-.1 3.057-.183 6.795-.183h6.794l1.757 2.91c3.228 5.35 9.348 17.885 9.348 19.148 0 .092-3.007.167-6.683.167h-6.683zm-28.18-8.38c.12-.193.289-.352.374-.352.086 0 .156.159.156.353 0 .194-.168.353-.374.353-.205 0-.275-.16-.155-.353zM122.754 2.787c.255-.102.559-.09.676.028.117.117-.091.2-.463.185-.41-.017-.494-.1-.213-.213z" fill="#fff" stroke-width=".353"/></svg>