<svg xmlns="http://www.w3.org/2000/svg" width="1600" height="563" viewBox="0 0 423.333 148.96" version="1.1" id="svg8"><defs id="defs2"><style id="style10"></style></defs><g id="layer1" transform="translate(348.908 -215.898)" stroke-width=".265"><path d="M-239.598 364.279c-.125-.336-.629-2.606-1.12-5.045-.508-2.525-1.008-4.395-1.162-4.345-.319.105-.875 4.543-.908 7.242-.012 1.046-.13 1.968-.26 2.049-.13.08-.595.075-1.032-.012-.712-.143-.814-.289-.972-1.388-.26-1.819-.947-4.382-1.219-4.55-.13-.08-.35-.735-.487-1.455-.24-1.257-1.156-3.607-2.057-5.278-.235-.437-.65-1.24-.922-1.786s-.61-.992-.752-.992c-.143 0-.23-.09-.194-.199.06-.185-1.047-2.154-1.376-2.447-.082-.073-.441-.57-.8-1.105-.357-.534-.743-.914-.857-.844-.114.07-.21-.087-.216-.35-.005-.264-.48-.952-1.058-1.53-.577-.579-1.05-1.144-1.05-1.257a.21.21 0 0 0-.213-.206c-.118 0-.993-.744-1.945-1.653-2.116-2.022-2.688-2.492-3.904-3.206-.522-.307-1.146-.725-1.388-.93-.698-.592-4.19-2.438-4.195-2.217-.002.11-.094.06-.204-.113-.227-.358-2.554-1.406-3.121-1.406-.207 0-.375-.119-.375-.264 0-.146-.175-.265-.389-.265-.213 0-1.233-.264-2.267-.587l-1.88-.587.155-1.464c.26-2.474.58-4.498.735-4.653.255-.254 3.526.896 6.134 2.157.422.204.928.371 1.124.371.196 0 .356.12.356.265 0 .146.179.265.397.265.219 0 .397.09.397.2 0 .208 1.292.851 1.674.834.12-.006.432.235.692.536.261.3.61.546.774.546.165 0 .3.12.3.265 0 .145.125.265.279.265.153 0 .66.356 1.124.792.465.436.995.793 1.176.794.182 0 .331.12.331.266 0 .145.179.264.397.264.218 0 .397.114.397.253 0 .457 1.35 1.613 1.67 1.43.173-.1.226-.082.117.037-.108.12.284.674.872 1.233.587.559.973 1.02.858 1.025-.115.005.03.213.325.463.293.25 1.124 1.228 1.845 2.174a350.75 350.75 0 0 0 1.52 1.984c.75.95 3.905 6.318 3.905 6.643 0 .102.318.852.706 1.666.752 1.578 1.8 4.323 2.232 5.846.144.51.367 1.164.495 1.456.128.29.285.707.35.926.063.218.205-.318.315-1.191.11-.873.352-2.48.538-3.572.335-1.963.33-2.002-.428-3.627-.423-.903-.768-1.72-.768-1.814 0-.094-.357-.7-.794-1.347-.436-.647-.793-1.294-.793-1.438 0-.145-.124-.407-.275-.583-.242-.28-.867-1.252-2.564-3.985-1.115-1.796-4.032-5.185-6.269-7.283-.716-.672-1.548-1.46-1.85-1.751-1.025-.992-5.362-4.015-6.637-4.627-.437-.21-1.11-.594-1.496-.854-.387-.26-.9-.472-1.14-.472-.241 0-.365-.12-.275-.265.093-.15-.13-.264-.513-.264-.373 0-.677-.09-.677-.2 0-.167-1.269-.698-2.25-.94a2.341 2.341 0 0 1-.528-.224c-.146-.088-.95-.356-1.786-.596-.837-.24-1.522-.537-1.522-.66s.17-.705.377-1.292c.207-.587.306-1.138.22-1.224-.085-.086-.02-.156.145-.156.165 0 .231-.179.148-.397-.084-.218-.032-.397.114-.397.147 0 .392-.359.545-.797.344-.987.876-1.21 1.884-.793.428.177.859.3.958.272.1-.027.292.11.428.303.194.277.278.282.383.023.192-.473.706-.41.524.063-.103.27.075.45.567.57.396.097.78.268.855.381.119.179 1.534.981 4.003 2.27.385.2.846.541 1.025.756.178.216.479.392.667.392.188 0 .382.09.43.198.049.11.803.733 1.676 1.387.873.654 1.826 1.45 2.117 1.768.29.319.992.945 1.558 1.391.565.447.963.812.883.812-.08 0 .406.566 1.078 1.257.673.691 1.326 1.224 1.452 1.184.125-.04.163.032.084.16-.08.128.206.637.633 1.13 1.013 1.171 1.114 1.301 1.638 2.119.243.38.602.856.797 1.058.195.203.767 1.023 1.27 1.823.504.8 1.007 1.495 1.12 1.544.111.048.202.24.202.426s.269.741.597 1.234c.525.79 2.288 4.46 3.036 6.321.244.606.317.495.867-1.323.778-2.574.722-3.504-.328-5.428-1.253-2.294-3.675-5.949-3.942-5.949-.126 0-.23-.172-.23-.383 0-.21-.267-.68-.595-1.044a29.4 29.4 0 0 1-1.168-1.403c-1.146-1.483-1.602-1.919-1.812-1.729-.117.106-.132.052-.032-.122.175-.306-1.542-2.344-3.536-4.199-2.721-2.53-3.37-3.092-4.035-3.494-.4-.242-.728-.533-.728-.647 0-.115-.16-.208-.356-.208-.195 0-.571-.238-.834-.53-.264-.29-.579-.528-.7-.528s-.45-.197-.732-.438c-.732-.627-3.7-2.208-4.146-2.208-.207 0-.376-.12-.376-.265 0-.145-.156-.264-.347-.264-.19 0-.84-.238-1.442-.53-.603-.29-1.31-.532-1.571-.537-.783-.014-1.434-.657-1.23-1.215.194-.532 1.46-2.095 2.786-3.44.89-.901 1.412-.913 2.64-.059.385.269.837.489 1.002.489.166 0 .445.126.621.28.31.273 1.347.954 2.896 1.905.416.256 1.012.702 1.323.992.311.29.722.527.913.527.19 0 .347.12.347.265 0 .145.102.264.227.264.229 0 1.159.8 3.915 3.368.816.76 1.606 1.307 1.755 1.216.149-.092.197-.05.108.095-.09.145.487.967 1.282 1.827.794.86 1.444 1.654 1.444 1.763 0 .109.199.198.441.198.243 0 .369.072.28.16-.087.089.101.44.42.781.96 1.03 1.24 1.406 1.24 1.666 0 .136.346.617.768 1.07.422.451.713.821.645.821-.067 0 .234.506.67 1.124.699.994 2.78 4.476 4.057 6.79.248.45.582.817.743.817.16 0 .219-.119.129-.264-.09-.146-.037-.265.117-.265s.28-.183.28-.406c0-.224.172-.67.382-.992.72-1.104.724-2.138.01-3.106-.361-.49-.657-1.018-.657-1.173 0-.34-1.821-3.106-2.227-3.38-.157-.108-.189-.197-.069-.2.12-.001.06-.167-.132-.368-.193-.2-.529-.63-.747-.956-1.16-1.729-2.968-3.978-3.593-4.47-.392-.308-.63-.56-.532-.56.1 0-.093-.282-.427-.627a84.055 84.055 0 0 1-1.591-1.72c-.541-.6-1.056-1.092-1.144-1.092-.298 0-.89-.73-.726-.894.09-.09.048-.164-.093-.164-.141 0-.688-.387-1.214-.86-1.67-1.502-2.974-2.449-3.248-2.359-.145.048-.175 0-.067-.11.173-.173-2.179-1.963-2.579-1.963-.085 0-.41-.238-.722-.53-.312-.29-.724-.528-.915-.528-.19 0-.347-.09-.347-.2 0-.11-.387-.368-.86-.573-.473-.204-1.364-.714-1.98-1.132-.964-.654-1.078-.828-.82-1.243.166-.264.76-.764 1.32-1.11.56-.346 1.017-.72 1.017-.832 0-.111.156-.202.347-.202.191 0 .603-.238.915-.53.55-.511 2.043-.733 2.222-.33.12.268 2.26 1.918 2.488 1.918.1 0 .624.387 1.165.86 1.688 1.476 2.704 2.315 2.802 2.315.052 0 .58.477 1.174 1.059s1.194 1.058 1.333 1.058c.14 0 .225.098.188.218-.036.12.678.972 1.588 1.892.91.92 1.653 1.77 1.653 1.89 0 .118.536.819 1.19 1.556.656.738 1.192 1.463 1.192 1.612 0 .15.095.212.213.14.117-.072.436.282.708.788.344.638.623.872.912.762.325-.124.346-.088.096.164-.25.252-.15.537.463 1.31.43.544.783 1.091.783 1.216 0 .124.447.903.992 1.73a93.297 93.297 0 0 1 1.87 2.981c.853 1.432 1.37 1.69 1.37.68 0-.27.092-.53.203-.579.11-.048.849-1.22 1.64-2.602.791-1.382 1.564-2.651 1.717-2.82.152-.17.694-.913 1.203-1.652 1.41-2.047 4.47-5.97 5.51-7.066.192-.202.251-.37.132-.372-.12-.002.08-.153.444-.335.364-.183.779-.597.922-.922.144-.325.398-.59.565-.59.167 0 .734-.477 1.26-1.06.525-.581 1.02-1.058 1.1-1.058.08 0 .422-.267.76-.595a33.253 33.253 0 0 1 1.741-1.507c.62-.502 1.282-1.068 1.472-1.257.189-.19.472-.345.628-.345.155 0 .283-.119.283-.264 0-.146.135-.265.3-.265.165 0 .527-.262.804-.582.534-.615 2.206-.823 2.552-.318.1.145.597.553 1.107.905a22.23 22.23 0 0 1 1.934 1.567c.942.863.977.948.53 1.275-.264.192-.778.608-1.142.924-.363.316-.694.54-.735.5-.123-.123-1.646.607-1.646.789 0 .092-.357.316-.794.496-.436.181-.793.434-.793.562 0 .127-.16.232-.356.232-.196 0-.572.238-.835.53-.263.29-.616.528-.783.528-.167 0-.733.387-1.258.86-1.379 1.244-2.047 1.786-2.202 1.786-.075 0-.65.506-1.277 1.125-.627.618-1.607 1.563-2.176 2.099-1.004.945-3.67 3.79-4.214 4.497a55.183 55.183 0 0 0-1.716 2.327c-.218.322-.674.901-1.012 1.288-.338.386-.968 1.298-1.4 2.026-1.292 2.172-1.389 2.333-2.146 3.546-.78 1.25-.798 2.256-.058 3.39.21.322.383.746.383.941 0 .196.164.58.365.855.343.469.398.434.915-.578.302-.592.475-1.152.384-1.242-.09-.091-.023-.165.15-.165.174 0 .435-.314.58-.696.146-.383.493-1.017.771-1.408.28-.391.544-.882.59-1.09.044-.208.152-.438.239-.51.086-.073.675-.907 1.308-1.853s1.396-2.025 1.695-2.398c.299-.373.781-1.01 1.073-1.415.602-.84 2.84-3.354 4.692-5.272.689-.713 1.176-1.42 1.083-1.57-.098-.16-.04-.195.141-.083.182.113.688-.198 1.227-.753.504-.52.984-.944 1.065-.944.082 0 .471-.304.865-.677a10.35 10.35 0 0 1 1.444-1.115c.4-.241.727-.532.727-.646 0-.115.15-.208.334-.208.183 0 .481-.238.663-.53.182-.29.545-.528.808-.528.262 0 .732-.238 1.045-.53.312-.29.692-.529.843-.529.152 0 .276-.09.276-.2 0-.11.387-.366.86-.57.473-.204 1.176-.59 1.562-.859.386-.268.944-.487 1.24-.487.547 0 1.726 1.289 3.083 3.371.845 1.297.72 1.615-.841 2.143-1.613.546-3.56 1.391-3.787 1.644-.073.081-.52.304-.992.496-.473.19-.86.452-.86.58 0 .128-.216.232-.48.232-.263 0-.734.239-1.047.53-.312.29-.673.529-.803.529-.129 0-.45.238-.713.529-.263.291-.592.53-.73.53-.316 0-1.904 1.318-1.605 1.332.12.006-.177.182-.66.392-.554.24-.808.497-.687.692.109.177.078.24-.072.148-.525-.325-7.96 7.75-9.074 9.854a6.604 6.604 0 0 1-.834 1.174c-.271.291-.493.693-.493.892 0 .2-.12.29-.265.2-.145-.09-.264-.044-.264.103s-.358.796-.794 1.443c-.437.647-.794 1.293-.794 1.436 0 .143-.177.407-.394.587-.217.18-.335.422-.263.539.072.116.036.252-.08.3-.384.162-1.287 1.932-1.26 2.47.025.519.58 2.787.874 3.573.082.218.13.486.107.595-.023.109.083.198.236.198.153 0 .451-.446.662-.992.212-.546.575-1.35.806-1.786.232-.436 1.029-1.984 1.77-3.44.743-1.455 1.527-2.824 1.742-3.042.216-.218.723-.916 1.125-1.551.403-.635 1.661-2.287 2.797-3.671 1.135-1.385 2.035-2.622 1.998-2.75-.036-.126.083-.2.265-.164.182.036.301-.083.265-.265-.037-.182.032-.3.151-.264.12.036.706-.44 1.303-1.059.596-.618 1.202-1.124 1.347-1.124.145 0 .303-.092.352-.204.048-.112.742-.737 1.543-1.389.8-.652 1.645-1.391 1.879-1.643.233-.252.5-.381.595-.287.095.094.172.026.172-.153 0-.178.106-.258.237-.178.13.08.3-.018.377-.22.127-.33.661-.669 2.493-1.583.326-.163.594-.386.595-.495 0-.109.224-.198.495-.198.272 0 .797-.238 1.167-.53.37-.29.804-.528.965-.528.16 0 .5-.11.752-.243 1.028-.542 2.415-1.08 2.784-1.08.216 0 .575.387.798.86.454.964 1.508 4.025 1.508 4.38 0 .3-1.201.845-1.858.845-.28 0-1.29.357-2.243.794-.954.436-1.885.794-2.07.794a.989.989 0 0 0-.59.24c-.138.131-.697.488-1.243.793-2.431 1.358-3.038 1.72-4.034 2.413-.582.405-1.322.986-1.644 1.291-.32.305-.707.554-.857.554-.15 0-.422.238-.604.53-.182.29-.45.53-.598.531-.272.002-4.478 4.23-6.306 6.34-1.746 2.016-5.244 7.4-5.032 7.747.068.109.015.198-.116.198-.326 0-2.763 4.986-2.772 5.67-.01.79.797 6.788.932 6.923.062.063.653-1.465 1.313-3.395 1.535-4.495 2.052-5.852 2.29-6.02.105-.074.453-.75.771-1.503.319-.752 1.039-2.061 1.6-2.91.56-.849 1.176-1.838 1.366-2.199.19-.36.477-.793.636-.96.159-.167.467-.566.686-.887.218-.321.694-.918 1.058-1.328a375.31 375.31 0 0 0 1.852-2.11 64.826 64.826 0 0 1 2.25-2.436c1.08-1.094 5.288-4.348 6.481-5.013.364-.203.721-.428.794-.5.073-.073.993-.562 2.044-1.087 1.052-.525 1.826-1.05 1.72-1.167-.106-.117-.046-.13.131-.027.178.102.986-.117 1.794-.487.81-.37 1.838-.702 2.287-.738.755-.062.844.023 1.183 1.124.202.655.441 1.99.532 2.967.187 2.005.247 1.938-2.356 2.604-.694.177-1.327.425-1.404.55-.078.126-.402.23-.721.23-.319 0-.937.219-1.373.484-.437.266-1.113.564-1.503.661-.39.098-.867.331-1.059.52-.192.187-.736.5-1.209.692-.473.194-.86.457-.86.585 0 .127-.223.232-.496.232-.552 0-1.184.613-.912.884.095.096-.084.174-.4.174-.315 0-.573.12-.573.265 0 .146-.178.265-.397.265-.218 0-.397.093-.397.207 0 .114-.383.434-.851.71-.469.278-1.247.899-1.73 1.38-.481.483-.964.878-1.072.878-.175 0-1.347 1.235-3.738 3.94-.437.495-.731 1-.655 1.125.077.125-.016.231-.206.238-.429.014-2.761 3.57-2.64 4.024.049.181 0 .24-.11.13-.226-.225-1.458 1.812-1.51 2.495-.018.246-.127.388-.243.317-.186-.116-.253.1-.187.6.013.092-.077.241-.198.33-.492.36-1.97 4.407-2.015 5.52-.007.182-.099.33-.202.33-.214 0-.918 2.695-1.185 4.538-.164 1.129-.248 1.242-1.012 1.358-.459.07-.923.075-1.033.01-.109-.063-.199-.853-.2-1.754-.002-1.66-.398-5.761-.692-7.172-.116-.555-.22-.667-.367-.397-.173.316-2.114 9.375-2.114 9.868 0 .09-.459.164-1.02.164h-1.02l-.152-1.816c-.166-1.974-1.251-8.822-1.43-9.024-.23-.26-.582.677-.739 1.964-.09.735-.276 2.169-.414 3.188a51.847 51.847 0 0 0-.34 3.704l-.089 1.852-.97.082c-.811.069-1.008-.018-1.197-.53zm6.678-6.234c.074-.254.201-.88.282-1.389.297-1.882.387-2.293.954-4.365.879-3.218.889-3.448.246-5.705-.472-1.658-.702-2.1-1.09-2.1-.271 0-.493.183-.493.407 0 .224-.238.874-.529 1.444-.29.57-.533 1.31-.538 1.644-.005.333-.165.885-.355 1.227-.33.596-.223 1.763.454 4.935.062.29.198 1.392.303 2.447.183 1.851.482 2.42.766 1.455zm-4.847-4.283c.558-3.817.54-4.872-.098-6.102-.19-.363-.501-1.224-.693-1.913-.192-.688-.536-1.403-.764-1.587-.324-.262-.371-.263-.216-.005.11.182.094.33-.033.33-.344 0-1.163 2.798-1.251 4.275-.048.788.153 2.033.517 3.214.327 1.06.683 2.637.791 3.503.22 1.762.598 2.682.956 2.324.13-.129.485-1.947.79-4.04zm2.731-10.798c1.109-3.023 1.127-3.608.178-5.689-.447-.982-.93-1.785-1.073-1.785-.143 0-.626.803-1.074 1.785-.584 1.283-.779 2.048-.69 2.712.157 1.172 1.478 5.028 1.723 5.028.101 0 .523-.923.936-2.051zm72.059 21.605c-.18-.095-.802-.254-1.384-.354-2.17-.374-4.21-1.174-5.854-2.296-.6-.409-1.135-.719-1.19-.688-.055.03-.074.01-.042-.046.031-.056-.372-.443-.897-.86-.524-.417-.872-.758-.773-.758.1 0-.12-.302-.489-.67-.924-.924-2.7-4.793-3.037-6.614-.181-.978-.283-9.92-.29-25.553l-.012-24.049h-5.416c-4.139 0-5.424-.078-5.449-.33-.018-.182-.009-.986.02-1.787.052-1.435.559-2.3 1.137-1.943.29.18 9.058.127 9.538-.057.24-.092.297-1.915.233-7.435-.046-4.023-.019-7.574.061-7.893.112-.446.314-.563.879-.51 1.39.132 2.825.463 3.479.803.36.187.753.28.873.205.12-.074.217-.034.217.09 0 .122.328.42.728.662 1.007.608 2.965 2.508 2.777 2.695-.084.085.045.154.288.154.242 0 .417.09.388.199-.03.109.227.734.57 1.389.555 1.06.636 1.636.743 5.268.067 2.242.242 4.207.39 4.365.185.2 2.723.266 8.176.215l7.908-.074.229.603c.126.332.168 1.228.095 1.992l-.134 1.39h-8.418c-5.326 0-8.477.096-8.58.264-.09.145.017.264.238.264.355 0 .412 2.687.494 23.35.083 20.977.138 23.543.548 25.253.51 2.133 1.664 4.843 2.062 4.843.143 0 .187.12.097.265-.09.145-.037.264.117.264s.28.146.28.325c0 .468 2.164 2.32 2.712 2.32.255.001.464.09.465.2.003.285 1.328.86 1.982.86.306 0 .687.13.846.29.297.297 6.753.176 8.952-.168 1.034-.162 1.068-.143 1.126.615.073.95-.216 1.195-1.928 1.644-.727.19-1.442.431-1.587.535-.146.103-.98.259-1.852.345-.873.087-2.421.287-3.44.446-1.906.297-7.298.278-7.876-.028zm41.875-.402c-.946-.359-1.835-.678-1.977-.708-.141-.03-.737-.33-1.323-.663-.586-.334-1.274-.675-1.529-.758-.254-.084-.463-.257-.463-.386 0-.128-.152-.233-.338-.233-.185 0-.7-.328-1.145-.728a58.496 58.496 0 0 0-1.61-1.389c-.44-.364-.987-1.019-1.213-1.455-.226-.437-.63-1.037-.897-1.333-.267-.297-.51-.654-.542-.794-.031-.14-.348-.969-.704-1.842-.825-2.02-1.1-5.303-.705-8.42.28-2.21 1.135-4.47 2.668-7.043.926-1.553 4.692-5.34 5.464-5.493.149-.03.996-.535 1.882-1.124.887-.59 1.744-1.071 1.906-1.071.16 0 .22-.119.13-.265-.09-.145.077-.264.372-.264.296 0 .961-.238 1.48-.53.517-.29 1.07-.528 1.226-.528.156 0 .896-.309 1.645-.686 1.33-.67 2.244-1.002 4.669-1.696.655-.187 1.7-.502 2.324-.7.624-.197 1.295-.358 1.491-.358.197 0 .937-.17 1.645-.38.708-.208 2.418-.634 3.8-.946 1.383-.311 2.88-.676 3.326-.81.447-.135 1.114-.245 1.482-.245.368 0 1.015-.107 1.437-.236a38.74 38.74 0 0 1 2.3-.575c.844-.186 1.595-.437 1.67-.557.074-.121.545-.22 1.046-.22.5 0 .91-.119.91-.264 0-.146.16-.265.356-.265.196 0 .553-.218.794-.484.356-.394.437-1.07.433-3.638-.006-4.26-.914-8.338-2.21-9.93-.31-.38-.742-.963-.96-1.296-.504-.768-1.642-1.814-2.432-2.236-.336-.179-1.147-.625-1.802-.99-2.18-1.219-4.706-1.667-9.392-1.667-2.517 0-4.663.129-5.292.317-.582.174-1.624.468-2.315.653-.691.185-1.257.43-1.257.543 0 .114-.252.207-.56.207-.511 0-1.706.528-3.409 1.505-.364.209-.87.446-1.124.527-.255.08-.463.252-.463.38 0 .129-.199.234-.441.234-.243 0-.368.073-.28.162.195.194-1.216 1.426-1.633 1.426-.16 0-.292.119-.292.264 0 .146-.149.268-.33.273-.38.01-1.782 1.183-1.795 1.5-.017.415-.665 1.064-1.25 1.25l-.594.188v-6.828l.794-.707c.437-.389.794-.628.794-.532 0 .097.208.004.463-.205 2.042-1.676 10.975-5.258 13.116-5.258.39 0 .708-.102.708-.228s.744-.3 1.654-.388c.91-.088 2.844-.278 4.3-.422 4.13-.41 8.267-.006 13.082 1.275 1.084.288 2.084.453 2.224.367.14-.086.168-.019.064.15-.111.18-.02.305.224.305.227 0 .413.119.413.264 0 .146.243.265.54.265.297 0 .684.126.86.28.176.154.677.51 1.113.79.437.28 1.014.66 1.282.844.795.544 3.878 3.548 3.878 3.778 0 .116.272.58.605 1.03.333.45.836 1.354 1.117 2.01.282.654.634 1.277.784 1.384.15.107.198.196.109.199-.09.002.085.688.388 1.525.542 1.496.553 1.952.64 27.41l.09 25.89-1.272-.144c-2.578-.294-3.418-.494-4.77-1.136-1.817-.864-3.82-3.116-4.581-5.151-.321-.858-.718-1.556-.882-1.552-.164.004-.894.545-1.621 1.201-.728.657-1.65 1.394-2.05 1.638-.4.244-.728.536-.728.65 0 .115-.118.208-.262.208-.237 0-.882.46-1.686 1.205-.498.46-4.686 2.41-6.387 2.973-4.268 1.414-3.992 1.38-10.897 1.359-6.313-.019-6.631-.045-8.285-.672zm17.248-4.653c.846-.175 1.537-.388 1.537-.473 0-.086.243-.174.539-.196.739-.056 5.823-2.575 6.535-3.238.317-.296.64-.538.718-.538.232 0 1.187-.823 3.3-2.842l2.005-1.916.076-12.107c.042-6.659.013-12.363-.064-12.675-.13-.524-.227-.547-1.267-.307-.62.144-1.305.33-1.523.415-.218.085-.992.297-1.72.471-3.683.882-5.866 1.477-6.28 1.712a2.345 2.345 0 0 1-.976.261c-.285 0-.582.104-.66.23-.078.126-.59.304-1.14.394-.549.09-1.339.345-1.756.564-.416.22-.924.4-1.128.4-.203 0-.577.111-.83.247-.252.136-.837.4-1.3.585-.462.186-.782.432-.712.547.071.114-.205.21-.614.214-.409.003-1.04.239-1.405.523-.363.285-.753.52-.865.524-.34.01-2.34 1.354-4.193 2.82-1.718 1.36-3.673 3.671-3.673 4.344 0 .187-.16.528-.356.758-1.324 1.555-1.888 7.02-1.064 10.312.485 1.935 1.61 4.297 2.537 5.33.877.976 1.947 1.867 2.36 1.966.99.237 1.55.49 1.55.7 0 .129.29.234.646.234.355 0 .72.119.81.264.09.146.543.273 1.007.284.465.01 1.083.12 1.374.246.793.34 4.783.308 6.532-.053zM31.96 364.42c-.582-.225-1.832-.704-2.778-1.064-3.141-1.195-6.1-3.417-7.722-5.799-.337-.494-.701-.899-.81-.9-.11-.001-.199-.118-.199-.26 0-.142-.368-1.06-.817-2.043-1.89-4.126-1.395-10.816 1.09-14.736.432-.68.785-1.412.785-1.625 0-.213.127-.388.28-.388.155 0 .207-.119.117-.264-.09-.146-.008-.27.183-.277.19-.007.704-.478 1.14-1.046.437-.569.882-1.04.99-1.046.22-.014 1.03-.654 1.942-1.534.339-.327.711-.595.827-.595.117 0 .772-.399 1.458-.886.685-.488 1.965-1.228 2.843-1.645.879-.417 1.598-.852 1.598-.966 0-.114.208-.207.463-.207.406 0 3.616-1.236 4.89-1.884.253-.128.65-.233.88-.233.231 0 1.32-.302 2.42-.671 1.1-.37 2.523-.743 3.163-.831.64-.088 1.226-.262 1.303-.387.078-.125.491-.228.919-.228.428 0 .778-.1.778-.224s.37-.235.824-.248c.845-.024 2.913-.438 4.354-.871.447-.134 1.057-.244 1.355-.244.299 0 1.72-.312 3.157-.694 1.437-.381 3-.751 3.473-.822.473-.071.86-.236.86-.365 0-.13.176-.236.39-.236.215 0 .589-.384.831-.853.37-.716.415-1.362.279-4.035-.09-1.75-.345-3.807-.567-4.57a444.12 444.12 0 0 1-.768-2.68c-.415-1.468-1.14-2.563-2.724-4.113-1.091-1.066-1.487-1.353-3.1-2.247-.889-.493-3.14-1.174-3.834-1.161a1.433 1.433 0 0 1-.782-.272c-.517-.409-7.605-.565-9.324-.205-2.066.432-4.185 1.067-5.404 1.62-.582.263-1.445.637-1.918.83-.473.194-.86.45-.86.568 0 .119-.11.148-.243.066-.134-.083-.423.029-.643.249-.22.22-.527.399-.683.399-.156 0-.283.099-.283.22 0 .12-.328.388-.728.595-.4.206-.787.44-.86.52-.073.08-.52.417-.995.748-.475.332-.784.732-.687.888.1.162.054.21-.107.11-.386-.238-1.96 1.123-1.74 1.507.096.169.083.225-.028.124-.112-.1-.451.049-.754.33-.303.283-.648.514-.766.514s-.214-1.54-.214-3.424v-3.425l.793-.469c.437-.258.794-.562.794-.676 0-.115.209-.21.463-.212.396-.003.405-.041.066-.26-.307-.2-.227-.258.356-.261.414-.002 1.07-.217 1.455-.477.387-.26 1.03-.637 1.43-.838.4-.201.728-.465.728-.586 0-.12.286-.22.636-.22.35 0 1.095-.234 1.654-.52 1.28-.656 4.872-1.851 6.441-2.144 4.155-.775 6.898-1.08 9.922-1.103 3.261-.026 7.578.396 8.731.852.291.115 1.065.354 1.72.53.655.178 1.518.496 1.919.708.4.212.865.3 1.033.196.189-.116.233-.072.116.117-.108.176-.031.306.18.306.985 0 6.542 4.31 6.542 5.073 0 .152.154.216.343.144.2-.077.358.077.38.37.034.448.963 2.004 1.404 2.35.092.073.24.37.33.662.088.29.521 1.541.961 2.778l.8 2.249.007 25.757.007 25.758-1.124-.147c-2.542-.332-3.294-.501-4.363-.986-.617-.28-1.216-.508-1.33-.508-.116 0-.381-.238-.591-.53-.21-.29-.534-.528-.72-.528-.186 0-.338-.111-.338-.246s-.15-.408-.331-.606c-.71-.771-2.05-3.408-2.05-4.03 0-.594-.876-.503-1.331.139-.214.301-1.134 1.081-2.043 1.733-.91.651-1.654 1.304-1.654 1.451 0 .147-.119.193-.264.103-.146-.09-.265-.037-.265.117s-.178.28-.397.28c-.218 0-.397.12-.397.265 0 .145-.178.264-.396.264-.219 0-.397.107-.397.236 0 .13-.29.309-.643.398-.354.088-.803.31-1 .491-.481.448-2.642 1.523-3.057 1.522-.184 0-.541.114-.794.253-.253.14-1.489.557-2.747.926-2.18.641-2.586.672-8.731.659-5.162-.011-6.655-.096-7.502-.424zm17.728-5.22c.727-.25 1.56-.556 1.852-.68a45.2 45.2 0 0 1 1.385-.546c.474-.178.78-.445.687-.597-.101-.164-.04-.194.151-.076.182.113.768-.098 1.358-.488.57-.378 1.166-.687 1.323-.687.158 0 .213-.119.123-.265-.09-.145.02-.264.246-.264.589 0 2.653-1.622 4.649-3.651l1.72-1.75.077-12.292c.062-9.835.009-12.334-.265-12.505-.338-.21-2.086-.066-2.855.235-.687.269-4.063 1.157-4.961 1.304-.473.078-.86.26-.86.406 0 .145-.173.197-.385.116-.212-.081-1.373.192-2.58.608s-2.73.933-3.385 1.15c-3.61 1.192-7.686 3.123-8.82 4.179-.297.277-.667.504-.821.504-.457 0-1.744 1.225-1.533 1.458.106.118.055.135-.115.038-.352-.202-3.056 2.695-2.84 3.044.075.122-.049.223-.275.223a.418.418 0 0 0-.413.42c0 .233-.235.72-.522 1.086-.287.365-.599 1.07-.692 1.566-.093.496-.274.967-.403 1.047-.13.08-.235 1.628-.235 3.44 0 2.44.132 3.772.51 5.134.487 1.758 1.23 3.155 1.688 3.173.118.005.144.122.059.26-.148.24.954 1.478 2.18 2.45.778.616 2.71 1.532 3.233 1.532.234 0 .54.108.678.241.912.876 7.674 1.002 10.04.188zm-389.203 4.74a77.36 77.36 0 0 0-1.852-.565c-1.47-.436-3.054-1.29-3.263-1.759-.048-.109-.23-.198-.404-.198-.174 0-.492-.253-.706-.562a9.066 9.066 0 0 0-.688-.875c-.164-.172-.68-1.08-1.145-2.018-.466-.938-.957-1.911-1.091-2.164-.145-.274-.243-18.601-.243-45.467v-45.007l14.618.119c14.426.117 16.753.243 21.1 1.139 2.617.539 6.287 1.682 8.191 2.55.94.43 1.914.795 2.165.814.25.02.394.135.318.258-.076.123.23.363.68.532.45.17.817.402.817.516 0 .113.125.206.276.206.152 0 .907.477 1.678 1.059.77.582 1.56 1.058 1.753 1.058.192 0 .281.07.197.154-.085.084.342.59.948 1.124.606.534 1.242 1.158 1.414 1.386.172.229.678.807 1.124 1.285.447.478.812.967.812 1.087s.168.386.373.59c.807.808 2.506 4.69 3.095 7.074.499 2.017.618 3.193.605 5.953-.016 3.22-.547 7.028-1.18 8.467-.487 1.106-1.335 3.563-1.256 3.638.046.044-.07.255-.256.47-.186.214-.853 1.164-1.482 2.11-.628.945-1.814 2.434-2.635 3.307-.821.873-1.494 1.677-1.495 1.786-.001.109-.18.198-.399.198-.218 0-.397.12-.397.265a.271.271 0 0 1-.276.264c-.152 0-.598.307-.992.682-.394.376-.991.792-1.327.926-.366.146-.535.366-.422.55.113.183.073.234-.1.127-.266-.164-1.975.624-2.558 1.18-.138.132-.467.24-.731.24-.264 0-.687.105-.94.233-.252.129-.816.383-1.253.565-1.656.69-2.122.928-2.298 1.174-.181.253.549 1.732.856 1.732.09 0 .164.156.164.348 0 .191.239.697.531 1.124.293.427.878 1.312 1.3 1.967.423.655.843 1.25.933 1.323.09.073.467.728.837 1.455.37.728.899 1.561 1.174 1.852.276.292.513.63.526.752.013.122.274.51.58.862.306.352.557.71.557.795 0 .195 2.93 4.616 3.364 5.076.177.187.53.693.785 1.124.254.431.563.784.686.784.123 0 .162.1.086.221-.075.122.266.648.757 1.169.491.52.823 1.016.738 1.101-.085.085.004.155.198.155s.281.072.194.16c-.088.087.272.772.799 1.52.527.75 1.544 2.226 2.26 3.281.717 1.055 1.409 1.918 1.539 1.918.13 0 .235.186.235.413 0 .39 1.418 2.408 1.985 2.824.145.107.157.196.026.199-.132.002.017.226.33.498.314.272.57.58.57.684 0 .181 1.56 2.513 1.866 2.79.08.073.418.58.75 1.125.33.546.711.992.845.992s.243.138.243.307c0 .248 1.426 2.304 2.448 3.53.452.541 2.05 3.164 2.05 3.364 0 .57-7.3.078-8.864-.597a26.297 26.297 0 0 0-1.587-.58c-1.259-.42-3.927-1.923-4.377-2.465-.175-.211-.452-.387-.616-.391-.787-.02-6.528-6.532-6.325-7.174.03-.094-.234-.48-.585-.86-.352-.38-.556-.692-.454-.694.102-.002.054-.092-.108-.199-.161-.106-.501-.6-.755-1.095-.255-.496-.574-1.032-.71-1.19-.135-.16-.926-1.374-1.757-2.7-.831-1.325-1.782-2.754-2.113-3.175-.33-.42-1.159-1.718-1.84-2.882-.68-1.164-1.315-2.176-1.411-2.249-.096-.073-.37-.513-.608-.979-.239-.466-.623-.953-.854-1.082-.232-.13-.411-.344-.4-.476.02-.227-3.072-5.162-3.668-5.853-.152-.177-.414-.623-.582-.993-.169-.369-.413-.671-.544-.671-.13 0-.17-.109-.088-.242.082-.133.054-.282-.062-.33-.116-.05-.484-.536-.817-1.082-.333-.545-.722-.992-.864-.992-.143 0-.185-.119-.095-.264.09-.146.03-.265-.133-.265-.162 0-.233-.102-.156-.226.077-.124-.154-.502-.513-.84-.36-.338-.654-.777-.654-.976 0-.378-.345-.872-1.124-1.607-.255-.24-.463-.592-.463-.781 0-.19-.315-.82-.7-1.402-.385-.582-.653-1.094-.596-1.138.34-.26 2.597-.967 3.083-.967.318 0 1.235-.301 2.039-.668.803-.368 1.519-.668 1.592-.668.237 0 4.753-2.394 4.895-2.595.076-.108.555-.484 1.064-.835 1.027-.709 4.498-4.058 4.498-4.34 0-.098.298-.477.661-.84.364-.364.662-.767.662-.896 0-.128.163-.396.362-.596.505-.505 1.283-2.055 1.034-2.06-.113-.002-.054-.1.131-.218.186-.118.391-.443.457-.724.065-.28.505-1.581.976-2.89.81-2.251.858-2.585.865-6.086.006-3.186-.079-3.963-.61-5.556-.961-2.889-1.98-4.87-2.818-5.486-.146-.107-.171-.197-.056-.199.115-.002.083-.153-.071-.335-.154-.182-.525-.628-.824-.992-2.024-2.459-5.551-5.366-6.524-5.376-.182-.002-.274-.06-.205-.13.07-.069-.437-.426-1.124-.793-1.628-.869-4.292-1.914-4.297-1.685-.002.099-.092.05-.199-.108-.277-.41-1.84-.904-2.864-.904-.479 0-.934-.103-1.012-.229-.33-.534-5.725-1.113-11.776-1.263-4.414-.11-5.095-.075-4.828.247.237.285.295 11.582.245 47.046l-.067 46.671-.794.052c-.437.028-.913.009-1.058-.044zM2.7 363.687c-.066-.067-.743-.15-1.504-.184-.76-.035-1.382-.142-1.382-.239 0-.096-.47-.316-1.042-.487-1.58-.473-3.972-2.47-5.116-4.27-1.52-2.39-1.51-2.247-1.607-22.225-.078-15.887-.15-18.658-.526-20.373-.24-1.091-.517-2.163-.615-2.38-.21-.47-.197-.43-.457-1.522-.112-.473-.314-.86-.448-.86s-.22-.09-.191-.199c.093-.352-.345-1.389-.587-1.389-.129 0-.43-.41-.667-.912-.726-1.53-4.884-4.908-6.041-4.908-.192 0-.732-.192-1.2-.425-1.608-.802-3.817-1.144-7.455-1.154-1.976-.005-3.673.07-3.77.168-.098.097-.624.222-1.17.276-.545.055-1.467.319-2.049.587-.582.269-1.444.614-1.915.768-.887.289-3.31 1.835-3.465 2.212-.048.117-.218.213-.376.213-.247 0-2.422 2.161-3.627 3.604-.836 1-2.667 3.881-2.545 4.003.07.071-.032.29-.23.488-.382.382-1.988 4.38-2.116 5.267a4.965 4.965 0 0 1-.233.926c-.274.687-.934 4.817-1.08 6.747-.076 1.018-.143 9.561-.148 18.984l-.008 17.131h-1.72c-.97 0-1.72-.115-1.72-.264 0-.146-.267-.267-.594-.27-.328-.004-.893-.24-1.257-.524-.364-.285-.78-.52-.926-.525-.536-.015-2.677-2.314-3.704-3.978l-1.059-1.715-.132-28.178c-.073-15.498-.089-28.386-.035-28.641.077-.37.376-.463 1.477-.463.76 0 1.46.079 1.556.176.334.334 2.788 1.094 2.98.922.106-.094.107-.023.003.159-.105.182-.06.33.101.33s.593.3.96.667c.366.367.795.586.954.488.173-.106.213-.055.1.128-.104.168-.082.305.049.305.13 0 .376.304.546.676.17.372.43.602.578.51.148-.092.243-.069.21.051-.092.342.324 1.409.55 1.409.111 0 .213.149.227.33.014.182.207.808.43 1.39.222.582.41 1.921.416 2.976.006 1.055.081 1.918.167 1.918.24 0 1.148-1.154 1.158-1.47.011-.34.984-1.55 2.92-3.63.8-.859 1.562-1.79 1.694-2.067.13-.278.416-.505.632-.505.217 0 .736-.358 1.153-.794.417-.437.82-.794.894-.794.074 0 .639-.327 1.254-.726.616-.399 1.508-.913 1.984-1.142.475-.229.807-.473.739-.542-.07-.069.09-.141.354-.161.264-.02 1.003-.267 1.642-.55 1.33-.588 2.342-.888 5.597-1.661 2.061-.49 2.877-.535 7.408-.416 5.323.14 7.117.3 8.002.712.481.224 2.819.896 4.3 1.236.327.075.594.228.594.34 0 .111.209.273.463.358 1.62.546 3.8 2.215 5.803 4.444.608.677 1.193 1.154 1.3 1.059.105-.095.107-.025.003.155-.11.19.206.846.751 1.56.518.677.94 1.443.94 1.703s.158.63.351.823c.437.437 1.386 4.174 1.75 6.897.334 2.484.4 47.017.07 47.346-.122.122-.276.167-.342.1zm-252.27-.892c-.138-.116-.727-.37-1.31-.565a25.255 25.255 0 0 1-2.164-.869c-.609-.283-1.288-.54-1.509-.573-.22-.032-.625-.261-.898-.508-.273-.248-.696-.45-.939-.45s-.444-.09-.446-.198c-.002-.11-.598-.49-1.323-.846-.726-.356-1.32-.714-1.32-.795 0-.082-.334-.297-.743-.478-.41-.18-.975-.54-1.257-.799-.282-.259-.93-.76-1.439-1.114-.509-.353-1.081-.856-1.271-1.117-.19-.26-.538-.474-.772-.474-.234 0-.352-.074-.262-.164.09-.09-.68-1.008-1.714-2.039-1.033-1.03-2.28-2.505-2.774-3.275-.493-.77-1.031-1.4-1.196-1.4-.166 0-.226-.075-.135-.167.157-.156-.495-1.666-.842-1.95-.3-.246-1.75-3.238-1.683-3.472.036-.128-.053-.233-.199-.233-.145 0-.238-.089-.205-.198.032-.11-.138-.794-.378-1.521-.579-1.75-1.342-5.886-1.145-6.204.187-.304 5.258 1.426 6.267 2.137.386.272.867.495 1.069.495.2 0 .736.327 1.189.727.628.556 1.02 1.348 1.659 3.354.882 2.77 1.196 3.491 1.773 4.068.195.195.355.516.355.712 0 .503 2.383 3.985 2.672 3.905.131-.037.208.035.172.158-.21.711 5.731 6.655 6.651 6.655.162 0 .294.099.294.22 0 .12.328.385.728.587.4.202 1.225.698 1.834 1.103.608.405 1.222.736 1.364.736.3 0 1.366 3.234 1.366 4.145 0 .468-.148.617-.609.617-.334 0-.721-.095-.86-.21zm26.561-.003c-.645-.075-.686-.147-.481-.86.122-.428.178-.779.123-.779-.056 0 .067-.401.272-.892.205-.49.303-.962.218-1.047-.085-.085.277-.36.805-.612.527-.251.959-.554.959-.673 0-.118.27-.215.603-.215.331 0 .774-.238.984-.53.21-.29.484-.529.609-.529 1.058 0 7.364-5.686 8.289-7.474.23-.445.655-1.06.944-1.364.686-.725 2.087-3.486 1.876-3.697-.09-.09-.035-.165.124-.165.158 0 .427-.446.596-.992.17-.545.53-1.485.802-2.087.271-.602.521-1.562.555-2.134.046-.777.281-1.255.938-1.903.483-.476.877-.789.877-.695 0 .094.785-.253 1.745-.772.959-.518 1.947-.942 2.196-.942.248 0 .565-.099.703-.22.241-.21 2.211-.838 2.634-.838.361 0-.131 3.837-.683 5.315-.293.788-.785 2.144-1.092 3.014-.307.87-.718 1.741-.914 1.937-.195.195-.355.466-.355.6 0 .533-.053.66-.457 1.106-.23.255-.332.463-.227.463.106 0 .035.175-.157.388-.776.86-1.025 1.2-.879 1.2.084 0 .027.149-.127.33-1.035 1.224-1.33 1.642-1.47 2.083-.087.273-.336.497-.553.497-.217 0-.337.094-.267.208.07.114-.219.484-.644.822-.424.338-.706.72-.626.85.08.13-.016.237-.214.237-.493 0-2.111 1.705-1.858 1.958.111.111.084.179-.062.15-.561-.114-.95.02-.794.273.09.146-.029.265-.264.265-.256 0-.352.123-.24.305.11.177.074.234-.085.137-.15-.094-.734.19-1.297.631-1.684 1.318-1.831 1.425-2.5 1.82-.352.209-.977.55-1.388.757-.41.207-.81.542-.888.745-.078.202-.426.367-.774.367-.349 0-.633.106-.633.236s-.536.393-1.191.587c-.655.193-1.19.444-1.19.558 0 .114-.235.207-.522.207-.286 0-.945.238-1.463.53-.518.29-1.107.528-1.309.528-.202 0-.406.09-.455.199-.048.109-.405.161-.793.117zm-28.1-60.244c-.564-.498-1.1-.884-1.191-.858-.386.109-2.134-1.921-1.986-2.306.085-.223.244-.35.353-.282.109.067.424-.05.7-.258.276-.21.836-.384 1.245-.388.493-.006.68-.112.554-.314-.104-.17-.073-.235.07-.147.14.088 1.201-.132 2.355-.488s2.36-.647 2.678-.647c.32 0 .644-.105.723-.232.15-.242.588-.302 6.701-.908 3.126-.31 4.4-.318 7.452-.044 2.024.181 3.8.403 3.945.493.145.09.756.183 1.357.206.602.024 1.155.142 1.23.264.075.121.389.22.697.22.601 0 4 .967 4.763 1.355.252.128.595.233.762.233.167 0 .7.246 1.186.546.775.479.844.608.563 1.058-.176.282-.448.513-.604.513-.156 0-.626.357-1.044.793-.418.437-.862.794-.987.794s-.548.298-.94.662c-.881.817-.96.817-2.507-.006-.69-.368-1.255-.592-1.255-.499 0 .093-.267.001-.595-.204-.697-.437-3.675-1.372-5.755-1.806-1.655-.346-7.968-.217-10.45.214-1.563.27-4.2 1.12-4.543 1.464-.097.097-.374.176-.616.176s-1.026.297-1.742.66c-.716.363-1.48.656-1.699.65-.218-.005-.857-.416-1.42-.914zm277.042-23.314c-.305-.305-.22-1.169.154-1.542.189-.189 1.111-.412 2.05-.497 2.95-.264 6.602-1.273 6.602-1.824 0-.114.22-.207.488-.207s.703-.239.967-.53c.263-.29.646-.529.85-.529.204 0 .298-.119.208-.264-.09-.146.012-.265.227-.265.214 0 .727-.37 1.14-.821a43.973 43.973 0 0 1 1.328-1.39c.318-.312.615-.727.661-.921.046-.195.387-.689.759-1.097.371-.408.892-1.439 1.157-2.291.265-.852.585-1.753.71-2.001.124-.249.303-.933.397-1.522.14-.875.094-1.07-.252-1.07-.232 0-.687.358-1.01.794-.322.437-.695.794-.829.794-.133 0-.736.327-1.34.728-1.227.814-1.88 1.138-3.61 1.786-3.458 1.297-3.474 1.3-7.552 1.272-3.711-.026-4.147-.083-6.431-.848-1.348-.452-2.622-.821-2.832-.821-.21 0-.382-.117-.382-.26 0-.143-.293-.333-.65-.423-.359-.09-.79-.33-.96-.534-.169-.204-.502-.37-.74-.37s-.582-.239-.764-.53c-.182-.291-.444-.53-.583-.53-.431 0-3.527-3.256-4.541-4.776a15.38 15.38 0 0 1-2.328-11.11c.377-2.13.412-2.302.512-2.502.036-.072.088-.221.115-.33.155-.626.987-2.245 1.829-3.56 1.611-2.515 4.294-4.952 6.859-6.23 1.241-.618 2.454-1.124 2.696-1.124.275 0 .368-.123.248-.331-.105-.182-.106-.256-.003-.163.103.092.628.058 1.167-.076 4.184-1.038 7.87-1.243 11.297-.628 3.207.576 3.494.666 5.63 1.765 1.091.56 2.12 1.02 2.286 1.02.165 0 .492.208.726.463.234.255.945.953 1.58 1.552.636.6 1.334 1.358 1.552 1.686.219.329.534.74.701.916.45.473 1.887 3.395 2.375 4.832 1.011 2.979 1.368 8.142.9 13.015l-.406 4.259c-.151 1.6-2.629 7.682-3.597 8.83-.138.164-.723.834-1.299 1.489-.576.655-1.05 1.28-1.051 1.389-.003.109-.177.198-.388.198a.791.791 0 0 0-.595.334c-.4.63-2.272 1.697-5.172 2.947-1.642.708-3.786 1.192-6.549 1.48-1.237.13-2.67.308-3.183.397-.514.089-1.02.076-1.125-.029zm6.689-14.133c1.091-.29 2.115-.56 2.275-.6.16-.04.603-.276.983-.526s.793-.453.916-.453.461-.209.751-.463c.29-.255.76-.6 1.043-.77.283-.168.484-.436.448-.595-.036-.159.113-.289.33-.289.22 0 .398-.119.398-.264 0-.146.154-.265.343-.265.19 0 .636-.473.993-1.051.356-.578.72-1.055.807-1.059.221-.01 1.758-3.403 1.98-4.372.338-1.473.423-5.837.143-7.352-.288-1.557-1.308-3.969-2.262-5.348-1.096-1.585-4.457-4.63-5.11-4.63-.346 0-.565-.106-.485-.234.13-.212-.129-.35-1.833-.967a7.368 7.368 0 0 0-1.274-.29c-.409-.052-.967-.215-1.239-.361-1.017-.544-6.88-.048-6.88.582 0 .116-.24.211-.533.211-.293 0-.74.11-.992.243-.253.133-.893.43-1.423.66-.53.23-1.032.597-1.116.816a.67.67 0 0 1-.58.398c-.48 0-2.27 1.728-2.035 1.964.084.084.005.153-.175.153-.359 0-.944.508-1.066.926-.042.145-.473.86-.957 1.59-2.028 3.055-2.564 7.943-1.32 12.036.375 1.237.8 2.288.942 2.337.143.048.26.234.26.413 0 .179.242.585.539.904.296.318.472.579.39.579-.165 0 1.215 1.577 2.245 2.565.364.35 1.078.833 1.588 1.075.509.243 1.084.595 1.277.783.512.5 1.36.918 2.42 1.194.513.134 1.528.403 2.256.598 1.896.508 3.682.467 5.953-.138zm18.31 13.415c.114-.835.673-1.138 2.46-1.334 4.483-.492 6.787-1.396 9.829-3.858 2.694-2.18 5.14-6.48 5.548-9.754.085-.681.232-7.311.326-14.733.138-10.826.246-13.637.545-14.22.205-.401.48-.728.61-.728.132 0 .165-.12.075-.265-.09-.146-.026-.265.142-.265.168 0 .634-.234 1.036-.52.401-.286 1.223-.598 1.826-.695l1.097-.175v15.118c0 8.316-.102 15.326-.226 15.579-.125.252-.625 1.71-1.11 3.237-.487 1.528-.97 2.839-1.076 2.913-.105.074-.23.308-.279.519-.09.399-.188.553-.952 1.504a21.43 21.43 0 0 0-.855 1.157c-.218.323-.54.736-.715.92-.175.183-.244.406-.154.496.09.09-.033.164-.274.164-.389 0-.742.225-1.871 1.19-.436.374-1.717 1.133-2.807 1.665-.509.249-.965.542-1.014.65-.048.11-.352.2-.675.2-.322 0-.7.1-.837.221-.139.122-.966.373-1.84.557-.872.184-1.825.433-2.116.552-.291.12-1.934.276-3.651.348-3.086.13-3.121.124-3.043-.443zm-227.916-11.158c-.042-.29-.045-11.989-.007-25.995l.068-25.466h.791c.436 0 .792.132.792.293 0 .16.184.222.41.135.226-.087.345-.052.266.077-.08.13.242.575.716.991.473.416 1.157 1.232 1.52 1.813l.66 1.056.132 22.358.132 22.357 5.16.066c2.837.036 17.482-.028 32.543-.143l27.385-.207 1.261-.617c.694-.34 1.685-1.04 2.201-1.556.997-.997 2.314-3.32 2.038-3.596-.09-.09-.034-.165.125-.165.606 0 .828-3.104.936-13.097.128-11.866.119-11.815 2.278-12.863 2.277-1.105 2.361-1.128 2.793-.77.354.294.406 1.882.406 12.41 0 9.27-.085 12.47-.366 13.791-.414 1.947-1.159 3.932-1.67 4.45-.19.193-.345.46-.345.592 0 .291-2.37 2.631-2.665 2.631-.115 0-.365.15-.557.334-.193.183-1.183.63-2.202.992l-1.852.658h-36.437c-36.235 0-36.437-.003-36.512-.529zm93.133 0c-.042-.29-.045-11.989-.007-25.995l.069-25.466h.769c.423 0 .809.09.857.198.049.11.51.513 1.024.897.515.384 1.288 1.207 1.72 1.829l.784 1.131.132 22.513.132 22.512 13.494-.008c35.15-.022 51.909-.16 53.178-.435 1.493-.325 2.353-.809 3.31-1.861 1.1-1.208 1.352-1.532 1.192-1.532-.085 0 .084-.255.374-.566.29-.312.791-1.294 1.113-2.183.558-1.543.589-2.075.67-11.67.093-11.097.153-11.975.891-12.913.545-.693 1.984-1.472 3.088-1.672.373-.067.812-.147.975-.178.215-.04.317 3.34.372 12.249.075 12.342-.052 14.747-.876 16.536-.201.437-.4.968-.444 1.18-.104.514-.247.716-1.568 2.212-1.214 1.376-2.575 2.275-4.783 3.16l-1.4.562-37.495.015c-37.299.015-37.495.012-37.57-.514zm-16.056-44.554c-1.75-.932-2.323-3.104-1.35-5.118.412-.854.456-1.147.199-1.328-.21-.146-.112-.17.264-.064.35.099.595.051.595-.115 0-.178.836-.282 2.265-.282 1.661 0 2.213.082 2.073.31-.127.206-.049.254.235.145.3-.115.383-.05.28.22-.08.21-.028.383.118.383.326 0 .588.605.858 1.976.206 1.05-.266 2.823-.92 3.451-1.02.98-3.196 1.18-4.617.422zm84.566-.359c-1.804-1.562-1.865-4.115-.14-5.764.743-.71.987-.783 2.568-.776 1.07.005 1.934.151 2.232.376.768.583 1.499 2.17 1.499 3.257 0 1.208-.766 2.746-1.546 3.102-.314.144-.57.352-.57.463 0 .111-.687.202-1.525.202-1.34 0-1.645-.104-2.518-.86zm10.063.517c-.399-.158-.794-.502-.878-.766-.083-.263-.25-.478-.372-.478-.121 0-.36-.58-.53-1.289-.35-1.46-.043-2.5 1.124-3.805.585-.655.824-.727 2.403-.727 1.911 0 2.748.455 3.502 1.905.572 1.099.478 3.18-.18 4.018-1.093 1.388-3.228 1.87-5.069 1.142z" id="path82" fill="#fff"/><path d="M-515.577-1.76l-4.32-.073.177-.801c.096-.44.76-1.99 1.474-3.442.715-1.453 1.3-2.816 1.3-3.03 0-.213.118-.387.264-.387.145 0 .265-.181.265-.403 0-.221.476-1.35 1.058-2.507.582-1.158 1.058-2.287 1.058-2.508 0-.222.12-.403.265-.403.145 0 .264-.238.264-.53 0-.29.12-.528.265-.528.145 0 .265-.182.265-.404 0-.222.41-1.22.913-2.217.502-.998.84-1.888.75-1.978-.09-.09-.025-.164.145-.164.17 0 .308-.18.308-.402 0-.221.53-1.457 1.178-2.747.648-1.29 1.104-2.418 1.014-2.508-.09-.09-.024-.164.145-.164.17 0 .309-.238.309-.529 0-.29.12-.529.265-.529.145 0 .264-.177.264-.394 0-.217.704-1.854 1.565-3.638 3.086-6.4 4.256-8.969 4.256-9.344 0-.21.139-.382.309-.382.17 0 .24-.068.157-.152-.083-.083.452-1.363 1.19-2.844.738-1.48 1.342-2.842 1.342-3.023 0-.182.1-.331.221-.331s.197-.09.168-.199c-.095-.36.348-1.389.6-1.389.135 0 .246-.181.246-.403 0-.222.411-1.22.914-2.218.502-.997.84-1.887.75-1.977-.09-.09-.044-.164.104-.164s.47-.447.716-.992l.447-.993 5.745.037 5.744.036.851 1.684c1.048 2.073 3.89 8.058 5.76 12.134a694.182 694.182 0 0 0 2.645 5.689c.688 1.455 2.146 4.55 3.242 6.879 1.095 2.328 2.974 6.317 4.175 8.863a725.379 725.379 0 0 1 2.844 6.086c.363.8 1.337 2.884 2.164 4.63.828 1.746 2.053 4.335 2.723 5.753.67 1.419 1.167 2.631 1.103 2.695-.063.063-2.257.143-4.874.177l-4.758.061-.71-1.295c-.391-.712-.665-1.342-.608-1.398.056-.057-.072-.277-.284-.49-.213-.212-.32-.496-.237-.63.083-.133.024-.243-.13-.243s-.28-.238-.28-.53c0-.29-.119-.528-.264-.528-.146 0-.265-.181-.265-.402 0-.22-.597-1.591-1.326-3.045l-1.327-2.643-16.05.068-16.05.069-1.696 3.704a451.71 451.71 0 0 0-2.443 5.416c-.553 1.266-.909 1.749-1.367 1.852-.34.077-2.563.107-4.938.067zm39.376-17.888c0-.358-1.127-2.953-1.34-3.085-.16-.1-.275-.286-.254-.416.04-.242-1.033-2.743-2.37-5.526-2.078-4.327-2.386-5.015-2.386-5.339 0-.192-.126-.35-.28-.35-.154 0-.213-.11-.13-.243.083-.134-.03-.423-.249-.643-.22-.22-.4-.529-.4-.688 0-.158-.59-1.477-1.312-2.929-.722-1.452-1.261-2.64-1.199-2.64.063 0-.448-1.161-1.136-2.58-.688-1.42-1.37-2.933-1.516-3.364-.254-.749-.357-.583-2.22 3.571-1.074 2.396-2.277 5.071-2.674 5.944-.397.873-1.824 4.029-3.172 7.012-1.347 2.983-2.72 6.019-3.052 6.747-1.02 2.24-1.974 4.426-1.974 4.528 0 .053 5.506.127 12.237.165 10.563.06 13.427.025 13.427-.164zm30.827 17.608c-.074-.194-.135-12.424-.135-27.177 0-25.291.026-26.836.463-27.032.255-.114 2.397-.172 4.76-.129l4.299.079.068 23.47.067 23.468 16.893.133 16.893.132v3.524c0 1.938-.056 3.58-.123 3.647-.068.068-9.782.149-21.587.18-17.668.047-21.487-.005-21.598-.295zm85.487.068c-.097-.253-.17-10.71-.161-23.239.008-12.528.012-22.986.008-23.239-.007-.428-.748-.465-10.658-.53l-10.65-.068v-3.704c0-3.364.043-3.702.464-3.672.254.019 12.012.048 26.127.067l25.665.033v7.408H-350.523V-1.82l-4.035.004c-2.22.002-4.287.071-4.594.153-.381.103-.615.004-.735-.309zm32.937-.063c-.315-.26-.339-.383-.092-.485a.575.575 0 0 0 .33-.486c0-.191.637-1.64 1.416-3.22.778-1.578 1.492-3.19 1.588-3.58.095-.39.351-.887.569-1.105.218-.218.397-.583.397-.812 0-.229.119-.416.264-.416.146 0 .265-.182.265-.404 0-.223.357-1.112.793-1.977.437-.865.794-1.704.794-1.864 0-.16.179-.469.397-.687.218-.218.473-.716.567-1.106.094-.39.565-1.498 1.046-2.463.482-.965.802-1.828.712-1.918-.09-.09-.025-.164.144-.164.17 0 .31-.238.31-.53 0-.29.118-.529.264-.529.145 0 .264-.238.264-.529 0-.29.12-.529.265-.529.145 0 .265-.163.265-.362 0-.198.595-1.572 1.322-3.052.728-1.48 1.323-2.864 1.323-3.078 0-.213.12-.387.265-.387.145 0 .265-.181.265-.403 0-.221.476-1.35 1.058-2.507.582-1.158 1.058-2.236 1.058-2.395 0-.159.18-.469.4-.688.22-.22.331-.51.248-.643-.082-.134-.017-.243.146-.243.163 0 .236-.096.164-.214-.073-.117.158-.724.513-1.349.355-.624.578-1.243.497-1.374-.08-.13-.014-.238.149-.238s.222-.12.132-.265c-.09-.145-.055-.264.077-.264s.45-.506.706-1.125c.257-.618.99-2.229 1.628-3.579.639-1.35 1.161-2.578 1.161-2.73 0-.153.18-.457.4-.676.219-.22.331-.51.248-.643-.082-.134-.024-.243.13-.243s.28-.238.28-.53c0-.29.09-.529.2-.529.175 0 .541-.873.884-2.106.059-.212.2-.51.314-.661.115-.152.353-.481.53-.733.286-.408.934-.46 5.977-.482 3.11-.014 5.76.079 5.887.206.127.127 1.464 2.844 2.97 6.039 1.506 3.194 3.22 6.82 3.808 8.056.588 1.237 1.38 2.938 1.76 3.78.38.84 1.41 3.043 2.289 4.894 2.472 5.201 2.842 5.988 4.889 10.376 1.052 2.256 2.701 5.75 3.665 7.764.964 2.014 1.752 3.7 1.752 3.746 0 .047.958 2.08 2.128 4.52 1.17 2.439 2.092 4.608 2.05 4.82-.063.318-.908.39-4.898.417l-4.822.032-.16-.727c-.088-.4-.27-.728-.404-.728s-.244-.181-.244-.402c0-.221-.53-1.458-1.177-2.747-.648-1.29-1.104-2.419-1.015-2.508.09-.09.025-.164-.145-.164-.17 0-.308-.238-.308-.529 0-.291-.127-.53-.28-.53-.155 0-.213-.109-.13-.242.082-.134-.03-.423-.25-.643-.22-.22-.399-.586-.399-.815 0-.229-.119-.416-.264-.416-.146 0-.265-.175-.265-.389 0-.338-2.081-.39-15.844-.4-8.714-.006-16.037.062-16.272.152-.235.09-.428.26-.428.375 0 .115-.463 1.204-1.03 2.419a427.107 427.107 0 0 0-2.272 4.987c-.683 1.528-1.32 2.86-1.417 2.959-.097.1-2.248.218-4.78.264-3.512.064-4.706.001-5.027-.263zm43.705-17.676c.09-.09-.426-1.337-1.146-2.773-.72-1.435-1.31-2.79-1.31-3.012 0-.22-.126-.401-.28-.401-.154 0-.213-.11-.13-.243.083-.134-.03-.423-.249-.643-.22-.22-.4-.586-.4-.815 0-.229-.118-.416-.264-.416-.145 0-.264-.182-.264-.406 0-.223-.298-.993-.662-1.71-.364-.719-.661-1.422-.661-1.564 0-.142-.641-1.605-1.425-3.25-.783-1.646-1.572-3.379-1.752-3.852-.18-.473-.432-.86-.56-.86-.127 0-.232-.184-.232-.41 0-.225-.238-.902-.53-1.504-.29-.603-.528-1.252-.528-1.443 0-.19-.09-.347-.2-.347-.11 0-.357-.387-.548-.86-.968-2.39-1.492-3.376-1.748-3.291-.244.08-2.995 5.912-5.827 12.353-.48 1.092-1.2 2.7-1.598 3.572-.4.873-1.258 2.778-1.908 4.234-.65 1.455-1.544 3.42-1.987 4.365-.442.946-.969 2.107-1.17 2.58l-.367.86h12.791c7.036 0 12.866-.074 12.955-.164zm30.953 17.814c-.443-.199-.468-1.633-.468-27.183 0-20.47.075-27.003.312-27.094.242-.093 12.615-.24 14.026-.167.173.01 1.228 1.822 2.344 4.029 1.115 2.206 2.235 4.379 2.487 4.828.252.45 2.04 3.913 3.974 7.696 1.933 3.784 4.141 8.07 4.906 9.525a1313.51 1313.51 0 0 1 6.902 13.336c1.295 2.532 2.394 4.408 2.44 4.167.048-.24.196-.437.331-.437s.246-.187.246-.416c0-.229.184-.6.41-.826.225-.225.478-.752.562-1.171.083-.42.256-.762.384-.762.127 0 .231-.238.231-.53 0-.29.12-.529.265-.529.145 0 .264-.238.264-.529 0-.29.09-.529.2-.529.212 0 1.014-1.647.887-1.822-.04-.057.043-.176.185-.265.142-.089 1.593-2.781 3.224-5.983 1.631-3.201 3.716-7.249 4.634-8.995.918-1.746 1.62-3.253 1.56-3.35-.06-.098-.01-.217.111-.266.122-.049.852-1.339 1.623-2.867s1.506-2.818 1.633-2.866c.127-.049.23-.259.23-.467 0-.374.515-1.438.82-1.694.087-.073.236-.451.331-.841.095-.39.352-.888.57-1.106.218-.218.396-.529.396-.691 0-.162.132-.438.293-.614.16-.176.964-1.616 1.786-3.201l1.493-2.882 7.143.05c3.928.026 7.232.139 7.343.25.11.11.17 12.338.134 27.174l-.068 26.973-4.233.075c-2.328.042-4.471.017-4.763-.054-.524-.13-.528-.329-.477-22.433.048-21.026.025-22.267-.397-21.666-.247.35-1.705 3.088-3.24 6.085a1685.718 1685.718 0 0 1-4.795 9.285c-1.102 2.11-3.046 5.86-4.32 8.335-1.275 2.473-2.884 5.569-3.576 6.879a814.55 814.55 0 0 0-3.952 7.668c-1.482 2.907-2.816 5.432-2.963 5.61-.187.224-1.587.347-4.572.402l-4.304.078-1.006-2.05c-.553-1.128-1.127-2.051-1.274-2.051-.148 0-.195-.074-.105-.164.182-.182-1.588-3.846-1.98-4.096-.136-.087-.287-.325-.335-.529-.235-.993-.49-1.561-.702-1.561-.129 0-.234-.228-.234-.507s-.095-.547-.21-.595c-.116-.049-.79-1.22-1.497-2.602-.707-1.383-1.386-2.553-1.51-2.602-.122-.048-.222-.263-.222-.476 0-.48-.735-1.928-1.228-2.42-.2-.201-.297-.475-.214-.609.082-.134.017-.243-.146-.243-.163 0-.222-.12-.132-.265.09-.145.061-.264-.064-.264s-.691-.953-1.26-2.117c-.567-1.164-1.146-2.117-1.287-2.117-.14 0-.181-.074-.091-.164.155-.155-1.013-2.724-1.368-3.01-.09-.073-.202-.312-.25-.53-.047-.218-.196-.436-.33-.485-.135-.048-.245-.316-.245-.595 0-.28-.12-.507-.265-.507-.145 0-.264-.229-.264-.507 0-.28-.105-.547-.233-.596-.128-.048-.857-1.338-1.62-2.866-.762-1.528-1.491-2.818-1.62-2.867-.13-.049-.167-.198-.085-.33.082-.134.023-.243-.13-.243-.155 0-.28-.238-.28-.529 0-.29-.101-.529-.224-.529-.122 0-.688-.957-1.257-2.127-1.53-3.149-1.539-3.165-1.762-3.165-.113 0-.2 9.898-.193 21.996.007 12.098-.036 22.045-.097 22.106-.21.21-8.364.216-8.832.007zm122.518-.055c-.302-.222-.35-4.694-.29-27.253l.07-26.987 7.012-.132c3.856-.073 7.162-.09 7.345-.037.184.053 1.594 2.612 3.135 5.689 1.54 3.076 2.99 5.741 3.222 5.923.232.182.336.331.23.331-.167 0 7.793 15.85 8.305 16.536.109.146 1.837 3.48 3.84 7.409s3.802 7.378 3.996 7.665c.31.456.354.465.354.066 0-.25.119-.455.265-.455.145 0 .264-.176.264-.39 0-.532 1.113-2.785 1.376-2.785.116 0 .212-.238.212-.53 0-.29.119-.529.264-.529.146 0 .265-.238.265-.529 0-.29.104-.529.232-.529s.376-.387.551-.86c.175-.473.427-1.038.56-1.257.81-1.334 2.07-3.969 1.901-3.972-.11-.002-.067-.092.097-.199.164-.107 1.28-2.159 2.478-4.56 1.2-2.4 2.285-4.405 2.414-4.454.128-.048.233-.316.233-.595 0-.279.1-.507.22-.507.243 0 1.418-2.376 1.36-2.749-.02-.129.065-.307.19-.397.405-.288 1.93-3.386 1.753-3.562-.094-.094-.012-.171.182-.171s.279-.074.189-.164c-.09-.09.01-.338.223-.55.212-.213.319-.497.236-.63-.083-.134-.039-.244.098-.244.136 0 .396-.357.577-.794.18-.436.433-.793.56-.793.129 0 .233-.18.233-.4 0-.462.537-1.493.926-1.779.146-.107.168-.196.05-.198-.24-.005 1.158-2.732 1.472-2.87.109-.05.198-.317.198-.596 0-.28.126-.507.28-.507.154 0 .213-.11.13-.244-.083-.133.03-.422.25-.642.219-.22.398-.577.398-.793 0-.217.11-.434.245-.482.135-.049.284-.262.33-.475.048-.212.184-.51.302-.661.118-.151.415-.614.661-1.03l.447-.753 7.133.038c3.924.021 7.17.074 7.214.118.044.045.08 12.273.08 27.175v27.094l-4.17.075c-2.295.042-4.41.017-4.7-.055-.525-.129-.53-.333-.49-22.366.022-12.23-.037-22.236-.132-22.234-.095.002-1.22 2.055-2.5 4.564s-3.344 6.526-4.588 8.927a3341.423 3341.423 0 0 0-5.044 9.79c-1.53 2.983-2.87 5.543-2.978 5.688-.108.146-1.714 3.229-3.57 6.852-1.855 3.623-3.647 7.076-3.982 7.673l-.61 1.085-4.386.073-4.386.072-1.36-2.718c-.748-1.495-1.466-2.758-1.595-2.807-.129-.049-.167-.198-.085-.33.083-.134.024-.243-.13-.243s-.28-.238-.28-.529c0-.29-.127-.529-.28-.529-.155 0-.213-.11-.13-.243.082-.134-.012-.405-.209-.602-.197-.197-1.225-2.082-2.284-4.189-1.058-2.106-2.04-3.902-2.18-3.991-.14-.09-.238-.268-.218-.397.059-.373-1.116-2.749-1.36-2.749-.12 0-.219-.238-.219-.529 0-.291-.094-.53-.21-.53-.115 0-.735-1.07-1.377-2.38-.642-1.31-1.269-2.382-1.393-2.382-.124 0-.158-.11-.076-.243.083-.134 0-.404-.182-.602-.184-.197-.373-.533-.42-.746-.049-.213-.228-.477-.398-.585-.17-.108-.217-.199-.104-.2.25-.006-.529-1.557-1.036-2.064-.2-.2-.303-.464-.228-.586.075-.12.038-.26-.082-.309-.12-.049-.971-1.577-1.893-3.396-.92-1.819-1.786-3.38-1.923-3.47-.136-.088-.253-.267-.259-.396-.017-.365-.283-1.014-.475-1.161-.096-.073-.747-1.293-1.447-2.712-.7-1.419-1.377-2.58-1.503-2.58-.127 0-.225 9.794-.22 21.999.005 12.099-.039 22.046-.098 22.105-.245.245-8.74.197-9.078-.05zm155.355.132c-.29-.125-1.206-.236-2.034-.246-.829-.01-1.58-.138-1.67-.283-.09-.146-.625-.265-1.19-.265s-1.101-.119-1.191-.264c-.09-.146-.45-.265-.801-.265-.351 0-1.062-.238-1.58-.53-.518-.29-1.117-.528-1.331-.528-.214 0-.389-.091-.389-.203 0-.11-.477-.497-1.06-.857-.584-.36-1.128-.865-1.21-1.121-.08-.256-.239-.465-.35-.465-.203 0-1.633-2.738-1.717-3.286a1.852 1.852 0 0 0-.2-.55c-.18-.307-.698-3.055-.967-5.134-.266-2.061.142-8.35.636-9.79.23-.669.465-1.454.524-1.745.058-.29.226-.568.373-.617.147-.049.267-.262.267-.473 0-.43 1.414-1.885 2.398-2.466 1.22-.72 2.604-1.34 2.997-1.34.217 0 .468-.118.558-.264.09-.145.447-.264.794-.264.346 0 .704-.12.793-.265.09-.145.693-.265 1.339-.265s1.175-.065 1.175-.144c0-.08-.598-.743-1.328-1.473-1.805-1.805-2.821-3.889-3.026-6.205-.267-3.01.59-7.756 1.6-8.873.25-.276.374-.502.275-.502-.1 0 .355-.536 1.01-1.191s1.32-1.19 1.478-1.19c.158 0 .213-.12.123-.265-.09-.146.024-.265.253-.265s.623-.105.875-.234c2.075-1.055 5.305-1.746 9.456-2.023a138.63 138.63 0 0 0 3.44-.266c1.418-.144 9.388.338 11.376.688 3.991.703 5.657 1.385 7.57 3.104 1.498 1.344 2.471 3.204 3.01 5.747.483 2.278.537 7.558.083 8.012-.221.221-1.628.318-4.625.318-5.04 0-4.527.452-4.663-4.101-.098-3.25-.23-3.946-.922-4.874-1.095-1.466-2.559-1.723-9.825-1.723-8.179 0-10.114.466-11.03 2.659-.435 1.039-.478 3.53-.086 4.94.271.977 2.502 3.628 3.053 3.628.148 0 .5.213.783.474.546.505 2.92 2.172 3.092 2.172.057 0 4.857 3.151 10.668 7.003l10.565 7.003.066-2.439c.109-4.03-.407-3.654 4.902-3.57l4.557.073v4.365c0 2.401-.086 5.096-.19 5.988l-.192 1.622 2.131 1.357c1.172.746 2.26 1.277 2.415 1.181.156-.096.208-.053.116.096-.093.15 1.49 1.371 3.545 2.734l3.713 2.463-2.721 2.73c-1.497 1.503-2.79 2.732-2.875 2.732-.084 0-.409-.239-.721-.53-.313-.29-.752-.529-.976-.529-.225 0-.408-.099-.408-.22 0-.12-.328-.389-.728-.595a7.059 7.059 0 0 1-1.24-.838c-.283-.255-.615-.463-.74-.463-.123 0-.48-.239-.793-.53-.312-.29-.724-.529-.915-.529-.19 0-.347-.119-.347-.264 0-.146-.178-.265-.397-.265-.218 0-.397-.12-.397-.265a.271.271 0 0 0-.275-.264c-.152 0-.533-.24-.847-.532l-.571-.532-1.072 1.023c-2.413 2.306-5.446 3.75-9.538 4.54a135.7 135.7 0 0 0-2.697.55c-1.395.305-21.457.286-22.174-.022zm19.712-6.907c.946-.15 2.085-.384 2.532-.52.447-.135 1.013-.246 1.257-.246s.444-.12.444-.265c0-.145.275-.264.612-.264.336 0 .867-.238 1.18-.53.312-.29.67-.529.795-.529.126 0 .491-.302.813-.672.723-.832.687-.876-1.931-2.345a7.153 7.153 0 0 1-.997-.71c-.264-.232-.806-.589-1.204-.794-.398-.205-.782-.441-.855-.525-.316-.364-3.437-2.362-3.69-2.362a.273.273 0 0 1-.279-.264c0-.146-.179-.265-.397-.265-.218 0-.397-.12-.397-.265 0-.145-.156-.264-.347-.264-.19 0-.602-.238-.915-.53-.312-.29-.692-.529-.843-.529a.271.271 0 0 1-.276-.264c0-.146-.179-.265-.397-.265-.218 0-.397-.119-.397-.264 0-.146-.178-.265-.397-.265-.218 0-.396-.119-.396-.264 0-.146-.212-.265-.471-.265-.26 0-.643-.238-.852-.53-.21-.29-.534-.528-.72-.528-.186 0-.339-.12-.339-.265 0-.145-.238-.265-.529-.265-.291 0-.53-.119-.53-.264 0-.146-.168-.265-.374-.265s-.414-.096-.463-.214c-.127-.309-2.513-1.902-2.848-1.902-.155 0-.283-.12-.283-.265 0-.145-.178-.265-.397-.265-.218 0-.397-.119-.397-.264 0-.146-.178-.265-.396-.265-.219 0-.397-.119-.397-.264 0-.146-.179-.265-.397-.265-.218 0-.397-.119-.397-.264 0-.454-2.148-.276-4.56.376-4.341 1.175-5.233 2.002-5.725 5.312-.529 3.554-.204 8.403.722 10.768.394 1.008 1.855 2.329 2.575 2.329.334 0 .67.102.747.227.55.89 17.334 1.3 22.116.54zm77.92 6.915c-.291-.13-.997-.244-1.569-.254-.572-.01-1.405-.13-1.852-.265a62.69 62.69 0 0 0-2.003-.555c-.655-.17-1.398-.416-1.65-.547-.253-.132-.64-.24-.86-.24-.22 0-.4-.104-.4-.233 0-.128-.209-.3-.464-.38-.764-.243-1.968-1.054-2.88-1.941-.962-.936-2.74-4.275-2.931-5.506-.07-.441-.215-.922-.326-1.067-.11-.146-.33-.98-.49-1.852-.849-4.628-.979-6.87-.963-16.537.017-9.909.25-13.356 1.058-15.653.187-.532.27-1.038.184-1.124-.086-.086-.01-.156.168-.156.179 0 .255-.112.17-.25-.084-.137.258-.66.76-1.164.504-.503.844-.986.757-1.073-.087-.088-.004-.159.185-.159s.536-.216.772-.48c1.125-1.261 5.24-3.447 7.307-3.88.436-.092 1.33-.283 1.984-.425 5.84-1.27 23.173-1.665 28.707-.652 5.808 1.062 8.623 2.632 10.324 5.758 1.195 2.196 1.753 4.712 1.909 8.609.131 3.301.11 3.506-.358 3.518-.274.007-2.318.037-4.544.066-4.657.062-4.18.402-4.384-3.121-.067-1.164-.19-2.415-.272-2.778-.377-1.67-.827-2.91-1.057-2.91-.138 0-.177-.075-.087-.165.2-.2-.459-.894-.85-.894-.156 0-.284-.107-.284-.236 0-1.707-19.233-2.064-26.987-.501-.8.16-1.569.393-1.707.515-.138.122-.436.221-.661.22-.655-.003-2.028 1.787-2.509 3.27-.862 2.659-1.025 5.308-.857 13.93.089 4.584.339 9.958.556 11.944.778 7.134 1.434 8.4 4.885 9.43 3.608 1.075 5.15 1.209 13.62 1.18 12.368-.042 14.825-.605 16.456-3.769.444-.86.579-2.664.639-8.533.004-.423.403-.463 4.617-.463 5.438 0 4.863-.645 4.603 5.16-.252 5.612-1.246 8.557-3.716 11.008-1.341 1.33-3.997 2.238-8.542 2.92-2.323.347-25.738.556-26.458.235zm67.802.105c-.083-.083-1.026-.255-2.094-.382-1.07-.128-2.539-.362-3.267-.522-.727-.16-1.651-.36-2.053-.442-.402-.083-.796-.256-.876-.385-.08-.129-.425-.234-.768-.234s-.664-.09-.712-.199c-.049-.109-.684-.493-1.411-.853-.728-.36-1.595-.936-1.927-1.28-.99-1.024-2.752-4.763-3.123-6.63-.04-.2-.19-.914-.333-1.587-.902-4.238-.967-5.336-.967-16.306 0-6.112.082-11.53.182-12.039.453-2.303 1.801-6.115 2.372-6.706.196-.203.884-.98 1.529-1.726.645-.747 1.33-1.358 1.521-1.358.192 0 .349-.106.349-.236 0-.287 3.237-1.88 3.82-1.88.227 0 .413-.12.413-.265 0-.145.333-.264.74-.264.408 0 .855-.107.993-.238.138-.13.728-.306 1.31-.389 1.173-.168 3.8-.587 5.027-.801 1.86-.325 14.554-.447 18.52-.178 7.389.5 10.236 1.075 14.115 2.85 3.846 1.759 5.752 5.844 6.889 14.763.13 1.019.253 5.007.275 8.863.061 10.914-.842 17.426-3.024 21.794-1.844 3.694-5.31 5.33-13.756 6.493-2.17.3-23.459.422-23.744.137zm22.288-7.016c.51-.131 1.425-.239 2.035-.24.61 0 1.183-.12 1.273-.265.09-.146.506-.265.926-.265.42 0 .836-.12.926-.265.09-.145.34-.264.557-.264.699 0 1.568-1.153 2.066-2.742.992-3.159 1.398-8.457 1.394-18.16-.006-11.278-.424-14.026-2.44-16.041-1.295-1.296-2.354-1.67-7.064-2.49-2.43-.424-18.716-.436-21.368-.017-4.819.762-6.642 1.445-7.312 2.741-2.014 3.895-2.632 23.802-.992 31.946.868 4.307 1.632 4.96 6.848 5.865 3.728.646 20.832.791 23.151.197zm-371.292 6.732c-.1-.1-.183-12.292-.183-27.093 0-21.22.07-26.964.331-27.16.195-.147 2.148-.188 4.767-.099l4.436.151v54.24l-4.584.072c-2.521.04-4.666-.01-4.766-.11zm120.338-.689c-.084-.473-.12-12.707-.078-27.186l.075-26.326h9.26l.068 27.186.067 27.186h-9.239zm275.244.42c-.387-.106-.46-.598-.529-3.612-.044-1.919-.006-3.727.086-4.018.158-.502.362-.525 4.041-.45l3.876.08-.073 4.022-.073 4.021-3.44.04c-1.891.02-3.641-.017-3.888-.084zm-661.406-76.908c0-1.964-.073-3.76-.16-3.99-.142-.368.247-.418 3.24-.419 7.994 0 14.926-.69 14.202-1.415-.095-.094.006-.172.223-.172.523 0 2.408-4.251 2.046-4.614-.071-.07-.719.058-1.44.286-3.47 1.1-5.588 1.401-11.419 1.628-5.33.206-15.06-.045-17.937-.465-1.019-.148-2.48-.345-3.246-.438-.767-.092-1.458-.272-1.537-.399-.079-.127-.427-.231-.773-.231-.347 0-.704-.12-.794-.265-.09-.145-.447-.264-.794-.264-.346 0-.704-.12-.794-.265-.09-.145-.394-.265-.677-.265-.282 0-.513-.119-.513-.264 0-.146-.174-.265-.386-.265-.392 0-1.86-1.338-3.047-2.778-.757-.919-2.366-5.414-2.698-7.54-.69-4.418-.951-9.577-.882-17.463.065-7.507.184-9.358.794-12.424.311-1.562 2.22-5.022 3.447-6.249.644-.644 1.238-1.17 1.32-1.17.083 0 .407-.239.719-.53.312-.29.724-.53.915-.53.19 0 .347-.118.347-.264 0-.145.214-.264.476-.264s.59-.099.728-.219.787-.38 1.442-.577c.655-.197 1.31-.442 1.455-.545.145-.103.74-.255 1.323-.339a121.87 121.87 0 0 0 2.646-.424c4.823-.827 15.378-1.215 21.034-.773 13.641 1.067 17.806 3.266 19.95 10.533 1.761 5.972 2.163 17.1 1.069 29.662-.53 6.097-.551 6.04 2.397 6.647 5.044 1.036 11.837 1.403 26.061 1.407 13.085.004 18.487-.164 22.225-.69 2.636-.371 3.195-.608 3.912-1.657.507-.741.613-1.267.65-3.236.047-2.431-.198-4.138-.617-4.291-.132-.048-.24-.262-.24-.475 0-.501-1.185-1.686-1.686-1.686-.213 0-.427-.114-.475-.253-.055-.156-5.853-.3-15.038-.373-14.582-.117-17.462-.236-17.462-.723 0-.131-.29-.238-.646-.238-.355 0-.72-.12-.81-.265-.09-.145-.394-.264-.676-.264-.283 0-.514-.12-.514-.265 0-.145-.245-.265-.545-.265-.3 0-.47-.119-.38-.264.089-.146.035-.265-.12-.265s-.656-.357-1.113-.793c-.457-.437-.952-.794-1.1-.794-.148 0-.196-.074-.106-.164.09-.09.02-.324-.154-.52-.773-.865-.983-1.19-1.717-2.656-.429-.855-1.054-2.705-1.39-4.11-.57-2.387-.589-2.706-.273-4.83.186-1.252.445-2.341.576-2.422.13-.08.237-.377.237-.66 0-.282.119-.513.264-.513.146 0 .265-.187.265-.416 0-.229.149-.571.33-.761.182-.19.51-.616.728-.946.748-1.13 3.502-3.698 3.967-3.698.146 0 .267-.12.267-.265 0-.145.178-.264.396-.264.219 0 .397-.12.397-.265 0-.145.179-.264.397-.264.218 0 .397-.12.397-.265 0-.145.175-.265.389-.265.214 0 .813-.238 1.33-.529.519-.29 1.118-.529 1.332-.529.214 0 .389-.119.389-.264 0-.146.24-.265.532-.265.293 0 .77-.12 1.059-.265l1.05-.529c.29-.145.766-.264 1.06-.264.292 0 .532-.12.532-.265 0-.145.274-.265.608-.265.335 0 .722-.094.86-.21.139-.116.728-.362 1.31-.547 1.107-.351 2.065-.731 2.84-1.126.253-.128.642-.233.864-.233.222 0 .611-.105.864-.234.618-.314 1.588-.704 2.708-1.09 1.12-.384 2.09-.774 2.708-1.088.253-.129.642-.234.864-.234.222 0 .64-.12.93-.265l1.05-.529c.29-.145.708-.264.93-.264.223 0 .611-.106.864-.234.253-.129.816-.38 1.253-.56.437-.18 1-.432 1.253-.56.253-.129.641-.234.864-.234.222 0 .61-.105.863-.234.835-.424 1.766-.792 3.105-1.227 1.322-.429 2.768-1.014 3.635-1.472.253-.133.641-.242.863-.242.223 0 .641-.119.93-.264l1.051-.53c.29-.145.758-.264 1.043-.264.284 0 .59-.12.68-.265.09-.145.376-.264.636-.264.345 0 .91.924 2.1 3.436.897 1.89 1.63 3.491 1.63 3.559 0 .168-1.39.78-3.307 1.455-.873.307-1.885.69-2.25.852a24.446 24.446 0 0 1-2.91 1.11c-.654.212-1.726.587-2.38.834l-3.308 1.24c-1.164.436-2.355.89-2.646 1.007-.509.205-2.013.759-4.96 1.826-.765.277-2.402.884-3.639 1.35-1.237.465-2.844 1.06-3.572 1.322-.727.262-2.275.837-3.44 1.276-1.163.44-2.79 1.041-3.613 1.337-6.039 2.166-9.606 5.39-9.087 8.212.419 2.277 1.74 4.302 3.433 5.259.726.41 2.151.457 15.13.502 7.881.028 14.787.122 15.346.21 5.495.869 9.416 4.47 10.841 9.959.586 2.255.587 6.462.003 8.68-.898 3.412-3.251 6.82-5.417 7.848-2.927 1.39-7.41 1.55-32.985 1.181-19.103-.275-22.01-.383-22.477-.83-.138-.133-.577-.242-.976-.242-.4 0-.8-.12-.89-.265-.089-.145-.394-.264-.676-.264-.283 0-.514-.12-.514-.265 0-.145-.107-.264-.238-.264-.13 0-.375.625-.542 1.389-1.552 7.104-2.854 9.875-5.11 10.875-3.196 1.415-5.914 1.745-15.872 1.927l-7.606.139zm13.361-16.003c2.738-.392 4.792-.93 5.16-1.35.072-.084.37-.283.661-.443.89-.488 1.68-3.413 2.242-8.308.216-1.878.287-6.123.22-13.097-.091-9.34-.149-10.457-.61-11.774-.279-.8-.603-1.495-.718-1.544-.116-.049-.153-.182-.083-.297.07-.114-.107-.48-.395-.811-.288-.332-.524-.705-.524-.828s-.238-.224-.529-.224c-.291 0-.53-.09-.531-.199-.003-.265-1.308-.86-1.887-.86-.254 0-.525-.103-.604-.23-.616-.998-21.463-1.358-26.479-.458-2.392.43-4.564 1.114-5.037 1.587-1.008 1.008-1.818 4.085-2.232 8.474-.35 3.732-.35 16.417 0 20.149.353 3.743.995 6.793 1.38 6.555.188-.117.23-.02.116.274-.096.25.01.736.236 1.08.756 1.154 2.633 1.768 7.654 2.502 2.071.303 19.563.145 21.96-.198zm84.71 19.356c-.24-.241-.216-7.563.027-7.894.107-.145.73-.298 1.385-.34 1.235-.08 2.646-.567 2.646-.915 0-.11.17-.2.379-.2.208 0 .454-.237.546-.527a2.8 2.8 0 0 1 .587-.947c.23-.23.543-.916.696-1.523.179-.713.33-10.66.427-28.091.083-14.844.179-27.018.213-27.054.167-.177 7.383-.03 7.676.156.272.173.323 5.6.26 27.58-.07 25.181-.114 27.49-.541 28.95-.854 2.917-2.012 4.911-4.004 6.894-1.732 1.725-2.34 2.128-4.718 3.125-1.638.686-5.179 1.185-5.578.786zm217.528.015c-.069-.13-.153-1.932-.187-4.006l-.062-3.77 2.2-.002c4.146-.003 12.517-.526 13.576-.847 1.435-.437 2.412-1.598 3.048-3.623.292-.932.481-1.744.42-1.805-.06-.061-.688.09-1.393.336-4.055 1.415-6.97 1.723-16.363 1.726-10.04.003-13.175-.319-18.917-1.939-.51-.144-1.133-.366-1.386-.493-.253-.128-.64-.232-.86-.232-.22 0-.4-.12-.4-.265 0-.146-.238-.265-.53-.265-.29 0-.529-.119-.529-.264 0-.146-.135-.265-.3-.265-.307 0-.85-.558-1.552-1.595a8.776 8.776 0 0 0-.727-.932c-.182-.19-.331-.524-.331-.742 0-.219-.155-.554-.343-.747-.704-.717-1.74-5.057-2.293-9.61-.573-4.71-.481-21.806.132-24.606.851-3.888 1.725-5.55 4.401-8.37.535-.562 1.15-1.023 1.367-1.023.218 0 .436-.09.484-.198.084-.189 2.126-1.225 3.263-1.657 4.602-1.748 16.194-2.73 25.268-2.14 12.517.812 17.701 2.681 19.994 7.206.934 1.843 1.884 5.35 2.407 8.89.568 3.837.65 18.44.138 24.412-.872 10.156-2.505 18.49-4.298 21.93-1.354 2.598-4.592 3.845-11.759 4.527-3.966.378-14.322.642-14.468.369zm13.675-19.387c.873-.153 2.035-.355 2.582-.448.547-.094 1.06-.277 1.14-.406.08-.13.388-.235.685-.235.474 0 2.04-1.357 2.095-1.814.077-.645.25-1.283.477-1.747 1.169-2.396 1.654-28.508.556-29.91-.114-.145-.343-.77-.508-1.388-.317-1.186-1.777-2.896-2.926-3.428-.364-.168-1.257-.427-1.985-.576-.727-.149-2.037-.425-2.91-.614-2.265-.49-19.828-.48-22.754.013-4.224.712-5.952 1.475-6.592 2.912-1.332 2.992-1.85 9.121-1.668 19.725.18 10.519.8 14.725 2.374 16.092 1.073.933 3.05 1.51 6.944 2.023 2.423.32 20.44.16 22.49-.199zm62.975 19.224c-.064-.185-.15-1.975-.193-3.976l-.076-3.638h8.348l-.073 3.903-.073 3.903-3.908.073c-2.986.056-3.936-.007-4.025-.265zm12.93.01c-.107-.172-.203-1.958-.214-3.968l-.02-3.655h4.1l4.102-.001-.08 3.969-.08 3.969h-3.807c-2.65 0-3.866-.095-4.001-.314zm120.812-3.655v-3.968h4.035l4.035-.001-.08 3.969-.079 3.97h-7.911v-3.97zm12.86 3.55c-.087-.23-.16-2.016-.16-3.968v-3.55h4.168l4.167-.001-.08 3.969-.08 3.97h-3.926c-3.337 0-3.952-.064-4.088-.42zm-402.326-11.487c-.219-.141-.726-.258-1.128-.26-.403-.003-.968-.124-1.257-.27l-1.051-.528c-.29-.146-.706-.265-.926-.265-.22 0-.4-.12-.4-.265 0-.145-.15-.264-.332-.265-.44 0-2.618-1.833-3.55-2.988-.585-.724-1.865-3.493-2.41-5.213-.678-2.142-.648-.625-.615-31.684l.027-25.73h7.923l.075 27.317c.069 25.51.105 27.397.547 28.51.557 1.403 1.05 2.03 2.292 2.907.812.573 1.184.645 3.293.632 1.559-.01 2.413-.12 2.48-.322a.471.471 0 0 1 .413-.307c.356 0 2.005-1.723 2.098-2.19.034-.172.211-.473.395-.67.183-.197.271-.457.196-.579-.075-.121.014-.27.196-.331.263-.087.35-4.622.41-21.498.043-11.763.14-21.487.215-21.608.156-.252 6.987-.304 7.629-.058.384.148.422 2.14.407 21.208-.016 19.064.025 21.18.43 22.469.445 1.415 1.606 2.944 2.619 3.45 1.544.77 4.999.639 5.926-.225.294-.274.63-.498.747-.498.337 0 1.217-1.282 1.793-2.614.513-1.183.532-1.883.595-21.992.036-11.423.129-21.04.205-21.372.139-.597.172-.602 4.036-.53l3.896.074.135 21.431c.093 14.781.226 21.683.43 22.24.727 1.996 1.388 2.83 2.746 3.47 1.607.757 4.883.636 5.794-.213.291-.271.628-.494.747-.494.12 0 .392-.249.606-.553.215-.305.596-.797.847-1.093.252-.296.394-.642.315-.769-.078-.127-.033-.23.101-.23.508 0 .611-4.147.59-23.583-.021-18.166.016-20.026.403-20.175.55-.21 6.823-.213 7.372-.003.377.145.419 2.206.419 20.602 0 12.72.101 20.975.268 21.856.402 2.119 1.19 3.528 2.432 4.35.938.62 1.38.727 3.1.748 1.888.023 3.725-.445 3.725-.95 0-.11.151-.2.337-.2.185 0 .57-.446.857-.992.286-.546.593-1.052.682-1.124.687-.563.77-1.72.772-10.765.003-9.821.35-18.905.775-20.309.135-.445.394-1.344.575-2 .357-1.287 1.173-3.069 1.655-3.611.773-.871.97-1.15.808-1.15-.095 0 .406-.535 1.114-1.189.709-.653 1.427-1.189 1.597-1.19.17-.002.348-.092.397-.201.127-.286 2.318-1.39 2.759-1.39.205 0 .372-.119.372-.264 0-.146.41-.265.91-.265.501 0 .984-.119 1.074-.264.09-.146.55-.265 1.021-.265.472 0 .97-.108 1.11-.24.137-.132.846-.3 1.573-.374 6.836-.694 9.203-.833 14.023-.823 8.141.017 13.239.512 17.992 1.745 2.186.567 5.38 2.327 6.314 3.478 3.05 3.76 4.393 10.487 4.399 22.035.005 9.829-.954 16.786-2.88 20.9-1.08 2.308-2.66 3.757-5.218 4.785-2.738 1.1-3.955 1.372-9.902 2.209-2.002.282-20.979.4-21.41.134-.126-.078-1.222-.258-2.435-.4-1.213-.143-2.8-.388-3.528-.545-.728-.157-1.77-.35-2.316-.429-.545-.079-.992-.25-.992-.38s-.227-.236-.504-.236c-.496 0-2.67-1.016-2.941-1.374-.076-.1-.488-.364-.915-.586-.764-.396-.792-.386-1.853.712-.592.614-1.43 1.294-1.863 1.512-.433.218-.847.463-.92.544-.072.081-.549.302-1.058.49-.51.188-1.164.436-1.455.551-.96.379-3.328.796-4.514.796-1.453 0-5.601-.926-5.937-1.325-.073-.087-.582-.367-1.131-.622-.55-.256-1.41-.875-1.91-1.376-.5-.5-.998-.91-1.105-.91-.107 0-.557.35-1 .776-1.833 1.765-6.401 3.457-9.331 3.457-.726 0-1.664-.104-2.086-.231a44.435 44.435 0 0 0-2.223-.566c-.8-.183-1.77-.555-2.157-.826-.386-.271-.833-.493-.992-.493-.16 0-.29-.12-.29-.265 0-.145-.179-.264-.397-.264-.218 0-.397-.12-.397-.265 0-.146-.135-.265-.3-.265-.164 0-.511-.244-.77-.542-.47-.542-.472-.542-1.864.511-2.127 1.61-3.517 2.234-6.326 2.837-2.206.474-3.15.465-5.424-.05-1.019-.232-2.18-.484-2.58-.56-.4-.077-.728-.245-.728-.374s-.127-.234-.283-.234c-.374 0-2.635-1.547-3.218-2.202-.4-.448-.52-.468-.926-.149a6.7 6.7 0 0 0-.6.516c-.38.432-2.655 1.8-3.616 2.176-2.747 1.074-7.065 1.603-8.025.982zm110.199-7.568c4.453-.643 4.625-.676 4.78-.928.08-.13.36-.235.623-.235.684 0 1.873-1.283 1.873-2.02 0-.345.106-.626.235-.626.13 0 .296-.387.37-.86.073-.473.198-1.158.278-1.521.613-2.777.777-6.07.77-15.479-.006-10.799-.166-12.805-1.17-14.773-.855-1.676-1.93-2.821-2.65-2.821-.263 0-.48-.12-.48-.265 0-.145-.333-.265-.74-.265s-.854-.106-.992-.237c-1.071-1.012-20.942-1.434-25.822-.548-3.795.688-5.255 1.26-6.042 2.366-1.463 2.054-2.289 10.502-2.032 20.777.246 9.846.868 13.822 2.4 15.346 1.014 1.01 1.68 1.298 3.86 1.671 4.03.69 5.307.767 13.362.802 6.49.027 9.145-.062 11.377-.384zm207.698 7.382c-1.02-.204-2.18-.438-2.58-.52-.4-.081-.728-.253-.728-.382 0-.13-.238-.235-.529-.235-.291 0-.53-.09-.53-.2 0-.11-.334-.348-.743-.53-.41-.18-1-.567-1.312-.858-.312-.29-.638-.529-.723-.529-.086 0-.453-.297-.817-.661-.364-.364-.588-.662-.498-.662.09 0 .006-.174-.187-.387-1.172-1.3-1.69-2.236-2.512-4.534l-.748-2.09-.14-15.214c-.078-8.367-.22-15.451-.317-15.742-.096-.291-.29-.91-.432-1.377-.142-.466-.388-1.002-.549-1.19-.16-.19-.497-.583-.75-.875-.86-.998-1.877-1.317-4.085-1.285-1.886.028-2.215.113-3.206.823-1.263.907-2.152 2.094-2.6 3.476-.206.638-.378 5.233-.514 13.79-.112 7.057-.277 13.248-.365 13.757-.089.51-.288 1.7-.442 2.646-.653 4.003-1.877 6.986-3.369 8.216-1.81 1.492-4.813 2.69-8.63 3.445-4.28.846-7.652 1.064-16.354 1.058-4.92-.004-9.047-.07-9.171-.146-.125-.077-1.22-.257-2.432-.4-1.214-.142-2.802-.387-3.53-.544-.727-.157-1.769-.35-2.314-.429-.546-.078-.992-.25-.992-.38s-.18-.236-.4-.236c-.5 0-2.877-1.092-2.996-1.377-.048-.116-.316-.21-.595-.21-.28 0-.507-.115-.507-.253 0-.14-.289-.542-.642-.895-.667-.667-2.158-3.428-2.595-4.806-1.06-3.337-1.629-8.07-1.942-16.14-.177-4.573.246-15.112.659-16.404.14-.436.4-1.33.579-1.984.325-1.192 1.195-3.045 1.692-3.606.145-.164.443-.564.661-.889.66-.982 1.782-2.12 2.09-2.12.16 0 .291-.119.291-.264 0-.146.17-.265.375-.265.206 0 .415-.09.463-.198.123-.278 2.258-1.29 3.528-1.673a26.258 26.258 0 0 0 1.588-.529c.524-.208 1.022-.309 3.836-.776 2.638-.438 7.49-.843 10.583-.884l3.043-.04v6.879l-5.027.177c-8.21.29-11.818 1.08-13.137 2.877-1.2 1.634-1.785 6.067-1.988 15.07-.228 10.08.417 17.458 1.77 20.252.768 1.589 1.868 2.073 6.344 2.798 2.653.43 18.687.609 21.828.244 2.969-.345 5.066-.746 5.75-1.098.253-.13.614-.236.802-.236.188 0 .514-.238.724-.53.21-.29.507-.529.66-.529.155 0 .504-.744.776-1.653.95-3.168 1.191-6.93 1.2-18.72.008-8.793.093-11.62.39-12.964.812-3.657 1.332-5.085 2.2-6.028.181-.198.33-.463.33-.588 0-.259 2.525-2.91 2.772-2.91.088 0 .416-.237.728-.528.313-.291.725-.53.915-.53.191 0 .347-.119.347-.264 0-.146.215-.265.477-.265s.589-.101.727-.225c.291-.261 1.931-.693 4.275-1.124 1.25-.23 2.072-.227 3.44.015 2.803.494 3.928.936 6.175 2.425 2.6 1.723 4.336 4.38 5.312 8.129.486 1.867.537 3.127.648 16.18.066 7.786.178 14.682.25 15.325.138 1.244 1.187 3.277 2.094 4.057 1.032.888 2.294 1.256 4.309 1.256 1.615 0 2.13-.108 2.812-.587 1.145-.805 1.367-1.04 1.826-1.94.92-1.8.998-3.328.832-16.342-.143-11.278-.112-12.963.273-14.601.24-1.019.502-2.15.583-2.514.354-1.588 2.02-4.618 3.068-5.583.253-.233.383-.5.289-.595-.094-.094.027-.172.27-.172.242 0 .44-.119.44-.264 0-.146.179-.265.397-.265.219 0 .397-.119.397-.264 0-.146.169-.265.375-.265s.415-.09.463-.198c.144-.325 2.348-1.39 2.876-1.39.268 0 .562-.118.652-.264.09-.145.447-.265.794-.265.346 0 .696-.106.776-.236.08-.13.594-.305 1.14-.39a608.88 608.88 0 0 0 2.714-.426c5.415-.864 14.347-1.242 19.654-.832 7.877.607 11.012 1.144 14.556 2.492 5.047 1.919 7.267 6.573 8.115 17.013.35 4.306.34 9.512-.025 14.526-.406 5.566-.367 7.707.167 9.251 1.004 2.902 2.72 4.11 5.832 4.11 1.863 0 3.294-.362 3.294-.835 0-.123.179-.223.397-.223.219 0 .397-.11.397-.245s.185-.43.411-.657c.226-.226.463-.622.526-.879s.295-1.118.515-1.914c.341-1.233.4-4.454.404-21.828.003-11.21.1-20.534.219-20.72.162-.255 1.155-.32 4.03-.265l3.817.074.132 21.431.133 21.432.619 1.19c.75 1.442 1.746 2.534 2.788 3.053.897.448 5.192.549 5.192.122 0-.145.245-.264.544-.264.3 0 .472-.12.382-.265-.09-.145-.03-.264.135-.264s.454-.155.643-.344c.49-.49 1.259-2.037 1.014-2.042-.112-.002-.08-.091.07-.198.508-.358.804-4.384.648-8.794-.335-9.51-.285-19.638.107-21.43.437-1.998 1.247-4.572 1.5-4.763.096-.073.363-.49.593-.926.23-.437.723-1.14 1.095-1.563.372-.423.677-.87.677-.992 0-.123.152-.223.338-.223.187 0 .51-.239.72-.53.21-.29.534-.529.72-.529.186 0 .339-.119.339-.264 0-.146.238-.265.529-.265.29 0 .529-.12.529-.265 0-.145.238-.264.53-.264.29 0 .528-.12.528-.265 0-.145.24-.264.533-.264.293 0 .74-.108.992-.24 2.189-1.137 12.13-2.419 18.716-2.413 3.234.003 11.336.507 12.964.806.728.134 2.157.382 3.175.55 3.366.56 6.637 1.92 8.338 3.47 2.757 2.509 4.277 8.05 4.77 17.385.241 4.594.188 6.599-.438 16.293-.29 4.512.449 6.613 2.912 8.268 1.175.79 1.45.86 3.37.86 1.184 0 2.343-.144 2.675-.33.99-.56 2.077-1.838 2.235-2.625.082-.412.237-.75.344-.75.455 0 .562-4.664.54-23.582-.02-18.166.017-20.026.404-20.175.614-.235 7.07-.194 7.45.048.245.156.338 5.164.397 21.362l.076 21.157.615 1.358c1.13 2.496 2.859 3.537 5.876 3.537 1.23 0 2.108-.11 2.108-.265 0-.145.228-.264.506-.264s.816-.387 1.195-.86c2.006-2.504 1.852-.09 1.942-30.56l.08-27.318h7.92l.045 25.863c.025 14.225.01 26.691-.032 27.703-.043 1.013-.293 2.618-.557 3.569-.263.95-.435 1.772-.38 1.826.053.053-.017.234-.156.4-.14.167-.707 1.017-1.26 1.89-1.69 2.672-3.935 4.427-7.318 5.721-.476.182-3.36.594-4.366.623-.859.025-5.355-.915-5.556-1.161-.073-.09-.728-.457-1.455-.816-.728-.36-1.516-.864-1.751-1.121-.235-.257-.563-.468-.728-.468-.165 0-.3-.119-.3-.264 0-.484-.693-.274-1.329.403-.746.795-2.232 1.652-4.227 2.438-1.556.614-5.728 1.141-6.528.826-.266-.105-.923-.199-1.46-.21-.537-.01-1.05-.137-1.14-.282-.09-.146-.513-.265-.941-.265-.428 0-.779-.119-.779-.264 0-.146-.238-.265-.529-.265-.29 0-.529-.12-.529-.265 0-.145-.178-.264-.397-.264-.218 0-.397-.12-.397-.265 0-.145-.178-.264-.396-.264-.219 0-.397-.12-.397-.265 0-.145-.127-.264-.282-.264-.155 0-.882-.616-1.614-1.368l-1.333-1.368-.7.458c-.386.252-.91.524-1.165.605-.254.08-.463.252-.463.38 0 .129-.156.234-.347.234-.19 0-.816.223-1.389.496-2.523 1.2-6.093 2.15-11.069 2.944-2.298.367-17.669.368-18.943.001-.508-.146-1.43-.266-2.047-.266-2.856 0-9.302-2.02-10.453-3.276-.449-.49-.487-.477-1.488.495-2.752 2.67-7.352 4.042-11.56 3.444-1.156-.165-2.34-.392-2.632-.506-1.404-.55-3.836-1.849-3.836-2.049 0-.123-.153-.225-.339-.225-.186 0-.51-.238-.72-.529-.21-.29-.471-.529-.581-.529-.11 0-1.007.578-1.993 1.285-2.334 1.674-3.658 2.186-6.554 2.535-1.801.218-2.8.209-4.1-.036-2.56-.483-3.169-.648-3.328-.905-.079-.128-.375-.233-.657-.233-.283 0-.514-.097-.514-.215 0-.119-.416-.379-.926-.579-.509-.2-.926-.46-.926-.578 0-.119-.118-.216-.262-.216-.278 0-1.46-1.173-2.111-2.094-.37-.523-1.329-.777-1.333-.353 0 .11-.269.332-.595.495-.327.164-1.177.603-1.89.977-1.499.785-6.497 2.404-8.625 2.793-4.104.751-5.618.853-12.666.85-7.1-.004-10.792-.23-13.466-.828-.62-.139-1.386-.252-1.7-.252-.607 0-2.152-.437-2.923-.826-.252-.128-.758-.232-1.124-.232-.366 0-.665-.091-.665-.203 0-.11-.46-.401-1.024-.645-.563-.244-1.225-.645-1.472-.892-.421-.421-.499-.4-1.291.343-2.313 2.17-4.818 3.315-7.987 3.652-.873.093-1.766.201-1.984.24-.219.04-1.23-.095-2.25-.3zm48.815-7.364c.8-.094 1.568-.28 1.707-.412.138-.132.696-.24 1.24-.24.545 0 1.064-.12 1.154-.265.09-.145.402-.264.693-.264.29 0 .455-.12.366-.265-.09-.145.019-.265.242-.265.762 0 1.558-1.703 2.04-4.365.912-5.045 1.31-22.097.617-26.459-.445-2.805-1.236-5.159-1.733-5.159-.113 0-.28-.238-.373-.53-.092-.29-.338-.528-.547-.528-.208 0-.379-.12-.379-.265 0-.145-.23-.264-.513-.264-.283 0-.587-.12-.677-.265-.09-.145-.43-.265-.757-.265-.326 0-.706-.108-.844-.24-1.078-1.03-21.497-1.374-26.313-.443-5.67 1.096-6.126 1.584-7.08 7.56-.582 3.65-.657 20.773-.107 24.477.757 5.096 1.637 6.886 3.672 7.474 2.348.677 3.245.862 4.34.891.637.017 1.517.126 1.953.242.904.24 19.082.112 21.3-.15zm89.826-.067c1.019-.142 2.15-.338 2.514-.436 1.947-.525 2.646-.785 2.646-.985 0-.123.127-.223.283-.223.422 0 1.04-.696 1.04-1.171 0-.229.106-.416.235-.416.13 0 .3-.387.38-.86.079-.473.335-1.931.57-3.241.805-4.49.838-24.469.045-27.252-.665-2.333-1.76-4.101-2.541-4.101-.153 0-.277-.09-.277-.2 0-.382-2.147-1.072-5.292-1.7-2.683-.534-20.565-.442-23.548.123-4.31.816-5.329 1.318-6.101 3.007-2.12 4.634-2.298 26.909-.27 33.661.715 2.381 2.263 3.152 7.959 3.961 2.173.31 19.88.176 22.357-.167zm-665.295 7.317c-2.837-.092-6.111-.3-7.276-.463l-3.175-.444c-.582-.082-1.296-.244-1.587-.36-1.066-.427-2.43-.814-2.863-.814-.244 0-.444-.12-.444-.265 0-.145-.18-.265-.4-.265-.689 0-2.166-.98-3.144-2.085-.306-.347-.69-.77-.854-.94-.433-.45-1.097-1.797-1.53-3.106-1.058-3.194-1.35-4.57-1.815-8.553-.378-3.24-.38-21.805-.002-24.077.316-1.9 1.36-5.16 1.651-5.16.115 0 .355-.354.534-.786.18-.433.521-1.018.76-1.299.238-.28.609-.76.823-1.065.214-.304.541-.554.727-.554.186 0 .339-.09.339-.202 0-.11.476-.496 1.058-.856.582-.36 1.058-.745 1.058-.856 0-.111.24-.202.533-.202.293 0 .74-.105.992-.234 1.12-.57 1.975-.842 5.024-1.6 1.342-.335 4.753-.736 9.062-1.067 8.8-.677 19.932.159 25.267 1.896 6.018 1.96 7.864 4.64 9.444 13.705.474 2.718.48 20.398.01 23.548-1.047 6.994-2.663 10.77-5.404 12.634-.627.427-2.33 1.143-3.785 1.593-5.775 1.784-12.447 2.285-25.003 1.877zm17.463-7.34c3.31-.534 3.71-.622 3.854-.856.08-.13.377-.235.66-.235.282 0 .513-.12.513-.265 0-.145.155-.265.344-.265.45 0 1.528-2.19 1.823-3.704.64-3.277.853-7.442.85-16.668-.001-9.52-.162-12.126-.855-13.825-.163-.4-.426-.728-.584-.728-.157 0-.207-.128-.11-.284.097-.157-.075-.519-.382-.804-.306-.286-.557-.612-.557-.725 0-.321-2.1-1.362-2.75-1.362-.321 0-.697-.107-.835-.238-.679-.646-10.207-1.144-18.11-.947-6.05.15-7.712.302-10.055.916a36.61 36.61 0 0 1-1.604.381c-2.654.54-3.709 4.537-4.088 15.499-.197 5.705.179 14.274.777 17.7.495 2.835 1.32 4.484 2.556 5.11 1.254.634 3.701 1.26 5.084 1.298.611.017 1.469.126 1.905.241 1.13.298 19.498.095 21.564-.239zm715.509 7.177c-.115-.255-.177-15.435-.14-33.735l.068-33.27h8.198V-87.546h-3.96c-3.514 0-3.982-.052-4.166-.463zm-499.61-58.76c0-.221-1.114-.308-3.94-.308-3.349 0-3.964-.063-4.1-.419-.089-.23-.161-2.016-.161-3.969v-3.55h8.176l.08 4.167c.043 2.292.048 4.217.012 4.278-.036.06-.066-.029-.066-.199zm12.7 0c0-.221-1.114-.308-3.94-.308-3.349 0-3.964-.063-4.1-.419-.089-.23-.161-2.016-.161-3.969v-3.55h8.176l.08 4.167c.043 2.292.048 4.217.012 4.278-.036.06-.066-.029-.066-.199zm12.7 0c0-.221-1.114-.308-3.94-.308-3.349 0-3.964-.063-4.1-.419-.089-.23-.161-2.016-.161-3.969v-3.55h8.176l.08 4.167c.043 2.292.048 4.217.012 4.278-.036.06-.066-.029-.066-.199zm429.133-.418c-.06-.06-.074-1.846-.03-3.969l.08-3.859h8.174v7.938h-4.057c-2.231 0-4.106-.05-4.167-.11zm13.163-.067c-.097-.097-.176-1.883-.176-3.969v-3.792H212.775v7.938h-3.793c-2.086 0-3.872-.08-3.969-.177z" id="path80" fill="#000"/></g></svg>