<svg xmlns="http://www.w3.org/2000/svg" width="2632.223" height="375.7" viewBox="0 0 696.442 99.404"><path d="M323.028 99.041c-7.664-.972-12.513-3.554-14.421-7.68-.65-1.406-.749-2.267-.749-6.557 0-4.546.07-5.08.874-6.703 1.676-3.385 4.45-5.502 9.171-6.999 2.196-.696 3.242-.735 22.675-.852l20.373-.124v-1.345c0-1.721-1.046-3.07-2.75-3.542-.832-.231-9.415-.364-23.62-.365l-22.313-.002V50.408h27.279c17.214 0 28.697.143 31.122.387 3.982.4 8.763 1.597 11.058 2.768 3.86 1.97 6.883 5.482 8.216 9.545.656 1.998.773 3.347.91 10.49.19 9.824-.176 13.122-1.84 16.582-1.8 3.745-4.935 6.214-9.717 7.652-4.9 1.473-7.632 1.61-31.221 1.565-12.418-.023-23.69-.183-25.047-.356zm35.765-14.1c1.464-.51 2.158-1.918 2.158-4.38v-1.983l-11.263.114c-10.802.11-11.305.145-12.257.856-1.943 1.452-1.817 4.29.237 5.328 1.162.588 19.463.645 21.125.066zm-327.983-9.9c36.794-28.72 35.73-27.918 39.276-29.614 5.105-2.443 5.722-2.532 18.781-2.693l11.726-.145.092 14.482.093 14.482 7.76-6.744c21.279-18.49 21.948-19.007 27.321-21.072 2.262-.869 2.554-.891 13.337-1.016l11.025-.127V99.092h-29.626l-.092-14.291-.092-14.291-15.678 14.29-15.678 14.291h-28.44V84.804c0-7.858-.089-14.288-.197-14.288-.108 0-8.006 6.427-17.55 14.282L35.513 99.081l-17.757.005L0 99.09zm157.81 23.814c-.583-.071-2.537-.37-4.344-.664-9.787-1.59-15.482-6.455-17.226-14.714-.825-3.907-.507-14.85.513-17.65 2.303-6.324 6.655-10.383 13.472-12.566 5.224-1.672 7.58-1.79 35.718-1.793l26.37-.002v14.817l-20.725.006-20.726.006-1.4.793c-2.737 1.55-3.882 4.35-3.644 8.911.252 4.843 2.068 7.372 5.926 8.25.98.223 9.184.365 21.431.37l19.844.01V99.091l-27.076-.053c-14.891-.029-27.552-.111-28.134-.183zm61.559-27.986V42.647h29.986V84.274H303.096v14.817h-52.917zm147.186 7.496l.099-20.725.844-1.716c.907-1.841 3.01-3.467 5.317-4.107.75-.209 9.376-.348 21.62-.349l20.373-.002v14.452l-9.26.094-9.26.094-.093 16.493-.091 16.492h-29.648zm70.22 20.35c-10.083-1.31-16.175-5.926-18.13-13.735-.751-3-.637-17.077.162-20.108 2.253-8.539 8.234-12.802 19.765-14.088 4.518-.504 40.19-.496 45.218.01 9.213.928 14.38 3.413 16.633 8.001.933 1.9.992 2.293.992 6.606 0 4.038-.097 4.797-.811 6.35-1.538 3.344-4.625 5.663-9.442 7.09-1.869.555-4.306.636-22.644.755l-20.549.134v.808c0 1.55.774 3.048 1.89 3.659 1.012.554 3.169.615 24.657.707l23.547.1V99.09l-29.545-.045c-16.25-.024-30.534-.173-31.743-.33zm34.822-28.111c2.544-1.279 2.163-4.944-.594-5.71-2.148-.596-19.249-.492-20.729.126-1.52.635-2.305 2.141-2.305 4.42v1.782l11.2-.001c9.96 0 11.337-.069 12.428-.617zm35.639 4.473V51.063l28.84.143c25.26.125 29.294.218 32.51.754 11.298 1.88 16.268 5.83 17.87 14.201.392 2.052.507 6.085.507 17.792V99.09H588.19l-.113-12.082c-.11-11.749-.136-12.133-.929-13.885-1.014-2.241-2.882-4.094-5.181-5.138-1.568-.713-2.443-.817-7.85-.935l-6.085-.132V99.09h-29.986zm89.453 3.14c.152-.258.94-1.342 1.752-2.41 4.72-6.207 8.684-13.246 10.628-18.873.85-2.459.977-3.368.988-7.062.013-4.088-.028-4.323-1.142-6.587-2.74-5.57-9.064-8.975-19.658-10.584-4.255-.646-18.351-.534-24.519.195-13.402 1.584-27.905 4.784-39.312 8.675-1.734.592-3.235 1.076-3.335 1.076-.1 0 1.398-.977 3.33-2.17 31.02-19.17 69.804-34.403 99.466-39.066C663.693.154 667.903-.136 675.381.053c7.63.192 10.602.707 14.566 2.522 2.393 1.096 4.825 3.349 5.76 5.335.91 1.938.985 5.54.172 8.303-3.744 12.73-24.057 32.125-57.82 55.21-8.188 5.596-10.873 7.325-10.56 6.794z" fill="#fff" stroke-width=".353"/></svg>