<svg xmlns="http://www.w3.org/2000/svg" width="498.006" height="98.992" viewBox="0 0 131.764 26.192" version="1.1" id="svg8"><defs id="defs2"><style id="style10"></style></defs><g id="layer1" transform="translate(-120.342 -194.724)"><path d="M122.796 220.773c-2.498-.544-3.29-3.134-1.435-4.695.83-.697 1.868-1.043 4.034-1.34 1.24-.172 1.266-.192.892-.753-.322-.483-.636-.576-1.938-.575-.854 0-1.808.093-2.12.207-.475.173-.612.075-.85-.606-.262-.753-.23-.835.435-1.107 1.034-.424 4.785-.417 5.797.01 1.518.641 1.782 1.36 1.93 5.266l.134 3.506h-1.39c-1.098 0-1.388-.09-1.388-.426 0-.303-.133-.369-.463-.229-2.073.879-2.557.978-3.638.742zm3.139-2.224c.512-.402.697-.79.697-1.458v-.91l-1.124.17c-1.34.204-2.05.753-2.05 1.584 0 1.153 1.363 1.49 2.477.614zm22.525 2.224c-1.518-.33-2.513-1.446-2.513-2.817 0-.786.857-1.916 1.84-2.424.404-.209 1.48-.5 2.393-.647 1.905-.307 2.071-.408 1.68-1.025-.216-.341-.665-.45-1.843-.45-.856 0-1.812.093-2.123.207-.475.173-.612.075-.85-.606-.262-.752-.23-.835.434-1.111.395-.164 1.73-.308 2.967-.32 1.756-.018 2.427.085 3.064.471 1.385.839 1.547 1.33 1.694 5.13l.136 3.505h-1.389c-1.099 0-1.389-.09-1.389-.426 0-.303-.132-.369-.463-.229-2.072.879-2.556.978-3.638.742zm3.14-2.224c.514-.404.697-.79.697-1.467 0-.914-.005-.918-.993-.755-2.091.344-2.878 1.281-1.898 2.261.657.657 1.324.645 2.194-.039zm15.91 1.996a23.42 23.42 0 0 0-1.117-.385c-.033-.002-.252-.376-.487-.83-.583-1.127-.308-2.404.7-3.252.828-.697 1.867-1.043 4.033-1.34 1.24-.172 1.265-.192.892-.753-.323-.483-.636-.576-1.938-.575-.855 0-1.809.093-2.12.207-.475.173-.612.075-.85-.606-.262-.753-.23-.835.434-1.107 1.035-.424 4.786-.417 5.798.01 1.518.641 1.782 1.36 1.93 5.266l.134 3.506h-1.39c-1.099 0-1.389-.09-1.389-.426 0-.303-.132-.369-.463-.229-2.38 1.01-2.687 1.047-4.167.514zm3.669-1.996c.511-.402.697-.79.697-1.458v-.91l-1.125.17c-1.339.204-2.05.753-2.05 1.584 0 1.153 1.364 1.49 2.478.614zm11.329 2.14c-.482-.115-1.167-.48-1.521-.814l-.644-.605v.708c0 .672-.066.707-1.323.707h-1.323v-12.964h3.175V212.764l.776-.575c1.836-1.356 5.11-.639 6.15 1.348.577 1.104.637 3.356.121 4.59-.46 1.1-1.76 2.196-3.02 2.547-1.1.305-1.16.305-2.391.014zm1.724-2.254c.717-.502 1.242-2.056 1.01-2.99-.449-1.81-2.48-2.529-3.758-1.328-.502.472-.612.848-.612 2.097 0 1.33.088 1.592.697 2.07.821.647 1.87.707 2.663.151zm13.92 2.229c-1.995-.591-2.619-3.096-1.12-4.496.823-.769 2.205-1.296 3.419-1.306.912-.007 1.852-.28 1.852-.539 0-.936-2.473-1.4-4.12-.774-.85.323-.915.279-.985-.684-.049-.664.07-.78 1.136-1.106 1.42-.434 4.06-.327 5.136.209 1.578.785 1.846 1.507 1.964 5.284l.107 3.433h-1.26c-.858 0-1.359-.137-1.574-.432-.286-.39-.376-.393-.955-.025-.848.54-2.554.746-3.6.436zm3.563-1.978c.739-.518.891-2.672.17-2.395-.23.089-.707.16-1.059.16-.703 0-1.698.842-1.698 1.437 0 1.072 1.525 1.542 2.587.798zm7.277 1.994c-1.209-.486-1.092-2.374.18-2.9.954-.396 1.75-.159 2.304.687.54.825.15 1.842-.853 2.224-.794.302-.855.301-1.631-.011zm8.392.035c-2.94-.635-4.425-2.907-3.688-5.648.706-2.627 3.934-4.162 7.325-3.484.765.153.783.191.547 1.125l-.245.966-1.533-.088c-1.946-.111-2.89.566-3.113 2.234-.127.943-.04 1.204.656 1.983.74.829.93.901 2.477.94l1.675.044.082.949c.069.788-.004.95-.426.95-.28 0-1.03.051-1.67.114-.638.064-1.578.025-2.087-.085zm9.187-.133c-1.357-.373-2.397-1.183-2.994-2.331-.485-.932-.476-3.211.015-4.162 1.751-3.386 7.81-3.53 9.666-.228.748 1.331.663 3.782-.172 4.91-1.228 1.66-4.13 2.467-6.515 1.811zm3.269-2.258c.632-.632.773-.997.773-1.997 0-1.345-.535-2.63-1.202-2.886-.86-.33-1.747-.15-2.382.485-.542.543-.648.901-.64 2.183.008 1.574.259 2.14 1.182 2.67.852.488 1.445.37 2.269-.455zm-97.387-1.872v-4.233h3.175v8.466h-3.175zm6.085-.265v-4.498h1.323c1.294 0 1.323.018 1.323.794 0 .87.405 1.072.643.322.197-.619 1.507-1.38 2.375-1.38.647 0 .686.076.686 1.314 0 1.044-.08 1.285-.386 1.167-.58-.223-2.228.404-2.526.962-.145.27-.263 1.69-.263 3.154v2.663h-3.175zm19.58 0v-4.498h1.322c1.294 0 1.323.018 1.323.794 0 .437.062.794.136.794.075 0 .462-.361.86-.803.465-.515 1.08-.86 1.716-.96l.993-.158v1.349c0 1.073-.08 1.319-.386 1.201-.581-.223-2.228.404-2.527.962-.144.27-.262 1.69-.262 3.154v2.663h-3.175zm32.676.133v-4.366h3.042v8.731h-3.042zm45.376-.133v-4.498h1.323c1.257 0 1.322.035 1.322.708v.708l.596-.558c1.6-1.5 4.584-1.427 5.457.133.24.43.301.421.873-.115 1.298-1.216 3.235-1.477 4.633-.624 1.317.803 1.503 1.404 1.623 5.239l.109 3.505h-1.552l-1.552-.002v-3.013c0-2.593-.07-3.092-.504-3.571-.598-.66-1.404-.713-2.215-.145-.552.386-.588.606-.588 3.572v3.16h-3.175v-3.134c0-2.7-.067-3.195-.484-3.572-.607-.549-1.344-.558-2.103-.026-.552.386-.588.606-.588 3.572v3.16h-3.175zm-103.116-5.612c-1.85-.892-.24-3.12 1.751-2.425.961.336 1.11 1.72.25 2.323-.69.483-1.163.507-2 .102zm58.203-.342c-1.158-.828-.435-2.512 1.079-2.512.742 0 1.765.814 1.765 1.404 0 1.138-1.815 1.844-2.844 1.108zm-53.777-3.362c0-.322.327-.847.728-1.166.722-.576.728-.604.819-4.309l.091-3.73h1.782l.076 2.58.076 2.58h13.494l.075-2.58.076-2.58h2.097v5.292h2.911v-8.202h2.117v2.911l2.712.006c3.075.007 4.485.263 5.47.993.918.682 1.423 2.237 1.103 3.398l-.247.894h4.424c3.088 0 4.52-.096 4.74-.318.218-.217.318-1.51.318-4.1v-3.784h2.117v8.232l1.125-.081 1.124-.082.073-4.034.073-4.035H186.957v4.204c0 5.258-.063 5.38-2.879 5.539-1.576.089-1.884.039-1.884-.307 0-.37-.098-.372-.917-.03-.755.315-3.023.383-12.808.383h-11.89l.15-.595.148-.595-.598.529c-.562.498-1.034.534-7.979.607-7.245.076-7.38.088-7.38.622 0 .864-1.653 2.343-2.62 2.343-.67 0-.82-.108-.82-.586zm31.092-4.445c.618-.683.618-1.957 0-2.64-.432-.476-.812-.532-3.616-.532h-3.134v3.704h3.134c2.804 0 3.184-.056 3.616-.532zm-19.348 4.65c-.301-.785.105-1.246 1.02-1.158.721.07.862.191.862.744 0 .553-.141.675-.862.745-.593.057-.91-.046-1.02-.33zm2.646 0c-.302-.785.105-1.246 1.02-1.158.72.07.862.191.862.744 0 .553-.141.675-.862.745-.593.057-.911-.046-1.02-.33zm56.912-.16c-.238-.75.156-1.11 1.095-1.002.611.07.76.217.76.748 0 .55-.142.676-.837.743-.664.064-.875-.037-1.018-.49zm2.781.143c-.262-.316-.262-.477 0-.794.444-.534 1.751-.512 1.961.034.372.97-1.261 1.603-1.96.76zm6.717.017c-.301-.785.106-1.246 1.02-1.158.721.07.862.191.862.744 0 .553-.14.675-.861.745-.594.057-.912-.046-1.02-.33zm5.719-.25c0-.382.262-.804.661-1.065.655-.43.662-.47.662-4.264v-3.83h2.116v5.291h3.616l-.12-1.452c-.14-1.673.26-2.498 1.612-3.322 1.168-.712 3.705-.708 4.88.009 1.042.635 1.063.815.163 1.361-.648.394-.73.39-1.19-.07-1.15-1.15-3.404-.151-3.404 1.51 0 .553.205 1.112.529 1.435.496.496.882.53 6.165.53 4.03 0 5.726-.091 5.953-.318.217-.217.317-1.511.317-4.101v-3.784h2.117v3.797c0 4.393-.22 5.304-1.382 5.71-.519.18-4.148.283-10.014.283h-9.2l-.172.787c-.224 1.02-1.542 2.123-2.536 2.123-.638 0-.773-.11-.773-.63zm-101.224-2.504c-1.848-.862-2.228-1.597-2.228-4.31v-2.345h1.852v2.001c0 1.101.115 2.218.257 2.482.307.575 2.103 1.337 3.148 1.337.953 0 2.412-.487 3.01-1.004.373-.322.464-.835.464-2.609v-2.207h2.117v2.05c-.002 3.721-1.243 4.902-5.292 5.034-1.767.058-2.48-.034-3.328-.43zm11-4.671v-4.895h1.83l.078 4.895.077 4.895h-1.984zm59.901 4.594c-.597-.134-1.35-.527-1.675-.872-.824-.877-1.02-2.63-.42-3.746.687-1.274 1.963-1.778 4.835-1.91l2.447-.114v5.355h7.532c8.763 0 8.079.268 8.079-3.157v-2.134h1.852v5.291h1.931c1.15 0 2.06-.128 2.25-.317.198-.2.317-1.188.317-2.646v-2.328h2.186l-.124 2.794c-.168 3.77-.313 3.919-3.921 4.043-2.277.079-2.64.033-2.64-.33 0-.517-.02-.517-.961-.027-.628.328-2.283.396-9.688.397l-8.93.002v-5.292h-1.19c-1.431 0-2.249.674-2.249 1.852 0 1.134.824 1.853 2.124 1.853h1.065l-.41.793c-.435.84-.66.887-2.41.493zm56.252-4.61v-4.91l.992.081.992.082.072 4.829.072 4.829h-2.128zm-124.83-3.344c-.47-.47-.387-.95.221-1.276 1.08-.578 2.222.382 1.415 1.189-.485.485-1.2.523-1.636.087zm68.672.031c-.652-.38-.575-.997.165-1.334 1.227-.56 2.408.722 1.242 1.346-.626.335-.815.333-1.407-.012zm2.778.116c-.182-.076-.33-.424-.33-.773 0-.834 1.161-1.183 1.803-.541.768.767-.364 1.778-1.473 1.314z" id="path95" fill="#fff" stroke-width=".265"/></g></svg>