<svg xmlns="http://www.w3.org/2000/svg" width="2193.334" height="455.417" viewBox="0 0 580.319 120.496"><path d="M556.507 120.117c-1.552-.28-3.854-.793-5.115-1.14l-2.293-.63-.1-4.385c-.055-2.412-.019-4.596.08-4.854.134-.35.878-.118 2.922.909 4.657 2.339 8.21 3.31 12.267 3.355 2.735.03 3.78-.098 4.653-.573 1.51-.82 2.227-1.926 2.225-3.428-.004-2.833-2.17-4.626-9.877-8.17-9.822-4.516-12.306-7.048-12.626-12.87-.14-2.554-.053-3.093.812-5.021 1.76-3.922 5.33-6.478 10.73-7.682 3.15-.703 8.999-.489 13.96.511l3.176.64.098 4.826c.06 2.994-.033 4.826-.249 4.826-.19 0-1.745-.616-3.454-1.368-7.652-3.367-14.201-3.354-15.408.031-1.023 2.87 1.746 5.231 10.546 8.993 5.65 2.415 9.788 5.592 10.97 8.423.32.762.496 2.51.496 4.911 0 3.27-.108 3.94-.877 5.457-1.644 3.244-4.935 5.614-9.553 6.878-2.948.807-9.875.994-13.383.36zM.235 119.709C.105 119.58 0 92.592 0 59.737V0h119.944v119.944H60.207c-32.855 0-59.842-.105-59.972-.235zm50.918-16.896c1.649-.528 4.066-1.493 5.37-2.145 1.977-.987 2.764-1.185 4.713-1.185h2.34l-.236-.97-.415-1.705c-.14-.583.432-1.255 2.756-3.233 1.614-1.373 3.41-3.005 3.993-3.626l1.058-1.13-1.94 1.228a58.75 58.75 0 0 1-4.105 2.317l-2.163 1.09-.218-1.086a14.192 14.192 0 0 1-.217-2.3v-1.214l-2.066 2.58c-3.896 4.868-4.261 5.057-10.634 5.492l-2.999.205 1.235.527c.68.29 2.178.793 3.33 1.118l2.097.592-2.802 2.216c-3.373 2.669-3.256 2.562-2.614 2.355l3.517-1.126zM27.858 99.65c-.178-.77-.328-2.333-.333-3.471-.008-1.98.026-2.06.785-1.845 2.07.585 5.696 1.262 7.892 1.473l2.427.234-2.822-1.444c-3.166-1.62-6.88-4.43-6.88-5.206 0-.57 1.77-4.188 3.006-6.145l.802-1.271-3.932.633c-2.163.348-4.188.636-4.5.64-.828.011-2.954-4.879-4.164-9.576l-1.013-3.936-.262 3.835c-.144 2.11-.158 5.435-.031 7.39l.23 3.556-2.996.976c-1.648.536-3.083 1.116-3.19 1.289-.198.32 3.043 2.337 6.526 4.061 1.731.857 2.124 1.275 3.648 3.874 1.548 2.638 4.733 6.733 5.017 6.449.064-.063-.03-.746-.21-1.516zm-2.987-38.777c5.15-4.609 10.364-8.662 11.142-8.662.146 0 .608 1.072 1.026 2.381.418 1.31 1.334 4.036 2.037 6.057l1.276 3.676.794-3.786c.778-3.711 2.673-10.21 3.22-11.041.769-1.17 10.798-1.535 17.526-.64 2.123.282 3.913.46 3.979.395.226-.226-5.733-2.962-8.897-4.085-1.747-.62-4.6-1.441-6.341-1.825-1.742-.384-3.23-.762-3.309-.84-.113-.113.946-2.43 2.695-5.896.377-.747-6.677 2.537-9.273 4.318-1.36.932-1.62.974-7.056 1.146-5.43.172-11.991 1.107-11.65 1.66.09.145 1.105.362 2.256.482 2.487.26 6.238 1.436 7.418 2.327l.844.636-2.342 2.745c-3.514 4.119-10.459 14.968-9.025 14.1.278-.169 1.934-1.585 3.68-3.148zm73.703-12.899c1.502-5.69 2.372-11.248 2.574-16.433l.193-4.971 1.805-1.405c.993-.772 2.184-2.088 2.647-2.924l.842-1.519-3.135.251c-1.724.138-3.801.396-4.615.573-1.344.291-1.736.194-4.234-1.052-5.24-2.614-14.67-5.45-21.134-6.357a299.944 299.944 0 0 1-3.843-.56c-.61-.097.807.813 3.349 2.15 6.818 3.586 13.055 7.52 13.055 8.234 0 .16-.816.398-1.812.53-2.57.341-9.303 2.115-14.063 3.705-4.09 1.366-9.626 3.571-9.438 3.76.056.055 2.017-.193 4.358-.551 5.476-.839 16.45-1.856 18.433-1.71l1.535.115-2.677 3.527c-1.472 1.94-3.426 4.376-4.342 5.412l-1.665 1.884 2.101-1.211c1.156-.666 5.064-2.731 8.685-4.59l6.584-3.377.736 1.711c1.447 3.363 2.5 10.077 2.5 15.927 0 3.616.385 3.34 1.561-1.119zm52.238 50.278V76.498l11.995.14c12.755.15 13.56.248 17.286 2.108 6.095 3.044 7.092 10.117 2.078 14.738-.875.807-2.241 1.758-3.036 2.113l-1.445.647 2.534 1.276c4.59 2.312 6.74 5.247 7.024 9.59.307 4.7-1.706 8.069-6.15 10.295-4.2 2.104-5.53 2.28-18.467 2.448l-11.819.154zm21.042 15.47c5.277-1.566 6.79-7.064 2.99-10.863-1.836-1.836-3.986-2.63-7.892-2.915-1.777-.13-2.902-.364-2.888-.601.012-.214.449-1.58.97-3.035l.948-2.646 2.323-.2c2.79-.24 4.794-1.2 5.91-2.829.703-1.026.804-1.537.686-3.455-.123-1.996-.265-2.364-1.251-3.245-1.62-1.448-4.197-2.089-8.397-2.089-3.434 0-3.608.037-3.811.794-.117.437-.215 7.728-.218 16.203l-.005 15.41.794.176c1.463.324 7.938-.139 9.841-.704zm25.896 2.606c.347-4.623.342-32.214-.005-36.512l-.264-3.263h10.68l2.574 3.969c1.416 2.182 4.93 7.897 7.81 12.698 2.88 4.802 5.297 8.67 5.37 8.596.075-.075-.031-4.543-.235-9.929-.205-5.386-.372-11.04-.372-12.564v-2.77h9.108l-.056 17.55c-.03 9.653.022 19.377.117 21.608l.173 4.057-3.732.1-3.732.1-1.356-2.217c-.745-1.22-4.763-7.693-8.928-14.387-4.165-6.694-7.795-12.647-8.067-13.23-.429-.92-.467.696-.293 12.348.11 7.373.297 14.318.415 15.434l.215 2.028H197.479zm47.96-18.103V76.488l11.112.161c8.63.126 11.597.288 13.282.726 4.79 1.246 8.314 3.671 9.824 6.762.967 1.981 1.16 6.922.363 9.32-.763 2.3-3.115 4.886-5.562 6.116-3.392 1.706-6.933 2.418-13.11 2.637l-5.609.199.245 8.285c.135 4.557.278 8.462.318 8.68.05.273-1.601.424-5.395.49l-5.468.097zm19.402-2.415c3.64-1.114 5.807-4.13 5.317-7.399-.348-2.32-1.476-3.764-3.873-4.962-1.874-.936-2.504-1.056-6.261-1.19l-4.178-.149v7.07c0 5.312.11 7.12.44 7.272.786.36 6.74-.086 8.555-.642zm39.512 2.41V76.493l10.936.145c9.752.13 11.228.226 13.636.888 4.97 1.368 7.849 3.336 9.556 6.532.682 1.274.797 2.024.797 5.194 0 3.338-.094 3.881-.948 5.5-1.18 2.236-2.971 3.832-5.77 5.142-3.153 1.475-6.35 2.066-12.476 2.304l-5.435.212.226 8.766.225 8.767h-10.747zm19.49-2.443c3.574-1.07 5.705-4.197 5.164-7.58-.35-2.189-1.463-3.576-3.808-4.748-1.874-.936-2.504-1.056-6.262-1.19l-4.177-.149v7.07c0 5.312.11 7.12.44 7.272.784.36 6.736-.104 8.643-.675zm15.358 23.737c.101-.248 2.045-4.897 4.32-10.33a1825.67 1825.67 0 0 0 8.66-21.166l4.526-11.289 3.822-.099 3.822-.099 1.535 3.803c.844 2.092 4.767 11.764 8.718 21.495 3.95 9.73 7.183 17.79 7.183 17.912 0 .122-2.485.178-5.523.124l-5.524-.097-.759-2.117c-.417-1.164-1.223-3.426-1.79-5.027l-1.032-2.91h-15.239l-1.587 5.027-1.588 5.027-4.863.098c-3.84.078-4.826.004-4.68-.352zm25.52-15.899c.114-.115-1.414-4.25-3.972-10.746-.554-1.407-1.099-2.558-1.211-2.558-.197 0-5.267 12.632-5.267 13.124 0 .133.754.313 1.675.399 1.768.164 8.56-.005 8.775-.219zm24.085 16.175c-.084-.084-.019-2.108.146-4.498.165-2.389.23-12.097.144-21.575l-.156-17.23 10.976.153c9.821.137 11.266.232 13.736.907 7.078 1.934 10.469 5.8 10.469 11.933 0 4.562-2.311 8.156-6.573 10.22l-2.099 1.018 5.942 9.525 5.942 9.525-5.928.101c-4.54.078-5.993-.005-6.207-.353-.154-.25-1.945-3.59-3.98-7.423-2.035-3.834-4.786-8.834-6.114-11.113l-2.414-4.143 2.866-.207c3.212-.233 4.554-.792 6.36-2.652 2.298-2.365 2.473-6.415.385-8.896-1.54-1.83-4.04-2.633-8.765-2.814l-4.181-.16.124 18.918.124 18.919h-5.321c-2.927 0-5.39-.07-5.476-.155zm46.141-2.403c.356-3.183.336-36.87-.023-39.159l-.263-1.675h11.374l-.266 2.557c-.358 3.445-.368 34.266-.011 37.924l.283 2.91h-11.38l.286-2.557zm23.561-1.15c.331-4.854.33-31.93-.004-36.352l-.254-3.39 12.127.15c12.719.157 13.47.241 17.3 1.935 4.785 2.117 6.826 7.58 4.52 12.1-.939 1.84-3.09 3.916-4.907 4.736-.79.356-1.426.742-1.416.858.01.116 1.003.687 2.205 1.27 5.12 2.478 7.868 7.323 6.937 12.231-.864 4.552-4.118 7.449-10.373 9.23-2.22.633-3.797.726-14.442.854l-11.95.143.256-3.764zm20.822-2.453c2.65-.798 4.017-1.788 4.776-3.46 1.288-2.838.532-5.878-1.976-7.945-1.79-1.476-3.945-2.178-7.474-2.435-1.6-.117-2.906-.308-2.9-.425.004-.117.461-1.482 1.014-3.034l1.006-2.823 2.45-.223c4.908-.446 7.197-2.954 6.446-7.06-.592-3.239-3.402-4.535-9.833-4.535h-3.458l-.227 2.91c-.292 3.756-.3 25.773-.009 27.892.144 1.047.424 1.682.794 1.797 1.076.333 7.625-.126 9.391-.659zm20.99 5.838c0-.178 1.804-4.662 4.009-9.966 5.998-14.433 9.432-22.854 11.525-28.263l1.882-4.862 3.863.1 3.862.098 8.597 21.154c4.728 11.634 8.596 21.358 8.596 21.608 0 .35-1.236.454-5.42.454h-5.42l-1.744-5.028-1.745-5.027h-15.422l-.804 2.47a239.866 239.866 0 0 0-1.564 5.027l-.758 2.558h-4.728c-2.623 0-4.728-.144-4.728-.323zm25.372-16.13c.152-.134-3.978-11.307-4.722-12.774-.387-.763-.56-.477-2.228 3.704a486.047 486.047 0 0 0-2.698 6.897l-.889 2.366 2.373.123c2.428.127 7.899-.086 8.164-.317z" fill="#fff" stroke-width=".353"/></svg>