<svg xmlns="http://www.w3.org/2000/svg" width="2468" height="709.897" viewBox="0 0 652.992 187.827"><path d="M220.398 187.66c-3.56-.891-3.975-6.646-.59-8.173 1.287-.58 2.947-.565 4.313.038 3.049 1.346 2.897 6.6-.23 7.998-.73.327-2.464.395-3.493.137zm13.346-.132c-.373-.148-1.051-.806-1.507-1.462-.76-1.092-.82-1.328-.709-2.81.167-2.227.176-2.281.406-2.281.111 0 .269-.208.35-.463.249-.78 2.743-1.726 4.077-1.547 2.375.319 3.626 1.672 3.838 4.153.24 2.787-1.56 4.76-4.296 4.708-.815-.015-1.787-.15-2.16-.298zM83.873 171.725a59.359 59.359 0 0 0-2.381-.529c-.873-.177-1.795-.43-2.047-.563-.253-.133-.577-.241-.721-.241-.476 0-3.78-1.607-4.929-2.398-.621-.427-1.197-.777-1.278-.777-.313 0-3.523-3.37-4.412-4.63-1.009-1.431-2.574-4.942-3.244-7.277-.865-3.01-.964-5.281-.96-21.878.006-18.286.075-19.319 1.59-23.565.454-1.273.837-2.463.85-2.645.014-.181.132-.33.261-.33.13 0 .163-.12.073-.265-.09-.145-.035-.264.122-.264.158 0 .432-.328.611-.728.443-.991 1.047-1.715 3.368-4.035 2.108-2.108 2.514-2.391 5.424-3.785 2.354-1.127 3.046-1.378 5.16-1.874 4.457-1.046 10.81-1.16 14.816-.266 1.78.398 5.853 1.702 6.085 1.95.206.218 2.929 1.858 3.086 1.858.295 0 3.977 3.892 4.757 5.027 1.5 2.186 1.5 2.186-1.277 3.554-2.494 1.228-3.126 1.42-3.126.943 0-.307-3.58-3.94-4.366-4.43-1.35-.842-4.478-2.185-5.743-2.467-3.249-.722-11.759-.509-12.263.308-.082.132-.432.24-.779.24-.347 0-.704.12-.794.265-.09.145-.454.265-.81.265-.354 0-.645.09-.645.202 0 .11-.446.4-.992.641-1.384.613-2.052 1.174-4.722 3.967-.238.249-.337.587-.225.768.126.204.09.256-.097.14-.407-.25-1.983 2.94-2.601 5.266-.455 1.71-.491 3.142-.491 19.31 0 14.113.071 17.742.37 18.918.488 1.911 1.803 5.134 2.141 5.247.147.049.267.266.267.484 0 .661 3.5 3.9 5.31 4.91 5.655 3.162 14.215 3.379 20.09.51 2.04-.996 3.055-1.715 4.416-3.126.93-.965 1.274-1.403 1.937-2.469.214-.344.396-.32 1.378.186.623.32 1.817.89 2.654 1.264.837.375 1.521.844 1.521 1.04 0 .532-2.297 3.79-3.566 5.06-1.2 1.199-4.443 3.454-6.016 4.182-1.769.82-4.267 1.548-6.557 1.914-2.405.383-9.929.466-11.245.123zM.068 133.879L0 96.837h3.708c4.136 0 3.656-.212 4.746 2.108.236.504.517.98.624 1.058.106.078.335.44.509.803.174.364 1.031 1.852 1.906 3.308a139.78 139.78 0 0 1 2.52 4.365c1.254 2.318 2.285 4.073 2.488 4.234.092.072.419.608.726 1.19 1.384 2.626 7.105 12.445 7.297 12.524.118.048.215.18.215.293 0 .112.595 1.239 1.322 2.503.728 1.265 1.323 2.361 1.323 2.437 0 .076.298.528.662 1.005.364.477.661 1.012.661 1.189 0 .176.122.246.271.153.15-.092.24-.069.202.05-.107.339.621 1.939.882 1.939.128 0 .233.13.233.29 0 .38 2.927 5.372 3.217 5.487.122.048.222.309.222.58 0 .27.107.557.237.637.13.08.623.892 1.095 1.802s.94 1.714 1.042 1.787c.101.073.587.906 1.08 1.852.493.946 1.09 2.018 1.325 2.381 1.133 1.743 2.85 4.734 3.012 5.247.1.316.294.574.43.574.15 0 .246-11.582.246-29.898V96.837h7.276l-.068 37.042-.068 37.042h-7.38l-.974-1.654c-.537-.91-1.274-2.19-1.639-2.844-1.238-2.222-4.388-7.54-4.545-7.673-.085-.073-.45-.698-.81-1.39-.36-.69-.732-1.256-.828-1.256-.095 0-.296-.353-.446-.785-.307-.88-2.248-4.28-2.756-4.826-.182-.195-.35-.473-.375-.618-.026-.145-1.11-2.107-2.41-4.36-1.299-2.252-3.22-5.584-4.266-7.403-1.048-1.819-2.047-3.426-2.222-3.572a1.39 1.39 0 0 1-.402-.653c-.047-.213-.477-1.046-.955-1.85-.829-1.395-1.841-3.153-4.196-7.286-1.711-3.003-2.863-4.965-3.494-5.953-.325-.51-1.292-2.2-2.148-3.759-.857-1.557-1.706-2.893-1.888-2.968-.264-.108-.331 5.867-.331 29.357v29.493H.136zm122.831 0V96.838h15.258c17.746 0 18.59.078 22.515 2.1 1.989 1.025 2.623 1.473 4.333 3.059 1.41 1.309 2.037 2.191 3.378 4.762 1.473 2.824 1.624 3.566 1.797 8.864.12 3.664.07 4.369-.477 6.615-.336 1.382-.679 2.573-.762 2.645-.083.073-.368.625-.634 1.227-.64 1.452-1.689 3.013-2.854 4.248-1.29 1.367-1.997 1.893-3.857 2.867-.557.293-.478.368 1.323 1.261 2.29 1.135 4.282 2.763 5.513 4.505.496.701 1.047 1.434 1.226 1.629.332.36 1.167 2.338 1.79 4.24 1.822 5.555.793 13.75-2.317 18.452-2.54 3.84-5.648 5.88-10.732 7.044-2.378.544-3.063.565-18.984.565H122.9zm31.038 30.408c1.046-.156 2.11-.394 2.362-.529.253-.135.621-.245.82-.245.698 0 3.198-1.466 4.287-2.514 1.165-1.121 2.33-3.135 2.905-5.02.536-1.756.656-2.707.655-5.18 0-1.666-.124-3.505-.274-4.088-.41-1.588-2.169-4.894-2.605-4.894-.21 0-.305-.078-.21-.172.196-.196-.763-1.091-2.402-2.242-3.018-2.117-4.807-2.348-18.225-2.348-9.683 0-10.904.045-11.047.418-.22.573-.204 26.701.016 26.921.298.298 21.65.201 23.718-.107zm-2.554-33.835c2.673-.307 5.02-1.06 6.517-2.09 1.353-.931 3.153-2.912 2.948-3.245-.08-.128-.012-.234.15-.234.498 0 1.548-2.669 1.874-4.762.172-1.107.249-3.18.173-4.69-.122-2.43-.238-2.922-1.143-4.85-.553-1.179-1.248-2.313-1.543-2.52-.295-.207-.44-.376-.323-.376.117 0-.282-.474-.885-1.054-1.237-1.189-4.298-2.729-6.09-3.064-.654-.123-6.072-.229-12.038-.235l-10.848-.012-.069 13.541-.068 13.541.598.115c1.2.23 18.65.176 20.747-.065zm59.622 39.84c-1.237-.323-2.654-.79-3.15-1.038-.495-.247-1.06-.45-1.256-.45-.196 0-.356-.093-.356-.207 0-.115-.341-.41-.758-.656-.833-.492-3.211-2.754-3.211-3.054 0-.104-.303-.515-.672-.914-.37-.399-.606-.725-.525-.725.081 0-.15-.588-.515-1.307-1.45-2.863-1.838-5.02-1.833-10.202.004-4.283.076-5.05.716-7.602.72-2.87 1.155-4.179 2.064-6.22.275-.617.5-1.302.5-1.521 0-.22.098-.4.218-.4s.479-.566.798-1.257c.803-1.737 1.218-2.223 1.729-2.027.237.091.43.272.43.402s.164.236.365.236c.2 0 .511.177.691.394.18.217.433.329.562.249.129-.08.234-.019.234.135s.199.28.441.28c.243 0 .363.079.267.175-.096.096.063.341.353.545.452.316.482.455.207.95-.177.318-.296.669-.265.778.03.109-.052.198-.183.198-.196 0-.452.5-.947 1.852-.026.073-.3.695-.61 1.383-.924 2.058-1.385 3.877-1.787 7.052-.44 3.477-.192 6.973.694 9.777.548 1.737 2.23 4.465 2.674 4.337.14-.04.185.04.1.178-.181.292 1.077 1.35 1.606 1.35.198 0 .36.097.36.216 0 .38 1.781 1.08 3.495 1.37 1.086.186 6.817.258 16.463.21 13.243-.068 14.758-.118 14.42-.479-.208-.222-.398-.52-.423-.662-.053-.304-1.799-3.29-2.195-3.752-.15-.176-.274-.39-.274-.475 0-.21-3.515-6.315-3.732-6.482-.094-.073-.885-1.56-1.758-3.307-1.894-3.791-3.365-7.633-3.905-10.2-.578-2.745-.514-7.652.139-10.64.654-2.999.885-3.638 2.45-6.81 1.701-3.447 3.095-5.502 5.73-8.447.446-.5.812-1.005.812-1.125 0-.119.12-.217.267-.217.234 0 1.24-.793 2.264-1.786.653-.633 1.117-.32 1.965 1.323.469.91 6.026 11.983 12.35 24.607 6.323 12.624 11.615 22.952 11.76 22.952.146 0 .19.12.101.265-.09.145-.067.264.052.264s.374.358.568.796c.194.437 1.055 1.498 1.914 2.357 1.718 1.718 2.723 2.08 4.808 1.734 1.284-.214 3.109-1.067 3.109-1.452 0-.143.179-.26.397-.26.218 0 .397-.1.397-.224 0-.123.235-.495.522-.826.287-.331.793-1.272 1.125-2.091l.602-1.489.071-30.764.072-30.764 1.516-.675a154.61 154.61 0 0 0 2.865-1.317c.742-.353 1.522-.641 1.733-.641.211 0 .523-.14.693-.31.235-.235.342-.219.448.067.077.206.17 14.663.208 32.125.057 27.189.122 31.845.45 32.411.212.364.41.809.44.989.106.631 1.142 2.061 1.969 2.716.46.363.974.791 1.143.95.523.49 1.428.902 1.978.902.289 0 .574.149.635.33.083.25 1.754.354 6.815.425l6.706.093-.699-.887a42.452 42.452 0 0 0-1.104-1.35c-.224-.255-.426-.553-.448-.662-.04-.191-.436-1.18-1.138-2.844-.796-1.885-1.045-3.792-1.019-7.805.027-4.082.183-5.106 1.269-8.335.51-1.518 2.295-4.612 3.058-5.302.284-.258.519-.599.521-.758.006-.392 3.544-2.885 5.023-3.539 2.461-1.088 4.168-1.602 6.35-1.913 2.393-.341 6.74-.226 8.731.23.655.15 1.548.35 1.985.444.436.094 1.21.36 1.72.59.509.23 1.283.491 1.72.581l.793.164.132 15.6.132 15.6h3.07c2.837 0 4.051-.238 4.736-.927.072-.073.43-.29.793-.482.866-.456 2-2.258 2.386-3.79.22-.878.273-4.947.186-14.547-.115-12.669-.15-13.423-.69-15.26-1.866-6.335-5.7-10.346-11.407-11.929a89.443 89.443 0 0 1-2.107-.614c-1.21-.376-7.384-.508-9.434-.203-2.558.382-6.512 1.89-7.235 2.76-.186.225-.441.409-.568.409-.448 0-2.696 2.09-3.41 3.17-1.11 1.681-.925 1.67-3.902.244-1.492-.714-2.712-1.408-2.712-1.54 0-.302 2.428-3.89 3.238-4.785.917-1.015 3.575-3.115 4.935-3.9.67-.388 1.279-.772 1.352-.854.208-.235 3.352-1.24 5.82-1.861 1.918-.483 3.016-.566 7.456-.567 3.203 0 5.411.11 5.737.284.292.156.807.285 1.144.286 1.604.005 7.268 2.356 9.69 4.022 1.313.904 4.549 4.094 4.549 4.486 0 .139.137.167.305.064.168-.104.234-.074.147.067-.087.14.08.605.37 1.033 2.155 3.17 3.529 7.544 3.944 12.55.346 4.177.329 25.88-.022 28.045-.776 4.782-3.897 8.286-8.6 9.653-1.195.348-4.69.403-25.475.403-23.546 0-25.437-.057-27.687-.839-2.048-.71-4.244-2.02-5.743-3.425l-1.643-1.54-1.473 1.455c-1.621 1.602-2.575 2.304-3.974 2.924-.509.226-1.107.504-1.33.619-1.467.754-5.894.952-8.681.388-1.271-.257-3.712-1.798-4.904-3.096-2.322-2.53-2.939-3.625-10.827-19.24-3.344-6.622-6.184-12.079-6.309-12.127-.125-.049-.228-.24-.228-.424s-.312-.918-.694-1.631c-.382-.713-1.883-3.649-3.336-6.524-1.453-2.875-2.738-5.287-2.856-5.36-.538-.333-2.987 4.21-3.854 7.148-.567 1.92-.637 6.445-.132 8.599.396 1.692 1.823 5.917 2.323 6.88.19.363.345.756.346.874.003.455 3.058 6.282 4.986 9.51a375.726 375.726 0 0 1 2.704 4.586c.373.655.82 1.395.992 1.643.494.707 1.97 3.235 2.696 4.619.364.691.75 1.257.86 1.257.11 0 .199.21.199.465 0 .257.268.767.595 1.135.327.367.616.783.642.923.026.14.127.463.227.718.17.439-.93.462-20.95.442-20.942-.02-21.148-.026-23.377-.608zm119.438-5.617c.374-.144.418-1.579.418-13.478 0-10.368-.073-13.364-.33-13.524-.182-.114-1.82-.195-3.638-.181-3.762.029-5.603.501-8.002 2.054-1.296.839-3.11 2.542-3.11 2.92 0 .092-.216.398-.48.68-.726.78-1.561 3.54-1.922 6.353-.277 2.164-.262 2.853.107 4.842.512 2.76.968 3.826 2.406 5.627 1.188 1.488 2.896 2.736 4.52 3.304.582.204 1.116.445 1.189.536.073.09.549.233 1.058.317.51.083 1.403.263 1.985.4 1.215.287 5.176.389 5.799.15zm37.196 6.126c0-.11.27-.818.814-2.13.12-.29.512-1.243.869-2.116l.65-1.587 2.802-.075 2.802-.075.003-25.987.003-25.986.712-.33c.392-.183.807-.332.923-.332.207 0 3.335-1.377 4.244-1.868.253-.137.699-.248.991-.248.529 0 .532.158.6 27.318l.067 27.318h3.599c2.53 0 3.827-.11 4.366-.368.421-.202 1.165-.56 1.654-.793 1.044-.501 3.051-2.644 3.74-3.993 1.028-2.016 1.065-3.204 1.055-33.47l-.01-29.374 2.606-1.058c1.433-.582 2.895-1.243 3.249-1.47.353-.226.85-.366 1.105-.31.437.093.462 1.437.436 23.958-.015 13.123-.11 27.61-.212 32.194-.205 9.31-.267 9.661-2.31 13.022-1.658 2.73-3.956 4.809-6.782 6.135-1.343.63-3.01 1.28-3.703 1.445-1.216.29-24.272.46-24.272.18zm51.858-36.945V96.792l.794-.3c.436-.165.793-.393.793-.506 0-.114.237-.207.525-.207.289 0 1.244-.348 2.123-.774.88-.426 1.953-.852 2.386-.947l.787-.173v77.036h-7.408zm47.576 33.03c-.026-2.22-.033-4.304-.015-4.633.034-.634.631-1.386 1.1-1.386.296 0 1-.53 2.028-1.522.339-.327.696-.595.793-.595.323 0 3.527-3.376 3.36-3.542-.088-.089.057-.162.324-.162.266 0 .418-.067.336-.148-.081-.082.107-.416.42-.743.311-.328.745-.87.963-1.207.219-.337.516-.747.662-.911 1.493-1.683 4.205-7.33 5.354-11.146 1.011-3.36 1.024-3.427 1.912-9.576.437-3.027.326-40.338-.133-44.796-.423-4.113-.756-6.512-1.14-8.202-.6-2.654-1.05-4.407-1.323-5.16a30.127 30.127 0 0 1-.618-2.05c-.182-.691-.424-1.257-.538-1.257-.114 0-.207-.191-.207-.425 0-.233-.298-1.017-.661-1.741-.364-.724-.662-1.486-.662-1.692 0-.207-.117-.375-.26-.375-.142 0-.34-.328-.437-.728-.098-.4-.256-.787-.352-.86-.096-.073-.574-.936-1.063-1.918-.489-.982-.973-1.786-1.076-1.786-.103 0-.335-.357-.516-.794-.18-.436-.425-.793-.543-.793-.118 0-.286-.224-.373-.498-.087-.274-.363-.74-.613-1.034-.25-.295-.634-.804-.852-1.131-.219-.328-.803-1.023-1.3-1.546-.495-.523-.853-1.01-.793-1.083.06-.073-.16-.25-.487-.394-.327-.143-.595-.39-.595-.55 0-.401-3.49-3.819-3.9-3.819-.183 0-.334-.182-.334-.405 0-.223-.196-.48-.436-.572-.24-.092-.758-.505-1.153-.918-.394-.413-.792-.75-.884-.75-.163 0-.95-.603-1.638-1.257-.192-.182-.543-.331-.78-.331s-.369-.101-.293-.225c.077-.123-.182-.391-.576-.595-.71-.368-1.387-.861-2.055-1.495-.192-.182-.536-.33-.765-.33-.228 0-.415-.12-.415-.265 0-.146-.166-.265-.369-.265-.203 0-.44-.188-.53-.419-.088-.23-.16-9.517-.16-20.637V0h197.373l.07 20.307.069 20.307-.662.595c-.364.327-.81.595-.992.595-.182 0-.33.12-.33.265 0 .145-.18.264-.398.264-.218 0-.396.12-.396.265 0 .145-.18.265-.397.265-.219 0-.397.119-.397.264 0 .146-.179.265-.397.265-.218 0-.397.119-.397.264 0 .146-.149.265-.33.265-.183 0-.648.268-1.035.595-.387.328-1.215 1.012-1.84 1.522a32.812 32.812 0 0 0-2 1.785c-.474.473-.925.86-1.002.86-.205 0-3.318 3.1-3.318 3.304 0 .278-.729.93-1.04.93-.155 0-.283.1-.283.224 0 .123-.248.51-.552.86-.303.35-.81.972-1.124 1.383-.315.41-.9 1.108-1.3 1.549-.4.441-.728.9-.728 1.02s-.149.378-.33.575c-.512.553-1.233 1.804-1.837 3.186-.302.691-.628 1.257-.723 1.257-.158 0-2.004 3.715-3.052 6.142-.528 1.223-1.454 4.003-1.743 5.235a64.9 64.9 0 0 1-.51 1.984c-.317 1.152-.585 2.553-1.262 6.615-.388 2.326-.442 5.473-.453 26.061-.01 18.915.059 23.797.356 25.4.425 2.29 1.815 7.796 2.129 8.432.712 1.446 1.34 3.014 1.34 3.35 0 .214.119.39.264.39.146 0 .265.23.265.513 0 .282.112.583.249.667.137.085.515.687.84 1.339.326.651.69 1.184.81 1.184.12 0 .217.187.217.416 0 .229.15.571.331.761.182.19.51.61.728.932.218.323.594.82.836 1.104.241.284.836 1.007 1.322 1.606 1.183 1.457 2.785 3.119 3.006 3.119.099 0 .513.357.921.794.408.436.872.793 1.032.793.16 0 .291.12.291.265 0 .145.128.265.283.265.156 0 .46.175.675.39.215.216.556.484.758.597.288.16.374 1.15.401 4.57.019 2.4.026 4.513.017 4.695-.014.264-17.613.33-87.065.33h-87.048l-.049-4.034zm115.677-14.75c.336-.531.345-63.98.01-66.36-.137-.974-.387-2.783-.555-4.02-.168-1.237-.423-2.725-.565-3.307-.143-.582-.36-1.475-.483-1.984-.562-2.326-1.674-5.557-1.913-5.557-.146 0-.207-.302-.136-.672.178-.934-3.758-8.966-5.32-10.854-.127-.154-.386-.571-.574-.926a4.674 4.674 0 0 0-.87-1.108c-.29-.254-.441-.463-.336-.463.105 0 .034-.164-.158-.364a8.983 8.983 0 0 1-.746-.947c-1-1.465-5.592-6.362-5.967-6.362-.073 0-.652-.506-1.286-1.124-1.898-1.85-3.419-3.1-4.19-3.443-.4-.178-.728-.41-.728-.516 0-.247-3.856-2.854-4.222-2.854-.152 0-.276-.108-.276-.24s-.297-.102-.66.066c-.362.169-.66.396-.661.505 0 .109-.18.198-.399.198-.218 0-.397.12-.397.265 0 .145-.178.264-.397.264-.218 0-.397.091-.397.202 0 .112-.476.497-1.058.857-.582.36-1.058.745-1.058.856 0 .111-.133.202-.294.202-.3 0-2.67 1.864-3.441 2.707-.236.257-.502.468-.593.468-.19 0-1.157.77-1.592 1.268-.164.188-1.22 1.258-2.348 2.379-1.128 1.12-2.051 2.11-2.051 2.2 0 .091-.536.74-1.19 1.443-.655.704-1.191 1.366-1.191 1.473 0 .107-.15.352-.331.545-.182.192-.688.885-1.124 1.54-.436.655-.87 1.25-.965 1.323-.094.073-.464.682-.82 1.354-.358.671-.846 1.502-1.086 1.844-.24.343-.437.835-.437 1.094 0 .259-.126.47-.28.47-.154 0-.207.12-.117.265.09.145.03.264-.132.264-.163 0-.228.11-.146.242.082.134.06.282-.05.331-.203.09-1.313 2.553-1.591 3.528-.083.292-.227.59-.32.662-.26.203-1.597 4.585-1.597 5.236 0 .316-.17 1.023-.376 1.572-.574 1.522-1.347 6.57-1.74 11.361-.157 1.903-.265 15.728-.265 33.79v30.568l1.918.097c1.055.053 13.918.088 28.585.078 23.401-.017 26.697-.068 26.917-.417zm-214.426-44.622c.35-.967.637-1.801.637-1.854 0-.053.477-.286 1.059-.519.582-.233 1.058-.528 1.058-.657 0-.35-1.391-3.79-1.595-3.942-.097-.073-.202-.981-.233-2.018-.045-1.469.07-2.156.518-3.11.316-.672.688-1.222.826-1.222s.177-.12.087-.265c-.09-.145.007-.264.217-.264.209 0 .534-.186.722-.413.458-.551 1.818-1.099 3.477-1.4 1.09-.199 1.648-.153 2.798.226.79.26 1.55.586 1.687.724.238.238-.072 2.308-.394 2.63-.077.077-.522-.051-.99-.285-1.048-.522-1.764-.535-2.92-.05-1.912.8-2.71 2.492-2.077 4.406.189.572.45 1.04.581 1.04.13 0 .182.091.114.202-.19.307.557 1.915.89 1.915.16 0 .225.11.142.243-.082.133.209.107.646-.058.438-.166.796-.4.796-.523 0-.122.098-.162.217-.088.12.074.55-.038.957-.249.406-.21.844-.383.972-.383.129 0 .99-.357 1.914-.794 2.41-1.138 2.554-1.099 2.554.699 0 1.616-.394 2.187-1.52 2.203-.328.005-.596.128-.596.273 0 .146-.18.265-.4.265-.221 0-.608.109-.86.242-.612.323-2.041.933-3.503 1.496-.655.252-1.303.56-1.442.683-.138.124-.465.225-.727.225-.262 0-.477.119-.477.264 0 .146-.21.265-.465.265-.256 0-1.417.415-2.58.923-1.163.507-2.252.924-2.421.926-.2.002-.084-.613.33-1.756z" fill="#fff" stroke-width=".265"/></svg>