<svg xmlns="http://www.w3.org/2000/svg" width="2000" height="476.93" viewBox="0 0 529.167 126.188"><path d="M220.984 125.514c-2.765-1.377-5.632-4.666-6.433-7.38-.195-.658-.423-1.197-.507-1.197-.084 0-.624.486-1.2 1.08-2.65 2.74-6.66 5.335-9.935 6.431-4.037 1.352-10.521 1.476-15.196.292-4.54-1.15-8.904-4.474-10.78-8.212-1.766-3.514-2.176-5.333-2.176-9.646 0-3.281.09-4.123.62-5.82 2.84-9.094 10.567-14.512 23.59-16.54 1.58-.246 5.318-.497 8.665-.582l5.887-.149-.002-3.602c-.004-6.931-.574-9.35-2.706-11.482-3.625-3.625-10.606-3.928-18.926-.82-3.421 1.278-6.175 2.682-8.229 4.196-.926.683-1.779 1.142-1.895 1.021-.4-.42-4.755-6.778-4.755-6.944 0-.267 3.349-2.24 6.218-3.664 6.143-3.05 12.209-4.662 18.785-4.995 10.878-.55 18.173 3.626 20.626 11.81.753 2.512.957 8.583.66 19.712-.428 16.068-.432 21.718-.019 23.548.636 2.812 1.935 4.727 4.217 6.218l.608.397-2.463 3.494c-1.354 1.922-2.647 3.5-2.873 3.506-.226.006-1.027-.296-1.78-.672zm-19.783-8.044c4.123-1.055 7.93-3.798 10.375-7.475l1.257-1.89.195-8.476c.108-4.661.146-8.525.085-8.587-.062-.06-1.82-.17-3.908-.24-6.663-.226-12.107.621-16.015 2.492-3.495 1.674-6.147 5.093-6.924 8.927-.407 2.005-.396 6.275.02 7.97.99 4.036 3.516 6.61 7.384 7.53 1.765.419 5.381.298 7.53-.251zm181.082 8.328c-10.57-1.992-16.353-9.1-16.359-20.106-.003-6.608 1.554-11.093 5.186-14.944 3.513-3.724 8.54-6.069 15.579-7.264 3.22-.547 9.983-.95 12.71-.758 1.855.13 2.251.09 2.381-.249.289-.753-.337-7.723-.791-8.81-.904-2.164-2.637-3.226-5.675-3.48-4.883-.41-11.433 1.73-18.238 5.957-1.212.754-2.283 1.366-2.38 1.36-.15-.008-1.855-2.825-6.73-11.118l-.73-1.243 1.788-1.059c5.775-3.416 13.853-6.507 19.983-7.647 3.492-.65 11.152-.64 14.218.016 9.237 1.977 14.125 6.654 15.376 14.71.223 1.44.263 6.498.146 18.39-.18 18.307-.124 19.172 1.436 22.098.56 1.05 1.523 2.227 2.71 3.31l1.84 1.68-.766.926c-.421.51-2.254 2.655-4.073 4.768l-3.308 3.842-1.601.01c-1.341.008-1.81-.121-2.874-.796-1.671-1.06-3.985-3.262-4.992-4.75a77.413 77.413 0 0 0-.882-1.289c-.043-.054-.936.685-1.985 1.642-2.105 1.922-5.066 3.56-8.038 4.447-2.455.733-10.802.947-13.931.358zm14.343-13.266c.996-.466 2.354-1.412 3.208-2.237l1.482-1.428-.217-4.763c-.119-2.619-.225-5.822-.236-7.118l-.019-2.356-3.287.167c-9.337.473-12.537 2.668-13.031 8.936-.276 3.5.598 5.992 2.79 7.964 1.68 1.51 2.558 1.792 5.33 1.71 1.874-.056 2.545-.203 3.98-.875zM135.073 125.11c-10.668-1.122-18.945-8.05-22.565-18.889-1.612-4.825-2.195-8.986-2.195-15.65.001-11.941 2.472-18.878 9.135-25.649 3.877-3.94 7.778-6.11 12.82-7.13 3.03-.615 9.042-.426 12.048.379a23.237 23.237 0 0 1 11.6 7.348c3.126 3.686 4.743 7.608 5.597 13.582.424 2.962 1.074 13.714.843 13.945-.076.076-7.496.414-16.49.752-8.994.338-18.05.694-20.123.792l-3.77.177.002 2.023c.003 4.325 1.08 8.924 2.773 11.844 1.292 2.228 4.206 4.863 6.75 6.103 3.414 1.662 5.272 2.047 9.79 2.026 3.062-.013 4.264-.132 5.953-.589 2.771-.748 5.942-2.338 8.021-4.022.92-.744 1.705-1.312 1.745-1.261.04.05.917 1.508 1.948 3.238l1.874 3.146-1.095.915c-3.427 2.863-8.168 5.146-13.042 6.28-1.908.445-6.545.948-8.276.898-.676-.02-2.18-.135-3.342-.258zm16.533-40.539c0-1.931-.608-6.754-1.09-8.635-.28-1.097-.861-2.746-1.291-3.665-3.512-7.504-15.781-9.346-21.828-3.277-3.03 3.04-4.842 7.863-5.327 14.179l-.175 2.278h29.711zm295.672 40.398c-2.649-.56-5.891-2.202-7.756-3.928-2.171-2.01-3.298-4.202-4.356-8.47-.162-.651-.345-15.046-.477-37.439-.157-26.625-.307-37.329-.561-39.918-.23-2.345-.258-3.573-.081-3.64.618-.235 16.68-3.802 17.117-3.802.273 0 .488.2.499.463.01.255.142 1.118.291 1.918.173.922.347 15.508.475 39.82.142 26.907.292 38.752.502 39.662.61 2.647 2.437 4.043 4.951 3.784l1.348-.14 1.394 4.938c.766 2.716 1.41 5.04 1.432 5.166.021.126-.616.457-1.417.736-3.533 1.23-9.7 1.623-13.361.85zm-182.695-.373c-12.085-1.489-19.998-10.135-22.075-24.12-1.832-12.34.388-24.308 5.9-31.797 3.66-4.974 9.18-8.934 14.265-10.234 2.768-.708 7.593-.699 10.593.02 4.12.989 8.237 3.329 10.728 6.1l1.223 1.36.068-18.504.068-18.504 4.895.816 4.895.817.156 41.275c.11 28.75.251 42.193.469 44.3.309 2.997.8 5.56 1.334 6.963l.276.728H286.905l-.428-1.39a19.816 19.816 0 0 1-.6-2.711c-.324-2.497-.274-2.48-2.073-.73-2.854 2.778-5.397 4.18-9.252 5.1-2.549.609-7.227.849-9.969.51zm9.632-8.976c3.778-.966 7.916-3.727 9.873-6.586l1.133-1.656V72.957l-1.918-1.914c-2.934-2.925-5.841-4.125-11.327-4.673-7.633-.763-12.661 2.08-16.128 9.12-2.292 4.652-3.167 11.576-2.654 20.985.484 8.87 1.766 12.503 5.739 16.261 2.796 2.646 4.894 3.363 9.907 3.39 2.497.013 3.843-.114 5.375-.506zM0 79.25V34.65l11.576.004c12.793.004 20.551.303 23.751.915 7.973 1.526 14.05 5.925 17.19 12.443 1.568 3.256 2.074 5.443 2.083 8.996.024 9.139-4.997 15.468-15.31 19.3-.39.145.34.456 2.779 1.183 4.083 1.219 4.881 1.561 7.146 3.066 7.428 4.939 11.077 16.053 8.336 25.39-2.693 9.173-9.152 15.11-18.79 17.27-1.557.35-4.788.433-20.306.523L0 123.85zm37.306 35.075c1.092-.328 2.474-.883 3.073-1.232 2.67-1.557 5.038-5.08 6.23-9.268.776-2.727.832-7.565.118-10.167-1.28-4.66-4.26-8.447-7.92-10.066-2.997-1.326-8.847-1.835-21.146-1.841l-7.342-.004v33.37l12.501-.097c12.066-.094 12.571-.119 14.486-.695zm-3.762-41.929c4.32-1.134 6.752-3.596 8.397-8.498 1.89-5.626.737-11.762-2.957-15.752-1.776-1.92-3.604-3-6.347-3.756-1.922-.53-2.834-.58-12.198-.68l-10.12-.106V73.057l10.782-.112c8.911-.092 11.07-.188 12.443-.549zm41 22.911c-.1-30.98-.021-29.296-1.557-33.478-.31-.842-.505-1.588-.434-1.658.07-.07 2.14-.668 4.6-1.328 2.459-.66 4.665-1.256 4.903-1.326.839-.248 2.201 4.092 2.561 8.16l.182 2.052 1.593-1.92c4.916-5.926 12.892-9.569 18.391-8.402.947.201 1.562.46 1.498.633l-2.061 5.517-1.954 5.226-.928-.199c-1.284-.274-4.129-.16-5.559.224-2.884.774-6.295 2.965-8.154 5.237-1.455 1.778-1.851 2.485-2.351 4.19-.408 1.391-.441 3.493-.37 23.554l.079 22.027H74.635zm254.598-9.194V48.41h-21.96V33.329h65.144l-.145.595c-.08.327-.629 3.095-1.22 6.151a1396.95 1396.95 0 0 1-1.358 6.945l-.282 1.39h-21.658v75.406h-18.521zm140.163-4.961c-.078-39.287-.122-42.933-.559-46.062-.26-1.868-.407-3.463-.327-3.544.194-.193 17.14-4.342 17.258-4.225.235.235.649 4.519.887 9.182.152 2.971.265 22.584.267 46.236v41.077h-17.445zM498.487 105c-8.556-14.402-11.126-18.923-10.953-19.276.124-.253 3.961-6.847 8.527-14.654l8.301-14.195h10.434c8.276 0 10.392.069 10.234.331-.158.26-19.878 26.478-20.764 27.603-.14.178 4.507 7.283 12.338 18.866 9.524 14.087 12.563 18.77 12.563 19.36v.78H509.666zm15.328-75.648c-11.307-1.358-16.74-14.288-9.913-23.598C506.344 2.424 511.246 0 515.54 0c4.966 0 10.14 2.932 12.633 7.16l.993 1.682v5.81c0 5.254-.05 5.912-.525 6.885-2.551 5.231-8.822 8.537-14.827 7.816zm4.557-1.614c6.274-1.332 10.948-7.54 10.434-13.858-.286-3.506-1.666-6.377-4.233-8.805-2.504-2.368-5.407-3.49-9.05-3.495-3.734-.005-6.664 1.206-9.304 3.846-6.365 6.365-4.684 17.074 3.315 21.127 2.758 1.398 5.87 1.815 8.838 1.185zm-7.462-12.667V6.87l3.638.006c3.014.005 3.83.093 4.757.514 2.655 1.205 3.293 5.135 1.21 7.442-.518.572-1.22 1.11-1.56 1.196l-.62.156 1.007 1.495c1.236 1.835 3.21 5.163 3.21 5.412 0 .101-.827.183-1.837.183h-1.837l-1.48-2.638c-1.505-2.68-2.635-4.24-3.072-4.24-.132 0-.24 1.546-.24 3.439v3.44h-3.176zm6.424-1.47c.485-.185.985-1.264.985-2.126 0-.364-.292-.954-.65-1.31-.533-.534-.911-.65-2.116-.65h-1.468v4.571l1.433-.169c.788-.092 1.605-.234 1.816-.315z" fill="#fff" stroke-width=".265"/></svg>