<svg id="Слой_1" data-name="Слой 1" xmlns="http://www.w3.org/2000/svg" viewBox="0 0 27.47 16.43"><defs><style>.cls-1{fill:#fff}</style></defs><path class="cls-1" d="M239.05 2262.37a6 6 0 0 1-1.41-.16 4 4 0 0 1-1-.37.53.53 0 0 1-.34-.51v-.46c0-.19.08-.29.21-.29a.51.51 0 0 1 .17 0l.23.09a4.5 4.5 0 0 0 1 .32 5 5 0 0 0 1.09.11 2.47 2.47 0 0 0 1.33-.3 1 1 0 0 0 .48-.87.93.93 0 0 0-.25-.64 2.27 2.27 0 0 0-.92-.47l-1.33-.41a2.76 2.76 0 0 1-1.46-.94 2.16 2.16 0 0 1-.46-1.32 2.07 2.07 0 0 1 .25-1 2.16 2.16 0 0 1 .66-.75 2.83 2.83 0 0 1 .95-.48 3.94 3.94 0 0 1 1.15-.15h.61l.6.1c.18 0 .35.09.52.15a2.06 2.06 0 0 1 .38.16.8.8 0 0 1 .27.23.49.49 0 0 1 .09.3v.43c0 .2-.08.3-.21.3a1 1 0 0 1-.35-.11 4.16 4.16 0 0 0-1.76-.36 2.27 2.27 0 0 0-1.21.26.87.87 0 0 0-.43.81.89.89 0 0 0 .27.65 3 3 0 0 0 1 .5l1.3.41a2.74 2.74 0 0 1 1.41.88 2 2 0 0 1 .42 1.28 2.43 2.43 0 0 1-.23 1.06 2.58 2.58 0 0 1-.67.8 2.88 2.88 0 0 1-1 .51 4.26 4.26 0 0 1-1.3.19m-11.74-.24a.53.53 0 0 1-.35-.09.79.79 0 0 1-.19-.36l-2.15-7.06a1.77 1.77 0 0 1-.08-.37.2.2 0 0 1 .22-.23h.89a.47.47 0 0 1 .36.1.7.7 0 0 1 .18.35l1.54 6.05 1.42-6.05a.59.59 0 0 1 .18-.35.57.57 0 0 1 .36-.1h.73a.51.51 0 0 1 .37.1.57.57 0 0 1 .17.35l1.45 6.12 1.58-6.12a.74.74 0 0 1 .18-.35.55.55 0 0 1 .36-.1h.85a.2.2 0 0 1 .22.23v.15a1.32 1.32 0 0 1-.07.23l-2.2 7.06a.83.83 0 0 1-.19.36.64.64 0 0 1-.35.09H232a.56.56 0 0 1-.36-.09.67.67 0 0 1-.17-.37l-1.42-5.89-1.41 5.88a.75.75 0 0 1-.17.37.59.59 0 0 1-.37.09zm-7.34-1a3 3 0 0 0 .94-.16 2 2 0 0 0 .87-.59 1.31 1.31 0 0 0 .31-.58 3.09 3.09 0 0 0 .09-.8v-.38a7 7 0 0 0-.84-.16 8.27 8.27 0 0 0-.86 0 2.15 2.15 0 0 0-1.36.36 1.29 1.29 0 0 0-.45 1 1.18 1.18 0 0 0 1.3 1.31m3.71-1.39a3 3 0 0 0 .1.82 5 5 0 0 0 .29.65.4.4 0 0 1 .07.21.38.38 0 0 1-.18.28l-.57.38a.4.4 0 0 1-.24.08.41.41 0 0 1-.27-.12 3.09 3.09 0 0 1-.33-.43c-.09-.16-.19-.33-.29-.54a3.36 3.36 0 0 1-2.68 1.26 2.5 2.5 0 0 1-1.83-.66 2.33 2.33 0 0 1-.68-1.75 2.37 2.37 0 0 1 .84-1.89 3.31 3.31 0 0 1 2.23-.71 8.05 8.05 0 0 1 1 .07q.51.07 1 .21v-.67a2 2 0 0 0-.43-1.46 2 2 0 0 0-1.48-.42 3.83 3.83 0 0 0-1 .12 6.69 6.69 0 0 0-1 .31 1.51 1.51 0 0 1-.32.11h-.14c-.13 0-.2-.09-.2-.28v-.45a.54.54 0 0 1 .07-.32.67.67 0 0 1 .25-.19 5.13 5.13 0 0 1 1.15-.41 5.55 5.55 0 0 1 1.43-.18 3.34 3.34 0 0 1 2.39.74 3 3 0 0 1 .76 2.25v3zM242 2265.39c-.39-.49-2.54-.24-3.52-.12-.29 0-.34-.22-.07-.41 1.71-1.21 4.54-.86 4.87-.46s-.1 3.24-1.7 4.59c-.25.21-.49.1-.38-.17.37-.91 1.18-3 .8-3.43m-1.25 1.43a19.73 19.73 0 0 1-11.13 3.39 20.1 20.1 0 0 1-13.59-5.18c-.28-.25 0-.6.31-.4a27.39 27.39 0 0 0 13.6 3.61 27.06 27.06 0 0 0 10.37-2.12c.5-.23.93.33.44.7" transform="translate(-215.94 -2253.79)"/></svg>