<svg xmlns="http://www.w3.org/2000/svg" width="642.667" height="225.21" viewBox="0 0 170.039 59.587"><path d="M20.015 59.236c-1.972-.465-4.017-1.606-5.763-3.214L12.7 54.59v3.97H0V0h12.7v12.876c0 7.082.098 12.877.218 12.877s.787-.5 1.483-1.111c.696-.611 2.146-1.524 3.222-2.029 1.752-.821 2.38-.917 6.013-.917 3.396 0 4.43.137 6.35.84 7.869 2.882 12.374 10.117 11.888 19.092-.572 10.576-8.293 18.122-18.374 17.956-1.186-.02-2.755-.176-3.485-.348zm4.897-11.811c1.048-.648 2.115-1.718 2.772-2.78.91-1.473 1.066-2.069 1.055-4.048-.024-4.846-3.274-8.15-8-8.134-4.024.014-6.786 2.096-7.92 5.97-2.042 6.979 5.854 12.85 12.093 8.992zM157.34 59.397c-10.972-2.095-17.836-12.403-15.333-23.025.755-3.202 2.83-6.933 5.142-9.246 4.992-4.995 13.818-6.934 20.686-4.545l2.205.767V34.1l-2.119-1.05c-1.733-.859-2.562-1.05-4.554-1.05-2.054 0-2.732.166-4.32 1.06-3.408 1.916-5.003 5.47-4.197 9.353.747 3.599 3.117 5.922 6.836 6.702 2.354.494 5.207-.038 7.101-1.323l1.253-.85v10.85l-2.205.775c-2.173.765-8.301 1.25-10.495.83zM47.625 40.569V22.578h12.7v5.75l1.027-1.418c2.37-3.272 7.352-5.277 11.817-4.756l1.267.148v11.834l-1.323-.472c-.727-.26-2.513-.475-3.969-.48-3.157-.009-4.958.69-6.602 2.563-1.955 2.227-2.217 3.865-2.217 13.882v8.932h-12.7zm30.692 0V22.578h12.7V58.56h-12.7zm19.755 0V22.578h12.7V26.9l1.614-1.488c.888-.818 2.515-1.91 3.616-2.426 1.829-.857 2.369-.937 6.235-.92 5.437.022 7.536.757 10.431 3.655 3.284 3.287 3.274 3.234 3.422 19.169l.127 13.67h-12.651l-.16-11.219c-.147-10.174-.225-11.347-.842-12.59-1.044-2.104-2.259-2.811-4.842-2.82-2.914-.008-4.57.832-5.815 2.95l-.958 1.63-.107 11.025-.107 11.024H98.072zM82.021 14.327c-3.026-1.322-4.618-4.046-4.339-7.42.36-4.343 4.574-7.317 8.78-6.198 6.697 1.783 7.335 10.897.95 13.56-1.585.662-3.951.687-5.391.058z" fill="#fff" stroke-width=".353"/></svg>