<svg version="1.1" id="Layer_1" xmlns="http://www.w3.org/2000/svg" x="0" y="0" viewBox="0 0 171 65" xml:space="preserve"><style>.st3{fill:#fff}</style><g id="Page-15"><g id="Group-2"><path id="Fill-1867" d="M21.7 43.5l5 2.2-5 2.1 5 2.1-5.1 2.2 5.1 2.1-5 2.1 5 2.2-5 2.1 5 2.1-5 2.1h113.4V43.5z" fill="#d8213a"/><path id="Fill-1868" d="M36.9 59.3s-1.3-.1-1.6-.2v-4.7c.3 0 1.3-.1 1.3-.1 1.2-.1 2.2.3 2.8.9.5.4.7 1 .7 1.7s-.2 1.3-.7 1.7c-.5.5-1.5.8-2.5.7zm-1.1-6.5h-.5v-3.7c.3 0 1.2-.1 1.2-.1.7-.1 1.3.1 1.8.5.4.3.6.8.6 1.3 0 1.9-2.6 2-3.1 2zm3.8.3c1.2-.6 1.8-1.5 1.8-2.6 0-1.9-1.7-3.1-4.4-3.1h-4.9v.3h.1c.8.3.8 1.5.8 2.3v8.2c0 .9 0 2.1-.8 2.4h-.1v.3h4.1c1.4 0 2.8 0 4-.6 1.6-.7 2.6-2.2 2.6-3.7-.1-1.6-1.2-2.9-3.2-3.5zm13 1.1h-3.5c.3-.6 1.4-3.6 1.8-4.5.2.8 1.4 3.8 1.7 4.5zm4 3.9l-.1-.3c0-.1-4.2-10.2-4.2-10.3h-3.4v.3h.1c.2.1.4.2.5.3.1.3 0 .8-.2 1.2L45.8 58c-.4 1-.8 2-1.8 2.5h-.1l.1.3h3.8v-.3h-.1c-.3-.1-.5-.2-.6-.4 0-.1-.1-.2-.1-.3 0-.3.1-.7.3-1.2 0 0 .8-2.3 1-2.7h4.9c.1.4.7 2 1 2.7l.1.3c.2.5.3.8.3 1 0 .2-.1.3-.6.6h-.1v.3h4.3l.1-.3h-.1c-.8-.5-1.2-1.4-1.6-2.4zm17.5-10.3v-.4h-4v.3h.1c.7.3.8 1.1.8 2v3h-7v-2.9c0-.9.1-1.8.8-2h.1v-.3h-4v.3h.1c.8.3.8 1.5.8 2.3v8.1c0 .9 0 2-.8 2.3h-.1v.3h4v-.3h-.1c-.7-.3-.8-1.1-.8-2v-4h7v4.1c0 .8-.1 1.7-.8 2h-.1v.3h4v-.3H74c-.8-.3-.8-1.5-.8-2.3v-8.1c.1-1 .1-2.1.9-2.4zm12.8 10s-2.3-2.9-2.8-3.4c1.5-.4 3.1-1.7 3.1-3.6 0-2.1-1.7-3.4-4.3-3.4H78v.3h.1c.8.3.8 1.4.8 2.3v8.2c0 .8 0 2-.8 2.3H78v.3h4v-.3h-.1c-.7-.3-.8-1.2-.8-2v-9.4c.3 0 1.2-.1 1.2-.1.7 0 1.4.2 1.8.6.4.4.6.9.6 1.4 0 1.9-2.1 2.5-3.3 2.7h-.2l.1.1c.6 1 1.8 2.7 1.9 2.9l2.5 3c.6.8 1.3 1.1 2.5 1.1h1.9v-.1l.1-.1h-.1c-1.2-.8-2.4-1.8-3.2-2.8zm13.3-3.6h-3.5c.3-.6 1.4-3.6 1.8-4.5.2.8 1.4 3.8 1.7 4.5zm4 3.9l-.1-.3c0-.1-4.2-10.2-4.2-10.3h-3.4v.4h.1c.2.1.4.2.5.3.1.3 0 .8-.2 1.2l-3.4 8.4c0 .1-.1.3-.1.3-.4 1-.8 2-1.8 2.5h-.1l.1.3h3.8v-.3h-.1c-.3-.1-.5-.3-.6-.4v-.3c0-.3.1-.6.3-1.2 0 0 .8-2.3 1-2.7h4.9c.1.4.7 2 1 2.7l.1.2c.2.5.3.8.3 1 0 .2-.1.3-.6.6h-.1l.1.3h4.3l.1-.3h-.1c-1-.5-1.4-1.4-1.8-2.4zm8.2-10.3v-.4h-3.9v.3h.1c.8.3.8 1.4.8 2.3v8.1c0 .9 0 2-.8 2.3h-.1v.3h3.9v-.3h-.1c-.8-.3-.8-1.5-.8-2.3V50c.1-.7.1-1.9.9-2.2zm16.9-.4h-3.4v.3h.1c.8.3.8 1.4.8 2.3v7.2c-1.1-1.3-7.1-8.9-7.1-8.9 0-.1-.1-.2-.3-.4l-.3-.5-.1-.1h-2.9v.3h.1c.8.3.8 1.4.8 2.3V58c0 .9 0 2-.8 2.3h-.1v.3h3.4v-.3h-.1c-.8-.3-.8-1.4-.8-2.3v-7.4c1 1.3 6.6 8.3 6.6 8.3.9 1.1 1.5 1.8 3 2.3l.2.1V49.8c0-.9 0-2 .8-2.3h.1v-.1z" fill="#fff"/><path id="Fill-1870" d="M36.6 7.7c0-.7-.5-1.1-1.6-1.1h-2.5v2.1H35c1 .1 1.6-.2 1.6-1zm-.5-3.9c0-.6-.5-1-1.4-1h-2.1v2.1h2c.9 0 1.5-.3 1.5-1.1zm-1 6.9h-4.6V1H35c2 0 3.2 1 3.2 2.5 0 1.1-.6 1.7-1.3 2.1 1.2.4 1.9 1.1 1.9 2.4 0 1.8-1.5 2.7-3.7 2.7zm10.3.2c-2.6 0-4.2-1.5-4.2-4.3V1h2.1v5.5c0 1.6.8 2.4 2.1 2.4s2.1-.8 2.1-2.3V1h2.1v5.5c.1 2.9-1.6 4.4-4.2 4.4zm10.8 0c-1.5 0-3-.5-4.1-1.6l1.3-1.5c.8.7 1.7 1.2 2.8 1.2.9 0 1.4-.3 1.4-.9 0-.5-.3-.8-2-1.2-2-.5-3.2-1-3.2-3 0-1.8 1.4-2.9 3.4-2.9 1.4 0 2.6.4 3.6 1.2l-1.1 1.6c-.9-.6-1.7-1-2.5-1s-1.3.4-1.3.8c0 .6.4.9 2.1 1.3 2 .5 3.1 1.2 3.1 2.9.1 2-1.4 3.1-3.5 3.1zm6.4-.2h2.1V1h-2.1v9.7zM76.7 1v9.8h-1.8l-4.7-6.2v6.2H68V1h2l4.6 6V1h2.1zm10.5 0v1.9H82v2h4.6v1.9H82v2h5.3v1.9h-7.4V1h7.3zm6.3 9.9c-1.5 0-3-.5-4.1-1.6l1.3-1.5c.8.7 1.7 1.2 2.8 1.2.9 0 1.4-.3 1.4-.9 0-.5-.3-.8-2-1.2-2-.5-3.2-1-3.2-3 0-1.8 1.4-2.9 3.4-2.9 1.4 0 2.6.4 3.6 1.2l-1.1 1.6c-.9-.6-1.7-1-2.5-1s-1.3.4-1.3.8c0 .6.4.9 2.1 1.3 2 .5 3.1 1.2 3.1 2.9.1 2-1.4 3.1-3.5 3.1zm9.6 0c-1.5 0-3-.5-4.1-1.6l1.3-1.5c.9.7 1.8 1.2 2.9 1.2.9 0 1.4-.3 1.4-.9 0-.5-.3-.8-2-1.2-2-.5-3.2-1-3.2-3 0-1.8 1.4-2.9 3.4-2.9 1.4 0 2.6.4 3.6 1.2l-1.1 1.6c-.9-.6-1.7-1-2.5-1s-1.3.4-1.3.8c0 .6.4.9 2.1 1.3 2 .5 3.1 1.2 3.1 2.9 0 2-1.5 3.1-3.6 3.1z" fill="#fff"/><path id="Fill-1872" class="st3" d="M41.2 18c.1.6.2 1.4.3 2.4v.2c0 .1.1.2.1.3.1.1.2.1.3.1.1 0 .2 0 .3.1.4.1 1 .1 1.4-.1.5-.3.6-.9.6-1.1.1-1.2 0-2.4-.1-3.3-.1-.5-.5-.8-.9-.8-.1 0-.2 0-.4.1l-.1.1c-.2.1-.7.4-1 .6-.5.4-.5 1.1-.5 1.4 0-.1 0-.1 0 0"/><path id="Fill-1874" class="st3" d="M168.8 30.5c-.4.1-.9.1-1.5.2-3.2.5-6.5 1.5-9.4 2.9 0-2-.1-3.9-.1-5.5s0-3.2.1-4.8c0-.6-.4-1.2-1.1-1.3l-.8-.2c-.8-.1-1.1.1-1.2.8-.2 1.2 0 3.5-.4 5.3-.7 2.7-1.8 3.6-3 4.3-.6.3-2.1.1-2.4-.9-1-2.8-.6-4.9-.5-7.9 0-.7-.2-1.4-.9-1.6-.6-.2-.5-.1-1-.2-.4-.1-.7.3-.7.8-.2 2.4-.8 5.4-1.6 6.5-1.2 2-2.9 2.9-4.7 3.1-1.8.2-3.6-1.5-4-2.3-1-2-1.9-3.5-2.6-9.6 1.1-4.4 1.3-10.9-.7-11.2-1.3-.2-2.6 6.2-2 11.5 0 1.2-.3 2.4-1.2 4.7-1.5 3.9-3.9 7-7.2 7.1-2.8.1-4.8-4.8-5.5-9.8-.1-.9-.3-2.3-.3-3.8.6-2.6 1.2-5.7 1.1-7.6-.1-2-.6-4.4-1.3-4.4-.8-.1-3 3.7-2.4 9.7v.2c-.2 3.3-.4 4.7-.6 5.6-1.6-.1-5 .5-7.6 2.2-1.7 1.1-12.6 9.1-14.4 5.9-1-1.7-1.9-3.7-2.3-4.3-.4-.6-1-.8-1.8-.8-1.6.1-3 .6-4 1.5-.5.5-1.5 1.3-2.2 1.9-.5.4-1.3 0-1.3-.4-.1-1.1 0-1.9.2-3.1.1-.4.2-.7.1-1.1 0-.4-.6-.8-1.1-.7-.8.2-1.7.3-2.1 1-.3.5-.7.9-1.1 1.4-2 2.6-4.5 4.5-8 5.9-1.4.6-3.2.9-4.8.7-1-.1-1.8-.6-2.4-1.4-.1-.2-.2-.3-.3-.4.4-.3.9-.7 1.3-1 .9-.8 1.7-1.8 2.3-2.8.6-1.1 1.1-2.7.5-3.2-.6-.5-3-.1-4.3.5-1.3.6-2.3 1.7-2.9 2.9-.6 1.1-.7 2.5-.6 3.6-1.1.6-3.7 2-5.8 2.1-2.3.1-3.6-1.1-4-3.2-.2-1-.4-2.6-.5-3.6-.1-.5-.3-.9-.7-1.3-.3-.2-.8-.2-1.2-.2-4.3.1-10.6 2.8-13.2 5.5-.1-3.3-2.3-9-7.6-8-3.8.7-6.9 2.4-9 3.9-.8-3.5-1.5-6.6-1.8-8.2-1.1-6.9-.4-9.9.1-11.4.4-1.4 1.9-3.1 3.4-3.1 2.3 0 4.3 2.1 4.5 4.8.2 3.1-.7 5.8-1.1 7.4-.2 1 0 1.1.4.1s1.9-4.5 1.8-7.6c-.2-3.6-2-6.4-5.6-6.4-2.2 0-5.4 2.1-6 9.3-.2 1.7-.1 3.3 0 4.9l.3 2.4c.1.4.8 4.9 1.6 9.6-3.1 2.5-6.6 6.5-8.7 11.4-.7 1.7-1.4 3.6-1.9 5.5-.5 2-.8 4.2-.7 6.4.1 2.2.7 4.5 2 6.5.7 1 1.5 1.9 2.7 2.5.6.3 1.2.5 1.9.6h1c5.4 0 8.9-7.6 8.6-16.4-.2-6.4-.8-8.8-2.3-17.3 1.3-.9 3.3-2 4.5-2.4 1.4-.5 3.1-.5 4.6-.1 1.5.4 2.4 1.6 3 2.6 1 1.7 1.5 2.7 1.7 6.2 0 .9.2 1.4.4 1.8.3.8 2.7.5 2.7-.6v-1.3c0-.8.3-1.4 1.6-2.4 2.2-2 8.2-3.8 10.2-3.2.1 1.2.2 2.3.5 3.3.3 1.3.7 2.5 2.2 3.4 1.4.8 3.1.8 4.2.7 2.4-.3 5.3-1.5 6.7-2.4.2.7 1.2 1.8 2.3 2.1 1.2.4 3.1.4 4.3.1 4.2-.8 7.7-2.3 10.6-4.7.6-.5 1.3-1.1 2.1-1.8.1.5.1 3.8.2 5.1.1 2 2.7 1.8 4.2-.2.9-1.2 3.4-4.7 3.8-5.1.7-.5 1.2-.4 1.7.4.4.6 1.5 2.7 1.8 3.2 1.9 2.8 3.9 2.6 5.1 2.2 4.3-1.2 6.4-3.1 8.7-5 .1-.1.2 0 .2.1-1 1.9.1 4.5 1.8 5 4.2 1.2 9.9-4.8 10.7-8.8.9 3.1 3.3 9.6 7.6 9.6 4.8 0 8.4-6.9 9.3-10.3 1 6.4 3.7 9 5.3 9.8 1.5.7 3.6.9 5.5-.2 2-1.1 3.2-2.4 4.1-4.4.1 1 .6 3.2 1.3 4.1.8.9 3 1.5 4 1 1.8-.8 3.4-2.3 3.8-3.8 0 1.5.1 3 .1 4.4-3.3 2.1-6 4.8-8.5 8-3.2 4.3-3.7 7.9-3.7 10.1 0 4 2.4 7 5.7 7 4.3 0 8-5.3 8.8-11.6.5-4 .5-9.3.5-14.1h.1c2.8-1.5 6.4-2.9 9.3-3.3.5-.1 1-.2 1.5-.2 2-.2 2.3-.7 0-.4M7.4 58.2c-1.9 0-4.7-2.3-5.2-7.6-.4-5.1.9-9 1.5-10.7.5-1.2 1.8-4.8 4.3-7.9 1.3-1.6 3.2-3.3 3.6-3.7.8 4.8 1.7 11.2 2 14.1.5 7.7-1.2 15.8-6.2 15.8m51.4-29.4c-.2-1.4 1.5-3.2 2.7-3.2-.1 1-1.7 2.6-2.7 3.2m46.2 1.7c-1.6-.9-.2-3.5 1.7-4.5.9-.5 3.3-1.4 5.3-1.3-.5 2.4-4.8 7-7 5.8m50.3 15.1c-.7 9.1-3.9 12.4-6.5 12.4-2.1 0-3.9-2.2-3.9-5.2 0-2.8 1.2-5.7 2.9-8.5 2.1-3.6 4.2-5.9 7.6-8.1 0 3.8 0 7.1-.1 9.4"/></g></g></svg>