<svg xmlns="http://www.w3.org/2000/svg" width="899.877" height="191.809" viewBox="0 0 238.093 50.75"><path d="M177.8 50.624c-23.607-1.66-48.404-9.147-65.527-19.785l-3.219-2h-2.428c-2.229 0-2.44-.044-2.571-.544-.099-.377-.274-.49-.57-.366-2.776 1.15-8.37 1.421-11.266.546-3.506-1.059-5.76-2.807-6.983-5.415-.612-1.306-.701-1.832-.701-4.142 0-3.108.455-4.373 2.285-6.36 2.323-2.52 5.132-3.86 9.176-4.378 2.244-.288 4.5-.147 7.258.454l.728.159V5.2c0-3.153.057-3.624.463-3.839.464-.245 5.645-1.361 6.32-1.361.3 0 .36 2.326.36 13.726v13.727l3.844 1.764c16.468 7.562 35.91 12.663 55.688 14.61 6.416.633 18.993.63 24.474-.005 12.27-1.422 21.77-4.658 28.327-9.65 3.204-2.439 3.182-2.376 1.443-4.137-.793-.803-1.386-1.47-1.318-1.483.067-.012 3.338-.71 7.267-1.549 3.929-.84 7.187-1.49 7.24-1.445.103.085-3.661 13.913-3.842 14.114-.057.065-.74-.512-1.519-1.28l-1.414-1.397-2.746 2.087c-8.565 6.506-19.718 10.236-34.232 11.448-2.875.24-13.594.301-16.536.094zm-75.798-26.047l1.166-.293-1.454-1.329c-1.506-1.376-1.758-1.965-.46-1.07.41.281 1.19.78 1.736 1.109l.992.597V13.272l-1.257-.484c-1.773-.684-5.237-.609-7.255.158-2.596.987-3.919 2.98-3.922 5.914-.004 3.761 2.751 5.887 7.753 5.982.845.016 2.06-.103 2.701-.265zM18.188 27.98c-.357-.619-2.116-3.977-3.91-7.464-1.866-3.627-3.322-6.173-3.404-5.953-.08.212-1.04 3.482-2.135 7.265l-1.992 6.88-3.373.073C.771 28.838 0 28.778 0 28.517c0-.187 1.754-6.445 3.9-13.909l3.9-13.57 1.958.076 1.959.076 1.331 2.91c.733 1.602 2.604 5.683 4.16 9.072l2.826 6.16 4.073-9.14 4.072-9.14 1.96.07 1.96.068 3.926 13.494c2.159 7.422 3.926 13.643 3.926 13.825.001.247-.837.33-3.311.33-3.185 0-3.323-.023-3.566-.595-.14-.327-1.044-3.512-2.012-7.077-.967-3.566-1.817-6.583-1.889-6.706-.071-.122-1.863 3.122-3.98 7.21l-3.852 7.433H20.09c-1.196 0-1.282-.051-1.901-1.124zm104.844.774c-1.899-.445-3.47-1.28-4.326-2.297-1.232-1.464-1.495-3.008-1.495-8.778v-5.244h-3.175V8.467h3.154l.076-2.182.077-2.181 3.308-.7c1.819-.384 3.396-.646 3.505-.58.11.064.199 1.36.199 2.88v2.763h7.673v3.968h-7.673v4.644c0 5.17.175 5.884 1.586 6.468 1.104.458 4.171.41 5.35-.083.527-.22 1.027-.331 1.112-.246.085.084.154 1.268.154 2.63 0 2.455-.006 2.478-.728 2.76-1.135.444-7.106.543-8.797.146zm22.093-.027c-6.617-1.312-10.496-5.012-10.552-10.064-.07-6.203 5.288-10.545 13.462-10.911 6.457-.29 11.171 1.91 13.264 6.186.585 1.196.755 1.967.844 3.834l.112 2.336h-10.351c-5.693 0-10.351.065-10.351.143 0 .079.24.614.534 1.19.591 1.16 1.886 2.13 3.699 2.774 1.248.443 5.067.584 6.493.24 1.093-.263 2.785-1.126 3.508-1.79l.609-.557 1.694 1.844c.932 1.015 1.7 1.93 1.707 2.032.024.367-2.423 1.606-4.43 2.244-2.577.82-7.432 1.056-10.242.499zm10.082-13.006a2.63 2.63 0 0 1-.16-.773c0-.593-1.325-1.972-2.481-2.583-.896-.474-1.542-.578-3.61-.584-2.325-.007-2.657.06-4.298.868-1.397.688-1.92 1.119-2.442 2.008-.365.623-.663 1.211-.663 1.307 0 .097 3.108.176 6.907.176 6.19 0 6.891-.044 6.747-.419zm19.65 12.883c-4.578-1.003-7.719-3.143-9.285-6.325-.763-1.549-.868-2.02-.868-3.89s.105-2.342.868-3.891c1.441-2.928 4.428-5.126 8.392-6.176 2.559-.677 6.53-.794 9.14-.269 2.431.49 5.28 1.628 5.28 2.11 0 .166-.813 1.11-1.807 2.096-1.56 1.547-1.854 1.738-2.141 1.392-.66-.795-3.113-1.48-5.3-1.48-1.835 0-2.282.103-3.75.863-1.285.665-1.847 1.154-2.45 2.128-2.178 3.523-.399 7.875 3.706 9.068 2.233.65 5.345.413 7.245-.55l1.435-.728 1.663 1.756c.915.965 1.664 1.86 1.664 1.988 0 .331-2.014 1.235-3.857 1.731-2.549.686-7.234.77-9.935.177zm-131.2-9.943V8.467h6.885l-.069 10.12-.07 10.12-3.373.074-3.373.074zm11.906 0V8.467h2.499c2.495 0 2.499 0 2.967.793.554.937.596.944 1.729.286C65.76 7.8 71.64 7.56 75.549 9.022c1.84.688 3.751 2.407 4.524 4.065.603 1.295.62 1.536.623 8.55l.003 7.218-3.373-.074-3.374-.074-.132-6.926c-.125-6.517-.165-6.971-.69-7.673-1.061-1.423-2.09-1.805-4.866-1.805-2.264 0-2.672.079-4.102.794l-1.587.794-.132 7.408-.133 7.408-3.373.074-3.373.074zm136.974 10.01c-.102-.101-.184-6.232-.184-13.625 0-12.53.031-13.456.463-13.685.463-.244 5.644-1.361 6.317-1.361.289 0 .369 1.491.426 7.905l.07 7.905 4.556-3.678 4.557-3.679 4.105.073 4.104.073-4.749 3.704c-2.612 2.037-4.723 3.787-4.692 3.887.03.101 2.557 2.873 5.612 6.16 3.056 3.286 5.596 6.091 5.645 6.233.054.158-1.418.257-3.853.257h-3.94l-3.597-3.903c-1.978-2.146-3.905-4.19-4.282-4.543l-.686-.64-1.449.998-1.449.998-.073 3.479-.074 3.478-3.322.074c-1.827.04-3.404-.009-3.505-.11zM45.119 4.955c-.793-.793-.933-1.113-.933-2.13 0-.984.145-1.342.814-2.01C45.67.144 46.027 0 47.011 0c1.017 0 1.337.14 2.13.933.86.86.922 1.029.796 2.148-.182 1.62-1.05 2.487-2.67 2.67-1.12.126-1.288.064-2.148-.796z" fill="#fff" stroke-width=".265"/></svg>