<svg xmlns="http://www.w3.org/2000/svg" width="2373.903" height="973.375" viewBox="0 0 628.095 257.539"><path d="M28.568 246.327c-3.367-6.16-6.425-11.717-6.796-12.348l-.675-1.146h49.106L35.102 162.63C15.796 124.02 0 92.11 0 91.722c0-.695.232-.706 15.61-.704l15.61.002 21.073 42.067c20.44 40.803 31.69 63.087 39.583 78.403 8.38 16.259 12.14 23.437 12.575 23.998.637.824 2.108 6.08 2.307 8.245.487 5.279-2.186 11.213-5.904 13.11-1.3.663-2.367.684-33.754.684H34.69zm79.048 9.525c.82-.922 2.063-2.867 2.764-4.322 1.258-2.613 1.274-2.7 1.26-7.056-.013-3.86-.13-4.725-.941-6.945-.51-1.394-7.428-15.444-15.375-31.22C52.996 122.27 38.062 92.352 38.168 91.802c.102-.532.659-.622 4.346-.698 2.326-.047 7.378.032 11.227.177l6.998.263 2.11 3.88a805.32 805.32 0 0 1 4.428 8.291c1.275 2.425 2.595 4.886 2.934 5.468.339.582 1.451 2.646 2.472 4.586 1.021 1.94 3 5.671 4.399 8.29 4.303 8.064 5.546 10.414 17.632 33.338 11.822 22.424 13.92 26.425 19.235 36.689 1.608 3.104 3.792 7.311 4.853 9.349 6.798 13.047 14.282 28.043 14.724 29.503 1.001 3.303 1.388 8.906.919 13.302-.649 6.065-1.558 8.54-4.264 11.61l-1.477 1.676h-22.578zm35.958 0c-1.727-1.959-2.854-4.056-3.75-6.983-.899-2.937-.926-12.363-.045-15.683.335-1.262 2.114-5.31 3.953-8.996 6.727-13.488 36.148-69.912 48.193-92.428 2.492-4.657 8.34-15.61 12.996-24.342l8.466-15.875 6.99-.263c3.843-.145 8.891-.224 11.217-.177 3.736.077 4.243.16 4.35.716.117.612-3.443 7.794-32.305 65.165-30.189 60.008-39.345 78.154-39.607 78.493-.15.194-.688 1.377-1.195 2.63-1.253 3.095-1.707 6.15-1.263 8.49.52 2.741 2.569 6.715 4.619 8.959l1.8 1.97H145.052zm29.201.43c-2.05-1.504-3.854-4.18-4.861-7.215-.609-1.831-.736-2.925-.64-5.493.116-3.126.174-3.319 2.306-7.592a586.385 586.385 0 0 1 4.786-9.323c9.462-17.979 21.279-41.266 46.227-91.104l22.294-44.537h15.61l15.611-.002v.79c0 .433-15.8 32.342-35.112 70.908l-35.112 70.119h23.823c13.103 0 23.824.075 23.824.166 0 .092-.993 2.043-2.205 4.337-1.213 2.293-4.107 7.774-6.43 12.18l-4.226 8.011-32.11-.009-32.111-.009-1.674-1.227zm115.65-3.952c-.127-2.866-.387-8.305-.577-12.089-.326-6.504-1.47-32.084-1.976-44.185l-.232-5.557h7.64c4.201 0 7.667.04 7.7.089.033.048.152 11.597.264 25.664l.205 25.577 1.124-2.823c1.833-4.597 8.228-21.02 8.93-22.93.356-.97 2.26-5.892 4.23-10.936 1.97-5.045 4.059-10.406 4.643-11.913l1.06-2.74 8.527.094 8.527.095.083 1.94c.045 1.067.319 6.068.608 11.113.288 5.044.684 12.188.878 15.875.956 18.13 1.217 22.06 1.44 21.631.134-.255 4.018-11.776 8.631-25.6l8.388-25.136h7.537c4.145 0 7.537.09 7.537.2 0 .11-.31.943-.69 1.852-.379.909-1.267 3.16-1.973 5.004-.706 1.843-2.285 5.891-3.508 8.996-1.224 3.104-2.81 7.152-3.525 8.996-.715 1.843-2.017 5.177-2.893 7.408-4.034 10.28-4.718 12.028-5.935 15.17-2.953 7.625-6.58 16.843-7.116 18.08l-.573 1.322h-17.147l-.174-1.146c-.095-.63-.256-2.655-.357-4.498-.1-1.843-.342-5.653-.537-8.467a8315.432 8315.432 0 0 1-1.816-27.164c-.22-3.395-.432-6.209-.47-6.252-.038-.043-4.515 10.593-9.949 23.636l-9.88 23.715-9.196.094-9.195.094zm73.092 4.05c.723-1.213 1.958-3.448 4.143-7.496.733-1.358 4.137-7.55 7.565-13.758 3.428-6.209 10.35-18.791 15.382-27.96l9.15-16.672 9.167.09 9.166.092.76 3.88c.417 2.135 1.409 7.056 2.204 10.936 3.302 16.126 5.4 26.438 7.786 38.277 1.388 6.888 2.607 12.801 2.708 13.14.17.576-.36.618-7.74.618h-7.923l-.188-.794c-.103-.436-.773-3.85-1.489-7.584l-1.3-6.791h-25.951l-2.914 5.38c-1.603 2.959-3.46 6.372-4.126 7.584l-1.211 2.205h-15.872zm45.37-37.202c-1.221-7.315-2.267-13.6-2.324-13.965-.065-.416-.747.564-1.832 2.63a2697.854 2697.854 0 0 0-7.619 14.583 573.328 573.328 0 0 1-3.952 7.496l-1.39 2.558h19.338zm41.642 37.38c.19-.893.875-4.755 1.614-9.085.165-.97 2.059-11.935 4.208-24.366 2.149-12.432 3.907-22.71 3.907-22.843 0-.132-4.941-.24-10.98-.24h-10.982l.22-1.499c.121-.824.488-2.968.816-4.762l.595-3.264h59.137l-.005.794c-.004.437-.318 2.54-.701 4.675-.383 2.134-.698 3.92-.7 3.968-.005.049-4.985.088-11.072.088H473.52l-.2 1.323c-.11.728-.696 4.101-1.301 7.497-.606 3.395-1.4 7.92-1.764 10.054-.365 2.134-1.16 6.738-1.766 10.23a3145.21 3145.21 0 0 0-1.76 10.231c-.362 2.134-.983 5.706-1.38 7.938-.397 2.231-.818 4.612-.935 5.291-.118.68-.371 2.069-.564 3.087l-.35 1.852h-15.176l.205-.97zm43.949.44c0-.294 2.148-12.955 4.774-28.137 5.83-33.7 6.515-37.703 6.515-38.072 0-.16 11.906-.29 26.458-.29h26.458l-.018.794c-.01.437-.368 2.54-.794 4.675l-.775 3.88-18.763.091c-17.48.085-18.775.134-18.948.706-.103.338-.34 1.567-.529 2.73-.188 1.165-.829 4.94-1.424 8.389-.595 3.449-1.082 6.426-1.082 6.614 0 .218 6.377.344 17.462.344 13.738 0 17.462.094 17.458.44-.004.243-.318 2.188-.7 4.322-.384 2.135-.699 4.08-.701 4.322-.004.347-3.77.44-17.637.44h-17.633l-.17.794c-.095.437-.583 3.175-1.086 6.086a935.004 935.004 0 0 1-1.402 7.937c-.27 1.456-.591 3.32-.716 4.142l-.228 1.497 18.816.09c18.588.091 18.815.1 18.716.798-.055.388-.374 2.293-.708 4.233l-.608 3.528-26.368.09c-23.348.08-26.367.03-26.367-.443zm59.62.376c0-.085 1.119-6.554 2.487-14.376a7176.55 7176.55 0 0 0 4.92-28.333c1.948-11.395 3.913-22.676 4.074-23.393l.184-.816 19.479.124 19.479.123 3.113.963c5.176 1.6 8.212 4.007 10.08 7.99.852 1.815.918 2.312.918 6.895 0 2.92-.193 5.732-.472 6.879-1.77 7.286-5.243 12.264-10.514 15.074-2.105 1.122-6.688 2.565-8.145 2.565-.44 0-.801.077-.801.17 0 .094 1.377 2.515 3.06 5.38 1.682 2.865 3.69 6.32 4.462 7.68 1.055 1.856 6.042 10.439 7.533 12.964.086.145-3.782.26-8.596.254l-8.752-.011-4.057-7.46a8138.55 8138.55 0 0 0-7.012-12.866l-2.954-5.405h-4.518c-5.106 0-4.643-.297-5.236 3.35-.19 1.165-.76 4.499-1.267 7.41-.508 2.91-1.231 7.117-1.607 9.348-.377 2.231-.768 4.414-.87 4.85-.185.793-.202.794-7.587.794-4.071 0-7.402-.069-7.402-.153zm43.236-36.888c4.066-2.078 5.631-4.929 6.046-11.015.32-4.69-.88-7.096-4.304-8.63-1.218-.547-2.7-.65-10.848-.75-7.647-.095-9.438-.03-9.443.349-.004.256-.247 1.816-.541 3.465-1.101 6.173-2.693 15.393-2.883 16.694l-.197 1.348 9.877-.113 9.876-.114zM296.42 162.254c-5.551-.722-11.449-3.165-14.625-6.058l-1.65-1.503.852-4.763c.468-2.62.855-4.814.861-4.878.006-.063.844.586 1.863 1.442 7.01 5.898 14.328 8.045 21.927 6.435 4.363-.924 6.837-2.629 9.37-6.455 2.299-3.475 3.272-6.756 4.939-16.652 4.142-24.591 6.009-35.73 6.009-35.85 0-.073 3.43-.134 7.624-.134h7.624l-.25 1.323c-.138.728-.543 3.149-.9 5.38s-1.543 9.296-2.634 15.699a2938.266 2938.266 0 0 0-2.642 15.698c-1.285 7.926-2.303 11.622-4.327 15.699-4.183 8.426-11.302 13.438-20.775 14.626-3.341.419-10.008.414-13.266-.01zm212.47-.352c-5.21-.802-10.587-3.461-13.03-6.442-2.97-3.624-4.2-7.688-4.185-13.82.008-3.39.34-6.169 1.661-13.935.908-5.336 2.56-15.099 3.67-21.696l2.02-11.994 7.485-.095 7.485-.096v.917c0 .504-.33 2.77-.734 5.034a559.168 559.168 0 0 0-1.382 8.174 514.915 514.915 0 0 1-1.412 8.29 515.138 515.138 0 0 0-1.41 8.291 447.582 447.582 0 0 1-1.425 8.29c-.902 4.922-1.066 10.932-.357 13.053 1.612 4.819 5.767 7.205 12.581 7.225 7.033.02 12.032-2.666 14.851-7.978 1.905-3.59 1.633-2.235 7.555-37.7 1.198-7.179 2.285-13.175 2.415-13.324.13-.15 3.567-.23 7.638-.177l7.402.096-.98 5.82c-.539 3.202-1.3 7.806-1.694 10.231a566.05 566.05 0 0 1-1.414 8.29 712.998 712.998 0 0 0-1.778 10.584c-1.66 10.335-2.368 12.986-4.793 17.926-3.598 7.33-9.608 12.09-18.13 14.362-2.65.706-3.982.81-11.465.899-4.656.055-9.414-.047-10.573-.225zm74.25-.17c-9.931-1.777-16.247-5.94-19.738-13.013-2.234-4.524-2.646-6.755-2.644-14.311 0-6.011.077-6.8.959-9.987 4.907-17.74 15.452-28.115 31.218-30.719 5.523-.912 7.248-.97 11.242-.383 7.532 1.11 12.644 3.445 16.904 7.724 4.846 4.866 7.056 11.492 7.012 21.018-.023 5.136-.487 7.8-2.23 12.825-5.47 15.757-16.07 24.503-32.736 27.01-3.25.488-6.649.433-9.986-.164zm11.642-9.06c4.267-1.017 8.258-3.838 11.136-7.872 6.82-9.557 9.144-27.747 4.58-35.853-2.548-4.524-8.359-7.155-13.862-6.275-7.319 1.169-12.45 5.203-16.37 12.868-5.17 10.107-6.277 23.24-2.576 30.543 2.918 5.76 9.665 8.36 17.092 6.59zm-255.899 8.26c-.097-.157.838-6.309 2.078-13.67 2.064-12.254 6.638-39.35 8.303-49.19.378-2.232.688-4.097.689-4.145 0-.049 3.335-.089 7.41-.089 4.074 0 7.408.04 7.408.089 0 .048-.645 3.898-1.433 8.554-.788 4.657-1.73 10.293-2.095 12.524-.364 2.231-1.555 9.296-2.647 15.699a3132.193 3132.193 0 0 0-2.644 15.698c-1.426 8.772-2.382 14.036-2.617 14.417-.29.47-14.165.578-14.452.113zm23.592-.07c-.122-.198-.055-1.19.148-2.206.204-1.016 1.954-11.292 3.89-22.837 1.936-11.545 4.32-25.737 5.3-31.538.977-5.801 1.778-10.607 1.778-10.679 0-.072 3.36-.088 7.467-.035l7.467.095 3.028 6.365c1.665 3.501 3.73 7.867 4.59 9.702a4356.227 4356.227 0 0 0 10.774 22.739c1.3 2.716 2.608 5.54 2.907 6.276.3.736.627 1.255.728 1.154.1-.101.306-.941.456-1.867.15-.926 1.873-11.158 3.83-22.739 1.955-11.58 3.555-21.224 3.555-21.431 0-.254 2.421-.375 7.457-.375h7.456l-.22 1.499c-.424 2.9-1.614 10.082-3.579 21.608a3302.17 3302.17 0 0 0-2.646 15.698c-1.406 8.633-4.574 27.165-4.79 28.025l-.226.903H407.877l-9.429-18.433c-5.185-10.138-10.393-20.256-11.571-22.484l-2.143-4.052-.28 1.349c-.155.741-.588 3.279-.964 5.639-.375 2.36-1.576 9.53-2.668 15.932-1.091 6.403-2.293 13.626-2.67 16.052-1.032 6.65-.114 5.997-8.412 5.997-4.381 0-7.126-.135-7.264-.358zm68.846.087c-.093-.151.363-3.446 1.015-7.323.651-3.876 2.71-16.096 4.573-27.156 1.864-11.06 3.783-22.49 4.264-25.4.481-2.91.963-5.728 1.07-6.261l.195-.97h7.557c4.156 0 7.557.05 7.557.113 0 .062-.408 2.483-.906 5.38-.498 2.896-1.202 7.092-1.566 9.323-.363 2.231-1.553 9.296-2.645 15.699a2882.79 2882.79 0 0 0-2.641 15.698c-1.015 6.267-1.788 10.698-1.987 11.377-.17.582.82.618 17.318.618h17.498l-.24 1.812c-.132.997-.496 3.022-.807 4.498l-.567 2.686-24.759.09c-13.618.05-24.836-.033-24.929-.184zm-301.5-23.008c-16.807-1.69-33.058-10.334-44.44-23.642-14.556-17.018-19.97-40.821-14.296-62.856 3.52-13.669 11.509-26.476 21.987-35.25 8.694-7.28 18.588-12.242 29.016-14.555 37.352-8.285 73.453 15.652 81.33 53.924.96 4.668 1.015 5.413 1.005 13.582-.012 9.5-.391 12.349-2.674 20.09-6.574 22.287-24.179 39.896-46.351 46.361-7.475 2.18-17.804 3.127-25.577 2.346zM79 66.85c3.823-23.289 20.188-43.188 42.01-51.083 8.03-2.906 12.261-3.6 21.865-3.587 7.572.01 9.769.22 14.817 1.408 1.327.312-1.104-.773-4.41-1.97-16.978-6.144-35.902-3.813-51.153 6.3-15.89 10.538-25.577 28.955-25.576 48.624 0 3.856.387 7.402 1.46 13.36.035.195.18-2.107.322-5.115.143-3.007.442-6.579.665-7.937z" fill="#fff" stroke-width=".353"/></svg>