<svg xmlns="http://www.w3.org/2000/svg" width="514.298" height="452.883" viewBox="0 0 136.075 119.825"><path d="M9.568 107.7V95.577l-4.784.015L0 95.607l.033-4.74c.018-2.606.094-4.838.17-4.96.074-.122 7.454-.222 16.398-.222h16.262l-.072 4.961-.072 4.961-4.693.072-4.694.073-.069 11.966-.069 11.966-6.813.07-6.813.071zm19.909 11.79c3.487-9.367 12.824-33.464 13.02-33.605.152-.108 3.425-.167 7.272-.132l6.996.065 1.278 3.307c3.53 9.141 11.586 30.355 11.586 30.512 0 .099-2.968.18-6.596.18h-6.596l-.505-1.39c-.278-.763-1.804-5.228-3.392-9.92-1.588-4.694-2.947-8.532-3.02-8.53-.073.002-1.628 4.436-3.457 9.855l-3.325 9.852-6.693.071c-5.316.056-6.668.002-6.568-.264zm46.502-11.712V95.74h-4.747c-2.611 0-4.793-.09-4.849-.199-.056-.109-.05-2.372.014-5.029l.116-4.83 16.308.068 16.309.068.072 4.792.072 4.792-1.234.169c-.678.093-2.81.169-4.739.169h-3.506l-.191 3.192c-.106 1.755-.104 7.173.003 12.038l.195 8.847H75.978zm19.843 11.903c0-.13 11.46-30.092 12.574-32.875l.452-1.129 7.15.07 7.152.07 2.349 6.086c3.431 8.89 10.178 26.627 10.392 27.318l.184.596h-13.206l-1.219-3.506c-.67-1.928-2.22-6.423-3.443-9.988-1.44-4.196-2.288-6.324-2.405-6.034-.1.247-1.64 4.711-3.422 9.922l-3.241 9.473-6.658.071c-3.663.039-6.659.006-6.659-.074zM65.66 43.652c0-24.028-.012-24.585-.52-25.232-1.01-1.283-1.662-1.372-7.504-1.027-11.39.671-23.285 2.374-35.431 5.072-1.272.283-2.385.514-2.473.514-.278 0 1.224-2.439 2.727-4.428 1.678-2.22 4.962-5.389 7.614-7.347C37.27 5.89 46.253 2.398 57.325.608c3.559-.575 13.997-.81 17.883-.404 15.348 1.607 28.154 7.2 36.244 15.832 1.903 2.03 4.93 6.315 4.655 6.59-.078.079-2.918-.402-6.311-1.069-11.581-2.275-19.733-3.399-29.981-4.132-5.163-.369-6.651-.337-7.71.166-1.776.842-1.683-.608-1.683 26.277v24.355H65.66zm18.785 22.863c0-.145-5.887-28.744-6.375-30.968-.42-1.913-.588-3.61-.608-6.129-.027-3.368-.006-3.506.633-4.191 1.734-1.858 2.846-1.918 14.42-.782 6.453.634 19.115 2.473 24.657 3.582l1.373.275.26 1.373c1.046 5.52.066 11.238-2.79 16.274-5.03 8.873-14.951 15.741-28.46 19.703-1.71.502-3.11.89-3.11.863zm-36.64-1.094c-18.702-5.455-30.793-17.613-30.893-31.065-.012-1.673.12-3.707.295-4.519l.317-1.476 1.645-.313c11.188-2.13 27.394-4.179 34.363-4.343 2.742-.065 3.751.3 4.824 1.743.5.672.554 1.083.528 3.969-.028 3.045-.219 4.131-3.506 20.008-1.912 9.233-3.477 16.824-3.477 16.867 0 .226-1.24-.038-4.095-.87z" fill="#fff" stroke-width=".265"/></svg>