<svg id="Слой_1" data-name="Слой 1" xmlns="http://www.w3.org/2000/svg" viewBox="0 0 39.05 23.07"><defs><style>.cls-1{fill:#9a1648}</style></defs><path class="cls-1" d="M19.55 12.1a5.9 5.9 0 1 1 5.89-5.9 5.9 5.9 0 0 1-5.89 5.9m0-12.1a6.2 6.2 0 1 0 6.19 6.2A6.2 6.2 0 0 0 19.55 0M9.54 15.37V17a1.64 1.64 0 0 0 .46 1.22l.15.16.16-.16a1.65 1.65 0 0 0 .51-1.22v-1.63h1V17a2.89 2.89 0 0 1-1.1 2.31H9.61A2.89 2.89 0 0 1 8.51 17v-1.63zM0 19.27h1v-2h.79c.43 0 .68 0 .68.45v1.53h1v-1.53c0-.78-.12-1.18-1-1.3l1.11-2H2.41l-1.08 1.97H1v-1.92H0zm23.1-3h-1v3h-1v-3h-1v-.91h3zM6.67 18.42H5.39v-3.05h-1v3.9H7.7v-3.9h-1zm8.8-2.19H13.7v.66h1.66v.85H13.7v.68h1.8v.85h-2.84v-3.9h2.81zm2.37.64c-.43 0-.68 0-.68-.45v-1.05h-1v1.07c0 .81.12 1.21 1.16 1.31v1.52h1v-1.52c.81-.08 1.16-.43 1.16-1.31v-1.07h-1v1c0 .46-.15.5-.59.5m11.62 1v-2.5h1V18c0 1-.49 1.33-1.63 1.33-1.55 0-1.72-.39-1.72-1.33v-2.6h1V18c0 .44.25.45.68.45s.59 0 .59-.49m6 1.36h1v-1.58h.78c.44 0 .69 0 .69.45v1.08h1v-1.1c0-.77-.12-1.17-1-1.29l1.07-1.51h-1.13l-1 1.47h-.31v-1.47h-1zm-1.85 0l-.82-1.14h-.44v1.14h-1v-3.9h3.33v2.76H34l.81 1.14zm0-3h-1.24v.94h1.27zm-6.72-1.81h-3.5v.9h1.25v3.9h1v-3.9h1.24zm2 0l.54-.55.55.55-.55.54zm-.73.54l.54-.54-.54-.55-.54.55zM6 22.58a.69.69 0 0 1 0 .22.24.24 0 0 1-.09.15.38.38 0 0 1-.18.09 1.26 1.26 0 0 1-.3 0 1.33 1.33 0 0 1-.28 0 .92.92 0 0 1-.31-.04l.07-.28.22.05a1 1 0 0 0 .25 0h.18a.25.25 0 0 0 0-.09v-.09H5.33l-.24-.07A.34.34 0 0 1 5 22.2a.3.3 0 0 1-.06-.14 1.27 1.27 0 0 1 0-.22.66.66 0 0 1 0-.21.24.24 0 0 1 .06-.14.54.54 0 0 1 .17-.08 1.1 1.1 0 0 1 .28 0h.49v.31h-.6a.08.08 0 0 0-.06 0v.05a.15.15 0 0 0 0 .07.22.22 0 0 0 0 .09.07.07 0 0 0 0 .06H5.51l.25.08a.39.39 0 0 1 .14.1.26.26 0 0 1 .06.13v.2m1.55-1.17H7L6.53 23h.38l.09-.28h.55l.08.32H8zm-.25.32l.19.69h-.37zM9.74 23a2.3 2.3 0 0 1-.28.06h-.28a.68.68 0 0 1-.26 0 .43.43 0 0 1-.3-.26.65.65 0 0 1 0-.2v-.68a.65.65 0 0 1 0-.21.57.57 0 0 1 .11-.16.85.85 0 0 1 .19-.1 1 1 0 0 1 .26 0h.52v.32H9a.25.25 0 0 0 0 .07.28.28 0 0 0 0 .09v.56a.22.22 0 0 0 0 .09.2.2 0 0 0 0 .08.13.13 0 0 0 .07 0h.33v-.5h.34zm-.19-2.07a.26.26 0 0 1 0 .11.32.32 0 0 1-.19.16.4.4 0 0 1-.15 0 .41.41 0 0 1-.16 0 .32.32 0 0 1-.22-.2.26.26 0 0 1 0-.11l.17-.05A.54.54 0 0 0 9 21a.25.25 0 0 0 .15.05.24.24 0 0 0 .17-.05.54.54 0 0 0 .07-.13zM11.46 23v-.32h-.64v-1.27h-.37V23zm2.07 0h-.38l-.09-.32h-.55l-.08.32H12l.5-1.63h.5zm-.93-.62h.4l-.18-.69zm2.22.41h.33l.28-.69v.9h.36l-.07-1.63h-.37l-.39 1-.39-1h-.37L14.16 23h.35v-.9zm3.82-.18a.38.38 0 0 1-.12.29.5.5 0 0 1-.36.1h-.69v-1.59h.64a.69.69 0 0 1 .22 0 .26.26 0 0 1 .14.07.21.21 0 0 1 .08.11.33.33 0 0 1 0 .15v.17a.28.28 0 0 1 0 .15.39.39 0 0 1-.14.1.32.32 0 0 1 .17.11.26.26 0 0 1 .07.19zm-.43-.83a.11.11 0 0 0 0-.08.16.16 0 0 0-.11 0h-.23v.37h.23a.2.2 0 0 0 .11 0 .14.14 0 0 0 0-.09zm.06.68a.12.12 0 0 0 0-.1.2.2 0 0 0-.11 0h-.28v.38h.23a.32.32 0 0 0 .14 0 .12.12 0 0 0 .06-.12zm1.91-1.09h-.49l-.5 1.63h.38l.09-.32h.55l.08.32h.39zm-.25.32l.19.69h-.38zm1.74.24V23h-.36v-1.59h.45l.54 1.13v-1.13h.35V23h-.45zm1.7 1.07h.37v-1.59h-.37zm.89 0h.42l-.5-.83.46-.8h-.41l-.44.8zm2.48 0h-.38l-.09-.32h-.54l-.09.32h-.38l.49-1.63h.49zm-.93-.62h.37l-.18-.65zm1.87-.38a.31.31 0 0 1 0-.1.09.09 0 0 1 0-.07.18.18 0 0 1 .07-.05h.53l.06-.32h-.44a1 1 0 0 0-.26 0 .5.5 0 0 0-.19.11.42.42 0 0 0-.11.15.66.66 0 0 0 0 .21v.68a.64.64 0 0 0 0 .2.57.57 0 0 0 .11.16.49.49 0 0 0 .19.1.68.68 0 0 0 .26 0h.48l-.06-.32H27.72a.11.11 0 0 1 0-.08.22.22 0 0 1 0-.09zm1.37-.54h.37V23h-.37zM31.16 23v-.32h-.65v-1.27h-.36V23zm.65-1.63h.37V23h-.37zm1.1 1.63h.37v-1.59h-.37zm.89 0h.41l-.49-.83.46-.8h-.42l-.44.8z"/><path class="cls-1" d="M19.25 11.47l-.65.38-.35-.94zm.3-.17l.61-.34-1.91-1.08.29.86zm.29-.86l.65.39.35-.95zm-.3-.17l-.61-.35 1.91-1.07-.29.85zm-1.29-1.42l.35 1 .65-.39zm1-1.49l-.65.39-.35-1zm-.71 1.31l-.29-.85 1.91 1.08-.61.34zm1.3-.29l.65.39.35-.95zm.71-.74l.29-.86-1.91 1.08.61.35zm-.44-.76l-.56.35-.55-.35zm-.91-.34l-2.38-1.23c-1.33-.68-1.77-.11-2.25.49l-.6.74zm-1.46-3.26l1.58 3-2.71-1.83a1.77 1.77 0 0 0-1-.35h-.92L16.5 3a.85.85 0 0 1 1.24.29m3-.49a.62.62 0 0 0 0-.63L19.55.68l-1.13 1.48a.62.62 0 0 0 0 .63l1.17 3.42zm4.41 3.75l-.6-.74c-.48-.6-.92-1.17-2.25-.49l-2.4 1.22zM22.6 3l1.84 1.1h-.92a1.77 1.77 0 0 0-1 .35l-2.74 1.83 1.58-3A.85.85 0 0 1 22.6 3m-3.05 9.1a5.33 5.33 0 0 0 1-.08l.32-1.11-2 1.15a5.85 5.85 0 0 0 .73 0"/></svg>