<svg xmlns="http://www.w3.org/2000/svg" width="104.461" height="25.2" viewBox="0 0 27.639 6.668" version="1.1" id="svg8"><g id="layer1" transform="translate(-98.062 -138.696)"><g id="g16" transform="matrix(.26458 0 0 .26458 88.79 131.711)"><path id="path12" d="M135.2 45.6c-1.3 3.5-4.6 5.8-10.2 5.8-4.6 0-9.2-2.7-8-8.9.9-5.2 5.6-8.7 11.1-8.7 6.1 0 8.9 4.2 7.8 9.1l-.2 1.1h-11.5c0 .2-.2.7-.2 1.3 0 1.5.8 2 1.7 2 1 0 2-.6 2.4-1.7zm-5.9-5l.1-.4c.2-1.3-.4-2.3-1.7-2.3-1.3 0-2.4.9-2.7 2.7zm-13.4-6.4c-1.8 0-3.2.9-4.2 2.3h-.2l.3-2.1h-7.4l-.5 2.2 4.1-.5-.1.4-4.2.7-2.8 13.8h8s.8-4 1.3-6.3c.8-3.8 2.8-4.5 4.2-4.5 1.2 0 1.9.5 2 .6l1.3-6.1c-.1-.1-.7-.5-1.8-.5m-72.7 7c-3.2-1-5.6-2.9-5.6-6.5 0-5.2 5.2-8.2 12.3-8.3 5.9 0 9.9 2.5 9.2 7.4h-8.5c.3-1.3-.5-2.1-2-2.1-1.1 0-2 .5-2.1 1.3-.2.9.5 1.6 2 2 1.3.4 2.1.6 3.4.9 3.6 1.1 5.3 3.2 5.7 5.4L47 42.4zm.3 5.8l.7-3.4h-9.1c-.6 5.6 3.8 8 9.6 8 5.5 0 11.4-1.9 12.6-6.9zm47.1-11.5c.6-.5 2.2-1.6 4.5-1.6 2.4 0 4.3 1 5.2 3l-18.5 2 2.4-11.8h8l-1.8 8.5h.2zm-.5 3.9c-.5.7-.9 1.7-1.3 3.2-.7 3.3.1 4.2 1 4.2 1.3 0 2.4-1.3 3-4.1.3-1.8.2-3.1-.2-3.7l8-1.3c.4 1.3.5 2.9.1 4.7-1.2 6-4.8 9-8.8 9-1.8 0-3.8-.5-4.6-2.4h-.2l-.6 2h-7.2l2.1-10.2zm-22 0c.2-1 1-1.8 2-1.8.9 0 1.4.9 1.2 1.7l-.1.6 7.4-.8c-.5-3.8-4.1-5.5-8.2-5.5-6.2 0-9.2 3.1-9.8 5.8l-.1.4H68l.1-.4m-9.2 5c-.2.6-.4 1.3-.4 2.1 0 2.6 2 4.9 5.2 4.9 3 0 4.7-1.3 5.5-2.1h.1l-.2 1.6h7.5l1.8-8.7c.1-.3.2-.7.2-1zm11.3.7c-.2 1.3-1.1 2.3-2.3 2.3-1.2 0-1.6-.9-1.5-2 .2-.9 1.1-1.7 2.7-1.7h1.3z" class="st1" fill="#fff"/><text id="text14" class="st1" transform="translate(136.426 51.348)" font-size="4.172" font-family="Helvetica" fill="#fff">®</text></g></g><style id="style10" type="text/css">.st1{fill:#fff}</style></svg>