<svg xmlns="http://www.w3.org/2000/svg" width="592.33" height="242.239" viewBox="0 0 156.721 64.092"><path d="M49.489 64.061c-.233-.144-.33-5.584-.385-21.744-.04-11.854-.176-21.761-.3-22.016-.17-.345-.55-.463-1.492-.463-.847 0-1.47-.166-1.884-.5-.55-.446-.58-.571-.278-1.125.187-.343 1.017-1.116 1.846-1.717 1.968-1.429 6.13-3.802 6.667-3.802.759 0 1.056.61 1.056 2.17 0 1.41.261 1.917.657 1.276.262-.423 3.382-2.083 5.058-2.69 2.122-.768 6.51-.834 8.44-.127 4.911 1.799 8.887 6.307 9.898 11.224.37 1.796.37 4.925 0 6.721-.396 1.925-2.109 5.378-3.413 6.88-1.551 1.786-4.659 3.77-7.222 4.61-1.87.613-2.616.713-5.348.713-2.727.001-3.474-.098-5.292-.7-1.164-.386-2.265-.703-2.447-.705-.259-.003-.331 2.09-.331 9.592v9.596l-1.516.922c-.833.506-1.94 1.181-2.46 1.5-.518.317-1.083.491-1.254.385zm17.003-24.095a10.513 10.513 0 0 0 2.957-2.225c5.536-6.062 4.243-16.449-2.47-19.84-3.727-1.883-8.228-1.346-10.639 1.27-.59.64-1.167 1.5-1.281 1.908-.114.409-.208 4.017-.208 8.02 0 7.843.08 8.397 1.432 9.88 2.12 2.325 6.61 2.76 10.21.987zm-49.212 7.66c-.582-.111-1.95-.35-3.042-.53-1.092-.18-2.539-.537-3.216-.793C7.344 44.913 1.86 38.777.65 34.697c-.218-.735-.477-2.563-.575-4.062-.162-2.477-.103-3.056.644-6.3.718-3.117.972-3.79 2-5.29 1.9-2.774 4.772-5.543 7.116-6.861 2.44-1.372 3.794-1.762 7.59-2.184 2.42-.27 3.102-.251 5.022.134 2.71.544 4.947 1.559 6.875 3.12.8.646 1.82 1.434 2.27 1.75 1.164.82 4.122 5.405 4.363 6.766.109.61.412 1.646.674 2.301.65 1.623.66 6.817.018 9.26-.956 3.636-4.103 8.954-5.646 9.54-.877.334-.794.828.105.626.674-.15.638-.078-.486.987-.668.633-1.264 1.302-1.325 1.486-.062.188-.751.407-1.564.498-.932.104-1.673.362-2.066.719-.548.498-.961.56-3.969.598-1.846.023-3.832-.049-4.415-.16zm2.382-3.711c.09-.146.006-.265-.187-.265-.54 0-2.377-1.035-3.187-1.796-.4-.376-.727-.947-.727-1.268 0-.783-.572-.954-2.49-.747-1.498.162-2.537.661-2.537 1.22 0 .129.522.765 1.161 1.413 1.14 1.157 1.194 1.178 2.895 1.178.953 0 1.807.12 1.897.265.09.145.804.265 1.587.265.783 0 1.498-.12 1.588-.265zm7.255-3.33c1.025-.863 1.024-1.248-.006-1.98-.744-.531-1.023-.57-3.02-.416-2.693.207-3.038.33-3.038 1.083 0 1.187 1.482 1.915 4.014 1.97.97.021 1.413-.121 2.05-.658zM12.514 36.98c1.829-.49 1.564-1.533-.389-1.533-.552 0-.886-.221-1.287-.854-.79-1.247-.294-1.683 2.11-1.855 1.904-.137 2.869-.63 2.475-1.267-.254-.411-2.417-.205-4.18.399-.705.24-1.594.365-1.985.278-.946-.21-3.159-2.308-3.385-3.208-.22-.877.195-1.591.86-1.481 2.17.357 4.55.34 5.456-.038.545-.227.99-.523.99-.656 0-.134.477-.558 1.059-.944 1.069-.707 1.406-1.486.644-1.486-.713 0-1.453.534-1.723 1.243-.25.657-.318.677-1.846.517-1.822-.19-2.98-.71-3.562-1.597-.426-.65-.6-2.259-.298-2.748.097-.158 1.12-.947 2.272-1.754 1.634-1.145 2.114-1.628 2.18-2.192.057-.494.421-.959 1.142-1.46 1.57-1.091 2.447-1.18 3.645-.367.55.373 1.277.748 1.617.833.796.2 2.543 1.637 2.543 2.092 0 .527.68.68 1.231.277.47-.345.467-.381-.106-.992-.328-.348-.596-.755-.596-.904 0-.305 1.14-.886 1.74-.886.841 0 3.5 1.634 5.093 3.13 1.483 1.392 1.663 1.669 1.587 2.442-.085.875-.227 1.006-2.436 2.25-.624.353-.873.373-1.364.11-.742-.397-1.18-.156-1.18.65 0 1.04.542 1.23 3.262 1.152 2.216-.064 2.616-.005 3.27.48.409.305.78.86.826 1.234.07.585-.114.779-1.323 1.39-1.2.606-1.633.69-2.964.572-.858-.075-1.751-.037-1.985.086a6.541 6.541 0 0 1-.907.375c-.724.226-.424 1.032.485 1.304 1.75.523 1.982.681 1.982 1.351 0 .746-.859 1.11-1.963.834-.399-.1-.68-.037-.75.17-.088.262-.309.259-1.072-.015-.878-.315-1.03-.294-1.763.248-1.606 1.187-.602 1.742 2.307 1.275 1.015-.163 2.712-.21 3.933-.109 2.101.174 2.164.162 2.98-.578 2.371-2.153 2.579-8.623.422-13.182-.368-.777-.835-1.477-1.038-1.555-.202-.078-.848-.848-1.434-1.71-.938-1.381-1.33-1.7-3.262-2.647-4.088-2.006-6.192-2.24-11.06-1.23-1.834.38-4.752 1.873-4.768 2.44-.003.107-.51.538-1.125.959-1.197.817-2.653 2.605-3.225 3.96-1.075 2.55-1.598 5.345-1.569 8.4.027 2.845.084 3.173.78 4.451.868 1.596 1.261 1.859 3.425 2.294 2.105.424 2.807.432 4.23.052zm9.926-6.708c0-.485-.374-.49-.773-.01-.236.285-.228.4.034.494.458.164.739-.02.739-.484zm-1.522-3.163c1.486-.025 2.048-.42 1.512-1.066-.427-.515-1.413-.376-3.093.437-1.278.62-1.555 1.215-.403.869.4-.12 1.293-.229 1.984-.24zm-1.704-4.683c.058-.306-.142-.51-.612-.629-.897-.225-1.411.232-.923.82.44.53 1.42.41 1.535-.191zm87.628 20.924c-.8-.13-2.459-.716-3.686-1.302-6.284-3.002-9.777-10.262-8.077-16.789 2.182-8.375 11.557-14.044 20.184-12.205 2.113.45 4.42 1.405 5.143 2.129.576.576.66 3.461.108 3.674-.193.074-1.251-.446-2.351-1.155-2.946-1.898-4.466-2.447-6.836-2.47-1.747-.016-2.22.091-3.778.858-7.56 3.722-9.114 14.453-2.978 20.564 2.687 2.676 5.676 3.677 9.183 3.076 2.178-.374 3.44-.972 5.118-2.424 1.38-1.193 1.519-1.236 2.106-.65.748.75.476 1.485-1.125 3.042-3.164 3.077-8.077 4.456-13.011 3.652zm31.353.152a89.1 89.1 0 0 0-1.984-.407c-2.651-.518-5.687-2.196-7.804-4.313-7.402-7.403-5.528-19.683 3.703-24.258 5.386-2.67 13.001-2.335 17.747.779 6.366 4.176 8.644 12.305 5.387 19.218-2.459 5.221-7.939 8.712-14.118 8.993-1.321.06-2.64.055-2.931-.012zm6.161-3.42c6.963-3.79 8.308-15.647 2.483-21.905-.738-.793-1.875-1.632-2.823-2.083-1.36-.646-1.91-.755-3.837-.755-1.941 0-2.474.107-3.9.782-3.07 1.452-5.19 4.424-6.048 8.478-1.428 6.745 2.25 14.34 7.832 16.172.364.12 1.615.184 2.781.144 1.746-.061 2.366-.208 3.512-.832zM83.823 29.408V15.693l1.902-1.375c1.047-.756 2.18-1.444 2.517-1.529 1.424-.357 1.402-.562 1.402 13.311v12.812l.65.65c.39.39.954.649 1.415.649 2.098 0 3.31 1.266 2.291 2.392-.434.479-.839.518-5.323.518h-4.854zM85.43 6.953c-2.621-1.378-2.769-4.706-.283-6.382 2.189-1.475 5.242.07 5.475 2.771.247 2.862-2.707 4.917-5.192 3.611z" fill="#fff" stroke-width=".265"/></svg>