<svg id="Слой_1" data-name="Слой 1" xmlns="http://www.w3.org/2000/svg" viewBox="0 0 86.41 14.22"><defs><style>.cls-1{fill:#9a1648}</style></defs><path class="cls-1" d="M172.07 1544.51c.88 0 1.59-1.83 1.63-4.11-.53 0-1.08.07-1.64.07s-1.1 0-1.63-.07c0 2.28.75 4.11 1.62 4.11m0-5.85c.52 0 1 0 1.52-.06-.25-1.58-.83-2.69-1.52-2.69s-1.27 1.11-1.51 2.69c.49 0 1 .06 1.51.06m.71 8c4.88-.25 8.73-3.12 8.73-6.63a5.2 5.2 0 0 0-1.22-3.28c-.06 1.62-2.36 3-5.54 3.49v.32c0 2.94-.84 5.41-2 6.13zm-.71-12.46c1.17 0 2.16 1.77 2.52 4.23 2.27-.36 3.85-1.17 3.85-2.12 0-1.26-2.85-2.29-6.37-2.29s-6.37 1-6.37 2.29c0 1 1.59 1.76 3.85 2.12.37-2.46 1.36-4.23 2.52-4.23m-10.91 6.08c0-3.92 4.89-7.1 10.91-7.1s10.91 3.18 10.91 7.1-4.88 7.11-10.91 7.11-10.91-3.18-10.91-7.11m10.23 6.39c-1.14-.72-2-3.19-2-6.13v-.32c-3.19-.5-5.48-1.87-5.54-3.49a5.22 5.22 0 0 0-1.23 3.28c0 3.51 3.85 6.38 8.74 6.63zM222.27 1543.77a3.47 3.47 0 1 0-3-3.44 3.25 3.25 0 0 0 3 3.44m-5.43-3.44a5.43 5.43 0 1 1 5.43 5.44 5.43 5.43 0 0 1-5.43-5.44" transform="translate(-161.16 -1533.23)"/><path class="cls-1" d="M72.7 3.94v8.35h-2.28V3.94h-3.2V2.05h8.68v1.89H72.7z"/><path class="cls-1" d="M241.93 1541.49h1.44l-1.43-3.75-1.43 3.75zm-2.1 1.73l-.88 2.3h-2.67l4.22-10.24h2.85l4.23 10.24h-2.68l-.87-2.3h-4.2z" transform="translate(-161.16 -1533.23)"/><path class="cls-1" d="M30.51 3.94v8.35h-2.29V3.94h.01-3.2V2.05h8.67v1.89h-3.19z"/><path class="cls-1" d="M200.89 1543.77a3.47 3.47 0 1 0-3-3.44 3.26 3.26 0 0 0 3 3.44m-5.44-3.44a5.44 5.44 0 1 1 5.44 5.44 5.43 5.43 0 0 1-5.44-5.44" transform="translate(-161.16 -1533.23)"/><path class="cls-1" d="M50.41 12.29h1.17V8.4l3.99-6.35H52.9l-2.49 4.31-2.48-4.31h-2.67l3.99 6.35V12.29h1.16z"/></svg>