<svg id="Слой_1" data-name="Слой 1" xmlns="http://www.w3.org/2000/svg" viewBox="0 0 39.08 9.93"><defs><style>.cls-1{fill:#9a1648}.cls-2{fill:#cc3349}</style></defs><path class="cls-1" d="M.24 2.75a.85.85 0 0 1 .63.19 1 1 0 0 1 .2.76v4.8c0 .66-.14 1-1 1H0v.3h3.69v-.3h-.11c-.81 0-1-.3-1-1V3.7a1 1 0 0 1 .21-.76.83.83 0 0 1 .63-.19h.22v-.3H0v.3zM12.06 7.31a3.77 3.77 0 0 1-.06-.47V4.65c0-1.28.16-1.92-1-1.91v-.29h2.6v.29c-1.15 0-1 .63-1 1.91v5.12h-.36L6.66 4a3.77 3.77 0 0 1 .08.47V8c0 1.31.13 1.47 1 1.45v.3H5v-.3c.84 0 1-.11 1-1.56v-4c0-.73-.23-1.15-1-1.14v-.29h2.44zM21.37 2.31h-.29v.1c0 .14-.08.38-.24.38a.87.87 0 0 1-.3-.08 5.18 5.18 0 0 0-1.94-.4 4.36 4.36 0 0 0-3.12 1.23 3.89 3.89 0 0 0-1.11 2.79 3.3 3.3 0 0 0 1.23 2.59 4.45 4.45 0 0 0 3.12 1 5.06 5.06 0 0 0 2.77-.69l.17-.1v-1.9c0-.82.1-1 .77-1h.11V6h-3.26v.28h.11c.74 0 .88.16.88.83v1.76a2.47 2.47 0 0 1-1.45.5 2.67 2.67 0 0 1-1.92-.8 3.39 3.39 0 0 1-.9-2.44 3.53 3.53 0 0 1 .87-2.54 2.41 2.41 0 0 1 1.77-.72 3.21 3.21 0 0 1 1.85.66 2.19 2.19 0 0 1 .77 1.18v.08h.27z"/><path class="cls-2" d="M35.58 9.74a.91.91 0 0 0 .52-.16 2.42 2.42 0 0 0 1.71-.39 3.64 3.64 0 0 0 .66-.7 2.57 2.57 0 0 0 .37-.69 2.77 2.77 0 0 0 .16-.49 4.66 4.66 0 0 0-.17-2.43c0-.14-.1-.28-.16-.41a4.19 4.19 0 0 0-1.44-1.8 2.84 2.84 0 0 1-.94-1c-.12-.1-.23-.24-.38-.27a.62.62 0 0 1 .1.22.57.57 0 0 1-.39-.18l.12-.11a.44.44 0 0 0-.15-.05 3.3 3.3 0 0 0-1.25.27c.25.11.31.39.45.57h.36c.07 0 0-.11 0-.17s.1 0 .14 0 .35 0 .43.17a3 3 0 0 0-.43.07c0 .06.06.1.06.16a1.64 1.64 0 0 0-.38-.1 1.3 1.3 0 0 0 .64.39c.35.08.65-.08 1 0a3.87 3.87 0 0 1 1.82 2 .56.56 0 0 0 0 .12 4 4 0 0 1 0 2.43 3.23 3.23 0 0 1-.53.89 1.64 1.64 0 0 1-.3.29 1.32 1.32 0 0 1-1.2.26s-.08 0-.07-.07 0-.12 0-.19a4.88 4.88 0 0 0 .09-1.15 4.28 4.28 0 0 0-.34-1.57 5 5 0 0 0-.49-.86 2 2 0 0 0-.92-.75.64.64 0 0 0-.69.12.46.46 0 0 0-.16.42 1.51 1.51 0 0 1-.66.21h-.35a1.68 1.68 0 0 1-.8-.37v-.36a.41.41 0 0 1-.24-.34.75.75 0 0 1 .2.1 1.5 1.5 0 0 0-.15-.51 1.73 1.73 0 0 1-.24-.1.38.38 0 0 1-.14-.21c.08.08.22 0 .28.14a4.53 4.53 0 0 0-.29-1c-.09-.22-.32-.32-.48-.47s-.09-.19-.2-.2-.1-.12-.11-.19.1 0 .15.06a1.71 1.71 0 0 0-.61-1h-.06a3 3 0 0 1-.42 0 .59.59 0 0 1 .3-.02.64.64 0 0 0-.3-.11.72.72 0 0 1-.3.13c0-.08 0-.18.1-.2a.66.66 0 0 0-.44 0c0 .09-.13.17-.12.27s-.12.17-.2.22a1.87 1.87 0 0 1 .11-.48l-.31.14A4.06 4.06 0 0 0 28 0v.5l-.1-.08c0-.12-.17-.2-.2-.33a2.07 2.07 0 0 0-.4.13.33.33 0 0 1 .26.17 3.55 3.55 0 0 1-.47-.08h-.06a1.28 1.28 0 0 0-.21.14 1.62 1.62 0 0 0-.4.54.27.27 0 0 1 .16 0c-.09.06-.16.15-.25.2a2.25 2.25 0 0 0 0 .38 3.13 3.13 0 0 0-.2.3A4.55 4.55 0 0 0 26 3.38l-.15.1V4c0-.1.14-.15.21-.22v.32l-.14.11c-.13.11 0 .29 0 .44s0 .09.05.1.06-.1.09-.15.11-.06.16-.06a2.13 2.13 0 0 1-.11.33l-.11.01a.22.22 0 0 0 0 .08 12.07 12.07 0 0 0 .45 1.59c-.12.21-.19.46-.3.68v.09a7.86 7.86 0 0 1-.27.82.91.91 0 0 0-.17-.09.69.69 0 0 0-.71.16.63.63 0 0 0-.45.08.6.6 0 0 0-.2.25.49.49 0 0 0 0 .21A.47.47 0 0 0 24 9a.87.87 0 0 0 .18.7z"/><path class="cls-2" d="M34.07 4.6v.18c0 .05.14-.06.22-.09a2.26 2.26 0 0 1 .58.09c0-.07-.08-.15-.13-.22s-.26 0-.28-.11-.17 0-.23 0a.49.49 0 0 0-.16.16M27.1 2.63h-.01.01zM27.93 4.66l.13-.13v.27a.35.35 0 0 0 .24.08c0-.07.05-.11.08-.17s0-.12.06-.16a1 1 0 0 0 .05.23.43.43 0 0 0 0 .11.6.6 0 0 0 .27-.06.93.93 0 0 1 0-.24v-.07c0 .01.09.14.12.21a1 1 0 0 0 .22-.49c0-.06-.1-.06-.15-.09a1.71 1.71 0 0 0-1.26 0 .59.59 0 0 0 .11.45M24.3 9a4.34 4.34 0 0 0 0 .51.27.27 0 0 0 .17.13v-.17c0-.16-.06-.33 0-.47l.19.08a.43.43 0 0 0-.16-.42zM24.86 8.7a1.33 1.33 0 0 0 0 .88 1.1 1.1 0 0 0 .14-.14.88.88 0 0 1 .08-.62.39.39 0 0 1 .23.24.39.39 0 0 0 .07-.35c0-.1-.11-.08-.16-.12s0-.18.1-.23h-.27a1.44 1.44 0 0 0-.19.31M25.43 9.49v.06c0-.19.19-.32.27-.49s0-.13.11-.18.19.12.26.12 0 0 0 .07a2.12 2.12 0 0 0-.06.44 2.86 2.86 0 0 0 .3-.41v-.18c0-.16-.15-.26-.26-.32l.1-.13h-.14a.6.6 0 0 0-.41.2 1.89 1.89 0 0 0-.17.86M26 8.13h.15a1.5 1.5 0 0 1 .59.33l.19.48.09-.3-.02-.16c-.05-.11-.2-.1-.29-.11s0-.09 0-.14-.15-.15-.23-.22-.11-.06-.18-.07H26.18a.31.31 0 0 0-.12.23M26.17 7.61a.22.22 0 0 0 0 .08c.1 0 .2-.1.32-.06A1.56 1.56 0 0 0 27 8h.06a.17.17 0 0 1 .12.06c0 .06 0 .1-.06.15s.06.21.13.3l.16-.22c0-.09 0-.26-.15-.27a.13.13 0 0 1-.08-.13c-.1-.09-.22-.13-.32-.22s-.13-.16-.23-.18a.9.9 0 0 0-.23-.08c-.15 0-.17.16-.27.23M26.39 7.16a1.88 1.88 0 0 1 .33 0c.07 0 .17 0 .25.08a1 1 0 0 0 .22.24c.18 0 .29.22.35.37v-.08a.45.45 0 0 0 0-.3 1 1 0 0 0-.16-.12v-.07a1.51 1.51 0 0 0-.26-.18c-.12-.17-.36-.12-.54-.17zM26.39 5.48c0 .07 0 .16.06.24.06-.14.19-.21.3-.32a.45.45 0 0 0-.22-.08c-.05 0-.12.1-.14.16M26.8 6.23l.11-.1a.72.72 0 0 0 .2-.36.33.33 0 0 0-.24 0 3.25 3.25 0 0 0-.07.45M26.88 6.56a.65.65 0 0 0 .44 0l.12-.41h-.12a1 1 0 0 1-.44.47M26.93 5.1a.91.91 0 0 0 .45.37c0-.19-.19-.33-.27-.49v-.06a1 1 0 0 0-.21-.14 1.12 1.12 0 0 0 0 .32M27.48 6.58a.73.73 0 0 0 .36 0c.17 0 .26-.22.31-.35H28l-.22.21a1.44 1.44 0 0 0-.25.18M27.46 4.89a1.37 1.37 0 0 0 .21.5v-.34zM28.21 5.78a2.23 2.23 0 0 0-.05-.36c-.07 0-.17 0-.24-.09a.7.7 0 0 0 .29.45M28 6.94a3 3 0 0 0 .41-.17c.09-.12.22-.23.23-.37h-.29a.81.81 0 0 1-.21.31c0 .08-.1.13-.14.19M28.22 7.22l.17.23a.37.37 0 0 0 .29 0l-.06-.2a.78.78 0 0 1-.4 0M28.51 5.6l.06.31a.62.62 0 0 0 .19-.52.7.7 0 0 1-.25.21M29 6.14a.27.27 0 0 0 0 .12c.18.06.2.28.37.36a.37.37 0 0 0 .32-.06c-.07-.08-.15-.13-.22-.22s-.1 0-.09-.11zM29.1 7.21a.5.5 0 0 0 .29.16l-.14-.3h-.2a.32.32 0 0 0 0 .14M29.34 5.81a2 2 0 0 1-.11-.49c-.07.08-.14.13-.2.21s.21.22.31.28M29.62 5.65c.08.11.26.07.36 0-.05-.08-.2-.13-.23-.22a2.26 2.26 0 0 0-.1-.45.64.64 0 0 0 0 .63M29.76 6.14c.23.16.45.36.77.29h.07c.01 0-.19-.1-.29-.16l-.11-.16h-.05a2.45 2.45 0 0 1-.39.08M29.77 8a1.15 1.15 0 0 1 .46-.19c.05 0 0 .06.06.08s.22 0 .32-.07a.75.75 0 0 1 .31.06c.08.1.23.09.33.16v-.16a1 1 0 0 0-.85-.26.44.44 0 0 0-.22 0 .9.9 0 0 0-.28.08 1.36 1.36 0 0 0-.11.28M30 5.18a.38.38 0 0 0 .37.18.47.47 0 0 1-.17-.26c0-.21-.2-.22-.31-.33a1.38 1.38 0 0 0 .11.41"/><path class="cls-2" d="M29.93 8.39c.12-.07.3 0 .42-.1s.07.06.12.09.12.27.28.22c.19.1.14.33.15.5l.19-.1v-.27c0-.07-.16-.11-.22-.19s-.09-.17-.12-.26h.24c.09.05.11.15.14.23.19 0 .23.25.3.38 0-.09.06-.19.1-.28s-.1-.08-.15-.11a.44.44 0 0 0-.17-.3 2.66 2.66 0 0 0-.64-.2l-.19.06c-.1 0-.22 0-.3.07s-.12.14-.15.22M30.05 7.45l.29-.13c.15 0 .27.13.4 0s.08 0 .12 0 .18.09.28.12c-.05-.13-.11-.31-.27-.33a1.29 1.29 0 0 1-.21-.07c-.18-.19-.29.16-.48.07-.07.08-.16.15-.17.25"/><path class="cls-2" d="M30.09 8.56c.07.06.15.17.26.16s.09.25.16.35l.08-.07a.44.44 0 0 0 0-.27h-.17a.23.23 0 0 0-.1-.15h-.13zM30.38 5.78c.07.13.22.2.33.29a.53.53 0 0 0 .33 0 2.23 2.23 0 0 1-.27-.26.71.71 0 0 0-.08-.15.63.63 0 0 0-.31.09M30.5 5c.11.13.27.08.42.09V5l-.23-.19a.76.76 0 0 0-.19.19M26.3 2.81l.13.41a4.76 4.76 0 0 0 .08-.66l.1-.15-.21.07a.75.75 0 0 0-.1.33M26.39 2.1l.18-.1v-.27c-.08 0-.12.12-.18.18z"/><path class="cls-2" d="M30.09 2.51a.24.24 0 0 1-.16.09A.79.79 0 0 0 30 2a1 1 0 0 0 .16-.06l.13-.11c.16-.12.1-.33.16-.49a1.64 1.64 0 0 0-.22-.39C30.12.8 30 .82 29.82.76s-.3.06-.42.13 0 .08-.08.08a1.71 1.71 0 0 0-.09.27.91.91 0 0 0-.65.12 1 1 0 0 0-.32-.12h-.24c-.06 0-.1-.28-.25-.3a.14.14 0 0 1-.07-.16c-.09 0-.18-.06-.28-.08s-.26 0-.37.11a.94.94 0 0 0-.15.06 1.69 1.69 0 0 0-.21.4.85.85 0 0 0 .13.31.63.63 0 0 0 .35.33 1.46 1.46 0 0 0 0 .72h-.08a1.07 1.07 0 0 0 .31.58c.05 0 0 .09.07.13a.28.28 0 0 1 0 .09 1.71 1.71 0 0 0-1 .23c-.07 0 0 .14-.05.21a1.74 1.74 0 0 1 .66-.27 1.15 1.15 0 0 1 .32 0v.2a2.68 2.68 0 0 0-.8.46.72.72 0 0 0 0 .21l.21-.17a2.73 2.73 0 0 1 .64-.37.76.76 0 0 0 .2.2 1.51 1.51 0 0 1 .45-.2c.09 0 .22 0 .28-.1v-.21a.32.32 0 0 1-.16-.3h-.13s-.07 0-.08-.06 0-.11 0-.15a.93.93 0 0 1 .53-.08c.13 0 .34 0 .38.18a.14.14 0 0 1-.05.13h-.15a.4.4 0 0 1-.22.27v.13c0 .06 0 .16.12.14a2 2 0 0 1 .59.28.74.74 0 0 0 .16-.2 3.2 3.2 0 0 1 .91.6v-.19a3.22 3.22 0 0 0-.86-.53v-.19a2.3 2.3 0 0 1 1 .31V3.8a2.31 2.31 0 0 0-1-.29.09.09 0 0 1 0-.07.5.5 0 0 0 .35-.38c.1-.11.23-.23.2-.39a.25.25 0 0 0 0-.12"/><path class="cls-2" d="M30.41 3.1l.19-.1v-.1c.05-.16-.06-.27-.12-.39zM30.88 3.82c.09.1.18.26.33.21a.67.67 0 0 0-.07-.18c0-.05-.05-.18-.13-.14s-.08-.11-.12-.16a1.22 1.22 0 0 0 0 .27M30.91 4.49a1.19 1.19 0 0 1 .08.16.35.35 0 0 0 .23 0c.07 0 .11.06.17 0s-.12-.14-.2-.21-.18 0-.28 0M31 5.55a.87.87 0 0 0 .57.16h.07c.01 0-.27-.17-.41-.2s-.17 0-.27 0a.15.15 0 0 0 0 .06M31.51 7.57v.07c0 .24.19.46.11.72.06.05.08.13.13.19a1.52 1.52 0 0 0 0-.6c0-.18-.16-.29-.27-.38M31.55 5.23a.53.53 0 0 0 .44.06 1.38 1.38 0 0 1-.25-.17zM32.11 5.93a.26.26 0 0 0 .12.23.41.41 0 0 0 .07-.16.43.43 0 0 0-.16-.26.46.46 0 0 0 0 .2M32.12 7c0 .11.1.13.15.18s0 .09 0 .14a.6.6 0 0 1 .14.39 3.2 3.2 0 0 0 .1-.42c0-.1-.16-.08-.14-.19a.47.47 0 0 0 0-.33s-.14.16-.13.27M32.43 6.43l.12.23c.05 0 .09-.06.13-.09s-.06-.16-.08-.24 0-.12 0-.17-.06 0-.1 0zM32.58 5.82a.64.64 0 0 1 .25.24 6.85 6.85 0 0 0 .31.67c0 .16.06.3.1.46s0 .12.07.11c0-.17 0-.34.06-.52a.58.58 0 0 0-.21-.15.1.1 0 0 1 .09-.08s.08 0 .06-.08-.11-.33-.3-.36a.16.16 0 0 1-.09-.16.58.58 0 0 0-.34-.11M32.69 7.06c.12.11.08.26.07.41s.09 0 .12.08 0 .26 0 .37a1.92 1.92 0 0 0 .18-.28v-.1c0-.1-.06 0-.09 0s-.06 0-.05-.07 0-.25 0-.36v-.3c-.08.1-.29.12-.24.29M32.9 5.44c.21.21.36.41.58.61a2.28 2.28 0 0 0 0-.26.66.66 0 0 0-.14-.15c-.16 0-.24-.23-.42-.2M33.44 6.53a.14.14 0 0 0 0 .06 2.38 2.38 0 0 1 .23.45c0-.17.1-.38 0-.51s-.09 0-.13 0zM34 8.2c.07 0 .15 0 .21-.06s.11 0 .15 0 0 .08 0 .11a1.49 1.49 0 0 1 .39.17.26.26 0 0 0-.14-.22s-.12 0-.16-.06a.15.15 0 0 0 0-.13.3.3 0 0 1-.13-.01h-.11c-.04 0-.12.19-.23.25M34.14 5.32a.36.36 0 0 0 .17-.07c.15-.14.37 0 .55 0a1 1 0 0 0-.12-.25.51.51 0 0 0-.2-.06c-.16-.09-.26.06-.38.14a.26.26 0 0 0 0 .21M34.15 5.79v.07l.17-.11c.15 0 .24-.15.39-.15a2.51 2.51 0 0 1 .72.22.5.5 0 0 0-.27-.35.2.2 0 0 0-.19.06c-.15.09-.07-.14-.18-.15a1.26 1.26 0 0 1-.43.08c-.1 0-.16.12-.26.11a.44.44 0 0 0 0 .23M34.25 6.3h.2l.2-.07s-.06 0 0-.09.13 0 .2-.05.2-.1.29 0 0 .12.07.15.22.12.33.07a1.31 1.31 0 0 0-.06-.27c-.09 0-.16-.09-.24-.12a.2.2 0 0 1-.14.06c-.18 0-.39-.15-.56 0s-.18 0-.27.09a.78.78 0 0 0 0 .22M34.33 7.66v.12c0 .02.33-.07.45 0s0 .1 0 .13l.2.16a2.33 2.33 0 0 0 .05-.28.3.3 0 0 0-.12-.19c-.12 0-.2-.15-.33-.13s-.13 0-.2 0a1 1 0 0 1-.08.11M34.38 6.58c0 .06.07.17.13.17a.66.66 0 0 1 .48 0v.1c0 .03.17.09.25.14v-.14c0-.15-.2-.16-.21-.31a.87.87 0 0 0-.48 0c-.06 0-.13 0-.19.06M34.42 7.32c.09 0 .15-.12.24-.13a.43.43 0 0 1 .37.19c.06 0 0 .13.12.13a1.82 1.82 0 0 1 0-.33c-.1-.16-.34 0-.42-.22h-.17c-.12 0-.09.17-.11.26s0 .06 0 .09M35.26 8.32c.07.14.23.25.24.41a.67.67 0 0 0 .09-.14s-.06 0-.08-.08 0-.11 0-.17a.4.4 0 0 0-.18-.21zM35.54 8l.17.22a.57.57 0 0 0 0-.41s0-.06-.09 0-.07.16-.12.23M34.87 1.71a.42.42 0 0 0 .19.06.25.25 0 0 1 .17 0c.08.05.19 0 .28 0a1 1 0 0 0-.28-.18c-.13 0-.23.12-.36.15M35.77 1.93c.12 0 .2.12.28.21a.36.36 0 0 1 .25.16v-.12a.75.75 0 0 0-.18-.31.78.78 0 0 0-.31.06M27.25.93h.06c.18.09.47.14.48.39a1.43 1.43 0 0 0-.49.32c-.11-.11-.33 0-.37-.25S27 1 27.25.93M27.42 2.08h.62a.25.25 0 0 1 .13.12c0 .24-.08.48-.09.73a.38.38 0 0 0-.21.22c-.08 0-.16.08-.24.12a.24.24 0 0 1 0-.26c.09-.13.32-.1.31-.3s0-.22 0-.32 0 0-.08 0a.3.3 0 0 1-.21 0c-.05 0-.11-.09-.12-.16a.38.38 0 0 1-.18-.15zM27.67 3.57h.28c.08 0-.06.05-.1.05l-.15.08c-.06 0 0-.11 0-.15M28.07 1.67a.49.49 0 0 1 .31-.07 1.28 1.28 0 0 0-.2.26h-.31a.46.46 0 0 1 .2-.19M29 1.59c.13 0 .13.15.25.15s.05.05 0 .1-.17 0-.25 0 0-.24-.2-.23a.43.43 0 0 1 .16 0M28.9 2.2a.3.3 0 0 1 .23-.1h.59v.07a.91.91 0 0 0-.13.08c-.07 0-.07.09-.12.13s-.21 0-.31 0a.29.29 0 0 1-.09-.1v.4l.14.09c0 .21.25.16.35.27a.63.63 0 0 1-.12.21.78.78 0 0 0-.3-.18c0-.12-.14-.2-.21-.26 0-.22 0-.45-.06-.67zM29.12 3.61h.27v.14l-.28-.11M29.61 1l.2-.06a1.68 1.68 0 0 1 .34.2.83.83 0 0 1 0 .54c-.06.07-.2 0-.25.11a1 1 0 0 0-.49-.51.47.47 0 0 1 .2-.28"/><path class="cls-2" d="M34.37 9.72h1.22a.9.9 0 0 0 .51-.15 2.38 2.38 0 0 0 1.71-.4 3.71 3.71 0 0 0 .67-.7 2.43 2.43 0 0 0 .37-.69 2.75 2.75 0 0 0 .15-.49 4.57 4.57 0 0 0-.17-2.43c0-.14-.1-.27-.16-.4a4.24 4.24 0 0 0-1.43-1.8 3.06 3.06 0 0 1-.95-1c-.11-.11-.22-.25-.37-.27a.56.56 0 0 1 .09.21.55.55 0 0 1-.39-.18l.12-.11h-.15a3.29 3.29 0 0 0-1.25.26c.25.11.3.39.45.58 0-.05.09 0 .15 0s.14.06.21 0a.43.43 0 0 0-.07-.15.26.26 0 0 1 .15 0c.13.07.34 0 .42.16a2 2 0 0 0-.43.08c0 .05.07.1.06.16a1.26 1.26 0 0 0-.38-.1 1.33 1.33 0 0 0 .65.39c.34.08.65-.09 1 0a3.82 3.82 0 0 1 1.82 2v.12a4 4 0 0 1 0 2.43 3.3 3.3 0 0 1-.52.89 2.69 2.69 0 0 1-.3.29 1.34 1.34 0 0 1-1.2.27s-.09 0-.08-.07a1.42 1.42 0 0 0 0-.2 4.4 4.4 0 0 0 .09-1.15 4.5 4.5 0 0 0-.35-1.56 5.46 5.46 0 0 0-.49-.87 2.08 2.08 0 0 0-.91-.75.7.7 0 0 0-.7.12.48.48 0 0 0-.16.42 1.35 1.35 0 0 1-.66.21 1.13 1.13 0 0 1-.18 0h-.17a1.6 1.6 0 0 1-.8-.37v-.35a.45.45 0 0 1-.24-.34 1.33 1.33 0 0 1 .21.09 1.46 1.46 0 0 0-.16-.5l-.24-.11a.4.4 0 0 1-.07-.26c.08.08.22.05.28.13a4.51 4.51 0 0 0-.28-1c-.09-.21-.33-.31-.48-.47s-.09-.18-.2-.19-.1-.13-.12-.19.11 0 .16.05a1.74 1.74 0 0 0-.61-1h-.06a3.13 3.13 0 0 1-.43 0 .56.56 0 0 1 .3-.02.59.59 0 0 0-.31-.12.58.58 0 0 1-.3.13c0-.08 0-.18.1-.2a.7.7 0 0 0-.43 0c0 .09-.14.17-.13.27a1.55 1.55 0 0 1-.19.23 1.85 1.85 0 0 1 .1-.49l-.31.14A4.66 4.66 0 0 0 28 0h-.05s.09.31.11.46L28 .41c-.05-.12-.18-.21-.2-.33a1.7 1.7 0 0 0-.4.13.3.3 0 0 1 .25.17 3.81 3.81 0 0 1-.47-.07h-.05a.74.74 0 0 0-.22.14 1.36 1.36 0 0 0-.39.53h.15c.03 0-.16.14-.24.19a1.58 1.58 0 0 0 0 .38 1.27 1.27 0 0 0-.2.31 4.46 4.46 0 0 0-.23 1.5 1.43 1.43 0 0 1-.15.11v.46c0-.09.13-.15.21-.21A3 3 0 0 0 26 4l-.13.11c-.13.12 0 .29 0 .44v.11a.78.78 0 0 1 .1-.15c.06 0 .11-.06.16-.07a2.3 2.3 0 0 1-.12.34l-.01.08A.18.18 0 0 0 26 5a9.51 9.51 0 0 0 .45 1.58 5.85 5.85 0 0 0-.3.68s0 .07-.05.1a7.63 7.63 0 0 1-.26.81L25.62 8a.71.71 0 0 0-.71.16.58.58 0 0 0-.45.09.58.58 0 0 0-.2.24.54.54 0 0 0 0 .22A.51.51 0 0 0 24 9a.9.9 0 0 0 .18.69z"/><path class="cls-1" d="M38.82 4.86c0-.14-.1-.27-.16-.4a4.24 4.24 0 0 0-1.43-1.8 3 3 0 0 1-.95-1c-.11-.11-.22-.25-.37-.27a.56.56 0 0 1 .09.21.55.55 0 0 1-.39-.18l.12-.11h-.15a3.49 3.49 0 0 0-1.25.26c.25.11.3.39.45.58 0-.05.09 0 .15 0s.14.06.21 0a.43.43 0 0 0-.06-.15.26.26 0 0 1 .15 0c.13.07.34 0 .42.16a2 2 0 0 0-.43.08c0 .05.07.1.06.16a1.26 1.26 0 0 0-.38-.1 1.33 1.33 0 0 0 .65.39c.34.08.65-.09 1 0a3.81 3.81 0 0 1 1.82 2.05v.11a4 4 0 0 1 0 2.43 3.3 3.3 0 0 1-.52.89 2.69 2.69 0 0 1-.3.29 1.34 1.34 0 0 1-1.2.27s-.09 0-.08-.07a1.18 1.18 0 0 0 0-.2 4.4 4.4 0 0 0 .09-1.15v-.04a4.5 4.5 0 0 0-.35-1.56 5.46 5.46 0 0 0-.49-.87 2.08 2.08 0 0 0-.91-.75.7.7 0 0 0-.7.12.48.48 0 0 0-.16.42 1.35 1.35 0 0 1-.66.21 1.13 1.13 0 0 1-.18 0h-.17a1.6 1.6 0 0 1-.8-.37v-.35a.45.45 0 0 1-.24-.34 1.33 1.33 0 0 1 .21.09 1.46 1.46 0 0 0-.16-.5l-.24-.11a.37.37 0 0 1-.07-.26c.08.08.22.05.28.13a4.51 4.51 0 0 0-.28-1c-.09-.21-.33-.31-.48-.47s-.09-.18-.2-.19-.1-.13-.12-.19.11 0 .16.05a1.74 1.74 0 0 0-.61-1h-.06a3.13 3.13 0 0 1-.43 0 .56.56 0 0 1 .3-.02.59.59 0 0 0-.31-.12.58.58 0 0 1-.3.13c0-.08 0-.18.1-.2a.7.7 0 0 0-.43 0c0 .09-.14.17-.13.28a2.15 2.15 0 0 1-.19.22 1.85 1.85 0 0 1 .1-.49l-.31.14A4.66 4.66 0 0 0 28 0h-.05s.09.31.11.46L28 .41c-.05-.12-.18-.2-.2-.33a1.7 1.7 0 0 0-.4.13.32.32 0 0 1 .25.17 3.81 3.81 0 0 1-.47-.07h-.05a.74.74 0 0 0-.22.14 1.43 1.43 0 0 0-.39.53h.15c.03 0-.16.14-.24.19a1.58 1.58 0 0 0 0 .38 1.27 1.27 0 0 0-.2.31 4.46 4.46 0 0 0-.23 1.5 1.12 1.12 0 0 1-.15.11v.46c0-.09.13-.15.21-.21v.31l-.13.11c-.13.12 0 .29 0 .44v.11a.78.78 0 0 1 .1-.15c.06 0 .11-.06.16-.07a2 2 0 0 1-.12.34l-.07.05A.18.18 0 0 0 26 5a9.51 9.51 0 0 0 .45 1.58 5.85 5.85 0 0 0-.3.68s0 .07-.05.1a7.63 7.63 0 0 1-.26.81L25.62 8a.67.67 0 0 0-.71.16.56.56 0 0 0-.65.32.54.54 0 0 0 0 .22.51.51 0 0 0-.26.3.89.89 0 0 0 .18.69h4a1.28 1.28 0 0 1-.15-.25c-.09-.13 0-.32 0-.47l.26-.49.06-.1.18-.07c.1 0 .18-.07.28-.05s.12-.12.24-.13a.69.69 0 0 1 .73.23s.05 0 0 .06-.07 0-.11 0-.38-.15-.55-.06a.59.59 0 0 0 0 .13.5.5 0 0 0 0 .12.94.94 0 0 1 .29.2.45.45 0 0 1 .28-.2.62.62 0 0 1 .27.09c.15.13.08.36.06.52.13.08.28.12.41.19a.55.55 0 0 1-.22.1h-.22s-.07 0-.08-.05a1.1 1.1 0 0 0-.2.28h3.12a2 2 0 0 0-.14-.25 1.26 1.26 0 0 1-.03-.49l.34-.45a2.91 2.91 0 0 1 .52 0c.08 0 .1-.17.2-.15a.57.57 0 0 1 .49.12c-.06.09-.17 0-.25 0s0 .08 0 .13a.18.18 0 0 1-.14 0 .88.88 0 0 0-.12.21c.06.05.13.1.15.16s0 .13-.06.2-.09-.1-.14-.08a4.14 4.14 0 0 0 0 .61 1.4 1.4 0 0 0 .29 0v-.43a1.38 1.38 0 0 1 .39-.72c.21-.15.35.14.5.24s0 .07-.08.08-.17-.07-.23-.13a1.33 1.33 0 0 1-.14.19.45.45 0 0 1 .16.25.3.3 0 0 1-.13.23 1.66 1.66 0 0 1-.16-.33s-.16.18-.18.29-.08.16-.06.27h1.63a.9.9 0 0 0 .51-.15 2.38 2.38 0 0 0 1.71-.4 3.71 3.71 0 0 0 .67-.7 2.3 2.3 0 0 0 .37-.69 2.75 2.75 0 0 0 .1-.46 4.57 4.57 0 0 0-.17-2.43"/><path class="cls-1" d="M28.35 9.1c.08-.06.23-.07.25-.2s-.07-.07-.11-.07h-.09a.64.64 0 0 1 .05-.17l.3-.1a2.32 2.32 0 0 0-.07.46 1.67 1.67 0 0 0 .18.68h-.32c0-.21-.26-.37-.19-.62M29.05 8.83l.22.19v.7h-.23a2.78 2.78 0 0 1-.11-.72.81.81 0 0 1 .12-.18M29.53 9s.07-.15.15-.16a.22.22 0 0 1 .17.06c.08.1 0 .22 0 .32a3.09 3.09 0 0 1-.14.46h-.23zM33 9c0 .07.06.16.14.21a.42.42 0 0 0 0-.35l-.07-.06h.26a.92.92 0 0 0-.09.38c0 .2 0 .41.05.62h-.25a1.34 1.34 0 0 1-.17-.62A.35.35 0 0 1 33 9"/><path class="cls-2" d="M34.08 4.59v.17c0 .05.15-.06.22-.08a1.69 1.69 0 0 1 .59.09 1.76 1.76 0 0 0-.14-.23c-.1 0-.26 0-.28-.11s-.16 0-.23 0a.49.49 0 0 0-.15.17M27.1 2.62zM27.93 4.65l.14-.14v.25a.42.42 0 0 0 .24.09.61.61 0 0 1 .09-.18c0-.05 0-.12.06-.15a.86.86 0 0 0 .05.23v.11a.49.49 0 0 0 .27-.06.62.62 0 0 1 0-.23v-.08s.09.14.12.21a.88.88 0 0 0 .22-.49s-.1 0-.14-.09a1.71 1.71 0 0 0-1.26 0 .56.56 0 0 0 .1.45M24.3 8.93a4.3 4.3 0 0 0 0 .51c0 .06.11.13.17.13v-.11c0-.17-.06-.34 0-.47l.18.08a.39.39 0 0 0-.16-.42zM24.87 8.68a1.33 1.33 0 0 0-.05.88 1.1 1.1 0 0 0 .18-.14.94.94 0 0 1 .09-.62.44.44 0 0 1 .23.25.45.45 0 0 0 .07-.36c0-.1-.11-.07-.17-.12s0-.18.11-.23h-.28a1.39 1.39 0 0 0-.18.31M25.43 9.47v.06c0-.19.19-.31.28-.48s0-.14.1-.18.16.06.24.07 0 0 0 .06a2.24 2.24 0 0 0-.07.44A2 2 0 0 0 26.3 9v-.1c0-.15-.14-.25-.25-.32l.09-.12-.14-.05a.59.59 0 0 0-.42.21 1.82 1.82 0 0 0-.17.85M26 8.12h.16a1.31 1.31 0 0 1 .58.34l.19.47.09-.29-.02-.17c-.05-.12-.19-.11-.29-.11s0-.1 0-.14-.15-.15-.23-.22-.11-.07-.18-.07h-.07a.32.32 0 0 0-.13.24M26.18 7.59a.12.12 0 0 0 0 .08c.11 0 .21-.1.32 0A2 2 0 0 0 27 8h.07s.08 0 .11.06 0 .1-.06.15.06.21.13.3l.16-.21c0-.1 0-.27-.15-.27a.16.16 0 0 1-.08-.14c-.1-.09-.22-.12-.32-.22s-.12-.16-.23-.18a.78.78 0 0 0-.23-.08c-.15 0-.16.16-.26.23M26.4 7.14v.05c.12 0 .22-.06.33-.06s.18 0 .25.08a.84.84 0 0 0 .22.24c.19 0 .29.23.35.37v-.07a.51.51 0 0 0 0-.3 1 1 0 0 1-.16-.12.09.09 0 0 1 0-.07 1.67 1.67 0 0 0-.26-.17c-.12-.18-.35-.13-.54-.18zM26.39 5.47a2 2 0 0 1 .06.23c.06-.14.19-.2.3-.32a.76.76 0 0 0-.21-.08c-.05 0-.13.1-.15.17M26.81 6.22l.1-.11a.59.59 0 0 0 .2-.36.29.29 0 0 0-.24 0 3.06 3.06 0 0 0-.06.45M26.88 6.54a.65.65 0 0 0 .44 0l.13-.41h-.12a1.05 1.05 0 0 1-.45.46M26.93 5.08a.91.91 0 0 0 .45.37c0-.19-.19-.32-.27-.49a.55.55 0 0 0-.21-.14 1.06 1.06 0 0 0 0 .31M27.48 6.56a.9.9 0 0 0 .37 0c.16 0 .25-.22.3-.36H28l-.22.21a2.27 2.27 0 0 0-.25.18M27.46 4.88a1.33 1.33 0 0 0 .21.49v-.34zM28.21 5.76a2.39 2.39 0 0 0-.05-.36c-.07 0-.16 0-.23-.09a.63.63 0 0 0 .28.45M28 6.92a2.41 2.41 0 0 0 .42-.16c.08-.13.21-.23.23-.38h-.3c-.1 0-.09.23-.21.3s-.1.13-.14.19M28.22 7.2l.18.23a.34.34 0 0 0 .28 0l-.06-.21a.68.68 0 0 1-.4 0M28.51 5.59l.07.3a.58.58 0 0 0 .18-.52.64.64 0 0 1-.25.22M29 6.12a.19.19 0 0 0 0 .12c.18.06.19.28.36.36a.4.4 0 0 0 .32 0l-.22-.22s-.09 0-.09-.11zM29.1 7.2a.56.56 0 0 0 .29.16L29.27 7a1.41 1.41 0 0 1-.2 0 .8.8 0 0 0 0 .15M29.34 5.79a2 2 0 0 1-.11-.49c-.06.08-.14.13-.2.22s.21.21.31.27M29.62 5.64c.08.1.26.07.36 0s-.2-.13-.23-.22a1.79 1.79 0 0 0-.09-.42.66.66 0 0 0 0 .64M29.77 6.12a.92.92 0 0 0 .77.29h.06a2.69 2.69 0 0 0-.29-.16l-.11-.16h-.05a2.32 2.32 0 0 1-.38.07M29.77 8a1.18 1.18 0 0 1 .46-.19s0 .06.05.08.22 0 .32-.06a.68.68 0 0 1 .32 0c.07.11.22.1.32.16v-.16a1.07 1.07 0 0 0-.85-.26.64.64 0 0 0-.23.05 1 1 0 0 0-.28.08c0 .09-.08.19-.11.28M30 5.17a.4.4 0 0 0 .38.17.43.43 0 0 1-.18-.26c0-.2-.2-.22-.31-.32a1.91 1.91 0 0 0 .11.41M29.93 8.38c.12-.08.29 0 .41-.1s.07.05.12.08.12.27.28.23.14.32.15.49L31.1 9v-.27c0-.08-.16-.11-.22-.19s-.08-.17-.12-.25h.25a.34.34 0 0 1 .13.22c.19 0 .24.25.3.39 0-.1.06-.2.1-.29s-.1-.07-.15-.11a.4.4 0 0 0-.17-.29 2.19 2.19 0 0 0-.64-.21l-.2.06c-.1 0-.21 0-.29.06s-.13.14-.16.23M30.05 7.44a1.85 1.85 0 0 1 .29-.13c.15 0 .27.13.4 0s.09 0 .12 0 .19.09.28.12c-.05-.13-.1-.31-.27-.33s-.15 0-.21-.06c-.17-.2-.29.16-.48.07a.53.53 0 0 0-.17.25"/><path class="cls-2" d="M30.09 8.55c.08.06.15.16.27.15s.08.25.16.35L30.6 9a.45.45 0 0 0-.05-.27h-.17c-.06 0-.05-.11-.1-.16s-.08 0-.13 0zM30.38 5.76a1 1 0 0 0 .34.29.5.5 0 0 0 .32 0 2.29 2.29 0 0 1-.27-.27.64.64 0 0 0-.08-.14c-.11 0-.23 0-.31.08M30.51 5c.1.13.26.07.41.08V5l-.23-.19a.55.55 0 0 0-.18.13M26.3 2.8l.14.41c0-.24.1-.43.08-.67l.1-.14-.21.06a.76.76 0 0 0-.11.34M26.39 2.08l.18-.1v-.27a1 1 0 0 0-.17.19z"/><path class="cls-2" d="M30.09 2.5a.23.23 0 0 1-.16.08A.79.79 0 0 0 30 2l.15-.05.13-.11c.17-.11.1-.33.16-.49s-.1-.28-.22-.39c-.1-.17-.22-.16-.39-.22s-.3.06-.43.14 0 .08-.07.07l-.1.27a1 1 0 0 0-.65.12.87.87 0 0 0-.32-.11h-.24c-.06 0-.1-.28-.25-.31s-.06-.07-.06-.12l-.28-.11c-.15-.07-.27 0-.38.11s-.1 0-.14 0a2.24 2.24 0 0 0-.22.4.9.9 0 0 0 .13.32.65.65 0 0 0 .35.32 1.46 1.46 0 0 0 0 .72h-.07a.94.94 0 0 0 .3.57c.06 0 0 .09.07.14a.08.08 0 0 1 0 .08 1.83 1.83 0 0 0-1 .24c-.07 0 0 .14-.05.21a1.83 1.83 0 0 1 .66-.28 1.14 1.14 0 0 1 .32 0v.19a3.2 3.2 0 0 0-.8.46.72.72 0 0 0 0 .21l.21-.17a2.39 2.39 0 0 1 .64-.36.76.76 0 0 0 .21.19 1.49 1.49 0 0 1 .45-.19c.08-.05.22 0 .27-.11v-.21a.31.31 0 0 1-.17-.29.27.27 0 0 1-.12 0 .13.13 0 0 1-.09 0v-.15a.93.93 0 0 1 .64-.09c.14 0 .34 0 .39.18s0 .1-.05.13-.11 0-.16 0a.36.36 0 0 1-.22.27v.14c0 .06 0 .15.11.13a2.22 2.22 0 0 1 .6.29c.06-.06.11-.14.16-.2a2.82 2.82 0 0 1 .91.6v-.18a3.07 3.07 0 0 0-.87-.54 1.13 1.13 0 0 0 0-.18 2.21 2.21 0 0 1 1 .31v-.17a2.15 2.15 0 0 0-1-.28.1.1 0 0 1 0-.07.53.53 0 0 0 .37-.43c.09-.11.22-.22.19-.38a.17.17 0 0 0 0-.12"/><path class="cls-2" d="M30.41 3.09L30.6 3v-.11c.05-.15-.06-.27-.11-.39zM30.88 3.81c.09.1.18.25.34.21a1 1 0 0 0-.07-.18s-.06-.19-.14-.14-.08-.11-.12-.17v.28M30.92 4.48s0 .11.07.15a.45.45 0 0 0 .23 0c.07 0 .11.06.18 0s-.13-.14-.2-.2-.19 0-.28 0M31 5.54a.92.92 0 0 0 .57.15h.06s-.27-.17-.4-.2-.18 0-.27 0 0 0 0 .07M31.51 7.55v.08c0 .23.18.45.1.71a.53.53 0 0 1 .13.2 1.57 1.57 0 0 0 0-.61c0-.18-.16-.28-.27-.38M31.55 5.22a.51.51 0 0 0 .45 0 1.64 1.64 0 0 1-.26-.16zM32.11 5.92a.27.27 0 0 0 .12.22.53.53 0 0 0 .08-.14.47.47 0 0 0-.17-.25 1.06 1.06 0 0 0 0 .2M32.12 7c0 .11.1.12.15.18s0 .08 0 .13a.65.65 0 0 1 .13.39 2.88 2.88 0 0 0 .11-.42c0-.1-.17-.08-.15-.19s0-.22 0-.33 0 0-.05 0-.15.16-.14.28M32.43 6.42l.12.23c.05 0 .09-.06.13-.1s0-.15-.08-.23 0-.13 0-.18-.06 0-.09 0zM32.59 5.81a.72.72 0 0 1 .25.24c.08.23.21.44.3.67s.06.3.1.45 0 .12.08.11v-.52a1 1 0 0 0-.2-.15s0-.08.09-.07.08 0 .05-.09-.11-.32-.3-.36-.08-.09-.09-.16a.56.56 0 0 0-.33-.1M32.7 7.05c.11.1.07.26.06.4s.09 0 .13.08a.5.5 0 0 1 0 .38 2.2 2.2 0 0 0 .18-.28v-.11c0-.05-.06 0-.09 0s-.06 0-.05-.06a.53.53 0 0 0 0-.37v-.3c-.07.1-.29.12-.23.3M32.91 5.42c.2.21.35.42.57.62v-.26a.7.7 0 0 0-.14-.16c-.17 0-.25-.23-.42-.2M33.44 6.51a.14.14 0 0 0 0 .06 2.88 2.88 0 0 1 .26.43c0-.17.09-.38-.06-.51s-.09 0-.13 0zM34 8.18c.06 0 .14 0 .21-.06a.19.19 0 0 1 .14.05v.1a1.36 1.36 0 0 1 .39.17c0-.09-.07-.17-.14-.22s-.12 0-.15-.06a.27.27 0 0 0 0-.13.31.31 0 0 1-.19-.06h-.1c-.03 0-.12.19-.23.25M34.15 5.31a.4.4 0 0 0 .16-.08c.15-.13.38 0 .55 0a.81.81 0 0 0-.12-.23.65.65 0 0 0-.2 0c-.15-.1-.26.06-.38.13a.28.28 0 0 0 0 .22M34.15 5.78v.07l.17-.11c.15 0 .24-.15.39-.15a2.42 2.42 0 0 1 .72.22.5.5 0 0 0-.27-.35.2.2 0 0 0-.16.04c-.16.1-.08-.14-.18-.14a1.1 1.1 0 0 1-.44.07c-.09 0-.16.12-.26.11a.64.64 0 0 0 0 .24M34.26 6.29h.19l.2-.08s-.06 0 0-.09.13 0 .2 0 .19-.11.29 0 0 .11.08.14.21.12.32.08a2.16 2.16 0 0 0-.05-.27c-.1 0-.16-.09-.25-.13a.16.16 0 0 1-.14.06c-.17 0-.38-.15-.56 0s-.18.06-.27.09a1.57 1.57 0 0 0 0 .23M34.33 7.64v.12c0 .01.33-.07.45 0s0 .09 0 .13l.22.21a1.47 1.47 0 0 0 .05-.29.31.31 0 0 0-.05-.19c-.13 0-.2-.15-.34-.13s-.13 0-.2 0l-.08.1M34.39 6.57c0 .06.06.16.12.17a.66.66 0 0 1 .48 0v.11l.25.13v-.14c0-.15-.19-.16-.2-.31a.91.91 0 0 0-.49 0h-.19c-.06 0 0 0 0 .05M34.43 7.31c.09 0 .14-.13.24-.14a.52.52 0 0 1 .37.19c.05 0 0 .13.11.13s0-.21 0-.33-.33 0-.42-.22h-.17c-.12 0-.09.17-.1.27s0 0 0 .09M35.26 8.31c.07.14.23.24.25.41a1.09 1.09 0 0 0 .08-.15s-.05 0-.07-.08a.29.29 0 0 1 0-.16.43.43 0 0 0-.18-.22zM35.54 7.94l.17.23a.58.58 0 0 0 0-.41s0-.07-.08 0-.08.16-.13.23M34.88 1.7a.48.48 0 0 0 .18.06.2.2 0 0 1 .17 0c.09.06.19 0 .29 0a1.27 1.27 0 0 0-.29-.18 3.73 3.73 0 0 0-.35.16M35.77 1.91c.12 0 .21.12.29.21a.4.4 0 0 1 .24.16v-.12a.81.81 0 0 0-.18-.31 1 1 0 0 0-.31.06"/><path class="cls-1" d="M27.25.91h.07c.17.09.46.13.48.39a1.45 1.45 0 0 0-.5.31c-.11-.11-.33-.05-.37-.24S27 1 27.25.91M27.42 2.07h.62a.28.28 0 0 1 .14.12c0 .25-.09.48-.1.74a.3.3 0 0 0-.2.22 1.36 1.36 0 0 0-.25.11.25.25 0 0 1 0-.26c.09-.12.32-.09.3-.29s0-.22 0-.32 0 0-.08 0a.26.26 0 0 1-.21 0c-.05 0-.11-.09-.12-.16a.34.34 0 0 1-.17-.14z"/><path class="cls-2" d="M27.67 3.56h.29c.09 0-.07.05-.11.06l-.15.07c-.06 0 0-.11 0-.14"/><path class="cls-1" d="M28.07 1.65c.1 0 .21-.1.31-.07a2.61 2.61 0 0 0-.19.27h-.31a.44.44 0 0 1 .19-.19M29 1.57c.13 0 .12.15.24.16a.1.1 0 0 1 0 .09 1.9 1.9 0 0 1-.25 0c-.1-.05 0-.23-.2-.22a.49.49 0 0 1 .17 0M28.91 2.19c.05-.08.14-.09.22-.11h.59v.08c0 .03-.09 0-.12.07s-.07.09-.13.13-.2 0-.3 0a.21.21 0 0 1-.09-.1 2.73 2.73 0 0 1 0 .4l.14.1c0 .21.25.15.36.27a.86.86 0 0 1-.13.2.82.82 0 0 0-.29-.18c0-.12-.15-.19-.22-.25 0-.23 0-.46-.06-.67z"/><path class="cls-2" d="M29.12 3.59h.27v.15l-.27-.12"/><path class="cls-1" d="M29.61 1l.21-.07a3 3 0 0 1 .33.21.8.8 0 0 1 0 .53c-.06.07-.2 0-.25.11a1 1 0 0 0-.49-.5.4.4 0 0 1 .2-.28"/></svg>