<svg data-name="Слой 1" xmlns="http://www.w3.org/2000/svg" viewBox="0 0 50.6 16.8"><path d="M38.93 11H37l-1.29-4.31.05 4.31h-1.35V5.63h2l1.2 4.09-.07-4.09h1.35zM33 9.47a3.53 3.53 0 0 1 0 .36c-.08.88-.71 1.33-1.87 1.33s-1.8-.45-1.88-1.33a3.53 3.53 0 0 1 0-.36V5.63h1.39v4a1 1 0 0 0 0 .2.47.47 0 0 0 .5.38.45.45 0 0 0 .49-.38.88.88 0 0 0 0-.2v-4H33zm-5 .49c-.15 1-1.17 1.22-1.89 1.22-1.19 0-1.93-.51-1.93-1.55v-.42h1.45v.52a.46.46 0 0 0 .51.47.45.45 0 0 0 .5-.34.65.65 0 0 0 0-.39c-.27-.66-2.15-1-2.38-2.08a1.88 1.88 0 0 1 0-.71c.16-1 1.1-1.19 1.86-1.19a2.07 2.07 0 0 1 1.47.44 1.26 1.26 0 0 1 .33.91v.38h-1.43v-.34a.43.43 0 0 0-.49-.46.42.42 0 0 0-.46.34.79.79 0 0 0 0 .27c.15.6 2.16 1 2.38 2.06a2.56 2.56 0 0 1 0 .87m-6.46 1V6.3l-.91 4.7h-1.38l-.87-4.66V11h-1.42L17 5.63h2.2l.64 4 .64-4h2.21l.15 5.37zm-7.1 0l-.7-4.76-.72 4.8h-1.48l1-5.37h2.41l1 5.37zM50.56 4C49.88.05 38-1.18 24.05 1.25A74.61 74.61 0 0 0 8.78 5.47a2 2 0 0 1 1.39.44 1.24 1.24 0 0 1 .33.91v.39H9.13v-.34a.43.43 0 0 0-.47-.47.43.43 0 0 0-.47.35.61.61 0 0 0 0 .27c.15.6 2.18 1 2.4 2.07a2.63 2.63 0 0 1 0 .88c-.13.9-.91 1.24-1.91 1.24-1.39 0-1.95-.66-1.95-1.57v-.43h1.48v.54a.46.46 0 0 0 .51.47.46.46 0 0 0 .51-.35.74.74 0 0 0 0-.39c-.27-.68-2.17-1-2.4-2.1a1.73 1.73 0 0 1 0-.72 1.89 1.89 0 0 1 .12-.38C2.35 8.42-.32 10.77 0 12.8c.72 3.95 12.59 5.2 26.54 2.75a73.39 73.39 0 0 0 15.85-4.46h-.18c-1 0-1.81-.35-1.9-1.33a2.58 2.58 0 0 1 0-.35V7.17v-.35c.12-1 .86-1.33 1.9-1.33.8 0 1.78.23 1.89 1.33v.54h-1.37v-.31-.2a.46.46 0 0 0-.51-.37.49.49 0 0 0-.52.37 1.57 1.57 0 0 0 0 .25v2.44a1.15 1.15 0 0 0 0 .2.56.56 0 0 0 1.06 0 1.48 1.48 0 0 0 0-.2v-.76h-.55V8h1.93v1.42a2.58 2.58 0 0 1 0 .35 1.31 1.31 0 0 1-.23.66c4.41-2.12 7-4.43 6.65-6.43" fill="#00679a"/></svg>