<svg xmlns="http://www.w3.org/2000/svg" width="1983.066" height="392.168" viewBox="0 0 524.686 103.761"><path d="M384.305 103.37c-2.119-.513-4.524-1.844-5.597-3.098-3.982-4.652-.8-13.692 5.959-16.932 4.352-2.086 8.753-2.817 18.187-3.022l6.944-.15.265-.956c.146-.525.266-1.681.267-2.57.003-2.055-.68-3.159-2.51-4.066-1.167-.578-1.647-.652-4.102-.63-4.21.039-6.65 1.095-8.255 3.573l-.831 1.283H384.63l.182-.595c.393-1.281 2.599-4.204 4.034-5.342 4.016-3.189 9.473-4.7 16.986-4.702 8.053-.003 12.334 1.756 14.258 5.859.61 1.3.688 1.782.661 4.119-.028 2.462-.2 3.27-2.468 11.641-2.489 9.184-3.443 13.192-3.45 14.486l-.005.728h-10.795l.503-2.302c.276-1.266.503-2.333.503-2.37 0-.038-1.042.633-2.316 1.492-2.646 1.784-5.381 2.952-8.323 3.555-2.538.52-7.943.52-10.096-.002zm13.299-6.073c2.55-.6 5.094-2.057 6.787-3.886 1.476-1.594 2.998-4.244 3.516-6.122l.282-1.023-6.139.136c-6.657.147-8.13.378-10.447 1.64-2.21 1.202-3.497 3.36-3.497 5.868 0 1.847 1.08 3.004 3.307 3.547 1.373.334 4.431.255 6.19-.16zm-378.46 5.532C7.424 100.77.666 92.359.045 79.05c-1.16-24.805 21.213-58.403 48.337-72.59C56.79 2.065 64.371-.027 71.797.002c7.414.028 12.39 1.944 16.946 6.527 2.059 2.07 2.587 2.798 3.77 5.187 2.12 4.277 2.729 7.014 2.887 12.964.11 4.167.046 5.404-.433 8.319-2.152 13.086-8.43 26.233-18.706 39.174-3.235 4.074-12.211 12.954-16.154 15.982-5.304 4.073-6.052 4.523-7.508 4.523-2.627 0-3.689-1.964-3.689-6.827 0-8.021 3.83-22.553 11.9-45.164 1.012-2.832 1.028-4.782.053-6.152-1.304-1.83-5.076-2.825-8.38-2.208-2.808.524-7.092 2.893-13.52 7.476-8.284 5.907-13.336 10.802-13.336 12.922 0 1.639 1.432 1.736 4.378.296 3.025-1.479 4.403-1.883 6.413-1.882 2.149.001 3.338.613 3.925 2.018.56 1.34.492 6.525-.143 10.822-1.742 11.804-6.818 26.813-11.32 33.476-2.157 3.192-4.553 5.125-6.957 5.612-.364.074-1.614-.033-2.778-.237zm43.41-76.67c6.78-3.365 11.532-11.411 9.309-15.762-1.08-2.112-2.947-2.859-5.887-2.356C56.432 9.674 48.47 23.647 55.128 27.08c.884.456 1.383.524 3.037.411 1.66-.113 2.365-.326 4.389-1.331zm33.02 76.374c.074-.255 3.2-11.923 6.947-25.93l6.812-25.466h8.815c4.848 0 8.814.053 8.814.118s-3.026 11.406-6.725 25.202a15677.337 15677.337 0 0 0-6.908 25.811l-.182.728h-8.853c-8.306 0-8.844-.029-8.72-.463zm47.396.046c-11.135-1.709-17.131-7.619-17.16-16.913-.012-3.334.417-5.802 1.679-9.665 1.893-5.796 4.445-10.04 8.445-14.04 6.365-6.364 14.72-9.837 25.378-10.546 4.1-.273 10.205.024 13.516.657 9.712 1.856 14.09 7.01 13.082 15.403l-.167 1.39h-17.58l-.179-1.522c-.474-4.048-2.795-5.743-7.832-5.718-4.728.024-8.312 1.513-11.664 4.847-2.868 2.853-4.622 6.086-6.109 11.262-.851 2.964-.884 8.148-.062 9.916 1.58 3.401 4.605 5.022 9.368 5.02 5.657-.002 9.86-2.332 12.537-6.952l1.027-1.772h8.828c4.856 0 8.83.053 8.83.117 0 .065-.408 1.012-.907 2.105-4.484 9.841-13.23 15.203-26.987 16.546-3.91.381-11.13.312-14.043-.135zm43.524.3c0-.063 3.026-11.404 6.726-25.2 3.7-13.798 6.808-25.414 6.908-25.814l.181-.728h8.853c8.306 0 8.844.03 8.72.463-.074.255-3.2 11.923-6.945 25.93l-6.811 25.466h-8.816c-4.85 0-8.816-.052-8.816-.116zm47.538-.298c-3.35-.521-5.277-1.09-7.983-2.36-2.935-1.377-4.812-2.86-6.356-5.024-3.54-4.961-3.875-11.573-1.004-19.82 5.032-14.458 16.8-22.841 33.64-23.962 4.092-.272 10.203.023 13.5.654 9.133 1.745 13.664 6.537 13.187 13.948-.081 1.272-.222 2.433-.313 2.58-.106.172-3.314.267-8.947.265l-8.782-.002-.048-1.328c-.069-1.88-.488-2.951-1.583-4.046-1.347-1.347-3.104-1.877-6.174-1.861-4.73.024-8.313 1.513-11.664 4.847-2.365 2.353-3.902 4.833-5.138 8.292-1.32 3.694-1.81 6.437-1.66 9.299.301 5.775 3.592 8.61 9.995 8.607 5.637-.002 9.825-2.33 12.536-6.967l1.027-1.757h17.65l-.54 1.389c-3.336 8.566-11.046 14.423-21.81 16.57-5.583 1.112-14.699 1.428-19.533.676zm43.478.266c0-.082 3.096-11.69 6.88-25.796 3.783-14.105 6.879-25.707 6.879-25.78 0-.073 4-.134 8.891-.134 6.999 0 8.868.07 8.777.331-.063.182-3.197 11.85-6.965 25.93l-6.85 25.598h-8.806c-4.843 0-8.806-.067-8.806-.149zm45.145-1.24c.215-.764 3.34-12.403 6.947-25.863l6.556-24.474 13.473-.078c21.854-.126 25.24.314 28.258 3.672 1.4 1.557 2.015 3.202 2.015 5.393 0 3.692-1.557 7.304-4.344 10.074-2.167 2.154-4.51 3.482-7.834 4.442l-2.23.644 1.52.315c2.248.467 5.014 1.951 6.248 3.353 2.03 2.305 2.526 5.807 1.365 9.629-1.592 5.24-4.84 9.006-9.939 11.524-5.115 2.525-7.386 2.758-26.957 2.758h-15.469zm32.62-7.448c3.47-.895 5.851-2.835 6.891-5.616 1.323-3.534.85-6.045-1.386-7.355-2.068-1.212-4.416-1.476-13.158-1.476h-7.894l-.27.86c-.414 1.321-3.74 13.827-3.74 14.065 0 .115 4.019.153 8.93.085 7.14-.1 9.27-.213 10.627-.563zm3.065-22.658c3.126-.446 5.075-1.229 6.484-2.604 1.398-1.365 2.38-3.572 2.38-5.347 0-3.666-3.138-4.564-15.454-4.42l-6.591.077-1.67 6.218c-.92 3.42-1.674 6.247-1.678 6.284-.021.202 14.977.013 16.53-.208zm66.011 29.709c3.097-11.225 7.022-26.469 7.698-29.898l.848-4.3h5.253c2.89 0 5.254.047 5.254.104 0 .056-.238 1.26-.53 2.675-.728 3.542-.722 3.56.728 2.208 4.078-3.802 8.36-5.487 14.486-5.7 4.126-.144 6.535.214 8.983 1.335 3.943 1.805 5.927 5.831 5.209 10.573-.247 1.626-6.243 24.47-6.488 24.714-.047.047-2.407.054-5.244.014l-5.158-.072 2.6-9.657c2.998-11.138 3.396-13.258 2.903-15.465-.82-3.66-4.541-5.326-9.551-4.274-5.417 1.138-9.73 4.982-11.47 10.224-.36 1.086-1.697 5.874-2.97 10.64l-2.314 8.665h-10.729zm51.19 1.058c.099-.4 3.207-12.02 6.908-25.82 3.7-13.801 6.728-25.142 6.728-25.202 0-.06 2.322-.109 5.16-.109 3.954 0 5.157.078 5.152.331 0 .182-1.78 6.937-3.95 15.012-2.169 8.074-3.91 14.714-3.87 14.753.04.04 4.506-3.145 9.926-7.078l9.854-7.152 6.619.071 6.618.07-10.478 7.535c-5.764 4.144-10.473 7.656-10.466 7.805.01.15 3.497 4.796 7.756 10.325l7.744 10.055-6.997.07c-4.154.042-7.117-.032-7.293-.181-.163-.139-3.333-4.482-7.044-9.652-3.71-5.17-6.806-9.404-6.879-9.408-.073-.004-1.134 3.771-2.36 8.39-1.224 4.62-2.39 8.965-2.59 9.656l-.362 1.257H475.36z" fill="#fff" stroke-width=".265"/></svg>