<svg xmlns="http://www.w3.org/2000/svg" width="4855.702" height="1238.791" viewBox="0 0 1284.738 327.764"><path d="M57.868 325.64v-2.125l2.448-.157c1.346-.086 5.602-.276 9.458-.423 19.115-.724 107.518-4.252 112.713-4.499 30.775-1.459 47.647-4.762 67.998-13.313 24.734-10.391 45.033-25.545 58.945-44.003 8.657-11.485 14.818-25.577 16.874-38.593.579-3.666.791-11.774.406-15.504-1.18-11.416-5.584-22.372-12.434-30.93-2.141-2.676-6.518-7.03-9.31-9.26-10.283-8.217-23.625-13.39-38.077-14.765l-2.249-.214 3.4-1.107c21.208-6.91 38.404-16.371 52.669-28.979 11.329-10.013 19.718-22.005 23.91-34.179 3.41-9.904 5.133-21.904 4.311-30.03-.65-6.432-1.876-10.89-4.402-16.007-6.507-13.182-19.099-21.942-39.142-27.23l-3.44-.907 5.027-.02c16.417-.067 33.624 2.267 46.038 6.243 12.343 3.954 21.332 9.205 28.328 16.548 11.45 12.018 14.669 28.454 9.651 49.287-3.37 13.994-10.514 25.78-22.785 37.59-13.649 13.135-33.772 24.317-55.476 30.826-3.95 1.185-4.716 1.566-3.145 1.566 1.873 0 6.91.859 10.883 1.855 12.078 3.03 22.728 9.18 31.187 18.01 9.32 9.727 15.26 21.771 17.544 35.565.678 4.096.678 15.722 0 19.58-1.396 7.943-4.018 15.686-8.245 24.341-5.367 10.99-11.635 19.65-20.813 28.76-14.215 14.108-32.323 24.867-56.45 33.539-17.192 6.179-33.092 8.833-60.193 10.047-3.47.155-39.266.338-85.791.439l-79.838.173v-2.125zm514.815-8.78c-5.554-1.017-9.172-4.057-10.672-8.966-1.748-5.722-.311-15.82 3.262-22.925 4.496-8.938 12.424-13.648 25.14-14.934 1.494-.151 5.274-.355 8.4-.452 3.127-.097 5.684-.202 5.684-.234s.369-1.828.82-3.993c1.393-6.696 1.13-9.386-1.06-10.825-1.906-1.254-6.247-1.363-8.666-.217-2.376 1.125-4.114 3.722-5.23 7.814l-.602 2.203-9.834.07-9.835.069.173-.73c2.45-10.315 8.208-16.83 17.433-19.722 7.996-2.508 21.776-2.308 29.005.42 6.954 2.625 9.862 7.89 8.972 16.25-.166 1.567-2.15 11.541-4.406 22.164-4.91 23.111-4.72 22.132-5.399 27.888-.298 2.533-.604 4.706-.68 4.83-.142.229-18.174.324-18.402.096-.07-.07.132-2.184.45-4.697.317-2.513.525-4.626.463-4.696-.063-.07-1.006.85-2.097 2.042-3.698 4.046-8.098 6.792-12.8 7.99-2.514.64-8.01.942-10.119.556zm17.372-12.58c1.88-.57 3.286-1.472 4.806-3.08 3.025-3.202 4.48-6.958 6.43-16.604l.753-3.728-1.22.008c-2.773.017-8.048.527-9.591.927-4.622 1.198-7.141 3.972-8.795 9.688-1.573 5.436-1.461 9.704.307 11.696 1.257 1.414 4.602 1.915 7.31 1.093zm207.016 12.56c-2.814-.328-5.665-.986-7.577-1.747-9.36-3.729-12.254-12.099-9.726-28.14 3.251-20.63 8.348-32.412 16.685-38.573 3.37-2.49 8.577-4.614 13.493-5.505 3.682-.667 13.28-.685 16.556-.031 11.73 2.34 16.403 9.045 15.57 22.338-.263 4.195-.539 6.12-1.714 11.981-3.19 15.908-7.024 25.115-12.95 31.1-4.95 5.002-11.075 7.697-19.51 8.585-2.816.297-8.25.293-10.827-.008zm9.953-12.7c5.303-.767 7.933-5.028 11.226-18.184 1.661-6.637 3.334-14.86 3.888-19.111 1.106-8.48-.718-11.77-6.503-11.725-6.894.052-9.974 4.442-13.203 18.813-2.507 11.161-3.552 17.662-3.579 22.28-.035 6 1.223 7.692 6.066 8.166.146.014 1.093-.094 2.105-.24zm186.41 12.58c-5.29-1.062-8.438-3.788-10.098-8.743-.55-1.643-.616-2.328-.614-6.34.003-3.72.107-4.969.611-7.227 2.968-13.302 9.624-20.437 21.754-23.318 3.366-.8 8.346-1.305 14.829-1.505 5.604-.174 5.813-.2 5.937-.734 2.03-8.783 2.14-11.68.517-13.609-1.018-1.21-2.532-1.689-5.353-1.695-2.22-.005-2.606.072-4.152.833-2.617 1.289-4.148 3.572-5.247 7.823l-.584 2.258h-19.663l.476-1.786c3.893-14.591 14.29-20.99 33.073-20.353 12.82.434 19.485 3.715 21.6 10.633.651 2.131.648 7.763-.006 11.11-.256 1.31-2.172 10.418-4.258 20.24-2.085 9.823-3.978 18.872-4.206 20.109-.327 1.77-1.488 10.531-1.488 11.225 0 .083-4.167.152-9.26.152h-9.26l.01-.86c.004-.473.234-2.586.509-4.694.275-2.109.449-3.885.387-3.947-.062-.062-1.009.852-2.104 2.03-4.617 4.971-9.193 7.528-15.074 8.426-2.906.444-6.04.433-8.335-.028zm18.919-12.798c.727-.324 1.78-.906 2.34-1.293 2.28-1.573 4.765-5.844 6.117-10.509.77-2.66 2.547-11.052 2.375-11.224-.061-.06-2.166.025-4.678.191-6.15.407-8.444 1.055-10.692 3.023-3.08 2.697-5.364 9.506-5.07 15.111.143 2.72.904 4.13 2.68 4.96 1.529.717 5.034.586 6.928-.259zm97.185 12.927c-7.93-.914-13.348-4.027-15.83-9.098-1.6-3.27-1.898-4.71-2.043-9.853-.185-6.538.79-13.489 3.379-24.067 5.338-21.822 15.058-30.834 33.99-31.51 12.23-.437 20.087 2.606 23.49 9.098 2.892 5.516 3.018 12.796.445 25.612-3.214 16.013-7.043 25.25-12.945 31.229-4.328 4.385-9.53 6.977-16.414 8.183-2.943.516-11.08.75-14.072.406zm12.672-13.524c3.658-1.745 5.902-6.236 8.656-17.323 1.177-4.737 2.664-11.63 3.477-16.115.588-3.247.8-8.755.398-10.372-.774-3.116-2.658-4.39-6.5-4.4-2.047-.005-2.614.1-4.028.736-4.443 1.999-6.679 6.64-9.565 19.857-3.006 13.763-3.864 21.377-2.81 24.926.473 1.594 2.024 3.148 3.356 3.364.481.079 1.173.19 1.537.247 1.523.24 3.877-.156 5.479-.92zm45.123 13.413c-5.418-1.033-8.746-4.242-10.31-9.941-.385-1.4-.47-2.73-.46-7.144.01-4.645.114-6.02.724-9.578.85-4.967 3.042-15.328 4.314-20.397 3.382-13.484 8.06-21.182 15.21-25.03 3.266-1.757 5.528-2.262 10.167-2.27 4.362-.008 5.955.27 8.397 1.467 2.658 1.303 3.74 2.391 5.893 5.92.435.716.491.738.664.265.103-.283 1.953-8.82 4.112-18.97l3.924-18.455h10.002c6.424 0 10.002.094 10.002.262 0 .444-21.712 102.473-21.856 102.707-.074.12-4.355.219-9.512.219-8.758 0-9.377-.031-9.37-.463 0-.255.348-2.041.764-3.97.415-1.927.71-3.505.653-3.505-.056 0-1.262 1.174-2.681 2.609-3.353 3.39-6.065 4.957-10.385 5.999-2.42.584-7.866.73-10.252.275zm18.525-12.934c4.298-2.519 6.86-9.282 10.793-28.493 1.708-8.341 2.219-12.58 1.842-15.292-.557-4.002-2.283-5.513-6.044-5.29-5.8.343-8.58 4.219-11.437 15.954-1.404 5.767-3.587 16.778-4.08 20.583-.465 3.58-.516 7.45-.121 9.18.39 1.714 1.417 3.13 2.71 3.736 1.634.767 4.695.584 6.337-.378zm45.638 13.057c-3.516-.644-6.835-2.426-8.431-4.526-2.098-2.76-2.963-5.84-2.966-10.565-.01-8.992 3.45-18.311 8.7-23.461 4.273-4.192 10.595-7.005 17.993-8.006 2.743-.37 10.086-.807 13.637-.81l2.809-.003.874-4.035c1.45-6.683 1.184-9.462-1.042-10.925-1.872-1.23-6.247-1.364-8.573-.26-2.503 1.188-4.176 3.65-5.315 7.822l-.61 2.238-9.835.07-9.835.07.174-.732c2.841-11.965 9.991-18.713 22.063-20.824 5.547-.97 14.968-.797 20.373.375 10.267 2.226 14.29 7.976 12.871 18.396-.218 1.6-2.32 11.959-4.671 23.018-2.731 12.849-4.457 21.59-4.78 24.21a311.737 311.737 0 0 1-.706 5.424l-.2 1.323-9.112.07c-5.011.038-9.193-.022-9.292-.133-.1-.111.038-1.928.305-4.038.763-6.023.944-5.81-2.208-2.597-5.414 5.517-10.416 7.788-17.661 8.022-1.82.058-3.872.003-4.562-.124zm17.372-12.581c3.833-1.163 6.845-4.579 8.746-9.919 1.245-3.495 3.356-13.01 2.972-13.395-.292-.292-8.949.398-10.626.847-4.565 1.223-7.068 4.004-8.71 9.678-1.573 5.436-1.46 9.704.308 11.695 1.256 1.415 4.601 1.915 7.31 1.094zm-768.99 11.268c0-.134 4.882-23.243 10.849-51.352 5.966-28.11 10.847-51.226 10.847-51.368 0-.377 44.307-.11 46.567.28 9.287 1.6 14.26 5.2 16.308 11.8.774 2.494.706 10.147-.123 13.86-2.261 10.12-7.049 16.74-14.994 20.733-1.909.96-5.86 2.317-6.745 2.317-.275 0-.564.104-.643.231-.079.127.935.483 2.253.79 6.895 1.608 10.893 5.348 12.016 11.239 1.248 6.551-.562 16.986-4.178 24.087-5.447 10.694-15.2 16.353-29.938 17.37-4.634.32-42.218.332-42.218.013zm40.91-15.916c7.007-.975 11.421-5.281 13.535-13.205.544-2.04.676-3.167.696-5.956.023-3.083-.04-3.584-.602-4.827-1.155-2.555-3.425-4.053-7.148-4.717-1.854-.331-16.434-.57-16.434-.27 0 .06-1.37 6.57-3.043 14.467-1.673 7.896-3.043 14.455-3.043 14.575 0 .323 13.647.266 16.038-.067zm11.232-45.38c2.255-.663 4.313-1.883 5.914-3.507 2.578-2.615 3.751-4.8 4.695-8.746 1.4-5.848-.681-10.937-5.212-12.745-1.52-.607-1.879-.634-9.55-.72l-7.97-.088-.154.612c-.084.337-1.292 5.958-2.683 12.491-1.392 6.534-2.6 12.16-2.687 12.502l-.156.623h8.183c6.714 0 8.44-.076 9.62-.422zm93.115 61.252c0-.438 15.111-71.512 15.253-71.742.193-.312 19.936-.25 19.936.063 0 .145-.297 1.663-.66 3.373-.363 1.71-.66 3.282-.661 3.492 0 .21.758-.401 1.687-1.358 3.155-3.25 6.405-5.19 10.615-6.34 1.759-.48 2.831-.58 6.35-.584 3.882-.005 4.409.053 6.35.697 4.563 1.514 7.38 4.162 8.472 7.961.492 1.712.56 4.831.152 6.915-.844 4.3-12.226 57.382-12.346 57.576-.182.294-19.959.316-19.959.022 0-.117 2.331-11.16 5.18-24.54 2.85-13.38 5.35-25.279 5.556-26.443 1.277-7.185-.484-10.14-5.888-9.88-4.026.192-6.47 2.201-8.168 6.714-.814 2.162-.639 1.383-6.616 29.492-2.831 13.315-5.203 24.358-5.27 24.54-.165.445-19.983.487-19.983.042zm64.909-.307c.078-.327 4.99-23.455 10.916-51.395 5.925-27.94 10.851-50.89 10.948-51.002.096-.11 4.644-.17 10.105-.132l9.93.07-6.436 30.162c-3.54 16.59-6.408 30.388-6.374 30.663.04.332 3.59-3.864 10.512-12.428 5.748-7.11 11.317-13.974 12.375-15.251l1.925-2.323h10.312c5.673 0 10.313.066 10.313.146 0 .08-5.935 7.137-13.19 15.683-7.254 8.545-13.331 15.772-13.506 16.06-.27.447.707 3.39 6.708 20.2 3.863 10.824 7.024 19.784 7.024 19.913 0 .135-4.84.206-11.283.166l-11.284-.069-5.141-19.445c-2.828-10.695-5.192-19.496-5.254-19.557a.159.159 0 0 0-.221-.003c-.103.103-8.357 38.59-8.357 38.964 0 .095-4.537.172-10.083.172H689.9l.144-.595zm151.52.388c0-.114 2.798-13.388 6.218-29.499 3.42-16.11 6.217-29.472 6.217-29.69 0-.34-.653-.4-4.365-.4-3.324 0-4.362-.078-4.35-.33.007-.182.578-2.95 1.267-6.152l1.254-5.82 4.598-.133 4.6-.132 1.116-5.424c1.68-8.153 2.372-10.683 3.868-14.12 2.679-6.158 6.908-9.456 14.15-11.033 2.18-.475 3.737-.586 9.612-.685 3.857-.064 7.154-.02 7.328.1.237.164-.01 1.735-.991 6.298-.72 3.343-1.308 6.168-1.309 6.277 0 .11-.828.199-1.84.199-5.284 0-8.118 2.208-9.525 7.421-.565 2.092-2.394 10.393-2.394 10.863 0 .13 2.084.236 4.63.236 3.537 0 4.627.078 4.615.331-.01.182-.584 2.95-1.278 6.152l-1.263 5.82-4.74.072-4.742.072-6.196 29.297c-3.407 16.113-6.292 29.565-6.41 29.892l-.213.596h-9.928c-5.461 0-9.929-.094-9.929-.208zm59.614-.52c.998-4.866 21.649-101.887 21.739-102.13.154-.416 38.806-.471 43.53-.061 9.715.842 15.375 3.758 18.12 9.334 1.246 2.532 1.762 5.166 1.773 9.05.015 5.302-1.187 10.828-3.354 15.408-3.572 7.553-9.711 12.722-17.532 14.76-1.201.314-2.242.628-2.313.7-.071.07 1.103.433 2.61.806 3.648.903 5.98 2.083 7.99 4.045 2.923 2.85 4.084 6.193 4.082 11.75-.003 4.515-.783 9.362-2.27 14.068-2.64 8.356-8.17 14.97-15.675 18.744-2.268 1.141-6.494 2.522-9.702 3.171-4.366.883-9.651 1.074-29.865 1.078l-19.282.004.15-.727zm42.912-15.773c6.336-1.765 10.242-6.534 11.883-14.51.544-2.642.545-6.575 0-8.403-.568-1.915-2.58-3.941-4.703-4.735-2.383-.892-4.517-1.084-12.08-1.09l-7.014-.005-3.02 14.221c-1.661 7.822-3.076 14.442-3.143 14.71-.118.47.207.484 8.183.372 6.682-.095 8.616-.204 9.893-.56zm9.03-44.986c3.781-1.007 7.264-3.937 9.089-7.645 4.151-8.44 1.987-16.18-4.983-17.82-1.052-.249-3.668-.354-8.836-.357-4.039-.002-7.343.052-7.343.12 0 .117-5.17 24.644-5.397 25.607-.102.433.41.463 8.002.46 6.01-.003 8.463-.097 9.469-.365zm93.342 60.627c.093-.473 3.534-16.696 7.647-36.05l7.478-35.19 9.599-.069c9.061-.065 9.592-.043 9.464.397-.443 1.532-1.782 8.32-1.694 8.586.059.176.472-.21.919-.857 1.3-1.884 4.285-4.69 6.377-5.997 3.222-2.011 9.17-3.668 12.432-3.462l1.27.08-1.883 8.863-1.883 8.864-2.334.033c-6.693.096-10.345 1.307-13.693 4.539-2.09 2.018-3.818 5.213-4.682 8.658-.292 1.164-2.436 11.08-4.765 22.036-2.33 10.956-4.306 20.034-4.392 20.174-.097.156-4.012.255-10.094.255h-9.935zm-988.158-5.931c-.095-1.116-.14-2.06-.1-2.1.04-.04 42.338-12.27 93.994-27.176l93.921-27.103.156-1.422c.086-.782.114-1.473.063-1.536-.085-.103-23.467 5.503-152.334 36.522-21.089 5.076-38.361 9.2-38.383 9.165-.164-.27-1.239-3.32-1.277-3.622-.031-.254 33.738-19.154 99.833-55.874 54.934-30.52 99.98-55.533 100.1-55.584.122-.052-.084-.785-.458-1.631l-.68-1.538-9.199 4.69c-5.059 2.58-30.034 15.345-55.5 28.367a845520.934 845520.934 0 0 1-99.616 50.93 37698.17 37698.17 0 0 0-28.888 14.783c-6.212 3.183-11.41 5.788-11.552 5.788-.143 0-.758-.73-1.367-1.624l-1.109-1.623 1.416-1.383c.779-.761 26.418-24.944 56.977-53.74 71.339-67.227 78.183-73.679 95.117-89.664 4.008-3.784 24.64-23.235 45.846-43.226 21.207-19.991 38.558-36.436 38.558-36.545 0-.109-.451-.706-1.003-1.328l-1.003-1.13-7.662 6.862c-6.998 6.268-40.819 36.545-82.539 73.89a64520.94 64520.94 0 0 0-25.135 22.51c-4.802 4.304-34.33 30.736-65.617 58.738a132845.12 132845.12 0 0 0-60.513 54.178l-3.629 3.265-1.399-1.11c-.769-.61-1.366-1.22-1.327-1.353.04-.134.708-1.158 1.486-2.277.777-1.119 14.388-20.965 30.245-44.103 15.857-23.138 41.034-59.869 55.948-81.624l56.533-82.465c16.178-23.6 29.415-42.97 29.415-43.042 0-.073-.66-.28-1.467-.46-1.231-.276-1.525-.269-1.826.047-.198.206-7.65 10.436-16.562 22.732a56637.402 56637.402 0 0 1-20.623 28.443c-2.43 3.347-35.766 49.305-74.078 102.13a971356.938 971356.938 0 0 1-69.702 96.097c-.042.052-2.875-.733-2.994-.83-.033-.027 22.314-55.227 49.66-122.666C110.271 41.112 119.674 17.7 119.362 17.527c-.212-.119-.816-.179-1.343-.134l-.958.082-17.676 38.364c-9.722 21.101-34.932 75.81-56.022 121.576L5.02 260.627l-2.452.206c-1.348.113-2.504.153-2.567.09-.063-.063 16.127-58.794 35.977-130.513L72.07.012 152.083 0C196.09-.007 234 .086 236.33.206c26.313 1.35 47.2 8.376 58.889 19.807 6.729 6.58 10.565 14.026 12.327 23.92.695 3.909.64 13.012-.11 17.863-1.5 9.715-3.568 16.46-7.381 24.074-9.461 18.89-28.071 35.245-53.142 46.7-5.333 2.437-10.703 4.404-21.828 7.996-.893.288-1.455.62-1.455.86 0 .304.719.46 3.305.72 18.73 1.871 35.774 10.408 46.627 23.355 7.15 8.528 11.651 18.527 13.345 29.642.562 3.686.635 12.432.133 16.007-2.03 14.457-8.153 27.911-18.784 41.275-3.258 4.095-12.432 13.264-16.852 16.842-12.866 10.416-27.034 18.678-43.12 25.143-21.77 8.751-36.972 11.535-71.305 13.056-5.02.223-24.07 1.115-42.334 1.983-18.263.869-33.872 1.58-34.687 1.58h-1.483l-.171-2.028zm1008.954-134.824c.003-.038.877-3.284 1.944-7.214l1.939-7.143 8.772-.07c4.824-.038 8.766.021 8.76.132-.008.111-.873 3.357-1.924 7.214l-1.911 7.011-8.792.07c-4.836.038-8.79.038-8.788 0zm138.165-9.793c-3.575-4.507-5.55-8.503-6.52-13.195l-.144-.694-1.525.362c-4.745 1.125-14.512 1.628-17.93.922-7.014-1.448-11.049-5.038-12.812-11.398-1.885-6.805-.906-17.07 2.9-30.388 4.785-16.746 12.214-24.891 24.568-26.938 2.126-.352 4.004-.395 11.468-.262l8.926.158.156-.622c.086-.342.846-3.049 1.688-6.016.843-2.966 1.482-5.483 1.42-5.592-.062-.109-11.76-.198-25.997-.198h-25.884l-.545 2.05c-.992 3.74-20.15 78.393-20.15 78.522 0 .069-4.176.126-9.28.126-8.713 0-9.269-.028-9.137-.463.131-.434 20.028-77.933 20.413-79.508l.177-.727h-14.805l-.714 2.712c-.393 1.491-2.058 7.891-3.701 14.221l-2.987 11.51-9.142.069-9.142.07.043-2.319c.049-2.71-.336-3.67-1.884-4.69-1.752-1.157-3.895-1.521-8.357-1.422-3.658.082-4.132.15-5.473.778-2.382 1.117-3.676 3.132-5.42 8.44-.905 2.749-1.003 3.327-1.025 5.997-.021 2.593.043 3.044.521 3.688 1.723 2.314 2.715 2.475 15.33 2.486 10.787.01 13.102.174 15.204 1.079 1.57.676 2.45 1.573 3.224 3.286 1.942 4.303-.875 18.588-5.1 25.866-1.407 2.423-4.603 5.628-6.715 6.734-4.276 2.239-7.619 2.54-26.457 2.39-13.45-.108-14.735-.158-16.965-.659-7.163-1.608-9.957-5.038-9.535-11.71.14-2.223.99-6.46 1.789-8.929l.278-.86h21.188l-.127.596c-.07.327-.56 2.064-1.09 3.86-1.61 5.466-1.221 7.558 1.67 8.978 1.425.7 1.605.721 5.967.721 4.159 0 4.602-.047 5.878-.623 1.75-.792 3.474-2.63 4.515-4.814.946-1.984 3.162-9.152 3.523-11.39.344-2.14-.024-3.592-1.18-4.653-1.73-1.59-2.615-1.71-14.323-1.964-5.821-.125-11.186-.295-11.923-.377-2.133-.237-4.586-1.606-5.602-3.126-1.23-1.837-1.524-3.088-1.505-6.39.02-3.344.659-6.79 2.277-12.27 3.316-11.231 6.54-14.468 15.562-15.622 5.776-.74 17.629-.525 21.714.392 3.378.758 5.532 2.1 6.73 4.192.2.353.7-1.418 2.097-7.429 1.007-4.34 1.884-8.1 1.948-8.355.11-.439-1.314-.463-27.15-.463-17.756 0-27.325.091-27.43.262-.09.145-4.685 17.855-10.212 39.357a44723.86 44723.86 0 0 1-10.314 40.086l-.266.993h-9.118c-8.01 0-9.118-.05-9.118-.405 0-.223 1.012-4.04 2.25-8.482 1.236-4.442 2.248-8.213 2.248-8.38 0-.167-.446.115-.992.626-2.777 2.602-7.51 4.665-13.07 5.697-3.536.656-11.089.67-13.455.023-2.41-.658-4.25-1.608-5.777-2.981-1.696-1.525-2.741-3.186-3.656-5.81-.707-2.028-.738-2.326-.738-7.144 0-5.406.223-7.12 1.743-13.361 1.963-8.059 5.026-15.358 8.233-19.617 5.22-6.933 12.07-10.29 20.965-10.275 7.15.012 12.883 1.807 16.026 5.019l1.474 1.506 2.136-8.409c1.175-4.624 2.07-8.475 1.988-8.557-.081-.081-10.138-.148-22.347-.148h-22.199l.18-.596a968.9 968.9 0 0 1 2.143-6.878l.4-1.256 65.68-.067 65.678-.067-8.014-9.906c-4.409-5.448-7.988-9.925-7.955-9.95 5.341-3.972 13.196-9.642 13.347-9.634.114.006 3.898 6.45 8.41 14.322 4.51 7.872 8.38 14.54 8.598 14.817.35.446.697.497 2.924.429l2.527-.078-6.835-17.97c-3.76-9.883-6.742-18.062-6.628-18.175.375-.374 15.763-7.125 15.908-6.98.1.101 9.524 42.663 9.562 43.191.003.037 27.925.066 62.05.066 34.124 0 62.043.09 62.04.199 0 .109-.578 2.044-1.28 4.3l-1.28 4.1-5.191.072-5.192.072-.358 1.25c-.197.69-4.873 18.844-10.393 40.344l-10.034 39.093h-9.196c-5.057 0-9.191-.09-9.187-.199 0-.109 4.63-18.177 10.28-40.15 5.65-21.974 10.223-40.042 10.163-40.151-.06-.11-3.61-.198-7.89-.198-7.141 0-7.8.038-8.02.463-.132.254-1.098 3.201-2.146 6.548-1.048 3.347-2.437 7.778-3.087 9.847l-1.182 3.761-14.078.075c-14.063.075-14.08.076-15.4.685-2.585 1.191-4.924 4.54-6.69 9.577-1.405 4.008-5.872 22.49-6.94 28.712-.623 3.633-.746 7.916-.277 9.652.78 2.895 2.886 4.455 6.33 4.691 1.455.1 2.47.017 3.508-.285l1.463-.425.035-3.115c.096-8.503 4.129-15.748 10.507-18.876 3.418-1.676 7.212-2.205 11.189-1.56 3.88.63 6.227 2.223 7.086 4.809 1.133 3.412-.94 10.877-4.224 15.212-1.988 2.622-5.415 4.937-8.957 6.048-.837.262-1.522.562-1.522.664 0 .522 2.466 3.425 3.723 4.383 2.368 1.806 5.746 3.23 8.841 3.73l1.32.214-9.712 5.352c-5.34 2.944-9.823 5.352-9.961 5.352-.138 0-.84-.744-1.562-1.653zm-189.149-33.527c2.01-.33 4.071-1.29 5.46-2.543 1.164-1.052 2.657-3.041 2.657-3.54 0-.159-3.233-4.465-7.184-9.57-4.867-6.286-7.248-9.165-7.38-8.923-.36.656-2.618 10.112-3.025 12.66-.46 2.89-.52 6.314-.134 7.705.33 1.19 1.23 2.535 2.152 3.217 1.422 1.053 4.549 1.47 7.454.994zm12.5-17.583c1.25-4.313 2.742-10.86 3.05-13.382.403-3.305.05-5.18-1.246-6.614-1.163-1.287-2.227-1.781-4.544-2.11-2.566-.364-5.516.038-7.667 1.045-1.711.8-4.355 3.18-4.684 4.214-.128.405 1.475 2.657 7.055 9.912 3.971 5.163 7.253 9.355 7.293 9.315.04-.04.374-1.111.742-2.38zM843.945 159.49c0-.484 3.742-13.97 3.927-14.154.114-.114 4.084-.176 8.822-.137l8.616.07-1.674 6.217c-.92 3.42-1.803 6.665-1.962 7.21l-.288.992h-8.721c-4.796 0-8.72-.089-8.72-.198zm-310.886-8.673c0-.223 1.012-4.04 2.249-8.482 1.237-4.442 2.249-8.212 2.249-8.378 0-.166-.387.062-.86.506-2.87 2.693-7.597 4.776-13.202 5.815-3.159.585-10.788.662-12.926.13-5.682-1.412-8.959-5.096-10.057-11.306-.484-2.736-.212-9.773.52-13.467 1.658-8.365 3.535-14.396 6.091-19.579 2.96-6.002 6.29-9.639 11.12-12.143 3.806-1.974 7.51-2.808 12.435-2.8 5.237.008 8.874.735 12.595 2.519 1.844.883 2.722 1.496 3.74 2.61l1.332 1.457 2.112-8.446c1.161-4.645 2.048-8.51 1.97-8.587-.078-.078-10.183-.142-22.455-.142-12.272 0-22.313-.076-22.313-.168 0-.093.6-2.056 1.334-4.364l1.333-4.195 15.418-.068 15.419-.069-8.015-9.906c-4.408-5.448-7.988-9.927-7.955-9.953 1.484-1.164 13.24-9.64 13.368-9.639.103.002 3.916 6.48 8.474 14.396 4.558 7.915 8.43 14.586 8.603 14.824.26.357.752.418 2.84.355l2.524-.077-6.815-17.991c-3.748-9.896-6.73-18.07-6.629-18.167.472-.445 15.794-7.074 15.952-6.9.098.107 2.108 9.066 4.467 19.907 2.359 10.841 4.47 20.515 4.69 21.498l.401 1.785h53.814c29.598 0 53.812.09 53.81.199-.003.11-.575 2.044-1.271 4.3l-1.267 4.1-18.754.133-18.755.132-2.152 8.599c-1.184 4.73-2.24 8.942-2.346 9.361-.172.683.022.565 1.847-1.116 2.438-2.248 6.211-4.254 9.63-5.122 3.025-.769 10.091-.85 12.645-.147 2.439.672 4.486 1.758 5.89 3.125 1.395 1.357 2.942 4.338 3.4 6.546.411 1.99.356 7.661-.105 10.719-1.15 7.632-4.382 18.77-6.897 23.772-2.477 4.923-6.313 9.22-10.184 11.407-4.795 2.71-11.482 3.78-17.003 2.724-1.885-.36-4.456-1.426-4.805-1.99-.138-.225 1-4.945 1.254-5.198.049-.049.507.04 1.018.196 2.14.657 5.79-.9 7.663-3.27 2.279-2.883 3.654-6.398 6.063-15.504 2.418-9.138 2.94-11.834 3.088-15.924.121-3.356.092-3.644-.486-4.761-1.043-2.017-3.364-2.883-6.402-2.388-.814.132-1.929.45-2.477.707-1.475.691-3.802 3.146-4.977 5.252-2.208 3.955-3.142 7.135-8.877 30.242-3.06 12.325-5.623 22.618-5.697 22.873-.125.429-.796.463-9.245.463-5.01 0-9.11-.068-9.11-.15 0-.082 1.012-3.874 2.249-8.426 1.237-4.553 2.249-8.428 2.249-8.61 0-.184-.725.337-1.61 1.156-2.884 2.67-6.79 4.574-11.223 5.468-2.432.491-8.635.434-10.784-.1-4.796-1.192-7.605-3.756-9.157-8.363-.627-1.86-.678-2.365-.68-6.772-.003-5.434.357-7.808 2.406-15.866 2.64-10.381 5.361-16.41 9.462-20.965 2.634-2.926 6.722-5.354 10.87-6.457 2.7-.718 9.014-.984 11.991-.505 3.649.586 6.81 2.421 8.565 4.973l.847 1.23 2.057-8.192c1.131-4.506 2.06-8.402 2.065-8.656.007-.438-1.343-.463-24.716-.463-14.09 0-24.785.1-24.868.234-.08.13-4.732 18.078-10.34 39.886-5.607 21.809-10.26 39.86-10.34 40.115-.133.429-.809.463-9.254.463-8.003 0-9.11-.05-9.11-.405zm-3.572-19.966c3.244-.53 6.13-2.581 7.911-5.622l.73-1.247-7.356-9.534c-6.53-8.463-7.382-9.467-7.58-8.936-.551 1.473-2.645 10.118-3.111 12.849-.562 3.285-.666 6.778-.247 8.286.33 1.19 1.23 2.535 2.152 3.217 1.431 1.06 4.547 1.47 7.501.987zm72.857-.373c4.12-2.164 6.62-7.676 10.453-23.045 2.47-9.903 2.39-13.852-.316-15.534-.837-.52-1.325-.605-3.487-.602-3.147.004-4.67.612-6.577 2.628-2.336 2.47-3.733 5.833-5.992 14.421-3.985 15.15-4.14 20.396-.66 22.19 1.035.534 1.484.6 3.44.512 1.466-.067 2.558-.265 3.139-.57zm-59.146-21.986c2.423-9.65 2.543-13.003.546-15.213-1.163-1.287-2.227-1.781-4.545-2.11-4.193-.595-8.17.625-10.791 3.31-1.256 1.285-1.399 1.536-1.108 1.939 2.914 4.027 14.109 18.246 14.248 18.097.104-.112.847-2.822 1.65-6.023zm237.152 21.897c2.953-11.461 5.373-20.988 5.377-21.17.007-.257-1.65-.33-7.43-.33-6.957 0-7.431-.03-7.313-.464.069-.254.632-2.276 1.251-4.493l1.125-4.031 7.424-.07 7.425-.07 3.654-14.156c2.01-7.785 3.656-14.363 3.658-14.618.004-.427-.435-.463-5.552-.463-4.271 0-5.555-.077-5.55-.33.003-.183.577-2.118 1.276-4.3l1.27-3.97 82.73-.066c45.5-.036 82.728.01 82.728.102 0 .093-.6 2.058-1.334 4.366l-1.334 4.198H916.43l-.25.595c-.297.714-5.295 19.939-5.295 20.373 0 .166.387-.058.86-.498 2.983-2.777 7.422-4.938 12.237-5.955 2.35-.497 8.583-.425 10.848.125 3.93.955 6.957 3.033 8.241 5.658 1.443 2.949 1.517 2.549-5.312 28.98l-6.066 23.482H912.25l.226-.86c5.931-22.582 10.412-40.6 10.517-42.29.257-4.112-1.337-5.677-5.59-5.49-2.657.117-4.117.77-6.01 2.692-2.734 2.775-3.085 3.667-6.17 15.653-2.803 10.894-6.167 24.931-8.028 33.501l-1 4.6-9.985.069c-5.492.038-9.986.006-9.986-.07 0-.164 5.767-23.299 5.996-24.056.152-.502.146-.502-.502 0-2.78 2.153-3.857 2.873-5.671 3.788-6.915 3.486-17.368 3.429-22.723-.125-1.585-1.052-2.55-2.21-3.354-4.019-1.15-2.591-1.12-2.745 6.106-30.489 3.62-13.897 6.5-25.359 6.402-25.47-.098-.111-3.56-.171-7.691-.132l-7.512.07-10.344 40.217-10.344 40.216-9.18.07c-6.128.046-9.18-.02-9.18-.201 0-.15 4.583-18.117 10.186-39.929s10.186-39.849 10.186-40.082c0-.378-.768-.423-7.128-.423-4.412 0-7.19.1-7.29.261-.088.144-4.779 18.271-10.422 40.283l-10.261 40.021-9.258.07-9.258.07zm98.993-7.706c2.253-1.165 4.055-3.509 5.268-6.85.684-1.885 11.985-44.212 11.985-44.89 0-.372-.795-.42-7.128-.42-3.952 0-7.194.107-7.275.24-.082.13-2.78 10.34-5.999 22.688-5.72 21.95-6.347 24.784-5.947 26.913.21 1.117 1.447 2.44 2.62 2.8 1.491.458 5.193.183 6.476-.48zm-176.637 27.828c.065-.264.586-2.296 1.157-4.515l1.038-4.035h12.78c14.05 0 15.208-.1 18.525-1.604 4.964-2.25 8.425-6.298 10.393-12.154 1.427-4.247 1.367-8.31-.172-11.63-1.323-2.855-3.366-4.672-6.618-5.886-1.493-.558-2.064-.591-12.297-.729l-10.73-.144 1.187-4.96 1.188-4.961 11.395-.003c8.787-.002 11.706-.086 12.753-.365 5.484-1.46 10.113-6.91 12.047-14.184.78-2.932.844-7.158.141-9.174-.931-2.669-3.379-4.687-6.481-5.346-.922-.195-5.566-.297-13.56-.297-8.092 0-12.158-.09-12.158-.27 0-.149.495-2.245 1.099-4.658l1.098-4.389 15.901.135c13.16.112 16.289.21 18.15.565 3.936.752 6.145 1.454 8.993 2.859 4.552 2.244 7.75 5.89 8.766 9.991.576 2.326.413 6.568-.367 9.525-2.246 8.523-5.75 13.343-12.1 16.641-2.187 1.136-6.068 2.447-8.731 2.95-1.812.342-2.695.782-1.57.782 1.006 0 4.328.984 6.223 1.844 3.251 1.474 6.03 4.232 7.338 7.284 2.543 5.933.883 16.406-3.698 23.334-1.412 2.135-4.613 5.429-6.687 6.88-4.06 2.841-9.714 5.05-15.894 6.208-2.885.54-3.98.576-21.136.678-17.367.103-18.088.088-17.973-.372zm-125.99-96.153c0-.16.855-3.494 1.902-7.409l1.903-7.117h8.804c6.926 0 8.781.07 8.695.33-.094.284-2.69 10.007-3.569 13.362l-.294 1.125h-8.72c-6.17 0-8.722-.085-8.722-.291zm234.155-2.341c-10.35-.927-13.604-5.787-10.904-16.286l.477-1.852 9.58-.07c5.268-.038 9.579.005 9.579.095s-.318 1.192-.706 2.45c-.868 2.813-.977 5.403-.272 6.479 1.123 1.714 3.854 2.443 8.354 2.23 5.526-.263 7.554-2.082 9.697-8.698l.737-2.276 9.55-.145c5.252-.08 9.597-.098 9.657-.041.188.181-.993 3.926-1.99 6.31-2.038 4.867-4.872 8.208-8.437 9.947-3.742 1.825-4.394 1.89-19.579 1.98-7.421.043-14.506-.013-15.743-.123z" fill="#fff" stroke-width=".265"/></svg>