<svg xmlns="http://www.w3.org/2000/svg" width="2662.669" height="1618.631" viewBox="0 0 704.498 428.263"><path d="M333.728 428.093c-26.548-1.04-47.904-3.057-70.691-6.673-119.302-18.935-214.209-74.868-248.963-146.727C6.866 259.79 2.536 245.037.46 228.303c-.613-4.946-.613-23.277 0-28.222 2.907-23.43 10.593-44.183 23.975-64.735C50.171 95.82 95.17 61.587 153.106 37.456 222.81 8.425 306.801-4.328 391.231 1.3c129.215 8.614 240.914 60.453 288.832 134.046 13.382 20.552 21.068 41.304 23.975 64.735.284 2.285.46 7.691.46 14.11 0 12.92-.779 19.82-3.53 31.28-9.082 37.84-34.96 73.638-74.787 103.461-67.782 50.756-168.73 79.82-275.52 79.325-7.954-.037-15.574-.11-16.933-.164zM292.63 336.18c.922-.528 48.973-15.633 114.653-36.04 62.185-19.323 115.525-35.951 118.533-36.953 13.297-4.428 22.044-9.404 27.068-15.398 4.073-4.86 6.731-9.735 11.871-21.78l3.313-7.76 1.892-1.025c3.448-1.868 10.073-6.537 12.62-8.896 8.132-7.529 13.086-18.824 13.086-29.839 0-6.907-1.61-12.72-7.168-25.885-4.266-10.103-5.813-15.264-6.39-21.315l-.219-2.293 2.642-2.06c4.094-3.193 6.285-7.116 5.704-10.214-.444-2.366-2.75-3.57-5.255-2.744-2.212.73-3.947 2.616-5.895 6.41-1.563 3.041-3.795 5.998-15.234 20.177l-13.404 16.614-5.877.023c-6.734.026-8.612.408-13.462 2.737-2.533 1.216-3.553 1.995-6.558 5.004-2.959 2.963-3.807 4.07-5.029 6.563-3.763 7.674-4.147 15.522-1.256 25.672.192.671-.363 1.404-3.43 4.53-4.13 4.209-11.337 10.813-15.194 13.921-3.13 2.522-7.44 4.843-9.525 5.13-1.923.263-3.866-.492-4.754-1.848-.86-1.312-.842-4.953.038-7.541.894-2.633 41.094-100.656 41.404-100.96.136-.133 13.423-1.856 29.527-3.83 17.885-2.192 29.377-3.746 29.528-3.992a854.83 854.83 0 0 0 3.544-6.224l3.296-5.82-29.245-.091c-23.151-.071-29.21-.182-29.074-.53.094-.24 1.323-3.023 2.73-6.182 1.408-3.159 2.475-5.829 2.37-5.933-.104-.105-3.663.006-7.907.245l-7.718.435-2.597 5.587-2.597 5.586H303.942l3.046 2.869c4.927 4.64 6.826 7.049 9.005 11.419 1.618 3.244 2.945 7.365 3.636 11.289.657 3.734.751 11.945.178 15.478-.217 1.335-.346 2.474-.288 2.533.059.058 20.034-2.098 44.39-4.791 65.55-7.25 143.252-15.589 143.446-15.395.145.145-11.297 23.184-12.18 24.526-.255.386-.96.204-3.623-.933-7.719-3.297-11.704-4.121-19.888-4.115-6.212.005-8.864.325-14.69 1.775-6.784 1.689-13.894 4.645-19.91 8.28l-3.04 1.835-3.088-.947c-4.694-1.44-8.175-1.939-13.6-1.95-10.05-.02-18.927 2.22-29.985 7.571-2.523 1.221-6.315 3.272-8.428 4.56-2.112 1.286-3.87 2.294-3.906 2.24-.036-.054-.346-.856-.689-1.782-1.401-3.782-4.932-7.873-8.128-9.42-1.98-.959-5.837-1.76-8.483-1.762-2.875-.002-7.889 1.077-11.296 2.431-3.885 1.544-9.599 4.862-14.002 8.131l-3.699 2.746-1.897-1.196c-1.044-.658-3.172-1.704-4.728-2.323-2.65-1.055-3.111-1.126-7.24-1.129-3.473-.002-5.038.166-7.365.793-1.625.437-3.022.729-3.103.648-.081-.082.35-.992.957-2.022 6.217-10.543 8.612-19.424 7.735-28.678-1.028-10.849-6.431-21.273-14.504-27.981l-2.471-2.054 2.06-1.941c1.133-1.068 3.927-3.184 6.208-4.704 2.282-1.52 4.621-3.16 5.199-3.646 1.126-.947 1.373-2.231.56-2.905-1.275-1.059-10.38 2.202-18.542 6.64l-3.333 1.812-2.192-.877c-5.136-2.056-14.917-4.434-22.513-5.472-8.966-1.226-22.041-1.15-31.246.183-4.83.7-13.076 2.608-19.05 4.408-21.42 6.456-39.207 16.737-53.926 31.168-11.34 11.118-17.342 20.21-20.398 30.897-1.157 4.046-1.457 10.091-.684 13.758 1.857 8.803 9.173 15.856 18.498 17.832 4.35.922 8.396.485 12.06-1.304 2.916-1.424 7.482-5.908 9.265-9.1l1.27-2.274-3.239-1.086c-3.493-1.172-5.836-2.586-7.588-4.581-2.244-2.557-2.357-3-2.329-9.189.023-5.103.118-5.948.992-8.819 4.141-13.6 15.294-27.028 31.086-37.426 17.28-11.377 40.977-17.625 59.368-15.652 6.294.675 11.496 2.48 14.71 5.105.925.755.99.921.53 1.352-.289.27-3.859 2.596-7.933 5.168-8.58 5.416-13.016 8.921-19.403 15.332-8.668 8.7-14.748 16.543-25.852 33.353-4.165 6.306-7.924 12.016-8.352 12.689l-.779 1.223-6.321.042c-5.243.035-6.784.17-9.036.786-5.665 1.551-9.032 3.942-11.099 7.88-.879 1.674-.996 2.273-.996 5.073 0 2.771.127 3.435 1 5.219 1.356 2.773 4.306 5.864 7.84 8.215 2.621 1.744 2.905 2.038 2.636 2.727-2.047 5.234-25.21 55.187-25.92 55.896-.076.077-1.543-.337-3.258-.92-4.694-1.596-7.007-1.937-11.684-1.723-7.686.35-13.506 3.05-19.507 9.052-5.53 5.53-9.034 12.664-10.222 20.807-.57 3.914-.237 11.007.682 14.536 1.505 5.773 4.43 11.783 7.644 15.706l1.273 1.553-1.444 1.725c-5.126 6.123-13.829 11.614-21.366 13.482-4.568 1.132-11.284 1.161-13.67.06-.922-.426-1.676-.922-1.676-1.102 0-.18.666-.434 1.481-.564 4.128-.66 8.984-4.36 10.794-8.226.79-1.686.952-2.519.947-4.857-.006-2.402-.154-3.105-1-4.721-4.39-8.396-15.8-10.897-24.182-5.3-3.503 2.34-5.56 5.342-6.557 9.57-2.159 9.155 2.04 16.69 12.14 21.782 5.784 2.916 15.022 3.932 23.139 2.544 8.252-1.411 18.483-5.586 28.217-11.515l3.88-2.364 4.763 2.474c9.22 4.79 17.061 7.394 26.3 8.736 5.713.83 15.855.835 21.325.01 16.9-2.55 31.88-10.17 44.104-22.433 13.922-13.966 21.91-30.204 24.914-50.641.76-5.18.871-18.725.194-23.813-.679-5.095-2.075-11.533-3.428-15.807-1.512-4.774-5.49-14.253-8.51-20.283-1.256-2.505-2.234-4.602-2.174-4.66.06-.06 1.569-.69 3.351-1.403 5.822-2.326 19.51-9.302 23.526-11.988 2.159-1.444 6.226-4.407 9.04-6.585 11.514-8.913 12.654-9.58 18.368-10.738 4.905-.993 11.439-.342 13.646 1.36.327.252-.312 1.13-2.479 3.407-14.087 14.803-26.089 34.052-31.957 51.254-6.563 19.238-7.323 32.913-2.52 45.369 2.584 6.698 6.765 10.563 13.218 12.22 2.662.684 4.927.682 8.874-.006 16.39-2.858 32.276-16.09 47.206-39.318 8.596-13.372 17.298-31.952 21.148-45.155 2.144-7.354 3.749-16.85 3.749-22.19v-2.11l2.028-1.559c4.193-3.221 9.95-6.774 14.729-9.089 5.583-2.705 8.993-3.91 13.898-4.908 3.82-.779 11.333-1.346 11.311-.855-.008.175-.83.953-1.825 1.729-2.915 2.27-10.691 9.924-14.134 13.911-11.234 13.01-22.199 31.28-26.495 44.15-6.076 18.2-4.704 32.888 3.953 42.329 3.57 3.893 7.768 5.62 13.662 5.62 4.027 0 7.607-.882 11.925-2.936 12.208-5.808 22.313-15.695 30.982-30.315 4.425-7.462 8.437-16.732 10.878-25.134 5.306-18.267 3.481-35.716-4.797-45.88-.856-1.051-1.557-1.987-1.557-2.08 0-.394 8.354-5.642 10.685-6.713 9.208-4.23 20.157-5.186 30.135-2.634 3.396.868 9.42 3.692 9.17 4.298-.101.245-6.127 13.7-13.392 29.902-13.577 30.282-14.533 32.526-15.78 37.042-2.951 10.692.71 18.184 10.538 21.566 2.381.819 8.394.896 11.93.152 10.174-2.14 18.202-7.629 32.452-22.186l6.77-6.916 1.231 1.677c2.383 3.247 6.142 6.356 10.1 8.356 4 2.021 10.413 3.7 14.13 3.7.936 0 1.804.164 1.928.364.35.565-1.54 3.507-3.512 5.472-4.36 4.34-10.433 7.646-19.425 10.574-4.312 1.405-24.838 6.457-73.025 17.974-95.51 22.828-141.403 33.931-144.547 34.971-3.435 1.137-9.18 4.018-12.593 6.317-3.297 2.22-7.724 6.366-9.983 9.348-7.572 9.996-9.13 25.383-3.458 34.157l1.355 2.097 2.416-2.363c1.328-1.299 3.13-2.771 4.003-3.272zM168.1 310.96c-2.537-.273-7.294-1.161-9.08-1.696l-1.847-.552 2.505-2.899c9.844-11.386 18.906-23.638 25.365-34.295 10.09-16.645 17.86-31.888 31.115-61.03 2.912-6.403 5.336-11.689 5.386-11.746.05-.057 2.055-.259 4.456-.448 3.982-.314 11.49-1.451 12.733-1.929.368-.141.915.675 1.963 2.93 3.861 8.31 5.5 19.425 4.684 31.756-1.109 16.757-5.464 31.075-13.543 44.524-4.377 7.288-12.345 16.442-18.935 21.756-11.214 9.041-25.268 13.976-39.335 13.811-2.328-.027-4.789-.11-5.468-.182zm-27.648-13.006c-1.766-2.38-4.338-7.644-4.983-10.194-1.24-4.907-.34-12.218 2.134-17.364 1.274-2.65 4.938-7.575 6.094-8.194.616-.33.679-.16.875 2.382.435 5.64 2.832 10.92 6.763 14.896l2.11 2.134-1.213 2.36c-1.181 2.299-7.954 12.611-9.644 14.686l-.845 1.036zm160.536-37.013c-3.357-.865-5.055-3.593-5.434-8.729-.397-5.374 1.123-11.072 5.725-21.459 7.439-16.788 15.791-31.092 26.46-45.313 9.423-12.56 20.975-25.21 25.569-27.999 2.577-1.565 5.977-.637 7.282 1.987.894 1.799.885 8.275-.017 12.254-2.374 10.474-8.49 26.215-15.351 39.511-8.704 16.867-20.677 34.058-29.772 42.747-3.782 3.613-5.745 5.07-8.456 6.274-2.419 1.075-3.942 1.26-6.006.727zm90.14-14.621c-2.875-1.348-3.982-5.734-3.283-13.013 1.314-13.693 8.16-29.725 20.668-48.396 6.033-9.005 9.777-14.002 14.583-19.46 4.342-4.931 6.646-7.073 7.441-6.92.289.056 1.032.767 1.653 1.58 4.968 6.514 4.107 23.381-2.039 39.97-1.886 5.09-6.88 15.648-10.73 22.685-5.983 10.93-13.57 19.814-19.373 22.682-3.345 1.654-6.578 1.97-8.92.872zm153.34-36.365c-2.658-.42-5.656-1.502-8.036-2.903-1.852-1.09-7.445-6.25-7.437-6.862.008-.635 23.83-32.212 24.301-32.212.534 0 3.388 2.243 5.166 4.06 6.261 6.399 9.048 16.611 6.839 25.066-1.21 4.633-2.378 7.272-3.795 8.58-1.435 1.325-5.368 3.263-7.83 3.859-2.34.566-6.931.771-9.209.412zm30.441-21.27c-1.272-10.941-4.981-18.4-12.859-25.856l-3.32-3.142 8.258-11.465c7.592-10.542 8.918-12.236 8.925-11.406 0 .161.707 3.71 1.567 7.885 2.414 11.705 3.077 16.842 3.073 23.806-.004 3.888-.198 7.071-.555 9.05-.634 3.506-2.623 10.277-3.828 13.026l-.822 1.875zm-49.832-.49c-.715-1.843-1.005-5.163-.663-7.579.968-6.832 5.378-12.717 10.78-14.386 2.378-.734 8.03-1.028 8.395-.437.097.157-.707 1.387-1.786 2.734-1.079 1.347-5.046 6.454-8.816 11.347-3.77 4.894-7.005 8.992-7.19 9.106-.184.114-.508-.24-.72-.784zm-299.122-1.488c0-.464 1.966-3.91 2.231-3.912.423 0 5.226 2.89 5.066 3.05-.234.234-7.297 1.068-7.297.862zm-30.13-3.21c-5.418-2.116-6.512-8.07-1.972-10.738.953-.56 1.837-.723 3.88-.717 2.734.007 6.35.954 6.35 1.662 0 .208-1.223 2.656-2.717 5.44-1.734 3.23-2.915 5.056-3.263 5.045-.301-.009-1.326-.32-2.278-.692zm45.817-2.837c-1.158-1.173-3.534-3.102-5.28-4.286-1.747-1.184-3.302-2.263-3.456-2.398-.283-.247 9.304-17.279 15.09-26.812 10.385-17.109 21.774-32.186 29.866-39.538l3.576-3.25.664.845c1.252 1.59 3.092 5.8 3.842 8.79 1.081 4.313 1.367 14.749.526 19.218-1.802 9.58-6.488 19.444-13.173 27.733-3.039 3.767-9.217 9.583-13.149 12.378-2.564 1.822-15.713 9.454-16.289 9.454-.06 0-1.059-.96-2.217-2.134z" fill="#fff" stroke-width=".353"/></svg>