<svg id="Слой_1" data-name="Слой 1" xmlns="http://www.w3.org/2000/svg" viewBox="0 0 55.58 13.66"><defs><style>.cls-1{fill:#00679a}</style></defs><path class="cls-1" d="M17.01 5.21v3.15h1.47V1.35h-1.47V4h-2.73V1.35h-1.47v7.01h1.47V5.21h2.73zM23.2 5.73l2.35-4.38h-1.66L22.5 4.39l-1.45-3.04h-1.73l2.42 4.36v2.65h1.46V5.73zM32 1.35h-1.45V6c0 .85-.41 1.33-1.42 1.33a1.23 1.23 0 0 1-1.25-1.4V1.35h-1.49V6a2.54 2.54 0 0 0 .54 1.69 3 3 0 0 0 2.23.86c1.77 0 2.88-.8 2.88-2.64zM37.75 6.23h-.02l-2.78-4.88h-1.54v7.01h1.36v-5h.02l2.86 5h1.47V1.35h-1.37v4.88zM42 2.56h1.41c.59 0 1.59.16 1.59 2.23 0 1.16-.4 2.36-1.59 2.36H42zm-1.44 5.8h3c2.32 0 2.91-2.17 2.91-3.67 0-1.33-.49-3.34-2.85-3.34h-3.1zM50 2.93l.86 2.77h-1.8zm-1.29 4h2.58l.45 1.45h1.6l-2.47-7h-1.73l-2.5 7h1.54zM54.12 1.35h1.46v7.01h-1.46zM14.72 10.37h-1.96v2.67h2.02v-.47h-1.47v-.69h1.3v-.48h-1.3v-.56h1.41v-.47zM16.76 12.23l-1.06-1.86h-.59v2.67h.52v-1.9h.01l1.09 1.9h.55v-2.67h-.52v1.86zM19 12.05h.62a.66.66 0 0 1-.65.59c-.37 0-.77-.19-.77-.92s.37-1 .76-1a.58.58 0 0 1 .58.44h.56a1.05 1.05 0 0 0-1.17-.9 1.28 1.28 0 0 0-1.3 1.41 1.24 1.24 0 0 0 1.22 1.4 1 1 0 0 0 .84-.41l.05.34h.37v-1.4H19zM20.46 10.37h.56v2.66h-.56zM23.07 12.23h-.01L22 10.37h-.58v2.67h.52v-1.9l1.09 1.9h.56v-2.67h-.52v1.86zM25.98 10.37h-1.96v2.67h2.03v-.47h-1.48v-.69h1.3v-.48h-1.3v-.56h1.41v-.47zM28.36 10.37H26.4v2.67h2.02v-.47h-1.47v-.69h1.3v-.48h-1.3v-.56h1.41v-.47zM29.32 11.55v-.72H30c.33 0 .39.21.39.35s-.14.37-.43.37zM28.78 13h.54v-1h.58c.41 0 .43.15.43.51a2.11 2.11 0 0 0 .06.54H31V13c-.12-.05-.12-.14-.12-.53s-.12-.58-.34-.68a.62.62 0 0 0 .41-.63.75.75 0 0 0-.83-.76h-1.34zM31.32 10.37h.56v2.66h-.56zM33.92 12.23h-.01l-1.06-1.86h-.58v2.67h.52v-1.9h.01l1.08 1.9h.56v-2.67h-.52v1.86zM36.13 12.05h.62a.67.67 0 0 1-.65.59c-.38 0-.77-.19-.77-.92s.36-1 .76-1a.59.59 0 0 1 .58.44h.56a1.05 1.05 0 0 0-1.17-.9 1.28 1.28 0 0 0-1.3 1.41A1.24 1.24 0 0 0 36 13.11a1 1 0 0 0 .83-.41l.06.34h.37V11.6h-1.13zM41 11.24a1.06 1.06 0 0 0-1.15-.94c-.68 0-1.22.48-1.22 1.41s.51 1.4 1.21 1.4a1.11 1.11 0 0 0 1.16-1h-.6a.57.57 0 0 1-.59.5c-.48 0-.66-.43-.66-.9 0-.76.39-.94.66-.94a.55.55 0 0 1 .59.46zM41.86 11.7c0-.74.43-.93.73-.93s.72.19.72.93-.42.94-.72.94-.73-.19-.73-.94m-.55 0a1.29 1.29 0 1 0 2.56 0 1.29 1.29 0 1 0-2.56 0M44.36 12.49h.56v.54h-.56zM46.14 12.5h-.55v.5h.31c0 .31-.17.38-.31.42v.2a.63.63 0 0 0 .55-.7zM48.38 10.37h-.56v2.67h1.88v-.49h-1.32v-2.18zM51.12 10.84h.81v-.47h-2.17v.47h.81v2.2h.55v-2.2zM52.85 10.83h.54c.24 0 .61.07.61.85 0 .44-.15.9-.61.9h-.54zM52.31 13h1.15c.88 0 1.11-.83 1.11-1.4s-.19-1.27-1.09-1.27h-1.17zM54.73 12.49h.56v.54h-.56zM0 8.48L4.68 0l4.95 8.48H0z"/><path class="cls-1" d="M1.2 8.48L5.87 0l4.95 8.48H1.2z"/></svg>