<svg id="Слой_1" data-name="Слой 1" xmlns="http://www.w3.org/2000/svg" viewBox="0 0 70.39 10.86"><defs><style>.cls-1{fill:#fff}</style></defs><path class="cls-1" d="M4.38.19L.24 3.94a.73.73 0 0 0-.24.53v5.68a.71.71 0 0 0 .72.71h8.36a.71.71 0 0 0 .71-.71V4.47a.75.75 0 0 0-.24-.54L5.34.18a.72.72 0 0 0-1 0m.48 1.26l3.7 3.3v4.92H1.23V4.74l3.63-3.29"/><path class="cls-1" d="M4.86 4.16L3.19 5.68V8h3.38V5.68L4.86 4.16M46.33 3.9v1.35h2.69v5.07h1.47V5.25h2.62V3.9h-6.78zM69 3.9v4.56L65 4.3a1.34 1.34 0 0 0-1.24-.46.82.82 0 0 0-.7.87v5.61h1.45V5.76l4 4.1a1.37 1.37 0 0 0 1.21.54.87.87 0 0 0 .79-1V3.9zM53.82 7.1c0 2.79 1.4 3.33 3.92 3.33s3.93-.54 3.93-3.33-1.4-3.33-3.93-3.33-3.92.54-3.92 3.33m6.3 0c0 1.9-.81 1.9-2.38 1.9s-2.37 0-2.37-1.9.82-1.94 2.37-1.94 2.38.08 2.38 1.94M34.93 3.89h1.46v6.43h-1.46zM31.74 7.88A1.82 1.82 0 0 0 33.18 6a2 2 0 0 0-2.24-2.11h-4.6v6.43h1.44V8h2.34l1.62 2.29h1.69zm-4-2.65h3c.87 0 1 .39 1 .77s-.11.77-1 .77h-3zM42.39 6.28H41.1c-1.1 0-1.33-.21-1.33-.6S40.51 5 41.56 5a6.29 6.29 0 0 1 2.79.62l.77-1.08a6.47 6.47 0 0 0-3.55-.91c-2.1 0-3.35.79-3.35 2.11s1.19 1.92 2.72 1.91h1.42c1.4 0 1.58.16 1.58.69s-.77.86-2 .86a5.69 5.69 0 0 1-3.21-.88l-.78 1.11a6 6 0 0 0 4 1.13c2.29 0 3.61-.83 3.61-2.29s-1.05-2-3.13-2M20.93 3.7a.87.87 0 0 0-.74.37l-3.81 6.25h1.72l.69-1.17h4.27l.7 1.17h1.71l-3.81-6.25a.87.87 0 0 0-.73-.37m0 1.86L22.35 8H19.5s1.37-2.31 1.43-2.4"/></svg>