<svg xmlns="http://www.w3.org/2000/svg" width="539.717" height="132.153" viewBox="0 0 142.8 34.965"><path d="M0 29.523v-5.402l1.044-.771c.574-.425 1.13-.772 1.235-.772.105 0 .19 2.778.19 6.173v6.174H0zm4.233-1.587v-6.99l1.044-.771c.575-.425 1.13-.772 1.235-.772.105 0 .19 3.492.19 7.76v7.762H4.234zm4.234-1.588v-8.577L9.51 17c.574-.425 1.13-.772 1.234-.772.105 0 .191 4.207.191 9.348v9.349H8.467zM12.7 21.47c0-14.595-.12-13.638 1.852-14.786.584-.34.617.42.617 13.941v14.3H12.7zm4.233-1.555V4.905l.97-.854c.534-.47 1.09-.859 1.235-.865.146-.01.265 7.133.265 15.864v15.875h-2.47zm4.234-1.68V1.543L22.21.772C22.785.347 23.34 0 23.445 0c.105 0 .191 7.858.191 17.462v17.463H21.167zm10.936 10.143v-6.546l1.5.108 1.498.109.096 6.438.096 6.438h-3.191zm6.703.197v-6.35h1.398c1.36 0 1.474.1 4.145 3.616l2.747 3.616.1-3.616.1-3.616h2.798v12.7h-1.207c-1.119 0-1.426-.282-4.146-3.792l-2.937-3.793-.1 3.793-.1 3.792h-2.798zm16.4.44c-1.303-3.249-2.448-6.107-2.543-6.35-.125-.315.31-.44 1.539-.44l1.713.002 1.027 2.91c.564 1.6 1.255 3.458 1.535 4.13l.509 1.22 1.488-4.042 1.49-4.044 1.686-.109c.942-.06 1.632.036 1.562.22-.069.18-1.226 3.048-2.573 6.371l-2.449 6.042h-2.615zm12.527-.43v-6.36H77.258v2.443l-3.263.101-3.263.102-.11 1.146-.111 1.147h6.042v2.44l-2.91.103-2.911.103-.11 1.133-.11 1.134 3.462.1 3.46.102v2.47l-4.85.098-4.85.098zm13.89 5.663c-1.909-.867-2.087-1.237-1.198-2.487l.742-1.042 1.133.69c1.376.84 3.96.94 4.258.165.254-.661-.85-1.396-2.917-1.94-2.02-.533-3.56-2.056-3.56-3.519 0-2.458 1.934-4.243 4.597-4.243 1.193 0 4.575 1.322 4.575 1.788 0 .16-.366.715-.814 1.235-.803.934-.829.939-1.964.352-1.528-.79-3.01-.613-3.15.377-.093.652.225.855 2.358 1.503 2.868.871 3.923 1.916 3.923 3.886 0 2.406-1.872 3.918-4.834 3.904-.93 0-2.348-.305-3.149-.669zm13.627-4.262v-4.939h-3.88v-2.822h10.583v2.822h-3.88v9.878H95.25zm12.17 4.456c-4.175-1.947-5.173-7.626-1.88-10.7 3.696-3.452 9.94-1.721 11.242 3.115.674 2.504-.475 5.464-2.72 7.002-1.533 1.05-4.988 1.354-6.641.583zm4.553-2.74c1.164-.531 2.09-2.505 1.798-3.833-.72-3.275-4.656-4.222-6.412-1.542-2.074 3.166 1.17 6.944 4.614 5.374zm7.971-3.136v-6.4l4.263.118 4.264.117 1.028 1.152c1.629 1.825 1.316 4.996-.618 6.263l-.833.546 1.416 2.086c.78 1.147 1.417 2.182 1.417 2.3 0 .119-.753.167-1.673.108-1.598-.103-1.733-.196-3.064-2.136-1.003-1.462-1.614-2.028-2.19-2.028-.726 0-.81.187-.905 2.028l-.106 2.029-1.5.108-1.499.108zm6.842-.802c.417-.305.588-.807.509-1.5-.114-1.003-.191-1.044-2.147-1.146l-2.029-.106v3.21h1.52c.837 0 1.803-.206 2.147-.458zm8.058 6.462c-1.87-.848-2.176-1.55-1.154-2.64l.783-.832 1.181.697c1.564.922 3.87.794 3.87-.216 0-.488-.414-.835-1.412-1.184-3.01-1.053-3.457-1.267-4.099-1.956-.91-.977-.885-3.376.048-4.562 1.43-1.817 4.87-2.092 7.345-.586l1.155.702-.765 1.074c-.534.75-.939 1.001-1.342.832-1.995-.836-2.492-.944-3.361-.726-1.636.411-1.02 1.362 1.4 2.158 3.006.99 3.952 1.7 4.23 3.179.711 3.794-3.586 6.01-7.88 4.06zM32.103 12.71V6.287l3.849.12c3.685.114 3.906.165 5.203 1.203 3.56 2.846 3.418 7.831-.292 10.286-1.301.861-1.843.978-5.108 1.099l-3.652.135zm7.644 2.319c1.22-1.418 1.13-3.486-.209-4.825-.855-.855-1.322-1.03-2.734-1.03h-1.703V16.3l1.912-.158c1.53-.127 2.076-.35 2.734-1.114zm9.171 3.787c-.129-.13-.235-2.352-.235-4.94V9.173h-3.528V6.35h10.626l-.109 1.323-.11 1.323-1.852.106-1.852.107V19.05h-1.352c-.744 0-1.458-.106-1.587-.235zm8.585-.936c0-.963.557-1.823 3.146-4.85l3.147-3.68-2.97-.102-2.97-.102V6.35h10.23l-.01 1.146c-.01.928-.619 1.853-3.198 4.851l-3.186 3.704 3.197.102 3.197.101v2.796H57.503z" fill="#fff" stroke-width=".353"/></svg>